<?xml version="1.0" encoding="UTF-8"?>
<svg id="Layer_1" data-name="Layer 1" xmlns="http://www.w3.org/2000/svg" viewBox="0 0 773.38 329.23">
  <defs>
    <style>
      .cls-1 {
        fill: #202151;
      }

      .cls-1, .cls-2 {
        stroke-width: 0px;
      }

      .cls-2 {
        fill: #fff;
      }
    </style>
  </defs>
  <polygon class="cls-1" points="335.35 202.45 346.7 201.22 356.7 201.71 363.37 202.82 371.27 205.41 378.68 210.6 382.01 214.67 383.37 219.24 383.12 224.92 378.92 227.39 370.65 227.88 367.2 227.02 353.25 221.58 342.26 219.73 333.13 219.86 313.99 221.09 290.41 224.92 272.89 228.87 260.42 231.71 257.08 231.46 256.47 229.61 258.94 222.94 265.23 217.14 274.37 212.2 280.91 210.47 335.35 202.45"/>
  <path class="cls-2" d="M815.98,236.45h-281.93c.92-.99.56-2.63-.84-5.4-.23-.45-.64-1.19-.91-1.63-3.7-5.95-11.6-18.64-16.61-23.53-1.84-1.8-4.02-2.69-6.52-2.72-4.24-.05-8.49-.11-12.73.04-11.75.41-23.41-.22-35.02-2.12-6.86-1.11-13.77-2.13-20.76-1.17-9.02,1.24-17.49,4.3-25.51,8.45-5.83,3.02-11.35,6.65-17.03,9.98-2.65,1.55-4.92.34-4.47-2.67.3-2.05,1.35-4.17,2.61-5.85,2.81-3.73,6.91-5.81,11.16-7.5,12.96-5.14,26.47-6.1,40.17-4.73,18.6,1.87,37.24,2.69,55.93,2.5,1.46-.02,2.93-.1,4.37-.33,3.09-.52,4.03-2.35,2.78-5.25-1.68-3.89-3.53-5.09-8.05-4.96-17.86.5-35.72.85-53.57,1.62-9.2.39-18.4,1.24-27.53,2.44-5.74.75-11.34,2.51-16.51,3.7.25-.11.98-.57,1.78-.8,6.03-1.76,11.99-3.94,18.13-5.1,19.32-3.64,38.91-4.89,58.51-5.86,7.61-.38,15.21-.81,22.8-1.45,3.82-.32,4.68-1.86,3.34-5.48-1.98-5.33-5.12-9.91-9.35-13.73-1.46-1.32-3.46-1.89-5.4-1.49-2.86.59-5.79.99-8.57,1.86-17.44,5.49-34.84,11.08-52.25,16.66-2.8.89-5.55,1.91-8.32,2.87,1.08-1.02,2.32-1.61,3.59-2.14,16.13-6.76,32.28-13.45,48.36-20.31,5.38-2.29,10.62-4.92,15.81-7.62,3.52-1.83,3.99-4.96,1.41-7.98-1.01-1.18-2.34-2.09-3.81-3.37l-5.2-3.85c-3.49-2.42-7.07-4.71-10.45-7.26-4.91-3.69-9.54-7.78-14.56-11.31-4.46-3.14-9.25-5.84-13.99-8.57-1.74-1-3.62-.67-5.39.47-2.71,1.74-5.48,3.38-8.29,4.96-1.21.68-2.56,1.09-3.85,1.63-.22-.24-.23-.25-.46-.48.99-2.05,2.05-4.06,2.95-6.14,1.81-4.17,4.52-8.2,2.31-13.1-.2-.46,0-1.17.16-1.72.87-2.98-.16-5.27-2.75-6.69-3.39-1.86-6.83-3.67-10.41-5.11-6.68-2.67-13.55-4.72-20.81-5.07-2.34-.12-4.6.05-5.72,2.71-.95-.33-1.76-.67-2.6-.88-4.39-1.07-8.75-2.35-13.2-3.08-2.91-.48-3.72.61-3.46,3.53,1.48,16.23,2.99,32.47,4.49,48.7.78,8.51,1.55,17.02,2.32,25.53-.42-.79-.66-1.61-.81-2.44-3.37-18.25-6.68-36.51-10.13-54.75-.97-5.09-2.27-10.12-3.64-15.12-.29-1.06-1.53-2.68-2.32-2.67-5.76.05-11.53.39-17.29.77-1.55.1-2.23,1.26-2.16,2.79.05.95.09,1.9.24,2.84,1.19,7.44,4.07,14.27,7.4,21,6.59,13.36,13.27,26.7,19.39,40.29,7.1,15.77,11.52,32.34,12.76,49.66.24,3.35.04,6.73.04,10.72-.5-.86-.72-1.14-.83-1.46-.43-1.24-1-2.46-1.22-3.74-1.66-9.8-3.13-19.62-4.91-29.39-1.21-6.66-2.45-13.38-4.41-19.84-1.74-5.75-6.1-9.23-12.32-9.71-3.71-.28-7.48-.54-11.18-.25-14.45,1.13-28.9,2.27-43.3,3.83-12.28,1.34-13.45,2.13-19.87,12.59-4.47,7.29-8.41,14.89-12.48,22.41-5.18,9.58-9.8,19.5-16.5,28.17-4.25,5.49-8.79,10.76-13.16,16.16-2.54,3.13-2.42,4.19.92,6.89H-26.22c-.65,0-1.32-.04-1.97.06-.26.05-.48.41-.71.63.25.27.47.7.78.77.55.12,1.16.05,1.74.05,17.07,0,254.16.22,271.22-.09,8.98-.17,17.97-.95,26.9-2.02,10.59-1.27,21.07-3.61,31.69-4.63,15.21-1.47,30.4-.62,45.48,2.16,5.66,1.04,11.41,1.97,17.14,2.19,5.97.23,11.45-1.68,15.25-6.77,4.2-5.64,9.8-6.08,14.85-1.13.52.51,1.08.99,1.57,1.53,4.64,5.11,9.96,6.41,16.63,3.98,9.98-3.63,20.43-5.39,31.05-4.92,11.11.49,23.8,1.93,31.38,3.02,4.61.67,17.28,3.45,30.06,5.23,6.35.88,12.73,1.51,18.16,1.51,67.74.05,278.42.15,292.35-.1l-1.38-1.42ZM368.24,233.9c-5.46.64-10.78-.24-16.09-1.43-15.05-3.37-30.34-4.26-45.63-3.03-11.12.9-22.14,3.07-33.21,4.65-2.53.36-5.06.66-7.71.52,3.53-.89,7.03-1.9,10.59-2.65,17.27-3.68,34.68-6.3,52.38-6.8,7.84-.21,15.41,1.57,23.06,2.8,7.23,1.17,14.47,2.23,21.83,1.58,1.8-.16,3.59-.51,5.91-.85-3.34,3.42-7.05,4.73-11.13,5.21ZM377.96,226.18c-4.65,1.68-9.01.91-13.44-.85-4.95-1.96-9.9-4.06-15.04-5.41-7.36-1.95-14.98-1.42-22.5-.86-17.23,1.3-34.31,3.79-51.12,7.88-4.76,1.16-9.45,2.59-14.22,3.7-1.3.3-2.77-.15-4.17-.25.27-1.39.25-2.94.86-4.15,2.95-5.85,8.09-9.31,13.81-12,5-2.36,10.37-3.4,15.84-4.14,12.54-1.7,25.04-3.61,37.57-5.36,8.54-1.2,17.1-2.27,22.66-3,11.39.18,19.44,1.58,26.45,6.32,2.53,1.72,4.6,4.21,6.56,6.61.89,1.1,1.22,2.82,1.39,4.31.51,4.47-.48,5.7-4.65,7.2ZM385.43,213.95c-.18,2.21-.41,4.42-.62,6.63-1.45-11.17-9.73-15.19-18.83-18.23-8.99-2.99-18.22-2.48-27.39-1.12-13.96,2.08-27.89,4.41-41.84,6.51-4.77.72-9.65.79-14.38,1.67-8.66,1.61-16.58,4.98-22.48,11.82-1.72,1.99-3,4.49-3.93,6.97-1.04,2.76.55,4.72,3.47,4.3,3.67-.53,7.29-1.5,10.88-2.45,21.94-5.81,44.23-9.21,66.95-9.77,8.38-.21,16.23,1.79,23.78,5.25,1.7.79,3.46,1.44,5.19,2.16-.09.33-.06.23-.15.56-5.25-.69-10.56-1.09-15.74-2.13-10.03-2.01-20.09-3.1-30.31-2.24-18.77,1.59-37.3,4.55-55.57,9.25-4.89,1.25-10.11,1.22-15.18,1.74-.49.06-1.02-.08-1.52-.19-2.81-.6-3.19-1.5-1.36-3.77,3.81-4.72,7.76-9.33,11.56-14.06,7.09-8.84,12.14-18.93,17.45-28.86,4.41-8.24,8.83-16.5,13.61-24.53,5.63-9.48,6.2-9.87,16.91-11.5,17.38-2.64,34.88-4.15,52.49-4.02,1.67.01,3.36.19,5.01.49,4.9.89,8.01,4.11,9.43,8.57,1.57,4.91,2.71,10,3.58,15.1,1.64,9.64,2.83,19.37,4.46,29.02.7,4.13,1.46,8.37,4.32,11.79.2.24.24.7.21,1.04ZM433.51,103.17c-.31,1.33-.44,2.73-.96,3.98-1.2,2.89-2.6,5.71-3.92,8.57-.33.73-.81,1.44-.94,2.21-.13.8-.22,1.94.22,2.42.44.46,1.67.57,2.38.33,1.72-.58,3.38-1.37,4.98-2.24,2.11-1.16,4.24-2.35,6.18-3.77,2.05-1.51,4.08-1.54,6.14-.36,3.1,1.78,6.29,3.48,9.15,5.6,8.12,6,16.06,12.23,24.15,18.27,2.27,1.7,4.82,3.03,6.82,4.28-7.53,3.75-15.32,7.44-22.94,11.45-13.91,7.33-27.82,14.68-41.56,22.32-10.5,5.84-20.39,12.62-29.42,20.75,12.03-31.75,25.96-62.7,39.72-93.81ZM398.71,82.77c2.69.08,5.5.03,8.03.79,6.7,2.03,13.3,4.4,19.89,6.75,1.42.51,2.69,1.48,4,2.27,2.19,1.32,2.95,3.14,1.71,6.02-2.1-1.41-4.07-2.64-5.94-4.01-2.62-1.93-5.55-2.6-8.71-2.2-1.33.17-2.61.73-3.73,1.07-1.37-1-2.71-2.29-4.31-3.07-4.33-2.11-8.76-4-13.82-6.27,1.21-.6,2.05-1.38,2.88-1.35ZM395.43,85.55c5.58,2.62,10.55,4.85,15.41,7.32,1.68.85,1.11,2.62.39,3.86-11.18,19.31-15.97,40.65-19.79,62.28-.91,5.16-1.51,10.38-2.26,15.57,1.36-29.49,1.76-59.05,6.25-89.03ZM410.58,101.41c-5.09,28.03-11.32,55.82-19.93,83.04,1.57-28.88,7.21-56.78,19.93-83.04ZM385.53,186.8c-2.9-17.78-9.48-34.33-17.15-50.47-4.55-9.57-9.51-18.94-14.26-28.41-3.19-6.37-5.75-12.94-6.68-20.07-.37-2.76.81-3.56,4.77-3.08,3.06.37,6.16.22,9.16-.51,2.98-.72,4.47-.2,4.97,2.18,2.02,9.65,4.32,19.25,6.16,28.93,3.38,17.87,6.5,35.79,9.77,53.69.2,1.09.7,2.12,1.06,3.18l.9-.15c.08-.95.3-1.91.23-2.84-.76-9.99-1.48-19.98-2.36-29.95-1.06-12.09-2.28-24.16-3.41-36.24-.6-6.4-1.2-12.8-1.73-19.21-.2-2.42.22-2.92,2.5-2.43,4.9,1.06,9.75,2.38,14.63,3.59-3.14,17.81-4.02,35.25-4.95,52.68-.93,17.36-1.71,34.74-2.96,52.17-.22-1.02-.48-2.03-.65-3.06ZM459.72,226.98c-23.42-2.16-33.97.73-46.11,4.75-5.94,1.97-10.65.88-14.79-3.7-.07-.08-.2-.21-.27-.29q-5.37-5.18-12.04-4.83c.61-12.33,1.23-24.7,1.85-36.96.66.54,1.49,1.58,1.86,1.44.76-.29,1.6-1.11,1.85-1.9,2.01-6.25,4.22-12.47,5.74-18.85,4.8-20.16,9.34-40.4,13.92-60.62.57-2.49.85-5.03,1.22-7.56.29-2.04,2.01-4.14,4.01-4.43,2.65-.38,5.29-.21,7.64,1.28,2.22,1.4,4.47,2.79,6.54,4.4.46.35.58,1.7.31,2.37-2.79,6.91-5.68,13.78-8.55,20.65-10.28,24.62-20.57,49.22-30.81,73.85-.63,1.52-.86,3.2-1.28,4.81.21.1.43.19.64.29.41-.22.93-.35,1.23-.68,7.69-8.64,17.12-15.14,27.04-20.78,15.9-9.03,32.08-17.56,48.21-26.17,5.73-3.06,11.63-5.84,17.54-8.55,3.28-1.51,6.32-.44,8.35,2.49,1.37,1.97.76,4.42-1.39,5.47-7.14,3.48-14.27,6.97-21.56,10.1-14.31,6.14-28.75,12.01-43.1,18.07-3.1,1.3-6.09,2.86-9.07,4.42-.58.3-.86,1.17-1.28,1.78.72.15,1.54.58,2.16.39,4.75-1.44,9.49-2.96,14.2-4.55,18.97-6.44,37.88-13.05,57.32-18.07,5.12-1.32,8.74-.21,11.44,4.08,1.98,3.13,3.9,6.33,5.5,9.67,1.09,2.28.5,3.02-2.06,3.19-9.2.62-18.41,1.19-27.61,1.73-19.74,1.17-39.47,2.37-58.85,6.63-8.55,1.87-16.81,4.68-23.9,10.02-2.02,1.52-3.7,3.51-5.39,5.41-.64.73-.94,1.8-1.22,2.77-.11.39.15,1.16.46,1.32.42.22,1.11.15,1.6-.03.45-.17.84-.6,1.14-1,5.2-7.06,12.61-10.42,20.81-12.52,9.05-2.31,18.28-3.43,27.57-3.75,14.2-.48,28.4-.57,42.6-.97,6.44-.18,12.87-.65,19.3-1.11,2.97-.21,5.06.79,6.45,3.45,1.32,2.53.77,3.78-2.11,3.85-6.14.15-12.31.42-18.44.11-15.71-.79-31.4-1.97-47.11-2.8-11.14-.58-22.09.68-32.64,4.48-5.13,1.85-10.09,4.18-13.53,8.59-1.43,1.84-2.4,4.16-3.05,6.42-.54,1.88.29,3.78,2.01,4.99,1.72,1.22,3.36.56,4.91-.43,7.76-4.98,15.54-9.92,24.2-13.26,6.65-2.57,13.38-5.14,20.54-5.15,6.33,0,12.69.77,18.98,1.64,11.06,1.51,22.13,2.28,33.29,1.83,3.88-.15,7.76-.14,11.64-.2,3.17-.05,5.91.93,7.95,3.45,3.91,4.82,11.3,16.98,15.13,21.86.76.96,1.26,2.15,1.75,3.29.89,2.08.62,2.71-1.62,2.82-9.13.45-36.06-5.76-71.12-9Z"/>
</svg>