<svg width="80" height="31" viewBox="0 0 80 31" fill="none" xmlns="http://www.w3.org/2000/svg">
<path d="M0.0805664 6.02375V8.47389L5.20525 7.64361V4.33063L0.0805664 6.02375Z" fill="#E34027"/>
<path d="M0.0722656 14.4649L5.19695 15.3359V12.0229L0.0803233 12.0148L0.0722656 14.4649Z" fill="#E34027"/>
<path d="M0.0722656 20.5048L5.18889 23.0526V19.6501L0.0722656 17.9V20.5048Z" fill="#E34027"/>
<path d="M11.6028 2.19794L11.5948 6.60168L5.52734 7.57848V4.20038L11.6028 2.19794Z" fill="#E34027"/>
<path d="M0.00805776 8.9867L0 11.5101L11.595 11.5182V7.1145L0.00805776 8.9867Z" fill="#E34027"/>
<path d="M11.595 12.0311L11.587 16.4348L5.51953 15.4011V12.0229L11.595 12.0311Z" fill="#E34027"/>
<path d="M0 17.4279L11.5869 21.3514V16.9477L0 14.9778V17.4279Z" fill="#E34027"/>
<path d="M11.5791 21.8561V26.268L5.51172 23.248V19.7804L11.5791 21.8561Z" fill="#E34027"/>
<path d="M23.4881 14.2533C24.7209 15.5313 25.4702 17.2814 25.4702 19.2024C25.4702 23.1422 22.2875 26.3493 18.3875 26.3412H11.9736V21.9537H18.3875C19.8943 21.9537 21.1191 20.7246 21.1272 19.2024C21.1272 17.6884 19.9024 16.4429 18.3956 16.4429H11.9817V12.0555H18.3956C19.9024 12.0555 21.1272 10.8263 21.1352 9.30415C21.1352 7.79011 19.9104 6.54469 18.4037 6.54469H11.9897V2.15723H18.4037C22.3036 2.16537 25.4783 5.38067 25.4702 9.31229C25.4702 11.2333 24.7128 12.9834 23.48 14.2614" fill="#E34027"/>
<path d="M14.544 7.14709H11.9897V11.4857H14.544V7.14709Z" fill="#E34027"/>
<path d="M14.5357 17.0209H11.9814V21.3595H14.5357V17.0209Z" fill="#E34027"/>
<path d="M76.5498 16.84V17.2H77.0498V18.53H77.4598V17.2H77.9798V16.84H76.5498Z" fill="#232255"/>
<path d="M78.2597 18.53V16.83H78.6297L79.2497 17.84H78.9797L79.5997 16.83H79.9597V18.53H79.5597V18.01C79.5597 17.87 79.5597 17.73 79.5597 17.62C79.5597 17.5 79.5797 17.39 79.5897 17.27L79.6397 17.39L79.1597 18.11H78.9997L78.5397 17.39L78.5897 17.26C78.6097 17.37 78.6197 17.48 78.6197 17.59C78.6197 17.7 78.6197 17.84 78.6197 18V18.53H78.2197H78.2597Z" fill="#232255"/>
<path d="M29.9864 26.5V16.8004H33.6032C35.302 16.8004 37.1515 17.1566 37.1515 19.2664C37.1515 20.3487 36.4802 21.0885 35.4801 21.4036V21.431C36.7542 21.5954 37.6036 22.5407 37.6036 23.8011C37.6036 25.8287 35.6856 26.5 33.9594 26.5H29.9864ZM32.1236 18.6088V20.6775H33.6717C34.3293 20.6775 35.0143 20.4035 35.0143 19.6226C35.0143 18.8143 34.2471 18.6088 33.5758 18.6088H32.1236ZM32.1236 22.4859V24.6916H34.0416C34.7129 24.6916 35.4664 24.4039 35.4664 23.5545C35.4664 22.6366 34.4389 22.4859 33.7402 22.4859H32.1236ZM38.459 26.5V16.8004H42.2128C44.1993 16.8004 45.8707 17.4854 45.8707 19.7459C45.8707 21.1022 45.1446 22.1571 43.7746 22.4037L46.2406 26.5H43.6787L41.6511 22.6229H40.5962V26.5H38.459ZM40.5962 18.6088V20.8145H41.8566C42.6375 20.8145 43.6513 20.7871 43.6513 19.7322C43.6513 18.7595 42.7745 18.6088 41.9936 18.6088H40.5962ZM46.9042 26.5V16.8004H49.0414V26.5H46.9042ZM58.5615 17.9786L56.9175 19.3212C56.4928 18.8143 55.8763 18.5266 55.0817 18.5266C53.4651 18.5266 52.2732 19.8418 52.2732 21.6502C52.2732 23.4586 53.4651 24.7738 55.0132 24.7738C55.8763 24.7738 56.575 24.3902 57.0134 23.7326L58.7944 25.0615C57.9861 26.2123 56.6161 26.7466 55.2872 26.7466C52.2595 26.7466 50.0538 24.7601 50.0538 21.6502C50.0538 18.5403 52.2595 16.5538 55.2872 16.5538C56.3695 16.5538 57.7395 16.9237 58.5615 17.9786ZM59.6242 26.5V16.8004H61.7614V20.8282L65.5289 16.8004H68.3237L64.0082 21.3077L68.6936 26.5H65.707L61.7614 21.8968V26.5H59.6242ZM75.2789 17.5676L73.813 19.1705C73.4705 18.7321 72.7855 18.5266 72.2649 18.5266C71.6621 18.5266 70.8264 18.8006 70.8264 19.5267C70.8264 21.294 75.2926 20.1569 75.2926 23.5545C75.2926 25.7191 73.5527 26.7466 71.5525 26.7466C70.3058 26.7466 69.2098 26.3767 68.2919 25.5273L69.8126 23.8559C70.251 24.4313 70.9634 24.7738 71.6758 24.7738C72.3745 24.7738 73.1554 24.445 73.1554 23.76C73.1554 21.979 68.607 22.938 68.607 19.7048C68.607 17.6361 70.4017 16.5538 72.306 16.5538C73.402 16.5538 74.4569 16.8415 75.2789 17.5676Z" fill="#232255"/>
<path d="M36.7473 3.0676L35.2814 4.6705C34.9389 4.2321 34.2539 4.0266 33.7333 4.0266C33.1305 4.0266 32.2948 4.3006 32.2948 5.0267C32.2948 6.794 36.761 5.6569 36.761 9.0545C36.761 11.2191 35.0211 12.2466 33.0209 12.2466C31.7742 12.2466 30.6782 11.8767 29.7603 11.0273L31.281 9.3559C31.7194 9.9313 32.4318 10.2738 33.1442 10.2738C33.8429 10.2738 34.6238 9.945 34.6238 9.26C34.6238 7.479 30.0754 8.438 30.0754 5.2048C30.0754 3.1361 31.8701 2.0538 33.7744 2.0538C34.8704 2.0538 35.9253 2.3415 36.7473 3.0676ZM37.5723 12V5.3418H39.6273V12H37.5723ZM37.4079 3.2457C37.4079 2.5881 37.9422 2.0538 38.5998 2.0538C39.2574 2.0538 39.7917 2.5881 39.7917 3.2457C39.7917 3.9033 39.2574 4.4376 38.5998 4.4376C37.9422 4.4376 37.4079 3.9033 37.4079 3.2457ZM40.5557 12V5.3418H42.5285V6.246H42.5559C42.8299 5.7254 43.5012 5.1774 44.5013 5.1774C45.4329 5.1774 46.2001 5.561 46.5563 6.3693C47.0358 5.5199 47.6797 5.1774 48.6661 5.1774C50.4745 5.1774 51.0225 6.4515 51.0225 8.0681V12H48.9675V8.1229C48.9675 7.5064 48.7346 6.9858 48.0633 6.9858C47.118 6.9858 46.8166 7.6571 46.8166 8.4791V12H44.7616V8.4791C44.7616 7.9859 44.789 6.9858 43.8437 6.9858C42.7751 6.9858 42.6107 7.8215 42.6107 8.6846V12H40.5557ZM52.1201 15.1236V5.3418H54.0107V6.2186H54.0381C54.3532 5.7391 55.1478 5.1774 56.0794 5.1774C58.0522 5.1774 59.3537 6.6022 59.3537 8.6161C59.3537 10.4656 58.2029 12.1644 56.3123 12.1644C55.4629 12.1644 54.6683 11.9315 54.2025 11.2876H54.1751V15.1236H52.1201ZM54.0107 8.6709C54.0107 9.671 54.6272 10.356 55.6547 10.356C56.6822 10.356 57.2987 9.671 57.2987 8.6709C57.2987 7.6708 56.6822 6.9858 55.6547 6.9858C54.6272 6.9858 54.0107 7.6708 54.0107 8.6709ZM60.0371 12V1.6428H62.0921V12H60.0371ZM67.884 9.7943L69.3225 10.8492C68.6649 11.6849 67.5826 12.1644 66.514 12.1644C64.459 12.1644 62.815 10.7944 62.815 8.6709C62.815 6.5474 64.459 5.1774 66.514 5.1774C68.432 5.1774 69.6376 6.5474 69.6376 8.6709V9.3148H64.87C65.0344 10.0957 65.6235 10.6026 66.4181 10.6026C67.0894 10.6026 67.5415 10.2601 67.884 9.7943ZM64.87 7.9174H67.5826C67.5963 7.2324 67.062 6.657 66.3222 6.657C65.418 6.657 64.9248 7.2735 64.87 7.9174Z" fill="#232255"/>
</svg>
