<svg width="87" height="31" viewBox="0 0 87 31" fill="none" xmlns="http://www.w3.org/2000/svg">
<path d="M8.16392 10.1634H16.3278V18.3268H8.16392V10.1634ZM0 26.4985H24.5V2H0V26.4902V26.4985Z" fill="#4178BD"/>
<path d="M36.2473 3.0676L34.7814 4.6705C34.4389 4.2321 33.7539 4.0266 33.2333 4.0266C32.6305 4.0266 31.7948 4.3006 31.7948 5.0267C31.7948 6.794 36.261 5.6569 36.261 9.0545C36.261 11.2191 34.5211 12.2466 32.5209 12.2466C31.2742 12.2466 30.1782 11.8767 29.2603 11.0273L30.781 9.3559C31.2194 9.9313 31.9318 10.2738 32.6442 10.2738C33.3429 10.2738 34.1238 9.945 34.1238 9.26C34.1238 7.479 29.5754 8.438 29.5754 5.2048C29.5754 3.1361 31.3701 2.0538 33.2744 2.0538C34.3704 2.0538 35.4253 2.3415 36.2473 3.0676ZM37.0723 12V5.3418H39.1273V12H37.0723ZM36.9079 3.2457C36.9079 2.5881 37.4422 2.0538 38.0998 2.0538C38.7574 2.0538 39.2917 2.5881 39.2917 3.2457C39.2917 3.9033 38.7574 4.4376 38.0998 4.4376C37.4422 4.4376 36.9079 3.9033 36.9079 3.2457ZM40.0557 12V5.3418H42.0285V6.246H42.0559C42.3299 5.7254 43.0012 5.1774 44.0013 5.1774C44.9329 5.1774 45.7001 5.561 46.0563 6.3693C46.5358 5.5199 47.1797 5.1774 48.1661 5.1774C49.9745 5.1774 50.5225 6.4515 50.5225 8.0681V12H48.4675V8.1229C48.4675 7.5064 48.2346 6.9858 47.5633 6.9858C46.618 6.9858 46.3166 7.6571 46.3166 8.4791V12H44.2616V8.4791C44.2616 7.9859 44.289 6.9858 43.3437 6.9858C42.2751 6.9858 42.1107 7.8215 42.1107 8.6846V12H40.0557ZM51.6201 15.1236V5.3418H53.5107V6.2186H53.5381C53.8532 5.7391 54.6478 5.1774 55.5794 5.1774C57.5522 5.1774 58.8537 6.6022 58.8537 8.6161C58.8537 10.4656 57.7029 12.1644 55.8123 12.1644C54.9629 12.1644 54.1683 11.9315 53.7025 11.2876H53.6751V15.1236H51.6201ZM53.5107 8.6709C53.5107 9.671 54.1272 10.356 55.1547 10.356C56.1822 10.356 56.7987 9.671 56.7987 8.6709C56.7987 7.6708 56.1822 6.9858 55.1547 6.9858C54.1272 6.9858 53.5107 7.6708 53.5107 8.6709ZM59.5371 12V1.6428H61.5921V12H59.5371ZM67.384 9.7943L68.8225 10.8492C68.1649 11.6849 67.0826 12.1644 66.014 12.1644C63.959 12.1644 62.315 10.7944 62.315 8.6709C62.315 6.5474 63.959 5.1774 66.014 5.1774C67.932 5.1774 69.1376 6.5474 69.1376 8.6709V9.3148H64.37C64.5344 10.0957 65.1235 10.6026 65.9181 10.6026C66.5894 10.6026 67.0415 10.2601 67.384 9.7943ZM64.37 7.9174H67.0826C67.0963 7.2324 66.562 6.657 65.8222 6.657C64.918 6.657 64.4248 7.2735 64.37 7.9174Z" fill="#232255"/>
<path d="M29.4864 26.5V16.8004H33.1032C34.802 16.8004 36.6515 17.1566 36.6515 19.2664C36.6515 20.3487 35.9802 21.0885 34.9801 21.4036V21.431C36.2542 21.5954 37.1036 22.5407 37.1036 23.8011C37.1036 25.8287 35.1856 26.5 33.4594 26.5H29.4864ZM31.6236 18.6088V20.6775H33.1717C33.8293 20.6775 34.5143 20.4035 34.5143 19.6226C34.5143 18.8143 33.7471 18.6088 33.0758 18.6088H31.6236ZM31.6236 22.4859V24.6916H33.5416C34.2129 24.6916 34.9664 24.4039 34.9664 23.5545C34.9664 22.6366 33.9389 22.4859 33.2402 22.4859H31.6236ZM37.959 26.5V16.8004H41.7128C43.6993 16.8004 45.3707 17.4854 45.3707 19.7459C45.3707 21.1022 44.6446 22.1571 43.2746 22.4037L45.7406 26.5H43.1787L41.1511 22.6229H40.0962V26.5H37.959ZM40.0962 18.6088V20.8145H41.3566C42.1375 20.8145 43.1513 20.7871 43.1513 19.7322C43.1513 18.7595 42.2745 18.6088 41.4936 18.6088H40.0962ZM45.911 21.6502C45.911 18.5403 48.1167 16.5538 51.1444 16.5538C54.1721 16.5538 56.3778 18.5403 56.3778 21.6502C56.3778 24.7601 54.1721 26.7466 51.1444 26.7466C48.1167 26.7466 45.911 24.7601 45.911 21.6502ZM48.1304 21.6502C48.1304 23.4586 49.3223 24.7738 51.1444 24.7738C52.9665 24.7738 54.1584 23.4586 54.1584 21.6502C54.1584 19.8418 52.9665 18.5266 51.1444 18.5266C49.3223 18.5266 48.1304 19.8418 48.1304 21.6502ZM57.5016 26.5V16.8004H59.6388V20.8282L63.4063 16.8004H66.2011L61.8856 21.3077L66.571 26.5H63.5844L59.6388 21.8968V26.5H57.5016ZM66.9776 26.5V16.8004H73.5673V18.7732H69.1148V20.5816H73.3207V22.5544H69.1148V24.5272H73.8139V26.5H66.9776ZM75.1138 26.5V16.8004H78.8676C80.8541 16.8004 82.5255 17.4854 82.5255 19.7459C82.5255 21.1022 81.7994 22.1571 80.4294 22.4037L82.8954 26.5H80.3335L78.3059 22.6229H77.251V26.5H75.1138ZM77.251 18.6088V20.8145H78.5114C79.2923 20.8145 80.3061 20.7871 80.3061 19.7322C80.3061 18.7595 79.4293 18.6088 78.6484 18.6088H77.251Z" fill="#232255"/>
<path d="M83.5 16.84V17.2H84V18.53H84.41V17.2H84.93V16.84H83.5Z" fill="#232255"/>
<path d="M85.2099 18.53V16.83H85.5799L86.1999 17.84H85.9299L86.5499 16.83H86.9099V18.53H86.5099V18.01C86.5099 17.87 86.5099 17.73 86.5099 17.62C86.5099 17.5 86.5299 17.39 86.5399 17.27L86.5899 17.39L86.1099 18.11H85.9499L85.4899 17.39L85.5399 17.26C85.5599 17.37 85.5699 17.48 85.5699 17.59C85.5699 17.7 85.5699 17.84 85.5699 18V18.53H85.1699H85.2099Z" fill="#232255"/>
</svg>
