<?xml version="1.0" encoding="UTF-8"?>
<svg id="Layer_1" data-name="Layer 1" xmlns="http://www.w3.org/2000/svg" viewBox="0 0 773.38 409.1">
  <defs>
    <style>
      .cls-1 {
        fill: #242157;
      }

      .cls-1, .cls-2 {
        stroke-width: 0px;
      }

      .cls-2 {
        fill: #fff;
      }
    </style>
  </defs>
  <polygon class="cls-1" points="402.51 218.7 420.69 214.89 430.92 212.66 431.56 213.24 431.56 219.86 431.8 280.9 431.51 297.62 428.95 298.29 419.82 298.29 418.27 297.91 418.08 255.09 410.83 256.16 400.39 257.12 399.62 240.4 399.62 223.68 402.51 218.7"/>
  <path class="cls-2" d="M452.54,237.64v2.81c-.75-.77-.75-1.71,0-2.81Z"/>
  <path class="cls-2" d="M491.53,297h3.25c.17-.42.4-.73.41-1.04.06-1.72.09-3.44.08-5.15-.09-16.54-.13-33.09-.29-49.63-.16-15.96-.37-31.93-.74-47.89-.07-3.17-.95-6.33-1.54-9.48-.45-2.4-.94-4.7.73-6.92.48-.63.41-1.76.4-2.66-.13-12.86-.29-25.73-.45-38.59,0-.57-.06-1.15-.02-1.72.12-1.83.68-2.27,2.38-1.71.97.31,1.91.8,2.77,1.34,9.19,5.85,18.35,11.75,27.55,17.59,2,1.27,3.2,2.79,2.98,5.34-.19,2.16-.04,4.35-.04,6.47,8.43,2.82,14.62,9.04,21.99,13.3,2.13,1.24,2.9,3.2,2.89,5.79-.09,15.16-.05,30.33.03,45.49.11,22.06.28,44.11.44,66.17,0,1.23.18,2.46.3,4.03,101.17.23,119.05-.96,220.03.26-.58.15-1.15.37-1.73.43-.8.07-1.61.02-2.41.02-60.21.02-37.41,0-97.62.06-28.84.03-57.68.13-86.52.28-10.22.05-20.44.44-30.66.55-8.94.1-17.89.12-26.83-.01-8.96-.14-17.91-.51-26.86-.78-.8-.02-1.6-.08-2.61-.14.58-1.44,1.71-1.07,2.57-1.06,5.05.05,10.11.22,15.16.26,10.91.08,21.83.11,32.75.14.78,0,1.56-.15,2.7-.27.1-1.29.29-2.5.28-3.72-.1-21.83-.25-43.65-.34-65.48-.07-14.82-.17-29.64-.03-44.46.03-3.52-1.11-5.79-4.08-7.63-4.77-2.95-9.35-6.23-14.01-9.36-.76-.51-1.53-1.04-2.36-1.41-1.44-.64-2.51-.16-2.85,1.38-.24,1.1-.19,2.28-.19,3.42.1,31.36.22,62.72.33,94.08.02,5.97.02,11.95-.02,17.92,0,1.34-.25,2.68-1.05,4.14-10.53-30.08-21.06-60.15-31.59-90.23-.28.05-.55.09-.83.14-.04,33.87.73,67.74,1.24,101.98-13.25.86-26.23,1.7-39.32,2.55-.33-1.08-.58-1.91-.83-2.72-5.4.48-10.64.7-16.23-.18v-87.29c-2.53.64-4.64,1.04-6.65,1.75-.68.24-1.33,1.2-1.56,1.96-.29.96-.17,2.05-.17,3.08.02,25.96.05,51.93.09,77.89,0,3.53-.18,3.79-3.61,3.83-2.76.03-5.52.05-8.27-.08-2.64-.12-3.2-.71-3.22-3.38-.05-6.66-.02-13.33-.02-19.99,0-5.97,0-11.95-.02-17.92,0-.45-.11-.89-.2-1.62-1.13,0-2.22-.07-3.3.02-1.01.08-2.01.33-3.05.88h3.88c.84,2.79.94,42.58.13,46.12-25.55.94-51.16,3.1-77.1.9-.12-1.22-.22-2.22-.31-3.22-.06-.68.17-1.57-.17-2.02-1.79-2.36-1.15-5.06-1.19-7.63-.07-4.94,0-9.88,0-14.82,0-1.24,0-2.48,0-4.24-20.4,2.08-40.34,4.7-60.83,6.91-.2-7.14-.01-14.2-.05-21.26-.03-7.24,0-14.48,0-21.71,0-7.1,0-14.21,0-21.31-.21,0-.43,0-.64,0v84.39c-1.2.06-2.04.1-3.32.16V75.48c-.27-.08-.55.84-.82.76-.65,1.24-1.37,2.46-1.96,3.73-11.79,25.61-23.56,51.23-35.33,76.85-1.63,3.54-3.41,7.02-4.84,10.64-.78,1.98-1.06,4.17-1.38,6.3-.2,1.35-.04,2.75-.04,4.13-.06,39.86-.11,64.73-.16,104.59,0,4.81,0,9.61,0,15.03-1.27-.44-2.33-.52-2.45-.9-.64-2.04-2.17-2.13-3.85-2.09-.92.02-1.84,0-2.76,0-83.88,0-157.76,0-241.64.02-3.79,0,2.43.18-1.36.23-.46,0-.93-.28-1.36-.81,7.52-.53,5.02-.43,12.51-.44,7.47-.02,4.94,0,12.41,0h22.75c7.58,0,15.17,0,22.75,0,7.47,0,14.94,0,22.41,0,7.58,0,15.17,0,22.75,0,7.58,0,15.17,0,22.75,0s14.94,0,22.41,0c7.58,0,15.17,0,22.75,0,7.58,0,15.17,0,22.75,0h45.54v-4.37c0-42.74.01-70.47-.02-113.21,0-3.52.72-6.79,2.2-9.97,12.18-26.32,24.32-52.65,36.47-78.97,2.11-4.58,4.19-9.17,6.3-13.75.51-1.1,1.08-2.18,2.25-3.18.12.82.34,1.64.34,2.47.03,5.28.01,8.57.01,13.85,0,44.35,0,75.69,0,120.04,0,1.03-.06,2.08.06,3.1.12,1.05.74,1.62,2.32,1.29.25-8.86.08-17.76.11-26.66.03-8.96,0-2.92,0-11.88v-107.61c3.09,1.57,5.63,2.83,8.14,4.14,18.59,9.74,37.17,19.5,55.75,29.26,5.18,2.72,10.33,5.48,15.52,8.17,2.49,1.29,3.65,3.17,3.63,6.07-.11,16.54-.1,18.08-.14,34.63,0,.78-.13,1.57-.22,2.62-10.11-1.16-20.07-2.3-30.53-3.5-.58,34.41-1.16,68.35-1.73,102.47,1.87-.19,3.52-.09,4.99-.54,6.82-2.1,13.63-1.08,20.48-.25,8.08.98,16.17,1.78,24.25,2.71,4.67.53,9.32,1.17,13.99,1.73.67.08,1.37.01,2.48.01.08-1.19.24-2.4.23-3.61-.26-29.75-.52-59.5-.81-89.25-.04-3.77-.13-3.83-3.79-4.26-7.97-.94-15.94-1.82-23.9-2.8-1.74-.22-3.45-.75-5.23-1.16.72-2.01,2-1.54,3.05-1.42,6.84.74,13.67,1.53,20.5,2.31,2.96.34,5.92.68,8.87,1.07,3.79.51,3.8.53,3.8,4.54,0,12.98,0,25.96,0,38.95,0,1.25,0,2.51,0,3.99,2.83.93,5.52,1.85,8.23,2.71,2.96.93,2.98.91,3.01,4.04.03,2.86,0,5.71,0,9.07,3.45-.96,6.51-1.78,9.55-2.68,1.98-.58,3.89-1.42,5.89-1.89,1.95-.46,2.57-1.55,2.54-3.44-.07-4.94-.01-9.88-.01-14.82,0-9.54.08-19.07-.05-28.61-.04-2.82,1.06-4.42,3.48-5.67,11.91-6.16,23.78-12.41,35.63-18.7,1.96-1.04,3.71-1.59,5.8-.36,1.65.97,3.32.39,4.91-.45,3.95-2.1,7.93-4.13,11.87-6.25,1.84-.99,3.69-1.73,6.33-1.29,0,27.45,0,54.86,0,82.26,0,27.43,0,54.85,0,82.54ZM356.22,147.73c.08-1.39.19-2.5.19-3.61.02-15.5-.05-16,.09-31.5.03-2.87-1.1-4.43-3.5-5.62-4.11-2.03-8.15-4.2-12.21-6.33-20.28-10.67-40.56-21.36-60.85-32.02-.96-.51-2-.86-3.09-1.33-.67,5.58-.42,141.53.25,144.11,5.68.87,11.42,1.74,17.27,2.64,0,7.38-.16,14.47.04,21.56.21,7.16-1.11,14.31-.26,21.46,5.8-.01,35.29-6.31,38.34-8.26-2.9.54-5.44,1.01-8.56,1.59.62-35.49,1.24-70.5,1.85-105.69,10.36.59,20.14,2.76,30.43,3.01ZM464.34,166.66c-1.11,43.85-1.8,87.07-2.46,130.61,9.69-.08,18.9-.09,28.17-.95v-118.98c-8.53-3.28-16.61-7.58-25.72-10.67ZM413.94,258.72c-5.44-.64-10.52,1.49-15.46.41-.23-.28-.36-.37-.36-.46-.09-12.17-.19-24.34-.24-36.52,0-1.69.59-3.14,2.41-3.79,1.24-.44,1.7-1.4,1.68-2.7-.04-2.3.08-4.6-.07-6.89-.05-.77-.62-2.03-1.17-2.16-2.25-.54-4.47-1.66-7.17-1,.18,7.68.37,15.24.53,22.81.17,8.15.36,16.3.46,24.46.03,2.23-.78,2.86-2.97,2.65-6.73-.65-13.46-1.3-20.19-2.02-9.23-1-18.45-2.08-27.68-3.08-1.31-.14-2.65-.02-4.29-.02,0,5.61-.02,10.88,0,16.14.02,3.59.31,3.86,3.99,3.86,12.06.01,24.13,0,36.19,0,.99,0,1.98-.15,3.34-.25v-11c2.1,0,3.8-.02,5.51,0,1.67.03,3.34.11,5.25.18.11,4.32.57,8.25-.41,12.36-2.4,0-4.46.01-6.52,0-1.71-.01-2.55.8-2.54,2.51,0,.8,0,1.61,0,2.41,0,6.2.02,12.41-.01,18.61-.02,3-.19,3.16-3.08,3.21-2.18.04-4.37.04-6.55,0-1.8-.03-3.6-.13-5.76-.21v-22.72c-4.09-.6-7.78-.77-11.67.29-.2,7.94.11,15.7-.19,23.56-6.15.54-11.9-.32-17.5.63-.15,3.08-.13,3.16,2.21,3.27,2.29.11,4.59.11,6.89.16,7.35.17,14.7.63,22.03.43,13.19-.36,26.37-1.15,39.56-1.71,3.75-.16,4.17-.49,4.18-4.2.02-11.83.02-23.67-.01-35.5,0-1.21-.24-2.42-.37-3.7ZM526.95,277.72c.14-.04.28-.08.43-.13v-111.15c-4.51,1.65-8.68,3.16-12.85,4.7-5.37,1.97-10.74,3.97-16.11,5.94-1.35.49-2.76,1.11-2.69,2.73.15,3.76-.12,7.71.95,11.22,2.58,8.53,5.85,16.86,8.8,25.28,6.65,19.02,13.27,38.04,19.9,57.06.51,1.45,1.05,2.89,1.58,4.34ZM419.03,297.61c3.65,0,6.73.04,9.8-.02,1.33-.02,2.14-.72,2.08-2.17-.03-.69,0-1.38,0-2.07,0-25.37,0-50.74,0-76.11v-3.76c-1.58.19-2.83.22-4.02.51-7.67,1.92-15.32,3.89-22.98,5.86-2.68.69-2.91.92-2.92,3.79-.04,9.75-.02,19.51.01,29.26,0,.98.29,1.96.48,3.19,5.88-.63,11.51-1.22,17.53-1.87v43.37ZM462.57,166.9c-1.01.27-1.68.37-2.3.62-8.43,3.28-16.86,6.57-25.29,9.87-1.79.7-2.66,1.97-2.65,3.97.07,7.8.06,15.61.1,23.41,0,.53.22,1.07.41,1.9,2.23-.65,4.29-1.24,6.34-1.86,2.81-.85,5.64-.95,8.46-.09,3.77,1.15,3.91,1.36,3.91,5.29,0,14.12,0,28.24,0,42.36,0,.8.03,1.61,0,2.41-.04,1.46.51,2.42,2.07,2.63.68.09,1.34.29,2.02.42,3.36.66,3.48.78,3.48,4.28.01,11.02,0,22.04,0,33.06,0,1.24,0,2.47,0,3.83h3.86c0-.07.01-.15.02-.22-.75-.19-1.5-.37-2.29-.57-.07-.54-.19-.99-.18-1.44.08-11.94.07-23.87.29-35.81.26-14.11.76-28.21,1.06-42.32.29-13.31.47-26.62.67-39.93.06-3.78,0-7.56,0-11.8ZM421.41,213.95c1.98-.49,3.95-.99,5.93-1.45,3.5-.81,3.75-1.06,3.76-4.55.02-8.72,0-17.44,0-26.17,0-4.29.03-4.29,3.83-5.78,6.81-2.68,13.57-5.51,20.44-8.02,4.72-1.73,9.24-4.92,15.03-2.26,0-7.03.03-13.55-.01-20.07-.02-3.76-2.62-5.61-6.16-4.26-2.23.85-4.32,2.07-6.44,3.18-9.73,5.11-19.42,10.3-29.19,15.33-2.48,1.28-3.35,2.95-3.32,5.72.13,13.31.07,26.62.08,39.94q0,5.39-3.95,8.4ZM276.53,277.52c5.45-.58,10.32-1.06,15.19-1.63,4.89-.57,9.78-1.25,14.67-1.82,5.01-.58,10.06-.88,15.03-1.7,4.79-.79,9.79-.39,14.37-2.14v-19.41c-1.46.14-2.72.15-3.93.39-4.72.93-9.43,1.94-14.14,2.9-7.29,1.49-14.59,2.97-21.89,4.45-5.61,1.14-11.22,2.29-16.84,3.42-1.33.27-2.45.78-2.45,2.38-.02,4.12,0,8.23,0,13.16ZM495.91,175.94c.99-.09,1.59-.03,2.09-.21,8.81-3.21,17.6-6.47,26.42-9.67,2.38-.87,3.49-2.39,3.18-4.97-.14-1.13-.07-2.29.03-3.43.22-2.55-.74-4.28-2.97-5.67-7.19-4.48-14.27-9.13-21.4-13.7-2.56-1.64-5.15-3.22-8.27-5.17.09,14.62-.33,28.55.92,42.83ZM382.58,272.4c-2.89-1.06-39.06-1.16-42.54-.1v25.95c5.28.16,10.36.71,15.6-.61.45-7.99-.36-15.86.45-23.58h13.98c.55,7.6-.22,15.02.46,22.55,4.28-.07,8.12.17,12.05-.15v-24.06ZM276.79,259.7c4.24-.82,8.25-1.65,12.28-2.37,3.12-.56,3.16-.51,3.25-3.6.12-4.35.18-8.71.29-13.06.19-7.67.45-15.34.59-23.01.04-2.22-.57-2.78-2.81-3.06-2.95-.36-5.91-.63-8.86-.97-1.53-.17-3.05-.4-4.72-.63v46.7ZM473.13,141.36c.17,3.62.33,7.04.51,10.46.23,4.46.49,8.92.73,13.38.08,1.58.46,3.02,2.06,3.67,4.24,1.71,8.5,3.34,12.75,5,1.4-3.39,1.46-33.39.09-40.85-5.44,2.82-10.78,5.58-16.13,8.35ZM442.45,296.39h13.17c-.03-11.93.67-23.66-.71-35.42-4.35-.55-8.35-1.06-12.76-1.61.02,12.66-.31,24.77.3,37.03ZM444.17,207.26c0,1.6,0,2.85,0,4.09,0,14.24,0,28.47,0,42.71,0,.8,0,1.61,0,2.41,0,1.41.72,2.1,2.1,2.17,1.55.07,3.1.15,4.31.21-.13-1.7-.34-3.28-.35-4.85-.03-11.37-.02-22.73-.01-34.1,0-3.33-.03-6.66.04-9.99.04-2.02-.83-3.14-2.73-3.82-4.06-1.44-9.85-.44-14.18,3.06,3.94-.69,7.12-1.25,10.81-1.9ZM384.25,260.62c0,2.72-.14,5.1.08,7.45.07.8,1.01,2.08,1.65,2.15,2.08.21,4.27.68,6.23-.39v-9.2h-7.96Z"/>
</svg>