<svg width="66" height="31" viewBox="0 0 66 31" fill="none" xmlns="http://www.w3.org/2000/svg">
<path d="M16.2692 9.69119C16.2023 9.6161 16.1772 9.56603 16.1353 9.54101C15.7171 9.29904 15.2989 9.05708 14.8807 8.81512C14.3203 8.48972 13.7515 8.16433 13.1911 7.84727C12.4047 7.39672 11.6185 6.94617 10.8238 6.51231C10.7402 6.46225 10.5813 6.47059 10.4893 6.51231C10.0125 6.75427 9.55242 7.02127 9.084 7.28826C7.9966 7.90568 6.91755 8.53144 5.83852 9.14886C5.57085 9.30739 5.30318 9.47426 5.01042 9.65781C5.10243 9.72456 5.14425 9.75794 5.18607 9.78297C6.03927 10.2669 6.89246 10.7425 7.73729 11.2264C8.57375 11.7103 9.41858 12.2026 10.23 12.7199C10.5394 12.9201 10.7737 12.9034 11.0748 12.7199C11.9865 12.1776 12.915 11.6603 13.8351 11.1263C14.6381 10.659 15.4328 10.1918 16.2692 9.69953M17.3482 15.0394C17.0973 15.1729 16.9384 15.2396 16.7878 15.3314C16.4198 15.54 16.0601 15.7653 15.7005 15.9739C14.8054 16.4829 13.9104 16.9917 13.0153 17.5007C12.3294 17.8928 11.6352 18.2934 10.9577 18.6938C10.7569 18.8107 10.5729 18.8273 10.3805 18.6938C10.1881 18.5686 9.99575 18.4602 9.79499 18.3434C8.34791 17.509 6.90082 16.6747 5.44539 15.8404C4.9686 15.565 4.48345 15.2896 3.96483 14.9894C3.96483 15.9488 3.95647 16.8665 3.97321 17.7844C3.97321 17.8928 4.1154 18.0263 4.22415 18.0931C5.07734 18.5937 5.93889 19.0776 6.80045 19.5783C7.97987 20.2624 9.15928 20.9382 10.3303 21.6307C10.5813 21.7809 10.782 21.7642 11.0162 21.6224C11.6603 21.2386 12.3128 20.8548 12.9651 20.4794C14.3286 19.695 15.6837 18.9191 17.0555 18.1432C17.273 18.018 17.3566 17.8595 17.3566 17.6176C17.3483 17.0753 17.3566 16.5245 17.3566 15.9739V15.0227L17.3482 15.0394ZM20.2926 7.44679C20.1755 7.37169 20.1086 7.32163 20.0333 7.27992C18.787 6.56238 17.549 5.84483 16.3027 5.12729C14.5461 4.11773 12.7895 3.10816 11.0413 2.09025C10.7486 1.92339 10.5227 1.91503 10.2467 2.09859C10.0041 2.26546 9.75317 2.39896 9.50223 2.5408C6.4324 4.30963 3.36258 6.07845 0.292763 7.83893C0.100376 7.9474 0.0167298 8.08088 0.0167298 8.30617C0.0334583 9.19892 0.0334583 10.0833 0.0167298 10.9761C0.0167298 11.2347 0.0920106 11.3849 0.326221 11.5184C3.63025 13.4125 6.94264 15.3064 10.23 17.2253C10.5645 17.4173 10.7904 17.384 11.0915 17.2087C13.4588 15.832 15.8343 14.4721 18.2098 13.112C18.3018 13.062 18.4022 13.0286 18.5444 12.9702C18.5527 13.1371 18.5612 13.2455 18.5612 13.354C18.5612 15.0227 18.5612 16.683 18.5612 18.3434C18.5612 18.6104 18.4691 18.7439 18.2433 18.8773C15.9095 20.2123 13.5758 21.539 11.2672 22.9073C10.782 23.1993 10.4391 23.166 9.97902 22.8989C7.662 21.539 5.33664 20.204 3.00291 18.869C2.78543 18.7439 2.70177 18.6104 2.70177 18.36C2.7185 17.0919 2.70177 15.8154 2.71015 14.5472C2.71015 14.3385 2.65159 14.205 2.4592 14.1049C2.03261 13.8797 1.61437 13.621 1.19614 13.379C0.828099 13.1621 0.451695 12.9535 0.0334583 12.7199C0.0167298 12.8534 0 12.9452 0 13.0286C0 15.3314 0 17.6342 0 19.9454C0 20.1707 0.0836464 20.2957 0.276033 20.4126C1.54746 21.1385 2.81888 21.8728 4.09031 22.6069C6.16474 23.8 8.23917 25.0015 10.3136 26.2031C10.5143 26.3198 10.6733 26.3531 10.8991 26.2197C12.2542 25.4187 13.6093 24.6428 14.9727 23.8585C16.9551 22.7238 18.9292 21.5891 20.9116 20.4627C21.1625 20.3208 21.2462 20.154 21.2462 19.8703C21.2462 16.1324 21.2462 12.3861 21.2462 8.64824C21.2462 8.55647 21.2294 8.45635 21.2128 8.31451C21.0872 8.38126 21.0036 8.41463 20.9283 8.45635C17.5741 10.392 14.2199 12.3194 10.8657 14.2635C10.69 14.3635 10.5562 14.3635 10.3805 14.2635C7.87112 12.8117 5.35337 11.3599 2.83561 9.90812C2.74361 9.85806 2.66832 9.77462 2.55958 9.68285C2.70177 9.59106 2.79379 9.53266 2.8858 9.47426C3.37095 9.19892 3.8561 8.92358 4.34125 8.6399C6.3404 7.4885 8.33118 6.34544 10.322 5.1857C10.5478 5.0522 10.7318 5.0522 10.9493 5.1857C11.3006 5.40263 11.6603 5.60286 12.02 5.81145C13.7766 6.82102 15.5247 7.83058 17.273 8.84849C17.4988 8.98199 17.6829 8.99867 17.917 8.84849C18.5193 8.47304 19.1467 8.13929 19.7656 7.78052C19.9162 7.69709 20.0584 7.60531 20.2591 7.48015" fill="#19AD73"/>
<path d="M20.2929 7.59435C20.1005 7.71116 19.9499 7.81128 19.7994 7.89473C19.1803 8.2535 18.5529 8.58723 17.9508 8.96269C17.7082 9.11287 17.5326 9.09619 17.3066 8.96269C15.5585 7.94478 13.8019 6.93522 12.0537 5.92565C11.694 5.71706 11.3343 5.52517 10.983 5.29989C10.7655 5.1664 10.5815 5.1664 10.3557 5.29989C8.36487 6.45964 6.36572 7.60269 4.37495 8.7541C3.8898 9.02944 3.40465 9.30478 2.9195 9.58846C2.82748 9.64686 2.73547 9.70527 2.59327 9.79704C2.71038 9.88882 2.78566 9.97225 2.8693 10.0223C5.38707 11.4741 7.89646 12.9175 10.4142 14.3776C10.5899 14.4777 10.7237 14.486 10.8994 14.3776C14.2536 12.4419 17.6078 10.5062 20.962 8.57055C21.0373 8.52883 21.121 8.48711 21.2464 8.42871C21.2632 8.57055 21.2798 8.67067 21.2798 8.76245C21.2798 12.5003 21.2798 16.2466 21.2798 19.9845C21.2798 20.2682 21.1962 20.435 20.9453 20.5769C18.9628 21.7032 16.9804 22.8379 15.0064 23.9726C13.6429 24.757 12.2879 25.5329 10.9328 26.3339C10.707 26.4674 10.548 26.4423 10.3473 26.3172C8.27286 25.1158 6.19843 23.9225 4.124 22.7212C2.85257 21.9869 1.58115 21.2527 0.309724 20.5268C0.117338 20.4184 0.0336914 20.2932 0.0336914 20.0596C0.0336914 17.7567 0.0336914 15.4539 0.0336914 13.1428C0.0336914 13.0594 0.0504212 12.9676 0.0671509 12.8341C0.477017 13.0677 0.853421 13.2846 1.22984 13.4932C1.64806 13.7351 2.0663 13.9938 2.4929 14.2191C2.68529 14.3192 2.74384 14.4527 2.74384 14.6613C2.73547 15.9295 2.74384 17.2061 2.73547 18.4743C2.73547 18.7246 2.81912 18.8581 3.0366 18.9833C5.37033 20.3183 7.6957 21.6531 10.0127 23.0131C10.4728 23.2802 10.8157 23.3136 11.3009 23.0216C13.6095 21.6448 15.9432 20.3183 18.2769 18.9916C18.5028 18.8664 18.5948 18.7246 18.5948 18.4577C18.5865 16.7972 18.5948 15.1285 18.5948 13.4682C18.5948 13.3597 18.5865 13.2513 18.5782 13.0844C18.4359 13.1428 18.3356 13.1762 18.2435 13.2262C15.8679 14.5862 13.4924 15.9462 11.1252 17.323C10.8241 17.4981 10.5982 17.5315 10.2636 17.3396C6.96798 15.4206 3.66395 13.5266 0.359913 11.6326C0.134068 11.4991 0.0504212 11.3489 0.0504212 11.0903C0.067151 10.1975 0.0587855 9.31312 0.0504212 8.42037C0.0504212 8.19509 0.134068 8.06159 0.326454 7.95312C3.39627 6.19265 6.4661 4.42383 9.53592 2.655C9.78686 2.51316 10.0462 2.37132 10.2804 2.21279C10.5564 2.02924 10.7822 2.03758 11.075 2.20445C12.8233 3.2307 14.5799 4.23192 16.3364 5.24149C17.5827 5.95903 18.8206 6.67657 20.0671 7.39412C20.1339 7.43583 20.2008 7.48589 20.3263 7.56098" fill="#B72026"/>
<path d="M17.348 15.0394V15.9906C17.348 16.5329 17.348 17.0836 17.348 17.6342C17.348 17.8762 17.2644 18.0347 17.047 18.1599C15.6835 18.9359 14.3201 19.7118 12.9566 20.496C12.3041 20.8715 11.6517 21.2469 11.0077 21.6392C10.7734 21.7809 10.5643 21.7977 10.3134 21.6475C9.14234 20.9549 7.96292 20.2791 6.7835 19.5949C5.92195 19.1027 5.0604 18.6104 4.2072 18.1098C4.09846 18.043 3.95626 17.9096 3.95626 17.8011C3.93953 16.8833 3.94789 15.9656 3.94789 15.006C4.4665 15.3064 4.95165 15.5733 5.42844 15.8487C6.87552 16.683 8.33097 17.5175 9.77804 18.3518C9.9788 18.4686 10.1712 18.5771 10.3636 18.7022C10.5643 18.8274 10.7483 18.8107 10.9407 18.7022C11.6266 18.3017 12.3126 17.9013 13.0068 17.509C13.9018 17.0002 14.7968 16.4912 15.6918 15.9822C16.0599 15.7736 16.4196 15.5483 16.7793 15.3397C16.9298 15.2563 17.0804 15.1812 17.3397 15.0477" fill="#B72026"/>
<path d="M16.2691 9.69119C15.4327 10.1835 14.638 10.6507 13.8349 11.1179C12.9148 11.6519 11.9863 12.1692 11.0746 12.7115C10.7735 12.8951 10.5393 12.9118 10.2298 12.7115C9.41005 12.1942 8.57359 11.702 7.73712 11.2181C6.8923 10.7258 6.03075 10.2502 5.18591 9.77462C5.14409 9.7496 5.10227 9.71623 5.01025 9.64948C5.31139 9.46592 5.57069 9.29905 5.83836 9.14051C6.91739 8.51476 7.99644 7.89733 9.08384 7.27992C9.54389 7.01292 10.0123 6.75428 10.4891 6.50397C10.5811 6.45392 10.74 6.45392 10.8237 6.50397C11.6183 6.93783 12.4046 7.39673 13.1992 7.83894C13.7597 8.16433 14.3284 8.48139 14.8889 8.80678C15.3071 9.04874 15.7254 9.29071 16.1436 9.54101C16.1854 9.56603 16.2105 9.6161 16.2774 9.69119" fill="#B72026"/>
<path d="M51.4556 16.64V17H51.9556V18.33H52.3656V17H52.8856V16.64H51.4556Z" fill="#232255"/>
<path d="M53.1655 18.33V16.63H53.5355L54.1555 17.64H53.8855L54.5055 16.63H54.8655V18.33H54.4655V17.81C54.4655 17.67 54.4655 17.53 54.4655 17.42C54.4655 17.3 54.4855 17.19 54.4955 17.07L54.5455 17.19L54.0655 17.91H53.9055L53.4455 17.19L53.4955 17.06C53.5155 17.17 53.5255 17.28 53.5255 17.39C53.5255 17.5 53.5255 17.64 53.5255 17.8V18.33H53.1255H53.1655Z" fill="#232255"/>
<path d="M34.2289 17.8086L32.5849 19.1512C32.1602 18.6443 31.5437 18.3566 30.7491 18.3566C29.1325 18.3566 27.9406 19.6718 27.9406 21.4802C27.9406 23.2886 29.1325 24.6038 30.6806 24.6038C31.5437 24.6038 32.2424 24.2202 32.6808 23.5626L34.4618 24.8915C33.6535 26.0423 32.2835 26.5766 30.9546 26.5766C27.9269 26.5766 25.7212 24.5901 25.7212 21.4802C25.7212 18.3703 27.9269 16.3838 30.9546 16.3838C32.0369 16.3838 33.4069 16.7537 34.2289 17.8086ZM35.6752 26.33V16.6304H37.8124V26.33H35.6752ZM41.7155 26.33V18.521H38.9481V16.6304H46.6201V18.521H43.8527V26.33H41.7155ZM47.7602 26.33V16.6304H49.8974V26.33H47.7602Z" fill="#232255"/>
<path d="M32.6326 3.0676L31.1667 4.6705C30.8242 4.2321 30.1392 4.0266 29.6186 4.0266C29.0158 4.0266 28.1801 4.3006 28.1801 5.0267C28.1801 6.794 32.6463 5.6569 32.6463 9.0545C32.6463 11.2191 30.9064 12.2466 28.9062 12.2466C27.6595 12.2466 26.5635 11.8767 25.6456 11.0273L27.1663 9.3559C27.6047 9.9313 28.3171 10.2738 29.0295 10.2738C29.7282 10.2738 30.5091 9.945 30.5091 9.26C30.5091 7.479 25.9607 8.438 25.9607 5.2048C25.9607 3.1361 27.7554 2.0538 29.6597 2.0538C30.7557 2.0538 31.8106 2.3415 32.6326 3.0676ZM33.4576 12V5.3418H35.5126V12H33.4576ZM33.2932 3.2457C33.2932 2.5881 33.8275 2.0538 34.4851 2.0538C35.1427 2.0538 35.677 2.5881 35.677 3.2457C35.677 3.9033 35.1427 4.4376 34.4851 4.4376C33.8275 4.4376 33.2932 3.9033 33.2932 3.2457ZM36.4409 12V5.3418H38.4137V6.246H38.4411C38.7151 5.7254 39.3864 5.1774 40.3865 5.1774C41.3181 5.1774 42.0853 5.561 42.4415 6.3693C42.921 5.5199 43.5649 5.1774 44.5513 5.1774C46.3597 5.1774 46.9077 6.4515 46.9077 8.0681V12H44.8527V8.1229C44.8527 7.5064 44.6198 6.9858 43.9485 6.9858C43.0032 6.9858 42.7018 7.6571 42.7018 8.4791V12H40.6468V8.4791C40.6468 7.9859 40.6742 6.9858 39.7289 6.9858C38.6603 6.9858 38.4959 7.8215 38.4959 8.6846V12H36.4409ZM48.0053 15.1236V5.3418H49.8959V6.2186H49.9233C50.2384 5.7391 51.033 5.1774 51.9646 5.1774C53.9374 5.1774 55.2389 6.6022 55.2389 8.6161C55.2389 10.4656 54.0881 12.1644 52.1975 12.1644C51.3481 12.1644 50.5535 11.9315 50.0877 11.2876H50.0603V15.1236H48.0053ZM49.8959 8.6709C49.8959 9.671 50.5124 10.356 51.5399 10.356C52.5674 10.356 53.1839 9.671 53.1839 8.6709C53.1839 7.6708 52.5674 6.9858 51.5399 6.9858C50.5124 6.9858 49.8959 7.6708 49.8959 8.6709ZM55.9223 12V1.6428H57.9773V12H55.9223ZM63.7692 9.7943L65.2077 10.8492C64.5501 11.6849 63.4678 12.1644 62.3992 12.1644C60.3442 12.1644 58.7002 10.7944 58.7002 8.6709C58.7002 6.5474 60.3442 5.1774 62.3992 5.1774C64.3172 5.1774 65.5228 6.5474 65.5228 8.6709V9.3148H60.7552C60.9196 10.0957 61.5087 10.6026 62.3033 10.6026C62.9746 10.6026 63.4267 10.2601 63.7692 9.7943ZM60.7552 7.9174H63.4678C63.4815 7.2324 62.9472 6.657 62.2074 6.657C61.3032 6.657 60.81 7.2735 60.7552 7.9174Z" fill="#232255"/>
</svg>
