<svg width="694" height="96" viewBox="0 0 694 96" fill="none" xmlns="http://www.w3.org/2000/svg">
<g clip-path="url(#clip0_2429_298)">
<mask id="mask0_2429_298" style="mask-type:luminance" maskUnits="userSpaceOnUse" x="0" y="1" width="693" height="95">
<path d="M692.992 1.08801H0V95.1894H692.992V1.08801Z" fill="white"/>
</mask>
<g mask="url(#mask0_2429_298)">
<mask id="mask1_2429_298" style="mask-type:luminance" maskUnits="userSpaceOnUse" x="0" y="1" width="693" height="95">
<path d="M692.992 1.08801H0V95.1894H692.992V1.08801Z" fill="white"/>
</mask>
<g mask="url(#mask1_2429_298)">
<path d="M160.576 24.32C162.581 24.32 164.544 24.5547 166.421 25.0027C168.299 25.4507 170.048 26.0694 171.691 26.9014C173.312 27.7334 174.784 28.736 176.107 29.9094C177.429 31.104 178.539 32.4267 179.435 33.8987L175.019 36.864C174.251 35.7334 173.355 34.688 172.331 33.792C171.307 32.8747 170.176 32.1067 168.96 31.4454C167.723 30.8054 166.4 30.3147 164.992 29.952C163.584 29.6107 162.133 29.44 160.597 29.44C157.995 29.44 155.605 29.888 153.387 30.784C151.168 31.68 149.227 32.9387 147.605 34.5814C145.963 36.2027 144.683 38.1654 143.744 40.4694C142.805 42.7734 142.336 45.2907 142.336 48.064C142.336 50.8374 142.805 53.376 143.744 55.6587C144.683 57.9627 145.963 59.9254 147.605 61.5467C149.248 63.168 151.168 64.4267 153.387 65.344C155.605 66.24 158.016 66.688 160.597 66.688C163.669 66.688 166.443 66.048 168.939 64.7467C171.413 63.4454 173.44 61.632 174.997 59.3067L179.285 62.464C178.325 63.9147 177.173 65.216 175.851 66.3467C174.528 67.4987 173.077 68.48 171.477 69.2907C169.877 70.1014 168.171 70.72 166.315 71.1467C164.48 71.5734 162.56 71.7867 160.576 71.7867C157.141 71.7867 153.984 71.1894 151.061 70.016C148.139 68.8427 145.621 67.2 143.509 65.1094C141.376 63.0187 139.733 60.5014 138.539 57.6C137.344 54.6987 136.747 51.52 136.747 48.0427C136.747 44.5654 137.344 41.408 138.539 38.5067C139.733 35.6054 141.397 33.088 143.509 30.9974C145.621 28.9067 148.139 27.264 151.061 26.0907C153.963 24.9174 157.141 24.32 160.576 24.32Z" fill="#2F446A"/>
<path d="M202.453 39.296C204.8 39.296 206.976 39.7014 209.003 40.5334C211.008 41.3654 212.757 42.496 214.208 43.9467C215.659 45.3974 216.811 47.104 217.643 49.088C218.475 51.072 218.901 53.2054 218.901 55.5094C218.901 57.8134 218.475 59.968 217.643 61.952C216.811 63.936 215.659 65.664 214.208 67.1147C212.757 68.5653 211.008 69.696 209.003 70.528C206.997 71.36 204.821 71.7654 202.453 71.7654C200.085 71.7654 197.931 71.36 195.925 70.528C193.92 69.696 192.192 68.5653 190.72 67.1147C189.248 65.664 188.096 63.936 187.285 61.952C186.453 59.968 186.048 57.8134 186.048 55.5094C186.048 53.2054 186.453 51.0507 187.285 49.088C188.117 47.104 189.248 45.3974 190.72 43.9467C192.192 42.496 193.92 41.3654 195.925 40.5334C197.931 39.7014 200.107 39.296 202.453 39.296ZM202.453 43.9254C200.832 43.9254 199.317 44.224 197.931 44.8C196.544 45.376 195.349 46.1867 194.325 47.2107C193.301 48.2347 192.512 49.4507 191.915 50.88C191.339 52.3094 191.04 53.8667 191.04 55.5307C191.04 57.1947 191.339 58.7734 191.915 60.2027C192.491 61.6107 193.301 62.848 194.325 63.872C195.349 64.896 196.565 65.7067 197.931 66.304C199.317 66.88 200.811 67.1787 202.453 67.1787C204.096 67.1787 205.568 66.9014 206.955 66.304C208.341 65.728 209.557 64.9174 210.581 63.872C211.605 62.848 212.395 61.6107 212.992 60.2027C213.568 58.7947 213.867 57.2374 213.867 55.5307C213.867 53.824 213.568 52.3094 212.992 50.88C212.416 49.4507 211.605 48.2347 210.581 47.2107C209.557 46.1867 208.341 45.3974 206.955 44.8C205.568 44.224 204.053 43.9254 202.453 43.9254Z" fill="#2F446A"/>
<path d="M266.944 39.296C268.885 39.296 270.656 39.5947 272.256 40.192C273.856 40.7894 275.221 41.6214 276.373 42.7094C277.504 43.7974 278.4 45.12 279.04 46.656C279.68 48.192 280 49.92 280 51.7974V71.1467H275.093V53.4187C275.093 50.432 274.304 48.1067 272.725 46.464C271.147 44.8214 268.928 43.9894 266.048 43.9894C264.725 43.9894 263.488 44.2027 262.336 44.6507C261.184 45.0987 260.181 45.7174 259.307 46.5494C258.432 47.3814 257.749 48.384 257.237 49.5574C256.725 50.752 256.469 52.0747 256.469 53.5467V71.1467H251.563V53.4187C251.563 50.432 250.795 48.1067 249.216 46.464C247.659 44.8214 245.44 43.9894 242.56 43.9894C241.237 43.9894 240 44.2027 238.848 44.6507C237.696 45.0987 236.693 45.7174 235.819 46.5494C234.944 47.3814 234.261 48.384 233.749 49.5574C233.237 50.752 233.003 52.0747 233.003 53.5467V71.1467H228.053V39.936H232.939V44.3947C233.579 43.4774 234.304 42.688 235.115 42.048C235.925 41.408 236.8 40.8747 237.717 40.4694C238.635 40.064 239.595 39.7654 240.555 39.5947C241.515 39.424 242.496 39.3387 243.456 39.3387C246.208 39.3387 248.597 39.9147 250.603 41.0667C252.608 42.2187 254.144 43.8187 255.147 45.888C255.765 44.672 256.512 43.648 257.429 42.816C258.325 41.984 259.307 41.3014 260.331 40.7894C261.355 40.2774 262.443 39.8934 263.573 39.6587C264.704 39.424 265.835 39.296 266.944 39.296Z" fill="#2F446A"/>
<path d="M330.048 39.296C331.989 39.296 333.76 39.5947 335.36 40.192C336.96 40.7894 338.325 41.6214 339.477 42.7094C340.608 43.7974 341.504 45.12 342.144 46.656C342.784 48.192 343.104 49.92 343.104 51.7974V71.1467H338.197V53.4187C338.197 50.432 337.408 48.1067 335.829 46.464C334.251 44.8214 332.032 43.9894 329.152 43.9894C327.829 43.9894 326.592 44.2027 325.44 44.6507C324.288 45.0987 323.285 45.7174 322.411 46.5494C321.536 47.3814 320.853 48.384 320.341 49.5574C319.829 50.752 319.573 52.0747 319.573 53.5467V71.1467H314.667V53.4187C314.667 50.432 313.899 48.1067 312.32 46.464C310.763 44.8214 308.544 43.9894 305.664 43.9894C304.341 43.9894 303.104 44.2027 301.952 44.6507C300.8 45.0987 299.797 45.7174 298.923 46.5494C298.048 47.3814 297.365 48.384 296.853 49.5574C296.341 50.752 296.107 52.0747 296.107 53.5467V71.1467H291.157V39.936H296.043V44.3947C296.683 43.4774 297.408 42.688 298.219 42.048C299.029 41.408 299.904 40.8747 300.821 40.4694C301.739 40.064 302.699 39.7654 303.659 39.5947C304.619 39.424 305.6 39.3387 306.56 39.3387C309.312 39.3387 311.701 39.9147 313.707 41.0667C315.712 42.2187 317.248 43.8187 318.251 45.888C318.869 44.672 319.616 43.648 320.533 42.816C321.429 41.984 322.411 41.3014 323.435 40.7894C324.459 40.2774 325.547 39.8934 326.677 39.6587C327.808 39.424 328.939 39.296 330.048 39.296Z" fill="#2F446A"/>
<path d="M367.402 39.296C369.514 39.296 371.456 39.7014 373.248 40.4907C375.04 41.28 376.576 42.3894 377.877 43.7974C379.178 45.2054 380.181 46.912 380.928 48.896C381.653 50.88 382.037 53.056 382.058 55.424C382.058 56.1067 382.037 56.7254 381.952 57.2587H356.928C357.098 58.944 357.504 60.4374 358.144 61.696C358.784 62.9547 359.594 64.0214 360.576 64.8747C361.557 65.728 362.688 66.368 363.947 66.7947C365.205 67.2213 366.549 67.4347 367.957 67.4347C369.877 67.4347 371.69 67.0934 373.354 66.3894C375.018 65.6854 376.512 64.7254 377.856 63.5094L380.501 66.88C379.541 67.7974 378.538 68.5867 377.493 69.2053C376.469 69.824 375.402 70.336 374.336 70.72C373.269 71.104 372.181 71.3813 371.05 71.5307C369.92 71.68 368.789 71.7654 367.658 71.7654C365.354 71.7654 363.242 71.3814 361.301 70.592C359.36 69.8027 357.696 68.7147 356.309 67.2854C354.922 65.856 353.834 64.1494 353.045 62.1654C352.256 60.1814 351.872 57.984 351.872 55.552C351.872 53.12 352.256 50.9654 353.045 48.9814C353.834 46.9974 354.901 45.2907 356.288 43.8614C357.674 42.432 359.296 41.3227 361.194 40.512C363.093 39.7014 365.184 39.296 367.402 39.296ZM367.296 43.6907C365.845 43.6907 364.544 43.9254 363.349 44.3947C362.176 44.864 361.152 45.5254 360.277 46.3787C359.402 47.232 358.698 48.2347 358.144 49.408C357.589 50.5814 357.205 51.8827 357.013 53.2694H377.066C376.917 51.8187 376.554 50.496 376.021 49.3227C375.488 48.128 374.784 47.1254 373.952 46.2934C373.098 45.4614 372.117 44.8214 370.986 44.3734C369.856 43.9254 368.618 43.6907 367.317 43.6907" fill="#2F446A"/>
<path d="M405.376 39.296C406.507 39.296 407.531 39.3814 408.448 39.552C409.387 39.7227 410.261 39.9787 411.093 40.3627L409.899 45.2054C409.131 44.7787 408.277 44.48 407.317 44.2667C406.357 44.0534 405.419 43.9467 404.501 43.9467C403.264 43.9467 402.155 44.1814 401.131 44.6507C400.107 45.12 399.232 45.76 398.485 46.6134C397.739 47.4667 397.163 48.4907 396.757 49.6854C396.331 50.88 396.139 52.224 396.139 53.696V71.168H391.232V39.9574H396.117V44.352C397.184 42.752 398.528 41.5147 400.107 40.64C401.685 39.7654 403.435 39.296 405.376 39.296Z" fill="#2F446A"/>
<path d="M431.061 39.296C433.387 39.296 435.563 39.7227 437.547 40.5547C439.531 41.3867 441.237 42.6027 442.645 44.224L439.488 47.552C438.293 46.4 437.013 45.5254 435.605 44.8854C434.219 44.2454 432.661 43.9254 430.933 43.9254C429.376 43.9254 427.925 44.224 426.581 44.8C425.237 45.376 424.085 46.1867 423.083 47.2107C422.101 48.2347 421.312 49.4507 420.757 50.88C420.203 52.3094 419.904 53.8454 419.904 55.5307C419.904 57.216 420.181 58.7734 420.757 60.2027C421.312 61.6107 422.101 62.848 423.083 63.872C424.064 64.896 425.237 65.7067 426.581 66.304C427.925 66.88 429.376 67.1787 430.933 67.1787C432.64 67.1787 434.24 66.8374 435.691 66.1547C437.141 65.472 438.443 64.5974 439.573 63.5094L442.645 66.88C441.216 68.48 439.509 69.7174 437.547 70.5494C435.563 71.3814 433.408 71.808 431.083 71.808C428.757 71.808 426.496 71.4027 424.512 70.5707C422.528 69.7387 420.821 68.608 419.413 67.1574C417.984 65.7067 416.896 63.9787 416.107 61.9947C415.317 60.0107 414.933 57.856 414.933 55.552C414.933 53.248 415.317 51.0934 416.107 49.1094C416.896 47.1254 417.984 45.4187 419.413 43.968C420.821 42.5174 422.528 41.3867 424.512 40.5547C426.496 39.7227 428.672 39.296 431.061 39.296Z" fill="#2F446A"/>
<path d="M453.504 25.3654C453.995 25.3654 454.443 25.4507 454.869 25.6214C455.296 25.792 455.659 26.048 455.979 26.368C456.299 26.688 456.533 27.0507 456.725 27.4987C456.917 27.9254 457.003 28.3734 457.003 28.864C457.003 29.376 456.896 29.824 456.725 30.2507C456.533 30.6774 456.299 31.04 455.979 31.3387C455.68 31.6374 455.296 31.8934 454.869 32.064C454.443 32.2347 453.995 32.32 453.504 32.32C452.523 32.32 451.691 32 451.029 31.3387C450.368 30.6774 450.048 29.8454 450.048 28.864C450.048 27.8827 450.389 27.0507 451.029 26.368C451.691 25.7067 452.523 25.3654 453.504 25.3654ZM455.979 71.1467H451.029V39.936H455.979V71.1467Z" fill="#2F446A"/>
<path d="M497.067 71.1467H492.16V66.496C490.901 68.096 489.344 69.376 487.467 70.336C485.589 71.296 483.349 71.7654 480.747 71.7654C478.549 71.7654 476.501 71.36 474.603 70.5494C472.704 69.7387 471.061 68.608 469.653 67.1787C468.267 65.728 467.157 64.0214 466.347 62.0374C465.536 60.0534 465.152 57.8774 465.152 55.5307C465.152 53.184 465.557 51.0294 466.347 49.0454C467.157 47.0614 468.245 45.3334 469.653 43.904C471.04 42.4534 472.704 41.344 474.603 40.5334C476.501 39.7227 478.549 39.3174 480.747 39.3174C483.349 39.3174 485.589 39.808 487.467 40.768C489.344 41.728 490.901 43.008 492.16 44.5867V39.936H497.067V71.1467ZM481.323 43.9254C479.659 43.9254 478.123 44.224 476.757 44.8214C475.392 45.4187 474.219 46.2507 473.237 47.3174C472.256 48.3627 471.509 49.6 470.955 51.008C470.421 52.416 470.144 53.9094 470.144 55.5307C470.144 57.152 470.421 58.6667 470.955 60.0747C471.488 61.4827 472.256 62.72 473.237 63.7654C474.219 64.8107 475.413 65.6427 476.779 66.2614C478.144 66.8587 479.659 67.1574 481.301 67.1574C482.944 67.1574 484.416 66.8587 485.781 66.2614C487.147 65.664 488.32 64.8534 489.301 63.8294C490.283 62.8054 491.051 61.568 491.584 60.1387C492.139 58.7094 492.416 57.1734 492.416 55.5307C492.416 53.888 492.139 52.352 491.584 50.9227C491.029 49.4934 490.261 48.2774 489.301 47.2534C488.32 46.2294 487.147 45.4187 485.781 44.8214C484.416 44.224 482.923 43.9254 481.301 43.9254" fill="#2F446A"/>
<path d="M513.557 23.68H508.608V71.1467H513.557V23.68Z" fill="#2F446A"/>
<path d="M547.115 24.32C549.12 24.32 551.083 24.5547 552.96 25.0027C554.837 25.4507 556.587 26.0694 558.229 26.9014C559.851 27.7334 561.323 28.736 562.645 29.9094C563.968 31.104 565.077 32.4267 565.973 33.8987L561.557 36.864C560.789 35.7334 559.893 34.688 558.869 33.792C557.845 32.8747 556.715 32.1067 555.499 31.4454C554.261 30.8054 552.939 30.3147 551.531 29.952C550.123 29.6107 548.672 29.44 547.136 29.44C544.533 29.44 542.144 29.888 539.925 30.784C537.707 31.68 535.765 32.9387 534.144 34.5814C532.501 36.2027 531.221 38.1654 530.283 40.4694C529.344 42.7734 528.875 45.2907 528.875 48.064C528.875 50.8374 529.344 53.376 530.283 55.6587C531.221 57.9627 532.501 59.9254 534.144 61.5467C535.787 63.168 537.707 64.4267 539.925 65.344C542.144 66.24 544.555 66.688 547.136 66.688C550.208 66.688 552.981 66.048 555.477 64.7467C557.952 63.4454 559.979 61.632 561.536 59.3067L565.824 62.464C564.864 63.9147 563.712 65.216 562.389 66.3467C561.067 67.4987 559.616 68.48 558.016 69.2907C556.416 70.1014 554.709 70.72 552.853 71.1467C551.019 71.5734 549.099 71.7867 547.115 71.7867C543.68 71.7867 540.523 71.1894 537.6 70.016C534.677 68.8427 532.16 67.2 530.048 65.1094C527.915 63.0187 526.272 60.5014 525.077 57.6C523.883 54.6987 523.285 51.52 523.285 48.0427C523.285 44.5654 523.883 41.408 525.077 38.5067C526.272 35.6054 527.936 33.088 530.048 30.9974C532.16 28.9067 534.677 27.264 537.6 26.0907C540.501 24.9174 543.68 24.32 547.115 24.32Z" fill="#2F446A"/>
<path d="M604.501 71.1467H599.595V66.496C598.336 68.096 596.779 69.376 594.901 70.336C593.024 71.296 590.784 71.7654 588.181 71.7654C585.984 71.7654 583.936 71.36 582.037 70.5494C580.139 69.7387 578.496 68.608 577.088 67.1787C575.68 65.728 574.592 64.0214 573.781 62.0374C572.971 60.0534 572.587 57.8774 572.587 55.5307C572.587 53.184 572.992 51.0294 573.781 49.0454C574.592 47.0614 575.68 45.3334 577.088 43.904C578.475 42.4534 580.139 41.344 582.037 40.5334C583.936 39.7227 585.984 39.3174 588.181 39.3174C590.784 39.3174 593.024 39.808 594.901 40.768C596.779 41.728 598.336 43.008 599.595 44.5867V39.936H604.501V71.1467ZM588.779 43.9254C587.115 43.9254 585.579 44.224 584.213 44.8214C582.827 45.4187 581.675 46.2507 580.693 47.3174C579.712 48.3627 578.965 49.6 578.411 51.008C577.877 52.416 577.6 53.9094 577.6 55.5307C577.6 57.152 577.877 58.6667 578.411 60.0747C578.944 61.4827 579.712 62.72 580.693 63.7654C581.675 64.8107 582.869 65.6427 584.235 66.2614C585.6 66.8587 587.115 67.1574 588.757 67.1574C590.4 67.1574 591.872 66.8587 593.237 66.2614C594.603 65.664 595.776 64.8534 596.757 63.8294C597.739 62.8054 598.507 61.568 599.04 60.1387C599.595 58.7094 599.851 57.1734 599.851 55.5307C599.851 53.888 599.573 52.352 599.04 50.9227C598.507 49.4934 597.717 48.2774 596.757 47.2534C595.776 46.2294 594.603 45.4187 593.237 44.8214C591.872 44.224 590.379 43.9254 588.757 43.9254" fill="#2F446A"/>
<path d="M636.523 44.3734H624.085V71.1467H619.136V44.3734H612.011V39.9147H619.136V34.5814C619.136 32.9174 619.328 31.3814 619.712 29.9734C620.096 28.5654 620.715 27.3494 621.547 26.3254C622.4 25.3014 623.467 24.4907 624.768 23.9147C626.069 23.3387 627.648 23.04 629.504 23.04C631.36 23.04 632.875 23.2534 634.261 23.7014C635.648 24.1494 636.907 24.704 638.037 25.3867L636.267 29.504C635.435 28.992 634.453 28.5654 633.323 28.2027C632.192 27.84 631.04 27.6694 629.845 27.6694C627.819 27.6694 626.347 28.2667 625.451 29.4827C624.533 30.6987 624.085 32.4054 624.085 34.6027V39.936H636.523V44.3947V44.3734Z" fill="#2F446A"/>
<path d="M656.256 39.296C658.368 39.296 660.309 39.7014 662.101 40.4907C663.893 41.28 665.429 42.3894 666.731 43.7974C668.032 45.2054 669.035 46.912 669.781 48.896C670.507 50.88 670.891 53.056 670.912 55.424C670.912 56.1067 670.891 56.7254 670.805 57.2587H645.781C645.952 58.944 646.357 60.4374 646.997 61.696C647.637 62.9547 648.448 64.0214 649.429 64.8747C650.411 65.728 651.541 66.368 652.8 66.7947C654.059 67.2214 655.403 67.4347 656.811 67.4347C658.731 67.4347 660.544 67.0934 662.208 66.3894C663.872 65.6854 665.365 64.7254 666.709 63.5094L669.355 66.88C668.395 67.7974 667.392 68.5867 666.347 69.2053C665.323 69.824 664.256 70.336 663.189 70.72C662.123 71.104 661.035 71.3813 659.904 71.5307C658.773 71.68 657.643 71.7654 656.512 71.7654C654.208 71.7654 652.096 71.3814 650.155 70.592C648.213 69.8027 646.549 68.7147 645.163 67.2854C643.776 65.856 642.688 64.1494 641.899 62.1654C641.109 60.1814 640.725 57.984 640.725 55.552C640.725 53.12 641.109 50.9654 641.899 48.9814C642.688 46.9974 643.755 45.2907 645.141 43.8614C646.528 42.432 648.149 41.3227 650.048 40.512C651.947 39.7014 653.995 39.3174 656.213 39.3174M656.171 43.6907C654.72 43.6907 653.419 43.9254 652.224 44.3947C651.051 44.864 650.027 45.5254 649.152 46.3787C648.277 47.232 647.573 48.2347 647.019 49.408C646.464 50.5814 646.08 51.8827 645.888 53.2694H665.941C665.792 51.8187 665.429 50.496 664.896 49.3227C664.363 48.128 663.659 47.1254 662.827 46.2934C661.973 45.4614 660.992 44.8214 659.861 44.3734C658.731 43.9254 657.493 43.6907 656.192 43.6907" fill="#2F446A"/>
<path d="M44.0533 1.1735C20.5653 2.62417 1.47199 21.7815 0.0853268 45.2482C-1.53601 72.5548 20.16 95.2108 47.1253 95.1682H57.088C59.776 95.1682 61.952 92.9922 61.952 90.3042C61.952 87.6162 59.776 85.4402 57.088 85.4402H47.4453C25.3227 85.6748 7.50933 66.5388 9.96266 43.9682C11.8187 26.8162 25.6213 12.9708 42.7733 11.0508C65.2587 8.5335 84.352 26.1548 84.352 48.1282V48.2135C84.352 52.3948 87.5947 55.8508 91.776 55.8508H93.44C93.8453 53.3335 94.08 50.7735 94.08 48.1282C94.1013 21.1415 71.3813 -0.511832 44.0533 1.1735Z" fill="#21C1EE"/>
<path d="M82.8373 65.5787H46.8907C44.2453 65.536 41.7067 64.9174 39.4667 63.8294C38.336 63.296 37.2907 62.6134 36.3093 61.8454C35.8187 61.4614 35.3493 61.056 34.9013 60.6294C34.0053 59.776 33.216 58.816 32.5333 57.7707C32.192 57.2587 31.872 56.7254 31.5733 56.1707C30.6987 54.5067 30.1013 52.6934 29.8027 50.7734C29.504 48.8534 29.5253 46.848 29.9093 44.7574C30.2293 43.0294 30.8267 41.3867 31.6373 39.8507C32.8533 37.568 34.5813 35.584 36.6507 34.0694C36.992 33.8134 37.3547 33.5787 37.7173 33.344C38.4427 32.8747 39.2107 32.4694 40 32.128C41.1947 31.5947 42.432 31.2107 43.7333 30.976C44.416 30.848 45.0773 30.7627 45.7173 30.72C45.9307 30.72 46.1653 30.72 46.3787 30.72C46.8053 30.72 47.232 30.6774 47.6587 30.72C47.9147 30.72 48.1707 30.7627 48.4267 30.784C48.8107 30.8054 49.1733 30.848 49.536 30.8907C49.8133 30.9334 50.0907 30.9974 50.368 31.04C50.7093 31.104 51.0293 31.168 51.3707 31.2534C51.648 31.3174 51.9253 31.4027 52.2027 31.5094C52.5013 31.5947 52.8 31.7014 53.0987 31.808C53.376 31.9147 53.6747 32.0214 53.952 32.1494C54.2293 32.2774 54.4853 32.384 54.7627 32.512C55.04 32.6614 55.3387 32.8107 55.616 32.96C55.8507 33.088 56.0853 33.2374 56.32 33.3867C56.5973 33.5574 56.896 33.7494 57.152 33.9414C57.344 34.0907 57.5573 34.24 57.7493 34.3894C58.0267 34.6027 58.3253 34.8374 58.5813 35.072C58.752 35.2214 58.9013 35.3707 59.0507 35.52C59.328 35.7974 59.6053 36.0534 59.8827 36.3307C59.9893 36.4587 60.1173 36.5867 60.224 36.736C60.5013 37.056 60.7787 37.376 61.0347 37.7174C61.0987 37.8027 61.1627 37.888 61.2053 37.9734C62.8267 40.2347 63.936 42.88 64.32 45.76C64.32 45.8667 64.32 45.9947 64.3627 46.1227C64.3627 46.144 64.3627 46.1867 64.3627 46.208C64.3627 46.2507 64.384 46.2934 64.4053 46.3574C64.5547 47.3387 64.8533 48.2774 65.3227 49.1094C65.536 49.472 65.7707 49.8134 66.0267 50.1547C66.112 50.2614 66.2187 50.368 66.304 50.4747C66.496 50.688 66.7093 50.9014 66.944 51.0934C67.0507 51.2 67.1573 51.2854 67.264 51.3707C67.5627 51.6054 67.8827 51.84 68.224 52.0107C68.2667 52.0107 68.288 52.0534 68.3307 52.0747C68.7147 52.2667 69.0987 52.4374 69.504 52.5654C69.632 52.608 69.76 52.6294 69.888 52.672C70.208 52.7574 70.5067 52.8214 70.848 52.8427C70.976 52.8427 71.104 52.8854 71.2533 52.8854C71.7013 52.9067 72.1493 52.9067 72.6187 52.8427L73.8987 52.672C74.0053 52.0107 74.0693 51.3494 74.1333 50.6667C74.1333 50.5174 74.1547 50.3894 74.176 50.24C74.2187 49.5574 74.2613 48.8747 74.2613 48.1707C74.2613 48.0214 74.2613 47.8507 74.2613 47.7014C74.2613 46.8907 74.1973 46.0587 74.112 45.2267C74.0693 44.7574 74.0267 44.288 73.9413 43.8187C73.8133 43.008 73.6427 42.2187 73.4507 41.4507C72.7253 38.6347 71.5307 36.0107 70.016 33.6214C69.7173 33.152 69.4187 32.704 69.0987 32.256C68.416 31.3387 67.712 30.464 66.9227 29.632C66.816 29.504 66.7093 29.376 66.5813 29.2694C65.7707 28.4374 64.8747 27.6694 63.9573 26.944C63.04 26.2187 62.1013 25.536 61.12 24.9174C60.16 24.32 59.136 23.808 58.0907 23.3387C57.0027 22.848 55.872 22.4 54.6987 22.0587C53.952 21.8454 53.184 21.6534 52.416 21.4827C51.1147 21.2267 49.7707 21.0774 48.4267 21.0134C48.1707 21.0134 47.9147 20.9707 47.6587 20.9707C46.144 20.9494 44.6507 21.0774 43.2 21.2907C41.92 21.4827 40.6613 21.7174 39.4453 22.08C37.0347 22.784 34.7947 23.8294 32.704 25.152C32.5333 25.2587 32.3627 25.344 32.192 25.4507C27.776 28.3734 24.256 32.5547 22.144 37.4614C21.44 39.104 20.9067 40.832 20.5227 42.624C20.16 44.416 19.9467 46.272 19.9467 48.1707C19.9467 63.0827 31.9573 75.1787 46.8267 75.328H82.9013C85.5893 75.328 87.7653 73.152 87.7653 70.464C87.7653 67.776 85.5893 65.6 82.9013 65.6" fill="#21C1EE"/>
<path d="M679.317 24.4907C679.893 24.4907 680.448 24.5974 680.96 24.832C681.472 25.0667 681.92 25.3654 682.304 25.7494C682.688 26.1334 682.987 26.5814 683.221 27.1147C683.435 27.648 683.563 28.2027 683.563 28.7787C683.563 29.3547 683.456 29.9094 683.221 30.4214C682.987 30.9334 682.688 31.3814 682.304 31.7654C681.92 32.1494 681.472 32.448 680.96 32.6614C680.448 32.8747 679.893 33.0027 679.317 33.0027C678.741 33.0027 678.165 32.896 677.632 32.6614C677.099 32.448 676.651 32.128 676.267 31.7654C675.883 31.3814 675.584 30.9334 675.349 30.4214C675.136 29.9094 675.008 29.3547 675.008 28.7787C675.008 28.2027 675.115 27.6267 675.349 27.1147C675.563 26.6027 675.883 26.1334 676.267 25.7494C676.651 25.3654 677.12 25.0667 677.632 24.832C678.165 24.6187 678.72 24.4907 679.317 24.4907ZM679.317 32.6827C679.851 32.6827 680.363 32.576 680.832 32.384C681.301 32.192 681.728 31.8934 682.069 31.552C682.432 31.1894 682.709 30.784 682.901 30.3147C683.093 29.8454 683.2 29.3334 683.2 28.8C683.2 28.2667 683.093 27.7334 682.901 27.2427C682.688 26.752 682.411 26.3467 682.069 25.984C681.707 25.6214 681.301 25.344 680.832 25.152C680.363 24.9387 679.851 24.832 679.317 24.832C678.784 24.832 678.251 24.9387 677.76 25.152C677.269 25.3654 676.864 25.6427 676.501 25.984C676.139 26.3467 675.861 26.752 675.648 27.2427C675.435 27.7334 675.328 28.2454 675.328 28.8C675.328 29.3547 675.435 29.8454 675.648 30.3147C675.861 30.784 676.139 31.2107 676.501 31.552C676.864 31.9147 677.291 32.192 677.76 32.384C678.251 32.5974 678.763 32.6827 679.317 32.6827ZM679.573 26.4534C680.043 26.4534 680.427 26.5814 680.725 26.7947C681.003 27.008 681.152 27.328 681.152 27.712C681.152 28.096 681.003 28.416 680.725 28.6294C680.427 28.864 680.043 28.9707 679.573 28.9707H679.531L681.152 30.8907H680.789L679.189 28.9707H678.165V30.8907H677.867V26.4534H679.573ZM678.165 26.752V28.736H679.552C679.957 28.736 680.256 28.6507 680.491 28.48C680.725 28.3094 680.832 28.0534 680.832 27.7334C680.832 27.4134 680.725 27.1787 680.491 27.008C680.256 26.8374 679.936 26.752 679.552 26.752H678.165Z" fill="#2F446A"/>
</g>
</g>
</g>
<defs>
<clipPath id="clip0_2429_298">
<rect width="693.333" height="96" fill="white"/>
</clipPath>
</defs>
</svg>
