<?xml version="1.0" encoding="UTF-8"?>
<svg id="Layer_1" data-name="Layer 1" xmlns="http://www.w3.org/2000/svg" viewBox="0 0 773.38 329.23">
  <defs>
    <style>
      .cls-1 {
        fill: none;
        stroke: #fff;
        stroke-miterlimit: 10;
        stroke-width: 2.5px;
      }

      .cls-2 {
        fill: #202151;
      }

      .cls-2, .cls-3 {
        stroke-width: 0px;
      }

      .cls-3 {
        fill: #fff;
      }
    </style>
  </defs>
  <polygon class="cls-2" points="300.02 126.76 356.68 126.76 360.95 129.44 362.05 132.33 362.05 192.77 359.86 196.64 355.78 198.93 288.29 198.93 289.58 194.36 289.68 132.62 292.56 128.25 295.24 127.45 300.02 126.76"/>
  <path class="cls-3" d="M-520.01,267.42c-1.12-.05-1.74-.08-2.34-.11-.15-.3-.34-.5-.35-.71-.05-1.04-.07-2.08-.07-3.11,0-69.39,0-138.78,0-208.17v-2.79c-.15-.03-.3-.06-.45-.08-.29.51-.62.99-.87,1.52-12.58,27.28-25.14,54.57-37.73,81.84-.69,1.5-.9,3.02-.9,4.65-.01,40.53-.05,81.06-.08,121.59,0,1.03,0,2.06,0,3.3-.82.07-1.47.12-2.23.18-.15-.89-.27-1.57-.44-2.51-1.12-.08-2.2-.22-3.29-.23-16.23-.01-32.46-.01-48.69-.01-34.22,0-68.44-.02-102.66,0-28.86.02-57.72.1-86.59.12-.92,0-2.05.48-2.94-.83.57-.16.96-.34,1.37-.37.8-.05,1.6-.02,2.4-.02,79.16,0,158.31,0,237.47,0,1.26,0,2.52,0,4.03,0,.05-1.21.12-2.14.12-3.06,0-30.54,0-61.08,0-91.61,0-8.55.03-17.11-.02-25.66-.01-2.54.53-4.91,1.58-7.19,13.23-28.65,26.45-57.3,39.69-85.95.26-.57.58-1.12,1.06-2.03.22.71.41,1.09.44,1.47.06.72.02,1.44.02,2.16,0,44.69,0,89.38,0,134.06v3.17c.31.17.56.36.85.44.28.08.6.05,1.19.09V42.29c1.1.51,1.81.8,2.5,1.16,23.13,12.15,46.25,24.32,69.39,36.45,1.87.98,2.97,2.2,2.96,4.45-.07,14.87-.07,29.74-.1,44.61,0,1.02,0,2.04,0,3.44-9.3-1.09-18.29-2.14-27.59-3.23-.52,30.87-1.04,61.42-1.56,92.29,2.32-.39,4.36-.64,6.34-1.09,3.95-.91,7.88-.8,11.87-.33,13.41,1.59,26.83,3.09,40.25,4.61.31.03.62-.02,1.22-.05,0-1.86.02-3.68,0-5.5-.13-12.55-.28-25.09-.4-37.64-.14-13.75-.26-27.49-.39-41.24-.02-2.49-.09-2.53-2.48-2.82-8.01-.97-16.02-1.94-24.03-2.93-1.08-.13-2.14-.36-3.21-.55-.05-1.46.7-1.81,1.68-1.74,1.59.1,3.18.29,4.76.47,7.86.92,15.71,1.83,23.57,2.78,2.77.34,2.78.38,2.78,3.31,0,12.23,0,24.46,0,36.69v2.81c2.61.79,5.11,1.58,7.62,2.31,2.51.73,2.62.88,2.59,3.48-.03,2.63,0,5.26,0,8.2.89-.18,1.56-.26,2.2-.46,3.82-1.16,7.64-2.33,11.45-3.51,2.4-.74,2.44-.78,2.44-3.35,0-12.63,0-25.26,0-37.89,0-.64.07-1.29-.01-1.92-.23-1.88.67-2.92,2.29-3.73,4.78-2.41,9.5-4.94,14.24-7.43,6.36-3.35,12.73-6.68,19.06-10.1,1.44-.78,2.7-1.13,4.25-.25,1.75.99,3.54.56,5.25-.36,3.73-2,7.52-3.9,11.22-5.96,1.48-.83,2.95-1.1,4.86-.78v148.48h3.24c.07-.71.21-1.39.2-2.08-.11-11.03-.24-22.06-.37-33.08-.09-7.83-.2-15.66-.29-23.49-.14-11.99-.25-23.98-.46-35.96-.03-1.64-.58-3.27-.91-4.9-.31-1.56-.73-3.11-.95-4.68-.18-1.27-.07-2.48,1.02-3.52.46-.44.55-1.45.54-2.2-.13-11.51-.3-23.01-.46-34.52-.02-1.34,0-2.69,0-3.96,1.49-.45,2.55-.15,3.63.55,8.86,5.73,17.73,11.44,26.63,17.1,1.45.92,2.06,1.99,1.93,3.74-.17,2.3-.04,4.62-.04,6.92,1.21.14,2.36.08,3.35.43.95.34,1.75,1.1,2.61,1.68,4.71,3.17,9.38,6.39,14.13,9.49,1.63,1.07,2.35,2.31,2.35,4.33-.01,17.11.06,34.21.14,51.32.08,17.1.2,34.21.3,51.31,0,.55.06,1.11.11,2,3.09.23,6.17.07,9.25.1,3.2.03,6.4.01,9.59,0,3.12,0,6.24-.04,9.35-.05,3.12-.01,6.24,0,9.35-.01,3.2,0,6.4,0,9.59,0,3.12,0,6.24-.04,9.35-.04,3.12,0,6.24,0,9.35,0,3.12,0,6.24.01,9.35,0,3.2-.02,6.39-.09,9.59-.1,3.12-.02,6.24,0,9.35,0,3.12,0,6.24.01,9.35,0,3.2-.02,6.39-.07,9.59-.09,3.12-.03,6.23-.05,9.35-.06,3.12-.01,6.24,0,9.35,0s6.4.01,9.59,0c3.12-.01,6.23-.06,9.35-.08,3.12-.01,6.24,0,9.35,0,3.2,0,6.4,0,9.59,0h18.71c3.2,0,6.4,0,9.59,0,3.12,0,6.24-.03,9.35-.03,3.12,0,6.24,0,9.35,0,3.12,0,6.24,0,9.35,0H5.45c.05.16.09.32.14.48-.31.24-.59.64-.93.69-.78.11-1.59.06-2.39.06-37.34,0-74.68-.04-112.02.01-30.78.04-61.56.17-92.34.29-19.35.07-38.69.17-58.04.29-2.86.02-5.71.03-8.58.53-2.32.4-4.78.09-7.18.03-13.26-.31-26.52-.64-39.79-.98-.82-.02-1.64-.22-2.46-.33,0-.21,0-.41,0-.62.65-.11,1.3-.31,1.95-.31,6.87.04,13.75.13,20.62.17,8.31.05,16.63.06,24.94.07.31,0,.61-.09,1.06-.16.07-.64.19-1.26.19-1.87-.04-15.67-.09-31.33-.15-47-.04-8.79-.12-17.58-.15-26.38-.04-9.51-.08-19.03-.03-28.54,0-1.88-.57-3.13-2.16-4.17-4.95-3.24-9.81-6.6-14.72-9.91-.52-.35-1.08-.73-1.67-.9-1.45-.4-2.26.26-2.33,1.78-.02.4,0,.8.01,1.2.04,19.34.08,38.69.11,58.03.03,14.71.05,29.42.05,44.13,0,1.48-.12,2.96-.18,4.44-.21.03-.42.05-.62.08-9.63-27.54-19.26-55.07-28.89-82.61l-.54.07c.29,30.75.86,61.51,1.13,92.59-11.85.74-23.53,1.47-35.57,2.22-.34-12.11-.07-23.99-.39-35.86v33.2c-2.59.7-12.76.67-14.91-.08v-78.49c-2.09.54-3.84,1.04-5.62,1.43-1.07.23-1.44.9-1.51,1.85-.04.64-.04,1.28-.04,1.92,0,22.94,0,45.89,0,68.83,0,1.28.09,2.55.1,3.83,0,1.18-.63,1.76-1.79,1.76-3.35,0-6.71.04-10.06-.04-1.39-.03-1.74-.51-1.83-1.97-.04-.64-.01-1.28-.01-1.92,0-10.63,0-21.26,0-31.9v-2.85c-3.84-.12-7.38.89-10.98,1.38,3.02-.18,6.04-.36,9.22-.55v41.29c-.63.12-1.24.33-1.85.35-13.97.59-27.94,1.35-41.92,1.65-8.14.18-16.3-.36-24.44-.59-1.83-.05-2-.26-2.03-2.14-.01-1.03,0-2.07,0-3.34-1.08-.37-1.31-1.41-1.29-2.7.09-6.07.1-12.15.12-18.22,0-.85-.09-1.71-.15-2.77-18.3,2.14-36.36,4.25-54.8,6.41-.04-4.13-.02-8.02-.02-11.91,0-3.92,0-7.83,0-11.75v-23.5c0-3.91,0-7.81,0-11.72l-.5-.02c0,.71,0,1.42,0,2.12-.07,24.06-.15,48.11-.22,72.17,0,.93,0,1.87,0,3.1ZM-517.75,44.59v143.22c.91.18,1.68.38,2.46.49,3.79.54,7.59,1.04,11.39,1.58,2.37.34,2.54.51,2.48,2.87-.28,11.42-.58,22.84-.86,34.25-.02.75.05,1.5.08,2.27,6.43-.68,35.74-6.9,37.31-7.96-3.53.2-6.76,1.54-10.41,1.52.53-31.76,1.06-63.27,1.6-95.13,9.29,1.08,18.27,2.13,27.33,3.18.1-.59.2-.89.2-1.19.04-15.18.07-30.36.12-45.55,0-1.36-.52-2.23-1.74-2.84-2.85-1.44-5.67-2.95-8.5-4.44-19.44-10.23-38.87-20.45-58.31-30.68-.96-.51-1.93-.99-3.15-1.6ZM-325.95,264.61v-107.47c-.97-.32-1.87-.54-2.71-.9-5.79-2.51-11.55-5.07-17.34-7.57-.81-.35-1.72-.48-3.02-.83-.66,39.29-1.53,78.13-2.02,117.34,8.49-.19,16.68-.37,25.1-.56ZM-461.39,270.25c.8.05,1.66.13,2.52.16,2.08.07,4.15.13,6.23.19,6.47.16,12.94.57,19.41.43,10.46-.23,20.91-.82,31.37-1.27,1.99-.09,3.99-.26,5.98-.34,1.17-.05,1.78-.58,1.78-1.76,0-.4,0-.8,0-1.2,0-11.19,0-22.38,0-33.56,0-.77-.08-1.54-.13-2.42-4.98-.11-9.67.95-14.46.87-.06-.68-.12-1.07-.12-1.46-.02-10.71-.02-21.42-.05-32.12,0-1.8.64-3.09,2.44-3.66.82-.26,1.39-.76,1.39-1.72,0-2.4.02-4.79.01-7.19,0-.81-.38-1.4-1.19-1.59-2-.46-4-.89-6.17-1.37-.06.9-.16,1.52-.14,2.14.07,3.27.19,6.55.25,9.82.2,10.14.4,20.29.56,30.43.05,3.05-.19,3.27-3.3,3.02-3.03-.24-6.04-.63-9.06-.95-11.6-1.23-23.19-2.46-34.79-3.67-.67-.07-1.35,0-2.27,0,0,3.1,0,5.88,0,8.66,0,2.56.02,5.11,0,7.67,0,1.08.45,1.65,1.55,1.67.4,0,.8.01,1.2.01,11.27,0,22.54,0,33.81,0,.69,0,1.38-.1,2.34-.17v-10.11h9.68c.56,2.47.5,9.48-.17,11.58-1.79,0-3.69.03-5.59,0-2.4-.05-2.58.12-2.57,2.53.02,6.31.03,12.63.02,18.94,0,2.2-.28,2.48-2.49,2.5-3.03.03-6.07.03-9.1,0-.76,0-1.53-.18-2.54-.3v-20.41c-3.73-.45-8.6-.31-10.37.32-.14,7.07.07,14.23-.12,21.57-1.17,0-2.03,0-2.9,0-3.76,0-7.51-.03-11.27.01-2.18.02-2.34.31-1.75,2.8ZM-292.11,147.48c-4.44,1.63-8.47,3.11-12.51,4.59-4.57,1.67-9.14,3.35-13.72,5.02-1.35.49-2.58,1.16-2.51,2.8.13,3.25-.18,6.52.94,9.71,9.05,25.84,18.05,51.69,27.06,77.53.12.34.29.65.44.98.1-.02.2-.05.31-.07v-100.56ZM-379.01,189.6c-.88.11-1.36.12-1.82.24-7.66,1.93-15.33,3.87-22.99,5.83-2.04.52-2.1.63-2.1,2.81-.01,9.19,0,18.38,0,27.57,0,.68.13,1.36.23,2.25,5.37-.61,10.49-1.2,15.88-1.82v13.17c0,4.24-.03,8.47,0,12.71.04,4.28-.2,8.57.18,13.14,2.84,0,5.45.01,8.07,0,2.51-.01,2.55-.07,2.55-2.55,0-23.42,0-46.83,0-70.25,0-.94,0-1.89,0-3.09ZM-350.49,147.9c-.67.17-1.06.22-1.41.36-7.96,3.11-15.9,6.26-23.88,9.32-1.5.57-1.81,1.54-1.8,2.95.04,7.11.01,14.23.03,21.34,0,.52.13,1.03.24,1.81,1.8-.54,3.4-1,4.98-1.5,2.97-.95,5.97-1.1,8.96-.15,2.85.91,3.06,1.23,3.06,4.26,0,13.11,0,26.22,0,39.32,0,.64.02,1.28,0,1.92-.04,1.19.57,1.74,1.7,1.87,1.11.13,2.21.34,3.32.48,1.14.14,1.7.77,1.71,1.91,0,.64.02,1.28.02,1.92-.02,10.15-.04,20.3-.06,30.45,0,.86,0,1.71,0,2.68h4.75v-.26c-1.14-.12-2.3-.25-3.68-.4.69-39.45,1.38-78.77,2.07-118.29ZM-343.63,146.97c0-6.96.04-13.34-.06-19.71,0-.64-.66-1.45-1.25-1.86-1.77-1.23-3.55-.87-5.39.11-10.43,5.56-20.86,11.11-31.36,16.53-1.83.95-2.53,2.04-2.49,4.07.1,6.71.02,13.41.04,20.12.02,6.39.08,12.78.1,19.17.01,2.98,0,2.97-2.8,3.84-1.12.35-2.21.76-3.32,1.14,2.9-.29,5.68-.96,8.45-1.64,2.58-.63,2.67-.74,2.67-3.37,0-8.39,0-16.77,0-25.16,0-2.76.01-2.76,2.65-3.8,8.02-3.16,16.05-6.3,24.05-9.51,2.73-1.1,5.41-2.06,8.69.06ZM-464.54,223.31c-.71.08-1.33.12-1.92.24-8.45,1.71-16.9,3.43-25.35,5.15-7.83,1.59-15.65,3.18-23.48,4.77-2.47.5-2.5.54-2.5,3.14,0,2.96-.01,5.91.01,8.87,0,.6.13,1.19.22,1.92,2.5-.26,4.8-.48,7.1-.75,10.23-1.2,20.46-2.43,30.7-3.64,4.44-.52,8.89-.99,13.33-1.53,1.8-.22,2.09-.52,2.1-2.24.03-4.88.01-9.75,0-14.63,0-.38-.12-.76-.21-1.31ZM-321.28,117.61c-.38,7.74.23,36.88.83,38.79,1.12-.4,2.23-.78,3.34-1.19,7.57-2.79,15.12-5.61,22.71-8.34,1.57-.56,2.39-1.35,2.29-3.1-.1-1.67-.06-3.36.07-5.03.14-1.82-.61-2.91-2.15-3.88-8.31-5.25-16.55-10.61-24.81-15.92-.65-.42-1.33-.78-2.27-1.33ZM-422.47,264.71v-22.23c-.88-.08-1.65-.21-2.42-.21-11.27-.01-22.53-.01-33.8,0-.75,0-1.51.18-2.3.28v23.36c4.04.44,12.49.28,14.22-.3v-7.13c0-2.4-.05-4.79.01-7.19.06-2.36-.27-4.74.26-7.28,3.61,0,7.11-.02,10.62,0,2.26.02,2.39.16,2.4,2.51.02,5.19,0,10.39.01,15.58,0,.85.07,1.69.12,2.61h10.88ZM-517.72,189.28v42.06c4.15-.77,8.13-1.49,12.11-2.25,1.84-.35,1.9-.44,1.94-2.34.13-5.35.24-10.69.36-16.04.14-5.82.26-11.65.44-17.47.04-1.22-.22-1.95-1.59-2.12-4.35-.56-8.69-1.2-13.26-1.84ZM-341.1,124.99c.14,1.93.28,3.51.37,5.09.31,5.65.62,11.31.88,16.97.06,1.26.51,2.07,1.74,2.54,4,1.54,7.97,3.16,11.97,4.75.48-2.81.36-35.18-.17-37.03-4.97,2.58-9.9,5.14-14.79,7.68ZM-368.62,231.21c-.47,2.47-.35,31.74.17,33.47h11.33c.59-3.11.41-30.43-.22-32.15-3.72-.44-7.49-.88-11.27-1.32ZM-367.17,184.03v2.81c0,13.26,0,26.53,0,39.79,0,.64.03,1.28,0,1.92-.06,1.08.48,1.67,1.51,1.78,2.12.23,4.24.41,6.37.61-2.36-.76-2.47-.89-2.48-3.38,0-8.15,0-16.3,0-24.45,0-5.67-.04-11.35.03-17.02.02-1.43-.5-2.21-1.82-2.69-2.24-.81-4.47-1.14-6.8-.42-1.75.54-3.52,1.02-5.26,1.6-.37.12-.64.54-.96.82.06.17.13.33.19.5,2.98-.6,5.96-1.21,9.23-1.87ZM-420.82,232.07c0,2.66,0,5.05,0,7.43,0,.99.6,1.44,1.52,1.48,1.36.05,2.71.08,4.07.09.91,0,1.64-.36,1.66-1.34.06-2.52.02-5.04.02-7.66h-7.27ZM-420.29,225.36c-13.39-1.51-26.79-3.03-40.18-4.54,1.71,1.04,37.3,4.96,40.18,4.54ZM-403.56,193.29c.17,0,.34,0,.5,0,0-3.23,0-6.46,0-9.69,0-1.18-.86-1.67-1.79-1.95-2.36-.71-4.73-1.36-7.12-1.97-.31-.08-.71.17-1.07.27.54.67,1.08.97,1.66,1.11,1.78.42,3.57.77,5.36,1.18,2.39.55,2.42.57,2.45,2.97.03,2.69,0,5.38,0,8.08ZM-341.2,148.79c-.19-3.33-.39-6.66-.59-9.99-.18,3.35-.77,6.7-.14,10.03,0,.02.28-.01.73-.04ZM-418.12,225.86s0,.1,0,.15h1.82s0-.1,0-.15h-1.82ZM-404.45,229.82s0-.06,0-.09h-1.02s0,.06,0,.09h1.02Z"/>
  <g id="LHSudz.tif">
    <path class="cls-3" d="M227.14,256.05c3.19,1.67,6.22,4.26,9.59,4.79,5.2.82,10.63.15,15.96.25,7.58.15,10.97,3.41,11.15,11.1.19,8.46.14,16.92.04,25.38-.07,5.48,1.87,8.81,7.92,8.78,5.93-.03,8.16-3.33,8.18-8.73.03-8.7-.06-17.41.03-26.11.07-7.33,3.63-11.24,10.14-11.45,6.94-.22,10.75,3.61,10.91,11.42.17,8.46.03,16.92.06,25.38.02,5.03,1.17,9.44,7.41,9.42,6.14-.02,7.5-4.3,7.52-9.38.04-7.49-.03-14.99.03-22.48.07-8.35,3.32-12.58,9.61-12.68,6.19-.09,9.81,4.42,9.85,12.42.05,7.74,0,15.47.02,23.21.01,5.75,2.37,9.12,8.68,9.01,6.18-.12,7.76-3.86,7.77-9.07.02-8.22-.11-16.44.07-24.66.19-8.19,3.45-11.54,10.71-11.49,7.24.05,10.32,3.44,10.4,11.66.07,7.98.09,15.96,0,23.93-.06,5.61,2.49,8.77,8.16,8.8,5.78.03,8.1-3.23,7.98-8.84-.16-7.25-.07-14.5-.03-21.76.06-10.13,3.31-13.4,13.54-13.4,66.14-.02,132.28-.01,198.42-.01,69.77,0,139.55,0,209.32,0,2.79,0,5.57,0,8.36,0,.06.76.12,1.51.18,2.27-2.78.16-5.56.45-8.34.45-107.08.02-214.16.02-321.25.02-28.83,0-57.66-.02-86.49.01-9.06,0-10.92,1.93-10.95,11.1-.03,7.25.08,14.51-.04,21.76-.12,7.41-3.52,10.86-10.48,10.95-6.96.09-10.79-3.35-11-10.56-.25-8.45-.14-16.92-.05-25.38.06-5.26-2.11-8.22-7.64-8.35-5.49-.14-8.13,2.81-8.24,7.92-.2,8.7,0,17.41-.11,26.11-.1,7.66-3.27,11.1-10.1,11.3-7.18.22-11.16-3.41-11.38-10.99-.25-8.21-.16-16.44-.07-24.66.06-5.01-1.54-8.9-7.07-8.94-5.45-.04-7.41,3.78-7.43,8.77-.03,8.22.1,16.44-.09,24.66-.16,7.39-3.42,11-9.56,11.15-6.43.16-9.99-3.7-10.1-11.3-.12-8.46-.04-16.92-.03-25.38,0-5.56-1.88-9.56-8.22-9.57-6.53-.01-7.92,4.14-7.82,9.69.14,8.22.15,16.44-.02,24.66-.16,8.19-3.99,12.09-11.27,11.92-6.91-.16-10.15-3.92-10.2-12.02-.06-8.22-.08-16.44,0-24.66.06-6.04-2.87-8.91-8.86-8.88-4.36.02-8.73-.21-13.08.03-7.06.39-12.5-1.53-14.42-9.55-20.34,4.37-37.97-3.64-56-10.87-12.68-5.09-25.81-9.8-39.18-12.25-20.52-3.76-39.43,1.09-54.75,16.33-.45.45-1.22.57-2.9-.07,2.1-2.24,3.95-4.78,6.33-6.66,17.05-13.43,36.93-16.01,57.11-11.5,14.93,3.34,28.9,10.7,43.62,15.23,11.64,3.59,23.73,5.83,35.72,8.15,3.08.6,6.54-.77,9.5-1.19.42-1.1.73-1.54.74-1.98.58-24.31,1.23-21.27-20.55-21.37-5.09-.02-10.19.22-15.26-.09-6.34-.39-9.57-4.03-9.58-10.41-.01-6.46,3.27-10,9.68-10.16,8.23-.21,16.47-.09,24.71-.09,5.5,0,9.75-1.57,9.5-8.11-.23-6.13-4.4-7.31-9.55-7.25-7.99.08-15.99.15-23.98-.03-6.95-.16-10.15-3.55-10.28-10.33-.13-7.07,3.25-11.08,10.21-11.29,8.23-.26,16.48-.21,24.71-.01,5.51.13,9.95-1.1,10.07-7.5.13-6.81-4.59-8.22-10.32-8.16-7.75.08-15.51.13-23.26-.03-6.95-.15-11.15-4.03-11.03-9.79.12-5.65,4.54-9.44,11.37-9.52,8.24-.09,16.48-.14,24.71,0,6.43.12,9.27-2.81,9.19-9.21-.08-6.19-3.08-8.61-9.08-8.48-7.99.18-15.99.14-23.98,0-7.61-.13-11.54-3.69-11.51-10.07.03-6.28,4.03-9.73,11.71-9.83,7.99-.1,15.99-.11,23.98,0,5.79.08,8.45-2.72,8.42-8.38-.03-5.8-.13-11.61.05-17.41.21-6.63,3.76-10.22,10.39-10.47,5.56-.21,11.15-.19,16.71-.02,6.51.19,9.23-2.95,9.15-9.25-.12-8.22-.11-16.44,0-24.66.09-7.31,3.58-10.93,10.4-11.11,7.18-.2,11.24,3.57,11.39,10.98.17,8.46.09,16.92.03,25.38-.04,4.69,1.44,8.38,6.68,8.5,5.32.12,6.88-3.58,6.87-8.26-.01-8.22-.11-16.44.03-24.66.14-8.4,4.01-12.14,11.98-11.95,7.37.18,10.75,3.97,10.8,12.28.06,8.22.06,16.44,0,24.66-.03,4.79,1.7,8.03,6.98,8.19,5.65.17,7.67-3.07,7.64-8.26-.05-8.46-.09-16.92.02-25.38.09-7.32,3.81-11.4,10.16-11.49,6.62-.09,10.19,3.68,10.29,11.18.11,8.22.11,16.44,0,24.66-.08,5.81,1.51,10.33,8.27,10.23,6.35-.09,7.83-4.32,7.69-9.91-.21-7.97-.11-15.96-.03-23.93.08-8.27,3.73-12.3,10.9-12.23,7.04.07,10.57,4.16,10.64,12.55.07,7.98.22,15.96-.04,23.93-.23,6.94,3.16,9.64,9.69,9.52,4.6-.08,9.21-.07,13.81,0,9.08.16,11.72,2.76,11.85,11.64.07,5.08-.09,10.16.07,15.23.17,5.43,2.78,8.48,8.62,8.37,7.75-.15,15.51-.17,23.26-.08,9.3.11,13.22,3.36,13.2,10.66-.02,7.52-4.37,11.07-13.76,11.02-7.27-.03-14.53-.23-21.8-.35-5.04-.08-8.55,1.64-8.63,7.35-.08,6.06,3.42,7.89,8.89,7.77,8.47-.19,16.95-.19,25.43-.23,5.46-.02,11.01-.42,11.12,7.68.13,9.1-2.92,13.44-11.03,13.7-9.2.29-18.41-.03-27.62.15-6.37.12-8.96,3.24-8.17,9.1.66,4.9,3.92,6.22,8.25,6.22,8.72,0,17.44-.09,26.16.06,8.1.13,12.25,3.72,12.21,10.19-.04,6.6-3.94,9.73-12.38,9.79-8.24.05-16.47.01-24.71.02-6.16,0-9.53,2.74-9.33,9.24.19,6.3,3.72,8.25,9.51,8.1,7.75-.2,15.5-.1,23.26-.03,8.66.08,12.56,3.42,12.51,10.53-.05,6.92-3.57,9.87-12.1,9.95-7.51.07-15.02-.04-22.53.03-8.65.07-10.59,2.05-10.73,10.64-.02,1.45.1,2.92-.09,4.35-1.08,8.04-9.62,11.9-15.49,6.33-4.32-4.11-8.42-4.58-13.95-4.51-16.95.21-33.9-.5-50.86-.77-30.52-.5-61.04-.99-91.56-1.37-2.31-.03-4.82.39-6.91,1.34-6.56,2.98-12.96,6.31-19.43,9.51-.5.73-1,1.46-1.5,2.19ZM246.55,242.49c-4.03-8.72-4.78-16.71-1-24.89.48-1.05.14-2.57-.07-3.83-.53-3.26-1.73-6.5-1.74-9.75-.09-37.23-.03-74.45.02-111.68.01-10.74,2.98-13.68,13.8-13.68,45.78-.01,91.57,0,137.35,0,11.55,0,14.38,2.9,14.39,14.67,0,45.45.03,90.89-.04,136.34,0,3.33-.56,6.67-1.06,9.98-.53,3.52,4.43,9.72,8.44,9.82,4.58.11,7.18-2.38,7.45-7.04.08-1.45.02-2.9.05-4.35.19-8.99,3.17-11.94,12.38-12.04,8.24-.09,16.47.02,24.71-.07,5.08-.06,8.47-2.31,8.4-7.79-.07-5.38-3.18-7.67-8.47-7.61-8.24.1-16.47.07-24.71,0-8.1-.06-12.05-3.67-12.18-10.99-.14-7.56,3.52-11.33,11.67-11.5,8.72-.19,17.44-.01,26.16-.1,4.94-.05,8.64-1.81,8.48-7.55-.16-5.63-3.89-7.34-8.8-7.37-8.72-.06-17.44.03-26.16-.05-8.18-.07-11.7-3.28-11.61-10.43.08-7.04,3.63-10.1,11.93-10.16,8.72-.06,17.44.12,26.16-.07,6.69-.14,8.8-3.21,8.79-10.44,0-6.79-4.7-5.49-8.6-5.5-8.96-.03-17.92.29-26.88.13-6.63-.12-10.27-4.19-9.98-10.66.28-6.37,3.59-9.77,10.12-9.74,8.24.04,16.47.07,24.71.14,5.64.04,9.53-2.1,9.61-8.26.08-6.04-4.02-7.77-9.17-7.81-7.99-.06-15.99.14-23.98.06-8.49-.09-11.71-3.34-11.93-11.91-.12-4.83-.11-9.67,0-14.5.16-6.44-3.07-9.27-9.31-9.22-5.09.04-10.18.11-15.26-.05-7.85-.25-10.94-3.34-11.05-11.11-.12-8.7-.04-17.4-.03-26.11,0-5.18-2.21-8.24-7.74-8.33-5.84-.1-8.31,2.88-8.26,8.51.07,8.46.07,16.92,0,25.38-.07,7.78-3.7,12-10.29,12.16-6.9.17-10.86-4.14-11-12.31-.14-8.46-.07-16.92-.04-25.38.02-5.15-1.97-8.41-7.62-8.32-5.65.09-7.45,3.46-7.41,8.56.07,8.46.11,16.92-.02,25.38-.12,7.44-3.8,11.27-10.33,11.14-6.14-.13-9.71-3.93-9.83-10.94-.15-8.46-.16-16.92,0-25.38.11-6.06-2.49-8.87-8.66-8.86-6.24.02-8.72,3.21-8.73,9-.01,8.22.05,16.44-.04,24.66-.08,7.17-3.6,11.36-9.33,11.37-5.6,0-9.5-4.45-9.6-11.32-.12-8.46-.09-16.92-.02-25.38.05-5.77-2.75-8.36-8.47-8.29-5.5.07-7.86,2.84-7.83,8.14.05,8.46.13,16.92-.05,25.38-.17,7.9-3.77,11.34-11.71,11.49-5.33.1-10.66.08-15.99.01-5.66-.07-8.59,2.43-8.47,8.28.11,5.07.06,10.15,0,15.23-.1,9.34-3.43,12.73-12.6,12.79-7.75.05-15.51.12-23.25-.02-4.91-.09-8.34,2.01-8.47,6.86-.14,5.2,3.3,7.64,8.55,7.59,8.24-.08,16.47-.1,24.71,0,8.13.1,11.33,3.44,11.31,11.52-.02,7.85-3.4,11.36-11.51,11.51-7.75.15-15.5.14-23.25,0-5.31-.1-10.35.59-10.19,7.2.15,6.51,5.37,7.1,10.54,7.08,6.78-.03,13.57-.03,20.35,0,9.37.05,13.54,3.21,13.6,10.22.06,6.93-4.49,10.54-13.38,10.57-7.27.02-14.54.16-21.8-.04-5.95-.16-9.96,1.36-9.92,8.31.04,7.17,4.49,8.08,10.21,7.96,7.75-.16,15.51-.23,23.25.02,6.61.22,10.57,4.4,10.52,10.45-.05,6.32-3.61,9.73-10.79,9.88-8.23.16-16.47,0-24.71.09-5.41.06-8.82,2.4-8.56,8.33.26,5.61,3.71,7.3,8.8,7.23,8.23-.1,16.47-.07,24.71,0,8.88.08,11.99,3.3,12.07,12.34.03,4.01,0,8.01,0,13.58,7.11-3.24,12.89-5.87,18.69-8.51ZM283.21,203.68c-11.05-2.32-12.54-4.15-12.55-15.26-.02-22.24-.03-44.47,0-66.71.02-11.85,2.35-14.21,13.88-14.21,28.1-.02,56.19-.03,84.29,0,9.75.01,12.92,3.19,12.93,13.05.04,27.55.03,55.11,0,82.66-.01,10.17-3.24,13.42-13.38,13.44-20.98.04-41.95.01-62.93.01,23.25,1.03,46.5.79,69.74,1.26,4.07.08,8.71,2.37,11.98,5.01,6.23,5.02,11.66,11.04,18.32,17.5.53-3.18,1.03-4.77,1.04-6.37.04-47.86.01-95.71.06-143.57,0-6.43-3.04-9.09-9.37-9.08-47.23.07-94.46.08-141.69,0-6.51-.01-9.13,2.89-8.99,9.3.22,9.9.02,19.82,0,29.73-.04,28.28-.21,56.56.06,84.83.03,3.05,1.87,7.9,4.12,8.79,9.98,3.96,24.8-1.06,32.5-10.4ZM278.76,213.66c31.46,0,62.38.04,93.3-.04,5.29-.01,6.9-3.55,6.89-8.27-.02-28.98-.02-57.97,0-86.95,0-5.27-2.37-8.13-7.86-8.13-30.01.02-60.02.02-90.04,0-5.14,0-7.81,2.82-7.84,7.54-.15,24.88-.26,49.76.2,74.62.05,2.62,3.81,7.05,6.13,7.24,2.59.22,5.91-3.09,8.1-5.58,1.15-1.31.77-4.14.75-6.28-.13-16.66-.4-33.33-.49-49.99-.05-8.72,3.27-12.53,11.28-12.6,17.91-.16,35.82-.16,53.73,0,7.51.07,11.25,3.74,11.32,11.15.16,17.63.15,35.26,0,52.89-.07,7.97-3.59,11.25-11.69,11.28-15.73.07-31.51.75-47.18-.22-11.7-.72-20.07,3.14-26.62,13.34ZM290.01,197.85c3.38,0,6.96,0,10.54,0,17.17,0,34.33-.14,51.5.06,6.8.08,9.6-2.76,9.52-9.52-.2-16.89-.02-33.78-.08-50.66-.03-7.57-2.29-9.79-9.98-9.82-16.92-.06-33.85-.05-50.77,0-7.98.02-10.22,2.27-10.19,10.41.06,16.16.31,32.33.34,48.49,0,3.8-.58,7.59-.86,11.04ZM401.98,241.14c-5.82-5.75-11.23-11.63-17.26-16.8-2.48-2.13-6.28-3.81-9.5-3.83-32.67-.26-65.35-.16-98.02-.06-2.02,0-4.73.26-5.93,1.52-5.39,5.68-10.36,11.76-16.74,19.17h147.44ZM249.8,239.84c6.67-5.92,12.96-11.49,19.24-17.07-.6-.61-1.2-1.23-1.8-1.84-6.31-.58-12.62-1.17-19.03-1.76-3.95,6.75-3.59,14.53,1.59,20.67Z"/>
  </g>
  <path class="cls-1" d="M1.32,265.56c52.43-.41,70.87-15.79,74.62-21l3.89-3.5"/>
</svg>