<?xml version="1.0" encoding="UTF-8"?>
<svg id="Layer_2" data-name="Layer 2" xmlns="http://www.w3.org/2000/svg" viewBox="0 0 30.5 22.75">
  <defs>
    <style>
      .cls-1, .cls-2 {
        fill: #409544;
      }

      .cls-3 {
        fill: #232156;
      }

      .cls-4 {
        fill: #b72026;
      }

      .cls-2 {
        stroke: #409544;
        stroke-miterlimit: 10;
        stroke-width: 0px;
      }
    </style>
  </defs>
  <g>
    <path class="cls-1" d="M7.74,13.35l-.03.04c-.19.27-.47.41-.82.41-.73,0-1.13-.64-1.13-1.24,0-.72.49-1.24,1.16-1.24.32,0,.57.1.75.31l.03.04.75-.58.04-.03-.03-.04c-.31-.38-.85-.6-1.45-.6-1.36,0-2.31.88-2.31,2.15s.93,2.15,2.31,2.15c.64,0,1.24-.27,1.55-.71l.03-.04-.81-.58-.04-.03Z"/>
    <path class="cls-1" d="M12.26,11.78c0-1.04-.87-1.26-1.6-1.26h-1.7v4.1h1.02v-1.6h.38l.87,1.6h1.22l-1.07-1.7c.55-.13.87-.54.87-1.13ZM9.99,11.36h.58c.57,0,.64.24.64.41,0,.29-.19.4-.69.4h-.52v-.81Z"/>
    <polygon class="cls-1" points="13.85 12.99 15.67 12.99 15.67 12.08 13.85 12.08 13.85 11.43 15.77 11.43 15.77 10.52 12.83 10.52 12.83 14.62 15.88 14.62 15.88 13.7 13.85 13.7 13.85 12.99"/>
    <path class="cls-1" d="M17.99,10.52h-1.47v4.1h1.58c1.4,0,2.38-.84,2.38-2.04,0-1.29-.93-2.05-2.49-2.05ZM19.42,12.54c0,.96-.77,1.16-1.42,1.16h-.39v-2.27h.45c.66,0,1.36.29,1.36,1.11Z"/>
    <rect class="cls-1" x="20.74" y="10.52" width="1.02" height="4.1"/>
    <polygon class="cls-1" points="22.23 10.52 22.23 11.4 23.42 11.4 23.42 14.62 24.44 14.62 24.44 11.4 25.64 11.4 25.64 10.52 22.23 10.52"/>
  </g>
  <rect class="cls-4" x="4.87" y="15.5" width="20.76" height=".41"/>
  <g>
    <polygon class="cls-1" points="25.99 10.52 25.99 10.65 26.18 10.65 26.18 11.12 26.34 11.12 26.34 10.65 26.54 10.65 26.54 10.52 25.99 10.52"/>
    <path class="cls-1" d="M26.65,11.12v-.6h.14l.24.36h-.1l.24-.36h.14v.6h-.15v-.19c0-.05,0-.1,0-.14,0-.04,0-.08.02-.12l.02.04-.18.26h-.06l-.18-.26.02-.05s.01.08.01.12c0,.04,0,.09,0,.14v.19h-.16Z"/>
  </g>
  <g>
    <path class="cls-2" d="M5.58,16.78c.39,0,.61.15.61.48s-.22.48-.6.48h-.28v.61h-.36v-1.58h.62ZM5.57,17.44c.14,0,.25-.06.25-.19s-.1-.19-.3-.19h-.19v.37h.25Z"/>
    <path class="cls-2" d="M7.07,16.78c.3,0,.61.1.61.48,0,.23-.13.39-.35.43l.42.67h-.43l-.34-.63h-.18v.63h-.36v-1.58h.65ZM7.01,17.43c.17,0,.29-.03.29-.18,0-.13-.1-.18-.27-.18h-.25v.36h.23Z"/>
    <path class="cls-2" d="M8.29,16.78v1.58h-.36v-1.58h.36Z"/>
    <path class="cls-2" d="M8.87,16.78l.41,1.03h0l.41-1.03h.39l-.68,1.58h-.29l-.66-1.58h.41Z"/>
    <path class="cls-2" d="M10.97,16.78l.71,1.58h-.41l-.14-.33h-.64l-.14.33h-.4l.71-1.58h.3ZM10.61,17.72h.4l-.2-.49-.2.49Z"/>
    <path class="cls-2" d="M12.78,16.78v.31h-.47v1.27h-.36v-1.27h-.47v-.31h1.3Z"/>
    <path class="cls-2" d="M14.1,16.78v.32h-.75v.29h.71v.32h-.71v.32h.8v.32h-1.16v-1.58h1.12Z"/>
    <path class="cls-2" d="M15.5,16.78v1.26h.67v.32h-1.03v-1.58h.36Z"/>
    <path class="cls-2" d="M17.5,16.78v.32h-.75v.29h.71v.32h-.71v.32h.8v.32h-1.16v-1.58h1.12Z"/>
    <path class="cls-2" d="M18.33,16.78l.7,1.1h0v-1.1h.36v1.58h-.47l-.72-1.12h0v1.12h-.36v-1.58h.49Z"/>
    <path class="cls-2" d="M20.29,16.78c.52,0,.96.23.96.79,0,.5-.42.79-.91.79h-.6v-1.58h.56ZM20.3,18.03c.32,0,.58-.13.58-.48,0-.31-.26-.46-.55-.46h-.22v.94h.2Z"/>
    <path class="cls-2" d="M21.86,16.78v1.58h-.36v-1.58h.36Z"/>
    <path class="cls-2" d="M22.68,16.78l.7,1.1h0v-1.1h.36v1.58h-.47l-.72-1.12h0v1.12h-.36v-1.58h.49Z"/>
    <path class="cls-2" d="M25.54,16.94l-.26.27c-.11-.11-.24-.15-.4-.15-.31,0-.51.21-.51.51s.2.51.51.51c.12,0,.23-.02.34-.08v-.26h-.29v-.32h.64v.82c-.21.11-.45.15-.69.15-.52,0-.89-.32-.89-.83s.37-.83.89-.83c.24,0,.47.05.65.2Z"/>
  </g>
  <g>
    <g>
      <path class="cls-3" d="M7.82,5.94c-.09-.12-.22-.2-.37-.25s-.3-.08-.44-.08c-.08,0-.16,0-.25.03-.09.02-.17.05-.25.09-.08.04-.14.09-.19.16s-.07.15-.07.25c0,.16.06.27.17.35s.26.15.44.21.36.12.57.17.39.14.57.25c.17.1.32.25.44.43.12.18.17.41.17.71s-.05.53-.16.74-.25.38-.43.53c-.18.14-.39.24-.63.31-.24.07-.49.1-.75.1-.33,0-.64-.05-.92-.15-.28-.1-.55-.26-.79-.49l.8-.88c.12.16.26.27.44.36.17.08.35.13.54.13.09,0,.19,0,.28-.03.09-.02.18-.05.25-.09.07-.04.13-.1.18-.16.05-.07.07-.15.07-.24,0-.15-.06-.27-.18-.36s-.26-.16-.44-.23-.37-.13-.57-.19c-.21-.06-.4-.15-.57-.25-.18-.1-.32-.25-.44-.42s-.18-.4-.18-.69.06-.51.16-.72.25-.38.43-.52.39-.24.62-.31c.23-.07.48-.1.73-.1.29,0,.57.04.83.12.27.08.51.22.73.41l-.77.84h0Z"/>
      <path class="cls-3" d="M9.02,6.29h1.08v3.5h-1.08v-3.5ZM8.93,5.19c0-.17.06-.32.19-.44.12-.12.27-.18.44-.18s.32.06.44.19c.12.12.19.27.19.44s-.06.32-.19.44-.27.19-.44.18c-.17,0-.32-.06-.44-.19-.12-.12-.19-.27-.18-.44"/>
      <path class="cls-3" d="M10.59,6.29h1.04v.47h.01c.03-.07.08-.13.14-.2.06-.07.14-.13.22-.18.09-.05.19-.09.29-.13.11-.03.23-.05.36-.05.25,0,.46.05.65.15s.33.26.43.47c.13-.22.28-.38.45-.48.18-.09.4-.14.66-.14.23,0,.43.04.59.12.16.08.29.19.38.32.09.14.16.3.2.48s.06.38.06.59v2.07h-1.08v-2.04c0-.16-.03-.3-.1-.42-.07-.12-.19-.18-.37-.18-.13,0-.23.02-.32.06-.08.04-.15.09-.2.17-.05.07-.09.16-.11.25s-.03.2-.03.3v1.85h-1.08v-1.85c0-.06,0-.14,0-.23s-.02-.18-.05-.26c-.03-.08-.07-.15-.14-.21s-.16-.09-.28-.09c-.14,0-.25.03-.34.07-.09.05-.15.12-.2.2s-.08.18-.09.28c-.01.1-.02.22-.02.33v1.74h-1.08v-3.49h.02Z"/>
      <path class="cls-3" d="M17.51,8.05c0,.26.07.48.22.64.15.16.36.25.64.25s.49-.08.64-.25c.15-.16.23-.38.23-.64s-.07-.48-.22-.64c-.15-.16-.36-.25-.64-.25s-.48.08-.64.24c-.15.16-.23.38-.23.64M16.52,6.3h.99v.46h.01c.04-.06.1-.13.17-.19s.15-.13.25-.18.19-.09.31-.13c.11-.03.23-.05.35-.05.26,0,.5.04.7.13.21.09.39.22.54.38s.27.35.35.57c.08.22.12.46.12.73,0,.25-.04.48-.11.7-.07.22-.18.42-.32.6-.14.17-.3.31-.5.41s-.42.16-.67.16c-.22,0-.44-.03-.63-.1s-.35-.19-.48-.36h-.01v2.02h-1.08v-5.15h0Z"/>
    </g>
    <rect class="cls-3" x="20.68" y="4.36" width="1.08" height="5.44"/>
    <path class="cls-3" d="M24.65,7.66c0-.18-.06-.34-.18-.47-.13-.13-.28-.19-.48-.19-.12,0-.22.02-.32.06-.09.04-.17.09-.23.15-.06.06-.12.13-.15.21-.03.08-.06.16-.06.25h1.42ZM25.56,9.2c-.17.22-.39.39-.66.51-.26.12-.54.18-.82.18s-.52-.04-.76-.13-.44-.21-.62-.37-.31-.35-.41-.58c-.1-.22-.15-.48-.15-.76s.05-.53.15-.76c.1-.22.24-.42.41-.58.18-.16.38-.28.62-.37.24-.09.49-.13.76-.13.25,0,.47.04.68.13.2.09.38.21.52.37.14.16.25.35.33.58.08.22.12.48.12.76v.34h-2.5c.04.21.14.37.28.49.14.12.32.19.53.19.18,0,.33-.04.45-.12s.23-.18.32-.31l.76.56Z"/>
  </g>
  <path class="cls-1" d="M24.42,22.75H6.08c-3.35,0-6.08-2.73-6.08-6.08V6.08C0,2.73,2.73,0,6.08,0h18.35c3.35,0,6.08,2.73,6.08,6.08v10.6c0,3.35-2.73,6.08-6.08,6.08ZM6.08.5C3,.5.5,3,.5,6.08v10.6c0,3.07,2.5,5.58,5.58,5.58h18.35c3.07,0,5.58-2.5,5.58-5.58V6.08c0-3.07-2.5-5.58-5.58-5.58H6.08Z"/>
</svg>