<?xml version="1.0" encoding="UTF-8"?>
<svg id="Layer_1" data-name="Layer 1" xmlns="http://www.w3.org/2000/svg" viewBox="0 0 773.38 409.1">
  <defs>
    <style>
      .cls-1 {
        fill: #fff;
        stroke: #fff;
        stroke-miterlimit: 10;
        stroke-width: .3px;
      }

      .cls-2 {
        fill: #242157;
        stroke-width: 0px;
      }
    </style>
  </defs>
  <polygon class="cls-2" points="317.28 251.5 317.68 256.69 318.24 273.47 304.41 253.31 303.46 251.77 304.08 251.14 314.91 250.63 317.28 251.5"/>
  <polygon class="cls-2" points="318.24 251.14 332.1 251.77 343.58 252.36 345.03 254.55 365.98 287.31 367.49 288.87 374.51 294.14 373.32 294.77 332.43 295.66 331.65 294.03 334.45 291.29 336.47 289.1 337.03 287.48 336.47 286.42 328.74 281.6 324.98 280.41 322.35 280.09 318.58 274.73 318.35 269.91 317.87 251.5 318.24 251.14"/>
  <g id="bzx7xA">
    <path class="cls-1" d="M801.25,298.7c-8.91,0-265.17-.1-274.08.07-4.41.08-8.16-.54-9.47-5.76-.91.37-1.56.79-2.25.86-.65.06-1.48-.08-1.94-.47-.23-.19-.03-1.37.33-1.72,1.6-1.51,1.1-2.7-.33-3.89-2.43-2.02-3.74-4.72-5.07-7.54-1.84-3.9-3.96-7.75-6.49-11.24-2.95-4.06-4.61-8.46-5.63-13.29-1.26-6-2.84-11.93-4.39-17.87-.36-1.4-1.15-2.68-1.74-4.02-.24,0-.47-.01-.71-.02-.41,1.13-.95,2.23-1.2,3.4-1.33,6.24-.7,12.44,1.1,18.43,1.79,5.93,3.91,11.79,6.27,17.52,2.84,6.89,7.3,12.68,13.05,17.47,1.49,1.24,2.94,2.58,4.2,4.04,1.71,1.98,1.24,3.66-1.31,4-3.01.4-6.15.58-9.14.18-3.76-.5-7.43-1.69-11.14-2.58-2.18-.53-4.34-1.14-6.54-1.6-3.54-.73-6.29.2-7.97,3.71-1.63,3.42-4.75,4.83-8.3,4.8-7.85-.06-15.7-.4-23.55-.65-1.2-.04-2.39-.24-3.58-.29-4.48-.19-8.43-1.58-11.89-4.58-3.2-2.78-3.48-2.67-6.96-.28-2.16,1.48-4.14,3.24-6.37,4.59-1.17.7-3.22,1.49-3.98.96-1-.7-1.17-2.64-1.57-4.08-.14-.52.09-1.15.15-1.73-.18-.13-.36-.25-.53-.38-.51.71-1.47,1.43-1.44,2.11.06,1.35.49,2.76,1.09,3.97.48.97,1.62,1.59,2.18,2.53.68,1.14,1.05,2.45,1.56,3.69-1.28.43-2.54,1.14-3.84,1.22-1.45.08-2.98-.27-4.4-.69-4.12-1.22-6.21-4.39-5.86-8.68.08-.96.25-1.91.42-3.16-7.21.86-13.87-1.28-20.62-2.94-1.19-.29-2.62.4-3.95.61-1.39.22-2.79.58-4.19.6-12.58.23-25.16.4-37.74.6-1.79.03-3.6.36-5.35.12-5.52-.76-8.16-3.67-8.68-9.2-.05-.58-.1-1.17-.16-1.83-6.64,1.73-12.74,5.67-20.09,3.88.32,2.77-1.29,3.26-3.42,3.36-3.79.18-7.57.53-11.36.71-1.25.06-2.65.12-3.75-.34-1.96-.82-3.18-.08-3.71,1.57-.99,3.06-3.1,3.6-5.94,3.51-1.06-.03-2.57.62-3.16,1.46-2.88,4.08-5.98,5.07-9.81,3.29-1.79.67-3.04,1.55-4.27,1.53-9.13-.12-18.27-.25-27.39-.72-3.86-.2-7.77-.99-10.25-4.68-.29-.43-1.33-.5-2.03-.51-6.59-.04-207.59-.03-214.18-.04v-.9h216.68c1.14,3.33,4.47,4.62,7.91,4.82,9.93.58,19.89.74,29.84,1.04.48.01.97-.26,1.91-.53-3.67-5.15-2.26-9.53,2.37-13.8-4.79.15-8.14-1.87-11.56-4.09-4.48-2.9-13.64-1.4-17.77,2.22-1.58,1.38-3.48,2.57-5.44,3.27-.98.35-2.85-.24-3.51-1.06-.54-.67-.35-2.7.3-3.45,1.92-2.19,4.24-4.04,5.91-5.59-3.13.16-6.2,2.85-7.49,7.32-.33,1.15-.53,2.34-.78,3.51-.32,1.47-1.07,2.52-2.74,2.39-1.63-.13-2.11-1.42-2.12-2.73-.02-6.17.72-12.15,5.12-16.98,1.81-1.99,3.75-3.87,5.62-5.81,3.26-3.4,4.78-7.39,4.91-12.16.11-4.01.55-8.1,1.52-11.97,2.14-8.48,7.96-14.26,15.13-18.76,3.35-2.1,6.98-3.75,10.44-5.69,1.74-.98,3.38-2.15,5.44-3.47.19,1.11.48,1.93.45,2.74-.25,6.63,1.46,12.92,3.28,19.18.94,3.24,1.73,3.53,4.67,2.04,2.51-1.28,4.94-2.72,7.55-4.17-2.18-1.56-4.17-2.89-6.05-4.34-4.52-3.47-7.06-8.1-8.49-13.62-2.08-8.02-2.28-16.14-1.72-24.27.52-7.46,5.37-12.27,12.81-13.01,6.66-.66,13.12.3,19.15,3.43,2.29-5.08,4.45-5.89,9.89-3.7.3-1.72.2-3.67,1.02-5.09.77-1.33,2.51-2.1,3.82-3.12.24.17.49.35.73.52,0-3.25.15-6.51-.04-9.75-.21-3.59-.87-7.21.69-10.63.76-1.68,1.76-3.32,2.96-4.69.71-.81,2.19-1.68,3.07-1.47,1.93.47,3.17-.42,4.66-1.2,9.14-4.81,20.52-.02,23.45,9.81.64,2.15.98,4.43,1.91,6.45,1.07,2.34,2.46,4.59,4.04,6.62,1.81,2.32,3.99,4.33,5.99,6.5,1.36,1.47,1.22,3.2.54,4.85-1,2.42-2.27,4.72-3.26,7.14-.91,2.24-1.59,4.57-2.38,6.86.29.15.57.31.86.46.62-.82,1.41-1.56,1.82-2.47,1.15-2.59,2.14-5.26,3.2-7.9.42-1.04.76-2.12,1.29-3.1,1.12-2.07,2.98-2.53,4.56-.8,1.2,1.31,2.49,3.16,2.52,4.79.09,5.43.2,10.98-.73,16.3-1.85,10.61-4.38,21.1-6.64,31.63-.11.5-.24,1-.4,1.67,5.64-.85,10.79-2.58,15.1-6.26-4.09-5.95-4.91-13.08-5.12-20.4-.03-1.05-.61-2.08-.86-3.13-.14-.56-.26-1.18-.17-1.74.52-3.1.99-6.22,1.69-9.28,1.08-4.74,4.05-8.14,8.16-10.51,1.44-.83,3.2-1.13,4.79-1.66-1.84-4.77-1.14-10.11-1.58-15.32-.44-5.22-.85-10.45-1.23-15.68-.1-1.41-.05-2.84-.02-4.26.1-4.27,2.26-6.99,6.26-8.34,1.26-.43,2.51-.89,3.89-1.39-.87-2.41-1.68-4.67-2.55-7.09,2.33.33,5.88,3.64,5.76,5.33-.07.9-.87,1.76-1.56,3.05.73.87,1.56,2.23,2.74,3.19,2.72,2.22,5.57,4.29,8.44,6.32,3.78,2.69,6.98,2.3,9.72-1.46,3.88-5.34,6.6-11.27,7.25-17.91.34-3.45.09-6.96.06-10.45,0-.62-.25-1.24-.38-1.86-.19-.02-.38-.04-.56-.06-.26.87-.68,1.73-.75,2.61-.09,1.11.07,2.24.18,3.35.16,1.52.44,3.41-1.3,3.85-1.3.33-2.89-.47-4.35-.8-.19-.04-.33-.29-.5-.44-5.04-4.76-5.53-4.66-11.23-.9-1.97,1.3-4.49,1.85-6.82,2.49-1.49.41-3.19.11-4.66.55-1.18.35-2.42,1.13-3.21,2.08-1.3,1.57-2.06,1.86-2.86.03-1.24-2.84-2.34-5.84-2.8-8.88-.38-2.52-.03-5.25.48-7.79,2.08-10.24,8.6-15.51,18.72-15.54,7.99-.03,18.71,4.99,20.21,15.96.57,4.21.69,8.48,1.04,12.72.06.74.23,1.48.43,2.74,2.59-2.76,5.39-2.4,8.07-1.75,4.58,1.1,9.15,2.29,13.62,3.77,5.89,1.94,9.76,6.2,12.37,11.71,3.29,6.93,4.82,14.36,5.57,21.89,1.14,11.47,1.93,22.98,2.69,34.49.16,2.49-.22,5.09-.78,7.53-.31,1.35-1.53,2.49-2.51,3.99,1.99.21,3.95.43,5.91.61,5.17.47,9.92,1.82,14.05,5.26,6.08,5.06,9.12,11.34,8.76,19.25-.04.82,0,1.64.26,2.56.2-.48.33-1.01.62-1.42.53-.76,1.15-1.46,1.74-2.18.73.66,1.66,1.2,2.14,2.02.67,1.15,1.13,2.46,1.45,3.75,1.53,6.17,3.06,12.35,4.43,18.56.83,3.79,2.37,7.14,4.49,10.42,2.99,4.63,5.39,9.63,8.17,14.4,1,1.72,2.25,3.34,3.61,4.79,2.58,2.74,2.68,3,.51,6,.09.1.21.3.26.29,3.16-.86,3.15-.86,4.89,2.04,1.31,2.18,3.39,2.75,5.78,2.74,8.61-.02,264.57,0,273.18,0,.9,0,1.8.03,2.7.05v.9ZM319.83,186.24c-.02,3.21-1.58,5.4-3.67,7.38-1.41,1.34-2.73,2.78-4.13,4.13-1.56,1.51-2.48,3.21-2.5,5.5-.01,1.62-.3,3.34-.93,4.82-1.41,3.32-1.32,6.66-1.02,10.14.3,3.46,1.92,5.68,5.09,6.97,2.85,1.16,5.65,1.32,8.5.1,3.44-1.47,6.84-3.07,10.34-4.36,2.51-.92,5.14-1.68,7.78-2.02,1.15-.15,2.46.9,3.7,1.41-.61,1.18-.93,2.96-1.9,3.43-2.91,1.43-6,2.61-9.15,3.39-3.4.84-6.99.9-10.4,1.71-5.17,1.24-7.01,4.21-6.23,9.46.33,2.22.89,4.4,1.31,6.61.69,3.58,1.59,4.52,5.28,4.39,4.26-.15,8.51-.62,12.75-1,5.64-.51,5.91-.78,7.05-6.4.04-.22.06-.45.12-.66,1.66-7.06,3.3-14.13,4.99-21.18.82-3.41,1.98-6.75,2.58-10.2.57-3.3.55-6.71.95-10.05.09-.74.87-1.4,1.33-2.09.64.61,1.68,1.14,1.84,1.86.3,1.35.42,2.9.05,4.2-1.16,4.01-2.65,7.93-3.9,11.92-1.91,6.12-4.24,12.12-4.22,18.73.01,3.8-.57,7.61-.86,11.41-.14,1.84-.25,3.69-.38,5.66,2.57.39,5.25.05,6.32,3.05.1-.48.06-.76,0-1.04-1.27-6.78-.63-13.08,4.46-18.34.48-.5.75-1.29.91-1.99,2.16-9.41,4.61-18.77,6.3-28.26,1.13-6.37,1.35-12.93,1.56-19.41.06-1.7-1.19-3.63-2.28-5.13-.99-1.38-2.41-1.12-3.13.55-.83,1.92-1.43,3.94-2.28,5.85-1.02,2.32-2.1,4.62-3.36,6.81-.35.61-1.46.79-2.21,1.17-.26-.8-.9-1.7-.71-2.37.72-2.58,1.63-5.11,2.61-7.6.82-2.08,1.95-4.05,2.73-6.15.64-1.74.39-3.36-1.63-4.22-.48,1.96-.95,3.84-1.5,6.06-1.94-1.78-3.43-3.15-5.35-4.92-.37,7.89-4.53,13.13-9.33,18.01-5.01,5.09-7.6,5.03-12.39-.32-1-1.11-1.87-2.34-2.75-3.55-.82-1.13-1.58-2.31-2.36-3.47ZM274.4,279.07c4.19-13.79,7.92-27.39,3.24-41.75-2.71,1.46-5.16,2.89-7.71,4.11-2.91,1.39-4.29.84-5.29-2.26-.97-2.98-1.78-6.04-2.34-9.12-.72-3.92-1.11-7.89-1.62-11.61-4.26,2.29-8.75,4.51-13.04,7.05-8.28,4.89-14.72,11.37-16.67,21.22-.62,3.14-.93,6.39-.91,9.59.02,5.21-1.89,9.46-5.44,13.11-1.72,1.77-3.5,3.49-5.17,5.31-4.28,4.63-5.04,10.37-4.94,16.32.01.62.8,1.22,1.23,1.83.53-.54,1.27-.99,1.54-1.64.43-1.02.51-2.18.8-3.26,1.31-4.9,4.38-7.89,9.48-8.65,1.11-.16,2.23-.5,3.33-.43,3.64.22,7.29.49,10.91.92,3.27.39,3.9-.15,3.7-3.36-.11-1.78-.16-3.61.09-5.36.68-4.77,2.62-9.05,5.62-12.8.57-.72,1.83-.9,2.76-1.32.3,1.02,1.04,2.16.79,3.02-.46,1.6-1.39,3.11-2.32,4.53-1.31,2-3.04,3.75-4.14,5.84-.79,1.5-1.06,3.38-1.17,5.12-.14,2.38.06,4.78.18,7.16.03.59.17,1.5.56,1.7,2.54,1.36,5.1,2.74,7.77,3.78,2.02.79,3.76-.03,5.07-1.84,1.49-2.06,2.97-4.16,4.71-6,.84-.89,2.24-1.61,3.44-1.71,1.81-.15,3.68.3,5.54.5ZM458.52,275.38c.16-.04.32-.09.48-.13,0-4.32,0-8.64,0-12.96,0-12.26,1.15-24.38,5.01-36.09.62-1.88,1.7-3.64,2.75-5.35.31-.5,1.34-.94,1.87-.79.53.15,1.04,1.02,1.2,1.66.22.84.33,1.86.06,2.65-.84,2.46-1.59,5.01-2.9,7.23-2.78,4.72-3.58,9.67-3.26,15.08.29,4.9.12,9.86-.24,14.76-.33,4.54-1.06,9.07-1.83,13.56-.47,2.72-2.01,3.7-4.38,3.31.76,2.47,1.7,4.98-1.3,6.69,2.06,4.62,2.58,9.35,1.24,14.63,2.63.32,5.19.76,7.77.92,4.22.28,7.22-1.44,8.54-5.66.51-1.64,1.32-3.2,1.73-4.86,2.62-10.45,5.35-20.87,7.68-31.38,1.97-8.85,3.38-17.81,3.02-26.94-.41-10.4-7.81-18.98-18.05-20.88-3.16-.59-6.38-.81-9.58-1.19-2.8-.33-6.12,2.54-6.5,5.28-.68,4.95-.11,10.39-5.5,14.07,4.98,1.26,4.21,4.56,3.48,7.85-.03.15-.07.29-.11.44-1.04,4.39-1.05,8.78.29,13.09,2.1,6.79,4.26,13.56,6.47,20.31.53,1.61,1.34,3.12,2.03,4.68ZM407.33,166.93c3.75.17,7.57.08,11.32.56,8.87,1.13,15.48,5.32,18.09,14.42.33,1.15.81,2.25,1.26,3.36,3.15,7.83,7.87,14.62,14.04,20.34,1.26,1.17,3.46,2.56,4.74,2.18,2.2-.65,3.47-2.97,3.65-5.47.13-1.79.25-3.6.14-5.38-.63-9.78-1.16-19.58-2.06-29.34-.78-8.35-2.02-16.66-5.26-24.5-1.71-4.14-3.91-8.04-7.77-10.49-6.59-4.16-14.04-5.81-21.68-6.61-1.05-.11-2.2.66-3.76,1.18,3.42,3.59,4.14,7.38,3.42,11.36-.66,3.67-1.53,7.33-2.71,10.86-1.33,3.99-2.76,4.35-6.32,2.22-.29-.17-.59-.33-1.36-.76,1.55,3.52,3.06,6.5,4.17,9.63.55,1.56.38,3.38.53,5.08-1.94-.02-3.87-.03-5.81-.07-.2,0-.4-.19-.6-.3-2.29-1.3-3.46-.74-4.03,1.73ZM373.04,293.64c-5.21-2.56-8.33-7.06-11.38-11.57-3.31-4.89-6.47-9.89-9.6-14.9-2.85-4.56-5.53-9.23-8.39-13.79-.33-.52-1.33-.84-2.04-.88-5.23-.29-10.47-.52-15.7-.69-2.67-.09-5.35-.02-7.7-.02.13,6.6.34,13.32.37,20.04.01,3.27,2.52,5.1,3.91,7.58.1.18.53.27.8.25,4.92-.27,8.23,3.24,12.11,5.3,2.77,1.47,2.71,3.25.49,5.61-1.06,1.12-2.13,2.22-3.2,3.33.08.22.16.44.24.66,13.36-.31,26.73-.62,40.09-.93ZM315.04,250.16c-1.46-4.24-3.03-8.42-4.31-12.69-1.17-3.86-1.88-7.87-3.06-11.72-.98-3.19-4.39-5.29-7.65-5.2-1.14.03-1.7.4-1.87,1.67-.31,2.36-.63,4.78-1.4,7.02-1.14,3.3-3.16,5.92-6.92,6.7-.57.12-1.13.85-1.47,1.43-2.02,3.41-1.54,7.03-.88,10.7,1.38,7.66,2.68,15.34,3.93,23.03.17,1.05,0,2.23-.3,3.27-.35,1.22-1,2.35-1.59,3.65,5.49-.47,11.21-2.88,14.07-5.86-1.89-1.23-3.7-2.73-3.1-5.2.75-3.11,1.87-6.13,2.98-9.14.2-.54,1.07-.83,1.63-1.24.24.66.78,1.38.66,1.97-.35,1.83-.89,3.63-1.48,5.4-.59,1.78-.23,2.95,1.54,3.84,2,1.01,2.63,2.6,1.41,4.44-1.01,1.51-2.72,2.58-4.22,3.71-.6.45-1.48.54-2.2.78.9,3.96,1.74,7.71,2.64,11.68,1.94-.75,3.69-1.36,5.38-2.11,1.84-.82,3.71-1.64,5.42-2.69,3.34-2.04,4.49-7.85,2.31-11.12-4.1-6.18-8.23-12.33-12.27-18.54-1.79-2.74-1.23-3.69,2.07-3.76,3.05-.06,6.1-.01,8.67-.01ZM395.59,224.97c.32.83.73,1.62.92,2.47.53,2.39,1.16,4.78,1.39,7.21.2,2.21-.82,3.9-3.21,4.47-.72.17-1.38.6-2.48,1.1,1.53.64,2.57,1.03,3.57,1.5,1.4.65,2.13,1.75,1.59,3.27-2.02,5.75-4.1,11.47-6.21,17.32,4.54,1.83,8.8,5.22,13.94,6.43-.47-5.98-1.01-11.49-1.27-17.01-.1-2.13,1.44-3.32,3.26-3.17,1.86.16,3.02,1.56,2.47,3.73-1.28,5-2.31,9.91-2.26,15.19.03,2.78.69,4.38,2.61,5.67,2.03,1.37,4.21,2.61,6.47,3.55,3.95,1.64,7.55-.82,7.84-5.1.85-12.77-2.51-24.61-7.87-36.01-1.36-2.88-3.62-4.66-6.61-5.67-4.67-1.57-9.3-3.25-14.16-4.96ZM391.14,192.98c-.07,1.01-.28,1.78-.14,2.49.67,3.37,1.33,6.74,2.21,10.05.31,1.18.97,2.58,1.91,3.23,2.38,1.65,1.98,3.78,1.58,6.01-.14.79-.39,1.55-.58,2.3.24.14.36.25.5.28.29.06.59.13.89.12,3.3-.12,5.48,1.54,7.03,4.32.72,1.3,1.56,2.56,2.44,3.77,2.71,3.71,6.17,4.27,9.9,1.56,1.02-.74,1.95-1.63,2.86-2.52,1.35-1.33,2.71-1.38,4.2-.25,2.36,1.79,4.75,3.54,7.1,5.29,2.92-4.68,3.33-9.72,1.26-14.79-1.29-3.15-2.92-6.23-4.86-9.02-1.96-2.81-3.66-5.57-4.26-9.01-.22-1.23-1-2.51-1.88-3.43-.53-.55-1.9-.83-2.6-.54-.69.29-1.27,1.4-1.45,2.24-.24,1.14,0,2.38-.07,3.58-.12,2.36-1.53,3.27-3.62,2.16-1.37-.72-2.53-1.83-3.77-2.78-5.46-4.17-11.47-6.26-18.64-5.06ZM390.39,191.33c1.72-6.54,6.89-8.53,13.04-8.9,2.15-.13,4.35.04,6.48.34,13.92,1.94,25.32,12.39,27.27,25.5.7,4.69.2,9.55.32,14.33.06,2.56.29,5.11.46,7.99,3.12-2.37,3.83-5.25,4.47-8.42.9-4.43,2.33-8.77,3.81-13.06.5-1.44,2.01-2.9,3.68-2.12.98.46,1.37,2.19,2.01,3.36.12.23.12.52.23,1.07,1.13-.81,2.06-1.49,3.01-2.17-1.58-1.17-3.14-2.08-4.39-3.31-5.7-5.62-10.32-12.02-13.38-19.47-1.05-2.56-2-5.16-3.07-7.71-1.51-3.61-4.13-6.17-7.66-7.84-4.49-2.13-9.25-2.95-14.17-2.94-3.19,0-6.49-.11-8.67,2.97-.2.29-.57.5-.91.64-5.78,2.49-10.51,6.53-15.25,10.51-.72.6-1.23,2.35-.89,3.16.91,2.14,2.35,4.05,3.59,6.08ZM382.59,128.25c1.45-3.68,4.36-3.74,7.12-3.85,3.38-.13,6.43-.83,9.2-2.97,4.74-3.67,6.98-3.34,11.26.81,1,.97,2.79,1.94,3.97,1.7,1.81-.37.88-2.36.86-3.69-.03-2.36-.7-4.85,1.87-6.47.19-.12.26-.71.16-1-1.01-2.78-1.49-6.01-3.24-8.23-5.39-6.87-12.75-9.11-21.24-7.29-7.99,1.71-11.52,7.48-12.9,14.93-1.02,5.52-.6,10.86,2.94,16.08ZM390.45,271.45c-.11.27-.21.54-.32.81-.96-.13-1.95-.18-2.89-.42-1.88-.5-3.7-1.2-5.59-1.65-1.72-.41-2.9.39-2.84,2.19.12,3.92.99,7.59,4.41,10.1,4.09,2.99,8.5,5.25,13.5,6.38,2.84.64,5.59,1.65,8.4,2.39.62.16,1.48.09,2-.23,2.71-1.68,5.64-2.2,8.63-1.37,3.3.92,6.48,2.24,9.71,3.39.63.22,1.23.65,1.87.7,3.33.27,6.67.45,10.25.67.26-1,.61-2.2.89-3.42,1.19-5.22.81-5.84-4.42-7.11-8.36-2.03-16.71-4.09-25.09-6.05-2.5-.58-4.48-1.71-6.25-3.62-5.2-5.6-11.41-9.41-19.26-9.97-1.08-.08-2.17-.01-3.66-.01,3.9,2.64,7.28,4.92,10.66,7.21ZM512.85,297.35c.1-.31.2-.62.29-.92-1.28-1.32-2.58-2.61-3.84-3.95-3.42-3.64-7.43-6.91-10.11-11.04-6.89-10.61-11.09-22.33-12.38-35.01-.04-.35-.23-.69-.51-1.48-.14.79-.2,1.08-.24,1.37-2.17,15.61-5.54,30.95-10.47,45.91-2.67,8.12-3.59,10.41-15.31,8.89-.07,0-.15-.02-.22-.05-2.53-1.04-4.85-.15-7.18.88,5.4.18,10.8.31,16.19.14,3.3-.11,5.79-1.82,7.27-4.87,1.57-3.24,4.29-4.32,7.64-3.69,3.23.6,6.38,1.64,9.6,2.25,4.76.91,9.53,1.75,14.34,2.34,1.59.19,3.28-.5,4.92-.78ZM351.5,171.96c-.63-.76-1.14-1.6-1.84-2.19-3.29-2.79-5.01-6.45-6.02-10.53-.38-1.52-.9-3.01-1.25-4.54-2.41-10.53-16.39-12.51-22.72-8.19-.94.64-1.59,1.14-1.09,2.5.3.83.24,2.01-.13,2.81-.34.73-1.31,1.16-2.01,1.73-.36-.75-1.06-1.53-1.01-2.26.09-1.28.64-2.53,1.04-3.92-1.94-.49-3.14.63-4.17,1.92-2.81,3.51-3.17,7.58-2.82,11.9.3,3.64.23,7.31.35,10.96.02.48.01,1.13.3,1.41,2.56,2.43,5.19,4.8,7.73,7.12.47-3,1.03-6.27,1.48-9.55.42-3.11,1.8-4.51,4.66-4.78,2.28-.21,4.54-.64,6.82-.91,2.15-.26,4.31-.64,6.46-.63,5.52.02,8,2.15,9.16,7.56.07.34.24.66.27.75,1.57-.38,3-.71,4.81-1.15ZM381.11,179.98c.23.06.46.12.69.18,1.19-1.39,2.53-2.67,3.54-4.18,4.45-6.67,10.66-10.3,18.57-11.16.74-.08,1.49-.22,2.19-.44.38-.12.92-.42.99-.73.74-3.32,1.67-6.66.21-10.24-1.17.77-2.12,1.49-3.16,2.06-.61.33-1.34.42-2.02.62-.05-.76-.3-1.58-.12-2.28.39-1.47,1-2.88,1.39-3.93-5.34-4.2-11.44-7.07-15.38-12.74-8,1.84-9.87,4.08-9.44,12.16.49,9.11,1.18,18.21,1.83,27.3.08,1.14.46,2.25.7,3.37ZM288.28,234.8c.49-1.37.95-2.61,1.4-3.87,1.47-4.12,3.05-8.15,7.05-10.62.43-.26.66-1.14.68-1.74.19-5.76.39-11.52.41-17.28,0-1.28-.67-2.57-1.12-4.15-1.35.9-2.23,1.46-3.08,2.05-3.33,2.3-6.65,2.39-10.02.05-1.35-.94-2.68-1.97-4.16-2.65-.99-.45-2.69-.88-3.25-.39-.72.64-1.04,2.31-.8,3.36.66,2.83,1.65,5.59,2.63,8.33.6,1.68.42,2.89-1.35,3.64-1.74.74-2.17,2-1.61,3.83.37,1.19.6,2.54.4,3.74-.12.71-1.12,1.6-1.87,1.76-.47.1-1.49-.87-1.75-1.56-.41-1.09-.13-2.47-.61-3.51-.72-1.55-1.59-3.23-2.86-4.29-1.92-1.59-3.52-.81-3.95,1.69-.14.81-.12,1.89.31,2.53,5.83,8.71,13.99,14.58,23.55,19.06ZM378.33,228.86c9.21.04,12.17-2.52,13.33-10.88.16-1.19.3-2.38.54-3.55.24-1.17.49-2.35.92-3.46.7-1.77.16-4.28-1.36-5.39-2.35-1.72-4.66-3.51-7.11-5.06-1.75-1.1-3.63-2.16-5.6-2.71-4.06-1.12-10.78,3.37-11.09,7.31-.5,6.29.5,12.38,2.72,18.27,1.45,3.83,4.27,5.62,7.66,5.46ZM375.45,261.16c-.18.15-.36.3-.54.46-.37-1.66-.98-3.31-1.06-4.98-.19-3.88-.08-7.78-.16-11.66-.09-4.33-.2-8.67-.42-12.99-.05-.97-.55-1.92-.93-3.14-.98.58-1.58,1.02-2.24,1.32-2.76,1.26-5.52,2.54-8.33,3.69-1.31.53-2.76.69-4.08,1.19-.61.24-1.37.81-1.54,1.39-1.56,5.19-2.15,10.27.41,15.49,2.3,4.68,4.02,9.64,5.93,14.51,1.74,4.44,4.92,7.8,8.23,11.03.56.54,2.07.33,3.05.09.32-.08.51-1.36.47-2.08-.1-1.79-.43-3.56-.51-5.35-.02-.48.39-1.28.78-1.4.4-.13,1.14.26,1.49.64.62.67,1.06,1.52,1.68,2.45.36-.87.66-1.58.71-1.68-6.24-5.92-12.21-11.57-18.14-17.25-.64-.61-1.23-1.38-1.53-2.19-.28-.75-.14-1.65-.19-2.49.83.07,1.88-.15,2.45.28,1.79,1.33,3.42,2.89,5.09,4.37,3.13,2.77,6.25,5.55,9.38,8.32ZM432.51,238.72c1.2-1.93,2.59-4.06,3.88-6.25.38-.64.67-1.46.66-2.18-.07-4.33-.2-8.66-.41-12.99-.17-3.58.05-7.28-.82-10.7-3.22-12.78-12.28-19.53-24.55-22.54-4.42-1.08-8.92-1.1-13.29.44-3.39,1.19-5.67,3.45-6.53,7.17.46.05.75.12,1.03.1,7.47-.73,13.81,1.77,19.36,6.65.67.59,1.42,1.11,2.2,1.53,1.26.67,2.04.23,2.11-1.2.06-1.27-.26-2.63.09-3.79.35-1.16,1.15-2.73,2.1-3.03,1.1-.36,3,.06,3.8.88,1.11,1.14,1.54,2.96,2.24,4.5,1.01,2.21,1.91,4.48,3.04,6.63.69,1.31,1.82,2.38,2.6,3.65,4.49,7.38,6.43,14.95,1.78,23.09-.84,1.47-1.32,3.18-1.72,4.84-.63,2.64.23,5.97,1.83,7.65-.28-2.21-.54-4.32-.81-6.43l.74-.11c.28.88.55,1.75.66,2.09ZM263.2,212.24c2.38-3,4.16-3.2,6.77-.97,1.79,1.53,2.31,3.57,2.53,5.8.1,1.01.43,2,.75,3.37,2.12-1.84,1.1-3.48.79-4.95-.41-1.95-.34-3.67,1.69-4.57,1.74-.77,1.7-1.8,1.13-3.38-.99-2.73-1.95-5.51-2.49-8.36-.23-1.19.24-3.19,1.08-3.73,1-.63,2.86-.39,4.14.07,1.58.57,2.98,1.69,4.37,2.71,3.15,2.3,6.22,2.19,9.31-.07.84-.61,1.72-1.17,2.45-1.66-.68-4.86-3.54-7.52-8.17-8.29-6.43-1.06-12.53-.01-18.19,3.21-2.68,1.53-4.63,3.79-5.61,6.77-1.5,4.57-1.22,9.21-.55,14.04ZM330.49,168.06c-.01-.14-.03-.28-.04-.43-1.46.12-3.14-.19-4.35.42-6.37,3.24-7.2,6.63-3.27,12.3.87,1.25,2.09,2.47,3.43,3.15,2.98,1.51,6.06,2.93,9.25,3.89,3.53,1.07,5.99-.17,7.5-3.56.99-2.23,1.9-4.66,2.09-7.05.2-2.54-.2-5.23-.95-7.68-.29-.96-2.16-1.63-3.44-2.03-.93-.29-2.06.04-3.1.15-2.37.26-4.74.55-7.11.82ZM278.57,236.59c4.05,13.15,1.97,25.69-1.76,37.8,1.71-.13,3.22-.3,4.73-.33,1.36-.02,2.74.29,4.08.15,1.65-.17,3.27-.65,5.02-1.02-.12-1.09-.17-2.14-.34-3.16-1.33-7.82-2.67-15.63-4.05-23.44-.58-3.26-.52-6.4,1.07-9.39.23-.42.3-.93.36-1.11-4.38-2.74-8.8-5.04-12.66-8.06-3.82-2.98-7.06-6.68-10.57-10.07,1.26,3.88,3.69,7,6.84,9.6,2.3,1.9,4.7,3.7,7.06,5.52.26.2.7.42.94.33,2.77-1.05,3.63,1.35,4.95,2.78.35.37.39,1.26.21,1.8-.08.24-1.1.38-1.59.23-1.28-.38-2.51-.94-4.28-1.62ZM395.53,218.48c-3.31,5.68-5.94,11.74-7.5,18.26-1.4,5.81-2.95,11.59-4.44,17.38-1.38,5.38-1.26,5.44,4.1,6.65,2.3.52,3.31-.3,3.98-2.34,1.18-3.62,2.45-7.22,3.75-10.8,1.47-4.07,2.14-4.37-2.47-5.97-.21-.07-.41-.17-.61-.29-1.28-.75-1.29-1.56-.04-2.33.5-.31,1.06-.62,1.63-.73,2.65-.52,3.25-2.4,3.06-4.69-.12-1.4-.42-2.81-.81-4.16-.4-1.43-1.04-2.8-1.5-4.22-.49-1.51.17-2,1.58-1.54.71.23,1.34.65,2.03.94,2.98,1.22,5.97,2.43,9.5,3.86-1.42-2.09-2.57-3.48-3.39-5.06-1.88-3.63-4.6-5.59-8.86-4.95ZM298.81,219.49c6.78.42,8.98,2.2,10.74,8.85.63,2.39,1.17,4.8,1.7,7.22,1.02,4.7,2.36,9.28,4.93,13.42.81,1.3,1.75,1.89,2.81,1.57-.94-1.2-2.43-2.33-2.85-3.77-.93-3.14-1.52-6.42-1.89-9.68-.5-4.52,1.48-7.53,5.85-8.88,2.41-.75,4.99-.92,7.47-1.46,3.71-.81,7.48-1.49,11.06-2.69,1.35-.46,2.26-2.23,3.37-3.4-1.63-.18-3.41-.88-4.85-.44-4.14,1.27-8.13,3-12.19,4.54-1.95.74-3.86,1.7-5.88,2.17-4.94,1.15-10.99-1.81-11.94-6.01-.91-4-1.47-8.07.16-12.15.82-2.05,1.04-4.34,1.63-6.96-1.2.75-1.79,1.12-2.64,1.64.63-3.5,1.4-6.64,1.72-9.83.28-2.82-1.62-7.76-3.04-8.88.17.95.37,1.82.48,2.7.32,2.59.94,5.2.84,7.78-.17,4.31-3.8,7.35-7.47,6.34v17.93ZM430.23,231.67c-1.85-1.08-3.6-2.08-5.32-3.12-1.62-.98-2.42-.41-2.39,1.35.04,2.54.11,5.09.35,7.62.86,9.09,1.82,18.17,2.7,27.27.22,2.28.3,4.58.4,6.23,3.56,1.22,6.67,2.29,9.92,3.4-.53-2.25-1.27-4.38-1.52-6.57-.71-6.32-1.2-12.66-1.83-18.99-.1-1.01-.31-2.1-.81-2.96-2.65-4.56-3.99-9.22-1.5-14.23ZM381.95,260.26c-.28-6.22,2.26-11.54,3.5-17.1,1.26-5.64,2.98-11.17,4.45-16.56-4.81,3.67-10.37,3.81-16.01,2.53.27,2.23.71,4.37.75,6.51.09,4.64-.11,9.28-.03,13.92.06,3.13.18,6.3.7,9.38.52,3.12,1.46,3.43,4.33,2.22.82-.35,1.66-.65,2.31-.91ZM437.65,232.91c-2.49,1.97-3.72,4.22-3.61,7,.13,3.27.26,6.57.82,9.78.66,3.75,1.63,7.46,2.73,11.11,2.77,9.24,8.67,16.27,16.15,22.07.62.48,1.6.49,2.42.72.25-.95.95-2.07.67-2.83-.76-2.06-1.56-4.32-3.01-5.87-3.91-4.15-7.23-8.63-9.02-14.04-1.59-4.82-2.86-9.75-4.12-14.67-1.1-4.32-1.99-8.69-3.03-13.26ZM438.14,284.01c-1.21-3.13-.88-3.59,2.34-3.59.75,0,1.5.04,2.24.1,2.24.2,4.47.42,7.41.69-9.31-8.14-14.13-18.01-16-29.49-.27.55-.32.99-.26,1.42.94,6.73,1.91,13.45,2.85,20.18.1.7,0,1.42,0,2.13-.76-.06-1.59.03-2.28-.23-1.6-.61-3.1-1.51-4.72-2.06-1.03-.35-2.21-.3-3.43-.45.04,2.48,1.19,3.12,3.04,3.17,2.25.06,4.58.07,5.92,2.4.91,1.59.45,2.43-1.34,2.42-1.27,0-2.55,0-3.81-.16-1.54-.18-3.35-.11-4.52-.92-1.05-.72-1.38-2.48-1.78-3.28-1.66.64-3.57,2.13-5.18,1.85-4.95-.85-9.34-3.08-12.27-7.49-.3-.44-.76-.87-1.25-1.07-2.87-1.21-5.8-2.3-8.66-3.55-3.29-1.43-6.43-3.26-9.83-4.34-1.83-.58-4.07-.09-6.09.18-1.52.2-2.98.81-4.39,1.21,3.17,3.59,5.39,4.97,7.87,4.66-1.33-.6-2.54-1.01-3.6-1.68-.61-.39-.97-1.18-1.45-1.79.73-.4,1.42-1.06,2.19-1.15,1.17-.14,2.38.08,3.57.19,7.93.75,13.92,5.02,19.27,10.54.9.93,2.02,1.96,3.21,2.27,10.25,2.68,20.55,5.2,30.95,7.81ZM267.32,279.94c.12-.09-.28.12-.59.42-4.61,4.4-6.97,10.16-9.54,15.8-.21.46-.27,1.03-.27,1.54.02,1.96-.1,4,2.33,4.8,2.78.92,5.92.17,6.94-2.03,1.2-2.6,2.99-3.5,5.72-3.16,1.46.18,2.78-.11,3.57-1.69.72-1.42,1.68-2.72,2.42-3.88-.69-2.71-1.46-5.44-2.07-8.2-.83-3.76-1.31-4.13-5.31-3.53-.86,2.69-1.6,5.43-2.62,8.07-.78,2.01-1.86,3.91-2.95,5.77-.26.44-1.08.55-1.65.82-.22-.52-.62-1.04-.64-1.57-.03-.88,0-1.85.31-2.65,1.43-3.64,2.96-7.23,4.32-10.51ZM457.87,277.6c.13-.18.25-.35.38-.53-4.6-9.69-7.95-19.84-9.86-30.37-.65-3.61.38-7.53.76-11.3.21-2.08.55-3.99-1.97-5.07-2.06-.89-2.13-1.57-.37-3,4.24-3.43,3.14-8.35,3.83-12.83-2.89,3.97-5.39,8.11-7.87,12.26-.18.3-.23.73-.22,1.09.15,5.67-.24,11.42.61,16.98,1.64,10.81,6.76,20.37,12.2,29.7.66,1.13,1.66,2.06,2.5,3.08ZM455.85,299.1c2.01-3.43,1.13-11.63-1.5-14.32-.46-.47-1.02-.91-1.61-1.2-4.51-2.15-9.31-2.11-14.72-2.06,3.34,4.49,3.68,8.96,2.01,13.71,4.59,1.14,8.94,2.22,13.28,3.3.86.21,1.72.39,2.55.58ZM275.83,278.01c-.08.25-.16.51-.23.76.86.48,1.68,1.04,2.58,1.43,3.24,1.38,3.77,2.22,3.28,5.61-.3,2.11-.69,4.2-1.06,6.46.79.14,1.59.44,2.38.41,4.6-.23,9.21-.53,13.81-.83,1.54-.1,1.89-1.12,1.47-2.37-1.29-3.84-2.67-7.65-3.91-11.18-2.25.35-4.04.64-6.23.98.7-1.84,1.13-2.95,1.56-4.06l-.55-.5c-.94.55-1.89,1.1-2.27,1.33,0,1.61.43,3.08-.09,3.58-1.09,1.06-2.66,1.16-4.22-.1.65-.93,1.27-1.81,2.14-3.06-3.41-.87-5.71,2.16-8.66,1.56ZM384.93,185.82c-8.91-1.67-14.54,4.86-16.02,15.15,7.58-5.81,10.52-5.81,18.15-.02,1.3.99,2.59,1.98,3.96,3.04-.44-3.13-.83-6.07-1.26-9-.17-1.15-.66-1.85-1.93-2.38-1.06-.44-1.99-1.72-2.47-2.85-.47-1.1-.3-2.48-.44-3.95ZM377.56,275.39c-.75,1-1.55,2.36-2.65,3.41-.58.56-1.72.9-2.54.79-4.34-.54-7.25-3.03-8.63-7.14-1.67-4.95-5.81-7.95-8.87-11.81-.06.27-.03.49.08.65,6.75,10.24,13.51,20.47,20.28,30.69.23.35.55.8.92.9,3.59.95,7.13.57,11.31-.22-1.18-1.26-1.88-2.1-2.66-2.84-1.19-1.13-2.55-2.1-3.64-3.32-.52-.59-.88-1.64-.74-2.37.08-.43,1.29-.65,1.44-.72-1.38-2.59-2.85-5.34-4.28-8.02ZM423.6,295.27c-7.96-4.22-10.4-4.13-17.93.52-.94.58-2.09.85-2.99,1.48-.76.53-1.68,1.27-1.88,2.08-1.55,6.31,4.39,11.64,10.81,9.82,1.42-.4,1.43-1.15.64-2.1-1-1.2-2.15-2.29-3.12-3.52-1.48-1.89-2.12-4.07-.88-6.24.44-.77,1.77-1.03,2.7-1.52.24.83.52,1.65.71,2.5.07.34-.19.78-.08,1.1.3.95.52,2.08,1.17,2.71.3.29,1.69-.23,2.36-.69,2.82-1.95,5.56-4.01,8.49-6.15ZM262.35,198.6c5.37-10.98,18.31-14.85,31-9.28.1-3.88-.11-4.32-3.59-5.57-5.14-1.84-10.47-2.56-15.89-1.91-8.16.97-13.33,8.6-11.52,16.76ZM345.24,252.36c-.15.27-.3.54-.45.82.27.6.47,1.24.83,1.79,6.44,9.99,12.81,20.02,19.4,29.91,1.46,2.19,3.62,3.95,5.61,5.75.84.76,2.05,1.11,3.09,1.65-8.07-13.02-16.39-25.61-24.87-38.1-.66-.97-2.38-1.22-3.61-1.81ZM309.54,174.05c-1.61,5.44-3.69,9.95-1.09,15.17,1.29,2.59,1.14,5.9,1.5,8.08,2.11-1.83,4.73-3.83,6.98-6.18.92-.96,1.45-2.69,1.44-4.07-.03-6.09-4.8-8.99-8.83-12.99ZM340.68,188.73c-9.52-.28-17.08-3.06-21.21-12.23-.85,3.9-.78,7.26,1.89,10.2,2.55,2.8,4.85,5.83,7.47,8.57,1.29,1.35,3.16,1.59,4.69.24,2.44-2.15,4.73-4.46,7.16-6.78ZM317.1,271.47l.77-.17c-.31-6.14-.57-12.28-.99-18.41-.04-.54-1.09-1.38-1.74-1.44-2.75-.24-5.52-.28-8.28-.31-.82,0-1.64.25-2.93.46,4.57,6.9,8.87,13.39,13.17,19.87ZM297.77,197.23c1.14,1.51,1.77,2.98,2.86,3.55.54.28,2.11-.94,2.92-1.76,1.86-1.92,2.17-4.36,1.74-6.91-.48-2.87-1-5.74-1.57-8.6-.4-2-3.1-3.44-5.53-3.01-2.33.41-4.07,2.67-3.72,4.85.59,3.64,3.05,6.13,6.79,7.04.78.19,1.45.8,2.18,1.21-.63.95-1.08,2.11-1.93,2.78-.68.54-1.84.47-3.74.86ZM460.52,275.29c1.11-8.87,3.49-17.64,2.42-26.68-.79-6.72.11-12.93,3.83-18.71,1.06-1.65,1.63-3.68,2.14-5.61.26-1.01-.11-2.18-.2-3.28-3.04,2.28-3.83,5.41-4.69,8.46-4.24,15.02-4.39,30.38-3.48,45.82ZM421.06,129.21c-.38.02-.75.04-1.13.06-.04,5.72-2.49,10.38-5.96,14.65-3.02,3.72-2.82,4.48,1.28,6.98.13.08.25.16.38.24,2.09,1.17,3.12,1.06,3.77-1.23,1.31-4.65,2.5-9.38,3.14-14.15.28-2.08-.94-4.36-1.48-6.54ZM423.12,249.37c-.51-4.96-1.07-9.93-1.51-14.9-.16-1.77-.2-3.59,0-5.36.25-2.13,1.38-2.66,3.32-1.7,1.36.68,2.63,1.54,3.94,2.32-1.66-1.73-3.6-3.03-5.43-4.47-1.16-.91-2-.78-3.13.14-2.22,1.79-4.6,3.39-6.79,4.98,5.53,4.73,6.46,12.39,9.59,18.98ZM354.89,236.85c-3.79,4.07-5.37,13.42-2.7,17.87,2.37,3.96,5.54,7.44,8.35,11.13.27-.16.54-.33.81-.49-1.82-4.22-3.49-8.5-5.49-12.63-2.02-4.15-2.69-8.34-1.61-12.82.21-.86.36-1.73.63-3.05ZM330.74,293.07c1.49-1.06,3.01-1.93,4.26-3.09,2.11-1.97,1.98-2.88-.52-4.46-2.27-1.43-4.59-2.82-6.99-4.01-1.16-.57-2.57-.65-4.46-1.09,2.99,4.91,5.58,9.15,7.71,12.65ZM241.74,282.96c-4.49-1.64-9.04-2.5-13.63-1.28-2.88.76-5.28,2.49-6.76,5.19-1.1,2.01-.23,3.44,1.98,2.91,1.71-.41,3.48-1.39,4.75-2.61,2.81-2.71,6.1-3.96,9.87-4.2,1.26-.08,2.53-.01,3.79-.01ZM404.85,292.21c-6.78-2.56-14.09-2.79-19.86-7.26,1.57,2.06,3.26,3.92,4.77,5.93,3.84,5.12,9.98,5.8,15.09,1.33ZM382.38,181.14c3.35.77,3.37.78,4.8-2.17,1.7-3.5,4.32-6.17,7.81-7.76,2.98-1.35,6.19-2.17,9.25-3.36.88-.34,1.57-1.16,2.35-1.76-8.47.08-15.3,2.96-20,9.96-1.23,1.83-2.81,3.42-4.21,5.09ZM324.59,250.36c0,.13,0,.26,0,.39,6.18.25,12.36.5,18.42.75.35-3.01.69-5.68.96-8.36.27-2.65.46-5.3.69-7.95-.71.76-.93,1.6-1.1,2.44-.45,2.2-.82,4.42-1.35,6.59-.93,3.83-1.76,4.5-5.61,4.89-4,.41-7.99.82-11.99,1.24ZM367.03,202.75c.87-2.81,1.58-5.69,2.64-8.42,2.78-7.18,6.67-9.75,14.33-9.91.63-.01,1.25-.69,1.88-1.06-5.44-1.92-9.79-.86-13.57,3.06-4.46,4.63-4.55,10.56-5.28,16.33ZM441.48,228.92c-2.47,1.73-3.41,3.5-2.36,6.22.77,2,1.08,4.19,1.51,6.31,1.6,7.76,3.14,15.54,6.71,22.7,1.16,2.33,2.68,4.48,4.04,6.72.19-.1.38-.19.57-.29-7.1-12.9-12.09-26.33-10.47-41.67ZM443.08,223.57c2.74-3.91,5.44-7.37,7.63-11.13.58-.99.11-3.45-.77-4.24-1.31-1.17-2.38.58-3,1.67-2.36,4.15-2.92,8.81-3.86,13.69ZM359.21,248.34c.93,4.22,17.59,19.86,20.99,19.93-7.64-5.95-12.87-13.99-20.99-19.93ZM412.49,151.94c-.29.03-.57.06-.86.09v12.14c.65.21,1.86.75,3.12.97,2.34.41,3.05-.33,2.21-2.52-1.38-3.6-2.97-7.12-4.48-10.68ZM289.65,234.85c4.76-1.26,7.91-7.02,7.35-13.18-3.27,1.76-6.05,6.7-7.35,13.18ZM400.42,296.66c0-.24,0-.47.01-.71-.74,0-1.49-.07-2.21.01-4.23.48-7.25-1.18-9.58-4.76-1.4-2.15-3.44-3.88-5.27-5.74-.49-.5-1.23-.74-1.85-1.11-.16.23-.32.46-.49.7,1.63,1.46,3.36,2.83,4.86,4.41.87.91,1.36,2.17,2.03,3.28-1.16.48-2.32.97-3.49,1.45-.24.1-.51.13-1.38.33,6.09,1.9,11.64,2.89,17.38,2.14ZM331,295.4c-2.77-4.52-5.39-8.9-8.15-13.2-.4-.62-1.52-1.24-2.15-1.11-.56.12-.91,1.28-1.04,1.48,1.34.9,2.62,1.31,3.02,2.14,1.03,2.12,1.67,4.44,2.45,6.68,1.1,3.13,2.68,4.23,5.86,4.02ZM405.9,266.6c.3.02.61.03.91.05-1.34-4.89.39-9.32,1.69-13.82.39-1.36.51-2.88-1.37-3.15-1.94-.28-2.48,1.24-2.39,2.74.3,4.74.76,9.46,1.15,14.19ZM387.74,180.18c5.42-3.64,10.85-7.28,16.29-10.93-6.95,1.53-13.24,3.98-16.29,10.93ZM454.26,300.45c.03-.21.07-.42.1-.63-4.79-1.17-9.59-2.33-14.42-3.51-.42.92-.75,1.63-1.15,2.51,5.21,1.48,10.26,2.3,15.46,1.63ZM410.36,161.77l.41-.04v-15c-1.45.99-2.61,1.79-3.25,2.23.98,4.43,1.91,8.62,2.84,12.81ZM304.97,258.2c-.24-.08-.48-.16-.72-.25-.83,2.42-1.78,4.81-2.46,7.28-.88,3.17-.58,3.9,2.2,5.81,1.28.88,1.13,1.6.08,2.42-.63.49-1.32.92-1.98,1.37.21.23.42.45.63.68,1.24-1.25,2.64-2.39,3.68-3.8.8-1.09.41-2.2-.88-2.99-2.75-1.7-2.96-2.36-2.05-5.49.49-1.68,1.01-3.35,1.52-5.03ZM278.72,291.05c.25-.05.5-.1.75-.15.09-.19.24-.37.28-.57.23-1.4.44-2.8.65-4.2.54-3.54-.15-4.47-4.18-5.22.86,3.48,1.68,6.81,2.5,10.14ZM306.5,288.55c0,.11.02.21.02.32,3.79-1.28,7.58-2.53,11.34-3.89.38-.14.78-.97.72-1.43-.28-2.09.47-3.44,2.71-3.95-.86-1.32-1.6-2.45-2.72-4.15-.16,3.86-.29,7.11-3.49,8.85-2.8,1.53-5.72,2.84-8.58,4.24ZM253.35,257.52c-3.68,3.57-5.35,7.88-6.51,12.45,2-2.41,3.93-4.84,5.74-7.36,1-1.39,1.84-2.91.77-5.09ZM297.52,277.15c.65,1.95,1.41,3.77,1.83,5.67.3,1.36.1,2.83.19,4.24.12,1.83,1.07,2.22,2.87,1.43-.89-3.92-1.75-7.74-2.65-11.68-1.04.16-1.81.27-2.25.34ZM425.29,274.71c-.35,3.49-.07,4.3,1.89,4.57,2.4.33,4.84.35,7.53.52-.84-2.45-2.58-2.7-4.4-2.84-1.9-.15-3.99.14-5.02-2.25ZM321.55,284.22l-.66.23c-1.41,4.65.56,9.01,4.59,10.32-1.3-3.49-2.62-7.02-3.93-10.55ZM263.57,293.15c.33.11.66.22.99.34,1.6-4.14,3.21-8.28,4.81-12.42-.27-.11-.53-.21-.8-.32-2.71,3.71-4.5,7.79-5.01,12.4ZM305.82,183.38c.89-3.31,1.68-6.21,2.48-9.18-2.04-.33-3.09.58-3.45,2.1-.55,2.33-1.2,4.76.97,7.09ZM391.83,222.51c2.32-3.53,4.46-7.09,2.83-11.46-.23-.05-.46-.09-.69-.14-.71,3.87-1.43,7.73-2.14,11.6ZM407.19,293.33c6.01-3.64,11.71-2.16,17.33.9-5.44-3.66-14.55-5.84-17.33-.9ZM294.99,188.52l-.52.48c.25.73.39,1.53.77,2.19.66,1.15,1.65,2.14,2.17,3.35.53,1.23,1.26,1.47,2.43,1.26,1.22-.21,2.32-.48,2.39-2.18-3.1-.65-6.42-.95-7.24-5.09ZM351.37,178.26l.8-.14c-.23-1.54.07-3.66-.82-4.48-1.18-1.09-3.03-.39-4.12,1.15,1.45,1.22,2.8,2.34,4.15,3.47ZM246.45,280.5c-2.09,0-4.03.1-5.96-.03-1.7-.11-3.38-.56-5.08-.69-1.62-.12-3.25-.03-4.88-.03.03-.05.06-.1.09-.15,5.14.95,10.28,1.9,15.62,2.88.05-.46.14-1.38.2-1.98ZM419.18,127.42c-1.79,5.13-3.46,9.92-5.06,14.53,3.54-3.95,4.81-8.88,5.06-14.53ZM352.31,199.03c-.27-.04-.55-.08-.82-.13-.3,3.69-.6,7.38-.9,11.07,1.36-3.55,3.04-7.06,1.72-10.94ZM430.37,296.81c3.57,3.76,8.16,4.33,13.09,4.52-4.47-1.54-8.75-3.02-13.09-4.52ZM266.61,224.86c2.92,4.53,6.95,7.34,11.17,9.93.13-.15.26-.3.4-.45-3.78-3.1-7.56-6.2-11.57-9.48ZM429.99,294.54c-.06.21-.12.41-.18.62,2.34,1.01,4.68,2.02,7.26,3.12v-2.59c-2.41-.39-4.75-.77-7.08-1.15ZM407.18,152.21c-.54-.94-1.03-1.8-1.93-3.36-1.06,2.33-1.83,4.03-2.6,5.73.16.1.33.2.49.3,1.28-.85,2.57-1.7,4.04-2.67ZM298.11,285.22c.42-4.69-.62-6.83-3.16-6.85,1.08,2.34,2.12,4.59,3.16,6.85ZM375.44,276.27c1.94-2.27,1.63-4.66-.93-6.44.33,2.26.62,4.27.93,6.44ZM389.03,191.46c-.76-1.62-1.53-3.25-2.29-4.87-.8,3.48-.4,4.32,2.29,4.87ZM279.18,235.56c1.41.63,2.76,1.23,4.51,2.01-1.9-3.45-3.12-3.98-4.51-2.01ZM331.05,166.28c.04.26.07.51.11.77,2.15-.25,4.3-.5,6.45-.74-.03-.24-.06-.49-.09-.73-2.15.24-4.31.47-6.46.71ZM257.33,292.35c-1.38,2.06-3.15,4.01-1.8,6.9.63-2.42,1.21-4.66,1.8-6.9ZM387.66,131.06c-.2.03-.4.07-.6.1.59,1.43,1.18,2.86,1.97,4.77,1.77-2.82-.62-3.54-1.37-4.87ZM281.29,275.47c-.12-.3-.23-.6-.35-.91l-4.51,1.77c.11.3.23.59.34.89,1.51-.58,3.01-1.17,4.52-1.75Z"/>
  </g>
</svg>