<?xml version="1.0" encoding="UTF-8"?>
<svg id="Layer_1" data-name="Layer 1" xmlns="http://www.w3.org/2000/svg" viewBox="0 0 982.98 403.14">
  <defs>
    <style>
      .cls-1 {
        fill: #202151;
      }

      .cls-1, .cls-2 {
        stroke-width: 0px;
      }

      .cls-2 {
        fill: #fff;
      }
    </style>
  </defs>
  <polygon class="cls-1" points="472.66 193.67 483.78 194.48 487.22 196.71 487.95 245.89 484.61 249.4 475.72 253.94 470.96 254.4 466.12 254.4 459.53 251.25 453.64 240.85 452.65 227.3 453.64 196.84 455.5 194.79 472.66 193.67"/>
  <g id="LHSudz.tif">
    <path class="cls-2" d="M1061.51,275.21c140.97-2.34,154.81,2.11,181.71-4.34s94.36-44.9,96.75-46.76c16.01-12.45,51.36-21.23,69.06-17.27,13.09,2.93,25.36,9.39,38.27,13.36,10.21,3.15,20.82,5.12,31.33,7.15,2.7.52,5.74-.68,8.33-1.05.37-.96.64-1.35.65-1.74.51-21.33,1.08-18.66-18.02-18.75-4.46-.02-8.94.19-13.39-.08-5.56-.34-8.39-3.54-8.41-9.14-.01-5.66,2.87-8.77,8.49-8.91,7.22-.18,14.45-.08,21.68-.08,4.83,0,8.55-1.37,8.33-7.11-.2-5.37-3.86-6.41-8.38-6.36-7.01.07-14.03.13-21.04-.03-6.1-.14-8.91-3.11-9.02-9.06-.11-6.2,2.86-9.72,8.96-9.91,7.22-.23,14.45-.18,21.68-.01,4.83.11,8.73-.97,8.83-6.58.11-5.98-4.02-7.21-9.06-7.16-6.8.07-13.6.12-20.4-.02-6.1-.13-9.78-3.54-9.68-8.59.11-4.96,3.98-8.28,9.98-8.35,7.23-.08,14.45-.12,21.68,0,5.64.1,8.14-2.46,8.06-8.08-.07-5.43-2.7-7.56-7.96-7.44-7.01.16-14.03.12-21.04,0-6.68-.12-10.12-3.24-10.1-8.84.03-5.51,3.54-8.54,10.27-8.62,7.01-.09,14.03-.09,21.04,0,5.08.07,7.41-2.39,7.39-7.35-.03-5.09-.12-10.18.04-15.27.19-5.82,3.3-8.97,9.12-9.19,4.88-.18,9.78-.16,14.66-.02,5.71.17,8.1-2.59,8.02-8.11-.1-7.21-.09-14.42,0-21.63.08-6.41,3.14-9.59,9.12-9.75,6.3-.17,9.86,3.13,9.99,9.63.15,7.42.08,14.85.02,22.27-.03,4.12,1.26,7.35,5.86,7.46,4.66.1,6.03-3.14,6.03-7.25-.01-7.21-.09-14.42.03-21.63.12-7.37,3.52-10.65,10.51-10.48,6.46.16,9.43,3.48,9.48,10.78.05,7.21.05,14.42,0,21.63-.02,4.2,1.49,7.05,6.13,7.19,4.95.15,6.73-2.7,6.7-7.24-.04-7.42-.08-14.85.01-22.27.08-6.43,3.34-10,8.91-10.08,5.81-.08,8.94,3.23,9.02,9.81.1,7.21.1,14.42,0,21.63-.07,5.09,1.32,9.06,7.25,8.98,5.57-.08,6.87-3.79,6.74-8.69-.18-6.99-.09-14-.03-21,.07-7.25,3.27-10.79,9.57-10.73,6.18.06,9.27,3.65,9.34,11.01.06,7,.19,14-.04,21-.2,6.09,2.77,8.46,8.5,8.35,4.04-.07,8.08-.06,12.11,0,7.96.14,10.28,2.42,10.4,10.21.06,4.45-.08,8.91.06,13.36.15,4.77,2.44,7.44,7.56,7.34,6.8-.14,13.6-.15,20.4-.07,8.16.09,11.6,2.95,11.58,9.35-.02,6.6-3.83,9.71-12.07,9.67-6.37-.03-12.75-.2-19.12-.31-4.42-.07-7.5,1.44-7.57,6.45-.07,5.31,3,6.92,7.8,6.81,7.43-.16,14.87-.17,22.31-.2,4.79-.02,9.66-.37,9.76,6.74.11,7.99-2.56,11.79-9.67,12.02-8.07.25-16.15-.02-24.23.13-5.58.11-7.86,2.84-7.17,7.98.58,4.3,3.44,5.46,7.24,5.46,7.65,0,15.3-.08,22.95.05,7.11.12,10.75,3.27,10.71,8.94-.03,5.79-3.46,8.54-10.86,8.59-7.23.05-14.45.01-21.68.02-5.41,0-8.36,2.4-8.19,8.11.16,5.53,3.26,7.23,8.34,7.11,6.8-.17,13.6-.09,20.4-.03,7.59.07,11.02,3,10.97,9.24-.04,6.07-3.13,8.66-10.62,8.73-6.59.06-13.18-.03-19.77.02-7.59.07-9.29,1.8-9.41,9.34-.02,1.27.09,2.56-.08,3.81-.94,7.05-8.44,10.44-13.59,5.56-3.79-3.6-7.39-4.01-12.24-3.95-14.87.19-29.74-.43-44.62-.68-26.77-.44-53.55-.87-80.32-1.2-2.02-.03-4.23.34-6.06,1.18-5.76,2.62-11.37,5.54-17.04,8.34-.44.64-.88,1.28-1.31,1.92,2.79,1.46,5.46,3.74,8.41,4.2,4.56.72,9.32.13,14,.22,6.65.13,9.63,3,9.78,9.74.17,7.42.12,14.85.03,22.27-.06,4.81,1.64,7.73,6.95,7.7,5.2-.02,7.16-2.92,7.18-7.66.03-7.64-.05-15.27.03-22.91.07-6.43,3.18-9.86,8.89-10.05,6.09-.19,9.43,3.17,9.57,10.02.15,7.42.02,14.85.06,22.27.02,4.42,1.03,8.28,6.5,8.26,5.38-.02,6.58-3.77,6.6-8.23.03-6.57-.02-13.15.03-19.72.06-7.33,2.91-11.04,8.43-11.12,5.43-.08,8.6,3.88,8.65,10.9.04,6.79,0,13.57.02,20.36.01,5.05,2.08,8.01,7.61,7.9,5.42-.1,6.81-3.39,6.82-7.96.02-7.21-.1-14.42.06-21.63.16-7.19,3.03-10.12,9.39-10.08,6.35.04,9.06,3.02,9.12,10.23.06,7,.08,14,0,21-.06,4.92,2.18,8.61,7.16,8.64,5.07.03,9.87-.17,18.85-.17,16.87,0,33.74,0,50.61-.01,41.15,0,82.31,0,123.46,0,61.21,0,376.86,0,438.07,0,2.44,0,4.89,0,7.33,0,.05.66.1,1.33.16,1.99-2.44.14-4.88.4-7.32.4-93.94.02-442.32.02-536.27.02-25.29,0-50.58-.01-75.88.01-7.95,0-12.74-.08-18.84,0-6.1.08-9.47-3.85-9.65-10.18-.22-7.42-.12-14.85-.04-22.27.05-4.62-1.85-7.21-6.7-7.33-4.82-.12-7.13,2.46-7.23,6.95-.17,7.63,0,15.27-.09,22.9-.08,6.72-2.87,9.74-8.86,9.92-6.3.19-9.79-2.99-9.99-9.64-.22-7.21-.14-14.42-.06-21.63.05-4.4-1.35-7.81-6.2-7.84-4.78-.04-6.5,3.31-6.52,7.69-.03,7.21.08,14.42-.07,21.63-.14,6.48-3,9.65-8.39,9.78-5.64.14-8.76-3.25-8.86-9.91-.1-7.42-.04-14.85-.03-22.27,0-4.87-1.65-8.39-7.21-8.4-5.73,0-6.95,3.63-6.86,8.5.13,7.21.13,14.42-.01,21.63-.14,7.19-3.5,10.61-9.89,10.46-6.06-.14-8.9-3.44-8.95-10.54-.05-7.21-.07-14.42,0-21.63.05-5.3-2.52-7.81-7.77-7.79-3.83.02-7.66-.18-11.47.03-6.19.34-10.96-1.34-12.65-8.38-17.85,3.84-33.31-3.2-49.13-9.54-11.12-4.46-22.64-8.6-34.38-10.75-18-3.3-44.43,3.87-62.78,17s-81.91,51.25-119.8,51.25h-159.87v-1.56ZM631.44,236.57,1506.55,218.65c-3.53-7.65-4.19-14.66-.88-21.83.42-.92.12-2.25-.06-3.36-.47-2.86-1.52-5.7-1.53-8.55-.08-32.66-.02-65.32.02-97.97.01-9.42,2.61-12,12.11-12,40.17-.01,80.33,0,120.5,0,10.14,0,12.62,2.54,12.62,12.87,0,39.87.02,79.74-.04,119.61,0,2.92-.49,5.86-.93,8.76-.46,3.09,3.89,8.53,7.4,8.61,4.02.1,6.3-2.09,6.53-6.18.07-1.27.02-2.54.05-3.82.16-7.88,2.78-10.48,10.86-10.56,7.22-.08,14.45.02,21.68-.06,4.45-.05,7.43-2.03,7.37-6.83-.06-4.72-2.79-6.73-7.43-6.67-7.22.09-14.45.06-21.68,0-7.11-.06-10.57-3.22-10.69-9.65-.12-6.64,3.09-9.94,10.24-10.09,7.65-.16,15.3-.01,22.95-.09,4.34-.05,7.58-1.59,7.44-6.62-.14-4.93-3.41-6.44-7.72-6.47-7.65-.05-15.3.02-22.95-.04-7.18-.06-10.26-2.88-10.19-9.15.07-6.18,3.18-8.86,10.46-8.91,7.65-.05,15.3.1,22.95-.06,5.87-.13,7.72-2.82,7.71-9.16,0-5.95-4.12-4.81-7.55-4.83-7.86-.03-15.73.25-23.58.11-5.81-.1-9.01-3.68-8.75-9.36.25-5.59,3.15-8.57,8.87-8.54,7.23.03,14.45.06,21.68.12,4.95.04,8.36-1.84,8.43-7.25.07-5.3-3.52-6.82-8.05-6.85-7.01-.05-14.03.12-21.04.05-7.45-.08-10.28-2.93-10.47-10.45-.11-4.24-.1-8.48,0-12.72.14-5.65-2.69-8.13-8.17-8.09-4.46.04-8.93.1-13.39-.04-6.88-.22-9.6-2.93-9.69-9.75-.1-7.63-.03-15.27-.03-22.9,0-4.54-1.94-7.23-6.79-7.31-5.12-.09-7.29,2.53-7.25,7.47.06,7.42.06,14.85,0,22.27-.06,6.82-3.25,10.53-9.02,10.67-6.05.15-9.53-3.63-9.65-10.8-.12-7.42-.06-14.84-.04-22.27.02-4.52-1.73-7.38-6.69-7.3-4.96.08-6.54,3.04-6.5,7.51.06,7.42.09,14.85-.02,22.27-.1,6.52-3.33,9.89-9.06,9.77-5.39-.11-8.52-3.45-8.62-9.6-.13-7.42-.14-14.85,0-22.27.1-5.31-2.18-7.78-7.6-7.77-5.47.01-7.65,2.81-7.66,7.9-.01,7.21.05,14.42-.03,21.63-.07,6.29-3.16,9.97-8.18,9.97-4.91,0-8.33-3.9-8.42-9.93-.11-7.42-.08-14.84-.02-22.27.04-5.06-2.41-7.33-7.43-7.27-4.83.06-6.89,2.49-6.87,7.14.04,7.42.11,14.85-.04,22.27-.15,6.93-3.31,9.95-10.27,10.08-4.67.09-9.35.07-14.03,0-4.97-.07-7.54,2.13-7.43,7.26.09,4.45.05,8.91,0,13.36-.09,8.19-3.01,11.16-11.05,11.22-6.8.05-13.6.1-20.4-.02-4.31-.08-7.32,1.77-7.43,6.02-.12,4.56,2.89,6.7,7.5,6.66,7.22-.07,14.45-.08,21.68,0,7.13.08,9.94,3.02,9.92,10.11-.01,6.89-2.98,9.96-10.1,10.1-6.8.13-13.6.12-20.4,0-4.66-.08-9.08.52-8.94,6.32.14,5.71,4.71,6.23,9.25,6.21,5.95-.03,11.9-.03,17.85,0,8.22.04,11.88,2.81,11.93,8.96.05,6.08-3.94,9.24-11.74,9.27-6.38.02-12.75.14-19.13-.04-5.22-.14-8.74,1.19-8.71,7.29.03,6.29,3.94,7.09,8.96,6.99,6.8-.14,13.61-.2,20.4.02,5.8.19,9.27,3.86,9.23,9.17-.04,5.55-3.17,8.54-9.47,8.66-7.22.14-14.45,0-21.68.08-4.75.05-7.74,2.11-7.51,7.31.22,4.92,3.25,6.4,7.72,6.35,7.22-.09,14.45-.07,21.68,0,7.79.07,10.52,2.9,10.59,10.83.03,3.51,0,7.03,0,11.91,6.23-2.84,11.31-5.15,16.39-7.46ZM1538.71,184.6c-9.69-2.03-11-3.64-11.01-13.39-.02-19.51-.03-39.01,0-58.52.02-10.4,2.06-12.46,12.18-12.47,24.65-.01,49.3-.02,73.95,0,8.56,0,11.33,2.8,11.34,11.45.03,24.17.03,48.35,0,72.52-.01,8.93-2.85,11.78-11.74,11.79-18.4.04-36.8.01-55.2.01,20.4.9,40.79.69,61.18,1.1,3.57.07,7.64,2.08,10.51,4.4,5.47,4.41,10.23,9.68,16.07,15.36.47-2.79.91-4.19.91-5.59.04-41.98,0-83.97.05-125.95,0-5.64-2.67-7.97-8.22-7.96-41.43.06-82.87.07-124.31,0-5.71,0-8.01,2.54-7.89,8.16.19,8.69.02,17.39,0,26.08-.04,24.81-.19,49.62.05,74.42.03,2.67,1.64,6.93,3.61,7.71,8.75,3.47,21.76-.93,28.51-9.12ZM1534.81,193.35c27.6,0,54.73.04,81.85-.04,4.64-.01,6.05-3.11,6.05-7.26-.02-25.43-.02-50.85,0-76.28,0-4.63-2.08-7.13-6.89-7.13-26.33.01-52.66.02-78.99,0-4.51,0-6.85,2.47-6.88,6.62-.13,21.82-.23,43.65.18,65.47.04,2.3,3.34,6.18,5.38,6.35,2.27.19,5.19-2.71,7.11-4.9,1.01-1.15.67-3.63.66-5.51-.11-14.62-.35-29.24-.43-43.86-.04-7.65,2.86-10.99,9.89-11.06,15.71-.14,31.43-.14,47.14,0,6.59.06,9.87,3.28,9.93,9.78.14,15.47.14,30.94,0,46.4-.06,6.99-3.15,9.87-10.26,9.9-13.8.06-27.64.66-41.39-.19-10.26-.63-17.6,2.76-23.35,11.7ZM1544.68,179.49c2.96,0,6.1,0,9.24,0,15.06,0,30.12-.12,45.18.05,5.97.07,8.42-2.42,8.35-8.35-.17-14.81-.02-29.63-.07-44.45-.03-6.64-2.01-8.59-8.76-8.61-14.85-.05-29.69-.05-44.54,0-7,.02-8.97,1.99-8.94,9.13.05,14.18.28,28.36.3,42.54,0,3.33-.51,6.66-.76,9.69ZM1642.91,217.46c-5.11-5.04-9.85-10.2-15.14-14.73-2.18-1.87-5.51-3.34-8.33-3.36-28.66-.23-57.33-.14-85.99-.05-1.77,0-4.15.23-5.2,1.33-4.73,4.98-9.09,10.32-14.68,16.82h129.35ZM1509.4,216.33c5.85-5.19,11.37-10.08,16.88-14.97-.53-.54-1.06-1.08-1.58-1.62-5.54-.51-11.07-1.03-16.7-1.55-3.46,5.92-3.15,12.74,1.4,18.14Z"/>
  </g>
  <g id="RKLYeC">
    <path class="cls-2" d="M-27.26,271.98c23.03,8.77,116.8-.58,158.45-.58s92.15-87.5,114.47-97.93c37.19-17.38,75.74-20.47,115.91-12.75,16.29,3.13,33.24,4.06,49.87,3.9,23.9-.23,43.93-11.12,61.33-26.96,22.54-20.51,38.02-45.65,48.71-74.68-4.96-2.37-9.62-4.55-14.23-6.83-4.45-2.2-4.53-4.89-.3-7.29,16.52-9.37,33.11-18.63,49.7-27.88,3.72-2.07,6.03-.72,6.91,3.31,4.01,18.34,8.09,36.66,11.95,55.02,1.14,5.43-1.2,7.14-6.43,4.98-4.56-1.88-9.03-3.95-14.05-6.16-26.72,47.04-64.57,80.89-114.76,100.34,1.87,18.04-6.34,30.07-21.4,37.69-13.71,6.94-19.93,17.69-19.1,32.91.31,5.64.28,11.33-.04,16.97-.33,5.73,2.06,7.61,7.62,7.22,5.86-.41,11.8-.47,17.64.01,6.47.53,8.67-2.14,7.98-8.24-.28-2.45-.05-4.95-.05-8.22-3.43,1.2-6.27,2.32-9.19,3.2-10.17,3.06-19.52-3.82-19.66-14.41-.06-4.66,2.46-7.17,6.92-7.6,2.69-.26,5.43-.05,8.14,0q14.1.23,16.98,13.5c1.26-.25,2.53-.49,3.8-.76,9.78-2.08,14.77,2.1,14.41,12.11q-.37,10.32,10.03,10.32c5.43,0,10.88-.19,16.3.07,4.27.2,6.39-1.29,6.31-5.73-.1-5.6-.02-11.2-.02-17.76-2.67,1.28-4.41,2.08-6.12,2.93-14.61,7.22-26.41,1.66-28.69-14.67-1.4-9.99-.78-20.31-.58-30.47.29-14.45.48-14.45,14.88-14.45,4.75,0,9.51.15,14.26-.04,6.02-.24,8.67,2.37,8.59,8.47-.18,13.55-.05,27.11-.05,41.43,1.95-.86,3.31-1.39,4.61-2.04,8.75-4.37,13.89-1.31,14.24,8.66.2,5.88.17,11.77.06,17.66-.08,4.29,1.68,6.14,6.09,6.01,7.24-.22,14.51.25,21.72-.27,1.88-.14,5.04-2.77,5.12-4.38.47-10.1.24-20.24.24-30.39-6.32.46-11.9,1.43-17.42,1.16-11.56-.56-17.7-7.18-17.77-18.75-.13-21.05-.09-42.11-.03-63.16.02-7.91,1.36-9.2,8.99-9.25,6.57-.04,13.14.2,19.69-.07,6.43-.27,8.86,2.45,8.81,8.86-.21,23.32-.09,46.64-.07,69.95,0,1.3.14,2.6.31,5.49,10.82-9.62,15.49-20.82,15.78-33.44.58-25.34.37-50.7.36-76.06,0-22.13-.99-19.77,19.76-19.83,19.29-.05,18.13-1.5,18.09,17.87-.06,23.54-.01,47.09-.01,70.63,0,2.39,0,4.78,0,6,13.23-1.69,25.62-4.02,38.1-4.66,15.73-.81,30.32,4.03,43.76,12.23,8.5,5.18,57.21,55.08,80.23,63.85,23.03,8.77,232.04,6.24,232.04,6.24v1.54s-211.56,1.57-232.77-6-71.25-57.84-80.14-63.23c-23.58-14.31-48.4-15.95-74.36-7.71-5.03,1.6-7.14,3.89-7.02,9.56.41,19.01.19,38.02.15,57.04-.01,7.65-1.55,9.22-9.02,9.3-6.79.07-13.58-.05-20.37.04-5.59.08-8.44-2.39-8.41-8.12.06-9.96-.17-19.93.16-29.87.09-2.76,1.21-5.76,2.67-8.15,6.87-11.24,16.2-20.04,27.86-26.16,3.47-1.82,4.72-3.98,4.69-7.9-.17-27.39-.22-54.78.01-82.17.05-5.73-1.38-8.37-7.59-7.89-6.08.47-12.23.36-18.32.03-5.43-.3-7.06,1.98-7.02,7.18.18,25.58-.04,51.16.12,76.73.11,17.17-3.32,32.77-17.09,44.65-1.38,1.19-1.84,4.01-1.89,6.09-.2,9.05-.29,18.11-.02,27.16.19,6.21-2.59,8.6-8.54,8.45-6.79-.17-13.58-.17-20.37,0-5.95.15-8.82-2.33-8.61-8.47.2-5.88.31-11.79-.12-17.64-.27-3.65-.37-8.22-5.9-8.31-4.81-.08-10.64,4.99-10.75,9.33-.14,5.66-.13,11.32,0,16.97.12,5.3-2.11,8.09-7.59,8.06-7.47-.05-14.94,0-22.41.01-5.4.01-7.89-2.71-7.6-8.05.1-1.81.72-3.76.24-5.39-.91-3.04-1.76-7.56-3.89-8.44-3.08-1.27-7.4-.31-10.91.68-1.12.32-1.95,3.79-1.91,5.79.38,16.59-1.08,15.51-15.98,15.41-4.98-.03-9.96.06-14.94-.06-4.34-.1-6.65-2.28-6.62-6.8.07-9.51-.42-19.05.22-28.51.76-11.28,7.4-18.92,16.89-24.69,5.73-3.49,11.56-7.3,16.11-12.13,5.82-6.19,8.72-14.01,6.95-23.66-8.55,2.37-16.44,4.87-24.49,6.69-7.47,1.69-15.09,2.79-22.69,3.84-1.43.2-3.06-1.1-4.59-1.71,1.23-1.32,2.21-3.26,3.72-3.87,10.89-4.4,21.89-8.5,32.83-12.78,4.68-1.83,9.49-2.87,13.21,1.29,2.87,3.21,5.29,2.09,8.32.86,44.77-18.16,79.06-48.55,104.16-89.53,6.36-10.39,4.93-10.26,15.83-5.16,2.62,1.23,5.34,2.27,9.73,4.12-4.61-21.24-8.91-41.11-13.45-62.02-18.44,10.32-36.09,20.2-55.08,30.83,5.46,2.61,9.71,4.81,14.09,6.7,3.52,1.52,4.92,3.6,3.4,7.41-13.02,32.78-31.56,61.53-60.53,82.56-23.49,17.06-50.06,20.91-78.14,17.43-18.39-2.28-36.68-5.5-55.11-7.31-29.2-2.86-56.54,4.98-82.84,16.73-21.45,9.58-68.49,97.81-113.32,97.81s-139.67,7.55-160.89-.02M541.42,193.42h-.03c0-12.21-.05-24.42.03-36.62.03-4.1-1.28-6.31-5.88-6.16-7.23.25-14.47.19-21.7.02-4.12-.1-5.68,1.74-5.68,5.66.04,21.93-.11,43.86.1,65.79.08,7.69,4.42,12.94,12.04,14.18,4.99.81,10.28.3,15.38-.17,4.13-.38,5.96-2.86,5.84-7.42-.32-11.75-.11-23.51-.11-35.26ZM595.24,203.94c-14.16,7.18-24.49,16.48-31.7,29.17-.63,1.11-.95,2.56-.95,3.85-.07,10.38-.25,20.77.19,31.13.07,1.74,2.9,4.69,4.61,4.81,7.64.53,15.35.52,22.99,0,1.72-.12,4.64-3.01,4.66-4.66.32-20.96.21-41.92.21-64.32ZM486.95,222.22s-.03,0-.05,0c0-6.99-.04-13.98.02-20.97.03-3.8-1.25-5.86-5.52-5.73-7.21.22-14.43.23-21.64,0-4.55-.14-5.9,2.03-5.87,6.16.06,10.6-.7,21.25.18,31.77.44,5.28,3.04,10.76,5.91,15.37,3.62,5.8,9.61,6.22,15.59,3.49,5.75-2.62,12.72-4.02,11.51-13.21-.73-5.54-.13-11.26-.13-16.89ZM419.89,240.59c0-.05,0-.11,0-.16-2.03,0-4.05-.03-6.08,0-7.16.13-8.99,2.8-6.39,9.31,3.7,9.26,10.4,10.78,21.15,5.95,5.97-2.68,4.78-7.35,3.88-11.3-.39-1.72-4.57-2.83-7.19-3.7-1.62-.54-3.57-.1-5.37-.1ZM435.45,178.41c.03-1.06.06-2.12.09-3.19-2.77-.67-6-2.61-8.25-1.81-12.54,4.48-24.84,9.62-37.23,14.53.13.46.26.92.39,1.38,15-3.64,29.99-7.28,44.99-10.92Z"/>
  </g>
</svg>