<?xml version="1.0" encoding="UTF-8"?>
<svg id="Layer_1" data-name="Layer 1" xmlns="http://www.w3.org/2000/svg" xmlns:xlink="http://www.w3.org/1999/xlink" viewBox="0 0 344.42 115.19">
  <defs>
    <style>
      .cls-1 {
        letter-spacing: -.08em;
      }

      .cls-2 {
        clip-path: url(#clippath);
      }

      .cls-3 {
        fill: none;
      }

      .cls-3, .cls-4, .cls-5 {
        stroke-width: 0px;
      }

      .cls-6 {
        font-family: DMSerifText-Regular, 'DM Serif Text';
        font-size: 51.33px;
      }

      .cls-6, .cls-7, .cls-5 {
        fill: #fff;
      }

      .cls-8 {
        letter-spacing: -.02em;
      }

      .cls-9 {
        clip-path: url(#clippath-1);
      }

      .cls-10 {
        letter-spacing: -.04em;
      }

      .cls-11 {
        letter-spacing: -.07em;
      }

      .cls-12 {
        letter-spacing: -.06em;
      }

      .cls-13 {
        letter-spacing: -.05em;
      }

      .cls-4 {
        fill: #232256;
      }

      .cls-14 {
        letter-spacing: -.04em;
      }

      .cls-15 {
        letter-spacing: .03em;
      }

      .cls-7 {
        font-family: Helvetica-Bold, Helvetica;
        font-size: 19.96px;
        font-weight: 700;
      }
    </style>
    <clipPath id="clippath">
      <rect class="cls-3" width="344.42" height="115.19"/>
    </clipPath>
    <clipPath id="clippath-1">
      <rect class="cls-3" width="344.42" height="115.19"/>
    </clipPath>
  </defs>
  <polygon class="cls-5" points="318.99 17.2 318.99 10.7 316.64 10.7 316.64 9.15 323.13 9.15 323.13 10.7 320.71 10.7 320.71 17.2 318.99 17.2"/>
  <g class="cls-2">
    <path class="cls-5" d="M324.56,17.2v-8.06h1.58l2.93,4.78h-1.04s2.97-4.78,2.97-4.78h1.51v8.06h-1.69v-2.76c0-.69.02-1.31.05-1.86.04-.55.09-1.1.18-1.65l.21.54-2.36,3.66h-.76l-2.31-3.64.2-.56c.08.51.14,1.04.18,1.58.03.54.05,1.18.05,1.93v2.76h-1.69Z"/>
    <path class="cls-4" d="M5.56,115.19h333.29c3.07,0,5.56-2.49,5.56-5.56V5.56c0-3.07-2.49-5.56-5.56-5.56H5.56C2.49,0,0,2.49,0,5.56v104.07c0,3.07,2.49,5.56,5.56,5.56"/>
  </g>
  <polygon class="cls-5" points="318.91 16.91 318.91 10.39 316.55 10.39 316.55 8.83 323.06 8.83 323.06 10.39 320.64 10.39 320.64 16.91 318.91 16.91"/>
  <g class="cls-9">
    <path class="cls-5" d="M324.49,16.91v-8.08h1.58l2.94,4.79h-1.04s2.98-4.79,2.98-4.79h1.51v8.08h-1.7v-2.77c0-.69.02-1.32.05-1.87.04-.55.09-1.1.18-1.65l.21.54-2.36,3.67h-.76l-2.32-3.65.2-.57c.09.52.15,1.05.18,1.59.04.54.05,1.19.05,1.93v2.77h-1.7Z"/>
  </g>
  <rect class="cls-5" y="32.36" width="344.42" height="1.34"/>
  <text class="cls-7" transform="translate(11.03 22.68)"><tspan class="cls-11" x="0" y="0">T</tspan><tspan x="10.74" y="0">otal Law Firm Solutions</tspan></text>
  <path class="cls-5" d="M84.48,105.62v-.42l.4-.12c.28-.09.46-.22.54-.37.08-.15.12-.37.12-.65v-10.1c0-.27-.04-.48-.12-.63-.08-.15-.25-.28-.52-.37l-.42-.12v-.42h4.95v.42l-.38.12c-.25.09-.42.22-.51.38-.09.16-.13.38-.13.66v11.02h2.93c.45,0,.79-.11,1.02-.34.23-.23.44-.55.64-.98l.74-1.66h.56l-.2,3.57h-9.62ZM95.24,105.62v-.38l.3-.08c.27-.08.45-.2.54-.36.09-.16.15-.37.16-.64v-4.82c0-.35,0-.72-.02-1.09,0-.27-.05-.48-.15-.63-.1-.15-.28-.26-.55-.31l-.28-.06v-.36l3.49-1.16.24.22-.06,2.84v5.39c0,.27.05.48.15.64.1.16.28.28.53.36l.22.06v.38h-4.57ZM97.54,94.64c-.44,0-.81-.14-1.12-.42-.31-.28-.46-.63-.46-1.06s.15-.8.46-1.07c.31-.27.68-.41,1.12-.41s.81.14,1.12.41c.31.27.46.63.46,1.07s-.15.78-.46,1.06c-.31.28-.68.42-1.12.42ZM104.44,105.9c-.83,0-1.47-.2-1.95-.61-.47-.41-.71-1.07-.71-1.99,0-.32,0-.62,0-.91,0-.29,0-.62,0-1.01v-4.73h-1.42v-.44l.54-.08c.39-.07.72-.19.99-.36.27-.17.52-.41.75-.72l1.3-1.8h.6l-.06,2.78h2.28v.62h-2.3v6.81c0,.48.1.84.31,1.08.21.24.46.36.77.36.27,0,.51-.06.72-.19.21-.13.43-.3.64-.51l.26.3c-.25.44-.61.78-1.06,1.03-.45.25-1.01.37-1.68.37ZM107.86,105.62v-.38l.3-.08c.27-.08.45-.2.54-.36.09-.16.15-.37.16-.64v-4.82c0-.35,0-.72-.02-1.09,0-.27-.05-.48-.15-.63-.1-.15-.28-.26-.55-.31l-.28-.06v-.36l3.49-1.16.24.22-.06,2.84v5.39c0,.27.05.48.15.64.1.16.28.28.53.36l.22.06v.38h-4.57ZM110.15,94.64c-.44,0-.81-.14-1.12-.42-.31-.28-.46-.63-.46-1.06s.15-.8.46-1.07c.31-.27.68-.41,1.12-.41s.81.14,1.12.41c.31.27.46.63.46,1.07s-.15.78-.46,1.06c-.31.28-.68.42-1.12.42ZM117.62,102.2c-.88,0-1.63-.15-2.26-.44v.72c0,.4.2.64.6.72l3.55.66c.68.13,1.28.3,1.8.49.52.19.92.47,1.22.82.29.35.44.83.44,1.43,0,.64-.21,1.23-.63,1.79-.42.55-1.04,1-1.86,1.34-.82.34-1.84.51-3.06.51-1.05,0-1.89-.11-2.51-.33-.62-.22-1.06-.5-1.33-.85-.27-.35-.4-.72-.4-1.12,0-.48.16-.96.49-1.44.33-.48.75-.88,1.27-1.2-.81-.31-1.22-.79-1.22-1.46,0-.25.06-.49.18-.7.12-.21.27-.43.44-.64l.72-.9c-.96-.56-1.44-1.43-1.44-2.62,0-.97.34-1.76,1.03-2.36.69-.6,1.67-.9,2.96-.9s2.29.3,2.99.9c.43-.07.83-.17,1.2-.32.37-.15.72-.35,1.04-.6l.28.2v1.12h-2.16c.43.53.64,1.18.64,1.96,0,.95-.34,1.72-1.03,2.32-.69.6-1.67.9-2.96.9ZM114.74,107.36c0,.73.23,1.28.7,1.65.47.37,1.2.55,2.22.55,1.12,0,1.95-.18,2.49-.55.54-.37.81-.85.81-1.45,0-.37-.14-.67-.41-.88-.27-.21-.73-.38-1.37-.5l-3.57-.7c-.05-.01-.11-.03-.16-.04-.2.27-.37.57-.5.92-.13.35-.2.68-.2,1ZM117.58,101.67c.56,0,.97-.22,1.23-.65.26-.43.39-1.13.39-2.09s-.13-1.62-.38-2.04c-.25-.41-.65-.62-1.18-.62s-.93.21-1.19.63c-.26.42-.39,1.11-.39,2.07s.12,1.65.36,2.07.63.63,1.16.63ZM126.36,105.9c-.76,0-1.4-.22-1.93-.65-.53-.43-.79-1.05-.79-1.87,0-.64.31-1.23.93-1.77.62-.54,1.59-.93,2.92-1.19.23-.05.49-.1.79-.15.3-.05.6-.1.89-.15v-1.42c0-.9-.11-1.53-.34-1.88-.23-.35-.59-.52-1.08-.52h-.06c-.31,0-.55.1-.73.29-.18.19-.3.51-.35.95l-.06.26c-.04.53-.18.92-.42,1.17-.24.25-.54.37-.9.37-.33,0-.61-.1-.83-.31-.22-.21-.33-.48-.33-.81,0-.55.19-1,.56-1.38.37-.37.87-.65,1.49-.84.62-.19,1.29-.28,2.01-.28,1.18,0,2.09.29,2.72.86.63.57.94,1.5.94,2.8v4.45c0,.57.27.86.82.86h.46l.2.22c-.24.31-.51.54-.8.71-.29.17-.69.25-1.2.25-.57,0-1.03-.14-1.37-.41-.34-.27-.56-.64-.67-1.09-.43.45-.85.82-1.26,1.1-.41.28-.95.42-1.62.42ZM127.52,104.62c.27,0,.52-.06.76-.18s.54-.32.9-.6v-3.19c-.35.05-.7.12-1.06.2-.57.13-1.04.38-1.39.74-.35.36-.53.85-.53,1.46,0,.53.12.93.37,1.19.25.26.56.39.95.39ZM137.48,105.9c-.83,0-1.47-.2-1.95-.61-.47-.41-.71-1.07-.71-1.99,0-.32,0-.62,0-.91,0-.29,0-.62,0-1.01v-4.73h-1.42v-.44l.54-.08c.39-.07.72-.19.99-.36.27-.17.52-.41.75-.72l1.3-1.8h.6l-.06,2.78h2.28v.62h-2.3v6.81c0,.48.1.84.31,1.08.21.24.46.36.77.36.27,0,.51-.06.72-.19.21-.13.43-.3.64-.51l.26.3c-.25.44-.61.78-1.06,1.03-.45.25-1.01.37-1.68.37ZM140.9,105.62v-.38l.3-.08c.27-.08.45-.2.54-.36.09-.16.15-.37.16-.64v-4.82c0-.35,0-.72-.02-1.09,0-.27-.05-.48-.15-.63-.1-.15-.28-.26-.55-.31l-.28-.06v-.36l3.49-1.16.24.22-.06,2.84v5.39c0,.27.05.48.15.64.1.16.28.28.53.36l.22.06v.38h-4.57ZM143.19,94.64c-.44,0-.81-.14-1.12-.42-.31-.28-.46-.63-.46-1.06s.15-.8.46-1.07c.31-.27.68-.41,1.12-.41s.81.14,1.12.41c.31.27.46.63.46,1.07s-.15.78-.46,1.06c-.31.28-.68.42-1.12.42ZM151.34,105.9c-.99,0-1.85-.21-2.59-.62-.74-.41-1.31-1-1.72-1.76-.41-.76-.61-1.66-.61-2.72s.22-1.96.65-2.72c.43-.76,1.02-1.34,1.76-1.75.74-.41,1.57-.61,2.51-.61s1.77.2,2.51.61c.74.41,1.32.99,1.76,1.74.43.75.65,1.66.65,2.73s-.2,1.96-.61,2.73c-.41.77-.98,1.35-1.71,1.76-.73.41-1.6.61-2.6.61ZM151.34,105.34c.48,0,.87-.13,1.17-.39.3-.26.52-.72.65-1.37.13-.65.2-1.56.2-2.74s-.07-2.11-.2-2.77c-.13-.66-.35-1.12-.65-1.38-.3-.26-.69-.39-1.17-.39s-.87.13-1.16.39c-.29.26-.51.72-.65,1.38-.14.66-.21,1.58-.21,2.77s.07,2.08.21,2.74c.14.65.36,1.11.65,1.37.29.26.68.39,1.16.39ZM157.17,105.62v-.38l.32-.08c.44-.13.66-.46.66-.98v-5.89c-.01-.28-.06-.5-.14-.65-.08-.15-.25-.26-.52-.31l-.32-.08v-.36l3.23-1.16.24.22.14,1.24c.48-.43,1.01-.78,1.61-1.05.59-.27,1.17-.41,1.75-.41.88,0,1.55.24,2.03.72.47.48.71,1.21.71,2.2v5.55c0,.52.24.85.72.98l.22.06v.38h-4.59v-.38l.3-.08c.44-.15.66-.47.66-.98v-5.93c0-.47-.1-.81-.3-1.02-.2-.21-.53-.32-1-.32-.65,0-1.33.29-2.04.86v6.43c0,.52.23.85.7.98l.2.06v.38h-4.57ZM177.23,105.9c-.88,0-1.62-.16-2.24-.49-.61-.33-1.08-.76-1.41-1.29-.33-.53-.49-1.12-.49-1.78,0-1.62,1.02-2.88,3.07-3.77-.35-.47-.67-.96-.97-1.49-.3-.53-.45-1.14-.45-1.85,0-.93.33-1.68,1-2.25.67-.57,1.54-.85,2.62-.85s1.87.24,2.45.71c.58.47.87,1.09.87,1.87,0,.68-.26,1.27-.78,1.77s-1.27.96-2.26,1.39c.24.27.49.55.76.85.27.3.55.62.84.95.37.4.73.78,1.07,1.14s.68.73,1.03,1.12c.31-.45.59-.97.86-1.57.27-.59.48-1.21.64-1.87.11-.49-.09-.81-.58-.96l-.16-.06v-.38h2.44v.38l-.22.08c-.43.15-.69.43-.8.86-.21.73-.47,1.43-.76,2.09-.29.66-.63,1.26-1.02,1.81l1.88,2.02c.16.17.33.32.5.43.17.11.37.22.58.31l.4.16v.4l-3.83.02-1.3-1.42c-.39.41-.87.8-1.44,1.15-.57.35-1.34.53-2.3.53ZM178.31,104.54c.47,0,.89-.07,1.28-.21.39-.14.72-.32,1-.55-.67-.75-1.32-1.49-1.96-2.24-.37-.47-.73-.9-1.08-1.32-.35-.41-.69-.83-1.02-1.24-.41.33-.7.72-.87,1.16-.17.44-.25.89-.25,1.36,0,.87.27,1.59.81,2.17.54.58,1.23.87,2.09.87ZM178.33,97.53c.53-.47.92-.93,1.18-1.4.25-.47.38-.98.38-1.56,0-.52-.14-.94-.41-1.26-.27-.32-.64-.48-1.11-.48-.44,0-.81.16-1.11.48-.3.32-.45.73-.45,1.24,0,.31.06.63.17.96.11.33.32.71.63,1.14.08.11.18.23.3.37.12.14.26.31.42.51ZM191.83,105.62v-.42l.4-.1c.27-.08.44-.2.52-.36.08-.16.12-.38.12-.66.01-.76.02-1.53.02-2.31v-5.48c0-.77,0-1.54-.02-2.32,0-.28-.04-.5-.13-.65-.09-.15-.26-.28-.53-.37l-.38-.12v-.42h4.81c1.94,0,3.36.36,4.24,1.09.88.73,1.33,1.68,1.33,2.86,0,.75-.18,1.43-.55,2.07-.37.63-.97,1.13-1.81,1.51-.84.37-1.97.56-3.39.56h-.72v1.73c0,.59,0,1.19.02,1.81,0,.55.25.88.74,1l.6.16v.42h-5.27ZM195.74,99.93h.84c.67,0,1.21-.1,1.63-.31.42-.21.73-.56.94-1.07.21-.51.31-1.2.31-2.1s-.11-1.59-.33-2.09c-.22-.5-.55-.85-.99-1.06-.44-.21-.99-.31-1.64-.31h-.74c-.01.92-.02,1.85-.02,2.79v4.14ZM202.83,105.62v-.38l.3-.08c.44-.15.66-.48.66-1,0-.45,0-.91,0-1.37,0-.46,0-.91,0-1.37v-7.59c0-.28-.05-.49-.14-.63-.09-.14-.27-.24-.54-.31l-.3-.08v-.38l3.49-.84.26.18-.08,2.82v9.56c.01.27.07.48.17.65.1.17.28.28.53.35l.28.08v.38h-4.65ZM211.07,105.9c-.76,0-1.4-.22-1.93-.65-.53-.43-.79-1.05-.79-1.87,0-.64.31-1.23.93-1.77.62-.54,1.59-.93,2.92-1.19.23-.05.49-.1.79-.15.3-.05.6-.1.89-.15v-1.42c0-.9-.11-1.53-.34-1.88-.23-.35-.59-.52-1.08-.52h-.06c-.31,0-.55.1-.73.29-.18.19-.3.51-.35.95l-.06.26c-.04.53-.18.92-.42,1.17-.24.25-.54.37-.9.37-.33,0-.61-.1-.83-.31-.22-.21-.33-.48-.33-.81,0-.55.19-1,.56-1.38.37-.37.87-.65,1.49-.84.62-.19,1.29-.28,2.01-.28,1.18,0,2.09.29,2.72.86.63.57.94,1.5.94,2.8v4.45c0,.57.27.86.82.86h.46l.2.22c-.24.31-.51.54-.8.71-.29.17-.69.25-1.2.25-.57,0-1.03-.14-1.37-.41-.34-.27-.56-.64-.67-1.09-.43.45-.85.82-1.26,1.1-.41.28-.95.42-1.62.42ZM212.23,104.62c.27,0,.52-.06.76-.18s.54-.32.9-.6v-3.19c-.35.05-.7.12-1.06.2-.57.13-1.04.38-1.39.74-.35.36-.53.85-.53,1.46,0,.53.12.93.37,1.19.25.26.56.39.95.39ZM218.46,105.62v-.38l.3-.08c.27-.08.45-.2.54-.36.09-.16.15-.37.16-.64v-4.82c0-.35,0-.72-.02-1.09,0-.27-.05-.48-.15-.63-.1-.15-.28-.26-.55-.31l-.28-.06v-.36l3.49-1.16.24.22-.06,2.84v5.39c0,.27.05.48.15.64.1.16.28.28.53.36l.22.06v.38h-4.57ZM220.75,94.64c-.44,0-.81-.14-1.12-.42-.31-.28-.46-.63-.46-1.06s.15-.8.46-1.07c.31-.27.68-.41,1.12-.41s.81.14,1.12.41c.31.27.46.63.46,1.07s-.15.78-.46,1.06c-.31.28-.68.42-1.12.42ZM223.91,105.62v-.38l.32-.08c.44-.13.66-.46.66-.98v-5.89c-.01-.28-.06-.5-.14-.65-.08-.15-.25-.26-.52-.31l-.32-.08v-.36l3.23-1.16.24.22.14,1.24c.48-.43,1.01-.78,1.61-1.05.59-.27,1.17-.41,1.75-.41.88,0,1.55.24,2.03.72.47.48.71,1.21.71,2.2v5.55c0,.52.24.85.72.98l.22.06v.38h-4.59v-.38l.3-.08c.44-.15.66-.47.66-.98v-5.93c0-.47-.1-.81-.3-1.02-.2-.21-.53-.32-1-.32-.65,0-1.33.29-2.04.86v6.43c0,.52.23.85.7.98l.2.06v.38h-4.57ZM239.02,105.9c-.83,0-1.47-.2-1.95-.61-.47-.41-.71-1.07-.71-1.99,0-.32,0-.62,0-.91,0-.29,0-.62,0-1.01v-4.73h-1.42v-.44l.54-.08c.39-.07.72-.19.99-.36.27-.17.52-.41.75-.72l1.3-1.8h.6l-.06,2.78h2.28v.62h-2.3v6.81c0,.48.1.84.31,1.08.21.24.46.36.77.36.27,0,.51-.06.72-.19.21-.13.43-.3.64-.51l.26.3c-.25.44-.61.78-1.06,1.03-.45.25-1.01.37-1.68.37ZM242.44,105.62v-.38l.3-.08c.27-.08.45-.2.54-.36.09-.16.15-.37.16-.64v-4.82c0-.35,0-.72-.02-1.09,0-.27-.05-.48-.15-.63-.1-.15-.28-.26-.55-.31l-.28-.06v-.36l3.49-1.16.24.22-.06,2.84v5.39c0,.27.05.48.15.64.1.16.28.28.53.36l.22.06v.38h-4.57ZM244.73,94.64c-.44,0-.81-.14-1.12-.42-.31-.28-.46-.63-.46-1.06s.15-.8.46-1.07c.31-.27.68-.41,1.12-.41s.81.14,1.12.41c.31.27.46.63.46,1.07s-.15.78-.46,1.06c-.31.28-.68.42-1.12.42ZM247.91,105.62v-.38l.3-.08c.53-.15.81-.47.82-.98,0-.45,0-.91,0-1.37,0-.46,0-.92,0-1.39v-4.77h-1.14v-.44l.44-.08c.27-.04.46-.14.58-.29.12-.15.21-.37.26-.65.13-.52.33-.97.58-1.37.25-.39.55-.76.9-1.11.49-.48,1.02-.81,1.58-1,.56-.19,1.1-.28,1.64-.28s.99.11,1.43.32c.43.21.65.56.65,1.04,0,.36-.1.64-.31.84-.21.2-.5.3-.89.3-.63,0-1.16-.36-1.62-1.08l-.24-.28c-.16-.2-.32-.28-.48-.23-.16.05-.27.18-.34.39-.12.43-.21.92-.26,1.49-.05.57-.09,1.17-.1,1.81h3.43c.27,0,.46-.08.58-.23.12-.15.21-.36.28-.61.13-.52.32-.97.57-1.37.25-.39.54-.76.89-1.11.49-.48,1.02-.81,1.59-1,.57-.19,1.11-.28,1.65-.28s.99.11,1.42.32c.43.21.64.56.64,1.04,0,.36-.1.64-.3.84s-.5.3-.9.3c-.61,0-1.14-.36-1.6-1.08l-.24-.28c-.17-.2-.34-.28-.49-.23-.15.05-.27.18-.35.39-.11.43-.19.92-.25,1.49-.06.57-.09,1.17-.09,1.81h2.3v.62h-2.3v7.47c.01.52.28.85.8.98l.52.14v.38h-5.15v-.38l.3-.08c.55-.15.82-.47.82-.98,0-.45,0-.91,0-1.37,0-.46,0-.92,0-1.39v-4.77h-4.13v4.77c0,.45,0,.91,0,1.36,0,.45,0,.9,0,1.34.01.52.28.85.8.98l.52.14v.38h-5.15ZM265.96,105.62v-.42l.38-.1c.27-.08.44-.2.52-.36s.13-.38.14-.66c.01-.76.02-1.53.02-2.31v-5.48c0-.77,0-1.54-.02-2.32-.01-.28-.05-.5-.12-.65-.07-.15-.23-.27-.48-.35l-.44-.14v-.42h9.6l.14,3.37h-.54l-1.04-1.98c-.13-.25-.28-.45-.44-.59-.16-.14-.39-.21-.7-.21h-3.07c-.01.89-.02,1.81-.03,2.75,0,.94,0,1.87,0,2.81h1.92c.31,0,.53-.07.68-.21.15-.14.29-.34.42-.59l.4-.74h.44v3.65h-.44l-.4-.72c-.15-.27-.29-.47-.43-.61s-.36-.21-.67-.21h-1.92v2.53c0,.81,0,1.59.02,2.37,0,.55.25.89.74,1.02l.6.14v.42h-5.27ZM276.24,105.62v-.38l.3-.08c.27-.08.45-.2.54-.36.09-.16.15-.37.16-.64v-4.82c0-.35,0-.72-.02-1.09,0-.27-.05-.48-.15-.63-.1-.15-.28-.26-.55-.31l-.28-.06v-.36l3.49-1.16.24.22-.06,2.84v5.39c0,.27.05.48.15.64.1.16.28.28.53.36l.22.06v.38h-4.57ZM278.53,94.64c-.44,0-.81-.14-1.12-.42-.31-.28-.46-.63-.46-1.06s.15-.8.46-1.07c.31-.27.68-.41,1.12-.41s.81.14,1.12.41c.31.27.46.63.46,1.07s-.15.78-.46,1.06c-.31.28-.68.42-1.12.42ZM281.69,105.62v-.38l.32-.08c.44-.13.66-.46.66-.98v-5.89c-.01-.28-.06-.5-.14-.65-.08-.15-.25-.26-.52-.31l-.32-.08v-.36l3.23-1.16.24.22.14,1.24c.48-.43,1.01-.78,1.61-1.05.59-.27,1.17-.41,1.75-.41.88,0,1.55.24,2.03.72.47.48.71,1.21.71,2.2v5.55c0,.52.24.85.72.98l.22.06v.38h-4.59v-.38l.3-.08c.44-.15.66-.47.66-.98v-5.93c0-.47-.1-.81-.3-1.02-.2-.21-.53-.32-1-.32-.65,0-1.33.29-2.04.86v6.43c0,.52.23.85.7.98l.2.06v.38h-4.57ZM295.94,105.9c-.76,0-1.4-.22-1.93-.65-.53-.43-.79-1.05-.79-1.87,0-.64.31-1.23.93-1.77.62-.54,1.59-.93,2.92-1.19.23-.05.49-.1.79-.15.3-.05.6-.1.89-.15v-1.42c0-.9-.11-1.53-.34-1.88-.23-.35-.59-.52-1.08-.52h-.06c-.31,0-.55.1-.73.29-.18.19-.3.51-.35.95l-.06.26c-.04.53-.18.92-.42,1.17-.24.25-.54.37-.9.37-.33,0-.61-.1-.83-.31-.22-.21-.33-.48-.33-.81,0-.55.19-1,.56-1.38.37-.37.87-.65,1.49-.84.62-.19,1.29-.28,2.01-.28,1.18,0,2.09.29,2.72.86.63.57.94,1.5.94,2.8v4.45c0,.57.27.86.82.86h.46l.2.22c-.24.31-.51.54-.8.71-.29.17-.69.25-1.2.25-.57,0-1.03-.14-1.37-.41-.34-.27-.56-.64-.67-1.09-.43.45-.85.82-1.26,1.1-.41.28-.95.42-1.62.42ZM297.1,104.62c.27,0,.52-.06.76-.18.24-.12.54-.32.9-.6v-3.19c-.35.05-.7.12-1.06.2-.57.13-1.04.38-1.39.74-.35.36-.53.85-.53,1.46,0,.53.12.93.37,1.19.25.26.56.39.95.39ZM303.25,105.62v-.38l.32-.08c.44-.13.66-.46.66-.98v-5.89c-.01-.28-.06-.5-.14-.65-.08-.15-.25-.26-.52-.31l-.32-.08v-.36l3.23-1.16.24.22.14,1.24c.48-.43,1.01-.78,1.61-1.05.59-.27,1.17-.41,1.75-.41.88,0,1.55.24,2.03.72.47.48.71,1.21.71,2.2v5.55c0,.52.24.85.72.98l.22.06v.38h-4.59v-.38l.3-.08c.44-.15.66-.47.66-.98v-5.93c0-.47-.1-.81-.3-1.02-.2-.21-.53-.32-1-.32-.65,0-1.33.29-2.04.86v6.43c0,.52.23.85.7.98l.2.06v.38h-4.57ZM319.6,105.9c-.91,0-1.72-.2-2.46-.59-.73-.39-1.31-.96-1.73-1.72-.42-.75-.63-1.67-.63-2.75s.23-2,.7-2.76c.47-.76,1.09-1.34,1.87-1.75.78-.41,1.63-.61,2.57-.61.76,0,1.4.13,1.94.38.53.25.94.58,1.22.97.28.39.42.81.42,1.25,0,.37-.11.66-.33.86s-.5.3-.85.3c-.37,0-.68-.13-.91-.4-.23-.27-.37-.61-.41-1.02-.01-.27,0-.49,0-.68.02-.19.02-.37,0-.54-.05-.23-.14-.38-.27-.46-.13-.08-.3-.12-.53-.12-.84,0-1.48.34-1.93,1.01-.45.67-.67,1.76-.67,3.26,0,1.29.25,2.28.74,2.97.49.69,1.26,1.04,2.3,1.04.61,0,1.12-.12,1.52-.35.4-.23.77-.57,1.1-1.01l.32.24c-.33.8-.84,1.41-1.53,1.83-.69.42-1.5.63-2.45.63ZM329.4,95.74c.84,0,1.56.17,2.16.52.6.35,1.06.82,1.39,1.43.33.61.49,1.3.49,2.09,0,.17,0,.34-.02.49-.01.15-.04.3-.08.43h-6.01c.01,1.37.27,2.36.77,2.95.5.6,1.23.9,2.19.9.67,0,1.2-.11,1.62-.33.41-.22.79-.53,1.14-.93l.32.3c-.4.73-.94,1.3-1.63,1.71-.69.41-1.5.61-2.45.61s-1.78-.2-2.5-.6c-.72-.4-1.28-.97-1.69-1.73-.41-.75-.61-1.65-.61-2.71s.24-2.02.71-2.78c.47-.76,1.08-1.34,1.84-1.75.75-.41,1.54-.61,2.37-.61ZM329.3,96.31c-.39,0-.72.11-1.01.33-.29.22-.51.61-.68,1.16-.17.55-.26,1.33-.29,2.33h3.57c.15-1.34.09-2.32-.16-2.91-.25-.6-.73-.9-1.44-.9Z"/>
  <text class="cls-6" transform="translate(10.46 77.03)"><tspan class="cls-13" x="0" y="0">F</tspan><tspan class="cls-10" x="24.95" y="0">O</tspan><tspan class="cls-12" x="57.39" y="0">R</tspan><tspan class="cls-15" x="86.44" y="0">T</tspan><tspan class="cls-1" x="119.96" y="0"> </tspan><tspan class="cls-10" x="127.19" y="0">MO</tspan><tspan class="cls-12" x="198.54" y="0">R</tspan><tspan class="cls-14" x="227.59" y="0">G</tspan><tspan class="cls-8" x="258.96" y="0">A</tspan><tspan x="291.04" y="0">N</tspan></text>
</svg>