<?xml version="1.0" encoding="UTF-8"?>
<svg id="Layer_1" data-name="Layer 1" xmlns="http://www.w3.org/2000/svg" viewBox="0 0 103.18 45.77">
  <defs>
    <style>
      .cls-1 {
        fill: #232156;
      }

      .cls-1, .cls-2, .cls-3 {
        stroke-width: 0px;
      }

      .cls-2 {
        fill: #2a2d7c;
      }

      .cls-3 {
        fill: #232256;
      }
    </style>
  </defs>
  <g>
    <path class="cls-1" d="M1.27,32.83h.88v3.18h1.63v.81H1.27v-4Z"/>
    <path class="cls-1" d="M4.11,33.22c0-.14.05-.25.14-.35.1-.1.21-.14.35-.14s.25.05.35.14c.1.1.14.21.14.35s-.05.25-.14.35c-.1.1-.21.14-.35.14s-.25-.05-.35-.14-.14-.21-.14-.35ZM4.17,34.08h.85v2.74h-.85v-2.74Z"/>
    <path class="cls-1" d="M7.5,34.76h-.75v.91c0,.08,0,.14.01.21,0,.06.02.12.05.16.03.05.07.08.12.1s.13.04.22.04c.04,0,.1,0,.18-.01.07,0,.13-.03.17-.06v.71c-.09.03-.19.06-.29.07s-.2.02-.3.02c-.14,0-.27-.01-.4-.04-.12-.03-.23-.08-.32-.14-.09-.07-.16-.15-.21-.26s-.08-.23-.08-.38v-1.3h-.54v-.68h.54v-.81h.85v.81h.75v.68Z"/>
    <path class="cls-1" d="M7.87,33.22c0-.14.05-.25.14-.35.1-.1.21-.14.35-.14s.25.05.35.14c.1.1.14.21.14.35s-.05.25-.14.35c-.1.1-.21.14-.35.14s-.25-.05-.35-.14-.14-.21-.14-.35ZM7.94,34.08h.85v2.74h-.85v-2.74Z"/>
    <path class="cls-1" d="M12.28,36.6c0,.52-.13.91-.39,1.18-.26.27-.66.4-1.19.4-.25,0-.49-.03-.72-.08-.24-.05-.46-.16-.65-.32l.47-.7c.13.11.27.2.42.26.14.06.3.1.48.1.26,0,.45-.06.57-.19s.18-.29.18-.48v-.26h-.01c-.1.13-.22.22-.36.28-.15.05-.28.08-.41.08-.2,0-.39-.04-.55-.1-.17-.07-.31-.17-.43-.29-.12-.13-.21-.28-.27-.45-.06-.17-.1-.36-.1-.57,0-.18.03-.36.09-.53s.14-.33.25-.46c.11-.13.24-.24.39-.32s.33-.12.53-.12c.12,0,.23.01.33.04s.19.06.27.1c.08.04.15.09.2.14s.1.1.14.15h.01v-.36h.78v2.51ZM10.14,35.44c0,.09.02.18.05.26.03.08.08.15.14.21s.13.11.21.15c.08.04.17.06.27.06s.18-.02.26-.06c.08-.04.16-.09.22-.15.06-.06.11-.13.14-.21.03-.08.05-.17.05-.26s-.02-.18-.05-.26c-.03-.08-.08-.15-.14-.21-.06-.06-.13-.11-.22-.15-.08-.04-.17-.06-.26-.06-.1,0-.19.02-.27.06-.08.04-.15.09-.21.15s-.11.13-.14.21c-.03.08-.05.17-.05.26Z"/>
    <path class="cls-1" d="M14.68,36.48h-.01c-.09.15-.22.25-.38.32-.16.06-.32.1-.49.1-.13,0-.25-.02-.37-.05-.12-.04-.22-.09-.31-.16-.09-.07-.16-.16-.21-.27s-.08-.23-.08-.37c0-.16.03-.29.09-.4.06-.11.14-.2.24-.27s.21-.13.34-.17c.13-.04.26-.07.4-.09.14-.02.27-.03.41-.03.14,0,.26,0,.38,0,0-.15-.05-.27-.16-.36-.11-.09-.23-.13-.38-.13s-.27.03-.38.09c-.12.06-.22.14-.31.24l-.45-.46c.16-.15.34-.26.55-.33.21-.07.43-.11.65-.11.25,0,.45.03.61.09.16.06.29.15.38.27.1.12.16.27.2.44.04.17.06.38.06.61v1.39h-.78v-.34ZM14.47,35.63c-.06,0-.14,0-.24,0-.1,0-.19.02-.28.05s-.16.07-.23.12c-.06.05-.09.13-.09.22,0,.1.04.18.13.23.09.05.18.07.27.07.08,0,.16-.01.24-.03s.15-.05.21-.1c.06-.04.11-.09.14-.16.04-.06.05-.14.05-.23v-.18h-.21Z"/>
    <path class="cls-1" d="M17.85,34.76h-.75v.91c0,.08,0,.14.01.21,0,.06.02.12.05.16.03.05.07.08.12.1s.13.04.22.04c.04,0,.1,0,.18-.01.07,0,.13-.03.17-.06v.71c-.09.03-.19.06-.29.07s-.2.02-.3.02c-.14,0-.27-.01-.4-.04-.12-.03-.23-.08-.32-.14-.09-.07-.16-.15-.21-.26s-.08-.23-.08-.38v-1.3h-.54v-.68h.54v-.81h.85v.81h.75v.68Z"/>
    <path class="cls-1" d="M18.23,33.22c0-.14.05-.25.14-.35.1-.1.21-.14.35-.14s.25.05.35.14c.1.1.14.21.14.35s-.05.25-.14.35c-.1.1-.21.14-.35.14s-.25-.05-.35-.14-.14-.21-.14-.35ZM18.3,34.08h.85v2.74h-.85v-2.74Z"/>
    <path class="cls-1" d="M19.65,35.46c0-.22.04-.42.12-.59s.19-.33.32-.46c.14-.13.3-.22.49-.29.19-.07.38-.1.6-.1s.41.03.6.1c.19.07.35.16.49.29.14.13.25.28.32.46s.12.37.12.59-.04.42-.12.59-.19.33-.32.46c-.14.13-.3.22-.49.29-.19.07-.39.1-.6.1s-.41-.03-.6-.1c-.19-.07-.35-.16-.49-.29-.14-.13-.25-.28-.32-.46s-.12-.37-.12-.59ZM20.5,35.46c0,.21.06.38.18.5.12.13.29.19.5.19s.38-.06.5-.19c.12-.13.18-.3.18-.5s-.06-.38-.18-.5c-.12-.13-.29-.19-.5-.19s-.38.06-.5.19c-.12.13-.18.3-.18.5Z"/>
    <path class="cls-1" d="M23.2,34.08h.81v.37h.01c.03-.05.06-.11.11-.16s.11-.1.18-.14c.07-.04.14-.08.23-.1.09-.03.18-.04.28-.04.21,0,.39.03.52.1.13.07.23.16.31.27.07.12.12.25.15.41s.04.33.04.51v1.51h-.85v-1.34c0-.08,0-.16,0-.25,0-.08-.02-.16-.05-.23-.03-.07-.07-.13-.13-.17-.06-.04-.14-.07-.25-.07s-.2.02-.27.06c-.07.04-.12.09-.16.16-.04.07-.06.14-.07.22-.01.08-.02.17-.02.26v1.37h-.85v-2.74Z"/>
    <path class="cls-1" d="M28.25,32.83h2.68v.81h-1.8v.81h1.67v.81h-1.67v1.56h-.88v-4Z"/>
    <path class="cls-1" d="M31.4,33.22c0-.14.05-.25.14-.35.1-.1.21-.14.35-.14s.25.05.35.14c.1.1.14.21.14.35s-.05.25-.14.35c-.1.1-.21.14-.35.14s-.25-.05-.35-.14-.14-.21-.14-.35ZM31.47,34.08h.85v2.74h-.85v-2.74Z"/>
    <path class="cls-1" d="M32.92,34.08h.81v.37h.01c.03-.05.06-.11.11-.16s.11-.1.18-.14c.07-.04.14-.08.23-.1.09-.03.18-.04.28-.04.21,0,.39.03.52.1.13.07.23.16.31.27.07.12.12.25.15.41s.04.33.04.51v1.51h-.85v-1.34c0-.08,0-.16,0-.25,0-.08-.02-.16-.05-.23-.03-.07-.07-.13-.13-.17-.06-.04-.14-.07-.25-.07s-.2.02-.27.06c-.07.04-.12.09-.16.16-.04.07-.06.14-.07.22-.01.08-.02.17-.02.26v1.37h-.85v-2.74Z"/>
    <path class="cls-1" d="M37.89,36.48h-.01c-.09.15-.22.25-.38.32-.16.06-.32.1-.49.1-.13,0-.25-.02-.37-.05-.12-.04-.22-.09-.31-.16-.09-.07-.16-.16-.21-.27s-.08-.23-.08-.37c0-.16.03-.29.09-.4.06-.11.14-.2.24-.27s.21-.13.34-.17c.13-.04.26-.07.4-.09.14-.02.27-.03.41-.03.14,0,.26,0,.38,0,0-.15-.05-.27-.16-.36-.11-.09-.23-.13-.38-.13s-.27.03-.38.09c-.12.06-.22.14-.31.24l-.45-.46c.16-.15.34-.26.55-.33.21-.07.43-.11.65-.11.25,0,.45.03.61.09.16.06.29.15.38.27.1.12.16.27.2.44.04.17.06.38.06.61v1.39h-.78v-.34ZM37.68,35.63c-.06,0-.14,0-.24,0-.1,0-.19.02-.28.05s-.16.07-.23.12c-.06.05-.09.13-.09.22,0,.1.04.18.13.23.09.05.18.07.27.07.08,0,.16-.01.24-.03s.15-.05.21-.1c.06-.04.11-.09.14-.16.04-.06.05-.14.05-.23v-.18h-.21Z"/>
    <path class="cls-1" d="M39.2,34.08h.81v.37h.01c.03-.05.06-.11.11-.16s.11-.1.18-.14c.07-.04.14-.08.23-.1.09-.03.18-.04.28-.04.21,0,.39.03.52.1.13.07.23.16.31.27.07.12.12.25.15.41s.04.33.04.51v1.51h-.85v-1.34c0-.08,0-.16,0-.25,0-.08-.02-.16-.05-.23-.03-.07-.07-.13-.13-.17-.06-.04-.14-.07-.25-.07s-.2.02-.27.06c-.07.04-.12.09-.16.16-.04.07-.06.14-.07.22-.01.08-.02.17-.02.26v1.37h-.85v-2.74Z"/>
    <path class="cls-1" d="M44.3,34.97c-.04-.06-.1-.11-.17-.15-.08-.04-.16-.06-.24-.06-.21,0-.38.06-.5.19-.12.13-.18.3-.18.5s.06.38.18.5c.12.13.29.19.5.19.09,0,.17-.02.24-.06.07-.04.13-.09.17-.15l.56.59c-.13.13-.29.23-.47.29-.18.05-.35.08-.51.08-.21,0-.41-.03-.6-.1-.19-.07-.35-.16-.49-.29-.14-.13-.25-.28-.33-.46s-.12-.37-.12-.59.04-.42.12-.59.19-.33.33-.46c.14-.13.3-.22.49-.29.19-.07.38-.1.6-.1.16,0,.33.03.51.08.18.05.33.15.47.29l-.56.59Z"/>
    <path class="cls-1" d="M47.76,36.35c-.14.17-.31.31-.51.4s-.42.14-.64.14-.41-.03-.6-.1c-.19-.07-.35-.16-.49-.29-.14-.13-.25-.28-.33-.46s-.12-.37-.12-.59.04-.42.12-.59.19-.33.33-.46c.14-.13.3-.22.49-.29.19-.07.38-.1.6-.1.2,0,.37.03.53.1.16.07.3.16.41.29.11.13.2.28.26.46.06.18.09.37.09.59v.27h-1.96c.03.16.11.29.22.39.11.1.25.14.42.14.14,0,.26-.03.35-.09.1-.06.18-.14.25-.24l.59.43ZM47.04,35.15c0-.14-.04-.27-.14-.37-.1-.1-.22-.15-.38-.15-.09,0-.18.01-.25.04-.07.03-.13.07-.18.12s-.09.1-.12.16c-.03.06-.04.13-.05.2h1.12Z"/>
    <path class="cls-1" d="M52.43,32.59v5.65h-.71v-5.65h.71Z"/>
    <path class="cls-1" d="M56.09,32.83h.73l1.74,4h-.99l-.34-.85h-1.55l-.33.85h-.97l1.73-4ZM56.43,33.99l-.49,1.24h.98l-.49-1.24Z"/>
    <path class="cls-1" d="M58.75,35.98l1.42-1.22h-1.39v-.68h2.37v.81l-1.49,1.25h1.52v.68h-2.44v-.85Z"/>
    <path class="cls-1" d="M64.77,32.83h.73l1.74,4h-.99l-.34-.85h-1.55l-.33.85h-.97l1.73-4ZM65.11,33.99l-.49,1.24h.98l-.49-1.24Z"/>
    <path class="cls-1" d="M67.61,32.56h.85v1.82h.01c.1-.13.22-.23.38-.28.15-.05.32-.08.49-.08.2,0,.37.04.52.12s.29.19.39.32c.11.14.19.29.25.47.06.18.09.36.09.55,0,.21-.03.4-.1.57s-.16.32-.27.45c-.12.13-.26.22-.43.29-.17.07-.35.1-.55.1-.1,0-.19-.01-.28-.04s-.17-.06-.24-.1c-.07-.04-.14-.09-.19-.14s-.1-.1-.13-.15h-.01v.36h-.78v-4.27ZM68.39,35.46c0,.21.06.38.18.5.12.13.29.19.5.19s.38-.06.5-.19c.12-.13.18-.3.18-.5s-.06-.38-.18-.5c-.12-.13-.29-.19-.5-.19s-.38.06-.5.19c-.12.13-.18.3-.18.5Z"/>
    <path class="cls-1" d="M72.64,34.89c-.12-.15-.29-.23-.49-.23-.07,0-.14.02-.21.05-.07.03-.1.09-.1.17,0,.07.04.12.1.15.07.03.16.06.27.08s.22.05.34.08.24.07.34.13c.11.06.2.14.26.25.07.1.1.24.1.42s-.04.32-.12.44c-.08.12-.18.21-.3.28-.12.07-.26.12-.41.15s-.3.04-.45.04c-.19,0-.39-.03-.58-.08-.2-.05-.36-.15-.5-.29l.51-.57c.08.1.17.17.26.22s.21.08.34.08c.1,0,.19-.01.27-.04s.12-.08.12-.16c0-.07-.04-.12-.1-.16s-.16-.07-.27-.09-.22-.05-.34-.08c-.12-.03-.24-.07-.34-.13-.11-.06-.2-.14-.27-.24s-.1-.24-.1-.42c0-.16.03-.3.1-.42.07-.12.15-.21.26-.29s.23-.13.37-.17c.14-.04.28-.05.42-.05.18,0,.36.03.55.08.18.05.34.15.47.28l-.52.51Z"/>
    <path class="cls-1" d="M75.52,32.83h.88v3.18h1.63v.81h-2.51v-4Z"/>
    <path class="cls-1" d="M80.13,36.48h-.01c-.09.15-.22.25-.38.32-.16.06-.32.1-.49.1-.13,0-.25-.02-.37-.05-.12-.04-.22-.09-.31-.16-.09-.07-.16-.16-.21-.27s-.08-.23-.08-.37c0-.16.03-.29.09-.4.06-.11.14-.2.24-.27s.21-.13.34-.17c.13-.04.26-.07.4-.09.14-.02.27-.03.41-.03.14,0,.26,0,.38,0,0-.15-.05-.27-.16-.36-.11-.09-.23-.13-.38-.13s-.27.03-.38.09c-.12.06-.22.14-.31.24l-.45-.46c.16-.15.34-.26.55-.33.21-.07.43-.11.65-.11.25,0,.45.03.61.09.16.06.29.15.38.27.1.12.16.27.2.44.04.17.06.38.06.61v1.39h-.78v-.34ZM79.92,35.63c-.06,0-.14,0-.24,0-.1,0-.19.02-.28.05s-.16.07-.23.12c-.06.05-.09.13-.09.22,0,.1.04.18.13.23.09.05.18.07.27.07.08,0,.16-.01.24-.03s.15-.05.21-.1c.06-.04.11-.09.14-.16.04-.06.05-.14.05-.23v-.18h-.21Z"/>
    <path class="cls-1" d="M81.11,34.08h.9l.56,1.72h.01l.47-1.72h.93l.51,1.72h.01l.51-1.72h.86l-.98,2.74h-.84l-.57-1.82h-.01l-.51,1.82h-.85l-1-2.74Z"/>
    <path class="cls-1" d="M87.96,32.83h2.68v.81h-1.8v.81h1.67v.81h-1.67v1.56h-.88v-4Z"/>
    <path class="cls-1" d="M91.11,33.22c0-.14.05-.25.14-.35.1-.1.21-.14.35-.14s.25.05.35.14c.1.1.14.21.14.35s-.05.25-.14.35c-.1.1-.21.14-.35.14s-.25-.05-.35-.14-.14-.21-.14-.35ZM91.17,34.08h.85v2.74h-.85v-2.74Z"/>
    <path class="cls-1" d="M92.63,34.08h.85v.44h.01c.09-.17.2-.3.32-.38.12-.08.28-.13.47-.13.05,0,.1,0,.15,0s.09.01.14.02v.77c-.06-.02-.12-.03-.18-.04-.06,0-.12-.01-.18-.01-.16,0-.29.02-.38.07-.09.04-.17.11-.22.19s-.08.18-.1.29c-.02.11-.02.24-.02.37v1.15h-.85v-2.74Z"/>
    <path class="cls-1" d="M95.02,34.08h.81v.37h.01c.03-.05.06-.11.11-.16s.11-.1.18-.14c.07-.04.14-.08.23-.1.09-.03.18-.04.28-.04.19,0,.36.04.51.12s.26.2.34.37c.1-.18.22-.3.36-.38.14-.08.31-.11.51-.11.18,0,.34.03.47.09.13.06.23.15.3.25s.13.23.16.38c.03.14.05.3.05.47v1.62h-.85v-1.6c0-.13-.03-.24-.08-.33-.05-.09-.15-.14-.29-.14-.1,0-.18.02-.25.05-.07.03-.12.08-.16.13-.04.06-.07.12-.08.2s-.03.15-.03.24v1.45h-.85v-1.45s0-.11,0-.18-.02-.14-.04-.2c-.02-.06-.06-.12-.11-.16s-.13-.07-.22-.07c-.11,0-.2.02-.27.06-.07.04-.12.09-.16.16-.04.07-.06.14-.07.22-.01.08-.02.17-.02.26v1.37h-.85v-2.74Z"/>
    <path class="cls-1" d="M102.29,32.59v5.65h-.71v-5.65h.71Z"/>
  </g>
  <g>
    <path class="cls-1" d="M1.24,39.61h1.33l.92,2.61h.01l.93-2.61h1.33v4h-.88v-3.07h-.01l-1.05,3.07h-.67l-1.01-3.07h-.01v3.07h-.88v-4Z"/>
    <path class="cls-1" d="M8.18,43.26h-.01c-.09.15-.22.25-.38.32-.16.06-.32.1-.49.1-.13,0-.25-.02-.37-.05-.12-.04-.22-.09-.31-.16-.09-.07-.16-.16-.21-.27s-.08-.23-.08-.37c0-.16.03-.29.09-.4.06-.11.14-.2.24-.27s.21-.13.34-.17c.13-.04.26-.07.4-.09.14-.02.27-.03.41-.03.14,0,.26,0,.38,0,0-.15-.05-.27-.16-.36-.11-.09-.23-.13-.38-.13s-.27.03-.38.09c-.12.06-.22.14-.31.24l-.45-.46c.16-.15.34-.26.55-.33.21-.07.43-.11.65-.11.25,0,.45.03.61.09.16.06.29.15.38.27.1.12.16.27.2.44.04.17.06.38.06.61v1.39h-.78v-.34ZM7.97,42.4c-.06,0-.14,0-.24,0-.1,0-.19.02-.28.05s-.16.07-.23.12c-.06.05-.09.13-.09.22,0,.1.04.18.13.23.09.05.18.07.27.07.08,0,.16-.01.24-.03s.15-.05.21-.1c.06-.04.11-.09.14-.16.04-.06.05-.14.05-.23v-.18h-.21Z"/>
    <path class="cls-1" d="M11.05,41.67c-.12-.15-.29-.23-.49-.23-.07,0-.14.02-.21.05-.07.03-.1.09-.1.17,0,.07.04.12.1.15.07.03.16.06.27.08s.22.05.34.08.24.07.34.13c.11.06.2.14.26.25.07.1.1.24.1.42s-.04.32-.12.44c-.08.12-.18.21-.3.28-.12.07-.26.12-.41.15s-.3.04-.45.04c-.19,0-.39-.03-.58-.08-.2-.05-.36-.15-.5-.29l.51-.57c.08.1.17.17.26.22s.21.08.34.08c.1,0,.19-.01.27-.04s.12-.08.12-.16c0-.07-.04-.12-.1-.16s-.16-.07-.27-.09-.22-.05-.34-.08c-.12-.03-.24-.07-.34-.13-.11-.06-.2-.14-.27-.24s-.1-.24-.1-.42c0-.16.03-.3.1-.42.07-.12.15-.21.26-.29s.23-.13.37-.17c.14-.04.28-.05.42-.05.18,0,.36.03.55.08.18.05.34.15.47.28l-.52.51Z"/>
    <path class="cls-1" d="M13.66,41.67c-.12-.15-.29-.23-.49-.23-.07,0-.14.02-.21.05-.07.03-.1.09-.1.17,0,.07.04.12.1.15.07.03.16.06.27.08s.22.05.34.08.24.07.34.13c.11.06.2.14.26.25.07.1.1.24.1.42s-.04.32-.12.44c-.08.12-.18.21-.3.28-.12.07-.26.12-.41.15s-.3.04-.45.04c-.19,0-.39-.03-.58-.08-.2-.05-.36-.15-.5-.29l.51-.57c.08.1.17.17.26.22s.21.08.34.08c.1,0,.19-.01.27-.04s.12-.08.12-.16c0-.07-.04-.12-.1-.16s-.16-.07-.27-.09-.22-.05-.34-.08c-.12-.03-.24-.07-.34-.13-.11-.06-.2-.14-.27-.24s-.1-.24-.1-.42c0-.16.03-.3.1-.42.07-.12.15-.21.26-.29s.23-.13.37-.17c.14-.04.28-.05.42-.05.18,0,.36.03.55.08.18.05.34.15.47.28l-.52.51Z"/>
    <path class="cls-1" d="M17.27,40.39h-1.14v-.78h3.16v.78h-1.14v3.22h-.88v-3.22Z"/>
    <path class="cls-1" d="M18.9,42.23c0-.22.04-.42.12-.59s.19-.33.32-.46c.14-.13.3-.22.49-.29.19-.07.38-.1.6-.1s.41.03.6.1c.19.07.35.16.49.29.14.13.25.28.32.46s.12.37.12.59-.04.42-.12.59-.19.33-.32.46c-.14.13-.3.22-.49.29-.19.07-.39.1-.6.1s-.41-.03-.6-.1c-.19-.07-.35-.16-.49-.29-.14-.13-.25-.28-.32-.46s-.12-.37-.12-.59ZM19.75,42.23c0,.21.06.38.18.5.12.13.29.19.5.19s.38-.06.5-.19c.12-.13.18-.3.18-.5s-.06-.38-.18-.5c-.12-.13-.29-.19-.5-.19s-.38.06-.5.19c-.12.13-.18.3-.18.5Z"/>
    <path class="cls-1" d="M22.45,40.86h.85v.44h.01c.09-.17.2-.3.32-.38.12-.08.28-.13.47-.13.05,0,.1,0,.15,0s.09.01.14.02v.77c-.06-.02-.12-.03-.18-.04-.06,0-.12-.01-.18-.01-.16,0-.29.02-.38.07-.09.04-.17.11-.22.19s-.08.18-.1.29c-.02.11-.02.24-.02.37v1.15h-.85v-2.74Z"/>
    <path class="cls-1" d="M26.62,41.54h-.75v.91c0,.08,0,.14.01.21,0,.06.02.12.05.16.03.05.07.08.12.1s.13.04.22.04c.04,0,.1,0,.18-.01.07,0,.13-.03.17-.06v.71c-.09.03-.19.06-.29.07s-.2.02-.3.02c-.14,0-.27-.01-.4-.04-.12-.03-.23-.08-.32-.14-.09-.07-.16-.15-.21-.26s-.08-.23-.08-.38v-1.3h-.54v-.68h.54v-.81h.85v.81h.75v.68Z"/>
    <path class="cls-1" d="M29.4,39.37v5.65h-.71v-5.65h.71Z"/>
    <path class="cls-1" d="M31.78,39.61h.88v3.18h1.63v.81h-2.51v-4Z"/>
    <path class="cls-1" d="M36.4,43.26h-.01c-.09.15-.22.25-.38.32-.16.06-.32.1-.49.1-.13,0-.25-.02-.37-.05-.12-.04-.22-.09-.31-.16-.09-.07-.16-.16-.21-.27s-.08-.23-.08-.37c0-.16.03-.29.09-.4.06-.11.14-.2.24-.27s.21-.13.34-.17c.13-.04.26-.07.4-.09.14-.02.27-.03.41-.03.14,0,.26,0,.38,0,0-.15-.05-.27-.16-.36-.11-.09-.23-.13-.38-.13s-.27.03-.38.09c-.12.06-.22.14-.31.24l-.45-.46c.16-.15.34-.26.55-.33.21-.07.43-.11.65-.11.25,0,.45.03.61.09.16.06.29.15.38.27.1.12.16.27.2.44.04.17.06.38.06.61v1.39h-.78v-.34ZM36.19,42.4c-.06,0-.14,0-.24,0-.1,0-.19.02-.28.05s-.16.07-.23.12c-.06.05-.09.13-.09.22,0,.1.04.18.13.23.09.05.18.07.27.07.08,0,.16-.01.24-.03s.15-.05.21-.1c.06-.04.11-.09.14-.16.04-.06.05-.14.05-.23v-.18h-.21Z"/>
    <path class="cls-1" d="M37.38,40.86h.9l.56,1.72h.01l.47-1.72h.93l.51,1.72h.01l.51-1.72h.86l-.98,2.74h-.84l-.57-1.82h-.01l-.51,1.82h-.85l-1-2.74Z"/>
    <path class="cls-1" d="M44.22,39.61h2.68v.81h-1.8v.81h1.67v.81h-1.67v1.56h-.88v-4Z"/>
    <path class="cls-1" d="M47.37,40c0-.14.05-.25.14-.35.1-.1.21-.14.35-.14s.25.05.35.14c.1.1.14.21.14.35s-.05.25-.14.35c-.1.1-.21.14-.35.14s-.25-.05-.35-.14-.14-.21-.14-.35ZM47.44,40.86h.85v2.74h-.85v-2.74Z"/>
    <path class="cls-1" d="M48.9,40.86h.85v.44h.01c.09-.17.2-.3.32-.38.12-.08.28-.13.47-.13.05,0,.1,0,.15,0s.09.01.14.02v.77c-.06-.02-.12-.03-.18-.04-.06,0-.12-.01-.18-.01-.16,0-.29.02-.38.07-.09.04-.17.11-.22.19s-.08.18-.1.29c-.02.11-.02.24-.02.37v1.15h-.85v-2.74Z"/>
    <path class="cls-1" d="M51.29,40.86h.81v.37h.01c.03-.05.06-.11.11-.16s.11-.1.18-.14c.07-.04.14-.08.23-.1.09-.03.18-.04.28-.04.19,0,.36.04.51.12s.26.2.34.37c.1-.18.22-.3.36-.38.14-.08.31-.11.51-.11.18,0,.34.03.47.09.13.06.23.15.3.25s.13.23.16.38c.03.14.05.3.05.47v1.62h-.85v-1.6c0-.13-.03-.24-.08-.33-.05-.09-.15-.14-.29-.14-.1,0-.18.02-.25.05-.07.03-.12.08-.16.13-.04.06-.07.12-.08.2s-.03.15-.03.24v1.45h-.85v-1.45s0-.11,0-.18-.02-.14-.04-.2c-.02-.06-.06-.12-.11-.16s-.13-.07-.22-.07c-.11,0-.2.02-.27.06-.07.04-.12.09-.16.16-.04.07-.06.14-.07.22-.01.08-.02.17-.02.26v1.37h-.85v-2.74Z"/>
    <path class="cls-1" d="M58.02,39.61h.88v3.18h1.63v.81h-2.51v-4Z"/>
    <path class="cls-1" d="M63.51,43.13c-.14.17-.31.31-.51.4s-.42.14-.64.14-.41-.03-.6-.1c-.19-.07-.35-.16-.49-.29-.14-.13-.25-.28-.33-.46s-.12-.37-.12-.59.04-.42.12-.59.19-.33.33-.46c.14-.13.3-.22.49-.29.19-.07.38-.1.6-.1.2,0,.37.03.53.1.16.07.3.16.41.29.11.13.2.28.26.46.06.18.09.37.09.59v.27h-1.96c.03.16.11.29.22.39.11.1.25.14.42.14.14,0,.26-.03.35-.09.1-.06.18-.14.25-.24l.59.43ZM62.79,41.92c0-.14-.04-.27-.14-.37-.1-.1-.22-.15-.38-.15-.09,0-.18.01-.25.04-.07.03-.13.07-.18.12s-.09.1-.12.16c-.03.06-.04.13-.05.2h1.12Z"/>
    <path class="cls-1" d="M64.15,40.86h.81v.37h.01c.03-.05.06-.11.11-.16s.11-.1.18-.14c.07-.04.14-.08.23-.1.09-.03.18-.04.28-.04.21,0,.39.03.52.1.13.07.23.16.31.27.07.12.12.25.15.41s.04.33.04.51v1.51h-.85v-1.34c0-.08,0-.16,0-.25,0-.08-.02-.16-.05-.23-.03-.07-.07-.13-.13-.17-.06-.04-.14-.07-.25-.07s-.2.02-.27.06c-.07.04-.12.09-.16.16-.04.07-.06.14-.07.22-.01.08-.02.17-.02.26v1.37h-.85v-2.74Z"/>
    <path class="cls-1" d="M70.27,43.61h-.78v-.36h-.01s-.08.1-.13.15-.12.1-.19.14c-.07.04-.15.08-.24.1-.09.03-.18.04-.27.04-.2,0-.39-.03-.55-.1-.17-.07-.31-.17-.43-.29-.12-.13-.21-.28-.27-.45-.06-.17-.1-.36-.1-.57,0-.19.03-.38.09-.55.06-.17.14-.33.25-.47.11-.13.24-.24.39-.32s.33-.12.53-.12c.18,0,.34.03.49.08.15.05.28.15.38.28h.01v-1.82h.85v4.27ZM69.49,42.23c0-.21-.06-.38-.18-.5-.12-.13-.29-.19-.5-.19s-.38.06-.5.19c-.12.13-.18.3-.18.5s.06.38.18.5c.12.13.29.19.5.19s.38-.06.5-.19c.12-.13.18-.3.18-.5Z"/>
    <path class="cls-1" d="M70.89,40c0-.14.05-.25.14-.35.1-.1.21-.14.35-.14s.25.05.35.14c.1.1.14.21.14.35s-.05.25-.14.35c-.1.1-.21.14-.35.14s-.25-.05-.35-.14-.14-.21-.14-.35ZM70.96,40.86h.85v2.74h-.85v-2.74Z"/>
    <path class="cls-1" d="M72.42,40.86h.81v.37h.01c.03-.05.06-.11.11-.16s.11-.1.18-.14c.07-.04.14-.08.23-.1.09-.03.18-.04.28-.04.21,0,.39.03.52.1.13.07.23.16.31.27.07.12.12.25.15.41s.04.33.04.51v1.51h-.85v-1.34c0-.08,0-.16,0-.25,0-.08-.02-.16-.05-.23-.03-.07-.07-.13-.13-.17-.06-.04-.14-.07-.25-.07s-.2.02-.27.06c-.07.04-.12.09-.16.16-.04.07-.06.14-.07.22-.01.08-.02.17-.02.26v1.37h-.85v-2.74Z"/>
    <path class="cls-1" d="M78.54,43.37c0,.52-.13.91-.39,1.18-.26.27-.66.4-1.19.4-.25,0-.49-.03-.72-.08-.24-.05-.46-.16-.65-.32l.47-.7c.13.11.27.2.42.26.14.06.3.1.48.1.26,0,.45-.06.57-.19s.18-.29.18-.48v-.26h-.01c-.1.13-.22.22-.36.28-.15.05-.28.08-.41.08-.2,0-.39-.04-.55-.1-.17-.07-.31-.17-.43-.29-.12-.13-.21-.28-.27-.45-.06-.17-.1-.36-.1-.57,0-.18.03-.36.09-.53s.14-.33.25-.46c.11-.13.24-.24.39-.32s.33-.12.53-.12c.12,0,.23.01.33.04s.19.06.27.1c.08.04.15.09.2.14s.1.1.14.15h.01v-.36h.78v2.51ZM76.4,42.22c0,.09.02.18.05.26.03.08.08.15.14.21s.13.11.21.15c.08.04.17.06.27.06s.18-.02.26-.06c.08-.04.16-.09.22-.15.06-.06.11-.13.14-.21.03-.08.05-.17.05-.26s-.02-.18-.05-.26c-.03-.08-.08-.15-.14-.21-.06-.06-.13-.11-.22-.15-.08-.04-.17-.06-.26-.06-.1,0-.19.02-.27.06-.08.04-.15.09-.21.15s-.11.13-.14.21c-.03.08-.05.17-.05.26Z"/>
    <path class="cls-1" d="M81.57,39.37v5.65h-.71v-5.65h.71Z"/>
  </g>
  <polygon class="cls-3" points="88.56 1.17 89.14 1.17 89.14 2.7 89.61 2.7 89.61 1.17 90.2 1.17 90.2 .76 88.57 .76 88.56 1.17"/>
  <g>
    <path class="cls-3" d="M90.54,2.7V.76h.42l.71,1.15h-.3s.72-1.15.72-1.15h.41s0,1.94,0,1.94h-.46s0-.61,0-.61c0-.17,0-.32.01-.45,0-.13.02-.26.04-.4l.05.15-.54.83h-.18l-.53-.83.05-.15c.02.12.03.25.04.38,0,.13.01.28.01.46v.6h-.46Z"/>
    <path class="cls-2" d="M49.74,25.29c0,1.09.75,1.41,1.46,1.41,1.4,0,1.8-1,1.8-1l-.07-.05s-.29.23-.62.23c-.57,0-.71-.52-.73-1.07-.05-1.43-.07-2.91-.07-4.35,0-1.72.07-3.43.07-5.07,0-1.01-1.01-1.19-2.09-1.2l-.05.06s.21.33.29,1.82c.05,1.04.08,2.5.08,4.03,0,1.89-.08,3.87-.08,5.2M42.65,24.29c0-1.72,1.92-2.01,2.59-2.13,0,.83-.05,1.69-.05,2.34,0,.62-.9,1.12-1.45,1.12s-1.09-.36-1.09-1.33M40.82,24.6c0,1.19.79,2.18,2.16,2.18,1.02,0,1.84-.57,2.21-1.25l.07.03c.02.86.71,1.13,1.38,1.13,1.4,0,1.8-1,1.8-1l-.07-.05s-.29.23-.62.23c-.8,0-.81-1.17-.81-1.8v-.19c0-.89.05-1.98.05-2.84,0-1.48-.31-2.86-2.61-2.86-1.43,0-2.75,1.01-3.01,1.98l.07.07c.6-.54,1.44-.97,2.24-.97,1.25,0,1.56.76,1.56,2.13v.15c-1.77.03-4.42.73-4.42,3.09M35.33,23.63c0,1.82.55,3.15,2.45,3.15s2.52-1.87,2.52-1.87l-.08-.07s-.93.76-1.72.76c-1.25,0-1.4-1.36-1.4-2.97,0-1.24.05-3.15.05-3.15,0,0,1.14.03,1.32.03.58,0,.91-.15.91-.83,0-.08,0-.34-.02-.44,0,0-.21.16-.88.16h-1.33l.33-1.77-.37-.13c-.21.54-1.75,1.9-2.45,1.9v.68c.63.19.75.26.75,1.64,0,.62-.07,1.84-.07,2.89ZM30.53,25.38c0,.97.75,1.31,1.46,1.31,1.4,0,1.8-1,1.8-1l-.07-.05s-.29.23-.62.23c-.8,0-.81-.97-.81-1.71,0-1.2.08-3.15.08-4.87,0-.65-.65-1.04-1.38-1.04-.26,0-.52.07-.79.15.02,0,.39.5.39,4.21,0,.91-.07,1.85-.07,2.78M31.43,16.87c.6,0,1.1-.5,1.1-1.09s-.5-1.1-1.1-1.1-1.09.5-1.09,1.1.5,1.09,1.09,1.09M22.85,25.43v-2.03c0-.76,0-1.53.08-2.23.15-1.24.88-1.97,1.85-1.97,1.12,0,1.75,1.54,1.75,3.04,0,1.84-.84,3.71-2.6,3.71-.6,0-1.09-.1-1.09-.52M21.05,29.05c0,1.01.39,1.25.99,1.25.34,0,.73-.1,1.14-.16,0,0-.29-.86-.29-2.73,0-.24,0-.5.02-.78.28.05.5.08.81.08,3.23,0,4.78-2.06,4.78-4.84,0-2.06-1.14-3.7-2.99-3.7-1.98,0-2.62,1.28-2.62,1.28l-.08-.03c.02-.06.03-.16.03-.27,0-.5-.57-.89-1.31-.89-.26,0-.52.07-.8.15.33.86.37,2.7.37,4.22,0,3.23-.05,4.84-.05,6.43M13.83,24.29c0-1.72,1.92-2.01,2.59-2.13,0,.83-.05,1.69-.05,2.34,0,.62-.89,1.12-1.45,1.12s-1.09-.36-1.09-1.33M12,24.6c0,1.19.79,2.18,2.16,2.18,1.02,0,1.84-.57,2.21-1.25l.07.03c.02.86.71,1.13,1.38,1.13,1.4,0,1.8-1,1.8-1l-.07-.05s-.29.23-.62.23c-.8,0-.81-1.17-.81-1.8v-.19c0-.89.05-1.98.05-2.84,0-1.48-.31-2.86-2.61-2.86-1.43,0-2.75,1.01-3.01,1.98l.07.07c.6-.54,1.45-.97,2.24-.97,1.25,0,1.56.76,1.56,2.13v.15c-1.77.03-4.42.73-4.42,3.09M.89,21.24c0,2.83,1.75,5.54,5.6,5.54,2.08,0,3.87-1.25,4.17-2.71l-.05-.05c-1.12.94-2.44,1.33-3.7,1.33-2.7,0-4.03-2.42-4.03-4.89,0-3.12,1.67-4.63,3.48-4.63,1.2,0,2.47.65,3.3,1.93h.1c.31-.32.65-.94.65-1.3,0-.96-2.16-1.54-3.64-1.54-3.7,0-5.88,3.15-5.88,6.32"/>
    <path class="cls-2" d="M80.41,12.29c.39.08.81.16,1.15.16.57,0,1.02-.23,1.02-1.1,0-1.54-.06-2.65-.06-4.11s1.07-2.32,1.95-2.32c1.4,0,1.43,1.07,1.43,2.19,0,1.66-.05,2.63-.05,4.03,0,.97.75,1.31,1.46,1.31,1.4,0,1.8-1,1.8-1l-.07-.05s-.29.23-.62.23c-.8,0-.81-.98-.81-1.71,0-1.4.07-2.47.07-3.66s-.23-2.34-2.37-2.34c-1.17,0-2.47.55-2.84,1.4l-.07-.02s.07-.19.07-.41c0-.5-.52-.89-1.27-.89-.26,0-.52.07-.8.15,0,0,.24.15.32,1.72.03.78.07,1.62.07,2.44,0,2.91-.28,3.93-.39,3.98M73.52,10.05c0-1.72,1.92-2.01,2.58-2.13,0,.83-.05,1.69-.05,2.34,0,.62-.89,1.12-1.45,1.12s-1.09-.36-1.09-1.33M71.69,10.36c0,1.19.8,2.18,2.16,2.18,1.02,0,1.84-.57,2.21-1.25l.07.03c.02.86.71,1.14,1.38,1.14,1.4,0,1.8-1,1.8-1l-.07-.05s-.29.23-.62.23c-.8,0-.81-1.17-.81-1.8v-.19c0-.89.05-1.98.05-2.84,0-1.48-.31-2.86-2.61-2.86-1.43,0-2.75,1.01-3.01,1.98l.07.07c.6-.54,1.44-.98,2.24-.98,1.25,0,1.56.76,1.56,2.13v.15c-1.77.03-4.42.73-4.42,3.09M66.86,9.08c-1.23,0-1.72-1.09-1.72-2.34,0-1.09.7-2,1.59-2,1.24,0,1.72,1.09,1.72,2.34,0,1.09-.68,2-1.59,2M63.37,13.83c0,.91,1.14,2.19,3.33,2.19s3.88-1.13,3.88-2.68c0-2.81-4.92-1.79-4.92-3.01,0-.11.1-.36.24-.57.23.03.47.03.75.03,2.11,0,3.62-1.3,3.62-3.07,0-.91-.33-1.61-.94-2.08.78-.18,1.66-.63,1.66-1.44,0-.63-.65-.62-1.22-.68-.08.96-.31,1.71-1.15,1.74-.46-.16-1.02-.26-1.66-.26-2.11,0-3.62,1.31-3.62,3.07,0,1.37.68,2.24,1.98,2.58-.31.28-.76.81-.76,1.48,0,2.37,4.52,1.41,4.52,2.82,0,.93-1.02,1.35-1.98,1.35-1.8,0-2.29-1.43-2.34-2.21-.55,0-1.38-.02-1.38.73M57.54,11.2c0,1.01.42,1.25,1.02,1.25.34,0,.73-.1,1.14-.16-.03-.02-.37-.6-.37-3.8,0-1.8.36-3.12,1.62-3.12.37,0,.78.19,1.3.46l.08-.03c.13-.34.2-.8.2-1.15s-.16-.63-.8-.63c-.88,0-2,.63-2.45,1.65l-.07-.02s.11-.36.11-.6c0-.67-.57-1.04-1.31-1.04-.26,0-.52.07-.8.15.06.06.41.92.41,4.22,0,.89-.08,1.85-.08,2.83M49.75,8.15c0-1.74.68-3.48,2.13-3.48,1.56,0,2.32,1.71,2.32,3.41,0,1.85-.7,3.7-2.15,3.7-1.54,0-2.31-1.8-2.31-3.64M47.77,8.43c0,2.11,1.4,4.11,4.12,4.11s4.29-2.32,4.29-4.74c0-1.97-1.4-3.87-4.12-3.87s-4.29,2.18-4.29,4.5M35.05,12.29s.37.16.71.16c.57-.02.6-.24.6-1.12,0-2.66-.15-5.64-.15-8.17l.07-.06c.19.45.58,1.14,1.06,1.95l1.35,2.34c.52.89,1.07,1.85,1.45,2.71.05.1.2.11.34.11h.26s.52-1.71.99-2.6l1.64-3.14c.36-.68.65-1.2.75-1.46l.07.05v8.28c0,.88.49,1.1,1.05,1.1.34,0,.68-.1,1.09-.16-.28-2.16-.28-4.29-.28-6.42,0-1.36.02-3.59.02-5-.41-.08-.73-.08-.99-.08-.58,0-.93.24-1.25.88-1.06,2.05-2.65,4.93-2.99,5.85h-.08c-.11-.31-.39-.86-.76-1.53l-2.08-3.68c-.24-.44-.49-.85-.68-1.22-.15-.26-.7-.31-1.25-.31-.34,0-.75.07-.94.13,0,0,.08.13.16,1.71.03.78.1,4.2.1,5.17,0,4.05-.24,4.49-.24,4.49M24.83,9.38c0,1.82.55,3.15,2.45,3.15s2.52-1.87,2.52-1.87l-.08-.07s-.93.76-1.72.76c-1.25,0-1.4-1.36-1.4-2.97,0-1.24.05-3.15.05-3.15,0,0,1.14.03,1.32.03.58,0,.91-.15.91-.83,0-.08,0-.34-.02-.44,0,0-.21.16-.88.16h-1.33l.33-1.77-.37-.13c-.21.54-1.75,1.9-2.45,1.9v.68c.63.19.75.26.75,1.64,0,.62-.07,1.84-.07,2.89ZM18.27,11.2c0,1.01.42,1.25,1.02,1.25.34,0,.73-.1,1.14-.16-.03-.02-.37-.6-.37-3.8,0-1.8.36-3.12,1.62-3.12.37,0,.78.19,1.3.46l.08-.03c.13-.34.2-.8.2-1.15s-.16-.63-.8-.63c-.88,0-2,.63-2.45,1.65l-.07-.02s.11-.36.11-.6c0-.67-.57-1.04-1.31-1.04-.26,0-.52.07-.8.15.07.06.41.92.41,4.22,0,.89-.08,1.85-.08,2.83M10.16,8.15c0-1.74.68-3.48,2.13-3.48,1.56,0,2.32,1.71,2.32,3.41,0,1.85-.7,3.7-2.15,3.7-1.54,0-2.31-1.8-2.31-3.64M8.18,8.43c0,2.11,1.4,4.11,4.12,4.11s4.29-2.32,4.29-4.74c0-1.97-1.4-3.87-4.12-3.87s-4.29,2.18-4.29,4.5M1.52,12.29c.41.07.75.16,1.09.16.57,0,1.05-.23,1.05-1.1,0-1.04-.07-2.03-.07-2.94v-1.53s1.66.1,2.5.1.94-.44.97-1.2c0,0-.29.16-.96.16h-2.5c.02-1.64.03-3.41.03-4.1,0,0,1.23.26,3.09.26,1.17,0,1.22-.55,1.32-1.35,0,0-1.11.16-3.59.16H1.47s.08.13.16,1.7c.03.78.1,4.19.1,5.17,0,4.05-.21,4.5-.21,4.5"/>
  </g>
</svg>