<?xml version="1.0" encoding="UTF-8"?>
<svg id="Layer_1" data-name="Layer 1" xmlns="http://www.w3.org/2000/svg" viewBox="0 0 130.47 44.86">
  <defs>
    <style>
      .cls-1 {
        fill: #232156;
      }

      .cls-1, .cls-2, .cls-3 {
        stroke-width: 0px;
      }

      .cls-2 {
        fill: #2b62ae;
      }

      .cls-3 {
        fill: #232256;
      }
    </style>
  </defs>
  <g>
    <g>
      <path class="cls-1" d="M1.08,32.4h1.49c.21,0,.4.02.59.06.18.04.35.1.48.2.14.09.25.22.33.37s.12.35.12.59-.04.43-.11.59-.18.28-.31.38c-.13.09-.29.16-.47.2-.18.04-.38.06-.59.06h-.64v1.56h-.88v-4ZM1.96,34.09h.59c.08,0,.16,0,.23-.02.07-.02.14-.04.2-.08.06-.04.11-.08.14-.15.04-.06.05-.14.05-.23,0-.1-.02-.18-.07-.25-.05-.06-.11-.11-.18-.14-.07-.03-.16-.05-.25-.06-.09,0-.18-.01-.26-.01h-.45v.95Z"/>
      <path class="cls-1" d="M4.53,33.65h.85v.44h.01c.09-.17.2-.3.32-.38.12-.08.28-.13.47-.13.05,0,.1,0,.15,0s.09.01.14.02v.77c-.06-.02-.12-.03-.18-.04-.06,0-.12-.01-.18-.01-.16,0-.29.02-.38.07-.09.04-.17.11-.22.19s-.08.18-.1.29c-.02.11-.02.24-.02.37v1.15h-.85v-2.74Z"/>
      <path class="cls-1" d="M9.33,35.92c-.14.17-.31.31-.51.4s-.42.14-.64.14-.41-.03-.6-.1c-.19-.07-.35-.16-.49-.29-.14-.13-.25-.28-.33-.46s-.12-.37-.12-.59.04-.42.12-.59.19-.33.33-.46c.14-.13.3-.22.49-.29.19-.07.38-.1.6-.1.2,0,.37.03.53.1.16.07.3.16.41.29.11.13.2.28.26.46.06.18.09.37.09.59v.27h-1.96c.03.16.11.29.22.39.11.1.25.14.42.14.14,0,.26-.03.35-.09.1-.06.18-.14.25-.24l.59.43ZM8.62,34.71c0-.14-.04-.27-.14-.37-.1-.1-.22-.15-.38-.15-.09,0-.18.01-.25.04-.07.03-.13.07-.18.12s-.09.1-.12.16c-.03.06-.04.13-.05.2h1.12Z"/>
      <path class="cls-1" d="M11.21,35.33h-1.39v-.68h1.39v.68Z"/>
      <path class="cls-1" d="M13.73,33.38c-.07-.09-.17-.16-.29-.2-.12-.04-.24-.06-.35-.06-.06,0-.13,0-.2.02-.07.01-.13.04-.19.07-.06.03-.11.07-.15.13-.04.05-.06.12-.06.19,0,.12.04.21.13.28.09.06.2.12.34.16s.29.09.44.14c.16.04.31.11.44.19.14.08.25.19.34.33.09.14.14.33.14.56s-.04.42-.12.58c-.08.17-.19.3-.34.41-.14.11-.3.19-.49.24s-.38.08-.59.08c-.26,0-.5-.04-.72-.12-.22-.08-.43-.21-.62-.38l.63-.69c.09.12.2.21.34.28.14.07.28.1.43.1.07,0,.14,0,.22-.03.07-.02.14-.04.2-.08.06-.03.11-.08.14-.13.04-.05.05-.11.05-.19,0-.12-.05-.22-.14-.29-.09-.07-.21-.13-.35-.18-.14-.05-.29-.1-.45-.15-.16-.05-.31-.11-.45-.2s-.25-.19-.35-.33c-.09-.13-.14-.31-.14-.54s.04-.4.13-.56.2-.3.34-.41c.14-.11.3-.19.49-.25s.38-.08.57-.08c.23,0,.44.03.66.1.21.06.4.17.57.32l-.6.66Z"/>
      <path class="cls-1" d="M17.49,35.92c-.14.17-.31.31-.51.4s-.42.14-.64.14-.41-.03-.6-.1c-.19-.07-.35-.16-.49-.29-.14-.13-.25-.28-.33-.46s-.12-.37-.12-.59.04-.42.12-.59.19-.33.33-.46c.14-.13.3-.22.49-.29.19-.07.38-.1.6-.1.2,0,.37.03.53.1.16.07.3.16.41.29.11.13.2.28.26.46.06.18.09.37.09.59v.27h-1.96c.03.16.11.29.22.39.11.1.25.14.42.14.14,0,.26-.03.35-.09.1-.06.18-.14.25-.24l.59.43ZM16.77,34.71c0-.14-.04-.27-.14-.37-.1-.1-.22-.15-.38-.15-.09,0-.18.01-.25.04-.07.03-.13.07-.18.12s-.09.1-.12.16c-.03.06-.04.13-.05.2h1.12Z"/>
      <path class="cls-1" d="M20,34.33h-.75v.91c0,.08,0,.14.01.21,0,.06.02.12.05.16.03.05.07.08.12.1s.13.04.22.04c.04,0,.1,0,.18-.01.07,0,.13-.03.17-.06v.71c-.09.03-.19.06-.29.07s-.2.02-.3.02c-.14,0-.27-.01-.4-.04-.12-.03-.23-.08-.32-.14-.09-.07-.16-.15-.21-.26s-.08-.23-.08-.38v-1.3h-.54v-.68h.54v-.81h.85v.81h.75v.68Z"/>
      <path class="cls-1" d="M22.3,34.33h-.75v.91c0,.08,0,.14.01.21,0,.06.02.12.05.16.03.05.07.08.12.1s.13.04.22.04c.04,0,.1,0,.18-.01.07,0,.13-.03.17-.06v.71c-.09.03-.19.06-.29.07s-.2.02-.3.02c-.14,0-.27-.01-.4-.04-.12-.03-.23-.08-.32-.14-.09-.07-.16-.15-.21-.26s-.08-.23-.08-.38v-1.3h-.54v-.68h.54v-.81h.85v.81h.75v.68Z"/>
      <path class="cls-1" d="M22.74,32.13h.85v4.27h-.85v-4.27Z"/>
      <path class="cls-1" d="M26.79,35.92c-.14.17-.31.31-.51.4s-.42.14-.64.14-.41-.03-.6-.1c-.19-.07-.35-.16-.49-.29-.14-.13-.25-.28-.33-.46s-.12-.37-.12-.59.04-.42.12-.59.19-.33.33-.46c.14-.13.3-.22.49-.29.19-.07.38-.1.6-.1.2,0,.37.03.53.1.16.07.3.16.41.29.11.13.2.28.26.46.06.18.09.37.09.59v.27h-1.96c.03.16.11.29.22.39.11.1.25.14.42.14.14,0,.26-.03.35-.09.1-.06.18-.14.25-.24l.59.43ZM26.08,34.71c0-.14-.04-.27-.14-.37-.1-.1-.22-.15-.38-.15-.09,0-.18.01-.25.04-.07.03-.13.07-.18.12s-.09.1-.12.16c-.03.06-.04.13-.05.2h1.12Z"/>
      <path class="cls-1" d="M27.44,33.65h.81v.37h.01c.03-.05.06-.11.11-.16s.11-.1.18-.14c.07-.04.14-.08.23-.1.09-.03.18-.04.28-.04.19,0,.36.04.51.12s.26.2.34.37c.1-.18.22-.3.36-.38.14-.08.31-.11.51-.11.18,0,.34.03.47.09.13.06.23.15.3.25s.13.23.16.38c.03.14.05.3.05.47v1.62h-.85v-1.6c0-.13-.03-.24-.08-.33-.05-.09-.15-.14-.29-.14-.1,0-.18.02-.25.05-.07.03-.12.08-.16.13-.04.06-.07.12-.08.2s-.03.15-.03.24v1.45h-.85v-1.45s0-.11,0-.18-.02-.14-.04-.2c-.02-.06-.06-.12-.11-.16s-.13-.07-.22-.07c-.11,0-.2.02-.27.06-.07.04-.12.09-.16.16-.04.07-.06.14-.07.22-.01.08-.02.17-.02.26v1.37h-.85v-2.74Z"/>
      <path class="cls-1" d="M34.95,35.92c-.14.17-.31.31-.51.4s-.42.14-.64.14-.41-.03-.6-.1c-.19-.07-.35-.16-.49-.29-.14-.13-.25-.28-.33-.46s-.12-.37-.12-.59.04-.42.12-.59.19-.33.33-.46c.14-.13.3-.22.49-.29.19-.07.38-.1.6-.1.2,0,.37.03.53.1.16.07.3.16.41.29.11.13.2.28.26.46.06.18.09.37.09.59v.27h-1.96c.03.16.11.29.22.39.11.1.25.14.42.14.14,0,.26-.03.35-.09.1-.06.18-.14.25-.24l.59.43ZM34.23,34.71c0-.14-.04-.27-.14-.37-.1-.1-.22-.15-.38-.15-.09,0-.18.01-.25.04-.07.03-.13.07-.18.12s-.09.1-.12.16c-.03.06-.04.13-.05.2h1.12Z"/>
      <path class="cls-1" d="M35.59,33.65h.81v.37h.01c.03-.05.06-.11.11-.16s.11-.1.18-.14c.07-.04.14-.08.23-.1.09-.03.18-.04.28-.04.21,0,.39.03.52.1.13.07.23.16.31.27.07.12.12.25.15.41s.04.33.04.51v1.51h-.85v-1.34c0-.08,0-.16,0-.25,0-.08-.02-.16-.05-.23-.03-.07-.07-.13-.13-.17-.06-.04-.14-.07-.25-.07s-.2.02-.27.06c-.07.04-.12.09-.16.16-.04.07-.06.14-.07.22-.01.08-.02.17-.02.26v1.37h-.85v-2.74Z"/>
      <path class="cls-1" d="M40.7,34.33h-.75v.91c0,.08,0,.14.01.21,0,.06.02.12.05.16.03.05.07.08.12.1s.13.04.22.04c.04,0,.1,0,.18-.01.07,0,.13-.03.17-.06v.71c-.09.03-.19.06-.29.07s-.2.02-.3.02c-.14,0-.27-.01-.4-.04-.12-.03-.23-.08-.32-.14-.09-.07-.16-.15-.21-.26s-.08-.23-.08-.38v-1.3h-.54v-.68h.54v-.81h.85v.81h.75v.68Z"/>
      <path class="cls-1" d="M42.94,32.4h2.68v.81h-1.8v.81h1.67v.81h-1.67v1.56h-.88v-4Z"/>
      <path class="cls-1" d="M48.79,36.4h-.81v-.37h-.01c-.03.05-.07.11-.12.16s-.1.1-.17.14c-.07.04-.14.08-.23.1-.09.03-.18.04-.28.04-.21,0-.39-.03-.52-.1-.13-.07-.24-.16-.31-.27-.07-.12-.12-.25-.15-.41s-.04-.33-.04-.51v-1.51h.85v1.34c0,.08,0,.16,0,.25,0,.08.02.16.05.23.03.07.07.13.13.17.06.04.14.07.25.07s.2-.02.27-.06c.07-.04.12-.09.16-.16.04-.07.06-.14.07-.22.01-.08.02-.17.02-.26v-1.37h.85v2.74Z"/>
      <path class="cls-1" d="M49.39,33.65h.81v.37h.01c.03-.05.06-.11.11-.16s.11-.1.18-.14c.07-.04.14-.08.23-.1.09-.03.18-.04.28-.04.21,0,.39.03.52.1.13.07.23.16.31.27.07.12.12.25.15.41s.04.33.04.51v1.51h-.85v-1.34c0-.08,0-.16,0-.25,0-.08-.02-.16-.05-.23-.03-.07-.07-.13-.13-.17-.06-.04-.14-.07-.25-.07s-.2.02-.27.06c-.07.04-.12.09-.16.16-.04.07-.06.14-.07.22-.01.08-.02.17-.02.26v1.37h-.85v-2.74Z"/>
      <path class="cls-1" d="M55.51,36.4h-.78v-.36h-.01s-.08.1-.13.15-.12.1-.19.14c-.07.04-.15.08-.24.1-.09.03-.18.04-.27.04-.2,0-.39-.03-.55-.1-.17-.07-.31-.17-.43-.29-.12-.13-.21-.28-.27-.45-.06-.17-.1-.36-.1-.57,0-.19.03-.38.09-.55.06-.17.14-.33.25-.47.11-.13.24-.24.39-.32s.33-.12.53-.12c.18,0,.34.03.49.08.15.05.28.15.38.28h.01v-1.82h.85v4.27ZM54.73,35.02c0-.21-.06-.38-.18-.5-.12-.13-.29-.19-.5-.19s-.38.06-.5.19c-.12.13-.18.3-.18.5s.06.38.18.5c.12.13.29.19.5.19s.38-.06.5-.19c.12-.13.18-.3.18-.5Z"/>
      <path class="cls-1" d="M56.13,32.79c0-.14.05-.25.14-.35.1-.1.21-.14.35-.14s.25.05.35.14c.1.1.14.21.14.35s-.05.25-.14.35c-.1.1-.21.14-.35.14s-.25-.05-.35-.14-.14-.21-.14-.35ZM56.2,33.65h.85v2.74h-.85v-2.74Z"/>
      <path class="cls-1" d="M57.66,33.65h.81v.37h.01c.03-.05.06-.11.11-.16s.11-.1.18-.14c.07-.04.14-.08.23-.1.09-.03.18-.04.28-.04.21,0,.39.03.52.1.13.07.23.16.31.27.07.12.12.25.15.41s.04.33.04.51v1.51h-.85v-1.34c0-.08,0-.16,0-.25,0-.08-.02-.16-.05-.23-.03-.07-.07-.13-.13-.17-.06-.04-.14-.07-.25-.07s-.2.02-.27.06c-.07.04-.12.09-.16.16-.04.07-.06.14-.07.22-.01.08-.02.17-.02.26v1.37h-.85v-2.74Z"/>
      <path class="cls-1" d="M63.78,36.17c0,.52-.13.91-.39,1.18-.26.27-.66.4-1.19.4-.25,0-.49-.03-.72-.08-.24-.05-.46-.16-.65-.32l.47-.7c.13.11.27.2.42.26.14.06.3.1.48.1.26,0,.45-.06.57-.19s.18-.29.18-.48v-.26h-.01c-.1.13-.22.22-.36.28-.15.05-.28.08-.41.08-.2,0-.39-.04-.55-.1-.17-.07-.31-.17-.43-.29-.12-.13-.21-.28-.27-.45-.06-.17-.1-.36-.1-.57,0-.18.03-.36.09-.53s.14-.33.25-.46c.11-.13.24-.24.39-.32s.33-.12.53-.12c.12,0,.23.01.33.04s.19.06.27.1c.08.04.15.09.2.14s.1.1.14.15h.01v-.36h.78v2.51ZM61.64,35.01c0,.09.02.18.05.26.03.08.08.15.14.21s.13.11.21.15c.08.04.17.06.27.06s.18-.02.26-.06c.08-.04.16-.09.22-.15.06-.06.11-.13.14-.21.03-.08.05-.17.05-.26s-.02-.18-.05-.26c-.03-.08-.08-.15-.14-.21-.06-.06-.13-.11-.22-.15-.08-.04-.17-.06-.26-.06-.1,0-.19.02-.27.06-.08.04-.15.09-.21.15s-.11.13-.14.21c-.03.08-.05.17-.05.26Z"/>
      <path class="cls-1" d="M66.81,32.16v5.65h-.71v-5.65h.71Z"/>
      <path class="cls-1" d="M69.16,32.4h1.33l.92,2.61h.01l.93-2.61h1.33v4h-.88v-3.07h-.01l-1.05,3.07h-.67l-1.01-3.07h-.01v3.07h-.88v-4Z"/>
      <path class="cls-1" d="M76.98,35.92c-.14.17-.31.31-.51.4s-.42.14-.64.14-.41-.03-.6-.1c-.19-.07-.35-.16-.49-.29-.14-.13-.25-.28-.33-.46s-.12-.37-.12-.59.04-.42.12-.59.19-.33.33-.46c.14-.13.3-.22.49-.29.19-.07.38-.1.6-.1.2,0,.37.03.53.1.16.07.3.16.41.29.11.13.2.28.26.46.06.18.09.37.09.59v.27h-1.96c.03.16.11.29.22.39.11.1.25.14.42.14.14,0,.26-.03.35-.09.1-.06.18-.14.25-.24l.59.43ZM76.26,34.71c0-.14-.04-.27-.14-.37-.1-.1-.22-.15-.38-.15-.09,0-.18.01-.25.04-.07.03-.13.07-.18.12s-.09.1-.12.16c-.03.06-.04.13-.05.2h1.12Z"/>
      <path class="cls-1" d="M80.5,36.4h-.78v-.36h-.01s-.08.1-.13.15-.12.1-.19.14c-.07.04-.15.08-.24.1-.09.03-.18.04-.27.04-.2,0-.39-.03-.55-.1-.17-.07-.31-.17-.43-.29-.12-.13-.21-.28-.27-.45-.06-.17-.1-.36-.1-.57,0-.19.03-.38.09-.55.06-.17.14-.33.25-.47.11-.13.24-.24.39-.32s.33-.12.53-.12c.18,0,.34.03.49.08.15.05.28.15.38.28h.01v-1.82h.85v4.27ZM79.72,35.02c0-.21-.06-.38-.18-.5-.12-.13-.29-.19-.5-.19s-.38.06-.5.19c-.12.13-.18.3-.18.5s.06.38.18.5c.12.13.29.19.5.19s.38-.06.5-.19c.12-.13.18-.3.18-.5Z"/>
      <path class="cls-1" d="M81.12,32.79c0-.14.05-.25.14-.35.1-.1.21-.14.35-.14s.25.05.35.14c.1.1.14.21.14.35s-.05.25-.14.35c-.1.1-.21.14-.35.14s-.25-.05-.35-.14-.14-.21-.14-.35ZM81.19,33.65h.85v2.74h-.85v-2.74Z"/>
      <path class="cls-1" d="M84.51,34.54c-.04-.06-.1-.11-.17-.15-.08-.04-.16-.06-.24-.06-.21,0-.38.06-.5.19-.12.13-.18.3-.18.5s.06.38.18.5c.12.13.29.19.5.19.09,0,.17-.02.24-.06.07-.04.13-.09.17-.15l.56.59c-.13.13-.29.23-.47.29-.18.05-.35.08-.51.08-.21,0-.41-.03-.6-.1-.19-.07-.35-.16-.49-.29-.14-.13-.25-.28-.33-.46s-.12-.37-.12-.59.04-.42.12-.59.19-.33.33-.46c.14-.13.3-.22.49-.29.19-.07.38-.1.6-.1.16,0,.33.03.51.08.18.05.33.15.47.29l-.56.59Z"/>
      <path class="cls-1" d="M87.09,36.05h-.01c-.09.15-.22.25-.38.32-.16.06-.32.1-.49.1-.13,0-.25-.02-.37-.05-.12-.04-.22-.09-.31-.16-.09-.07-.16-.16-.21-.27s-.08-.23-.08-.37c0-.16.03-.29.09-.4.06-.11.14-.2.24-.27s.21-.13.34-.17c.13-.04.26-.07.4-.09.14-.02.27-.03.41-.03.14,0,.26,0,.38,0,0-.15-.05-.27-.16-.36-.11-.09-.23-.13-.38-.13s-.27.03-.38.09c-.12.06-.22.14-.31.24l-.45-.46c.16-.15.34-.26.55-.33.21-.07.43-.11.65-.11.25,0,.45.03.61.09.16.06.29.15.38.27.1.12.16.27.2.44.04.17.06.38.06.61v1.39h-.78v-.34ZM86.88,35.19c-.06,0-.14,0-.24,0-.1,0-.19.02-.28.05s-.16.07-.23.12c-.06.05-.09.13-.09.22,0,.1.04.18.13.23.09.05.18.07.27.07.08,0,.16-.01.24-.03s.15-.05.21-.1c.06-.04.11-.09.14-.16.04-.06.05-.14.05-.23v-.18h-.21Z"/>
      <path class="cls-1" d="M88.41,32.13h.85v4.27h-.85v-4.27Z"/>
      <path class="cls-1" d="M91.68,32.4h.88v3.18h1.63v.81h-2.51v-4Z"/>
      <path class="cls-1" d="M94.52,32.79c0-.14.05-.25.14-.35.1-.1.21-.14.35-.14s.25.05.35.14c.1.1.14.21.14.35s-.05.25-.14.35c-.1.1-.21.14-.35.14s-.25-.05-.35-.14-.14-.21-.14-.35ZM94.58,33.65h.85v2.74h-.85v-2.74Z"/>
      <path class="cls-1" d="M98.64,35.92c-.14.17-.31.31-.51.4s-.42.14-.64.14-.41-.03-.6-.1c-.19-.07-.35-.16-.49-.29-.14-.13-.25-.28-.33-.46s-.12-.37-.12-.59.04-.42.12-.59.19-.33.33-.46c.14-.13.3-.22.49-.29.19-.07.38-.1.6-.1.2,0,.37.03.53.1.16.07.3.16.41.29.11.13.2.28.26.46.06.18.09.37.09.59v.27h-1.96c.03.16.11.29.22.39.11.1.25.14.42.14.14,0,.26-.03.35-.09.1-.06.18-.14.25-.24l.59.43ZM97.92,34.71c0-.14-.04-.27-.14-.37-.1-.1-.22-.15-.38-.15-.09,0-.18.01-.25.04-.07.03-.13.07-.18.12s-.09.1-.12.16c-.03.06-.04.13-.05.2h1.12Z"/>
      <path class="cls-1" d="M99.28,33.65h.81v.37h.01c.03-.05.06-.11.11-.16s.11-.1.18-.14c.07-.04.14-.08.23-.1.09-.03.18-.04.28-.04.21,0,.39.03.52.1.13.07.23.16.31.27.07.12.12.25.15.41s.04.33.04.51v1.51h-.85v-1.34c0-.08,0-.16,0-.25,0-.08-.02-.16-.05-.23-.03-.07-.07-.13-.13-.17-.06-.04-.14-.07-.25-.07s-.2.02-.27.06c-.07.04-.12.09-.16.16-.04.07-.06.14-.07.22-.01.08-.02.17-.02.26v1.37h-.85v-2.74Z"/>
      <path class="cls-1" d="M105.62,32.4h.73l1.74,4h-.99l-.34-.85h-1.55l-.33.85h-.97l1.73-4ZM105.96,33.56l-.49,1.24h.98l-.49-1.24Z"/>
      <path class="cls-1" d="M111.26,36.4h-.78v-.36h-.01s-.08.1-.13.15-.12.1-.19.14c-.07.04-.15.08-.24.1-.09.03-.18.04-.27.04-.2,0-.39-.03-.55-.1-.17-.07-.31-.17-.43-.29-.12-.13-.21-.28-.27-.45-.06-.17-.1-.36-.1-.57,0-.19.03-.38.09-.55.06-.17.14-.33.25-.47.11-.13.24-.24.39-.32s.33-.12.53-.12c.18,0,.34.03.49.08.15.05.28.15.38.28h.01v-1.82h.85v4.27ZM110.48,35.02c0-.21-.06-.38-.18-.5-.12-.13-.29-.19-.5-.19s-.38.06-.5.19c-.12.13-.18.3-.18.5s.06.38.18.5c.12.13.29.19.5.19s.38-.06.5-.19c.12-.13.18-.3.18-.5Z"/>
      <path class="cls-1" d="M111.65,33.65h.91l.69,1.86h.01l.64-1.86h.85l-1.08,2.74h-.9l-1.13-2.74Z"/>
      <path class="cls-1" d="M116.8,36.05h-.01c-.09.15-.22.25-.38.32-.16.06-.32.1-.49.1-.13,0-.25-.02-.37-.05-.12-.04-.22-.09-.31-.16-.09-.07-.16-.16-.21-.27s-.08-.23-.08-.37c0-.16.03-.29.09-.4.06-.11.14-.2.24-.27s.21-.13.34-.17c.13-.04.26-.07.4-.09.14-.02.27-.03.41-.03.14,0,.26,0,.38,0,0-.15-.05-.27-.16-.36-.11-.09-.23-.13-.38-.13s-.27.03-.38.09c-.12.06-.22.14-.31.24l-.45-.46c.16-.15.34-.26.55-.33.21-.07.43-.11.65-.11.25,0,.45.03.61.09.16.06.29.15.38.27.1.12.16.27.2.44.04.17.06.38.06.61v1.39h-.78v-.34ZM116.59,35.19c-.06,0-.14,0-.24,0-.1,0-.19.02-.28.05s-.16.07-.23.12c-.06.05-.09.13-.09.22,0,.1.04.18.13.23.09.05.18.07.27.07.08,0,.16-.01.24-.03s.15-.05.21-.1c.06-.04.11-.09.14-.16.04-.06.05-.14.05-.23v-.18h-.21Z"/>
      <path class="cls-1" d="M118.11,33.65h.81v.37h.01c.03-.05.06-.11.11-.16s.11-.1.18-.14c.07-.04.14-.08.23-.1.09-.03.18-.04.28-.04.21,0,.39.03.52.1.13.07.23.16.31.27.07.12.12.25.15.41s.04.33.04.51v1.51h-.85v-1.34c0-.08,0-.16,0-.25,0-.08-.02-.16-.05-.23-.03-.07-.07-.13-.13-.17-.06-.04-.14-.07-.25-.07s-.2.02-.27.06c-.07.04-.12.09-.16.16-.04.07-.06.14-.07.22-.01.08-.02.17-.02.26v1.37h-.85v-2.74Z"/>
      <path class="cls-1" d="M123.21,34.54c-.04-.06-.1-.11-.17-.15-.08-.04-.16-.06-.24-.06-.21,0-.38.06-.5.19-.12.13-.18.3-.18.5s.06.38.18.5c.12.13.29.19.5.19.09,0,.17-.02.24-.06.07-.04.13-.09.17-.15l.56.59c-.13.13-.29.23-.47.29-.18.05-.35.08-.51.08-.21,0-.41-.03-.6-.1-.19-.07-.35-.16-.49-.29-.14-.13-.25-.28-.33-.46s-.12-.37-.12-.59.04-.42.12-.59.19-.33.33-.46c.14-.13.3-.22.49-.29.19-.07.38-.1.6-.1.16,0,.33.03.51.08.18.05.33.15.47.29l-.56.59Z"/>
      <path class="cls-1" d="M126.67,35.92c-.14.17-.31.31-.51.4s-.42.14-.64.14-.41-.03-.6-.1c-.19-.07-.35-.16-.49-.29-.14-.13-.25-.28-.33-.46s-.12-.37-.12-.59.04-.42.12-.59.19-.33.33-.46c.14-.13.3-.22.49-.29.19-.07.38-.1.6-.1.2,0,.37.03.53.1.16.07.3.16.41.29.11.13.2.28.26.46.06.18.09.37.09.59v.27h-1.96c.03.16.11.29.22.39.11.1.25.14.42.14.14,0,.26-.03.35-.09.1-.06.18-.14.25-.24l.59.43ZM125.95,34.71c0-.14-.04-.27-.14-.37-.1-.1-.22-.15-.38-.15-.09,0-.18.01-.25.04-.07.03-.13.07-.18.12s-.09.1-.12.16c-.03.06-.04.13-.05.2h1.12Z"/>
      <path class="cls-1" d="M129.67,32.16v5.65h-.71v-5.65h.71Z"/>
    </g>
    <g>
      <path class="cls-1" d="M1.08,39.18h1.49c.21,0,.4.02.59.06.18.04.35.1.48.2.14.09.25.22.33.37s.12.35.12.59-.04.43-.11.59-.18.28-.31.38c-.13.09-.29.16-.47.2-.18.04-.38.06-.59.06h-.64v1.56h-.88v-4ZM1.96,40.87h.59c.08,0,.16,0,.23-.02.07-.02.14-.04.2-.08.06-.04.11-.08.14-.15.04-.06.05-.14.05-.23,0-.1-.02-.18-.07-.25-.05-.06-.11-.11-.18-.14-.07-.03-.16-.05-.25-.06-.09,0-.18-.01-.26-.01h-.45v.95Z"/>
      <path class="cls-1" d="M7.13,42.7c-.14.17-.31.31-.51.4s-.42.14-.64.14-.41-.03-.6-.1c-.19-.07-.35-.16-.49-.29-.14-.13-.25-.28-.33-.46s-.12-.37-.12-.59.04-.42.12-.59.19-.33.33-.46c.14-.13.3-.22.49-.29.19-.07.38-.1.6-.1.2,0,.37.03.53.1.16.07.3.16.41.29.11.13.2.28.26.46.06.18.09.37.09.59v.27h-1.96c.03.16.11.29.22.39.11.1.25.14.42.14.14,0,.26-.03.35-.09.1-.06.18-.14.25-.24l.59.43ZM6.41,41.49c0-.14-.04-.27-.14-.37-.1-.1-.22-.15-.38-.15-.09,0-.18.01-.25.04-.07.03-.13.07-.18.12s-.09.1-.12.16c-.03.06-.04.13-.05.2h1.12Z"/>
      <path class="cls-1" d="M7.78,40.43h.85v.44h.01c.09-.17.2-.3.32-.38.12-.08.28-.13.47-.13.05,0,.1,0,.15,0s.09.01.14.02v.77c-.06-.02-.12-.03-.18-.04-.06,0-.12-.01-.18-.01-.16,0-.29.02-.38.07-.09.04-.17.11-.22.19s-.08.18-.1.29c-.02.11-.02.24-.02.37v1.15h-.85v-2.74Z"/>
      <path class="cls-1" d="M11.63,41.24c-.12-.15-.29-.23-.49-.23-.07,0-.14.02-.21.05-.07.03-.1.09-.1.17,0,.07.04.12.1.15.07.03.16.06.27.08s.22.05.34.08.24.07.34.13c.11.06.2.14.26.25.07.1.1.24.1.42s-.04.32-.12.44c-.08.12-.18.21-.3.28-.12.07-.26.12-.41.15s-.3.04-.45.04c-.19,0-.39-.03-.58-.08-.2-.05-.36-.15-.5-.29l.51-.57c.08.1.17.17.26.22s.21.08.34.08c.1,0,.19-.01.27-.04s.12-.08.12-.16c0-.07-.04-.12-.1-.16s-.16-.07-.27-.09-.22-.05-.34-.08c-.12-.03-.24-.07-.34-.13-.11-.06-.2-.14-.27-.24s-.1-.24-.1-.42c0-.16.03-.3.1-.42.07-.12.15-.21.26-.29s.23-.13.37-.17c.14-.04.28-.05.42-.05.18,0,.36.03.55.08.18.05.34.15.47.28l-.52.51Z"/>
      <path class="cls-1" d="M12.59,41.8c0-.22.04-.42.12-.59s.19-.33.32-.46c.14-.13.3-.22.49-.29.19-.07.38-.1.6-.1s.41.03.6.1c.19.07.35.16.49.29.14.13.25.28.32.46s.12.37.12.59-.04.42-.12.59-.19.33-.32.46c-.14.13-.3.22-.49.29-.19.07-.39.1-.6.1s-.41-.03-.6-.1c-.19-.07-.35-.16-.49-.29-.14-.13-.25-.28-.32-.46s-.12-.37-.12-.59ZM13.43,41.8c0,.21.06.38.18.5.12.13.29.19.5.19s.38-.06.5-.19c.12-.13.18-.3.18-.5s-.06-.38-.18-.5c-.12-.13-.29-.19-.5-.19s-.38.06-.5.19c-.12.13-.18.3-.18.5Z"/>
      <path class="cls-1" d="M16.13,40.43h.81v.37h.01c.03-.05.06-.11.11-.16s.11-.1.18-.14c.07-.04.14-.08.23-.1.09-.03.18-.04.28-.04.21,0,.39.03.52.1.13.07.23.16.31.27.07.12.12.25.15.41s.04.33.04.51v1.51h-.85v-1.34c0-.08,0-.16,0-.25,0-.08-.02-.16-.05-.23-.03-.07-.07-.13-.13-.17-.06-.04-.14-.07-.25-.07s-.2.02-.27.06c-.07.04-.12.09-.16.16-.04.07-.06.14-.07.22-.01.08-.02.17-.02.26v1.37h-.85v-2.74Z"/>
      <path class="cls-1" d="M21.1,42.83h-.01c-.09.15-.22.25-.38.32-.16.06-.32.1-.49.1-.13,0-.25-.02-.37-.05-.12-.04-.22-.09-.31-.16-.09-.07-.16-.16-.21-.27s-.08-.23-.08-.37c0-.16.03-.29.09-.4.06-.11.14-.2.24-.27s.21-.13.34-.17c.13-.04.26-.07.4-.09.14-.02.27-.03.41-.03.14,0,.26,0,.38,0,0-.15-.05-.27-.16-.36-.11-.09-.23-.13-.38-.13s-.27.03-.38.09c-.12.06-.22.14-.31.24l-.45-.46c.16-.15.34-.26.55-.33.21-.07.43-.11.65-.11.25,0,.45.03.61.09.16.06.29.15.38.27.1.12.16.27.2.44.04.17.06.38.06.61v1.39h-.78v-.34ZM20.89,41.97c-.06,0-.14,0-.24,0-.1,0-.19.02-.28.05s-.16.07-.23.12c-.06.05-.09.13-.09.22,0,.1.04.18.13.23.09.05.18.07.27.07.08,0,.16-.01.24-.03s.15-.05.21-.1c.06-.04.11-.09.14-.16.04-.06.05-.14.05-.23v-.18h-.21Z"/>
      <path class="cls-1" d="M22.42,38.9h.85v4.27h-.85v-4.27Z"/>
      <path class="cls-1" d="M25.64,39.18h.88v4h-.88v-4Z"/>
      <path class="cls-1" d="M27.22,40.43h.81v.37h.01c.03-.05.06-.11.11-.16s.11-.1.18-.14c.07-.04.14-.08.23-.1.09-.03.18-.04.28-.04.21,0,.39.03.52.1.13.07.23.16.31.27.07.12.12.25.15.41s.04.33.04.51v1.51h-.85v-1.34c0-.08,0-.16,0-.25,0-.08-.02-.16-.05-.23-.03-.07-.07-.13-.13-.17-.06-.04-.14-.07-.25-.07s-.2.02-.27.06c-.07.04-.12.09-.16.16-.04.07-.06.14-.07.22-.01.08-.02.17-.02.26v1.37h-.85v-2.74Z"/>
      <path class="cls-1" d="M31.32,43.38c0,.18-.02.34-.05.48-.03.14-.09.26-.17.36s-.18.18-.31.23-.29.08-.48.08c-.06,0-.13,0-.2,0-.07,0-.13-.02-.2-.04l.04-.75c.07.03.14.05.22.05.07,0,.13-.02.17-.06.04-.04.07-.08.09-.14.02-.06.03-.12.03-.18s0-.12,0-.17v-2.8h.85v2.95ZM30.4,39.56c0-.14.05-.25.14-.35.1-.1.21-.14.35-.14s.25.05.35.14c.1.1.14.21.14.35s-.05.25-.14.35c-.1.1-.21.14-.35.14s-.25-.05-.35-.14-.14-.21-.14-.35Z"/>
      <path class="cls-1" d="M34.57,43.17h-.81v-.37h-.01c-.03.05-.07.11-.12.16s-.1.1-.17.14c-.07.04-.14.08-.23.1-.09.03-.18.04-.28.04-.21,0-.39-.03-.52-.1-.13-.07-.24-.16-.31-.27-.07-.12-.12-.25-.15-.41s-.04-.33-.04-.51v-1.51h.85v1.34c0,.08,0,.16,0,.25,0,.08.02.16.05.23.03.07.07.13.13.17.06.04.14.07.25.07s.2-.02.27-.06c.07-.04.12-.09.16-.16.04-.07.06-.14.07-.22.01-.08.02-.17.02-.26v-1.37h.85v2.74Z"/>
      <path class="cls-1" d="M35.17,40.43h.85v.44h.01c.09-.17.2-.3.32-.38.12-.08.28-.13.47-.13.05,0,.1,0,.15,0s.09.01.14.02v.77c-.06-.02-.12-.03-.18-.04-.06,0-.12-.01-.18-.01-.16,0-.29.02-.38.07-.09.04-.17.11-.22.19s-.08.18-.1.29c-.02.11-.02.24-.02.37v1.15h-.85v-2.74Z"/>
      <path class="cls-1" d="M39.04,43.62c-.06.15-.11.28-.16.39-.05.11-.12.21-.2.29-.08.08-.18.14-.31.17-.12.04-.29.06-.49.06-.22,0-.43-.03-.63-.1l.11-.7c.13.06.26.08.4.08.09,0,.17,0,.23-.03.06-.02.11-.05.15-.09s.07-.09.1-.14c.03-.06.05-.12.08-.2l.06-.16-1.2-2.77h.92l.71,1.81h.01l.6-1.81h.87l-1.24,3.19Z"/>
      <path class="cls-1" d="M42.42,39.18h2.68v.81h-1.8v.81h1.67v.81h-1.67v1.56h-.88v-4Z"/>
      <path class="cls-1" d="M45.57,39.56c0-.14.05-.25.14-.35.1-.1.21-.14.35-.14s.25.05.35.14c.1.1.14.21.14.35s-.05.25-.14.35c-.1.1-.21.14-.35.14s-.25-.05-.35-.14-.14-.21-.14-.35ZM45.63,40.43h.85v2.74h-.85v-2.74Z"/>
      <path class="cls-1" d="M47.09,40.43h.81v.37h.01c.03-.05.06-.11.11-.16s.11-.1.18-.14c.07-.04.14-.08.23-.1.09-.03.18-.04.28-.04.21,0,.39.03.52.1.13.07.23.16.31.27.07.12.12.25.15.41s.04.33.04.51v1.51h-.85v-1.34c0-.08,0-.16,0-.25,0-.08-.02-.16-.05-.23-.03-.07-.07-.13-.13-.17-.06-.04-.14-.07-.25-.07s-.2.02-.27.06c-.07.04-.12.09-.16.16-.04.07-.06.14-.07.22-.01.08-.02.17-.02.26v1.37h-.85v-2.74Z"/>
      <path class="cls-1" d="M52.05,42.83h-.01c-.09.15-.22.25-.38.32-.16.06-.32.1-.49.1-.13,0-.25-.02-.37-.05-.12-.04-.22-.09-.31-.16-.09-.07-.16-.16-.21-.27s-.08-.23-.08-.37c0-.16.03-.29.09-.4.06-.11.14-.2.24-.27s.21-.13.34-.17c.13-.04.26-.07.4-.09.14-.02.27-.03.41-.03.14,0,.26,0,.38,0,0-.15-.05-.27-.16-.36-.11-.09-.23-.13-.38-.13s-.27.03-.38.09c-.12.06-.22.14-.31.24l-.45-.46c.16-.15.34-.26.55-.33.21-.07.43-.11.65-.11.25,0,.45.03.61.09.16.06.29.15.38.27.1.12.16.27.2.44.04.17.06.38.06.61v1.39h-.78v-.34ZM51.85,41.97c-.06,0-.14,0-.24,0-.1,0-.19.02-.28.05s-.16.07-.23.12c-.06.05-.09.13-.09.22,0,.1.04.18.13.23.09.05.18.07.27.07.08,0,.16-.01.24-.03s.15-.05.21-.1c.06-.04.11-.09.14-.16.04-.06.05-.14.05-.23v-.18h-.21Z"/>
      <path class="cls-1" d="M53.36,40.43h.81v.37h.01c.03-.05.06-.11.11-.16s.11-.1.18-.14c.07-.04.14-.08.23-.1.09-.03.18-.04.28-.04.21,0,.39.03.52.1.13.07.23.16.31.27.07.12.12.25.15.41s.04.33.04.51v1.51h-.85v-1.34c0-.08,0-.16,0-.25,0-.08-.02-.16-.05-.23-.03-.07-.07-.13-.13-.17-.06-.04-.14-.07-.25-.07s-.2.02-.27.06c-.07.04-.12.09-.16.16-.04.07-.06.14-.07.22-.01.08-.02.17-.02.26v1.37h-.85v-2.74Z"/>
      <path class="cls-1" d="M58.46,41.32c-.04-.06-.1-.11-.17-.15-.08-.04-.16-.06-.24-.06-.21,0-.38.06-.5.19-.12.13-.18.3-.18.5s.06.38.18.5c.12.13.29.19.5.19.09,0,.17-.02.24-.06.07-.04.13-.09.17-.15l.56.59c-.13.13-.29.23-.47.29-.18.05-.35.08-.51.08-.21,0-.41-.03-.6-.1-.19-.07-.35-.16-.49-.29-.14-.13-.25-.28-.33-.46s-.12-.37-.12-.59.04-.42.12-.59.19-.33.33-.46c.14-.13.3-.22.49-.29.19-.07.38-.1.6-.1.16,0,.33.03.51.08.18.05.33.15.47.29l-.56.59Z"/>
      <path class="cls-1" d="M59.27,39.56c0-.14.05-.25.14-.35.1-.1.21-.14.35-.14s.25.05.35.14c.1.1.14.21.14.35s-.05.25-.14.35c-.1.1-.21.14-.35.14s-.25-.05-.35-.14-.14-.21-.14-.35ZM59.34,40.43h.85v2.74h-.85v-2.74Z"/>
      <path class="cls-1" d="M60.8,40.43h.81v.37h.01c.03-.05.06-.11.11-.16s.11-.1.18-.14c.07-.04.14-.08.23-.1.09-.03.18-.04.28-.04.21,0,.39.03.52.1.13.07.23.16.31.27.07.12.12.25.15.41s.04.33.04.51v1.51h-.85v-1.34c0-.08,0-.16,0-.25,0-.08-.02-.16-.05-.23-.03-.07-.07-.13-.13-.17-.06-.04-.14-.07-.25-.07s-.2.02-.27.06c-.07.04-.12.09-.16.16-.04.07-.06.14-.07.22-.01.08-.02.17-.02.26v1.37h-.85v-2.74Z"/>
      <path class="cls-1" d="M66.92,42.94c0,.52-.13.91-.39,1.18-.26.27-.66.4-1.19.4-.25,0-.49-.03-.72-.08-.24-.05-.46-.16-.65-.32l.47-.7c.13.11.27.2.42.26.14.06.3.1.48.1.26,0,.45-.06.57-.19s.18-.29.18-.48v-.26h-.01c-.1.13-.22.22-.36.28-.15.05-.28.08-.41.08-.2,0-.39-.04-.55-.1-.17-.07-.31-.17-.43-.29-.12-.13-.21-.28-.27-.45-.06-.17-.1-.36-.1-.57,0-.18.03-.36.09-.53s.14-.33.25-.46c.11-.13.24-.24.39-.32s.33-.12.53-.12c.12,0,.23.01.33.04s.19.06.27.1c.08.04.15.09.2.14s.1.1.14.15h.01v-.36h.78v2.51ZM64.78,41.78c0,.09.02.18.05.26.03.08.08.15.14.21s.13.11.21.15c.08.04.17.06.27.06s.18-.02.26-.06c.08-.04.16-.09.22-.15.06-.06.11-.13.14-.21.03-.08.05-.17.05-.26s-.02-.18-.05-.26c-.03-.08-.08-.15-.14-.21-.06-.06-.13-.11-.22-.15-.08-.04-.17-.06-.26-.06-.1,0-.19.02-.27.06-.08.04-.15.09-.21.15s-.11.13-.14.21c-.03.08-.05.17-.05.26Z"/>
      <path class="cls-1" d="M69.95,38.94v5.65h-.71v-5.65h.71Z"/>
    </g>
  </g>
  <polygon class="cls-3" points="88.18 2.23 88.18 .72 87.61 .72 87.61 .3 89.23 .31 89.23 .72 88.65 .72 88.65 2.23 88.18 2.23"/>
  <g>
    <path class="cls-3" d="M89.56,2.23V.31h.42l.7,1.14h-.3s.71-1.14.71-1.14h.4s0,1.92,0,1.92h-.45s0-.6,0-.6c0-.16,0-.31.01-.44,0-.13.02-.26.04-.39l.05.14-.53.83h-.18l-.52-.82.05-.15c.02.12.04.25.04.38,0,.13.01.28.01.46v.6h-.45Z"/>
    <path class="cls-2" d="M55.49,22.8c-1.23,0-1.72-1.09-1.72-2.34,0-1.09.7-2,1.59-2,1.23,0,1.72,1.09,1.72,2.34,0,1.09-.68,2-1.59,2M52,27.54c0,.91,1.13,2.19,3.32,2.19s3.87-1.13,3.87-2.67c0-2.8-4.91-1.78-4.91-3,0-.11.1-.36.24-.57.23.03.47.03.75.03,2.11,0,3.61-1.3,3.61-3.06,0-.91-.32-1.61-.94-2.08.78-.18,1.65-.63,1.65-1.44,0-.63-.65-.62-1.21-.68-.08.96-.31,1.7-1.15,1.73-.45-.16-1.02-.26-1.65-.26-2.11,0-3.61,1.31-3.61,3.06,0,1.36.68,2.24,1.97,2.58-.31.27-.76.81-.76,1.48,0,2.36,4.51,1.41,4.51,2.82,0,.93-1.02,1.35-1.98,1.35-1.8,0-2.29-1.43-2.33-2.21-.55,0-1.38-.02-1.38.73M42.55,26c.39.08.81.16,1.15.16.57,0,1.02-.23,1.02-1.1,0-1.54-.07-2.64-.07-4.1s1.07-2.32,1.95-2.32c1.4,0,1.43,1.07,1.43,2.19,0,1.65-.05,2.63-.05,4.02,0,.97.74,1.31,1.46,1.31,1.39,0,1.8-1,1.8-1l-.07-.05s-.29.23-.62.23c-.79,0-.81-.97-.81-1.7,0-1.39.06-2.47.06-3.65s-.23-2.33-2.36-2.33c-1.17,0-2.47.55-2.84,1.39l-.07-.02s.07-.19.07-.4c0-.5-.52-.89-1.26-.89-.26,0-.52.06-.79.15,0,0,.24.15.32,1.72.03.78.07,1.62.07,2.43,0,2.9-.28,3.92-.39,3.97M38.04,24.85c0,.97.75,1.31,1.46,1.31,1.39,0,1.8-1,1.8-1l-.06-.05s-.29.23-.62.23c-.79,0-.81-.97-.81-1.7,0-1.2.08-3.15.08-4.86,0-.65-.65-1.04-1.38-1.04-.26,0-.52.06-.79.15.02,0,.39.5.39,4.2,0,.91-.07,1.85-.07,2.77M38.93,16.36c.6,0,1.1-.5,1.1-1.08s-.5-1.1-1.1-1.1-1.09.5-1.09,1.1.5,1.08,1.09,1.08M31.51,25.21c-1.49,0-1.8-1.98-1.8-3.1,0-1.82.88-3.63,2.59-3.63.58,0,1.12.08,1.12.58v1.51c0,.55-.03,1.44-.05,1.98-.03,1.12-.45,2.66-1.87,2.66M27.76,22.52c0,2.2,1.2,3.73,3.06,3.73s2.53-1.28,2.53-1.28l.07.03c.02.91.71,1.16,1.38,1.16,1.39,0,1.8-1,1.8-1l-.07-.05s-.29.23-.62.23c-.57,0-.71-.52-.73-1.07-.05-1.43-.08-2.9-.08-4.34,0-1.95.08-3.5.08-5.06,0-1-1-1.18-2.09-1.2l-.05.06s.21.32.29,1.82c.03.63.07,1.41.07,2.25-.28-.05-.57-.08-.88-.08-3.19,0-4.76,2.03-4.76,4.8ZM18.25,26c.39.08.81.16,1.15.16.57,0,1.02-.23,1.02-1.1,0-1.54-.07-2.64-.07-4.1s1.07-2.32,1.95-2.32c1.4,0,1.43,1.07,1.43,2.19,0,1.65-.05,2.63-.05,4.02,0,.97.74,1.31,1.46,1.31,1.39,0,1.8-1,1.8-1l-.07-.05s-.29.23-.62.23c-.79,0-.81-.97-.81-1.7,0-1.39.07-2.47.07-3.65s-.23-2.33-2.36-2.33c-1.17,0-2.47.55-2.84,1.39l-.06-.02s.06-.19.06-.4c0-.5-.52-.89-1.26-.89-.26,0-.52.06-.79.15,0,0,.24.15.33,1.72.03.78.06,1.62.06,2.43,0,2.9-.28,3.92-.39,3.97M8.68,23.67c0,1.33.42,2.57,2.53,2.57,1.98,0,2.59-1.39,2.59-1.39l.08.02s-.02.1-.02.15c0,.84.68,1.15,1.31,1.15,1.39,0,1.8-1,1.8-1l-.07-.05s-.29.23-.62.23c-.76,0-.81-1.04-.81-1.69,0-1.83.13-3.34.13-4.86,0-.66-.63-1.05-1.39-1.05-.26,0-.52.06-.79.14,0,0,.16.36.28,1.46.05.57.08,1.46.08,2.51,0,1.39-.44,3.37-1.96,3.37-1.27,0-1.36-1.17-1.36-2.48,0-1.62.05-2.61.05-3.97,0-.65-.65-1.04-1.38-1.04-.26,0-.52.08-.79.14.19.28.28.89.32,1.56.05.78.05,1.62.05,2.01,0,.83-.03,1.54-.03,2.22M.85,26c.4.07.74.16,1.08.16.57,0,1.05-.23,1.05-1.1,0-1.04-.06-2.03-.06-2.94v-1.52s1.65.1,2.5.1.94-.44.97-1.2c0,0-.29.16-.96.16h-2.5c.02-1.64.03-3.41.03-4.09,0,0,1.23.26,3.08.26,1.17,0,1.22-.55,1.31-1.34,0,0-1.1.16-3.58.16H.8s.08.13.16,1.7c.03.78.1,4.18.1,5.16,0,4.04-.21,4.49-.21,4.49"/>
    <path class="cls-2" d="M79.58,11.79c.39.08.81.16,1.15.16.57,0,1.02-.23,1.02-1.1,0-1.54-.07-2.64-.07-4.1s1.07-2.32,1.95-2.32c1.4,0,1.43,1.07,1.43,2.19,0,1.65-.05,2.63-.05,4.02,0,.97.74,1.31,1.46,1.31,1.39,0,1.8-1,1.8-1l-.07-.05s-.29.23-.62.23c-.79,0-.81-.97-.81-1.7,0-1.4.07-2.47.07-3.65s-.23-2.33-2.37-2.33c-1.17,0-2.47.55-2.84,1.39l-.06-.02s.06-.19.06-.4c0-.5-.52-.89-1.26-.89-.26,0-.52.06-.79.15,0,0,.24.15.33,1.72.03.78.06,1.62.06,2.43,0,2.9-.28,3.92-.39,3.97M72.7,9.55c0-1.72,1.91-2.01,2.58-2.12,0,.83-.05,1.69-.05,2.34s-.89,1.12-1.44,1.12-1.09-.36-1.09-1.33M70.87,9.86c0,1.18.79,2.17,2.15,2.17,1.02,0,1.83-.57,2.21-1.25l.07.03c.02.86.71,1.13,1.38,1.13,1.39,0,1.8-1,1.8-1l-.07-.05s-.29.23-.62.23c-.79,0-.81-1.17-.81-1.8v-.19c0-.89.05-1.98.05-2.84,0-1.48-.31-2.85-2.61-2.85-1.43,0-2.74,1-3,1.98l.07.06c.6-.53,1.44-.97,2.24-.97,1.25,0,1.56.76,1.56,2.13v.15c-1.77.03-4.41.73-4.41,3.08M66.06,8.58c-1.23,0-1.72-1.09-1.72-2.34,0-1.09.7-1.99,1.59-1.99,1.23,0,1.72,1.09,1.72,2.34,0,1.09-.68,2-1.59,2M62.57,13.33c0,.91,1.13,2.19,3.32,2.19s3.87-1.13,3.87-2.67c0-2.8-4.91-1.78-4.91-3,0-.11.1-.36.24-.57.23.03.47.03.75.03,2.11,0,3.61-1.3,3.61-3.06,0-.91-.32-1.6-.94-2.08.78-.18,1.65-.63,1.65-1.44,0-.63-.65-.62-1.21-.68-.08.96-.31,1.7-1.15,1.73-.45-.16-1.02-.26-1.65-.26-2.11,0-3.61,1.31-3.61,3.06,0,1.36.68,2.24,1.98,2.58-.31.28-.76.81-.76,1.48,0,2.36,4.51,1.41,4.51,2.82,0,.92-1.02,1.35-1.98,1.35-1.8,0-2.29-1.43-2.34-2.21-.55,0-1.38-.02-1.38.73M56.75,10.7c0,1,.42,1.25,1.02,1.25.34,0,.73-.1,1.13-.16-.03-.02-.37-.6-.37-3.79,0-1.8.36-3.11,1.62-3.11.37,0,.78.19,1.3.45l.08-.03c.13-.34.2-.79.2-1.15s-.16-.63-.79-.63c-.88,0-1.99.63-2.45,1.65l-.07-.02s.11-.36.11-.6c0-.66-.57-1.04-1.31-1.04-.26,0-.52.06-.79.15.07.06.41.92.41,4.21,0,.89-.08,1.85-.08,2.82M48.99,7.65c0-1.74.68-3.47,2.12-3.47,1.56,0,2.32,1.7,2.32,3.4,0,1.85-.7,3.7-2.14,3.7-1.54,0-2.3-1.8-2.3-3.63M47.01,7.93c0,2.11,1.39,4.1,4.12,4.1s4.28-2.32,4.28-4.73c0-1.96-1.39-3.86-4.12-3.86s-4.28,2.17-4.28,4.49M34.32,11.79s.37.16.71.16c.57-.02.6-.24.6-1.12,0-2.66-.15-5.62-.15-8.15l.07-.06c.19.45.58,1.13,1.05,1.94l1.35,2.33c.52.89,1.07,1.85,1.44,2.71.05.1.19.11.34.11h.26s.52-1.7.99-2.59l1.64-3.13c.36-.68.65-1.2.75-1.46l.06.05v8.27c0,.88.49,1.1,1.05,1.1.34,0,.68-.1,1.09-.16-.28-2.16-.28-4.28-.28-6.4,0-1.36.02-3.58.02-4.99-.4-.08-.73-.08-.99-.08-.58,0-.92.24-1.25.88-1.05,2.05-2.64,4.92-2.98,5.84h-.08c-.11-.31-.39-.86-.76-1.53l-2.08-3.67c-.24-.44-.49-.84-.68-1.22-.15-.26-.7-.31-1.25-.31-.34,0-.74.06-.94.13,0,0,.08.13.16,1.7.03.78.1,4.19.1,5.16,0,4.04-.24,4.48-.24,4.48M24.12,8.89c0,1.82.55,3.14,2.45,3.14s2.51-1.86,2.51-1.86l-.08-.06s-.92.76-1.72.76c-1.25,0-1.39-1.36-1.39-2.97,0-1.23.05-3.15.05-3.15,0,0,1.14.03,1.31.03.58,0,.91-.15.91-.83,0-.08,0-.34-.02-.44,0,0-.21.16-.88.16h-1.33l.32-1.77-.37-.13c-.21.53-1.75,1.9-2.45,1.9v.68c.63.19.75.26.75,1.64,0,.62-.07,1.83-.07,2.89h0ZM17.57,10.7c0,1,.42,1.25,1.02,1.25.34,0,.73-.1,1.13-.16-.03-.02-.37-.6-.37-3.79,0-1.8.36-3.11,1.62-3.11.37,0,.78.19,1.3.45l.08-.03c.13-.34.19-.79.19-1.15s-.16-.63-.79-.63c-.88,0-1.99.63-2.45,1.65l-.06-.02s.11-.36.11-.6c0-.66-.57-1.04-1.31-1.04-.26,0-.52.06-.79.15.07.06.41.92.41,4.21,0,.89-.08,1.85-.08,2.82M9.48,7.65c0-1.74.68-3.47,2.12-3.47,1.56,0,2.32,1.7,2.32,3.4,0,1.85-.7,3.7-2.14,3.7-1.54,0-2.3-1.8-2.3-3.63M7.5,7.93c0,2.11,1.39,4.1,4.12,4.1s4.28-2.32,4.28-4.73c0-1.96-1.39-3.86-4.12-3.86s-4.28,2.17-4.28,4.49M.85,11.79c.4.07.74.16,1.08.16.57,0,1.05-.23,1.05-1.1,0-1.04-.06-2.03-.06-2.94v-1.52s1.65.1,2.5.1.94-.44.97-1.2c0,0-.29.16-.96.16h-2.5c.02-1.64.03-3.41.03-4.09,0,0,1.23.26,3.08.26,1.17,0,1.22-.55,1.31-1.34,0,0-1.1.16-3.58.16H.8s.08.13.16,1.7c.03.78.1,4.18.1,5.16,0,4.04-.21,4.49-.21,4.49"/>
  </g>
</svg>