<?xml version="1.0" encoding="UTF-8"?>
<svg id="Layer_1" data-name="Layer 1" xmlns="http://www.w3.org/2000/svg" viewBox="0 0 225.23 84.9">
  <defs>
    <style>
      .cls-1 {
        fill: none;
        stroke: #fff;
        stroke-miterlimit: 10;
        stroke-width: .49px;
      }

      .cls-2 {
        letter-spacing: 0em;
      }

      .cls-3 {
        letter-spacing: -.03em;
      }

      .cls-4 {
        letter-spacing: -.02em;
      }

      .cls-5 {
        letter-spacing: 0em;
      }

      .cls-6 {
        letter-spacing: -.04em;
      }

      .cls-7 {
        letter-spacing: -.07em;
      }

      .cls-8 {
        font-family: Helvetica-Bold, Helvetica;
        font-size: 12.48px;
        font-weight: 700;
      }

      .cls-8, .cls-9, .cls-10 {
        fill: #fff;
      }

      .cls-11 {
        letter-spacing: -.06em;
      }

      .cls-12 {
        letter-spacing: -.05em;
      }

      .cls-13 {
        fill: #232256;
      }

      .cls-13, .cls-10 {
        stroke-width: 0px;
      }

      .cls-14 {
        letter-spacing: -.04em;
      }

      .cls-15 {
        letter-spacing: -.02em;
      }

      .cls-9 {
        font-family: DMSerifText-Regular, 'DM Serif Text';
        font-size: 32.1px;
      }
    </style>
  </defs>
  <polygon class="cls-10" points="204.4 19.07 204.4 15 202.93 15 202.93 14.03 206.99 14.03 206.99 15 205.48 15 205.48 19.07 204.4 19.07"/>
  <g>
    <path class="cls-10" d="M207.88,19.07v-5.04h.99l1.84,2.99h-.65s1.86-2.99,1.86-2.99h.94v5.04h-1.06v-1.73c0-.43.01-.82.03-1.17.02-.35.06-.69.11-1.03l.13.34-1.48,2.29h-.47l-1.45-2.27.12-.35c.05.32.09.65.11.99.02.34.03.74.03,1.2v1.73h-1.06Z"/>
    <path class="cls-13" d="M8.41,76.83h208.41c2.05,0,3.72-1.67,3.72-3.72V11.79c0-2.05-1.67-3.72-3.72-3.72H8.41c-2.05,0-3.72,1.67-3.72,3.72v61.32c0,2.05,1.67,3.72,3.72,3.72"/>
    <path class="cls-1" d="M8.41,8.06h208.41c2.05,0,3.72,1.67,3.72,3.72v61.33c0,2.06-1.67,3.72-3.72,3.72H8.41c-2.06,0-3.72-1.67-3.72-3.72V11.79c0-2.06,1.67-3.72,3.72-3.72Z"/>
  </g>
  <polygon class="cls-10" points="204.35 18.88 204.35 14.8 202.87 14.8 202.87 13.83 206.95 13.83 206.95 14.8 205.43 14.8 205.43 18.88 204.35 18.88"/>
  <path class="cls-10" d="M207.84,18.88v-5.05h.99l1.84,3h-.65s1.86-3,1.86-3h.95v5.05h-1.06v-1.73c0-.43.01-.82.03-1.17.02-.35.06-.69.11-1.03l.13.34-1.48,2.29h-.48l-1.45-2.28.12-.35c.05.32.09.65.11.99.02.34.03.74.03,1.21v1.73h-1.06Z"/>
  <rect class="cls-10" x="4.93" y="27.41" width="215.36" height=".83"/>
  <text class="cls-9" transform="translate(11.76 54.14)"><tspan class="cls-3" x="0" y="0">F</tspan><tspan class="cls-15" x="16.24" y="0">O</tspan><tspan class="cls-11" x="37.17" y="0">R</tspan><tspan class="cls-2" x="55.33" y="0">T</tspan><tspan x="75.07" y="0"> </tspan><tspan class="cls-14" x="82.13" y="0">M</tspan><tspan class="cls-6" x="106.43" y="0">O</tspan><tspan class="cls-11" x="126.72" y="0">R</tspan><tspan class="cls-12" x="144.88" y="0">G</tspan><tspan class="cls-4" x="164.46" y="0">A</tspan><tspan x="184.52" y="0">N</tspan></text>
  <text class="cls-8" transform="translate(11.83 21.36)"><tspan class="cls-7" x="0" y="0">T</tspan><tspan class="cls-5" x="6.71" y="0">otal Law Firm Solutions</tspan></text>
  <path class="cls-10" d="M58.56,72.13v-.26l.25-.07c.17-.06.29-.14.34-.23.05-.1.07-.23.07-.41v-6.32c0-.17-.02-.3-.07-.39-.05-.1-.16-.17-.32-.23l-.26-.07v-.26h3.1v.26l-.24.07c-.16.06-.26.14-.32.24-.05.1-.08.24-.08.41v6.89h1.84c.28,0,.5-.07.64-.21.14-.14.27-.35.4-.61l.46-1.04h.35l-.12,2.23h-6.02ZM65.29,72.13v-.24l.19-.05c.17-.05.28-.12.34-.22.06-.1.09-.23.1-.4v-3.01c0-.22,0-.45-.01-.68,0-.17-.03-.3-.09-.39-.06-.1-.18-.16-.34-.19l-.17-.04v-.22l2.18-.72.15.14-.04,1.77v3.37c0,.17.03.3.09.4s.17.17.33.22l.14.04v.24h-2.86ZM66.72,65.27c-.27,0-.51-.09-.7-.26-.19-.17-.29-.4-.29-.66s.1-.5.29-.67c.19-.17.42-.26.7-.26s.51.09.7.26c.19.17.29.39.29.67s-.1.49-.29.66c-.19.17-.42.26-.7.26ZM71.04,72.31c-.52,0-.92-.13-1.22-.38-.3-.25-.44-.67-.44-1.24,0-.2,0-.39,0-.57,0-.18,0-.39,0-.63v-2.96h-.89v-.27l.34-.05c.24-.04.45-.12.62-.22.17-.11.33-.26.47-.45l.81-1.12h.37l-.04,1.74h1.42v.39h-1.44v4.26c0,.3.06.52.19.67.13.15.29.22.48.22.17,0,.32-.04.45-.12.13-.08.27-.19.4-.32l.16.19c-.16.27-.38.49-.66.64-.28.15-.63.23-1.05.23ZM73.18,72.13v-.24l.19-.05c.17-.05.28-.12.34-.22.06-.1.09-.23.1-.4v-3.01c0-.22,0-.45-.01-.68,0-.17-.03-.3-.09-.39-.06-.1-.18-.16-.34-.19l-.17-.04v-.22l2.18-.72.15.14-.04,1.77v3.37c0,.17.03.3.09.4s.17.17.33.22l.14.04v.24h-2.86ZM74.61,65.27c-.27,0-.51-.09-.7-.26-.19-.17-.29-.4-.29-.66s.1-.5.29-.67c.19-.17.42-.26.7-.26s.51.09.7.26c.19.17.29.39.29.67s-.1.49-.29.66c-.19.17-.42.26-.7.26ZM79.28,70c-.55,0-1.02-.09-1.41-.27v.45c0,.25.12.4.37.45l2.22.41c.42.08.8.19,1.12.31.32.12.58.29.76.51.18.22.27.52.27.89,0,.4-.13.77-.39,1.12-.26.35-.65.62-1.16.84s-1.15.32-1.92.32c-.66,0-1.18-.07-1.57-.21-.39-.14-.66-.31-.83-.53-.17-.22-.25-.45-.25-.7,0-.3.1-.6.31-.9.2-.3.47-.55.79-.75-.51-.19-.76-.5-.76-.91,0-.16.04-.3.11-.44.07-.13.17-.27.27-.4l.45-.56c-.6-.35-.9-.89-.9-1.64,0-.61.21-1.1.64-1.47.43-.37,1.05-.56,1.85-.56s1.43.19,1.87.56c.27-.04.52-.11.75-.2.23-.09.45-.22.65-.37l.17.12v.7h-1.35c.27.33.4.74.4,1.22,0,.59-.21,1.07-.64,1.45-.43.37-1.05.56-1.85.56ZM77.48,73.22c0,.46.15.8.44,1.03.29.23.75.34,1.39.34.7,0,1.22-.11,1.55-.34.34-.23.51-.53.51-.91,0-.23-.09-.42-.26-.55-.17-.13-.46-.24-.86-.31l-2.23-.44s-.07-.02-.1-.02c-.12.17-.23.36-.31.57-.08.22-.12.42-.12.62ZM79.26,69.66c.35,0,.61-.14.77-.41.16-.27.24-.71.24-1.3s-.08-1.02-.24-1.27c-.16-.26-.4-.39-.74-.39s-.58.13-.74.39c-.16.26-.24.69-.24,1.29s.07,1.03.22,1.29c.15.26.39.39.72.39ZM84.75,72.31c-.47,0-.88-.14-1.2-.41-.33-.27-.49-.66-.49-1.17,0-.4.19-.77.58-1.1s1-.58,1.83-.74c.14-.03.31-.06.49-.09.19-.03.37-.06.56-.09v-.89c0-.57-.07-.96-.21-1.17-.14-.22-.37-.32-.67-.32h-.04c-.19,0-.34.06-.46.18-.11.12-.19.32-.22.59l-.04.16c-.02.33-.11.58-.26.73-.15.15-.34.23-.56.23-.21,0-.38-.06-.52-.19-.14-.13-.21-.3-.21-.51,0-.34.12-.63.35-.86s.54-.41.93-.52c.39-.12.81-.17,1.25-.17.74,0,1.31.18,1.7.54.39.36.59.94.59,1.75v2.78c0,.36.17.54.51.54h.29l.12.14c-.15.19-.32.34-.5.44-.18.1-.43.16-.75.16-.36,0-.64-.09-.86-.26-.21-.17-.35-.4-.42-.68-.27.28-.53.51-.79.69-.26.17-.6.26-1.01.26ZM85.47,71.51c.17,0,.32-.04.47-.11.15-.07.34-.2.56-.37v-2c-.22.03-.44.07-.66.12-.36.08-.65.24-.87.46-.22.22-.33.53-.33.91,0,.33.08.58.23.74.15.16.35.24.59.24ZM91.7,72.31c-.52,0-.92-.13-1.22-.38-.3-.25-.44-.67-.44-1.24,0-.2,0-.39,0-.57,0-.18,0-.39,0-.63v-2.96h-.89v-.27l.34-.05c.24-.04.45-.12.62-.22.17-.11.33-.26.47-.45l.81-1.12h.37l-.04,1.74h1.42v.39h-1.44v4.26c0,.3.06.52.19.67.13.15.29.22.48.22.17,0,.32-.04.45-.12.13-.08.27-.19.4-.32l.16.19c-.16.27-.38.49-.66.64-.28.15-.63.23-1.05.23ZM93.84,72.13v-.24l.19-.05c.17-.05.28-.12.34-.22.06-.1.09-.23.1-.4v-3.01c0-.22,0-.45-.01-.68,0-.17-.03-.3-.09-.39-.06-.1-.18-.16-.34-.19l-.17-.04v-.22l2.18-.72.15.14-.04,1.77v3.37c0,.17.03.3.09.4s.17.17.33.22l.14.04v.24h-2.86ZM95.27,65.27c-.27,0-.51-.09-.7-.26-.19-.17-.29-.4-.29-.66s.1-.5.29-.67c.19-.17.42-.26.7-.26s.51.09.7.26c.19.17.29.39.29.67s-.1.49-.29.66c-.19.17-.42.26-.7.26ZM100.37,72.31c-.62,0-1.15-.13-1.62-.39s-.82-.62-1.07-1.1c-.25-.47-.38-1.04-.38-1.7s.14-1.22.41-1.7c.27-.47.64-.84,1.1-1.09.46-.25.98-.38,1.57-.38s1.1.13,1.57.38c.46.25.83.62,1.1,1.09.27.47.41,1.04.41,1.7s-.13,1.23-.38,1.7c-.25.48-.61.84-1.07,1.1-.46.25-1,.38-1.62.38ZM100.37,71.96c.3,0,.54-.08.73-.24s.32-.45.41-.86c.08-.41.12-.98.12-1.71s-.04-1.32-.12-1.73c-.08-.41-.22-.7-.41-.86s-.43-.24-.73-.24-.54.08-.72.24c-.18.16-.32.45-.41.86-.09.41-.13.99-.13,1.73s.04,1.3.13,1.71c.09.41.22.69.41.86.18.16.42.24.72.24ZM104.01,72.13v-.24l.2-.05c.27-.08.41-.29.41-.61v-3.68c0-.17-.04-.31-.09-.41-.05-.1-.16-.16-.32-.19l-.2-.05v-.22l2.02-.72.15.14.09.77c.3-.27.63-.48,1-.66.37-.17.73-.26,1.09-.26.55,0,.97.15,1.27.45.3.3.44.76.44,1.37v3.47c0,.32.15.53.45.61l.14.04v.24h-2.87v-.24l.19-.05c.27-.09.41-.3.41-.61v-3.71c0-.29-.06-.5-.19-.64-.12-.13-.33-.2-.62-.2-.41,0-.83.18-1.27.54v4.02c0,.32.15.53.44.61l.12.04v.24h-2.86ZM116.56,72.31c-.55,0-1.02-.1-1.4-.31-.38-.2-.68-.47-.88-.81-.2-.33-.31-.7-.31-1.11,0-1.02.64-1.8,1.92-2.36-.22-.29-.42-.6-.61-.93-.19-.33-.28-.71-.28-1.15,0-.58.21-1.05.62-1.4.42-.35.96-.53,1.64-.53s1.17.15,1.53.44c.36.3.54.68.54,1.17,0,.42-.16.79-.49,1.1s-.79.6-1.41.87c.15.17.31.34.47.53.17.19.34.39.52.59.23.25.46.49.67.71.21.22.43.46.64.7.19-.28.37-.61.54-.98.17-.37.3-.76.4-1.17.07-.31-.05-.51-.36-.6l-.1-.04v-.24h1.52v.24l-.14.05c-.27.09-.43.27-.5.54-.13.46-.29.89-.47,1.3-.18.41-.4.79-.64,1.13l1.17,1.26c.1.11.2.2.31.27.11.07.23.14.36.19l.25.1v.25h-2.4s-.81-.87-.81-.87c-.24.26-.54.5-.9.72-.36.22-.84.33-1.44.33ZM117.23,71.46c.29,0,.56-.04.8-.13.24-.09.45-.2.62-.34-.42-.47-.82-.93-1.22-1.4-.23-.29-.46-.57-.67-.82-.22-.26-.43-.52-.64-.77-.26.21-.44.45-.54.72-.1.27-.16.56-.16.85,0,.54.17.99.51,1.35.34.36.77.54,1.3.54ZM117.24,67.08c.33-.29.58-.58.74-.87.16-.29.24-.62.24-.97,0-.32-.09-.59-.26-.79-.17-.2-.4-.3-.69-.3-.27,0-.51.1-.69.3-.19.2-.28.46-.28.77,0,.19.04.39.11.6.07.21.2.45.39.71.05.07.11.14.19.23.07.09.16.19.26.32ZM125.68,72.13v-.26l.25-.06c.17-.05.27-.12.32-.22.05-.1.07-.24.07-.41,0-.47.01-.96.01-1.44v-3.43c0-.48,0-.97-.01-1.45,0-.17-.03-.31-.08-.41-.05-.1-.16-.17-.33-.23l-.24-.07v-.26h3.01c1.22,0,2.1.23,2.65.68.55.45.83,1.05.83,1.79,0,.47-.11.9-.34,1.29-.23.4-.61.71-1.13.94-.52.23-1.23.35-2.12.35h-.45v1.08c0,.37,0,.75.01,1.13,0,.34.15.55.46.62l.37.1v.26h-3.3ZM128.13,68.57h.52c.42,0,.76-.06,1.02-.19.26-.13.46-.35.59-.67.13-.32.19-.75.19-1.31s-.07-.99-.21-1.3-.34-.53-.62-.66c-.27-.13-.62-.19-1.02-.19h-.46c0,.57-.01,1.15-.01,1.74v2.59ZM132.56,72.13v-.24l.19-.05c.27-.09.41-.3.41-.62,0-.28,0-.57,0-.86,0-.29,0-.57,0-.86v-4.74c0-.17-.03-.31-.09-.39-.06-.09-.17-.15-.34-.19l-.19-.05v-.24l2.18-.52.16.11-.05,1.76v5.98c0,.17.04.3.11.41.06.1.17.18.33.22l.17.05v.24h-2.91ZM137.72,72.31c-.47,0-.88-.14-1.2-.41-.33-.27-.49-.66-.49-1.17,0-.4.19-.77.58-1.1s1-.58,1.83-.74c.14-.03.31-.06.49-.09.19-.03.37-.06.56-.09v-.89c0-.57-.07-.96-.21-1.17-.14-.22-.37-.32-.67-.32h-.04c-.19,0-.34.06-.46.18-.11.12-.19.32-.22.59l-.04.16c-.02.33-.11.58-.26.73-.15.15-.34.23-.56.23-.21,0-.38-.06-.52-.19-.14-.13-.21-.3-.21-.51,0-.34.12-.63.35-.86s.54-.41.93-.52c.39-.12.81-.17,1.25-.17.74,0,1.31.18,1.7.54.39.36.59.94.59,1.75v2.78c0,.36.17.54.51.54h.29l.12.14c-.15.19-.32.34-.5.44-.18.1-.43.16-.75.16-.36,0-.64-.09-.86-.26-.21-.17-.35-.4-.42-.68-.27.28-.53.51-.79.69-.26.17-.6.26-1.01.26ZM138.44,71.51c.17,0,.32-.04.47-.11.15-.07.34-.2.56-.37v-2c-.22.03-.44.07-.66.12-.36.08-.65.24-.87.46-.22.22-.33.53-.33.91,0,.33.08.58.23.74.15.16.35.24.59.24ZM142.34,72.13v-.24l.19-.05c.17-.05.28-.12.34-.22.06-.1.09-.23.1-.4v-3.01c0-.22,0-.45-.01-.68,0-.17-.03-.3-.09-.39-.06-.1-.18-.16-.34-.19l-.17-.04v-.22l2.18-.72.15.14-.04,1.77v3.37c0,.17.03.3.09.4s.17.17.33.22l.14.04v.24h-2.86ZM143.77,65.27c-.27,0-.51-.09-.7-.26-.19-.17-.29-.4-.29-.66s.1-.5.29-.67c.19-.17.42-.26.7-.26s.51.09.7.26c.19.17.29.39.29.67s-.1.49-.29.66c-.19.17-.42.26-.7.26ZM145.74,72.13v-.24l.2-.05c.27-.08.41-.29.41-.61v-3.68c0-.17-.04-.31-.09-.41-.05-.1-.16-.16-.32-.19l-.2-.05v-.22l2.02-.72.15.14.09.77c.3-.27.63-.48,1-.66.37-.17.73-.26,1.09-.26.55,0,.97.15,1.27.45.3.3.44.76.44,1.37v3.47c0,.32.15.53.45.61l.14.04v.24h-2.87v-.24l.19-.05c.27-.09.41-.3.41-.61v-3.71c0-.29-.06-.5-.19-.64-.12-.13-.33-.2-.62-.2-.41,0-.83.18-1.27.54v4.02c0,.32.15.53.44.61l.12.04v.24h-2.86ZM155.2,72.31c-.52,0-.92-.13-1.22-.38-.3-.25-.44-.67-.44-1.24,0-.2,0-.39,0-.57,0-.18,0-.39,0-.63v-2.96h-.89v-.27l.34-.05c.24-.04.45-.12.62-.22.17-.11.33-.26.47-.45l.81-1.12h.37l-.04,1.74h1.42v.39h-1.44v4.26c0,.3.06.52.19.67.13.15.29.22.48.22.17,0,.32-.04.45-.12.13-.08.27-.19.4-.32l.16.19c-.16.27-.38.49-.66.64-.28.15-.63.23-1.05.23ZM157.33,72.13v-.24l.19-.05c.17-.05.28-.12.34-.22.06-.1.09-.23.1-.4v-3.01c0-.22,0-.45-.01-.68,0-.17-.03-.3-.09-.39-.06-.1-.18-.16-.34-.19l-.17-.04v-.22l2.18-.72.15.14-.04,1.77v3.37c0,.17.03.3.09.4s.17.17.33.22l.14.04v.24h-2.86ZM158.77,65.27c-.27,0-.51-.09-.7-.26-.19-.17-.29-.4-.29-.66s.1-.5.29-.67c.19-.17.42-.26.7-.26s.51.09.7.26c.19.17.29.39.29.67s-.1.49-.29.66c-.19.17-.42.26-.7.26ZM160.75,72.13v-.24l.19-.05c.33-.09.5-.3.51-.61,0-.28,0-.57,0-.86,0-.29,0-.58,0-.87v-2.98h-.71v-.27l.27-.05c.17-.02.29-.09.36-.18.07-.1.13-.23.16-.41.08-.32.2-.61.36-.86.16-.25.35-.48.56-.69.31-.3.64-.51.99-.62.35-.12.69-.17,1.02-.17s.62.07.89.2c.27.13.41.35.41.65,0,.22-.06.4-.19.52-.13.12-.31.19-.56.19-.39,0-.73-.22-1.01-.67l-.15-.17c-.1-.12-.2-.17-.3-.14-.1.03-.17.11-.21.24-.07.27-.13.58-.16.93-.03.35-.05.73-.06,1.13h2.15c.17,0,.29-.05.36-.14.07-.1.13-.22.17-.38.08-.32.2-.61.36-.86.15-.25.34-.48.56-.69.31-.3.64-.51.99-.62.35-.12.7-.17,1.03-.17s.62.07.89.2c.27.13.4.35.4.65,0,.22-.06.4-.19.52-.12.12-.31.19-.56.19-.38,0-.72-.22-1-.67l-.15-.17c-.11-.12-.21-.17-.31-.14-.1.03-.17.11-.22.24-.07.27-.12.58-.16.93-.04.35-.06.73-.06,1.13h1.44v.39h-1.44v4.67c0,.32.17.53.5.61l.32.09v.24h-3.22v-.24l.19-.05c.34-.09.51-.3.51-.61,0-.28,0-.57,0-.86,0-.29,0-.58,0-.87v-2.98h-2.58v2.98c0,.28,0,.57,0,.85,0,.28,0,.56,0,.84,0,.32.17.53.5.61l.32.09v.24h-3.22ZM172.04,72.13v-.26l.24-.06c.17-.05.27-.12.32-.22.05-.1.08-.24.09-.41,0-.47.01-.96.01-1.44v-3.43c0-.48,0-.97-.01-1.45,0-.17-.03-.31-.07-.41-.04-.1-.14-.17-.3-.22l-.27-.09v-.26h6l.09,2.11h-.34l-.65-1.24c-.08-.16-.17-.28-.27-.37-.1-.09-.25-.13-.44-.13h-1.92c0,.56-.01,1.13-.02,1.72,0,.59,0,1.17,0,1.75h1.2c.19,0,.33-.04.42-.13.09-.09.18-.21.26-.37l.25-.46h.27v2.28h-.27l-.25-.45c-.09-.17-.18-.29-.27-.38-.09-.09-.23-.13-.42-.13h-1.2v1.58c0,.5,0,1,.01,1.48,0,.34.15.55.46.64l.37.09v.26h-3.3ZM178.47,72.13v-.24l.19-.05c.17-.05.28-.12.34-.22.06-.1.09-.23.1-.4v-3.01c0-.22,0-.45-.01-.68,0-.17-.03-.3-.09-.39-.06-.1-.18-.16-.34-.19l-.17-.04v-.22l2.18-.72.15.14-.04,1.77v3.37c0,.17.03.3.09.4s.17.17.33.22l.14.04v.24h-2.86ZM179.9,65.27c-.27,0-.51-.09-.7-.26-.19-.17-.29-.4-.29-.66s.1-.5.29-.67c.19-.17.42-.26.7-.26s.51.09.7.26c.19.17.29.39.29.67s-.1.49-.29.66c-.19.17-.42.26-.7.26ZM181.87,72.13v-.24l.2-.05c.27-.08.41-.29.41-.61v-3.68c0-.17-.04-.31-.09-.41-.05-.1-.16-.16-.32-.19l-.2-.05v-.22l2.02-.72.15.14.09.77c.3-.27.63-.48,1-.66.37-.17.73-.26,1.09-.26.55,0,.97.15,1.27.45.3.3.44.76.44,1.37v3.47c0,.32.15.53.45.61l.14.04v.24h-2.87v-.24l.19-.05c.27-.09.41-.3.41-.61v-3.71c0-.29-.06-.5-.19-.64-.12-.13-.33-.2-.62-.2-.41,0-.83.18-1.27.54v4.02c0,.32.15.53.44.61l.12.04v.24h-2.86ZM190.79,72.31c-.47,0-.88-.14-1.2-.41-.33-.27-.49-.66-.49-1.17,0-.4.19-.77.58-1.1s1-.58,1.83-.74c.14-.03.31-.06.49-.09.19-.03.37-.06.56-.09v-.89c0-.57-.07-.96-.21-1.17-.14-.22-.37-.32-.67-.32h-.04c-.19,0-.34.06-.46.18-.11.12-.19.32-.22.59l-.04.16c-.02.33-.11.58-.26.73-.15.15-.34.23-.56.23-.21,0-.38-.06-.52-.19-.14-.13-.21-.3-.21-.51,0-.34.12-.63.35-.86s.54-.41.93-.52c.39-.12.81-.17,1.25-.17.74,0,1.31.18,1.7.54.39.36.59.94.59,1.75v2.78c0,.36.17.54.51.54h.29l.12.14c-.15.19-.32.34-.5.44-.18.1-.43.16-.75.16-.36,0-.64-.09-.86-.26-.21-.17-.35-.4-.42-.68-.27.28-.53.51-.79.69-.26.17-.6.26-1.01.26ZM191.51,71.51c.17,0,.32-.04.47-.11.15-.07.34-.2.56-.37v-2c-.22.03-.44.07-.66.12-.36.08-.65.24-.87.46-.22.22-.33.53-.33.91,0,.33.08.58.23.74.15.16.35.24.59.24ZM195.36,72.13v-.24l.2-.05c.27-.08.41-.29.41-.61v-3.68c0-.17-.04-.31-.09-.41-.05-.1-.16-.16-.32-.19l-.2-.05v-.22l2.02-.72.15.14.09.77c.3-.27.63-.48,1-.66.37-.17.73-.26,1.09-.26.55,0,.97.15,1.27.45.3.3.44.76.44,1.37v3.47c0,.32.15.53.45.61l.14.04v.24h-2.87v-.24l.19-.05c.27-.09.41-.3.41-.61v-3.71c0-.29-.06-.5-.19-.64-.12-.13-.33-.2-.62-.2-.41,0-.83.18-1.27.54v4.02c0,.32.15.53.44.61l.12.04v.24h-2.86ZM205.58,72.31c-.57,0-1.08-.12-1.54-.37-.46-.25-.82-.6-1.08-1.07-.26-.47-.39-1.04-.39-1.72s.15-1.25.44-1.72c.29-.47.68-.84,1.17-1.09.49-.25,1.02-.38,1.6-.38.47,0,.88.08,1.21.24.33.16.59.36.76.61.17.25.26.51.26.78,0,.23-.07.41-.21.54-.14.12-.31.19-.53.19-.23,0-.42-.08-.57-.25-.15-.17-.23-.38-.26-.64,0-.17,0-.31,0-.42.01-.12.01-.23,0-.34-.03-.14-.09-.24-.17-.29-.08-.05-.19-.07-.33-.07-.52,0-.93.21-1.2.63-.28.42-.42,1.1-.42,2.04,0,.81.15,1.43.46,1.86.31.43.79.65,1.44.65.38,0,.7-.07.95-.22.25-.15.48-.36.69-.63l.2.15c-.21.5-.53.88-.96,1.14-.43.26-.94.39-1.53.39ZM211.71,65.95c.52,0,.97.11,1.35.32.37.22.66.51.87.89.2.38.31.81.31,1.3,0,.11,0,.21-.01.31,0,.1-.02.19-.05.27h-3.76c0,.86.17,1.47.48,1.85.31.37.77.56,1.37.56.42,0,.75-.07,1.01-.21.26-.14.5-.33.71-.58l.2.19c-.25.46-.59.81-1.02,1.07-.43.25-.94.38-1.53.38s-1.11-.12-1.56-.37c-.45-.25-.8-.61-1.05-1.08-.25-.47-.38-1.03-.38-1.69s.15-1.26.44-1.74c.3-.47.68-.84,1.15-1.09.47-.25.96-.38,1.48-.38ZM211.65,66.31c-.24,0-.45.07-.63.21-.18.14-.32.38-.42.72-.1.35-.16.83-.18,1.45h2.23c.09-.84.06-1.45-.1-1.82-.16-.37-.46-.56-.9-.56Z"/>
</svg>