<?xml version="1.0" encoding="UTF-8"?>
<svg id="Layer_1" data-name="Layer 1" xmlns="http://www.w3.org/2000/svg" viewBox="0 0 982.98 403.14">
  <defs>
    <style>
      .cls-1 {
        fill: #202151;
      }

      .cls-1, .cls-2 {
        stroke-width: 0px;
      }

      .cls-2 {
        fill: #fff;
      }
    </style>
  </defs>
  <polygon class="cls-1" points="508.97 223.69 508.97 196.63 526.02 191.71 533.14 190.45 543.08 187.88 542.44 189.7 542.15 275.07 541.45 276.18 528.68 276.18 528.24 269.77 528.33 232.61 509.56 235.01 508.97 223.69"/>
  <path class="cls-2" d="M494.12,230.57c-3.31.48-44.12-4.02-46.08-5.21,15.36,1.74,30.72,3.47,46.08,5.21Z"/>
  <path class="cls-2" d="M513.29,193.79c0-3.09.03-6.17,0-9.26-.03-2.76-.07-2.78-2.81-3.41-2.04-.47-4.1-.86-6.14-1.35-.66-.16-1.29-.5-1.91-1.27.41-.11.87-.41,1.22-.31,2.73.71,5.46,1.45,8.16,2.26,1.07.32,2.05.88,2.06,2.23,0,3.7,0,7.4,0,11.11-.19,0-.38,0-.58,0Z"/>
  <path class="cls-2" d="M584.8,142.77c-.51.03-.83.07-.84.05-.72-3.82-.04-7.66.16-11.5.22,3.82.45,7.64.67,11.46Z"/>
  <path class="cls-2" d="M496.61,231.14h2.08c0,.06,0,.11,0,.17h-2.08c0-.06,0-.11,0-.17Z"/>
  <path class="cls-2" d="M512.28,235.68h-1.17s0-.07,0-.11h1.17s0,.07,0,.11Z"/>
  <path class="cls-2" d="M379.77,276.5c-1.29-.06-2-.09-2.69-.12-.18-.34-.39-.58-.4-.82-.06-1.19-.09-.09-.09-1.28,0-79.57,0-159.14,0-238.71v-3.2c-.17-.03-.35-.06-.52-.1-.33.58-.72,1.14-.99,1.74-14.42,31.28-28.83,62.57-43.26,93.85-.79,1.72-1.04,3.46-1.04,5.33-.02,46.48-.06,96.39-.09,142.87,0,1.18,0-1.08,0,.35-.94.08-1.69.13-2.56.2-.18-1.02-.31,1.64-.5.56-1.28-.09-2.53-.26-3.77-.26-18.61-.02-37.22-.01-55.84-.01-39.24,0-204.63-.02-243.87,0-33.1.02-66.19.11-99.29.14-1.05,0-2.35.55-3.37-.96.65-.18,1.11-.4,1.57-.43.91-.06,1.83-.02,2.75-.02,90.77,0,307.68,0,398.45,0,1.45,0,2.89,0,4.62,0,.06-1.39.14-2.45.14-3.51,0-35.02,0-73.48,0-108.49,0-9.81.04-19.62-.02-29.43-.02-2.91.61-5.63,1.82-8.24,15.17-32.85,30.34-65.71,45.51-98.56.3-.65.66-1.28,1.21-2.32.26.82.47,1.25.51,1.69.06.82.02,1.65.02,2.47,0,51.24,0,102.49,0,153.73v3.64c.36.19.65.41.97.51.32.09.68.06,1.37.1V20.64c1.26.58,2.08.91,2.86,1.33,26.52,13.93,53.03,27.89,79.56,41.8,2.14,1.12,3.4,2.53,3.39,5.11-.08,17.05-.08,34.1-.11,51.15,0,1.17,0,2.34,0,3.94-10.67-1.25-20.97-2.45-31.64-3.7-.6,35.39-1.19,70.43-1.79,105.83,2.66-.45,4.99-.73,7.27-1.25,4.53-1.04,9.04-.92,13.61-.38,15.38,1.82,30.76,3.54,46.15,5.29.35.04.71-.03,1.4-.06,0-2.14.02-4.22,0-6.31-.15-14.39-.32-28.77-.46-43.16-.16-15.76-.29-31.52-.45-47.29-.03-2.85-.1-2.9-2.84-3.23-9.19-1.12-18.37-2.23-27.56-3.36-1.24-.15-2.46-.42-3.68-.63-.05-1.68.81-2.07,1.93-2,1.83.12,3.65.33,5.46.54,9.01,1.05,18.02,2.1,27.02,3.19,3.18.39,3.19.44,3.19,3.79,0,14.03,0,28.05,0,42.08v3.22c3,.91,5.86,1.81,8.74,2.65,2.87.84,3,1.01,2.97,3.99-.03,3.02,0,6.03,0,9.4,1.02-.21,1.79-.3,2.52-.52,4.38-1.32,8.76-2.67,13.13-4.02,2.76-.85,2.8-.89,2.8-3.84,0-14.48,0-28.97,0-43.45,0-.73.08-1.48-.01-2.2-.27-2.15.77-3.34,2.63-4.28,5.48-2.77,10.89-5.66,16.32-8.52,7.3-3.84,14.6-7.66,21.86-11.58,1.65-.89,3.09-1.29,4.87-.28,2.01,1.14,4.06.64,6.02-.42,4.28-2.29,8.62-4.47,12.86-6.83,1.7-.95,3.39-1.27,5.58-.9v170.26h3.72c.08-.81.24-1.6.23-2.38-.13-12.65-.28-25.29-.43-37.94-.11-8.98-.23-17.96-.34-26.94-.16-13.75-.28-27.49-.53-41.24-.03-1.88-.67-3.75-1.04-5.62-.36-1.79-.84-3.56-1.09-5.37-.2-1.46-.08-2.84,1.16-4.04.53-.51.63-1.66.62-2.52-.15-13.19-.35-26.39-.53-39.58-.02-1.54,0-3.08,0-4.54,1.71-.52,2.93-.18,4.17.63,10.16,6.57,20.33,13.12,30.54,19.61,1.66,1.06,2.36,2.28,2.21,4.29-.2,2.64-.05,5.3-.05,7.93,1.39.16,2.7.09,3.85.49,1.09.38,2.01,1.26,2.99,1.92,5.4,3.64,10.76,7.32,16.2,10.88,1.87,1.22,2.7,2.65,2.69,4.96-.02,19.62.07,39.23.16,58.85.09,19.61.22,36.93.34,56.55,0,.64.07,1.27.12,2.3,3.54.26,7.08.08,10.61.11,3.67.03,7.33,2.31,11,2.3,3.58-.01,7.15-.05,10.73-.06,3.58-.01,7.15-.01,10.73-.01,3.67,0,7.33,0,11,0,3.58,0,7.15-.04,10.73-.05,3.58,0,7.15,0,10.73,0,3.58,0,7.15.02,10.73,0,3.67-.02,7.33-.1,11-.12,3.58-.02,7.15,0,10.73,0,3.58,0,7.15.01,10.73,0,3.67-.02,7.33-.08,11-.11,3.57-.03,7.15-.06,10.72-.07,3.58-.01,7.15,0,10.73,0s7.33.01,11,0c3.57-.02,7.15-.07,10.72-.09,3.58-.02,7.15,0,10.73,0,3.67,0,7.33,0,11,0h21.45c3.67,0,7.33,0,11,0,3.58,0,7.15-.03,10.73-.04,3.58,0,7.15,0,10.73,0,3.58,0,18.62,0,22.19,0h54.04c.05.18.1.36.16.55-.35.28-.68.74-1.06.79-.9.13-1.83.07-2.74.07-42.82,0-97.1-.04-139.92.02-35.3.05-70.59.2-105.89.33-22.18.08-44.37-.96-66.55-.81-3.28.02-6.55-1.12-9.84-.54-2.66.46-5.48.1-8.23.04-15.21-.36-30.41-.73-45.62-1.13-.94-.02-1.88-.25-2.83-.38,0-.24,0-.47,0-.71.75-.12,1.49-.36,2.24-.35,7.88.05,15.76.15,23.65.2,9.53.05,19.07.06,28.6.08.35,0,.7-.1,1.22-.19.08-.74.22-1.44.21-2.15-.05-17.96-.1-33.64-.18-51.6-.04-10.08-.14-20.16-.18-30.24-.04-10.91-.1-21.82-.04-32.72.01-2.15-.65-3.59-2.48-4.79-5.67-3.71-11.25-7.57-16.88-11.36-.6-.4-1.24-.84-1.92-1.03-1.66-.46-2.59.29-2.68,2.05-.02.46.01.92.01,1.37.04,22.18.09,44.36.13,66.55.03,16.87.05,33.73.06,50.6,0,1.7-.13,3.4-.21,5.1-.24.03-.48.06-.72.09-11.04-31.58-22.08-63.15-33.13-94.73l-.62.08c.34,35.27.99,70.53,1.3,106.17-13.59.85-26.98-1.76-40.79-.9-.39-13.89-.09-24.07-.45-37.68v38.07c-2.96.81-14.63.77-17.1-.09v-90c-2.39.62-4.41,1.2-6.45,1.64-1.23.26-1.65,1.03-1.73,2.13-.05.73-.04,1.47-.04,2.2,0,26.31,0,52.62,0,78.93,0,1.46.1,1.78.11,3.25.01,1.35-.73,2.02-2.05,2.02-3.85,0-7.69.04-11.54-.05-1.59-.04-1.99-.59-2.1-2.26-.05-.73-.02-1.47-.02-2.2,0-12.19,0-23.24,0-35.43v-3.27c-4.4-.14-8.46,1.02-12.59,1.58,3.47-.21,6.93-.41,10.58-.63v40.46c-.72.14-1.42.38-2.12.4-16.02.67-32.04,1.54-48.07,1.9-9.33.21-18.69-.41-28.03-.67-2.09-.06-2.3-.3-2.32-2.46-.01-1.18,0-2.37,0-3.83-1.24-.43-1.5-1.61-1.48-3.1.1-6.96.11-7.05.14-14.02,0-.98-.1-1.96-.17-3.18-20.99,2.45-41.7,4.88-62.84,7.35-.05-4.74-.02-9.2-.02-13.66,0-4.49,0-8.98,0-13.48v-26.95c0-4.48,0-8.96,0-13.44l-.57-.03c0,.81,0,1.62,0,2.44-.09,27.58-.17,55.17-.26,82.75,0,1.07,0-.15,0,1.26ZM382.36,23.28v164.23c1.05.21,1.93.43,2.83.56,4.35.62,8.71,1.19,13.06,1.81,2.71.39,2.91.59,2.84,3.29-.32,13.09-.66,26.19-.98,39.28-.02.86.06,1.72.09,2.6,7.38-.78,40.98-7.91,42.78-9.12-4.05.23-7.76,1.77-11.93,1.74.61-36.42,1.22-72.55,1.83-109.08,10.65,1.24,20.95,2.44,31.33,3.65.12-.67.23-1.02.23-1.37.05-17.41.08-34.82.14-52.23,0-1.56-.6-2.56-2-3.26-3.27-1.65-6.5-3.38-9.74-5.09-22.29-11.73-44.58-23.45-66.87-35.18-1.1-.58-2.22-1.13-3.61-1.84ZM602.29,275.57v-123.23c-1.12-.37-2.15-.62-3.11-1.04-6.64-2.88-13.25-5.81-19.89-8.68-.93-.4-1.98-.55-3.46-.96-.75,45.05-1.75,89.59-2.32,134.55,9.74-.22,19.12-.43,28.78-.65ZM446.99,275.16c.92.06,1.91.15,2.89.19,2.38.09,4.76.15,7.14.21,7.42.19,14.84.66,22.25.49,12-.27,23.98-.94,35.97-1.46,2.29-.1,4.57-.29,6.86-.39,1.34-.06,2.04-.66,2.04-2.02,0-.46.01-.92.01-1.37,0-12.83,0-18.78,0-31.61,0-.89-.09-1.77-.15-2.77-5.71-.13-11.09,1.09-16.59,1-.06-.78-.13-1.23-.13-1.68-.02-12.28-.03-24.56-.06-36.84,0-2.07.73-3.54,2.8-4.2.94-.3,1.59-.87,1.59-1.97,0-2.75.02-5.5.02-8.25,0-.93-.43-1.6-1.36-1.82-2.29-.53-4.59-1.02-7.07-1.57-.07,1.03-.18,1.74-.16,2.45.08,3.75.22,7.51.29,11.26.23,11.63.46,23.26.65,34.89.06,3.49-.21,3.75-3.79,3.47-3.47-.27-6.92-.72-10.39-1.09-13.3-1.41-26.6-2.82-39.9-4.21-.77-.08-1.55-.01-2.6-.01,0,3.55,0,6.74,0,9.93,0,2.93.02,5.86,0,8.8,0,1.24.52,1.9,1.78,1.91.46,0,.92.01,1.37.01,12.92,0,25.85,0,38.77,0,.79,0,1.59-.11,2.68-.19v-11.59h11.1c.65,2.83.57,10.88-.2,13.28-2.05,0-4.23.04-6.41,0-2.75-.06-2.95.14-2.95,2.91.02,7.24.03,7.6.02,14.84,0,2.53-.33,2.84-2.86,2.87-3.48.04-6.96.03-10.44,0-.88,0-1.75-.2-2.91-.35v-16.53c-4.28-.51-9.86-.35-11.89.37-.16,8.11.08,9.44-.14,17.85-1.34,0-2.33,0-3.32,0-4.31,0-8.62-.03-12.92.02-2.5.03-2.68.35-2,3.21ZM641.1,141.26c-5.09,1.86-9.72,3.56-14.35,5.26-5.24,1.92-10.48,3.84-15.73,5.75-1.55.56-2.96,1.33-2.88,3.21.15,3.73-.21,7.48,1.07,11.14,10.38,29.62,20.69,59.27,31.03,88.91.13.39.33.75.5,1.12.12-.03.23-.05.35-.08v-115.31ZM541.45,189.56c-1.01.13-1.56.14-2.08.27-8.79,2.22-17.58,4.43-26.36,6.69-2.34.6-2.41.72-2.41,3.22-.01,10.54-.01,21.08,0,31.62,0,.78.15,1.56.26,2.58,6.15-.71,12.03-1.38,18.2-2.09v15.11c0,4.86-.04,9.71.01,14.57.05,4.91-.23,8.68.2,13.92,3.25,0,6.25.01,9.25,0,2.88-.02,2.93-.08,2.93-2.92,0-26.85,0-52.56,0-79.41,0-1.08,0-2.17,0-3.55ZM574.15,141.75c-.77.19-1.21.25-1.62.41-9.13,3.57-18.23,7.18-27.38,10.69-1.72.66-2.07,1.76-2.06,3.39.04,8.16.01,16.31.03,24.47,0,.59.15,1.18.28,2.07,2.07-.62,3.89-1.15,5.71-1.72,3.41-1.08,6.84-1.26,10.27-.17,3.27,1.04,3.51,1.41,3.51,4.89,0,15.03,0,30.06,0,45.09,0,.73.03,1.47,0,2.2-.05,1.37.66,1.99,1.95,2.15,1.27.15,2.53.39,3.81.55,1.31.16,1.95.88,1.97,2.19,0,.73.02,1.47.02,2.2-.02,11.64-.05,23.28-.07,34.92,0,.98,0-1.48,0-.37h5.45l.02-.29c-1.33-.14-2.65-.29-4.24-.46.79-45.24,1.58-86.88,2.38-132.21ZM582.03,140.67c0-7.98.04-15.29-.06-22.6-.01-.73-.76-1.67-1.43-2.13-2.03-1.42-4.07-1-6.18.13-11.96,6.38-23.92,12.73-35.96,18.96-2.1,1.08-2.9,2.34-2.86,4.67.12,7.69.03,15.38.05,23.07.02,7.33.09,14.65.12,21.98.01,3.42,0,3.41-3.21,4.4-1.28.4-2.54.87-3.8,1.31,3.33-.33,6.51-1.1,9.69-1.88,2.96-.73,3.06-.85,3.06-3.86,0-9.62,0-19.24,0-28.85,0-3.16.01-3.16,3.04-4.36,9.19-3.63,18.4-7.22,27.58-10.9,3.13-1.26,6.21-2.36,9.96.07ZM443.38,228.22c-.81.1-1.52.13-2.21.27-9.69,1.96-19.38,3.93-29.07,5.9-8.97,1.82-17.95,3.64-26.92,5.47-2.84.58-2.86.61-2.86,3.6,0,3.39-.01,6.78.01,10.17,0,.68.15,1.37.25,2.2,2.87-.3,5.51-.55,8.14-.86,11.73-1.38,23.46-2.79,35.2-4.17,5.09-.6,10.2-1.14,15.29-1.75,2.06-.25,2.4-.6,2.41-2.57.04-5.59.01-11.18,0-16.77,0-.44-.14-.87-.24-1.5ZM607.65,107.01c-.43,8.88.26,42.29.95,44.48,1.28-.45,2.56-.89,3.83-1.36,8.68-3.2,17.34-6.44,26.04-9.57,1.8-.65,2.75-1.54,2.63-3.56-.11-1.92-.07-3.85.08-5.77.16-2.09-.7-3.34-2.46-4.45-9.52-6.02-18.97-12.16-28.45-18.25-.74-.48-1.52-.9-2.6-1.53ZM491.62,268.81v-18.61c-1.01-.09-1.89-.24-2.77-.24-12.92-.02-25.84-.02-38.76,0-.86,0-1.73.2-2.64.32v19.91c4.63.51,14.32.32,16.31-.34,0-2.69,0,1.45,0-1.29s-.05-5.5.02-8.25c.07-2.7-.31-5.44.3-8.35,4.14,0,8.16-.02,12.17,0,2.59.02,2.74.18,2.75,2.87.02,5.95,0,5.03.01,10.98,0,.97.09,1.94.14,2.99h12.47ZM382.4,189.2v48.23c4.75-.88,9.32-1.71,13.89-2.58,2.11-.4,2.18-.5,2.23-2.69.15-6.13.27-12.26.42-18.39.16-6.68.3-13.36.51-20.03.04-1.4-.25-2.23-1.83-2.44-4.99-.64-9.96-1.37-15.21-2.11ZM584.93,115.48c.16,2.21.32,4.02.42,5.84.35,6.48.71,12.97,1.01,19.46.07,1.44.58,2.37,1.99,2.92,4.59,1.77,9.14,3.62,13.72,5.45.55-3.23.41-40.34-.19-42.47-5.69,2.96-11.35,5.9-16.96,8.81ZM553.36,237.28c-.53,2.84-.4,36.4.19,38.38h12.99c.67-3.57.46-34.89-.26-36.87-4.26-.5-8.59-1.01-12.92-1.51ZM555.03,183.17v3.22c0,15.21,0,30.42,0,45.63,0,.73.04,1.47,0,2.2-.07,1.24.55,1.91,1.73,2.04,2.43.26,4.87.47,7.3.7-2.7-.87-2.84-1.02-2.84-3.87,0-9.35,0-18.69,0-28.04,0-6.51-.04-13.01.03-19.52.02-1.64-.57-2.54-2.09-3.08-2.57-.92-5.13-1.31-7.8-.48-2.01.62-4.04,1.17-6.03,1.84-.42.14-.74.62-1.1.94.07.19.15.38.22.57,3.42-.69,6.84-1.38,10.59-2.14ZM493.5,238.26c0,3.05,0,5.79,0,8.52,0,1.13.68,1.65,1.74,1.69,1.56.06,3.11.09,4.67.1,1.04.01,1.88-.42,1.9-1.53.07-2.89.02-5.78.02-8.79h-8.34ZM494.12,230.57c-15.36-1.74-30.72-3.47-46.08-5.21,1.96,1.19,42.77,5.69,46.08,5.21ZM513.29,193.79c.19,0,.38,0,.58,0,0-3.7,0-7.4,0-11.11,0-1.35-.99-1.91-2.06-2.23-2.7-.81-5.43-1.56-8.16-2.26-.36-.09-.81.2-1.22.31.62.77,1.24,1.11,1.91,1.27,2.04.49,4.1.88,6.14,1.35,2.75.63,2.78.65,2.81,3.41.04,3.09,0,6.17,0,9.26ZM584.8,142.77c-.22-3.82-.45-7.64-.67-11.46-.2,3.84-.89,7.68-.16,11.5,0,.02.32-.02.84-.05ZM496.61,231.14c0,.06,0,.11,0,.17h2.08c0-.06,0-.11,0-.17h-2.08ZM512.28,235.68s0-.07,0-.11h-1.17s0,.07,0,.11h1.17Z"/>
</svg>