<?xml version="1.0" encoding="UTF-8"?>
<svg id="Layer_2" data-name="Layer 2" xmlns="http://www.w3.org/2000/svg" viewBox="0 0 16.55 12.19">
  <defs>
    <style>
      .cls-1, .cls-2, .cls-3 {
        fill: #ffc107;
      }

      .cls-2 {
        stroke-miterlimit: 10;
        stroke-width: .5px;
      }

      .cls-2, .cls-3 {
        stroke: #1f1f4d;
      }

      .cls-3 {
        stroke-linejoin: round;
      }

      .cls-4 {
        fill: #1f1f4d;
      }
    </style>
  </defs>
  <g id="icons">
    <g>
      <rect class="cls-2" x="12.2" y="3.37" width="4.1" height="8.57"/>
      <rect class="cls-2" x="1.13" y="3.86" width="3" height="1.11"/>
      <rect class="cls-2" x=".25" y="4.97" width="4.64" height="6.97"/>
      <rect class="cls-4" x="14.25" y="4.61" width=".64" height=".64"/>
      <rect class="cls-4" x="14.25" y="5.86" width=".64" height=".64"/>
      <rect class="cls-4" x="1.5" y="6.68" width=".64" height=".64"/>
      <rect class="cls-4" x="1.5" y="8.14" width=".64" height=".64"/>
      <rect class="cls-2" x="6.3" y=".25" width="6.65" height="11.62"/>
      <g>
        <rect class="cls-4" x="8.71" y="1.81" width=".64" height=".64"/>
        <rect class="cls-4" x="7.51" y="1.81" width=".64" height=".64"/>
        <rect class="cls-4" x="11.11" y="1.81" width=".64" height=".64"/>
        <rect class="cls-4" x="11.11" y="4.61" width=".64" height=".64"/>
        <rect class="cls-4" x="9.91" y="1.81" width=".64" height=".64"/>
        <rect class="cls-4" x="11.11" y="3.23" width=".64" height=".64"/>
        <rect class="cls-4" x="9.91" y="3.23" width=".64" height=".64"/>
      </g>
      <g>
        <g>
          <polygon class="cls-3" points="5.92 5.41 8.36 7.75 5.92 10.05 5.92 9.02 4.69 9.02 4.69 6.34 5.92 6.34 5.92 5.41"/>
          <rect class="cls-3" x="3.62" y="6.34" width=".62" height="2.68"/>
        </g>
        <g>
          <polygon class="cls-1" points="5.92 5.41 8.36 7.75 5.92 10.05 5.92 9.02 4.69 9.02 4.69 6.34 5.92 6.34 5.92 5.41"/>
          <rect class="cls-1" x="3.62" y="6.34" width=".62" height="2.68"/>
        </g>
      </g>
    </g>
  </g>
</svg>