<?xml version="1.0" encoding="UTF-8"?>
<svg id="Layer_2" data-name="Layer 2" xmlns="http://www.w3.org/2000/svg" viewBox="0 0 10.23 14.42">
  <defs>
    <style>
      .cls-1 {
        fill: #ffc107;
        stroke: #1f1f4d;
        stroke-miterlimit: 10;
        stroke-width: .5px;
      }

      .cls-2 {
        fill: #1f1f4d;
      }
    </style>
  </defs>
  <g id="icons">
    <path class="cls-1" d="M4.65,11.54l-.05-.2c-1.96,0-3.14.71-3.14,1.34,0,.86,2.1,1.49,3.46,1.49,2.51,0,3.72-.62,3.84-1.26,0-.63-1.25-1.51-3.21-1.51"/>
    <path class="cls-1" d="M5.36,12.83c-.05.08-.16.1-.25.1s-.19-.02-.25-.1C1.59,8.61.25,6.85.25,4.92.25,2.35,2.43.25,5.12.25s4.87,2.1,4.87,4.67c0,1.91-2.3,4.55-4.62,7.91Z"/>
    <g>
      <polygon class="cls-2" points="3.29 7.86 3.29 5.22 2.27 5.22 5.13 2.18 7.96 5.22 6.87 5.22 6.87 7.86 3.29 7.86"/>
      <path class="cls-2" d="M5.13,2.4l2.48,2.67h-.89v2.64h-3.28v-2.64h-.83l2.52-2.67M5.13,1.96l-.22.23-2.52,2.67-.48.51h1.22v2.64h3.88v-2.64h1.28l-.47-.5-2.48-2.67-.22-.23h0Z"/>
    </g>
  </g>
</svg>