<?xml version="1.0" encoding="UTF-8"?>
<svg id="Layer_1" data-name="Layer 1" xmlns="http://www.w3.org/2000/svg" viewBox="0 0 982.98 403.14">
  <defs>
    <style>
      .cls-1 {
        fill: #202151;
      }

      .cls-1, .cls-2 {
        stroke-width: 0px;
      }

      .cls-2 {
        fill: #fff;
      }
    </style>
  </defs>
  <polygon class="cls-1" points="464.8 56.14 472.47 64.85 493.75 79.88 506.92 86.35 509.99 89.1 507.58 94.91 502.59 99.71 497.69 103.68 495.4 107.85 495.18 113.57 491.89 119.57 486.62 127.05 481.69 127.93 472.47 124.09 458.11 115.75 448.01 106.97 439.02 98.09 436.5 98.31 432.22 103.57 430.03 98.75 431.76 95.46 438.14 93.26 441.32 91.07 464.8 56.14"/>
  <path class="cls-2" d="M340.96,198.63c-.56,2.48-1.87,3.28-3.35,3.93-2.99,1.32-5.97,2.63-8.95,3.97-1,.45-1.96.96-3.05,1.49,2.05,1.56,78.89,9.62,83.48,9.61-1.32-.48-2.61-1.02-3.95-1.44-23.08-7.25-46.16-14.47-69.23-21.75-2.46-.78-4.87-1.78-7.16-2.96-2.51-1.29-2.82-2.84-.89-4.81,7.55-7.73,8.53-16.99,6.56-27-.61-3.09-1.24-6.18-1.76-9.28-.3-1.82-.97-3.07-2.98-3.52-1.56-.35-3.02-1.16-4.83-1.89,1.5-1.97,3.25-2.31,4.99-2.58,7.12-1.1,14.22-2.3,21.37-3.21,16.19-2.06,32.39-4.01,48.6-5.92,3.57-.42,7.18-.56,10.78-.68,1.26-.04,2.54.36,4.11.61-1.23,2.45-3.22,2.62-5,2.93-7.09,1.26-14.19,2.46-21.31,3.59-14.45,2.3-28.9,4.55-43.35,6.83-.62.1-1.21.37-1.84,1.13,2.87.74,5.74,1.5,8.61,2.22,24.34,6.09,48.7,12.06,73,18.33,8.38,2.16,16.69,4.72,24.82,7.69,7.14,2.6,14.16,2.91,21.55,1.61,27.37-4.83,54.77-9.48,82.16-14.22,1.87-.32,3.71-.81,6.09-1.34-4.37-4.18-8.75-7.37-14.29-8.58-15.71-3.46-31.45-6.81-47.15-10.32-2.38-.53-4.63-1.68-6.93-2.56-.52-.2-1-.48-1.55-.75,1.63-2.3,3.37-2.39,5.18-2.12,5.23.79,10.46,1.56,15.67,2.46,7.96,1.38,15.91,2.85,24.09,3.87-.64-.53-1.24-1.11-1.91-1.58-3.44-2.36-6.9-4.67-10.33-7.03-1.02-.7-2.03-1.43-2.97-2.23-2.31-2-2.57-3.27-.98-5.86,1.7-2.79,3.6-5.45,5.31-8.23,1.37-2.24,1.26-2.95-.74-4.59-1.83-1.5-3.73-2.91-5.7-4.21-1.94-1.29-2.66-1.19-3.99.58-1.97,2.6-3.81,5.31-5.68,7.98-.44.63-.82,1.31-1.38,2.22,1.85,1.58,3.65,3.06,5.39,4.61,1.09.97,2.21,1.95,3.08,3.11,1.71,2.29,1.14,4.95-1.38,6.3-2.86,1.53-5.84,1.61-8.73.04-1.81-.98-2.91-2.52-2.76-4.66.12-1.79.3-3.59.66-5.35.48-2.31.13-4.15-1.95-5.59-1.55-1.07-2.92-2.41-4.76-3.95-2.17,3.47-4.2,6.65-6.14,9.9-.3.51-.26,1.28-.22,1.93.03.67.28,1.32.38,1.98.79,5.48-.87,7.98-6.22,9.37-.44.11-.89.17-1.32.29-2.94.84-4.14,3.39-3.17,6.31.67,2,1.53,4.09,1.51,6.14-.05,4.92-3.88,8.66-9.04,8.55-4.12-.09-8.38-.5-12.32-1.65-17.06-5-31.16-14.47-41.5-29.08-1.78-2.52-3.13-5.52-3.94-8.49-1.39-5.1,2.18-10.45,7.21-11.07,1.92-.24,3.94.42,6.05.69,2.01-2.56,3.08-5.34,2.25-8.92-.97-4.18,1.89-7.94,6.17-8.4,2.59-.28,4.34-1.37,5.77-3.51,6.66-9.91,13.37-19.78,20.17-29.59,1.36-1.96,1.86-3.79.79-5.96-.1-.2-.13-.43-.19-.65-1.42-5.2.78-8.92,6.1-9.37,3-.25,4.36-1.63,5.41-4.13.6-1.42.51-2.56-.13-3.83-.56-1.1-1.18-2.2-1.51-3.38-1.77-6.46,3.1-12.12,9.64-10.86,10.3,1.98,20.48,4.53,29.14,10.89,5.62,4.12,11.11,8.43,16.54,12.8,2.93,2.35,5.03,5.42,6.7,8.81,1.29,2.62,2.74,5.17,4.17,7.72,1.58,2.8,1.25,5.43-.72,7.85-2.01,2.46-4.66,3.52-7.81,2.92-2.19-.41-3.19-1.98-2.53-4.32.55-1.93,1.45-3.78,2.35-5.58,2-4,1.97-4.24-2.06-5.93-12.79-5.35-24.37-12.63-34.75-21.81-2.76-2.45-5.26-5.19-8.2-8.12-1.94,3.11-3.84,6-5.54,9-.32.57-.04,1.78.38,2.41.73,1.11,1.75,2.05,2.72,2.98,11.44,10.89,24.33,19.64,38.73,26.14,5.69,2.57,5.89,3.15,2.5,8.38-1.27,1.95-1.7,3.79-.69,6.01,1.91,4.15-1.69,8.03-6.13,8.22-2.62.12-3.83-1.58-2.77-3.96.86-1.94,2.09-3.71,3.36-5.9-16.91-8.01-32.62-17.75-46.12-30.79-.45.39-.75.55-.91.8-4.33,6.57-4.12,6.23,1.56,10.74,5.38,4.27,10.75,8.55,16.12,12.84,5.04,4.03,10.53,7.31,16.45,9.9,1.65.72,3.28,1.51,4.83,2.41,2.35,1.37,2.81,2.57,1.86,5.04-1.7,4.39-4.15,8.21-8.41,10.64-3.02,1.73-3.77,2.79-5.19,6.7.77-.69,1.13-.95,1.42-1.27.38-.41.71-.87,1.08-1.3,3.44-4.01,5.58-4.53,10.37-2.52.31.13.61.28.92.43,2.43,1.17,4.64,1.03,6.98-.55,3.69-2.48,8.62-1.34,10.75,2.53.75,1.36,1.23,3.4.79,4.8-1.24,3.97.37,6.52,3.32,8.72,9.29,6.94,18.56,13.9,27.89,20.8,2.53,1.87,5.22,3.53,7.86,5.25,5.84,3.81,11.55,7.85,18.38,9.82,2.42.7,4.23,2.34,6.1,4.04,2.55,2.32,5.45,4.35,8.46,6.06,16.83,9.57,33.92,18.69,50.57,28.58,11.89,7.06,23.34,14.9,34.76,22.72,7.92,5.42,14.92,11.98,21.22,19.25.88,1.02,1.77,2.08,2.39,3.26,1.93,3.66.15,7.17-3.97,7.73-1.3.18-2.7,0-4-.28-7.94-1.71-15.04-5.35-21.71-9.83-6.73-4.52-13.36-9.19-19.98-13.87-17.1-12.1-34.15-24.27-51.25-36.36-6.82-4.82-12.04-10.79-14.42-18.97-.73-2.5-2.54-4.19-4.51-5.75-5.14-4.07-11.05-6.55-17.38-7.91-7.92-1.69-15.91-3.07-23.87-4.57-.26-.05-.57.14-1.2.32,2.25,2.03,4.69,2.98,7.32,3.55,6.27,1.37,12.55,2.68,18.8,4.11,1.93.44,3.79,1.21,6.11,1.97-3.97,3.43-8.8,2.44-13.18,4.45,1.39,1.17,2.53,2.17,3.72,3.13,20.73,16.64,41.38,33.38,62.24,49.85,9.54,7.53,19.33,14.76,29.3,21.72,11.52,8.05,24.47,13.34,37.52,18.37,1.93.74,3.28.33,4.41-1.21,1.87-2.53,3.72-5.09,5.55-7.65.85-1.19,1.6-2.46,2.5-3.6,1.16-1.48,2.73-2.46,4.63-2.43,8.35.12,16.6,4.51,18.42,13.77.88,4.5-.03,8.73-2.38,12.65-1.26,2.1-3.07,3.57-5.36,4.45-.99.38-1.98.76-2.88,1.77.71.08,1.42.19,2.13.23.9.05,1.8.04,2.7.04,32.22.03,64.43.06,96.65.08,51.14.04,102.28.07,153.43.12,22.19.02-5.62.09,16.57.16,2.59,0,5.18.08,7.77.17.63.02,1.26.26,2.51.54-.97.58-1.43,1.04-1.94,1.12-.88.14-1.8.07-2.7.07-29.06,0-8.12.02-37.19,0-52.27-.04-104.54-.09-156.8-.15-27.15-.03-54.3-.07-81.44-.18-3.37-.01-6.77-.3-10.08-.87-7.59-1.29-12.6-5.8-14.71-13.16-.65-2.26-1.73-3.4-3.82-4.15-17.86-6.36-34.31-15.28-49.2-27.06-24.38-19.29-48.78-38.54-73.17-57.82-3.18-2.51-6.37-5.02-9.51-7.58-1.96-1.59-4.04-2.08-6.59-1.63-20.73,3.64-41.47,7.19-62.21,10.75-9.65,1.66-19.32,3.2-28.94,4.98-5.5,1.02-10.74.05-15.98-1.39-28.31-7.78-56.61-15.64-84.96-23.26-9.12-2.45-18.41-4.28-27.62-6.39-.44-.1-.88-.19-1.33-.24-2.92-.35-3.77.51-3.2,3.39.41,2.1.98,4.16,1.51,6.23,1.15,4.42,1.26,8.93.8,13.42-.54,5.39-2.57,10.23-6.16,14.36-.66.76-1.32,1.52-2.26,2.61,1.98.92,3.71,1.98,5.58,2.57,30.71,9.59,61.41,19.24,92.2,28.57,6.31,1.91,12.99,2.62,19.51,3.86,4.86.93,9.73,1.84,14.6,2.73.75.14,1.52.15,2.59.24.36-2.47.75-4.76,1.03-7.07.71-5.81,1.59-11.61,1.96-17.45.2-3.09-.43-6.25-.88-9.35-.42-2.88-1.3-5.72.37-8.72,2.3.62,3.7,2.19,4.78,4.24,4.91,9.33,5.86,19.04,2.83,29.12-.97,3.22-2.07,6.41-3.17,9.82,2.5.9,4.93.78,7.32.39,13.33-2.16,26.69-4.16,39.96-6.62,19.36-3.58,38.66-7.48,57.98-11.28,4.86-.96,9.69-2.02,14.52-3.13,3.18-.73,3.22-.95,2.43-4.16-.4-1.63-.87-3.31-.83-4.95.03-1.09.68-2.41,1.48-3.17.69-.66,2.03-1.03,3.02-.92,1.31.14,1.58,1.47,1.57,2.64,0,1.91.23,3.89-.23,5.7-.66,2.59-.48,4.97.84,7.16,2.6,4.32,3.19,9.09,3.4,13.95.31,7.32.3,14.61-1.34,21.84-1.17,5.14-3.85,8.49-8.84,10.56-23.71,9.82-47.32,6.16-70.96,16.13-1.04.44-2.14.78-3.08,1.37-5.36,3.34-11.23,4.44-17.44,4.14-1.12-.06-2.25,0-3.38,0-180.8,0-314.6,0-495.41,0-1.24,0-2.49.06-3.71-.11-.43-.06-.78-.73-1.78-1.76,2.25-.04,3.66-.1,5.08-.1,54.07,0,61.14,0,115.21,0,108.03,0,216.06,0,324.09,0,20.61,0,41.23-.11,61.84-.19,1.89,0,3.79-.21,5.68-.68-4.32-.56-8.66-1.02-12.97-1.7-22.01-3.45-44.03-6.91-66.02-10.47-19.77-3.2-39.55,1.01-59.28-2.46-16.95-2.98-33.85-.02-50.75-3.29-4.99-.97-5.39-1.99-3.24-6.65,5.94-12.9,5.52-25.72-.54-38.44-1.78-3.74-1.52-4.93,2.07-6.7,6.3-3.1,12.9-5.31,19.87-6.28,1.26-.18,2.58.12,4.14.21ZM334.6,201.25l-.42-.68c-5.22,2.03-10.45,4.01-15.64,6.12-1.94.79-2.36,1.85-1.37,3.78,3.78,7.36,4.4,15.26,4.35,23.33-.04,6.41-.92,12.57-4.65,18.03-.33.49-.32,1.21-.51,1.99,1.02.32,1.85.67,2.71.83,15.81,2.97,31.6-.24,47.45,2.49,23.51,4.06,47.06.48,70.6,4.35,23.54,3.87,47.03,8.07,70.8,10.43,2.82.28,4.25-.26,5.53-2.8,4.2-8.34,6.29-3.4,4.76-12.76-.51-3.1-1.47-6.12-2.14-9.2-.95-4.39-.16-5.92,3.88-7.72,1.34-.59,2.7-1.12,4.07-1.63,18.54-6.95,37.09-13.89,55.63-20.86,1.91-.72,3.75-1.61,5.62-2.42-.86-.46-1.51-.36-2.11-.15-6.99,2.51-13.99,4.98-20.95,7.58-13.7,5.13-27.38,10.31-41.05,15.51-5.95,2.26-11.99,2.93-18.22,1.42-4.92-1.2-9.84-2.4-14.77-3.55-8.97-2.08-17.83-4.85-27.23-4.33-.98.05-2-.28-2.98-.52-7.65-1.86-15.25-3.99-22.96-5.57-20.76-4.25-41.83-6.35-62.85-8.77-13.31-1.53-26.63-2.9-39.94-4.44-3.34-.39-6.64-1.1-9.94-1.77-.63-.13-1.15-.8-2.15-1.53,4.93-2.94,9.99-4.52,14.46-7.17ZM515.35,271.24c3.15-1.14,5.57-1.9,7.9-2.88,22.39-9.43,44.75-5.24,67.17-14.62,4.61-1.93,7.06-5.18,8.03-10,1.45-7.24,1.67-14.53,1.17-21.85-.26-3.82-.99-7.6-2.93-11.01-1.38-2.42-1.51-2.46-4.3-1.87-6.05,1.28-12.08,2.67-18.16,3.81-29.31,5.46-58.63,10.84-87.94,16.26-2.2.41-4.39.89-6.58,1.35.77.79,1.5,1.06,2.24,1.25,5.68,1.4,11.39,2.68,17.04,4.19,7.97,2.13,15.67,1.89,23.47-1.12,18.47-7.11,37.06-13.95,55.63-20.81,3.04-1.12,6.24-1.84,9.38-2.7,1.62-.44,3.06-.19,4.1,1.21-1.07,2.84-3.55,3.49-5.86,4.35-15.7,5.88-31.42,11.69-47.09,17.65-5.89,2.24-11.69,4.72-17.46,7.23-3.21,1.4-3.61,2.54-2.71,5.87.12.43.23.87.36,1.3,3.26,11.01,2.67,8.08-2.02,18.59-.43.97-.76,2-1.44,3.81ZM464.9,59.22c-.64.89-1.1,1.51-1.54,2.15-6.41,9.25-12.86,18.48-19.19,27.79-2.24,3.29-4.67,6.04-8.99,6.29-.62.04-1.28.45-1.82.83-1.71,1.19-2.05,2.93-1.01,5.23.84-.98,1.61-1.94,2.45-2.83,2.64-2.78,4.53-2.73,6.99.21,8.51,10.18,19.35,17.45,30.59,24.14,2.63,1.57,5.85,2.27,8.89,3,2.71.65,5.1-.17,6.67-2.76,1.63-2.7,3.41-5.3,4.99-8.03.47-.82.77-1.92.69-2.85-.47-5.37,2.08-9.07,6.37-11.79,3.33-2.11,5.84-4.91,7.65-8.37,1.52-2.9,1.25-3.38-1.71-4.83-4.74-2.32-9.57-4.53-14.07-7.26-8.39-5.1-16.01-11.27-23.35-17.78-1.16-1.03-2.34-2.03-3.62-3.14ZM597.16,166.02c.13.95.14,1.49.28,1.99,1.18,4.08,3.22,7.72,6.27,10.64,2.84,2.72,5.81,5.33,8.96,7.67,10.3,7.65,20.73,15.12,31.07,22.71,16.26,11.94,33.24,22.73,50.86,32.54,3.34,1.86,6.93,2.64,10.64,2.91,3.22.24,4.3-1.63,2.66-4.47-.67-1.16-1.55-2.21-2.45-3.21-7.35-8.13-15.41-15.49-24.59-21.49-7.25-4.74-14.64-9.27-22.1-13.66-19.39-11.41-38.85-22.68-58.3-34-.94-.55-1.95-.97-3.3-1.63ZM476.33,146.46c-.31.05-.72,0-.95.18-3.67,2.9-7.65,2.52-11.86,1.45-10.28-2.61-19.12-7.72-26.84-14.88-5.46-5.06-10.12-10.55-10.83-18.44-.17-1.91-1.32-2.64-3.25-2.79-3.88-.29-7.07,2.7-6.83,6.61.21,3.45,1.4,6.63,3.68,9.25,3.39,3.9,6.73,7.88,10.45,11.46,10.14,9.76,22.09,16.11,36.11,18.33,2.97.47,5.86.22,8.55-1.11,4.15-2.05,4.88-6.33,1.77-10.06ZM526.86,118.6c-2.36,3.52-4.48,6.69-6.6,9.86-.84,1.26-.56,2.33.6,3.22.54.41,1.06.84,1.62,1.21,5.8,3.86,11.59,7.75,17.44,11.55,1.2.78,2.58,1.49,3.96,1.76,8.92,1.74,17.87,3.35,26.81,5l.28-.51c-14.6-10.62-29.19-21.23-44.12-32.09ZM705.1,259.34c3.81,3.47,7.21,6.93,10.98,9.92,5.82,4.62,13.21,2.53,16.13-4.29,4.12-9.64-3.3-20.77-13.81-20.74-2.33,0-4.12.93-5.38,2.88-2.56,3.96-5.13,7.92-7.92,12.23ZM476.04,40.13c-.67,1.04-1.35,2.07-2,3.11-2.28,3.69-2.21,4.12.99,7.11,7.67,7.18,16.07,13.41,25.18,18.63,5.07,2.91,10.33,5.47,15.52,8.17,1.24.64,2.6,1.15,3.69-.15,1.34-1.6,2.74-3.22,3.19-5.18-8.29-4.78-16.65-8.98-24.31-14.2-7.69-5.23-14.68-11.47-22.26-17.49ZM477.35,138.66c-17.11-7.19-32.16-17.63-45.7-30.26-3.31,3.57-3.5,4.98-1.02,8.42,1.38,1.91,2.89,3.74,4.48,5.48,7.65,8.35,17.13,14.11,27.23,18.92,2.3,1.1,4.86,1.72,7.37,2.31,4.66,1.08,6.12.11,7.64-4.86ZM484.02,129.47c-1.78-.56-2.96-.89-4.12-1.3-2.54-.9-5.23-1.56-7.57-2.83-11.64-6.3-22.56-13.61-31.29-23.77-.44-.51-.85-1.14-1.42-1.42-.65-.32-1.54-.56-2.2-.38-3.19.89-4.67,4.89-2.85,7.63.55.83,1.27,1.6,2.06,2.21,6.23,4.82,12.23,10.01,18.82,14.28,6.69,4.32,13.95,7.77,21.02,11.48,2.14,1.12,3.18.72,4.58-1.25.96-1.35,1.79-2.8,2.97-4.65ZM530.66,56.14c-.43-2.88-.74-3.94-2.97-6.22-2.99-3.05-6.05-6.07-9.39-8.71-7.27-5.75-15.09-10.64-23.94-13.64-1.95-.66-4.04-.93-6.07-1.38-.12.28-.23.55-.35.83,11.85,13.01,26.33,22.19,42.72,29.12ZM467.43,188.94c-.1.52-.21.74-.18.95.15.88.34,1.76.53,2.64,1.22,5.65,1.84,11.3.52,17.06-.88,3.83-1.53,7.73-2.07,11.62-.23,1.69.06,3.46.13,5.55,7.47-6.08,8.43-30.34,1.07-37.82ZM512.2,107.62c-1.23-.83-2.01-1.46-2.88-1.94-3.11-1.73-5.04-1.48-7.47,1.14-1.29,1.39-2.38,2.96-3.5,4.5-.91,1.24-.94,2.48.32,3.57,1.75,1.51,3.5,3.03,5.41,4.68,2.79-4.11,5.36-7.89,8.12-11.95ZM389.18,137.65c-18.94,1.12-37.69,3.64-56.8,7.08,2.43,1.59,4.56,1.26,6.66.93,5.21-.8,10.43-1.62,15.63-2.46,11.5-1.84,23-3.7,34.5-5.56ZM468.79,146.87c.09-.28.18-.57.27-.85-7.2-2.48-14.11-5.52-20.49-9.67-6.41-4.17-12.09-9.2-17.64-14.52.6,1.55,1.34,3.02,2.38,4.22,7.9,9.11,17.6,15.64,28.97,19.62,2.06.72,4.33.82,6.51,1.2ZM544.17,151.33c.08-.25.16-.49.24-.74-1.77-1.9-4.16-2.71-6.65-3.18-12.14-2.3-24.28-4.58-36.44-6.77-1.5-.27-3.11-.78-4.66-.33-.03.24-.06.47-.09.71,15.87,3.44,31.73,6.87,47.6,10.31ZM505.04,123.25c-.57,1.86-.96,2.79-1.15,3.77-.92,4.73,2.46,7.64,7.01,6.1,1.7-.58,2.33-2.01,1.11-3.31-2.02-2.17-4.32-4.09-6.98-6.56ZM482.97,24.76c-4.91-1.45-7.57-.32-9,3.4-1.12,2.93-.41,4.83,2.53,6.33,2.08-3.13,4.17-6.28,6.46-9.73ZM517.28,107.24c2.82,2.11,5.63,4.2,8.48,6.33,2.12-3.74,1.76-6.34-.91-8.14-2.73-1.85-5.05-1.35-7.57,1.81ZM533.15,60.08c-1.38,2.88-2.76,5.46-3.86,8.14-.74,1.8.22,2.79,2.16,2.55,2.29-.28,4.22-1.98,4.77-4.2.66-2.64-.08-4.35-3.07-6.49ZM704.03,261.65c.97,6.55,7.17,11.7,13.05,11.72-4.11-3.69-8.37-7.51-13.05-11.72ZM572.92,159.29c-5.22-1.09-9.9-2.06-15.06-3.13,3.95,5.24,9.17,6.34,15.06,3.13ZM469.02,46.5c-4.74.11-6.25,2.68-4.14,7.15,1.44-2.48,2.74-4.72,4.14-7.15ZM515.09,87.67c4.73-.15,6.11-2.28,4.15-6.23-1.38,2.07-2.63,3.95-4.15,6.23ZM486.53,130.15c-1.22,1.92-2.45,3.84-3.93,6.16,4.42-.99,5.18-2.09,3.93-6.16ZM595.02,196.72q-1.59,2.33,0,3.97v-3.97Z"/>
  <path class="cls-2" d="M486.53,130.15c1.25,4.07.5,5.17-3.93,6.16,1.48-2.32,2.7-4.24,3.93-6.16Z"/>
  <path class="cls-2" d="M595.02,196.72v3.97q-1.59-1.63,0-3.97Z"/>
</svg>