<svg width="91" height="31" viewBox="0 0 91 31" fill="none" xmlns="http://www.w3.org/2000/svg">
<path d="M24.1949 4.97286V19.7413C24.1949 19.0786 24.1294 18.4567 24.0067 17.884C23.8757 17.3113 23.6711 16.804 23.3764 16.3785C23.0818 15.9531 22.6807 15.6094 22.1814 15.364C21.6821 15.1185 21.0601 14.9876 20.3234 14.9876C19.5049 14.9876 18.8256 15.143 18.269 15.4376C17.7124 15.7403 17.2377 16.2394 16.8448 16.9431C16.5501 16.264 16.0999 15.7731 15.5024 15.454C14.9049 15.1349 14.2256 14.9794 13.4562 14.9794C13.0551 14.9794 12.6786 15.0367 12.3348 15.1349C11.9829 15.2412 11.68 15.3721 11.4099 15.544C11.1398 15.7076 10.9106 15.8958 10.7142 16.1085C10.5178 16.3212 10.3704 16.534 10.264 16.7385H10.2231V15.2494H6.97364V26.2051H2.95479C1.31779 26.2051 0 24.8796 0 23.2514V4.97286C0 3.33646 1.32597 2.01917 2.95479 2.01917H21.2401C22.8771 2.01917 24.1949 3.33646 24.1949 4.97286Z" fill="#F47621"/>
<path d="M13.8737 19.6922C13.89 19.9786 13.8982 20.2159 13.8982 20.4122V26.2051H10.3623V20.7559C10.3623 20.3959 10.3869 20.044 10.4278 19.7168C10.4769 19.3895 10.5669 19.0868 10.7061 18.8331C10.8534 18.5713 11.058 18.3586 11.3281 18.2031C11.5982 18.0476 11.9502 17.9658 12.3922 17.9658C12.7769 17.9658 13.0797 18.0558 13.2844 18.2358C13.489 18.4158 13.6281 18.6367 13.7182 18.8904C13.8082 19.144 13.8573 19.414 13.8737 19.7004" fill="#232156"/>
<path d="M20.8147 19.8313V26.2132H17.2788V20.4204C17.2788 20.0849 17.3115 19.774 17.377 19.4795C17.4507 19.1768 17.5571 18.9149 17.7126 18.6858C17.8763 18.4567 18.0809 18.2849 18.351 18.154C18.613 18.0231 18.9404 17.9658 19.3332 17.9658C19.8898 17.9658 20.2745 18.154 20.4955 18.5222C20.7165 18.8904 20.8229 19.3322 20.8229 19.8395" fill="#232156"/>
<path d="M24.195 23.2513V26.205H21.2402C22.8772 26.205 24.195 24.8796 24.195 23.2513Z" fill="#232156"/>
<path d="M34.6745 3.0676L33.2086 4.6705C32.8661 4.2321 32.1811 4.0266 31.6605 4.0266C31.0577 4.0266 30.222 4.3006 30.222 5.0267C30.222 6.794 34.6882 5.6569 34.6882 9.0545C34.6882 11.2191 32.9483 12.2466 30.9481 12.2466C29.7014 12.2466 28.6054 11.8767 27.6875 11.0273L29.2082 9.3559C29.6466 9.9313 30.359 10.2738 31.0714 10.2738C31.7701 10.2738 32.551 9.945 32.551 9.26C32.551 7.479 28.0026 8.438 28.0026 5.2048C28.0026 3.1361 29.7973 2.0538 31.7016 2.0538C32.7976 2.0538 33.8525 2.3415 34.6745 3.0676ZM35.4995 12V5.3418H37.5545V12H35.4995ZM35.3351 3.2457C35.3351 2.5881 35.8694 2.0538 36.527 2.0538C37.1846 2.0538 37.7189 2.5881 37.7189 3.2457C37.7189 3.9033 37.1846 4.4376 36.527 4.4376C35.8694 4.4376 35.3351 3.9033 35.3351 3.2457ZM38.4829 12V5.3418H40.4557V6.246H40.4831C40.7571 5.7254 41.4284 5.1774 42.4285 5.1774C43.3601 5.1774 44.1273 5.561 44.4835 6.3693C44.963 5.5199 45.6069 5.1774 46.5933 5.1774C48.4017 5.1774 48.9497 6.4515 48.9497 8.0681V12H46.8947V8.1229C46.8947 7.5064 46.6618 6.9858 45.9905 6.9858C45.0452 6.9858 44.7438 7.6571 44.7438 8.4791V12H42.6888V8.4791C42.6888 7.9859 42.7162 6.9858 41.7709 6.9858C40.7023 6.9858 40.5379 7.8215 40.5379 8.6846V12H38.4829ZM50.0473 15.1236V5.3418H51.9379V6.2186H51.9653C52.2804 5.7391 53.075 5.1774 54.0066 5.1774C55.9794 5.1774 57.2809 6.6022 57.2809 8.6161C57.2809 10.4656 56.1301 12.1644 54.2395 12.1644C53.3901 12.1644 52.5955 11.9315 52.1297 11.2876H52.1023V15.1236H50.0473ZM51.9379 8.6709C51.9379 9.671 52.5544 10.356 53.5819 10.356C54.6094 10.356 55.2259 9.671 55.2259 8.6709C55.2259 7.6708 54.6094 6.9858 53.5819 6.9858C52.5544 6.9858 51.9379 7.6708 51.9379 8.6709ZM57.9643 12V1.6428H60.0193V12H57.9643ZM65.8112 9.7943L67.2497 10.8492C66.5921 11.6849 65.5098 12.1644 64.4412 12.1644C62.3862 12.1644 60.7422 10.7944 60.7422 8.6709C60.7422 6.5474 62.3862 5.1774 64.4412 5.1774C66.3592 5.1774 67.5648 6.5474 67.5648 8.6709V9.3148H62.7972C62.9616 10.0957 63.5507 10.6026 64.3453 10.6026C65.0166 10.6026 65.4687 10.2601 65.8112 9.7943ZM62.7972 7.9174H65.5098C65.5235 7.2324 64.9892 6.657 64.2494 6.657C63.3452 6.657 62.852 7.2735 62.7972 7.9174Z" fill="#232255"/>
<path d="M28.0137 26.38V16.6804H31.2469L33.48 23.0098H33.5074L35.7542 16.6804H38.9737V26.38H36.8365V18.9409H36.8091L34.2609 26.38H32.6306L30.1783 18.9409H30.1509V26.38H28.0137ZM39.266 26.38L43.4582 16.6804H45.2255L49.4451 26.38H47.0339L46.1982 24.325H42.4307L41.6224 26.38H39.266ZM45.4721 22.5166L44.2802 19.5026L43.102 22.5166H45.4721ZM49.7357 26.38V16.6804H52.6401L56.7638 23.4208H56.7912V16.6804H58.9284V26.38H56.1336L51.9003 19.4752H51.8729V26.38H49.7357ZM59.222 26.38L63.4142 16.6804H65.1815L69.4011 26.38H66.9899L66.1542 24.325H62.3867L61.5784 26.38H59.222ZM65.4281 22.5166L64.2362 19.5026L63.058 22.5166H65.4281ZM78.4734 20.626V25.695C77.213 26.3526 75.8293 26.6266 74.4045 26.6266C71.3768 26.6266 69.1711 24.6401 69.1711 21.5302C69.1711 18.4203 71.3768 16.4338 74.4045 16.4338C75.9389 16.4338 77.2952 16.7763 78.2679 17.6805L76.7609 19.3245C76.1855 18.7217 75.4868 18.4066 74.4045 18.4066C72.5824 18.4066 71.3905 19.7218 71.3905 21.5302C71.3905 23.3386 72.5824 24.6538 74.4045 24.6538C75.3361 24.6538 76.0211 24.3935 76.4184 24.1743V22.5988H74.6785V20.626H78.4734ZM79.7519 26.38V16.6804H86.3416V18.6532H81.8891V20.4616H86.095V22.4344H81.8891V24.4072H86.5882V26.38H79.7519Z" fill="#232255"/>
<path d="M87.4272 16.6801V17.0401H87.9272V18.3701H88.3372V17.0401H88.8572V16.6801H87.4272Z" fill="#232255"/>
<path d="M89.1372 18.37V16.67H89.5072L90.1272 17.68H89.8572L90.4772 16.67H90.8372V18.37H90.4372V17.85C90.4372 17.71 90.4372 17.57 90.4372 17.46C90.4372 17.34 90.4572 17.23 90.4672 17.11L90.5172 17.23L90.0372 17.95H89.8772L89.4172 17.23L89.4672 17.1C89.4872 17.21 89.4972 17.32 89.4972 17.43C89.4972 17.54 89.4972 17.68 89.4972 17.84V18.37H89.0972H89.1372Z" fill="#232255"/>
</svg>
