<svg width="111" height="32" viewBox="0 0 111 32" fill="none" xmlns="http://www.w3.org/2000/svg">
<path d="M6 20.04C5.21 20.04 4.57 19.4 4.57 18.61V7.5C4.57 6.71 5.21 6.07 6 6.07H28.53C29.32 6.07 29.96 6.71 29.96 7.5V17.06C29.96 17.85 29.32 18.49 28.53 18.49H27.27L31.21 22.43C33.18 21.44 34.54 19.41 34.54 17.06V7.5C34.54 4.19 31.85 1.5 28.54 1.5H6C2.69 1.5 0 4.19 0 7.5V18.61C0 21.92 2.69 24.61 6 24.61H11.46V20.04H6Z" fill="#F0CB2E"/>
<path d="M19.5002 31.81L13.2002 25.1L15.5702 22.57L19.5002 26.76L25.7702 20.07L28.1402 22.6L19.5002 31.81Z" fill="#F0CB2E"/>
<path d="M106.98 16.66V17.02H107.48V18.35H107.89V17.02H108.41V16.66H106.98Z" fill="#232255"/>
<path d="M108.69 18.35V16.65H109.06L109.68 17.66H109.41L110.03 16.65H110.39V18.35H109.99V17.83C109.99 17.69 109.99 17.55 109.99 17.44C109.99 17.32 110.01 17.21 110.02 17.09L110.07 17.21L109.59 17.93H109.43L108.97 17.21L109.02 17.08C109.04 17.19 109.05 17.3 109.05 17.41C109.05 17.52 109.05 17.66 109.05 17.82V18.35H108.65H108.69Z" fill="#232255"/>
<path d="M37.9863 26.5L42.1785 16.8004H43.9458L48.1654 26.5H45.7542L44.9185 24.445H41.151L40.3427 26.5H37.9863ZM44.1924 22.6366L43.0005 19.6226L41.8223 22.6366H44.1924ZM48.73 26.5V16.8004H51.9358C55.0594 16.8004 57.6761 18.1293 57.6761 21.6776C57.6761 24.8149 55.1142 26.5 52.2235 26.5H48.73ZM50.8672 18.7732V24.5272H51.9769C53.9634 24.5272 55.4567 23.7737 55.4567 21.568C55.4567 19.6637 53.936 18.7732 52.1276 18.7732H50.8672ZM61.6325 26.5L57.7554 16.8004H60.194L62.5915 23.1572H62.6189L65.0575 16.8004H67.3454L63.345 26.5H61.6325ZM67.9222 26.5V16.8004H70.0594V26.5H67.9222ZM77.8533 17.5676L76.3874 19.1705C76.0449 18.7321 75.3599 18.5266 74.8393 18.5266C74.2365 18.5266 73.4008 18.8006 73.4008 19.5267C73.4008 21.294 77.867 20.1569 77.867 23.5545C77.867 25.7191 76.1271 26.7466 74.1269 26.7466C72.8802 26.7466 71.7842 26.3767 70.8663 25.5273L72.387 23.8559C72.8254 24.4313 73.5378 24.7738 74.2502 24.7738C74.9489 24.7738 75.7298 24.445 75.7298 23.76C75.7298 21.979 71.1814 22.938 71.1814 19.7048C71.1814 17.6361 72.9761 16.5538 74.8804 16.5538C75.9764 16.5538 77.0313 16.8415 77.8533 17.5676ZM78.5276 21.6502C78.5276 18.5403 80.7333 16.5538 83.761 16.5538C86.7887 16.5538 88.9944 18.5403 88.9944 21.6502C88.9944 24.7601 86.7887 26.7466 83.761 26.7466C80.7333 26.7466 78.5276 24.7601 78.5276 21.6502ZM80.747 21.6502C80.747 23.4586 81.9389 24.7738 83.761 24.7738C85.5831 24.7738 86.775 23.4586 86.775 21.6502C86.775 19.8418 85.5831 18.5266 83.761 18.5266C81.9389 18.5266 80.747 19.8418 80.747 21.6502ZM90.036 26.5V16.8004H93.7898C95.7763 16.8004 97.4477 17.4854 97.4477 19.7459C97.4477 21.1022 96.7216 22.1571 95.3516 22.4037L97.8176 26.5H95.2557L93.2281 22.6229H92.1732V26.5H90.036ZM92.1732 18.6088V20.8145H93.4336C94.2145 20.8145 95.2283 20.7871 95.2283 19.7322C95.2283 18.7595 94.3515 18.6088 93.5706 18.6088H92.1732ZM100.384 26.5V22.3626L96.7398 16.8004H99.3976L101.453 20.4309L103.631 16.8004H106.165L102.521 22.3626V26.5H100.384Z" fill="#232255"/>
<path d="M45.4475 3.0676L43.9816 4.6705C43.6391 4.2321 42.9541 4.0266 42.4335 4.0266C41.8307 4.0266 40.995 4.3006 40.995 5.0267C40.995 6.794 45.4612 5.6569 45.4612 9.0545C45.4612 11.2191 43.7213 12.2466 41.7211 12.2466C40.4744 12.2466 39.3784 11.8767 38.4605 11.0273L39.9812 9.3559C40.4196 9.9313 41.132 10.2738 41.8444 10.2738C42.5431 10.2738 43.324 9.945 43.324 9.26C43.324 7.479 38.7756 8.438 38.7756 5.2048C38.7756 3.1361 40.5703 2.0538 42.4746 2.0538C43.5706 2.0538 44.6255 2.3415 45.4475 3.0676ZM46.2725 12V5.3418H48.3275V12H46.2725ZM46.1081 3.2457C46.1081 2.5881 46.6424 2.0538 47.3 2.0538C47.9576 2.0538 48.4919 2.5881 48.4919 3.2457C48.4919 3.9033 47.9576 4.4376 47.3 4.4376C46.6424 4.4376 46.1081 3.9033 46.1081 3.2457ZM49.2559 12V5.3418H51.2287V6.246H51.2561C51.5301 5.7254 52.2014 5.1774 53.2015 5.1774C54.1331 5.1774 54.9003 5.561 55.2565 6.3693C55.736 5.5199 56.3799 5.1774 57.3663 5.1774C59.1747 5.1774 59.7227 6.4515 59.7227 8.0681V12H57.6677V8.1229C57.6677 7.5064 57.4348 6.9858 56.7635 6.9858C55.8182 6.9858 55.5168 7.6571 55.5168 8.4791V12H53.4618V8.4791C53.4618 7.9859 53.4892 6.9858 52.5439 6.9858C51.4753 6.9858 51.3109 7.8215 51.3109 8.6846V12H49.2559ZM60.8203 15.1236V5.3418H62.7109V6.2186H62.7383C63.0534 5.7391 63.848 5.1774 64.7796 5.1774C66.7524 5.1774 68.0539 6.6022 68.0539 8.6161C68.0539 10.4656 66.9031 12.1644 65.0125 12.1644C64.1631 12.1644 63.3685 11.9315 62.9027 11.2876H62.8753V15.1236H60.8203ZM62.7109 8.6709C62.7109 9.671 63.3274 10.356 64.3549 10.356C65.3824 10.356 65.9989 9.671 65.9989 8.6709C65.9989 7.6708 65.3824 6.9858 64.3549 6.9858C63.3274 6.9858 62.7109 7.6708 62.7109 8.6709ZM68.7373 12V1.6428H70.7923V12H68.7373ZM76.5842 9.7943L78.0227 10.8492C77.3651 11.6849 76.2828 12.1644 75.2142 12.1644C73.1592 12.1644 71.5152 10.7944 71.5152 8.6709C71.5152 6.5474 73.1592 5.1774 75.2142 5.1774C77.1322 5.1774 78.3378 6.5474 78.3378 8.6709V9.3148H73.5702C73.7346 10.0957 74.3237 10.6026 75.1183 10.6026C75.7896 10.6026 76.2417 10.2601 76.5842 9.7943ZM73.5702 7.9174H76.2828C76.2965 7.2324 75.7622 6.657 75.0224 6.657C74.1182 6.657 73.625 7.2735 73.5702 7.9174Z" fill="#232255"/>
</svg>
