<?xml version="1.0" encoding="UTF-8"?>
<svg id="Layer_1" data-name="Layer 1" xmlns="http://www.w3.org/2000/svg" viewBox="0 0 92.92 51.32">
  <defs>
    <style>
      .cls-1 {
        fill: #232156;
      }

      .cls-1, .cls-2 {
        stroke-width: 0px;
      }

      .cls-2 {
        fill: #218299;
      }
    </style>
  </defs>
  <g>
    <path class="cls-1" d="M35.61,5.57c-.26-.33-.61-.57-1.06-.73-.45-.16-.87-.24-1.27-.24-.23,0-.47.03-.72.08-.25.05-.48.14-.7.25-.22.12-.4.27-.54.46-.14.19-.21.43-.21.7,0,.44.16.78.49,1.01.33.23.75.43,1.25.6.5.16,1.04.33,1.62.49.58.17,1.12.4,1.62.7.5.3.92.71,1.25,1.22.33.51.49,1.19.49,2.04,0,.81-.15,1.52-.45,2.12-.3.6-.71,1.11-1.23,1.5-.52.4-1.11.69-1.79.88-.68.19-1.4.29-2.15.29-.95,0-1.83-.15-2.64-.44-.81-.29-1.57-.76-2.26-1.4l2.29-2.51c.33.44.74.78,1.25,1.02.5.24,1.02.36,1.56.36.26,0,.52-.03.79-.09.27-.06.51-.15.72-.28.21-.12.38-.28.51-.47.13-.19.2-.42.2-.68,0-.44-.17-.78-.5-1.04-.34-.26-.76-.47-1.27-.65-.51-.18-1.06-.36-1.65-.54-.59-.18-1.14-.42-1.65-.72-.51-.3-.93-.7-1.27-1.19-.33-.49-.5-1.15-.5-1.96,0-.78.16-1.47.47-2.06.31-.59.72-1.08,1.24-1.48.52-.4,1.11-.7,1.79-.9.67-.2,1.37-.3,2.08-.3.82,0,1.62.12,2.39.35.77.24,1.46.63,2.08,1.18l-2.21,2.41Z"/>
    <path class="cls-1" d="M39.05,6.58h3.09s0,10.02,0,10.02h-3.09s.01-10.02.01-10.02ZM38.81,3.43c0-.49.17-.92.52-1.27.35-.35.77-.52,1.27-.52s.92.18,1.27.53c.35.35.53.77.53,1.27,0,.49-.18.92-.53,1.27-.35.35-.77.53-1.27.52-.5,0-.92-.18-1.27-.53-.35-.35-.53-.77-.52-1.27"/>
    <path class="cls-1" d="M43.55,6.58h2.97s0,1.36,0,1.36h.04c.1-.19.23-.38.41-.58.18-.19.39-.36.64-.51.25-.15.53-.28.85-.37.32-.1.66-.14,1.03-.14.7,0,1.32.15,1.86.43.54.29.95.74,1.22,1.36.36-.65.79-1.11,1.3-1.38.51-.27,1.14-.41,1.88-.41.67,0,1.24.12,1.7.34.46.23.82.54,1.09.93.27.39.46.85.57,1.38.12.53.18,1.1.18,1.7v5.91s-3.1,0-3.1,0v-5.83c0-.47-.09-.87-.29-1.2-.2-.34-.55-.51-1.06-.51-.36,0-.66.06-.9.17-.24.12-.43.28-.58.48-.14.21-.25.45-.31.72-.06.27-.09.56-.09.86v5.3s-3.1,0-3.1,0v-5.29c0-.18,0-.4-.01-.66-.01-.26-.06-.51-.14-.74-.08-.23-.22-.43-.4-.6-.19-.16-.46-.25-.81-.25-.4,0-.72.07-.97.22-.25.14-.44.34-.57.58-.13.24-.22.51-.26.82-.04.3-.06.62-.06.95v4.99s-3.1,0-3.1,0V6.58Z"/>
    <path class="cls-1" d="M63.37,11.61c0,.76.21,1.37.65,1.83.43.47,1.04.7,1.82.7.78,0,1.39-.23,1.82-.7.43-.47.65-1.08.65-1.83,0-.75-.21-1.37-.65-1.83-.43-.47-1.04-.7-1.82-.7-.78,0-1.39.23-1.82.7-.43.47-.65,1.08-.65,1.83M60.53,6.6h2.84s0,1.32,0,1.32h.04c.12-.18.29-.36.49-.55.2-.19.43-.35.7-.5.27-.15.56-.28.88-.37.32-.1.65-.14,1.01-.14.74,0,1.42.13,2.02.38.6.26,1.12.61,1.56,1.07.43.46.76,1.01,1,1.64.23.63.35,1.33.35,2.08,0,.7-.11,1.37-.32,2.01-.21.64-.52,1.21-.91,1.7s-.87.89-1.43,1.18c-.57.3-1.2.44-1.92.44-.65,0-1.25-.1-1.8-.3-.56-.2-1.01-.54-1.37-1.02h-.04v5.77s-3.09,0-3.09,0V6.6Z"/>
  </g>
  <rect class="cls-1" x="72.44" y="1.05" width="3.09" height="15.58"/>
  <path class="cls-1" d="M83.79,10.49c.01-.52-.16-.97-.51-1.34-.36-.37-.82-.55-1.38-.55-.34,0-.64.05-.91.16-.26.11-.49.25-.67.42-.18.17-.33.37-.43.6-.1.23-.16.47-.17.71h4.08ZM86.4,14.91c-.49.63-1.12,1.12-1.88,1.46-.75.34-1.54.51-2.35.51-.77,0-1.49-.12-2.17-.37-.68-.25-1.27-.6-1.77-1.06-.5-.46-.89-1.02-1.18-1.66-.29-.65-.43-1.37-.43-2.16,0-.8.15-1.52.43-2.16.29-.65.69-1.2,1.19-1.66.5-.46,1.09-.81,1.77-1.06.68-.25,1.41-.37,2.18-.37.71,0,1.36.12,1.95.37.58.25,1.08.6,1.48,1.06.4.46.72,1.01.94,1.66.22.65.33,1.37.33,2.16v.97s-7.17,0-7.17,0c.12.59.39,1.06.8,1.41.41.35.92.53,1.52.53.51,0,.94-.11,1.29-.34.35-.23.66-.52.92-.88l2.16,1.59Z"/>
  <polygon class="cls-1" points="87.66 3.55 87.67 1.56 86.91 1.56 86.91 1.01 89.06 1.02 89.06 1.56 88.28 1.56 88.28 3.55 87.66 3.55"/>
  <path class="cls-1" d="M89.49,3.56V1.02h.55l.93,1.51h-.4s.94-1.51.94-1.51h.53s0,2.54,0,2.54h-.6s0-.79,0-.79c0-.22,0-.41.02-.59.01-.17.03-.35.06-.52l.07.19-.71,1.09h-.24l-.69-1.08.07-.2c.02.16.05.33.05.5.01.17.02.37.02.61v.79h-.6Z"/>
  <g>
    <path class="cls-1" d="M28.77,23.73h4.75c1.15,0,2.24.13,3.28.39,1.03.26,1.94.67,2.71,1.25.77.58,1.38,1.32,1.84,2.24.45.92.68,2.04.68,3.35,0,1.16-.22,2.19-.66,3.07-.44.89-1.03,1.63-1.77,2.23-.74.6-1.6,1.06-2.58,1.37-.97.31-2,.47-3.06.47h-5.17v-14.36ZM31.93,35.17h1.64c.73,0,1.41-.07,2.04-.22s1.17-.4,1.63-.74c.46-.34.82-.8,1.08-1.36.26-.56.4-1.25.4-2.06,0-.7-.13-1.31-.4-1.84-.26-.52-.62-.95-1.06-1.29-.45-.34-.97-.59-1.57-.76s-1.23-.25-1.9-.25h-1.87v8.52Z"/>
    <path class="cls-1" d="M47.29,23.73h2.62l6.25,14.36h-3.57l-1.24-3.04h-5.58l-1.2,3.04h-3.49l6.21-14.36ZM48.5,27.91l-1.74,4.46h3.51l-1.76-4.46Z"/>
    <path class="cls-1" d="M58.12,26.53h-4.1v-2.8h11.36v2.8h-4.1v11.56h-3.16v-11.56Z"/>
    <path class="cls-1" d="M69.45,23.73h2.62l6.25,14.36h-3.57l-1.24-3.04h-5.58l-1.2,3.04h-3.49l6.21-14.36ZM70.67,27.91l-1.74,4.46h3.51l-1.76-4.46Z"/>
  </g>
  <g>
    <path class="cls-1" d="M3.14,43.24h.95l2.27,5.23h-1.3l-.45-1.11h-2.03l-.44,1.11H.88l2.26-5.23ZM3.58,44.76l-.63,1.62h1.28l-.64-1.62Z"/>
    <path class="cls-1" d="M6.87,43.24h1.15v5.23h-1.15v-5.23Z"/>
    <path class="cls-1" d="M11.26,43.24h1.73c.42,0,.82.05,1.19.14s.71.24.99.45c.28.21.5.48.67.82.17.33.25.74.25,1.22,0,.42-.08.8-.24,1.12-.16.32-.38.59-.65.81-.27.22-.58.38-.94.5-.35.11-.73.17-1.11.17h-1.88v-5.23ZM12.41,47.4h.6c.27,0,.51-.03.74-.08.23-.05.43-.14.59-.27.17-.12.3-.29.4-.49.1-.2.14-.45.14-.75,0-.26-.05-.48-.14-.67-.1-.19-.23-.35-.39-.47s-.35-.22-.57-.28c-.22-.06-.45-.09-.69-.09h-.68v3.1Z"/>
    <path class="cls-1" d="M18.97,48.01h-.01c-.12.19-.29.33-.49.41-.2.08-.42.13-.65.13-.17,0-.33-.02-.48-.07-.16-.05-.29-.12-.41-.21-.12-.09-.21-.21-.28-.35s-.1-.3-.1-.48c0-.21.04-.38.11-.52.08-.14.18-.26.31-.35.13-.09.28-.17.45-.22.17-.05.34-.09.52-.11s.36-.04.54-.04.35,0,.5,0c0-.2-.07-.35-.21-.47-.14-.12-.31-.17-.5-.17s-.35.04-.5.11c-.15.08-.28.18-.4.31l-.59-.61c.21-.19.45-.34.72-.43.28-.1.56-.14.86-.14.33,0,.59.04.8.12.21.08.38.2.5.36s.21.35.26.58c.05.23.07.49.07.79v1.82h-1.02v-.45ZM18.7,46.89c-.08,0-.19,0-.31.01-.13,0-.25.03-.36.06-.12.04-.21.09-.3.16-.08.07-.12.17-.12.29,0,.13.06.23.17.29.11.06.23.1.35.1.11,0,.21-.01.31-.04.1-.03.19-.07.27-.12.08-.05.14-.12.19-.21.05-.08.07-.18.07-.29v-.24h-.27Z"/>
    <path class="cls-1" d="M23.13,45.76h-.97v1.2c0,.1,0,.19.01.27s.03.15.07.21c.03.06.09.1.16.14s.17.05.28.05c.06,0,.14,0,.23-.02.1-.01.17-.04.22-.08v.92c-.12.04-.25.07-.38.09s-.26.02-.39.02c-.19,0-.36-.02-.52-.06-.16-.04-.3-.1-.41-.19-.12-.09-.21-.2-.28-.33s-.1-.31-.1-.5v-1.71h-.71v-.89h.71v-1.06h1.11v1.06h.97v.89Z"/>
    <path class="cls-1" d="M25.94,48.01h-.01c-.12.19-.29.33-.49.41-.2.08-.42.13-.65.13-.17,0-.33-.02-.48-.07-.16-.05-.29-.12-.41-.21-.12-.09-.21-.21-.28-.35s-.1-.3-.1-.48c0-.21.04-.38.11-.52.08-.14.18-.26.31-.35.13-.09.28-.17.45-.22.17-.05.34-.09.52-.11s.36-.04.54-.04.35,0,.5,0c0-.2-.07-.35-.21-.47-.14-.12-.31-.17-.5-.17s-.35.04-.5.11c-.15.08-.28.18-.4.31l-.59-.61c.21-.19.45-.34.72-.43.28-.1.56-.14.86-.14.33,0,.59.04.8.12.21.08.38.2.5.36s.21.35.26.58c.05.23.07.49.07.79v1.82h-1.02v-.45ZM25.67,46.89c-.08,0-.19,0-.31.01-.13,0-.25.03-.36.06-.12.04-.21.09-.3.16-.08.07-.12.17-.12.29,0,.13.06.23.17.29.11.06.23.1.35.1.11,0,.21-.01.31-.04.1-.03.19-.07.27-.12.08-.05.14-.12.19-.21.05-.08.07-.18.07-.29v-.24h-.27Z"/>
    <path class="cls-1" d="M33.4,44.59c-.11-.14-.25-.24-.42-.32s-.36-.11-.57-.11-.42.04-.6.12-.34.2-.48.35c-.14.15-.24.33-.32.54-.08.21-.11.43-.11.67s.04.47.11.68c.08.2.18.38.31.53s.29.27.47.35.37.13.58.13c.24,0,.45-.05.63-.15.18-.1.33-.24.45-.41l.96.72c-.22.31-.5.54-.84.69s-.69.22-1.05.22c-.41,0-.79-.06-1.13-.19s-.64-.31-.89-.55c-.25-.24-.45-.53-.59-.87s-.21-.72-.21-1.14.07-.8.21-1.14.34-.63.59-.87c.25-.24.55-.42.89-.55s.72-.19,1.13-.19c.15,0,.3.01.46.04.16.03.32.07.47.13.15.06.3.14.45.24.14.1.27.22.38.36l-.89.72Z"/>
    <path class="cls-1" d="M38.29,47.84c-.18.23-.4.4-.67.52s-.55.18-.84.18c-.28,0-.54-.04-.78-.13-.24-.09-.46-.22-.63-.38-.18-.16-.32-.36-.42-.59s-.16-.49-.16-.78.05-.54.16-.78c.1-.23.24-.43.42-.59s.39-.29.63-.38c.24-.09.5-.13.78-.13.26,0,.49.04.7.13.21.09.39.21.53.38.15.17.26.36.34.59.08.23.12.49.12.78v.35h-2.57c.04.21.14.38.29.51.15.13.33.19.55.19.18,0,.34-.04.46-.12s.23-.19.33-.31l.78.57ZM37.35,46.26c0-.19-.06-.35-.18-.48s-.29-.2-.49-.2c-.12,0-.23.02-.32.06-.09.04-.17.09-.24.15s-.12.13-.15.21c-.04.08-.06.17-.06.25h1.46Z"/>
    <path class="cls-1" d="M39.13,44.87h1.06v.49h.02c.03-.07.08-.14.15-.21.06-.07.14-.13.23-.18.09-.05.19-.1.3-.13.11-.03.24-.05.37-.05.28,0,.51.04.68.13s.31.21.4.36c.1.15.16.33.2.54.03.21.05.43.05.67v1.98h-1.11v-1.76c0-.1,0-.21-.01-.32s-.03-.21-.07-.31c-.04-.09-.09-.17-.17-.23-.08-.06-.19-.09-.33-.09s-.26.03-.35.08c-.09.05-.16.12-.2.21-.05.09-.08.18-.09.29-.01.11-.02.22-.02.34v1.79h-1.11v-3.59Z"/>
    <path class="cls-1" d="M45.81,45.76h-.97v1.2c0,.1,0,.19.01.27s.03.15.07.21c.03.06.09.1.16.14s.17.05.28.05c.06,0,.14,0,.23-.02.1-.01.17-.04.22-.08v.92c-.12.04-.25.07-.38.09s-.26.02-.39.02c-.19,0-.36-.02-.52-.06-.16-.04-.3-.1-.41-.19-.12-.09-.21-.2-.28-.33s-.1-.31-.1-.5v-1.71h-.71v-.89h.71v-1.06h1.11v1.06h.97v.89Z"/>
    <path class="cls-1" d="M49.77,47.84c-.18.23-.4.4-.67.52s-.55.18-.84.18c-.28,0-.54-.04-.78-.13-.24-.09-.46-.22-.63-.38-.18-.16-.32-.36-.42-.59s-.16-.49-.16-.78.05-.54.16-.78c.1-.23.24-.43.42-.59s.39-.29.63-.38c.24-.09.5-.13.78-.13.26,0,.49.04.7.13.21.09.39.21.53.38.15.17.26.36.34.59.08.23.12.49.12.78v.35h-2.57c.04.21.14.38.29.51.15.13.33.19.55.19.18,0,.34-.04.46-.12s.23-.19.33-.31l.78.57ZM48.83,46.26c0-.19-.06-.35-.18-.48s-.29-.2-.49-.2c-.12,0-.23.02-.32.06-.09.04-.17.09-.24.15s-.12.13-.15.21c-.04.08-.06.17-.06.25h1.46Z"/>
    <path class="cls-1" d="M50.61,44.87h1.11v.58h.01c.12-.22.26-.39.42-.5.16-.11.37-.17.61-.17.06,0,.13,0,.19,0s.12.01.18.03v1.01c-.08-.02-.16-.04-.23-.06-.08-.01-.16-.02-.24-.02-.21,0-.38.03-.5.09-.12.06-.22.14-.28.25-.07.11-.11.23-.13.38-.02.15-.03.31-.03.49v1.5h-1.11v-3.59Z"/>
    <path class="cls-1" d="M56.69,42.93v7.38h-.93v-7.38h.93Z"/>
    <path class="cls-1" d="M59.77,43.24h1.94c.27,0,.53.02.77.07.24.05.45.13.63.25.18.12.32.28.43.49.11.21.16.46.16.77s-.05.56-.15.77c-.1.21-.23.37-.41.5-.17.12-.38.21-.61.26s-.49.08-.77.08h-.84v2.04h-1.15v-5.23ZM60.92,45.45h.77c.1,0,.2,0,.3-.03.1-.02.18-.05.26-.1.08-.05.14-.11.18-.19.05-.08.07-.18.07-.31,0-.13-.03-.24-.09-.32-.06-.08-.14-.14-.24-.19-.1-.04-.2-.07-.32-.08-.12-.01-.23-.02-.34-.02h-.59v1.24Z"/>
    <path class="cls-1" d="M64.14,46.67c0-.29.05-.54.16-.78.1-.23.24-.43.42-.59s.39-.29.63-.38c.24-.09.5-.13.78-.13s.54.04.78.13c.24.09.46.21.63.38s.32.36.42.59c.1.23.15.49.15.78s-.05.54-.15.78c-.1.23-.25.43-.42.59-.18.17-.39.29-.63.38-.24.09-.5.13-.78.13s-.54-.04-.78-.13c-.24-.09-.46-.22-.63-.38-.18-.16-.32-.36-.42-.59-.1-.23-.16-.49-.16-.78ZM65.25,46.67c0,.27.08.49.23.66.16.17.37.25.65.25s.5-.08.65-.25c.16-.17.23-.39.23-.66s-.08-.49-.23-.66c-.15-.17-.37-.25-.65-.25s-.5.08-.65.25c-.15.17-.23.39-.23.66Z"/>
    <path class="cls-1" d="M68.35,44.87h1.18l.73,2.25h.01l.61-2.25h1.21l.66,2.25h.01l.67-2.25h1.12l-1.28,3.59h-1.09l-.75-2.38h-.01l-.66,2.38h-1.11l-1.31-3.59Z"/>
    <path class="cls-1" d="M78.32,47.84c-.18.23-.4.4-.67.52s-.55.18-.84.18c-.28,0-.54-.04-.78-.13-.24-.09-.46-.22-.63-.38-.18-.16-.32-.36-.42-.59s-.16-.49-.16-.78.05-.54.16-.78c.1-.23.24-.43.42-.59s.39-.29.63-.38c.24-.09.5-.13.78-.13.26,0,.49.04.7.13.21.09.39.21.53.38.15.17.26.36.34.59.08.23.12.49.12.78v.35h-2.57c.04.21.14.38.29.51.15.13.33.19.55.19.18,0,.34-.04.46-.12s.23-.19.33-.31l.78.57ZM77.39,46.26c0-.19-.06-.35-.18-.48s-.29-.2-.49-.2c-.12,0-.23.02-.32.06-.09.04-.17.09-.24.15s-.12.13-.15.21c-.04.08-.06.17-.06.25h1.46Z"/>
    <path class="cls-1" d="M79.16,44.87h1.11v.58h.01c.12-.22.26-.39.42-.5.16-.11.37-.17.61-.17.06,0,.13,0,.19,0s.12.01.18.03v1.01c-.08-.02-.16-.04-.23-.06-.08-.01-.16-.02-.24-.02-.21,0-.38.03-.5.09-.12.06-.22.14-.28.25-.07.11-.11.23-.13.38-.02.15-.03.31-.03.49v1.5h-1.11v-3.59Z"/>
  </g>
  <path class="cls-1" d="M16.35,10.29c1.57.92,3.02,1.74,4.45,2.6.77.46,1.05,1.19,1.05,1.97.01,4.28.02,8.55,0,12.83,0,.85-.4,1.56-1.17,2.1-3.83,2.69-7.64,5.41-11.48,8.09-.26.18-.7.31-1.01.25-.48-.09-.55-.51-.55-.91,0-4.32,0-8.63,0-12.95,0-.58.27-1.04.76-1.43,2.41-1.89,4.81-3.8,7.22-5.69.56-.44.74-.99.73-1.62,0-1.71,0-3.42,0-5.26"/>
  <path class="cls-2" d="M6.7,29.42c-1.57-.92-3.02-1.74-4.45-2.6-.77-.46-1.05-1.18-1.05-1.97-.01-4.28-.02-8.55,0-12.83,0-.85.4-1.56,1.17-2.1,3.83-2.69,7.64-5.41,11.48-8.09.26-.18.7-.31,1.01-.25.48.09.55.51.55.91,0,4.31,0,8.63,0,12.95,0,.58-.27,1.04-.76,1.43-2.41,1.89-4.81,3.8-7.22,5.69-.56.44-.74.99-.73,1.62,0,1.71,0,3.42,0,5.26"/>
</svg>