<?xml version="1.0" encoding="UTF-8"?>
<svg id="Layer_1" data-name="Layer 1" xmlns="http://www.w3.org/2000/svg" viewBox="0 0 116.93 49.14">
  <defs>
    <style>
      .cls-1 {
        fill: #232156;
      }

      .cls-1, .cls-2 {
        stroke-width: 0px;
      }

      .cls-2 {
        fill: #3e5aa8;
      }
    </style>
  </defs>
  <g>
    <path class="cls-1" d="M34.38,4.71c-.21-.27-.5-.46-.86-.59-.36-.13-.7-.19-1.02-.19-.19,0-.38.02-.58.07-.2.04-.39.11-.57.21-.18.09-.32.22-.43.37-.11.15-.17.34-.17.57,0,.36.13.63.4.82.27.19.6.35,1.01.48.41.13.84.27,1.31.4.47.13.9.32,1.31.57.4.24.74.57,1.01.98.27.41.4.96.4,1.65,0,.66-.12,1.23-.37,1.72-.25.49-.58.89-.99,1.22-.42.32-.9.56-1.45.71-.55.16-1.13.23-1.74.23-.77,0-1.48-.12-2.13-.35-.66-.23-1.26-.61-1.83-1.13l1.85-2.03c.27.36.6.63,1.01.83.4.19.82.29,1.26.29.21,0,.42-.02.64-.07.22-.05.41-.12.58-.22.17-.1.31-.23.42-.38.11-.16.16-.34.16-.55,0-.35-.14-.63-.41-.84-.27-.21-.61-.38-1.02-.53-.41-.15-.85-.29-1.33-.44-.48-.14-.92-.34-1.33-.58-.41-.24-.75-.57-1.02-.97-.27-.4-.41-.93-.41-1.58,0-.63.13-1.19.38-1.67.25-.48.58-.88,1-1.2.42-.32.9-.56,1.44-.72.54-.16,1.1-.24,1.68-.24.67,0,1.31.1,1.93.28.62.19,1.18.51,1.68.95l-1.78,1.95Z"/>
    <path class="cls-1" d="M37.16,5.53h2.5s0,8.1,0,8.1h-2.5s0-8.1,0-8.1ZM36.97,2.98c0-.4.14-.74.42-1.02.28-.28.63-.42,1.02-.42s.74.14,1.02.43c.28.28.42.62.42,1.02,0,.4-.14.74-.43,1.02-.28.28-.62.42-1.02.42-.4,0-.74-.14-1.02-.42-.28-.28-.42-.63-.42-1.02"/>
    <path class="cls-1" d="M40.8,5.53h2.4s0,1.1,0,1.1h.03c.08-.16.19-.31.33-.47.14-.16.32-.29.52-.42.2-.12.43-.22.68-.3.26-.08.53-.12.83-.12.57,0,1.07.12,1.51.35.44.23.77.6.99,1.1.29-.52.64-.89,1.05-1.12.41-.22.92-.33,1.52-.33.54,0,1,.09,1.37.28.37.18.67.43.88.75.21.32.37.69.46,1.12.09.43.14.89.14,1.37v4.78s-2.5,0-2.5,0v-4.71c0-.38-.08-.7-.24-.97-.16-.27-.45-.41-.86-.41-.29,0-.53.05-.72.14-.19.09-.35.22-.47.39-.12.17-.2.36-.25.58-.05.22-.07.46-.07.7v4.28s-2.5,0-2.5,0v-4.28c0-.14,0-.32-.01-.53-.01-.21-.05-.41-.12-.6-.07-.19-.17-.35-.32-.48-.15-.13-.37-.2-.66-.2-.32,0-.58.06-.78.17-.2.12-.35.27-.46.47s-.18.41-.21.66c-.03.24-.05.5-.05.77v4.03s-2.5,0-2.5,0V5.53Z"/>
    <path class="cls-1" d="M56.82,9.59c0,.61.17,1.1.52,1.48.35.38.84.57,1.47.57.63,0,1.12-.19,1.47-.57.35-.38.53-.87.53-1.48,0-.61-.17-1.11-.52-1.48-.35-.38-.84-.57-1.47-.57-.63,0-1.12.19-1.47.56-.35.38-.53.87-.53,1.48M54.52,5.54h2.3s0,1.07,0,1.07h.03c.1-.14.23-.29.39-.44.16-.15.35-.29.57-.41.22-.12.45-.22.71-.3.26-.08.53-.12.82-.12.6,0,1.14.1,1.63.31.49.21.91.5,1.26.87.35.37.62.81.81,1.32.19.51.28,1.07.28,1.68,0,.57-.09,1.11-.26,1.62-.17.52-.42.97-.73,1.37-.32.4-.7.72-1.16.96-.46.24-.97.36-1.55.36-.52,0-1.01-.08-1.46-.24-.45-.16-.82-.44-1.11-.83h-.03v4.66s-2.5,0-2.5,0V5.54Z"/>
  </g>
  <rect class="cls-1" x="59.1" y="6.1" width="12.59" height="2.5" transform="translate(57.96 72.74) rotate(-89.93)"/>
  <path class="cls-1" d="M73.32,8.69c.01-.42-.13-.78-.42-1.08-.29-.3-.66-.45-1.12-.45-.28,0-.52.04-.73.13-.21.09-.39.2-.54.34-.15.14-.27.3-.35.48-.08.18-.13.38-.14.57h3.3ZM75.44,12.26c-.4.51-.91.9-1.52,1.18-.61.28-1.24.41-1.9.41-.62,0-1.21-.1-1.76-.3-.55-.2-1.03-.49-1.43-.86-.4-.37-.72-.82-.96-1.34-.23-.52-.35-1.11-.35-1.75,0-.64.12-1.23.35-1.75.23-.52.55-.97.96-1.34.41-.37.89-.66,1.43-.86.55-.2,1.14-.3,1.76-.3.58,0,1.1.1,1.58.3.47.2.87.49,1.2.86.33.37.58.82.76,1.34.18.52.27,1.11.27,1.75v.78s-5.8,0-5.8,0c.1.48.32.86.65,1.14.33.28.74.43,1.23.43.41,0,.76-.09,1.04-.27.28-.18.53-.42.74-.71l1.75,1.28Z"/>
  <polygon class="cls-1" points="75.85 1.03 75.85 1.47 76.46 1.47 76.46 3.08 76.96 3.08 76.96 1.47 77.58 1.47 77.58 1.03 75.85 1.03"/>
  <path class="cls-1" d="M77.93,3.08V1.03h.45l.75,1.22h-.32s.76-1.22.76-1.22h.43s0,2.05,0,2.05h-.48s0-.64,0-.64c0-.18,0-.33.01-.47,0-.14.02-.28.05-.42l.06.15-.57.88h-.19l-.56-.88.06-.16c.02.13.04.27.04.4,0,.14.01.3.01.49v.64h-.48Z"/>
  <g>
    <path class="cls-1" d="M34.59,22.22c-.21-.26-.49-.46-.84-.58-.36-.13-.69-.19-1.01-.19-.19,0-.38.02-.57.07-.2.04-.38.11-.56.2-.17.09-.32.22-.43.37-.11.15-.16.34-.16.56,0,.35.13.62.39.8.26.19.59.34.99.48.4.13.83.26,1.29.39.46.13.89.32,1.29.56.4.24.73.56.99.97s.39.95.39,1.62-.12,1.21-.36,1.69c-.24.48-.57.88-.98,1.2-.41.32-.89.55-1.43.7-.54.15-1.11.23-1.71.23-.75,0-1.45-.11-2.1-.34-.65-.23-1.25-.6-1.8-1.11l1.82-2c.26.35.59.62.99.81.4.19.81.29,1.24.29.21,0,.42-.02.63-.07s.4-.12.57-.22c.17-.1.31-.22.41-.38.1-.15.16-.33.16-.54,0-.35-.13-.63-.4-.83-.27-.2-.6-.37-1.01-.52-.4-.14-.84-.28-1.31-.43-.47-.14-.91-.33-1.31-.57-.4-.24-.74-.56-1.01-.95-.27-.39-.4-.91-.4-1.56s.12-1.17.37-1.64c.25-.47.57-.86.98-1.18s.88-.55,1.42-.71c.54-.16,1.09-.24,1.66-.24.66,0,1.29.09,1.9.28.61.19,1.16.5,1.66.93l-1.75,1.92Z"/>
    <path class="cls-1" d="M37.72,19.39h7.89v2.36h-5.33v2.16h5.03v2.36h-5.03v2.36h5.62v2.36h-8.18v-11.61Z"/>
    <path class="cls-1" d="M54.9,22.41c-.25-.31-.56-.54-.93-.71s-.79-.25-1.27-.25-.93.09-1.34.28c-.41.19-.77.45-1.07.78-.3.33-.54.73-.71,1.19-.17.46-.25.96-.25,1.49s.08,1.05.25,1.5c.17.45.4.85.7,1.18s.64.59,1.04.78c.4.19.83.28,1.29.28.52,0,.99-.11,1.39-.33s.74-.52,1-.92l2.13,1.59c-.49.69-1.12,1.2-1.87,1.52-.75.33-1.53.49-2.33.49-.91,0-1.74-.14-2.51-.43-.76-.28-1.43-.69-1.98-1.22s-.99-1.17-1.3-1.93c-.31-.75-.47-1.6-.47-2.52s.16-1.77.47-2.52c.31-.75.75-1.4,1.3-1.93s1.22-.94,1.98-1.22c.77-.28,1.6-.43,2.51-.43.33,0,.67.03,1.02.09s.71.16,1.05.29c.34.13.67.31.99.52.32.22.6.49.85.8l-1.97,1.61Z"/>
    <path class="cls-1" d="M68.02,26.52c0,.69-.1,1.32-.31,1.9-.21.58-.52,1.08-.93,1.51s-.92.76-1.53,1-1.32.36-2.11.36-1.52-.12-2.13-.36-1.12-.57-1.53-1c-.41-.43-.72-.93-.93-1.51-.21-.58-.31-1.21-.31-1.9v-7.13h2.56v7.03c0,.36.06.69.17,1,.12.31.28.57.48.8.21.22.46.4.75.52.29.13.6.19.94.19s.65-.06.93-.19c.28-.13.53-.3.74-.52.21-.22.37-.49.48-.8.12-.31.17-.64.17-1v-7.03h2.56v7.13Z"/>
    <path class="cls-1" d="M69.72,19.39h4.49c.59,0,1.15.06,1.68.17.53.11.99.31,1.39.57.4.27.72.63.95,1.08.24.45.35,1.02.35,1.7,0,.82-.21,1.52-.64,2.09-.43.57-1.05.94-1.87,1.09l2.95,4.9h-3.07l-2.43-4.64h-1.26v4.64h-2.56v-11.61ZM72.28,24.19h1.51c.23,0,.47,0,.73-.02.26-.02.49-.07.7-.15.21-.08.38-.21.52-.39s.21-.42.21-.74c0-.29-.06-.53-.18-.71-.12-.17-.27-.31-.46-.4-.19-.09-.4-.16-.64-.19-.24-.03-.48-.05-.71-.05h-1.67v2.64Z"/>
    <path class="cls-1" d="M79.98,19.39h2.56v11.61h-2.56v-11.61Z"/>
    <path class="cls-1" d="M87.12,21.65h-3.31v-2.26h9.18v2.26h-3.31v9.35h-2.56v-9.35Z"/>
    <path class="cls-1" d="M94.25,19.39h2.56v11.61h-2.56v-11.61Z"/>
    <path class="cls-1" d="M98.59,19.39h7.89v2.36h-5.33v2.16h5.03v2.36h-5.03v2.36h5.62v2.36h-8.18v-11.61Z"/>
    <path class="cls-1" d="M114.25,22.22c-.21-.26-.49-.46-.84-.58-.36-.13-.69-.19-1.01-.19-.19,0-.38.02-.57.07-.2.04-.38.11-.56.2-.17.09-.32.22-.43.37-.11.15-.16.34-.16.56,0,.35.13.62.39.8.26.19.59.34.99.48.4.13.83.26,1.29.39.46.13.89.32,1.29.56.4.24.73.56.99.97s.39.95.39,1.62-.12,1.21-.36,1.69c-.24.48-.57.88-.98,1.2-.41.32-.89.55-1.43.7-.54.15-1.11.23-1.71.23-.75,0-1.45-.11-2.1-.34-.65-.23-1.25-.6-1.8-1.11l1.82-2c.26.35.59.62.99.81.4.19.81.29,1.24.29.21,0,.42-.02.63-.07s.4-.12.57-.22c.17-.1.31-.22.41-.38.1-.15.16-.33.16-.54,0-.35-.13-.63-.4-.83-.27-.2-.6-.37-1.01-.52-.4-.14-.84-.28-1.31-.43-.47-.14-.91-.33-1.31-.57-.4-.24-.74-.56-1.01-.95-.27-.39-.4-.91-.4-1.56s.12-1.17.37-1.64c.25-.47.57-.86.98-1.18s.88-.55,1.42-.71c.54-.16,1.09-.24,1.66-.24.66,0,1.29.09,1.9.28.61.19,1.16.5,1.66.93l-1.75,1.92Z"/>
  </g>
  <g>
    <path class="cls-1" d="M1.98,35.98H.78v-.82h3.34v.82h-1.21v3.4h-.93v-3.4Z"/>
    <path class="cls-1" d="M5.71,39.02h-.01c-.1.15-.23.27-.4.33-.17.07-.34.1-.52.1-.13,0-.27-.02-.39-.06-.12-.04-.24-.09-.33-.17-.1-.08-.17-.17-.23-.28s-.08-.24-.08-.39c0-.17.03-.31.09-.42s.15-.21.25-.29c.1-.08.23-.13.36-.18.14-.04.28-.07.42-.09.15-.02.29-.03.44-.04s.28,0,.4,0c0-.16-.06-.29-.17-.38s-.25-.14-.4-.14-.28.03-.4.09c-.12.06-.23.15-.33.25l-.48-.49c.17-.15.36-.27.58-.35.22-.08.45-.12.69-.12.26,0,.48.03.65.1.17.07.3.16.41.29.1.13.17.28.21.47.04.19.06.4.06.64v1.47h-.82v-.36ZM5.49,38.11c-.07,0-.15,0-.25,0-.1,0-.2.02-.29.05-.09.03-.17.07-.24.13s-.1.13-.1.23c0,.11.05.19.14.24.09.05.19.08.29.08.09,0,.17-.01.25-.04.08-.02.15-.06.22-.1.06-.04.11-.1.15-.17.04-.07.06-.15.06-.24v-.19h-.22Z"/>
    <path class="cls-1" d="M7.87,37.83l-.97-1.35h1.06l.51.79.5-.79h1l-.94,1.35,1.12,1.55h-1.06l-.63-.97-.68.97h-1.04l1.15-1.55Z"/>
    <path class="cls-1" d="M11.71,38.25h-1.47v-.72h1.47v.72Z"/>
    <path class="cls-1" d="M12.29,35.16h1.4c.34,0,.66.04.96.11.3.08.57.2.8.37.23.17.41.39.54.66.13.27.2.6.2.98,0,.34-.06.64-.19.9-.13.26-.3.48-.52.66-.22.18-.47.31-.76.4-.29.09-.59.14-.9.14h-1.52v-4.22ZM13.22,38.52h.48c.21,0,.42-.02.6-.07.19-.04.35-.12.48-.22s.24-.23.32-.4.12-.37.12-.61c0-.21-.04-.39-.12-.54-.08-.15-.18-.28-.31-.38-.13-.1-.29-.17-.46-.22-.18-.05-.36-.07-.56-.07h-.55v2.51Z"/>
    <path class="cls-1" d="M19.45,38.88c-.14.18-.32.32-.54.42-.22.1-.45.15-.68.15s-.43-.04-.63-.11c-.2-.07-.37-.17-.51-.31-.15-.13-.26-.29-.34-.48-.08-.19-.13-.4-.13-.63s.04-.44.13-.63c.08-.19.2-.35.34-.48.14-.13.32-.24.51-.31.2-.07.41-.11.63-.11.21,0,.39.04.56.11s.31.17.43.31c.12.13.21.29.27.48s.1.4.1.63v.28h-2.08c.04.17.11.31.23.41s.27.15.44.15c.15,0,.27-.03.37-.1.1-.07.19-.15.27-.25l.63.46ZM18.69,37.6c0-.15-.05-.28-.15-.39s-.24-.16-.4-.16c-.1,0-.19.02-.26.05-.08.03-.14.07-.19.12s-.1.11-.12.17c-.03.07-.05.13-.05.21h1.18Z"/>
    <path class="cls-1" d="M20.44,37.2h-.59v-.72h.59v-.51c0-.16.01-.31.04-.45.03-.14.08-.27.16-.37.08-.11.19-.19.34-.25.15-.06.34-.09.59-.09.09,0,.18,0,.27.01.09,0,.17.02.26.04l-.04.76c-.05-.02-.1-.04-.14-.04s-.09-.02-.15-.02c-.14,0-.25.03-.32.09s-.11.19-.11.38v.46h.66v.72h-.66v2.18h-.89v-2.18Z"/>
    <path class="cls-1" d="M25.08,38.88c-.14.18-.32.32-.54.42-.22.1-.45.15-.68.15s-.43-.04-.63-.11c-.2-.07-.37-.17-.51-.31-.15-.13-.26-.29-.34-.48-.08-.19-.13-.4-.13-.63s.04-.44.13-.63c.08-.19.2-.35.34-.48.14-.13.32-.24.51-.31.2-.07.41-.11.63-.11.21,0,.39.04.56.11s.31.17.43.31c.12.13.21.29.27.48s.1.4.1.63v.28h-2.08c.04.17.11.31.23.41s.27.15.44.15c.15,0,.27-.03.37-.1.1-.07.19-.15.27-.25l.63.46ZM24.32,37.6c0-.15-.05-.28-.15-.39s-.24-.16-.4-.16c-.1,0-.19.02-.26.05-.08.03-.14.07-.19.12s-.1.11-.12.17c-.03.07-.05.13-.05.21h1.18Z"/>
    <path class="cls-1" d="M25.76,36.48h.89v.47h.01c.09-.18.21-.31.34-.4.13-.09.3-.13.5-.13.05,0,.1,0,.16,0,.05,0,.1.01.14.02v.82c-.06-.02-.13-.03-.19-.04s-.13-.02-.19-.02c-.17,0-.31.02-.41.07s-.18.11-.23.2c-.05.09-.09.19-.1.31-.02.12-.02.25-.02.39v1.21h-.89v-2.9Z"/>
    <path class="cls-1" d="M28.19,36.48h.89v.47h.01c.09-.18.21-.31.34-.4.13-.09.3-.13.5-.13.05,0,.1,0,.16,0,.05,0,.1.01.14.02v.82c-.06-.02-.13-.03-.19-.04s-.13-.02-.19-.02c-.17,0-.31.02-.41.07s-.18.11-.23.2c-.05.09-.09.19-.1.31-.02.12-.02.25-.02.39v1.21h-.89v-2.9Z"/>
    <path class="cls-1" d="M32.44,39.02h-.01c-.1.15-.23.27-.4.33-.17.07-.34.1-.52.1-.13,0-.27-.02-.39-.06-.12-.04-.24-.09-.33-.17-.1-.08-.17-.17-.23-.28s-.08-.24-.08-.39c0-.17.03-.31.09-.42s.15-.21.25-.29c.1-.08.23-.13.36-.18.14-.04.28-.07.42-.09.15-.02.29-.03.44-.04s.28,0,.4,0c0-.16-.06-.29-.17-.38s-.25-.14-.4-.14-.28.03-.4.09c-.12.06-.23.15-.33.25l-.48-.49c.17-.15.36-.27.58-.35.22-.08.45-.12.69-.12.26,0,.48.03.65.1.17.07.3.16.41.29.1.13.17.28.21.47.04.19.06.4.06.64v1.47h-.82v-.36ZM32.22,38.11c-.07,0-.15,0-.25,0-.1,0-.2.02-.29.05-.09.03-.17.07-.24.13s-.1.13-.1.23c0,.11.05.19.14.24.09.05.19.08.29.08.09,0,.17-.01.25-.04.08-.02.15-.06.22-.1.06-.04.11-.1.15-.17.04-.07.06-.15.06-.24v-.19h-.22Z"/>
    <path class="cls-1" d="M33.83,34.87h.9v4.51h-.9v-4.51Z"/>
    <path class="cls-1" d="M36.84,35.16h1.06l1.04,2.77h.01l1.06-2.77h1l-1.74,4.22h-.75l-1.69-4.22Z"/>
    <path class="cls-1" d="M43.76,38.88c-.14.18-.32.32-.54.42-.22.1-.45.15-.68.15s-.43-.04-.63-.11c-.2-.07-.37-.17-.51-.31-.15-.13-.26-.29-.34-.48-.08-.19-.13-.4-.13-.63s.04-.44.13-.63c.08-.19.2-.35.34-.48.14-.13.32-.24.51-.31.2-.07.41-.11.63-.11.21,0,.39.04.56.11s.31.17.43.31c.12.13.21.29.27.48s.1.4.1.63v.28h-2.08c.04.17.11.31.23.41s.27.15.44.15c.15,0,.27-.03.37-.1.1-.07.19-.15.27-.25l.63.46ZM43,37.6c0-.15-.05-.28-.15-.39s-.24-.16-.4-.16c-.1,0-.19.02-.26.05-.08.03-.14.07-.19.12s-.1.11-.12.17c-.03.07-.05.13-.05.21h1.18Z"/>
    <path class="cls-1" d="M45.33,34.87v2h.01c.02-.06.05-.11.1-.17.05-.06.11-.11.17-.15.07-.04.15-.08.24-.11s.19-.04.3-.04c.23,0,.41.04.55.1.14.07.25.17.33.29.08.12.13.27.16.44.03.17.04.35.04.54v1.6h-.89v-1.42c0-.08,0-.17,0-.26s-.02-.17-.05-.25c-.03-.08-.08-.14-.14-.19s-.15-.07-.27-.07-.21.02-.28.06c-.07.04-.13.1-.16.17-.04.07-.06.15-.07.24-.01.09-.02.18-.02.27v1.44h-.89v-4.51h.89Z"/>
    <path class="cls-1" d="M47.8,35.57c0-.14.05-.27.15-.37.1-.1.22-.15.37-.15s.27.05.37.15c.1.1.15.22.15.37s-.05.27-.15.37c-.1.1-.22.15-.37.15s-.27-.05-.37-.15c-.1-.1-.15-.22-.15-.37ZM47.87,36.48h.9v2.9h-.9v-2.9Z"/>
    <path class="cls-1" d="M51.38,37.42c-.04-.06-.11-.12-.18-.16-.08-.04-.17-.06-.26-.06-.23,0-.4.07-.53.2-.12.14-.19.31-.19.53s.06.4.19.53c.13.14.3.2.53.2.1,0,.18-.02.26-.07.07-.04.13-.1.18-.16l.59.62c-.14.14-.3.24-.49.3-.19.06-.37.09-.54.09-.22,0-.43-.04-.63-.11-.2-.07-.37-.17-.51-.31-.15-.13-.26-.29-.34-.48-.08-.19-.13-.4-.13-.63s.04-.44.13-.63c.08-.19.2-.35.34-.48.14-.13.32-.24.51-.31.2-.07.41-.11.63-.11.17,0,.35.03.54.09.19.06.35.16.49.3l-.59.62Z"/>
    <path class="cls-1" d="M52.3,34.87h.9v4.51h-.9v-4.51Z"/>
    <path class="cls-1" d="M56.59,38.88c-.14.18-.32.32-.54.42-.22.1-.45.15-.68.15s-.43-.04-.63-.11c-.2-.07-.37-.17-.51-.31-.15-.13-.26-.29-.34-.48-.08-.19-.13-.4-.13-.63s.04-.44.13-.63c.08-.19.2-.35.34-.48.14-.13.32-.24.51-.31.2-.07.41-.11.63-.11.21,0,.39.04.56.11s.31.17.43.31c.12.13.21.29.27.48s.1.4.1.63v.28h-2.08c.04.17.11.31.23.41s.27.15.44.15c.15,0,.27-.03.37-.1.1-.07.19-.15.27-.25l.63.46ZM55.83,37.6c0-.15-.05-.28-.15-.39s-.24-.16-.4-.16c-.1,0-.19.02-.26.05-.08.03-.14.07-.19.12s-.1.11-.12.17c-.03.07-.05.13-.05.21h1.18Z"/>
    <path class="cls-1" d="M58.91,37.33c-.13-.16-.3-.24-.52-.24-.08,0-.15.02-.22.05-.07.04-.11.1-.11.19,0,.07.04.12.11.16.07.03.17.06.28.09s.23.05.36.08c.13.03.25.08.36.14.11.06.21.15.28.26.07.11.11.26.11.44s-.04.34-.12.46c-.08.12-.19.22-.31.29-.13.07-.27.13-.43.16s-.32.04-.47.04c-.2,0-.41-.03-.62-.09s-.38-.16-.52-.31l.54-.6c.08.1.18.18.28.24s.22.08.35.08c.1,0,.2-.02.28-.04.08-.03.12-.08.12-.16s-.04-.13-.11-.17c-.07-.04-.17-.07-.28-.1s-.24-.05-.36-.08c-.13-.03-.25-.07-.36-.13s-.21-.14-.28-.25-.11-.26-.11-.44c0-.17.04-.32.1-.44.07-.12.16-.22.27-.3s.24-.14.39-.18c.15-.04.3-.06.45-.06.19,0,.38.03.58.08.2.06.36.16.5.3l-.55.54Z"/>
    <path class="cls-1" d="M62.52,34.91v5.97h-.75v-5.97h.75Z"/>
    <path class="cls-1" d="M65,35.16h1.57c.22,0,.43.02.62.06.2.04.37.11.51.21.14.1.26.23.35.39.09.17.13.37.13.62s-.04.45-.12.62c-.08.17-.19.3-.33.4-.14.1-.3.17-.5.21-.19.04-.4.06-.62.06h-.68v1.65h-.93v-4.22ZM65.93,36.95h.62c.08,0,.16,0,.24-.02.08-.02.15-.04.21-.08.06-.04.11-.09.15-.16.04-.07.06-.15.06-.25,0-.11-.03-.19-.08-.26-.05-.07-.11-.12-.19-.15-.08-.04-.16-.06-.26-.07-.1-.01-.19-.02-.27-.02h-.48v1Z"/>
    <path class="cls-1" d="M68.65,36.48h.89v.47h.01c.09-.18.21-.31.34-.4.13-.09.3-.13.5-.13.05,0,.1,0,.16,0,.05,0,.1.01.14.02v.82c-.06-.02-.13-.03-.19-.04s-.13-.02-.19-.02c-.17,0-.31.02-.41.07s-.18.11-.23.2c-.05.09-.09.19-.1.31-.02.12-.02.25-.02.39v1.21h-.89v-2.9Z"/>
    <path class="cls-1" d="M71.02,35.57c0-.14.05-.27.15-.37.1-.1.22-.15.37-.15s.27.05.37.15c.1.1.15.22.15.37s-.05.27-.15.37c-.1.1-.22.15-.37.15s-.27-.05-.37-.15c-.1-.1-.15-.22-.15-.37ZM71.09,36.48h.9v2.9h-.9v-2.9Z"/>
    <path class="cls-1" d="M72.32,36.48h.97l.73,1.97h.01l.68-1.97h.9l-1.15,2.9h-.95l-1.2-2.9Z"/>
    <path class="cls-1" d="M77.76,39.02h-.01c-.1.15-.23.27-.4.33-.17.07-.34.1-.52.1-.13,0-.27-.02-.39-.06-.12-.04-.24-.09-.33-.17-.1-.08-.17-.17-.23-.28s-.08-.24-.08-.39c0-.17.03-.31.09-.42s.15-.21.25-.29c.1-.08.23-.13.36-.18.14-.04.28-.07.42-.09.15-.02.29-.03.44-.04s.28,0,.4,0c0-.16-.06-.29-.17-.38s-.25-.14-.4-.14-.28.03-.4.09c-.12.06-.23.15-.33.25l-.48-.49c.17-.15.36-.27.58-.35.22-.08.45-.12.69-.12.26,0,.48.03.65.1.17.07.3.16.41.29.1.13.17.28.21.47.04.19.06.4.06.64v1.47h-.82v-.36ZM77.54,38.11c-.07,0-.15,0-.25,0-.1,0-.2.02-.29.05-.09.03-.17.07-.24.13s-.1.13-.1.23c0,.11.05.19.14.24.09.05.19.08.29.08.09,0,.17-.01.25-.04.08-.02.15-.06.22-.1.06-.04.11-.1.15-.17.04-.07.06-.15.06-.24v-.19h-.22Z"/>
    <path class="cls-1" d="M81.12,37.2h-.79v.97c0,.08,0,.15.01.22s.03.12.05.17c.03.05.07.08.13.11.06.03.13.04.23.04.05,0,.11,0,.19-.02.08,0,.14-.03.18-.07v.75c-.1.04-.2.06-.31.07s-.21.02-.32.02c-.15,0-.29-.02-.42-.05s-.24-.08-.33-.15c-.1-.07-.17-.16-.22-.27s-.08-.25-.08-.41v-1.38h-.57v-.72h.57v-.86h.9v.86h.79v.72Z"/>
    <path class="cls-1" d="M84.32,38.88c-.14.18-.32.32-.54.42-.22.1-.45.15-.68.15s-.43-.04-.63-.11c-.2-.07-.37-.17-.51-.31-.15-.13-.26-.29-.34-.48-.08-.19-.13-.4-.13-.63s.04-.44.13-.63c.08-.19.2-.35.34-.48.14-.13.32-.24.51-.31.2-.07.41-.11.63-.11.21,0,.39.04.56.11s.31.17.43.31c.12.13.21.29.27.48s.1.4.1.63v.28h-2.08c.04.17.11.31.23.41s.27.15.44.15c.15,0,.27-.03.37-.1.1-.07.19-.15.27-.25l.63.46ZM83.56,37.6c0-.15-.05-.28-.15-.39s-.24-.16-.4-.16c-.1,0-.19.02-.26.05-.08.03-.14.07-.19.12s-.1.11-.12.17c-.03.07-.05.13-.05.21h1.18Z"/>
    <path class="cls-1" d="M86.88,35.16h1.63c.21,0,.42.02.61.06.19.04.36.11.51.21.14.1.26.23.35.39.09.17.13.37.13.62,0,.3-.08.55-.23.76-.16.21-.38.34-.68.4l1.07,1.78h-1.12l-.88-1.69h-.46v1.69h-.93v-4.22ZM87.81,36.9h.55c.08,0,.17,0,.27,0s.18-.02.25-.05c.08-.03.14-.08.19-.14s.08-.15.08-.27c0-.11-.02-.19-.07-.26-.04-.06-.1-.11-.17-.15-.07-.03-.14-.06-.23-.07-.09-.01-.17-.02-.26-.02h-.61v.96Z"/>
    <path class="cls-1" d="M90.78,35.16h2.87v.86h-1.94v.79h1.83v.86h-1.83v.86h2.05v.86h-2.98v-4.22Z"/>
    <path class="cls-1" d="M94.5,35.16h.93v4.22h-.93v-4.22Z"/>
    <path class="cls-1" d="M97.09,35.98h-1.21v-.82h3.34v.82h-1.21v3.4h-.93v-3.4Z"/>
    <path class="cls-1" d="M100.57,37.33c-.13-.16-.3-.24-.52-.24-.08,0-.15.02-.22.05-.07.04-.11.1-.11.19,0,.07.04.12.11.16.07.03.17.06.28.09s.23.05.36.08c.13.03.25.08.36.14.11.06.21.15.28.26.07.11.11.26.11.44s-.04.34-.12.46c-.08.12-.19.22-.31.29-.13.07-.27.13-.43.16s-.32.04-.47.04c-.2,0-.41-.03-.62-.09s-.38-.16-.52-.31l.54-.6c.08.1.18.18.28.24s.22.08.35.08c.1,0,.2-.02.28-.04.08-.03.12-.08.12-.16s-.04-.13-.11-.17c-.07-.04-.17-.07-.28-.1s-.24-.05-.36-.08c-.13-.03-.25-.07-.36-.13s-.21-.14-.28-.25-.11-.26-.11-.44c0-.17.04-.32.1-.44.07-.12.16-.22.27-.3s.24-.14.39-.18c.15-.04.3-.06.45-.06.19,0,.38.03.58.08.2.06.36.16.5.3l-.55.54Z"/>
    <path class="cls-1" d="M104.18,34.91v5.97h-.75v-5.97h.75Z"/>
  </g>
  <g>
    <path class="cls-1" d="M3.05,43.14H.96v-.82h3.09v.79l-1.69,3.44h-1.04l1.73-3.4Z"/>
    <path class="cls-1" d="M4.56,45.59l1.64-1.47c.08-.08.17-.16.25-.26.08-.1.13-.21.13-.33,0-.14-.05-.26-.16-.34s-.22-.12-.36-.12c-.17,0-.3.05-.39.15-.09.1-.15.23-.16.38l-.9-.07c.01-.22.06-.41.14-.57.08-.16.18-.3.32-.4.13-.11.29-.19.46-.24.18-.05.37-.08.58-.08.19,0,.37.03.54.08s.31.13.44.24.22.24.29.4c.07.16.1.34.1.55,0,.14-.01.26-.04.37-.03.11-.07.21-.12.3-.05.09-.11.17-.18.25s-.14.15-.22.22l-1.28,1.1h1.87v.79h-2.95v-.95Z"/>
    <path class="cls-1" d="M9.52,43.32l-.85.75-.51-.58,1.38-1.16h.84v4.22h-.86v-3.22Z"/>
    <path class="cls-1" d="M17.09,44.91c0,.25-.04.48-.11.69-.08.21-.19.39-.34.55-.15.15-.33.28-.56.36s-.48.13-.77.13-.55-.04-.78-.13c-.22-.09-.41-.21-.56-.36-.15-.16-.26-.34-.34-.55-.08-.21-.11-.44-.11-.69v-2.6h.93v2.56c0,.13.02.25.06.36.04.11.1.21.18.29.08.08.17.15.27.19.1.05.22.07.34.07s.24-.02.34-.07c.1-.05.19-.11.27-.19s.13-.18.18-.29c.04-.11.06-.23.06-.36v-2.56h.93v2.6Z"/>
    <path class="cls-1" d="M17.95,42.32h1.57c.22,0,.43.02.62.06.2.04.37.11.51.21.14.1.26.23.35.39.09.17.13.37.13.62s-.04.45-.12.62c-.08.17-.19.3-.33.4-.14.1-.3.17-.5.21-.19.04-.4.06-.62.06h-.68v1.65h-.93v-4.22ZM18.88,44.11h.62c.08,0,.16,0,.24-.02.08-.02.15-.04.21-.08.06-.04.11-.09.15-.16.04-.07.06-.15.06-.25,0-.11-.03-.19-.08-.26-.05-.07-.11-.12-.19-.15-.08-.04-.16-.06-.26-.07-.1-.01-.19-.02-.27-.02h-.48v1Z"/>
    <path class="cls-1" d="M21.71,42.32h1.63c.21,0,.42.02.61.06.19.04.36.11.51.21.14.1.26.23.35.39.09.17.13.37.13.62,0,.3-.08.55-.23.76-.16.21-.38.34-.68.4l1.07,1.78h-1.12l-.88-1.69h-.46v1.69h-.93v-4.22ZM22.64,44.07h.55c.08,0,.17,0,.27,0s.18-.02.25-.05c.08-.03.14-.08.19-.14s.08-.15.08-.27c0-.11-.02-.19-.07-.26-.04-.06-.1-.11-.17-.15-.07-.03-.14-.06-.23-.07-.09-.01-.17-.02-.26-.02h-.61v.96Z"/>
    <path class="cls-1" d="M25.61,42.32h2.87v.86h-1.94v.79h1.83v.86h-1.83v.86h2.05v.86h-2.98v-4.22Z"/>
    <path class="cls-1" d="M29.32,42.32h.93v4.22h-.93v-4.22Z"/>
    <path class="cls-1" d="M31.92,43.14h-1.21v-.82h3.34v.82h-1.21v3.4h-.93v-3.4Z"/>
    <path class="cls-1" d="M36.9,42.07v5.97h-.75v-5.97h.75Z"/>
    <path class="cls-1" d="M44.01,46.54h-2.56c-.33,0-.64-.05-.92-.15-.28-.1-.52-.24-.72-.43s-.36-.41-.48-.68-.17-.57-.17-.91c0-.32.06-.61.18-.88.12-.27.28-.5.48-.69s.44-.34.72-.44.57-.16.88-.16.61.05.88.16.51.26.72.45.36.42.48.68.18.56.18.87c0,.15-.02.3-.05.44-.03.14-.08.28-.15.41-.07.13-.15.24-.26.34s-.23.18-.38.25h0s1.18.01,1.18.01v.72ZM40.12,44.38c0,.18.03.35.1.51.07.16.16.3.28.41.12.12.25.21.41.28.16.07.32.1.5.1s.35-.03.5-.1c.16-.07.29-.16.41-.28.12-.12.21-.26.28-.41.07-.16.1-.33.1-.51s-.03-.35-.1-.51c-.07-.16-.16-.3-.28-.41-.12-.12-.25-.21-.41-.28-.16-.07-.32-.1-.5-.1s-.35.03-.5.1c-.16.07-.29.16-.41.28-.12.12-.21.26-.28.41-.07.16-.1.33-.1.51Z"/>
    <path class="cls-1" d="M44.24,44.43c0-.34.06-.64.17-.92s.27-.51.47-.7c.2-.19.44-.34.72-.44s.58-.16.91-.16.63.05.91.16.52.25.72.44.36.43.47.7.17.58.17.92-.06.64-.17.92-.27.51-.47.7-.44.34-.72.44-.58.16-.91.16-.63-.05-.91-.16-.52-.25-.72-.44c-.2-.19-.36-.43-.47-.7s-.17-.58-.17-.92ZM45.21,44.43c0,.2.03.38.09.55s.15.31.27.43c.12.12.25.22.42.28.16.07.34.1.54.1s.38-.03.54-.1c.16-.07.3-.16.42-.28.12-.12.2-.26.26-.43.06-.17.09-.35.09-.55s-.03-.38-.09-.54c-.06-.17-.15-.31-.26-.43-.12-.12-.25-.22-.42-.28-.16-.07-.34-.1-.54-.1s-.38.03-.54.1c-.16.07-.3.16-.42.28-.12.12-.2.27-.27.43s-.09.35-.09.54Z"/>
    <path class="cls-1" d="M49.21,45.68l2.14-2.54h-2.06v-.82h3.19v.82l-2.1,2.54h2.17v.86h-3.34v-.86Z"/>
    <path class="cls-1" d="M54.99,42.32h2.83v.86h-1.9v.86h1.76v.86h-1.76v1.65h-.93v-4.22Z"/>
    <path class="cls-1" d="M61.17,46.54h-.86v-.39h-.01c-.03.06-.07.11-.12.17s-.11.11-.18.15c-.07.04-.15.08-.25.11s-.19.04-.3.04c-.23,0-.41-.04-.55-.1-.14-.07-.25-.17-.33-.29-.08-.12-.13-.27-.15-.44-.03-.17-.04-.35-.04-.54v-1.6h.89v1.42c0,.08,0,.17,0,.26,0,.09.02.17.05.25.03.08.08.14.14.19s.15.07.27.07.21-.02.28-.06c.07-.04.13-.1.16-.17.04-.07.06-.15.08-.24.01-.09.02-.18.02-.27v-1.44h.89v2.9Z"/>
    <path class="cls-1" d="M61.81,43.64h.86v.39h.01c.03-.06.07-.11.12-.17s.11-.11.19-.15c.07-.04.15-.08.24-.11s.19-.04.3-.04c.23,0,.41.04.55.1.14.07.25.17.33.29.08.12.13.27.16.44.03.17.04.35.04.54v1.6h-.89v-1.42c0-.08,0-.17,0-.26s-.02-.17-.05-.25c-.03-.08-.08-.14-.14-.19s-.15-.07-.27-.07-.21.02-.28.06c-.07.04-.13.1-.16.17-.04.07-.06.15-.07.24-.01.09-.02.18-.02.27v1.44h-.89v-2.9Z"/>
    <path class="cls-1" d="M68.28,46.54h-.82v-.38h-.01c-.04.05-.08.1-.14.16s-.12.1-.2.15c-.08.04-.16.08-.26.11-.09.03-.19.04-.29.04-.21,0-.41-.04-.58-.11-.17-.07-.33-.18-.45-.31s-.22-.29-.29-.47c-.07-.18-.1-.38-.1-.6,0-.2.03-.4.09-.58.06-.19.15-.35.26-.49.11-.14.25-.26.42-.34s.35-.13.55-.13c.19,0,.36.03.52.09.16.06.29.16.4.3h.01v-1.92h.89v4.51ZM67.45,45.09c0-.22-.06-.4-.19-.53-.12-.14-.3-.2-.53-.2s-.4.07-.53.2-.19.31-.19.53.06.4.19.53.3.2.53.2.4-.07.53-.2c.13-.14.19-.31.19-.53Z"/>
    <path class="cls-1" d="M70.63,44.5c-.13-.16-.3-.24-.52-.24-.08,0-.15.02-.22.05-.07.04-.11.1-.11.19,0,.07.04.12.11.16.07.03.17.06.28.09s.23.05.36.08c.13.03.25.08.36.14.11.06.21.15.28.26.07.11.11.26.11.44s-.04.34-.12.46c-.08.12-.19.22-.31.29-.13.07-.27.13-.43.16s-.32.04-.47.04c-.2,0-.41-.03-.62-.09s-.38-.16-.52-.31l.54-.6c.08.1.18.18.28.24s.22.08.35.08c.1,0,.2-.02.28-.04.08-.03.12-.08.12-.16s-.04-.13-.11-.17c-.07-.04-.17-.07-.28-.1s-.24-.05-.36-.08c-.13-.03-.25-.07-.36-.13s-.21-.14-.28-.25-.11-.26-.11-.44c0-.17.04-.32.1-.44.07-.12.16-.22.27-.3s.24-.14.39-.18c.15-.04.3-.06.45-.06.19,0,.38.03.58.08.2.06.36.16.5.3l-.55.54Z"/>
    <path class="cls-1" d="M74.24,42.07v5.97h-.75v-5.97h.75Z"/>
    <path class="cls-1" d="M77.54,43.14h-1.21v-.82h3.34v.82h-1.21v3.4h-.93v-3.4Z"/>
    <path class="cls-1" d="M81.27,46.18h-.01c-.1.15-.23.27-.4.33-.17.07-.34.1-.52.1-.13,0-.27-.02-.39-.06-.12-.04-.24-.09-.33-.17-.1-.08-.17-.17-.23-.28s-.08-.24-.08-.39c0-.17.03-.31.09-.42s.15-.21.25-.29c.1-.08.23-.13.36-.18.14-.04.28-.07.42-.09.15-.02.29-.03.44-.04s.28,0,.4,0c0-.16-.06-.29-.17-.38s-.25-.14-.4-.14-.28.03-.4.09c-.12.06-.23.15-.33.25l-.48-.49c.17-.15.36-.27.58-.35.22-.08.45-.12.69-.12.26,0,.48.03.65.1.17.07.3.16.41.29.1.13.17.28.21.47.04.19.06.4.06.64v1.47h-.82v-.36ZM81.04,45.27c-.07,0-.15,0-.25,0-.1,0-.2.02-.29.05-.09.03-.17.07-.24.13s-.1.13-.1.23c0,.11.05.19.14.24.09.05.19.08.29.08.09,0,.17-.01.25-.04.08-.02.15-.06.22-.1.06-.04.11-.1.15-.17.04-.07.06-.15.06-.24v-.19h-.22Z"/>
    <path class="cls-1" d="M83.43,44.99l-.97-1.35h1.06l.51.79.5-.79h1l-.94,1.35,1.12,1.55h-1.06l-.63-.97-.68.97h-1.04l1.15-1.55Z"/>
    <path class="cls-1" d="M87.88,42.32h.93v3.37h1.72v.86h-2.66v-4.22Z"/>
    <path class="cls-1" d="M90.88,42.73c0-.14.05-.27.15-.37.1-.1.22-.15.37-.15s.27.05.37.15c.1.1.15.22.15.37s-.05.27-.15.37c-.1.1-.22.15-.37.15s-.27-.05-.37-.15c-.1-.1-.15-.22-.15-.37ZM90.95,43.64h.9v2.9h-.9v-2.9Z"/>
    <path class="cls-1" d="M95.24,46.04c-.14.18-.32.32-.54.42-.22.1-.45.15-.68.15s-.43-.04-.63-.11c-.2-.07-.37-.17-.51-.31-.15-.13-.26-.29-.34-.48-.08-.19-.13-.4-.13-.63s.04-.44.13-.63c.08-.19.2-.35.34-.48.14-.13.32-.24.51-.31.2-.07.41-.11.63-.11.21,0,.39.04.56.11s.31.17.43.31c.12.13.21.29.27.48s.1.4.1.63v.28h-2.08c.04.17.11.31.23.41s.27.15.44.15c.15,0,.27-.03.37-.1.1-.07.19-.15.27-.25l.63.46ZM94.48,44.76c0-.15-.05-.28-.15-.39s-.24-.16-.4-.16c-.1,0-.19.02-.26.05-.08.03-.14.07-.19.12s-.1.11-.12.17c-.03.07-.05.13-.05.21h1.18Z"/>
    <path class="cls-1" d="M95.91,43.64h.86v.39h.01c.03-.06.07-.11.12-.17s.11-.11.19-.15c.07-.04.15-.08.24-.11s.19-.04.3-.04c.23,0,.41.04.55.1.14.07.25.17.33.29.08.12.13.27.16.44.03.17.04.35.04.54v1.6h-.89v-1.42c0-.08,0-.17,0-.26s-.02-.17-.05-.25c-.03-.08-.08-.14-.14-.19s-.15-.07-.27-.07-.21.02-.28.06c-.07.04-.13.1-.16.17-.04.07-.06.15-.07.24-.01.09-.02.18-.02.27v1.44h-.89v-2.9Z"/>
    <path class="cls-1" d="M100.98,44.5c-.13-.16-.3-.24-.52-.24-.08,0-.15.02-.22.05-.07.04-.11.1-.11.19,0,.07.04.12.11.16.07.03.17.06.28.09s.23.05.36.08c.13.03.25.08.36.14.11.06.21.15.28.26.07.11.11.26.11.44s-.04.34-.12.46c-.08.12-.19.22-.31.29-.13.07-.27.13-.43.16s-.32.04-.47.04c-.2,0-.41-.03-.62-.09s-.38-.16-.52-.31l.54-.6c.08.1.18.18.28.24s.22.08.35.08c.1,0,.2-.02.28-.04.08-.03.12-.08.12-.16s-.04-.13-.11-.17c-.07-.04-.17-.07-.28-.1s-.24-.05-.36-.08c-.13-.03-.25-.07-.36-.13s-.21-.14-.28-.25-.11-.26-.11-.44c0-.17.04-.32.1-.44.07-.12.16-.22.27-.3s.24-.14.39-.18c.15-.04.3-.06.45-.06.19,0,.38.03.58.08.2.06.36.16.5.3l-.55.54Z"/>
    <path class="cls-1" d="M104.18,42.07v5.97h-.75v-5.97h.75Z"/>
  </g>
  <path class="cls-2" d="M7.91,12.32c5.34,3.49,10.58,6.91,15.89,10.38.01-.26.02-.39.02-.53,0-1.35-.02-2.7,0-4.06.02-.8-.28-1.35-.87-1.73-3.31-2.17-6.62-4.33-9.92-6.49-.47-.31-.94-.31-1.41,0-.37.23-.73.47-1.09.71-.84.55-1.69,1.11-2.64,1.73M.87,10.03c-.02.25-.04.4-.04.55,0,1.32.02,2.65-.01,3.97-.02.86.31,1.43.93,1.83,3.3,2.16,6.6,4.31,9.89,6.46.46.3.91.31,1.37,0,.9-.59,1.8-1.18,2.7-1.77.31-.21.63-.41,1.04-.68-5.33-3.48-10.57-6.9-15.88-10.37M1.75,8.27c.14.11.21.16.27.2,1.25.82,2.51,1.63,3.75,2.46.26.18.47.18.73,0,1.83-1.21,3.67-2.39,5.5-3.6.24-.16.42-.16.66,0,3.34,2.19,6.68,4.37,10.02,6.55.35.23.7.44,1.05.67.04-.1.07-.14.07-.17,0-1.6,0-3.19-.02-4.79-.01-.57-.3-.98-.74-1.27-3.25-2.11-6.49-4.22-9.73-6.35-.67-.44-1.29-.45-1.97,0-2.96,1.95-5.93,3.88-8.9,5.82-.21.14-.42.29-.7.48M22.93,24.46c-.18-.13-.27-.21-.37-.27-1.22-.8-2.45-1.58-3.66-2.39-.28-.19-.48-.18-.76,0-1.82,1.2-3.65,2.38-5.47,3.59-.26.17-.44.16-.7,0-3.32-2.18-6.64-4.34-9.96-6.51-.36-.23-.72-.46-1.12-.71-.03.15-.07.24-.07.34,0,1.44-.02,2.88,0,4.32.01.65.21,1.21.77,1.58,3.26,2.11,6.52,4.24,9.77,6.38.66.44,1.27.43,1.93,0,2.61-1.72,5.23-3.42,7.85-5.13.57-.37,1.13-.75,1.77-1.17"/>
  <path class="cls-2" d="M22.93,24.46c-.64.42-1.2.8-1.77,1.17-2.62,1.71-5.24,3.41-7.85,5.13-.66.44-1.27.44-1.93,0-3.25-2.14-6.5-4.26-9.77-6.38-.56-.36-.76-.92-.77-1.58-.03-1.44-.01-2.88,0-4.32,0-.09.04-.19.07-.34.39.25.76.48,1.12.71,3.32,2.17,6.64,4.33,9.96,6.51.25.17.44.17.7,0,1.82-1.2,3.65-2.38,5.47-3.59.28-.18.48-.19.76,0,1.21.81,2.44,1.6,3.66,2.39.1.06.19.14.37.27"/>
  <path class="cls-2" d="M1.75,8.27c.28-.19.48-.34.7-.48,2.97-1.94,5.94-3.87,8.9-5.82.68-.45,1.29-.44,1.97,0,3.24,2.13,6.48,4.24,9.73,6.35.44.29.73.7.74,1.27.03,1.6.02,3.19.02,4.79,0,.04-.03.08-.07.17-.36-.23-.71-.44-1.05-.67-3.34-2.18-6.69-4.36-10.02-6.55-.24-.16-.42-.16-.66,0-1.83,1.21-3.67,2.39-5.5,3.6-.26.17-.47.17-.73,0-1.25-.83-2.5-1.65-3.75-2.46-.06-.04-.12-.09-.27-.2"/>
  <path class="cls-2" d="M.87,10.03c5.31,3.47,10.56,6.89,15.88,10.37-.41.26-.72.47-1.04.68-.9.59-1.8,1.18-2.7,1.77-.46.31-.92.29-1.37,0-3.3-2.15-6.6-4.31-9.89-6.46-.62-.41-.95-.98-.93-1.83.04-1.32,0-2.65.01-3.97,0-.15.02-.3.04-.55"/>
  <path class="cls-2" d="M7.91,12.32c.95-.62,1.79-1.17,2.64-1.73.36-.24.72-.48,1.09-.71.47-.3.94-.3,1.41,0,3.31,2.16,6.62,4.33,9.92,6.49.58.38.89.93.87,1.73-.03,1.35,0,2.7,0,4.06,0,.14-.01.28-.02.53-5.31-3.47-10.56-6.89-15.89-10.38"/>
</svg>