<?xml version="1.0" encoding="UTF-8"?>
<svg id="Layer_1" data-name="Layer 1" xmlns="http://www.w3.org/2000/svg" viewBox="0 0 117.08 49.14">
  <defs>
    <style>
      .cls-1 {
        fill: #232156;
      }

      .cls-1, .cls-2 {
        stroke-width: 0px;
      }

      .cls-2 {
        fill: #b7208a;
      }
    </style>
  </defs>
  <g>
    <path class="cls-1" d="M28.58,4.71c-.21-.27-.5-.46-.86-.59-.36-.13-.7-.19-1.03-.19-.19,0-.38.02-.58.07-.2.04-.39.11-.57.21-.18.1-.32.22-.43.38-.11.15-.17.34-.17.57,0,.36.13.63.4.82.27.19.6.35,1.01.48.41.13.84.27,1.31.4.47.13.9.32,1.31.57.41.24.74.57,1.01.99.27.41.4.96.4,1.65,0,.66-.12,1.23-.37,1.72-.25.49-.58.9-.99,1.22-.42.32-.9.56-1.45.72-.55.16-1.13.23-1.74.23-.77,0-1.48-.12-2.14-.35-.66-.23-1.27-.61-1.83-1.14l1.85-2.03c.27.36.6.63,1.01.83.41.19.83.29,1.26.29.21,0,.42-.03.64-.08.22-.05.41-.12.59-.22.17-.1.31-.23.42-.38.11-.16.16-.34.16-.55,0-.35-.14-.63-.41-.84-.27-.21-.61-.38-1.02-.53-.41-.15-.86-.29-1.34-.44-.48-.14-.92-.34-1.33-.58-.41-.24-.75-.57-1.03-.97-.27-.4-.41-.93-.41-1.59,0-.63.13-1.19.38-1.67.25-.48.58-.88,1-1.2.42-.32.9-.56,1.45-.72.54-.16,1.11-.24,1.68-.24.67,0,1.31.1,1.94.28.62.19,1.18.51,1.68.95l-1.79,1.95Z"/>
    <path class="cls-1" d="M31.36,5.53h2.5s0,8.11,0,8.11h-2.5s0-8.11,0-8.11ZM31.17,2.98c0-.4.14-.74.42-1.03.28-.28.63-.42,1.03-.42s.74.14,1.03.43c.28.28.42.63.42,1.03,0,.4-.14.74-.43,1.03-.28.28-.62.42-1.03.42-.4,0-.74-.14-1.03-.43-.28-.28-.42-.63-.42-1.03"/>
    <path class="cls-1" d="M35,5.54h2.4s0,1.1,0,1.1h.03c.08-.16.19-.31.34-.47.14-.16.32-.29.52-.42.2-.12.43-.22.68-.3.26-.08.53-.12.84-.12.57,0,1.07.12,1.51.35.44.23.77.6.99,1.1.29-.52.64-.9,1.05-1.12.41-.22.92-.33,1.52-.33.54,0,1,.09,1.38.28.37.18.67.43.88.75.22.32.37.69.47,1.12.09.43.14.89.14,1.38v4.79s-2.51,0-2.51,0v-4.72c0-.38-.08-.7-.24-.98-.16-.27-.45-.41-.86-.41-.29,0-.53.05-.73.14-.2.09-.35.23-.47.39-.12.17-.2.36-.25.58-.05.22-.08.45-.08.7v4.29s-2.51,0-2.51,0v-4.29c0-.14,0-.32-.01-.53-.01-.21-.05-.41-.12-.6s-.17-.35-.32-.48c-.15-.13-.37-.2-.66-.2-.32,0-.58.06-.78.17-.2.12-.35.27-.46.47s-.18.41-.21.66c-.03.24-.05.5-.05.77v4.04s-2.51,0-2.51,0V5.54Z"/>
    <path class="cls-1" d="M51.05,9.61c0,.61.18,1.11.52,1.49.35.38.84.57,1.48.57.63,0,1.13-.19,1.48-.56.35-.38.53-.87.53-1.49,0-.61-.17-1.11-.52-1.49-.35-.38-.84-.57-1.48-.57-.64,0-1.13.19-1.48.57-.35.38-.53.87-.53,1.49M48.75,5.55h2.3v1.07h.03c.1-.14.23-.29.39-.44.16-.15.35-.29.57-.41.22-.12.45-.22.71-.3.26-.08.53-.12.82-.12.6,0,1.15.1,1.64.31.49.21.91.5,1.26.87.35.37.62.81.81,1.33.19.51.28,1.07.28,1.69,0,.57-.09,1.11-.26,1.63-.17.52-.42.98-.74,1.38-.32.4-.7.72-1.16.96-.46.24-.97.36-1.55.36-.52,0-1.01-.08-1.46-.24-.45-.16-.82-.44-1.11-.83h-.03v4.67s-2.51,0-2.51,0V5.55Z"/>
  </g>
  <rect class="cls-1" x="58.39" y="1.05" width="2.5" height="12.62"/>
  <path class="cls-1" d="M67.58,8.7c.01-.42-.13-.78-.41-1.08-.29-.3-.66-.45-1.12-.45-.28,0-.52.04-.73.13-.21.09-.39.2-.54.34-.15.14-.27.3-.35.48-.08.18-.13.38-.14.58h3.3ZM69.7,12.27c-.4.51-.91.91-1.52,1.18-.61.28-1.25.42-1.9.41-.62,0-1.21-.1-1.76-.3-.55-.2-1.03-.49-1.43-.86-.41-.37-.72-.82-.96-1.34-.23-.52-.35-1.11-.35-1.75,0-.64.12-1.23.35-1.75s.55-.97.96-1.34c.41-.37.89-.66,1.44-.86.55-.2,1.14-.3,1.76-.3.58,0,1.1.1,1.58.3.47.2.87.49,1.2.86.33.37.58.82.76,1.34s.27,1.11.27,1.75v.78s-5.81,0-5.81,0c.1.48.32.86.65,1.14.33.28.75.43,1.23.43.41,0,.76-.09,1.04-.28.28-.18.53-.42.74-.71l1.75,1.29Z"/>
  <polygon class="cls-1" points="70.72 3.08 70.72 1.47 70.11 1.47 70.11 1.03 71.85 1.03 71.85 1.47 71.22 1.47 71.22 3.08 70.72 3.08"/>
  <path class="cls-1" d="M72.2,3.08V1.03h.45l.75,1.22h-.32s.76-1.22.76-1.22h.43s0,2.06,0,2.06h-.48s0-.64,0-.64c0-.17,0-.33.01-.47,0-.14.02-.28.04-.42l.06.15-.57.88h-.19l-.56-.88.06-.16c.02.13.04.27.05.4.01.14.01.3.01.49v.64h-.48Z"/>
  <g>
    <path class="cls-1" d="M30.64,22.44c-.25-.31-.56-.54-.93-.71-.37-.16-.79-.25-1.27-.25s-.93.09-1.34.28c-.41.19-.77.45-1.07.78-.3.33-.54.73-.71,1.19-.17.46-.25.96-.25,1.49s.08,1.05.25,1.5c.17.45.4.85.7,1.18.3.33.64.59,1.04.78.4.19.83.28,1.29.28.53,0,.99-.11,1.4-.33.4-.22.74-.53,1-.92l2.13,1.59c-.49.69-1.12,1.2-1.87,1.53-.76.33-1.53.49-2.33.49-.91,0-1.75-.14-2.51-.43-.77-.28-1.43-.69-1.99-1.22s-.99-1.17-1.31-1.93c-.31-.76-.47-1.6-.47-2.53s.16-1.77.47-2.53c.31-.75.75-1.4,1.31-1.93s1.22-.94,1.99-1.22c.77-.28,1.6-.43,2.51-.43.33,0,.67.03,1.03.09.36.06.71.16,1.05.29.34.13.68.31.99.53.32.22.6.49.85.8l-1.97,1.61Z"/>
    <path class="cls-1" d="M33.33,25.23c0-.93.16-1.77.47-2.53.31-.75.75-1.4,1.31-1.93s1.22-.94,1.99-1.22c.77-.28,1.6-.43,2.51-.43s1.75.14,2.51.43c.77.29,1.43.69,1.99,1.22.56.53.99,1.17,1.3,1.93.31.76.47,1.6.47,2.53s-.16,1.77-.47,2.53c-.31.75-.75,1.4-1.3,1.93-.56.53-1.22.94-1.99,1.22-.77.29-1.6.43-2.51.43s-1.75-.14-2.51-.43c-.77-.28-1.43-.69-1.99-1.22s-.99-1.17-1.31-1.93c-.31-.76-.47-1.6-.47-2.53ZM35.99,25.23c0,.55.08,1.05.25,1.5.17.45.41.85.73,1.18.32.33.7.59,1.14.78.44.19.94.28,1.49.28s1.04-.09,1.49-.28c.44-.19.82-.45,1.14-.78.32-.33.56-.73.73-1.18.17-.45.25-.96.25-1.5s-.08-1.04-.25-1.49c-.17-.46-.41-.86-.73-1.19s-.7-.59-1.14-.78c-.44-.19-.94-.28-1.49-.28s-1.04.09-1.49.28c-.44.19-.82.45-1.14.78s-.56.73-.73,1.19c-.17.46-.25.96-.25,1.49Z"/>
    <path class="cls-1" d="M47.72,19.42h2.56v9.26h4.75v2.37h-7.31v-11.63Z"/>
    <path class="cls-1" d="M55.5,25.23c0-.93.16-1.77.47-2.53.31-.75.75-1.4,1.31-1.93s1.22-.94,1.99-1.22c.77-.28,1.6-.43,2.51-.43s1.75.14,2.51.43c.77.29,1.43.69,1.99,1.22.56.53.99,1.17,1.3,1.93.31.76.47,1.6.47,2.53s-.16,1.77-.47,2.53c-.31.75-.75,1.4-1.3,1.93-.56.53-1.22.94-1.99,1.22-.77.29-1.6.43-2.51.43s-1.75-.14-2.51-.43c-.77-.28-1.43-.69-1.99-1.22s-.99-1.17-1.31-1.93c-.31-.76-.47-1.6-.47-2.53ZM58.16,25.23c0,.55.08,1.05.25,1.5.17.45.41.85.73,1.18.32.33.7.59,1.14.78.44.19.94.28,1.49.28s1.04-.09,1.49-.28c.44-.19.82-.45,1.14-.78.32-.33.56-.73.73-1.18.17-.45.25-.96.25-1.5s-.08-1.04-.25-1.49c-.17-.46-.41-.86-.73-1.19s-.7-.59-1.14-.78c-.44-.19-.94-.28-1.49-.28s-1.04.09-1.49.28c-.44.19-.82.45-1.14.78s-.56.73-.73,1.19c-.17.46-.25.96-.25,1.49Z"/>
  </g>
  <g>
    <path class="cls-1" d="M.89,35.21h.93v1.58h1.81v-1.58h.93v4.23h-.93v-1.83h-1.81v1.83h-.93v-4.23Z"/>
    <path class="cls-1" d="M6.99,39.92c-.06.16-.12.29-.17.41-.06.12-.13.22-.21.3-.08.08-.19.14-.33.19-.13.04-.3.06-.52.06-.23,0-.45-.04-.67-.11l.12-.74c.14.06.28.09.42.09.1,0,.18-.01.25-.03.06-.02.12-.05.16-.1s.08-.09.1-.15c.03-.06.06-.13.09-.21l.07-.17-1.27-2.93h.97l.75,1.92h.01l.64-1.92h.92l-1.32,3.38Z"/>
    <path class="cls-1" d="M8.72,36.54h.83v.38h.01c.04-.05.08-.1.14-.16s.12-.1.2-.15c.08-.04.16-.08.25-.11.09-.03.19-.04.29-.04.21,0,.41.04.59.11.17.07.33.18.45.31.12.13.22.29.29.48.07.18.1.38.1.6,0,.2-.03.4-.09.58s-.15.35-.26.49c-.11.14-.25.26-.42.34s-.35.13-.56.13c-.19,0-.36-.03-.52-.09-.16-.06-.29-.16-.4-.3h-.01v1.67h-.9v-4.27ZM9.54,37.99c0,.22.06.4.19.53.12.14.3.2.53.2s.4-.07.53-.2c.12-.13.19-.31.19-.53s-.06-.4-.19-.53c-.13-.14-.3-.2-.53-.2s-.4.07-.53.2c-.13.14-.19.31-.19.53Z"/>
    <path class="cls-1" d="M15.15,38.94c-.14.18-.33.32-.54.42-.22.1-.45.15-.68.15-.22,0-.43-.04-.63-.11-.2-.07-.37-.17-.51-.31s-.26-.29-.34-.48c-.08-.19-.12-.4-.12-.63s.04-.44.12-.63.2-.35.34-.48c.15-.13.32-.24.51-.31.2-.07.41-.11.63-.11.21,0,.4.04.57.11.17.07.31.17.43.31.12.13.21.29.27.48.06.19.1.4.1.63v.28h-2.08c.04.17.11.31.23.41.12.1.27.15.44.15.15,0,.27-.03.37-.1.1-.07.19-.15.27-.25l.63.46ZM14.39,37.66c0-.15-.05-.28-.15-.39-.1-.11-.24-.16-.4-.16-.1,0-.19.02-.26.05-.08.03-.14.07-.19.12s-.1.11-.12.17c-.03.07-.05.13-.05.21h1.18Z"/>
    <path class="cls-1" d="M15.83,36.54h.9v.47h.01c.1-.18.21-.31.34-.4.13-.09.3-.13.5-.13.05,0,.1,0,.16,0s.1.01.14.02v.82c-.06-.02-.13-.04-.19-.04s-.13-.01-.19-.01c-.17,0-.31.02-.41.07s-.18.12-.23.2c-.05.09-.09.19-.1.31-.02.12-.02.25-.02.39v1.21h-.9v-2.91Z"/>
    <path class="cls-1" d="M19.91,37.4c-.13-.16-.31-.25-.52-.25-.08,0-.15.02-.22.05-.07.04-.11.1-.11.19,0,.07.04.12.11.16.07.03.17.06.28.09.11.03.24.05.37.08.13.03.25.08.36.14s.21.15.28.26c.07.11.11.26.11.44s-.04.34-.12.46c-.08.12-.19.22-.31.29-.13.07-.27.13-.43.16-.16.03-.32.04-.47.04-.2,0-.41-.03-.62-.09-.21-.06-.38-.16-.53-.31l.54-.6c.08.1.18.18.28.24.1.05.22.08.36.08.1,0,.2-.02.28-.04.08-.03.13-.08.13-.17,0-.08-.04-.13-.11-.17-.07-.04-.17-.07-.28-.1-.11-.03-.24-.05-.36-.08-.13-.03-.25-.07-.37-.13-.11-.06-.21-.14-.28-.25-.07-.11-.11-.26-.11-.44,0-.17.04-.32.1-.44.07-.12.16-.23.28-.3.11-.08.24-.14.39-.18s.3-.06.45-.06c.19,0,.38.03.58.08.19.06.36.16.5.3l-.55.54Z"/>
    <path class="cls-1" d="M23,37.48c-.04-.06-.11-.12-.19-.16-.08-.04-.17-.06-.26-.06-.23,0-.4.07-.53.2-.12.14-.19.31-.19.53s.06.4.19.53c.13.14.3.2.53.2.1,0,.19-.02.26-.07.07-.04.13-.1.19-.16l.59.62c-.14.14-.3.24-.49.3s-.37.09-.54.09c-.22,0-.43-.04-.63-.11-.2-.07-.37-.17-.51-.31s-.26-.29-.34-.48c-.08-.19-.12-.4-.12-.63s.04-.44.12-.63.2-.35.34-.48c.15-.13.32-.24.51-.31.2-.07.41-.11.63-.11.17,0,.35.03.54.09s.35.16.49.3l-.59.62Z"/>
    <path class="cls-1" d="M25.74,39.08h-.01c-.1.16-.23.27-.4.33-.17.07-.34.1-.52.1-.13,0-.27-.02-.39-.06-.12-.04-.24-.09-.33-.17-.1-.08-.17-.17-.23-.28s-.08-.24-.08-.39c0-.17.03-.31.09-.42.06-.12.15-.21.25-.29.11-.08.23-.13.36-.18.13-.04.28-.07.42-.09.15-.02.29-.03.44-.04s.28,0,.4,0c0-.16-.06-.29-.17-.38-.11-.09-.25-.14-.4-.14s-.28.03-.4.09c-.12.06-.23.15-.33.25l-.48-.49c.17-.16.36-.27.59-.35.22-.08.45-.12.69-.12.26,0,.48.03.65.1s.3.16.41.29c.1.13.17.28.21.47.04.19.06.4.06.64v1.48h-.83v-.36ZM25.51,38.17c-.07,0-.15,0-.25,0-.1,0-.2.02-.29.05-.09.03-.17.07-.24.12s-.1.13-.1.23c0,.11.05.19.14.24.09.05.19.08.29.08.09,0,.17-.01.25-.04.08-.02.15-.06.22-.1.06-.04.11-.1.15-.17s.06-.15.06-.24v-.19h-.22Z"/>
    <path class="cls-1" d="M27.14,34.93h.9v4.52h-.9v-4.52Z"/>
    <path class="cls-1" d="M31.43,38.94c-.14.18-.33.32-.54.42-.22.1-.45.15-.68.15-.22,0-.43-.04-.63-.11-.2-.07-.37-.17-.51-.31s-.26-.29-.34-.48c-.08-.19-.12-.4-.12-.63s.04-.44.12-.63.2-.35.34-.48c.15-.13.32-.24.51-.31.2-.07.41-.11.63-.11.21,0,.4.04.57.11.17.07.31.17.43.31.12.13.21.29.27.48.06.19.1.4.1.63v.28h-2.08c.04.17.11.31.23.41.12.1.27.15.44.15.15,0,.27-.03.37-.1.1-.07.19-.15.27-.25l.63.46ZM30.67,37.66c0-.15-.05-.28-.15-.39-.1-.11-.24-.16-.4-.16-.1,0-.19.02-.26.05-.08.03-.14.07-.19.12s-.1.11-.12.17c-.03.07-.05.13-.05.21h1.18Z"/>
    <path class="cls-1" d="M34.03,35.21h2.84v.86h-1.91v.86h1.76v.86h-1.76v1.65h-.93v-4.23Z"/>
    <path class="cls-1" d="M39.24,39.08h-.01c-.1.16-.23.27-.4.33-.17.07-.34.1-.52.1-.13,0-.27-.02-.39-.06-.12-.04-.24-.09-.33-.17-.1-.08-.17-.17-.23-.28s-.08-.24-.08-.39c0-.17.03-.31.09-.42.06-.12.15-.21.25-.29.11-.08.23-.13.36-.18.13-.04.28-.07.42-.09.15-.02.29-.03.44-.04s.28,0,.4,0c0-.16-.06-.29-.17-.38-.11-.09-.25-.14-.4-.14s-.28.03-.4.09c-.12.06-.23.15-.33.25l-.48-.49c.17-.16.36-.27.59-.35.22-.08.45-.12.69-.12.26,0,.48.03.65.1s.3.16.41.29c.1.13.17.28.21.47.04.19.06.4.06.64v1.48h-.83v-.36ZM39.02,38.17c-.07,0-.15,0-.25,0-.1,0-.2.02-.29.05-.09.03-.17.07-.24.12s-.1.13-.1.23c0,.11.05.19.14.24.09.05.19.08.29.08.09,0,.17-.01.25-.04.08-.02.15-.06.22-.1.06-.04.11-.1.15-.17s.06-.15.06-.24v-.19h-.22Z"/>
    <path class="cls-1" d="M42.6,37.48c-.04-.06-.11-.12-.19-.16-.08-.04-.17-.06-.26-.06-.23,0-.4.07-.53.2-.12.14-.19.31-.19.53s.06.4.19.53c.13.14.3.2.53.2.1,0,.19-.02.26-.07.07-.04.13-.1.19-.16l.59.62c-.14.14-.3.24-.49.3s-.37.09-.54.09c-.22,0-.43-.04-.63-.11-.2-.07-.37-.17-.51-.31s-.26-.29-.34-.48c-.08-.19-.12-.4-.12-.63s.04-.44.12-.63.2-.35.34-.48c.15-.13.32-.24.51-.31.2-.07.41-.11.63-.11.17,0,.35.03.54.09s.35.16.49.3l-.59.62Z"/>
    <path class="cls-1" d="M43.45,35.63c0-.14.05-.27.15-.37s.22-.15.37-.15.27.05.37.15.15.22.15.37-.05.27-.15.37-.22.15-.37.15-.27-.05-.37-.15-.15-.22-.15-.37ZM43.52,36.54h.9v2.91h-.9v-2.91Z"/>
    <path class="cls-1" d="M45.08,34.93h.9v4.52h-.9v-4.52Z"/>
    <path class="cls-1" d="M46.56,35.63c0-.14.05-.27.15-.37s.22-.15.37-.15.27.05.37.15.15.22.15.37-.05.27-.15.37-.22.15-.37.15-.27-.05-.37-.15-.15-.22-.15-.37ZM46.63,36.54h.9v2.91h-.9v-2.91Z"/>
    <path class="cls-1" d="M50.15,37.26h-.79v.97c0,.08,0,.15.01.22,0,.07.03.12.05.17.03.05.07.08.13.11.06.03.13.04.23.04.05,0,.11,0,.19-.01.08,0,.14-.03.18-.07v.75c-.1.04-.2.06-.31.07s-.21.02-.32.02c-.15,0-.29-.02-.42-.05-.13-.03-.24-.08-.33-.15-.09-.07-.17-.16-.22-.27s-.08-.25-.08-.41v-1.38h-.57v-.72h.57v-.86h.9v.86h.79v.72Z"/>
    <path class="cls-1" d="M50.55,35.63c0-.14.05-.27.15-.37s.22-.15.37-.15.27.05.37.15.15.22.15.37-.05.27-.15.37-.22.15-.37.15-.27-.05-.37-.15-.15-.22-.15-.37ZM50.62,36.54h.9v2.91h-.9v-2.91Z"/>
    <path class="cls-1" d="M54.91,38.94c-.14.18-.33.32-.54.42-.22.1-.45.15-.68.15-.22,0-.43-.04-.63-.11-.2-.07-.37-.17-.51-.31s-.26-.29-.34-.48c-.08-.19-.12-.4-.12-.63s.04-.44.12-.63.2-.35.34-.48c.15-.13.32-.24.51-.31.2-.07.41-.11.63-.11.21,0,.4.04.57.11.17.07.31.17.43.31.12.13.21.29.27.48.06.19.1.4.1.63v.28h-2.08c.04.17.11.31.23.41.12.1.27.15.44.15.15,0,.27-.03.37-.1.1-.07.19-.15.27-.25l.63.46ZM54.15,37.66c0-.15-.05-.28-.15-.39-.1-.11-.24-.16-.4-.16-.1,0-.19.02-.26.05-.08.03-.14.07-.19.12s-.1.11-.12.17c-.03.07-.05.13-.05.21h1.18Z"/>
    <path class="cls-1" d="M57.23,37.4c-.13-.16-.31-.25-.52-.25-.08,0-.15.02-.22.05-.07.04-.11.1-.11.19,0,.07.04.12.11.16.07.03.17.06.28.09.11.03.24.05.37.08.13.03.25.08.36.14s.21.15.28.26c.07.11.11.26.11.44s-.04.34-.12.46c-.08.12-.19.22-.31.29-.13.07-.27.13-.43.16-.16.03-.32.04-.47.04-.2,0-.41-.03-.62-.09-.21-.06-.38-.16-.53-.31l.54-.6c.08.1.18.18.28.24.1.05.22.08.36.08.1,0,.2-.02.28-.04.08-.03.13-.08.13-.17,0-.08-.04-.13-.11-.17-.07-.04-.17-.07-.28-.1-.11-.03-.24-.05-.36-.08-.13-.03-.25-.07-.37-.13-.11-.06-.21-.14-.28-.25-.07-.11-.11-.26-.11-.44,0-.17.04-.32.1-.44.07-.12.16-.23.28-.3.11-.08.24-.14.39-.18s.3-.06.45-.06c.19,0,.38.03.58.08.19.06.36.16.5.3l-.55.54Z"/>
    <path class="cls-1" d="M60.85,34.96v5.98h-.75v-5.98h.75Z"/>
    <path class="cls-1" d="M63.34,35.21h1.64c.21,0,.42.02.61.06s.36.11.51.21.26.23.35.39c.09.17.13.37.13.62,0,.3-.08.55-.23.76s-.38.34-.68.4l1.08,1.79h-1.12l-.88-1.69h-.46v1.69h-.93v-4.23ZM64.27,36.96h.55c.08,0,.17,0,.27,0s.18-.02.25-.05c.08-.03.14-.08.19-.14s.07-.15.07-.27c0-.11-.02-.19-.07-.26-.04-.06-.1-.11-.17-.15-.07-.03-.15-.06-.23-.07s-.17-.02-.26-.02h-.61v.96Z"/>
    <path class="cls-1" d="M69.85,38.94c-.14.18-.33.32-.54.42-.22.1-.45.15-.68.15-.22,0-.43-.04-.63-.11-.2-.07-.37-.17-.51-.31s-.26-.29-.34-.48c-.08-.19-.12-.4-.12-.63s.04-.44.12-.63.2-.35.34-.48c.15-.13.32-.24.51-.31.2-.07.41-.11.63-.11.21,0,.4.04.57.11.17.07.31.17.43.31.12.13.21.29.27.48.06.19.1.4.1.63v.28h-2.08c.04.17.11.31.23.41.12.1.27.15.44.15.15,0,.27-.03.37-.1.1-.07.19-.15.27-.25l.63.46ZM69.09,37.66c0-.15-.05-.28-.15-.39-.1-.11-.24-.16-.4-.16-.1,0-.19.02-.26.05-.08.03-.14.07-.19.12s-.1.11-.12.17c-.03.07-.05.13-.05.21h1.18Z"/>
    <path class="cls-1" d="M73.58,39.45h-.83v-.38h-.01c-.04.05-.08.1-.14.16-.06.05-.12.1-.2.15-.08.04-.16.08-.26.11-.09.03-.19.04-.29.04-.21,0-.41-.04-.59-.11-.17-.07-.33-.18-.45-.31-.12-.13-.22-.29-.29-.48-.07-.18-.1-.38-.1-.6,0-.2.03-.4.09-.58.06-.18.15-.35.26-.49.11-.14.25-.26.42-.34.16-.09.35-.13.56-.13.19,0,.36.03.52.09.16.06.29.16.4.3h.01v-1.92h.9v4.52ZM72.75,37.99c0-.22-.06-.4-.19-.53-.12-.14-.3-.2-.53-.2s-.4.07-.53.2c-.12.14-.19.31-.19.53s.06.4.19.53c.13.14.3.2.53.2s.4-.07.53-.2c.13-.13.19-.31.19-.53Z"/>
    <path class="cls-1" d="M77.09,39.45h-.86v-.39h-.01c-.03.06-.07.11-.12.17-.05.06-.11.11-.18.15-.07.04-.15.08-.25.11-.09.03-.19.04-.3.04-.23,0-.41-.03-.55-.1-.14-.07-.25-.17-.33-.29-.08-.12-.13-.27-.16-.44-.03-.17-.04-.35-.04-.54v-1.6h.9v1.42c0,.08,0,.17,0,.26,0,.09.02.17.05.25.03.08.08.14.14.19.06.05.15.07.27.07s.21-.02.28-.06c.07-.04.13-.1.16-.17s.06-.15.07-.24c.01-.09.02-.18.02-.27v-1.45h.9v2.91Z"/>
    <path class="cls-1" d="M77.72,36.54h.86v.39h.01c.03-.06.07-.11.12-.17s.11-.11.19-.15c.07-.04.15-.08.25-.11.09-.03.19-.04.3-.04.23,0,.41.04.55.1.14.07.25.17.33.29.08.12.13.27.16.44.03.17.04.35.04.54v1.6h-.9v-1.42c0-.08,0-.17,0-.26,0-.09-.02-.17-.05-.25-.03-.08-.08-.14-.14-.19-.06-.05-.15-.07-.27-.07s-.21.02-.28.06c-.07.04-.13.1-.17.17-.04.07-.06.15-.07.24-.01.09-.02.18-.02.28v1.45h-.9v-2.91Z"/>
    <path class="cls-1" d="M84.2,39.45h-.83v-.38h-.01c-.04.05-.08.1-.14.16-.06.05-.12.1-.2.15-.08.04-.16.08-.26.11-.09.03-.19.04-.29.04-.21,0-.41-.04-.59-.11-.17-.07-.33-.18-.45-.31-.12-.13-.22-.29-.29-.48-.07-.18-.1-.38-.1-.6,0-.2.03-.4.09-.58.06-.18.15-.35.26-.49.11-.14.25-.26.42-.34.16-.09.35-.13.56-.13.19,0,.36.03.52.09.16.06.29.16.4.3h.01v-1.92h.9v4.52ZM83.38,37.99c0-.22-.06-.4-.19-.53-.12-.14-.3-.2-.53-.2s-.4.07-.53.2c-.12.14-.19.31-.19.53s.06.4.19.53c.13.14.3.2.53.2s.4-.07.53-.2c.13-.13.19-.31.19-.53Z"/>
    <path class="cls-1" d="M86.74,39.08h-.01c-.1.16-.23.27-.4.33-.17.07-.34.1-.52.1-.13,0-.27-.02-.39-.06-.12-.04-.24-.09-.33-.17-.1-.08-.17-.17-.23-.28s-.08-.24-.08-.39c0-.17.03-.31.09-.42.06-.12.15-.21.25-.29.11-.08.23-.13.36-.18.13-.04.28-.07.42-.09.15-.02.29-.03.44-.04s.28,0,.4,0c0-.16-.06-.29-.17-.38-.11-.09-.25-.14-.4-.14s-.28.03-.4.09c-.12.06-.23.15-.33.25l-.48-.49c.17-.16.36-.27.59-.35.22-.08.45-.12.69-.12.26,0,.48.03.65.1s.3.16.41.29c.1.13.17.28.21.47.04.19.06.4.06.64v1.48h-.83v-.36ZM86.52,38.17c-.07,0-.15,0-.25,0-.1,0-.2.02-.29.05-.09.03-.17.07-.24.12s-.1.13-.1.23c0,.11.05.19.14.24.09.05.19.08.29.08.09,0,.17-.01.25-.04.08-.02.15-.06.22-.1.06-.04.11-.1.15-.17s.06-.15.06-.24v-.19h-.22Z"/>
    <path class="cls-1" d="M88.13,36.54h.86v.39h.01c.03-.06.07-.11.12-.17s.11-.11.19-.15c.07-.04.15-.08.25-.11.09-.03.19-.04.3-.04.23,0,.41.04.55.1.14.07.25.17.33.29.08.12.13.27.16.44.03.17.04.35.04.54v1.6h-.9v-1.42c0-.08,0-.17,0-.26,0-.09-.02-.17-.05-.25-.03-.08-.08-.14-.14-.19-.06-.05-.15-.07-.27-.07s-.21.02-.28.06c-.07.04-.13.1-.17.17-.04.07-.06.15-.07.24-.01.09-.02.18-.02.28v1.45h-.9v-2.91Z"/>
    <path class="cls-1" d="M93.54,37.26h-.79v.97c0,.08,0,.15.01.22,0,.07.03.12.05.17.03.05.07.08.13.11.06.03.13.04.23.04.05,0,.11,0,.19-.01.08,0,.14-.03.18-.07v.75c-.1.04-.2.06-.31.07s-.21.02-.32.02c-.15,0-.29-.02-.42-.05-.13-.03-.24-.08-.33-.15-.09-.07-.17-.16-.22-.27s-.08-.25-.08-.41v-1.38h-.57v-.72h.57v-.86h.9v.86h.79v.72Z"/>
    <path class="cls-1" d="M95.88,35.21h1.57c.22,0,.43.02.62.06s.37.11.51.21.26.23.35.39.13.37.13.62-.04.45-.12.62c-.08.17-.19.3-.33.4s-.3.17-.5.21c-.19.04-.4.06-.62.06h-.68v1.65h-.93v-4.23ZM96.81,37.01h.62c.08,0,.16,0,.24-.02.08-.02.15-.04.21-.08s.11-.09.15-.16c.04-.07.06-.15.06-.25,0-.11-.02-.19-.07-.26-.05-.07-.11-.12-.19-.15-.08-.04-.16-.06-.26-.07s-.19-.01-.28-.01h-.48v1Z"/>
    <path class="cls-1" d="M99.42,37.99c0-.23.04-.44.13-.63.08-.19.2-.35.34-.48.15-.13.32-.24.51-.31.2-.07.41-.11.63-.11s.43.04.63.11c.2.07.37.17.51.31.15.13.26.29.34.48.08.19.12.4.12.63s-.04.44-.12.63c-.08.19-.2.35-.34.48s-.32.24-.51.31c-.2.07-.41.11-.63.11s-.43-.04-.63-.11c-.2-.07-.37-.17-.51-.31s-.26-.29-.34-.48c-.08-.19-.13-.4-.13-.63ZM100.32,37.99c0,.22.06.4.19.53.13.14.3.2.53.2s.4-.07.53-.2c.13-.13.19-.31.19-.53s-.06-.4-.19-.53c-.12-.14-.3-.2-.53-.2s-.4.07-.53.2c-.12.14-.19.31-.19.53Z"/>
    <path class="cls-1" d="M102.83,36.54h.96l.59,1.82h.01l.5-1.82h.98l.54,1.82h.01l.54-1.82h.91l-1.03,2.91h-.88l-.6-1.93h-.01l-.54,1.93h-.9l-1.06-2.91Z"/>
    <path class="cls-1" d="M110.9,38.94c-.14.18-.33.32-.54.42-.22.1-.45.15-.68.15-.22,0-.43-.04-.63-.11-.2-.07-.37-.17-.51-.31s-.26-.29-.34-.48c-.08-.19-.12-.4-.12-.63s.04-.44.12-.63.2-.35.34-.48c.15-.13.32-.24.51-.31.2-.07.41-.11.63-.11.21,0,.4.04.57.11.17.07.31.17.43.31.12.13.21.29.27.48.06.19.1.4.1.63v.28h-2.08c.04.17.11.31.23.41.12.1.27.15.44.15.15,0,.27-.03.37-.1.1-.07.19-.15.27-.25l.63.46ZM110.14,37.66c0-.15-.05-.28-.15-.39-.1-.11-.24-.16-.4-.16-.1,0-.19.02-.26.05-.08.03-.14.07-.19.12s-.1.11-.12.17c-.03.07-.05.13-.05.21h1.18Z"/>
    <path class="cls-1" d="M111.58,36.54h.9v.47h.01c.1-.18.21-.31.34-.4.13-.09.3-.13.5-.13.05,0,.1,0,.16,0s.1.01.14.02v.82c-.06-.02-.13-.04-.19-.04s-.13-.01-.19-.01c-.17,0-.31.02-.41.07s-.18.12-.23.2c-.05.09-.09.19-.1.31-.02.12-.02.25-.02.39v1.21h-.9v-2.91Z"/>
    <path class="cls-1" d="M116.51,34.96v5.98h-.75v-5.98h.75Z"/>
  </g>
  <g>
    <path class="cls-1" d="M2.98,43.42c-.08-.1-.18-.17-.31-.21-.13-.05-.25-.07-.37-.07-.07,0-.14,0-.21.02-.07.02-.14.04-.2.08s-.12.08-.16.13c-.04.06-.06.12-.06.2,0,.13.05.22.14.29.1.07.22.12.36.17s.3.1.47.14c.17.05.32.12.47.2s.27.21.36.35.14.34.14.59-.04.44-.13.62c-.09.18-.21.32-.36.44-.15.12-.32.2-.52.26-.2.06-.41.08-.62.08-.28,0-.53-.04-.76-.12-.24-.08-.46-.22-.66-.41l.66-.73c.1.13.22.23.36.3.15.07.3.1.45.1.08,0,.15,0,.23-.03.08-.02.15-.04.21-.08.06-.04.11-.08.15-.14s.06-.12.06-.2c0-.13-.05-.23-.15-.3-.1-.07-.22-.14-.37-.19s-.31-.1-.48-.16-.33-.12-.48-.21c-.15-.09-.27-.2-.37-.35s-.15-.33-.15-.57.04-.43.13-.6c.09-.17.21-.31.36-.43.15-.12.32-.2.52-.26s.4-.09.6-.09c.24,0,.47.03.69.1.22.07.42.18.6.34l-.64.7Z"/>
    <path class="cls-1" d="M6.96,46.12c-.14.18-.33.32-.54.42-.22.1-.45.15-.68.15-.22,0-.43-.04-.63-.11-.2-.07-.37-.17-.51-.31s-.26-.29-.34-.48c-.08-.19-.12-.4-.12-.63s.04-.44.12-.63.2-.35.34-.48c.15-.13.32-.24.51-.31.2-.07.41-.11.63-.11.21,0,.4.04.57.11.17.07.31.17.43.31.12.13.21.29.27.48.06.19.1.4.1.63v.28h-2.08c.04.17.11.31.23.41.12.1.27.15.44.15.15,0,.27-.03.37-.1.1-.07.19-.15.27-.25l.63.46ZM6.2,44.84c0-.15-.05-.28-.15-.39-.1-.11-.24-.16-.4-.16-.1,0-.19.02-.26.05-.08.03-.14.07-.19.12s-.1.11-.12.17c-.03.07-.05.13-.05.21h1.18Z"/>
    <path class="cls-1" d="M9.6,44.65c-.04-.06-.11-.12-.19-.16-.08-.04-.17-.06-.26-.06-.23,0-.4.07-.53.2-.12.14-.19.31-.19.53s.06.4.19.53c.13.14.3.2.53.2.1,0,.19-.02.26-.07.07-.04.13-.1.19-.16l.59.62c-.14.14-.3.24-.49.3s-.37.09-.54.09c-.22,0-.43-.04-.63-.11-.2-.07-.37-.17-.51-.31s-.26-.29-.34-.48c-.08-.19-.12-.4-.12-.63s.04-.44.12-.63.2-.35.34-.48c.15-.13.32-.24.51-.31.2-.07.41-.11.63-.11.17,0,.35.03.54.09s.35.16.49.3l-.59.62Z"/>
    <path class="cls-1" d="M13.32,46.62h-.86v-.39h-.01c-.03.06-.07.11-.12.17-.05.06-.11.11-.18.15-.07.04-.15.08-.25.11-.09.03-.19.04-.3.04-.23,0-.41-.03-.55-.1-.14-.07-.25-.17-.33-.29-.08-.12-.13-.27-.16-.44-.03-.17-.04-.35-.04-.54v-1.6h.9v1.42c0,.08,0,.17,0,.26,0,.09.02.17.05.25.03.08.08.14.14.19.06.05.15.07.27.07s.21-.02.28-.06c.07-.04.13-.1.16-.17s.06-.15.07-.24c.01-.09.02-.18.02-.27v-1.45h.9v2.91Z"/>
    <path class="cls-1" d="M13.95,43.71h.9v.47h.01c.1-.18.21-.31.34-.4.13-.09.3-.13.5-.13.05,0,.1,0,.16,0s.1.01.14.02v.82c-.06-.02-.13-.04-.19-.04s-.13-.01-.19-.01c-.17,0-.31.02-.41.07s-.18.12-.23.2c-.05.09-.09.19-.1.31-.02.12-.02.25-.02.39v1.21h-.9v-2.91Z"/>
    <path class="cls-1" d="M19.02,46.12c-.14.18-.33.32-.54.42-.22.1-.45.15-.68.15-.22,0-.43-.04-.63-.11-.2-.07-.37-.17-.51-.31s-.26-.29-.34-.48c-.08-.19-.12-.4-.12-.63s.04-.44.12-.63.2-.35.34-.48c.15-.13.32-.24.51-.31.2-.07.41-.11.63-.11.21,0,.4.04.57.11.17.07.31.17.43.31.12.13.21.29.27.48.06.19.1.4.1.63v.28h-2.08c.04.17.11.31.23.41.12.1.27.15.44.15.15,0,.27-.03.37-.1.1-.07.19-.15.27-.25l.63.46ZM18.26,44.84c0-.15-.05-.28-.15-.39-.1-.11-.24-.16-.4-.16-.1,0-.19.02-.26.05-.08.03-.14.07-.19.12s-.1.11-.12.17c-.03.07-.05.13-.05.21h1.18Z"/>
    <path class="cls-1" d="M24.35,43.49c-.09-.11-.2-.2-.34-.26-.13-.06-.29-.09-.46-.09s-.34.03-.49.1-.28.16-.39.28c-.11.12-.2.27-.26.43-.06.17-.09.35-.09.54s.03.38.09.55c.06.17.15.31.25.43.11.12.23.22.38.28.15.07.3.1.47.1.19,0,.36-.04.51-.12.15-.08.27-.19.36-.33l.78.58c-.18.25-.41.44-.68.56-.27.12-.56.18-.85.18-.33,0-.64-.05-.91-.16-.28-.1-.52-.25-.72-.45s-.36-.43-.47-.7c-.11-.28-.17-.58-.17-.92s.06-.65.17-.92c.11-.28.27-.51.47-.7s.44-.34.72-.45c.28-.1.58-.16.91-.16.12,0,.24.01.37.03.13.02.26.06.38.1.13.05.25.11.36.19.12.08.22.18.31.29l-.72.59Z"/>
    <path class="cls-1" d="M25.46,45.17c0-.23.04-.44.13-.63.08-.19.2-.35.34-.48.15-.13.32-.24.51-.31.2-.07.41-.11.63-.11s.43.04.63.11c.2.07.37.17.51.31.15.13.26.29.34.48.08.19.12.4.12.63s-.04.44-.12.63c-.08.19-.2.35-.34.48s-.32.24-.51.31c-.2.07-.41.11-.63.11s-.43-.04-.63-.11c-.2-.07-.37-.17-.51-.31s-.26-.29-.34-.48c-.08-.19-.13-.4-.13-.63ZM26.36,45.17c0,.22.06.4.19.53.13.14.3.2.53.2s.4-.07.53-.2c.13-.13.19-.31.19-.53s-.06-.4-.19-.53c-.12-.14-.3-.2-.53-.2s-.4.07-.53.2c-.12.14-.19.31-.19.53Z"/>
    <path class="cls-1" d="M29.23,42.1h.9v4.52h-.9v-4.52Z"/>
    <path class="cls-1" d="M30.66,45.17c0-.23.04-.44.13-.63.08-.19.2-.35.34-.48.15-.13.32-.24.51-.31.2-.07.41-.11.63-.11s.43.04.63.11c.2.07.37.17.51.31.15.13.26.29.34.48.08.19.12.4.12.63s-.04.44-.12.63c-.08.19-.2.35-.34.48s-.32.24-.51.31c-.2.07-.41.11-.63.11s-.43-.04-.63-.11c-.2-.07-.37-.17-.51-.31s-.26-.29-.34-.48c-.08-.19-.13-.4-.13-.63ZM31.56,45.17c0,.22.06.4.19.53.13.14.3.2.53.2s.4-.07.53-.2c.13-.13.19-.31.19-.53s-.06-.4-.19-.53c-.12-.14-.3-.2-.53-.2s-.4.07-.53.2c-.12.14-.19.31-.19.53Z"/>
    <path class="cls-1" d="M36.38,44.65c-.04-.06-.11-.12-.19-.16-.08-.04-.17-.06-.26-.06-.23,0-.4.07-.53.2-.12.14-.19.31-.19.53s.06.4.19.53c.13.14.3.2.53.2.1,0,.19-.02.26-.07.07-.04.13-.1.19-.16l.59.62c-.14.14-.3.24-.49.3s-.37.09-.54.09c-.22,0-.43-.04-.63-.11-.2-.07-.37-.17-.51-.31s-.26-.29-.34-.48c-.08-.19-.12-.4-.12-.63s.04-.44.12-.63.2-.35.34-.48c.15-.13.32-.24.51-.31.2-.07.41-.11.63-.11.17,0,.35.03.54.09s.35.16.49.3l-.59.62Z"/>
    <path class="cls-1" d="M39.12,46.25h-.01c-.1.16-.23.27-.4.33-.17.07-.34.1-.52.1-.13,0-.27-.02-.39-.06-.12-.04-.24-.09-.33-.17-.1-.08-.17-.17-.23-.28s-.08-.24-.08-.39c0-.17.03-.31.09-.42.06-.12.15-.21.25-.29.11-.08.23-.13.36-.18.13-.04.28-.07.42-.09.15-.02.29-.03.44-.04s.28,0,.4,0c0-.16-.06-.29-.17-.38-.11-.09-.25-.14-.4-.14s-.28.03-.4.09c-.12.06-.23.15-.33.25l-.48-.49c.17-.16.36-.27.59-.35.22-.08.45-.12.69-.12.26,0,.48.03.65.1s.3.16.41.29c.1.13.17.28.21.47.04.19.06.4.06.64v1.48h-.83v-.36ZM38.9,45.34c-.07,0-.15,0-.25,0-.1,0-.2.02-.29.05-.09.03-.17.07-.24.12s-.1.13-.1.23c0,.11.05.19.14.24.09.05.19.08.29.08.09,0,.17-.01.25-.04.08-.02.15-.06.22-.1.06-.04.11-.1.15-.17s.06-.15.06-.24v-.19h-.22Z"/>
    <path class="cls-1" d="M42.48,44.43h-.79v.97c0,.08,0,.15.01.22,0,.07.03.12.05.17.03.05.07.08.13.11.06.03.13.04.23.04.05,0,.11,0,.19-.01.08,0,.14-.03.18-.07v.75c-.1.04-.2.06-.31.07s-.21.02-.32.02c-.15,0-.29-.02-.42-.05-.13-.03-.24-.08-.33-.15-.09-.07-.17-.16-.22-.27s-.08-.25-.08-.41v-1.38h-.57v-.72h.57v-.86h.9v.86h.79v.72Z"/>
    <path class="cls-1" d="M42.88,42.8c0-.14.05-.27.15-.37s.22-.15.37-.15.27.05.37.15.15.22.15.37-.05.27-.15.37-.22.15-.37.15-.27-.05-.37-.15-.15-.22-.15-.37ZM42.95,43.71h.9v2.91h-.9v-2.91Z"/>
    <path class="cls-1" d="M44.38,45.17c0-.23.04-.44.13-.63.08-.19.2-.35.34-.48.15-.13.32-.24.51-.31.2-.07.41-.11.63-.11s.43.04.63.11c.2.07.37.17.51.31.15.13.26.29.34.48.08.19.12.4.12.63s-.04.44-.12.63c-.08.19-.2.35-.34.48s-.32.24-.51.31c-.2.07-.41.11-.63.11s-.43-.04-.63-.11c-.2-.07-.37-.17-.51-.31s-.26-.29-.34-.48c-.08-.19-.13-.4-.13-.63ZM45.28,45.17c0,.22.06.4.19.53.13.14.3.2.53.2s.4-.07.53-.2c.13-.13.19-.31.19-.53s-.06-.4-.19-.53c-.12-.14-.3-.2-.53-.2s-.4.07-.53.2c-.12.14-.19.31-.19.53Z"/>
    <path class="cls-1" d="M48.14,43.71h.86v.39h.01c.03-.06.07-.11.12-.17s.11-.11.19-.15c.07-.04.15-.08.25-.11.09-.03.19-.04.3-.04.23,0,.41.04.55.1.14.07.25.17.33.29.08.12.13.27.16.44.03.17.04.35.04.54v1.6h-.9v-1.42c0-.08,0-.17,0-.26,0-.09-.02-.17-.05-.25-.03-.08-.08-.14-.14-.19-.06-.05-.15-.07-.27-.07s-.21.02-.28.06c-.07.04-.13.1-.17.17-.04.07-.06.15-.07.24-.01.09-.02.18-.02.28v1.45h-.9v-2.91Z"/>
    <path class="cls-1" d="M54.06,42.14v5.98h-.75v-5.98h.75Z"/>
    <path class="cls-1" d="M58.64,43.42c-.08-.1-.18-.17-.31-.21-.13-.05-.25-.07-.37-.07-.07,0-.14,0-.21.02-.07.02-.14.04-.2.08s-.12.08-.16.13c-.04.06-.06.12-.06.2,0,.13.05.22.14.29.1.07.22.12.36.17s.3.1.47.14c.17.05.32.12.47.2s.27.21.36.35.14.34.14.59-.04.44-.13.62c-.09.18-.21.32-.36.44-.15.12-.32.2-.52.26-.2.06-.41.08-.62.08-.28,0-.53-.04-.76-.12-.24-.08-.46-.22-.66-.41l.66-.73c.1.13.22.23.36.3.15.07.3.1.45.1.08,0,.15,0,.23-.03.08-.02.15-.04.21-.08.06-.04.11-.08.15-.14s.06-.12.06-.2c0-.13-.05-.23-.15-.3-.1-.07-.22-.14-.37-.19s-.31-.1-.48-.16-.33-.12-.48-.21c-.15-.09-.27-.2-.37-.35s-.15-.33-.15-.57.04-.43.13-.6c.09-.17.21-.31.36-.43.15-.12.32-.2.52-.26s.4-.09.6-.09c.24,0,.47.03.69.1.22.07.42.18.6.34l-.64.7Z"/>
    <path class="cls-1" d="M62.66,46.62h-.86v-.39h-.01c-.03.06-.07.11-.12.17-.05.06-.11.11-.18.15-.07.04-.15.08-.25.11-.09.03-.19.04-.3.04-.23,0-.41-.03-.55-.1-.14-.07-.25-.17-.33-.29-.08-.12-.13-.27-.16-.44-.03-.17-.04-.35-.04-.54v-1.6h.9v1.42c0,.08,0,.17,0,.26,0,.09.02.17.05.25.03.08.08.14.14.19.06.05.15.07.27.07s.21-.02.28-.06c.07-.04.13-.1.16-.17s.06-.15.07-.24c.01-.09.02-.18.02-.27v-1.45h.9v2.91Z"/>
    <path class="cls-1" d="M64.94,44.57c-.13-.16-.31-.25-.52-.25-.08,0-.15.02-.22.05-.07.04-.11.1-.11.19,0,.07.04.12.11.16.07.03.17.06.28.09.11.03.24.05.37.08.13.03.25.08.36.14s.21.15.28.26c.07.11.11.26.11.44s-.04.34-.12.46c-.08.12-.19.22-.31.29-.13.07-.27.13-.43.16-.16.03-.32.04-.47.04-.2,0-.41-.03-.62-.09-.21-.06-.38-.16-.53-.31l.54-.6c.08.1.18.18.28.24.1.05.22.08.36.08.1,0,.2-.02.28-.04.08-.03.13-.08.13-.17,0-.08-.04-.13-.11-.17-.07-.04-.17-.07-.28-.1-.11-.03-.24-.05-.36-.08-.13-.03-.25-.07-.37-.13-.11-.06-.21-.14-.28-.25-.07-.11-.11-.26-.11-.44,0-.17.04-.32.1-.44.07-.12.16-.23.28-.3.11-.08.24-.14.39-.18s.3-.06.45-.06c.19,0,.38.03.58.08.19.06.36.16.5.3l-.55.54Z"/>
    <path class="cls-1" d="M68.04,44.43h-.79v.97c0,.08,0,.15.01.22,0,.07.03.12.05.17.03.05.07.08.13.11.06.03.13.04.23.04.05,0,.11,0,.19-.01.08,0,.14-.03.18-.07v.75c-.1.04-.2.06-.31.07s-.21.02-.32.02c-.15,0-.29-.02-.42-.05-.13-.03-.24-.08-.33-.15-.09-.07-.17-.16-.22-.27s-.08-.25-.08-.41v-1.38h-.57v-.72h.57v-.86h.9v.86h.79v.72Z"/>
    <path class="cls-1" d="M70.32,46.25h-.01c-.1.16-.23.27-.4.33-.17.07-.34.1-.52.1-.13,0-.27-.02-.39-.06-.12-.04-.24-.09-.33-.17-.1-.08-.17-.17-.23-.28s-.08-.24-.08-.39c0-.17.03-.31.09-.42.06-.12.15-.21.25-.29.11-.08.23-.13.36-.18.13-.04.28-.07.42-.09.15-.02.29-.03.44-.04s.28,0,.4,0c0-.16-.06-.29-.17-.38-.11-.09-.25-.14-.4-.14s-.28.03-.4.09c-.12.06-.23.15-.33.25l-.48-.49c.17-.16.36-.27.59-.35.22-.08.45-.12.69-.12.26,0,.48.03.65.1s.3.16.41.29c.1.13.17.28.21.47.04.19.06.4.06.64v1.48h-.83v-.36ZM70.1,45.34c-.07,0-.15,0-.25,0-.1,0-.2.02-.29.05-.09.03-.17.07-.24.12s-.1.13-.1.23c0,.11.05.19.14.24.09.05.19.08.29.08.09,0,.17-.01.25-.04.08-.02.15-.06.22-.1.06-.04.11-.1.15-.17s.06-.15.06-.24v-.19h-.22Z"/>
    <path class="cls-1" d="M71.64,42.8c0-.14.05-.27.15-.37s.22-.15.37-.15.27.05.37.15.15.22.15.37-.05.27-.15.37-.22.15-.37.15-.27-.05-.37-.15-.15-.22-.15-.37ZM71.72,43.71h.9v2.91h-.9v-2.91Z"/>
    <path class="cls-1" d="M73.26,43.71h.86v.39h.01c.03-.06.07-.11.12-.17s.11-.11.19-.15c.07-.04.15-.08.25-.11.09-.03.19-.04.3-.04.23,0,.41.04.55.1.14.07.25.17.33.29.08.12.13.27.16.44.03.17.04.35.04.54v1.6h-.9v-1.42c0-.08,0-.17,0-.26,0-.09-.02-.17-.05-.25-.03-.08-.08-.14-.14-.19-.06-.05-.15-.07-.27-.07s-.21.02-.28.06c-.07.04-.13.1-.17.17-.04.07-.06.15-.07.24-.01.09-.02.18-.02.28v1.45h-.9v-2.91Z"/>
    <path class="cls-1" d="M78.51,46.25h-.01c-.1.16-.23.27-.4.33-.17.07-.34.1-.52.1-.13,0-.27-.02-.39-.06-.12-.04-.24-.09-.33-.17-.1-.08-.17-.17-.23-.28s-.08-.24-.08-.39c0-.17.03-.31.09-.42.06-.12.15-.21.25-.29.11-.08.23-.13.36-.18.13-.04.28-.07.42-.09.15-.02.29-.03.44-.04s.28,0,.4,0c0-.16-.06-.29-.17-.38-.11-.09-.25-.14-.4-.14s-.28.03-.4.09c-.12.06-.23.15-.33.25l-.48-.49c.17-.16.36-.27.59-.35.22-.08.45-.12.69-.12.26,0,.48.03.65.1s.3.16.41.29c.1.13.17.28.21.47.04.19.06.4.06.64v1.48h-.83v-.36ZM78.29,45.34c-.07,0-.15,0-.25,0-.1,0-.2.02-.29.05-.09.03-.17.07-.24.12s-.1.13-.1.23c0,.11.05.19.14.24.09.05.19.08.29.08.09,0,.17-.01.25-.04.08-.02.15-.06.22-.1.06-.04.11-.1.15-.17s.06-.15.06-.24v-.19h-.22Z"/>
    <path class="cls-1" d="M79.98,42.1h.9v1.92h.01c.1-.14.24-.24.4-.3.16-.06.34-.09.52-.09.21,0,.39.04.56.13.16.08.3.2.42.34.11.14.2.31.26.49.06.19.09.38.09.58,0,.22-.03.42-.1.6-.07.18-.17.34-.29.48-.13.13-.28.24-.45.31-.18.07-.37.11-.59.11-.1,0-.2-.01-.29-.04-.09-.03-.18-.06-.25-.11-.08-.04-.15-.09-.2-.15-.06-.05-.1-.11-.14-.16h-.01v.38h-.83v-4.52ZM80.81,45.17c0,.22.06.4.19.53.12.14.3.2.53.2s.4-.07.53-.2c.12-.13.19-.31.19-.53s-.06-.4-.19-.53c-.13-.14-.3-.2-.53-.2s-.4.07-.53.2c-.13.14-.19.31-.19.53Z"/>
    <path class="cls-1" d="M83.68,42.1h.9v4.52h-.9v-4.52Z"/>
    <path class="cls-1" d="M87.97,46.12c-.14.18-.33.32-.54.42-.22.1-.45.15-.68.15-.22,0-.43-.04-.63-.11-.2-.07-.37-.17-.51-.31s-.26-.29-.34-.48c-.08-.19-.12-.4-.12-.63s.04-.44.12-.63.2-.35.34-.48c.15-.13.32-.24.51-.31.2-.07.41-.11.63-.11.21,0,.4.04.57.11.17.07.31.17.43.31.12.13.21.29.27.48.06.19.1.4.1.63v.28h-2.08c.04.17.11.31.23.41.12.1.27.15.44.15.15,0,.27-.03.37-.1.1-.07.19-.15.27-.25l.63.46ZM87.21,44.84c0-.15-.05-.28-.15-.39-.1-.11-.24-.16-.4-.16-.1,0-.19.02-.26.05-.08.03-.14.07-.19.12s-.1.11-.12.17c-.03.07-.05.13-.05.21h1.18Z"/>
    <path class="cls-1" d="M93.3,43.49c-.09-.11-.2-.2-.34-.26-.13-.06-.29-.09-.46-.09s-.34.03-.49.1-.28.16-.39.28c-.11.12-.2.27-.26.43-.06.17-.09.35-.09.54s.03.38.09.55c.06.17.15.31.25.43.11.12.23.22.38.28.15.07.3.1.47.1.19,0,.36-.04.51-.12.15-.08.27-.19.36-.33l.78.58c-.18.25-.41.44-.68.56-.27.12-.56.18-.85.18-.33,0-.64-.05-.91-.16-.28-.1-.52-.25-.72-.45s-.36-.43-.47-.7c-.11-.28-.17-.58-.17-.92s.06-.65.17-.92c.11-.28.27-.51.47-.7s.44-.34.72-.45c.28-.1.58-.16.91-.16.12,0,.24.01.37.03.13.02.26.06.38.1.13.05.25.11.36.19.12.08.22.18.31.29l-.72.59Z"/>
    <path class="cls-1" d="M94.41,45.17c0-.23.04-.44.13-.63.08-.19.2-.35.34-.48.15-.13.32-.24.51-.31.2-.07.41-.11.63-.11s.43.04.63.11c.2.07.37.17.51.31.15.13.26.29.34.48.08.19.12.4.12.63s-.04.44-.12.63c-.08.19-.2.35-.34.48s-.32.24-.51.31c-.2.07-.41.11-.63.11s-.43-.04-.63-.11c-.2-.07-.37-.17-.51-.31s-.26-.29-.34-.48c-.08-.19-.13-.4-.13-.63ZM95.3,45.17c0,.22.06.4.19.53.13.14.3.2.53.2s.4-.07.53-.2c.13-.13.19-.31.19-.53s-.06-.4-.19-.53c-.12-.14-.3-.2-.53-.2s-.4.07-.53.2c-.12.14-.19.31-.19.53Z"/>
    <path class="cls-1" d="M98.05,45.17c0-.23.04-.44.13-.63.08-.19.2-.35.34-.48.15-.13.32-.24.51-.31.2-.07.41-.11.63-.11s.43.04.63.11c.2.07.37.17.51.31.15.13.26.29.34.48.08.19.12.4.12.63s-.04.44-.12.63c-.08.19-.2.35-.34.48s-.32.24-.51.31c-.2.07-.41.11-.63.11s-.43-.04-.63-.11c-.2-.07-.37-.17-.51-.31s-.26-.29-.34-.48c-.08-.19-.13-.4-.13-.63ZM98.95,45.17c0,.22.06.4.19.53.13.14.3.2.53.2s.4-.07.53-.2c.13-.13.19-.31.19-.53s-.06-.4-.19-.53c-.12-.14-.3-.2-.53-.2s-.4.07-.53.2c-.12.14-.19.31-.19.53Z"/>
    <path class="cls-1" d="M101.82,42.1h.9v4.52h-.9v-4.52Z"/>
    <path class="cls-1" d="M103.3,42.8c0-.14.05-.27.15-.37s.22-.15.37-.15.27.05.37.15.15.22.15.37-.05.27-.15.37-.22.15-.37.15-.27-.05-.37-.15-.15-.22-.15-.37ZM103.37,43.71h.9v2.91h-.9v-2.91Z"/>
    <path class="cls-1" d="M104.91,43.71h.86v.39h.01c.03-.06.07-.11.12-.17s.11-.11.19-.15c.07-.04.15-.08.25-.11.09-.03.19-.04.3-.04.23,0,.41.04.55.1.14.07.25.17.33.29.08.12.13.27.16.44.03.17.04.35.04.54v1.6h-.9v-1.42c0-.08,0-.17,0-.26,0-.09-.02-.17-.05-.25-.03-.08-.08-.14-.14-.19-.06-.05-.15-.07-.27-.07s-.21.02-.28.06c-.07.04-.13.1-.17.17-.04.07-.06.15-.07.24-.01.09-.02.18-.02.28v1.45h-.9v-2.91Z"/>
    <path class="cls-1" d="M111.39,46.37c0,.55-.14.97-.42,1.25-.28.29-.7.43-1.26.43-.26,0-.51-.03-.76-.09s-.48-.17-.69-.34l.5-.74c.14.12.29.21.44.28s.32.1.51.1c.27,0,.48-.07.61-.2.13-.13.19-.3.19-.51v-.28h-.01c-.1.14-.23.24-.39.3s-.3.09-.43.09c-.21,0-.41-.04-.59-.11-.17-.07-.33-.18-.45-.31-.12-.13-.22-.29-.29-.47-.07-.18-.1-.38-.1-.6,0-.19.03-.38.09-.56.06-.18.15-.34.26-.48.11-.14.25-.25.42-.34.16-.09.35-.13.56-.13.13,0,.24.01.35.04.11.03.2.06.28.11.08.04.16.09.21.15s.11.11.14.16h.01v-.38h.83v2.66ZM109.13,45.15c0,.1.02.19.05.27.04.09.09.16.15.23s.14.12.23.16c.09.04.18.06.28.06s.19-.02.28-.06c.09-.04.17-.09.23-.16.07-.07.12-.14.15-.23s.05-.18.05-.27-.02-.19-.05-.27-.09-.16-.15-.23c-.07-.07-.14-.12-.23-.16-.09-.04-.18-.06-.28-.06s-.2.02-.28.06-.16.09-.23.16c-.07.07-.12.14-.15.23-.04.09-.05.18-.05.27Z"/>
    <path class="cls-1" d="M114.6,42.14v5.98h-.75v-5.98h.75Z"/>
  </g>
  <path class="cls-1" d="M12.98,8.54c1.27.74,2.45,1.41,3.6,2.11.62.38.85.96.85,1.6.01,3.46.01,6.93,0,10.39,0,.69-.32,1.26-.95,1.7-3.1,2.18-6.19,4.38-9.29,6.55-.21.15-.57.25-.82.21-.39-.07-.45-.41-.45-.74,0-3.49,0-6.99,0-10.48,0-.47.22-.84.61-1.16,1.95-1.53,3.9-3.08,5.85-4.61.45-.35.6-.8.59-1.31,0-1.39,0-2.77,0-4.26"/>
  <path class="cls-2" d="M5.16,24.03c-1.27-.74-2.45-1.41-3.6-2.11-.62-.38-.85-.96-.85-1.6-.01-3.46-.01-6.93,0-10.39,0-.69.32-1.26.95-1.7C4.76,6.05,7.85,3.85,10.95,1.68c.21-.15.57-.25.82-.2.39.07.45.41.45.74,0,3.49,0,6.99,0,10.48,0,.47-.22.84-.62,1.16-1.95,1.53-3.9,3.08-5.85,4.61-.45.35-.6.8-.59,1.31,0,1.39,0,2.77,0,4.26"/>
</svg>