<svg width="111" height="45" viewBox="0 0 111 45" fill="none" xmlns="http://www.w3.org/2000/svg">
<path d="M31.6116 8.69814C31.6116 9.35461 31.7953 9.88212 32.1704 10.2924C32.5455 10.7027 33.077 10.9059 33.753 10.9059C34.429 10.9059 34.9604 10.7027 35.3355 10.3041C35.7106 9.89385 35.8943 9.36633 35.8943 8.70987C35.8943 8.0534 35.7106 7.52589 35.3355 7.1156C34.9604 6.70531 34.429 6.50212 33.753 6.50212C33.077 6.50212 32.5455 6.70531 32.1704 7.10388C31.7953 7.50244 31.6116 8.04168 31.6116 8.69814ZM29.146 4.34907H31.6116V5.49007H31.6429C31.7523 5.33768 31.8891 5.17747 32.061 5.01726C32.2329 4.85705 32.4361 4.70466 32.6745 4.57571C32.9128 4.44676 33.159 4.33735 33.4404 4.25138C33.7217 4.16542 34.0109 4.12244 34.3117 4.12244C34.9565 4.12244 35.5387 4.23185 36.0662 4.45458C36.5937 4.68121 37.0353 4.98209 37.4143 5.39238C37.7894 5.79095 38.0825 6.26376 38.2857 6.81472C38.4889 7.36568 38.5866 7.96744 38.5866 8.6239C38.5866 9.23738 38.4889 9.80788 38.3052 10.3706C38.1216 10.9215 37.852 11.4139 37.5198 11.8476C37.176 12.2774 36.7657 12.6213 36.2694 12.8714C35.7849 13.1293 35.2261 13.2582 34.6009 13.2465C34.0421 13.2465 33.5224 13.1605 33.0379 12.9886C32.5534 12.8167 32.1548 12.5158 31.8539 12.1055H31.8227V17.4393H29.1421V4.34907H29.146Z" fill="#409544"/>
<path d="M15.5479 17.4353V33.2178H50.5514V17.4353" fill="#409544"/>
<path d="M7.25236 3.71608C7.02572 3.42692 6.72484 3.21982 6.338 3.07915C5.95116 2.93848 5.58385 2.87596 5.23999 2.87596C5.0368 2.87596 4.8297 2.8994 4.61478 2.9502C4.39987 2.99318 4.19668 3.06743 4.0013 3.17684C3.80593 3.27453 3.65744 3.4152 3.53631 3.57541C3.41908 3.73561 3.35265 3.94271 3.35265 4.18889C3.35265 4.56401 3.49332 4.85707 3.78248 5.06026C4.07164 5.26345 4.42722 5.43539 4.86096 5.57606C5.29469 5.71673 5.7675 5.86521 6.25985 6.00588C6.76783 6.14655 7.22892 6.34975 7.65874 6.61936C8.08857 6.87726 8.45588 7.23284 8.73722 7.67439C9.02638 8.11594 9.16705 8.70989 9.16705 9.44059C9.16705 10.1713 9.0381 10.7535 8.76848 11.281C8.49886 11.8086 8.155 12.2384 7.70173 12.5861C7.24845 12.93 6.73266 13.1879 6.13872 13.352C5.54477 13.524 4.92348 13.5982 4.26311 13.5982C3.44643 13.5982 2.68056 13.4693 1.96939 13.2231C1.26994 12.9769 0.613481 12.5666 0 12.0078L1.98111 9.81962C2.27027 10.2065 2.62585 10.4995 3.05959 10.7144C3.48942 10.9176 3.94269 11.027 4.40768 11.027C4.63432 11.027 4.86096 10.9958 5.09541 10.9411C5.32986 10.8864 5.53696 10.8121 5.72061 10.7027C5.90427 10.5933 6.05275 10.4566 6.17388 10.2924C6.29111 10.1205 6.34582 9.92513 6.34582 9.69849C6.34582 9.32337 6.20514 9.01858 5.90427 8.79195C5.61511 8.56531 5.2478 8.38166 4.80625 8.23317C4.3647 8.07296 3.89189 7.92057 3.37219 7.76818C2.8564 7.61578 2.37968 7.40087 1.93813 7.14297C1.49658 6.88508 1.12927 6.52949 0.840117 6.10748C0.550961 5.67765 0.398567 5.10715 0.398567 4.40771C0.398567 3.70826 0.539238 3.13776 0.797134 2.61806C1.06675 2.11008 1.42234 1.68026 1.87561 1.3364C2.32888 0.992533 2.84468 0.734637 3.4269 0.562706C4.00912 0.390775 4.61088 0.30481 5.23608 0.30481C5.95897 0.30481 6.64669 0.41422 7.31488 0.605689C7.98307 0.80888 8.58483 1.15665 9.12406 1.62946L7.20547 3.71998L7.24845 3.70826L7.25236 3.71608Z" fill="white"/>
<path d="M10.234 4.59917H12.9145V13.2895H10.234V4.59917ZM10.019 1.86391C10.019 1.43408 10.1714 1.06677 10.4723 0.765895C10.7732 0.465015 11.1405 0.312622 11.5703 0.312622C12.0002 0.312622 12.3675 0.465015 12.6683 0.765895C12.9692 1.06677 13.1216 1.43408 13.1216 1.86391C13.1216 2.29374 12.9692 2.66104 12.6683 2.96192C12.3675 3.2628 12.0002 3.41519 11.5703 3.41519C11.1405 3.41519 10.7732 3.2628 10.4723 2.96192C10.1714 2.66104 10.019 2.29374 10.019 1.86391Z" fill="white"/>
<path d="M14.1333 4.59919H16.7084V5.78317H16.7396C16.8256 5.61124 16.9428 5.45103 17.0952 5.28692C17.2476 5.11499 17.4391 4.97431 17.654 4.83364C17.8689 4.7047 18.119 4.59528 18.3847 4.50932C18.6543 4.42335 18.9552 4.38037 19.2795 4.38037C19.893 4.38037 20.4322 4.50932 20.8933 4.75549C21.3661 5.00167 21.7217 5.40023 21.9601 5.93947C22.2727 5.3807 22.6478 4.98213 23.0893 4.74377C23.5309 4.50541 24.0701 4.38819 24.7149 4.38819C25.2971 4.38819 25.7933 4.48587 26.1919 4.68907C26.5905 4.88444 26.9031 5.15406 27.1414 5.49792C27.3681 5.84178 27.54 6.24035 27.6377 6.69362C27.7354 7.15862 27.7901 7.64315 27.7901 8.17067V13.3091H25.0978V8.24882C25.0978 7.83853 25.0118 7.49467 24.8516 7.20551C24.6797 6.91635 24.3671 6.76396 23.9256 6.76396C23.613 6.76396 23.3551 6.81867 23.1519 6.91635C22.9487 7.01404 22.7767 7.15471 22.6556 7.33446C22.5267 7.51811 22.4407 7.7213 22.386 7.95966C22.3313 8.19802 22.3117 8.44419 22.3117 8.71381V13.313H19.6195V8.71381C19.6195 8.56142 19.6195 8.36995 19.6077 8.14331C19.596 7.91668 19.553 7.70176 19.4788 7.49857C19.4046 7.29538 19.2951 7.12345 19.1349 6.98278C18.9747 6.84211 18.7364 6.76787 18.4238 6.76787C18.0799 6.76787 17.7986 6.8343 17.5836 6.95152C17.3687 7.08047 17.2085 7.24068 17.0874 7.44778C16.9663 7.65487 16.892 7.88933 16.8608 8.15894C16.8295 8.41684 16.806 8.69818 16.806 8.97562V13.3052H14.1255V4.59919H14.1372H14.1333Z" fill="white"/>
<path d="M42.0995 0H39.4189V13.5278H42.0995V0Z" fill="white"/>
<path d="M49.0709 7.99476C49.0826 7.54148 48.9302 7.15464 48.6293 6.83031C48.3167 6.50599 47.9181 6.34578 47.4336 6.34578C47.1327 6.34578 46.8748 6.38876 46.6482 6.48645C46.4216 6.58414 46.2301 6.70137 46.066 6.85376C45.9058 7.00615 45.7768 7.17808 45.6909 7.36955C45.6049 7.56493 45.5502 7.76812 45.5385 7.98303H49.0826L49.0709 7.99476ZM51.345 11.828C50.9152 12.379 50.376 12.7971 49.7195 13.098C49.0631 13.3989 48.3831 13.5395 47.6837 13.5395C46.9843 13.5395 46.3903 13.4301 45.8003 13.2152C45.2063 13.0003 44.7023 12.6877 44.2607 12.2891C43.8309 11.8906 43.487 11.406 43.2369 10.8472C42.9908 10.2885 42.8618 9.66327 42.8618 8.97164C42.8618 8.28001 42.9908 7.65871 43.2369 7.09603C43.4831 6.53725 43.8309 6.05272 44.2724 5.65415C44.714 5.25558 45.222 4.94298 45.812 4.73979C46.4059 4.52488 47.0272 4.41547 47.6954 4.41547C48.3206 4.41547 48.8794 4.52488 49.3874 4.73979C49.8954 4.9547 50.3252 5.25558 50.669 5.66587C51.0246 6.06444 51.2942 6.54897 51.4857 7.10775C51.6811 7.66652 51.7749 8.29173 51.7749 8.98336V9.82348H45.5502C45.6596 10.3393 45.8941 10.7378 46.2496 11.0504C46.6052 11.3513 47.0468 11.5154 47.5743 11.5154C48.0158 11.5154 48.391 11.4177 48.6957 11.2263C48.9966 11.0309 49.2662 10.773 49.4929 10.4604L51.3685 11.8398L51.345 11.828Z" fill="white"/>
<path d="M19.8932 30.9945V23.0974L17.8886 24.6447L16.5679 22.8356L20.1042 20.241H22.4448V30.9906H19.8932V30.9945Z" fill="white"/>
<path d="M28.1029 31.2836C25.0473 31.2836 23.8828 28.6382 23.8828 25.5864C23.8828 22.5347 25.0473 19.9518 28.1029 19.9518C31.1586 19.9518 32.2918 22.5503 32.2918 25.5864C32.2918 28.6226 31.1391 31.2836 28.1029 31.2836ZM28.1029 22.1126C26.7509 22.1126 26.493 24.2383 26.493 25.5903C26.493 26.9423 26.7509 29.0993 28.1029 29.0993C29.4549 29.0993 29.6855 26.9736 29.6855 25.5903C29.6855 24.2071 29.4393 22.1126 28.1029 22.1126Z" fill="white"/>
<path d="M37.3915 31.2836C35.43 31.2836 33.656 30.4318 33.0737 28.4272L35.4456 27.802C35.6449 28.5171 36.2974 29.1384 37.2704 29.1384C38.0011 29.1384 38.8334 28.775 38.8334 27.7707C38.8334 26.6766 37.712 26.3601 36.6491 26.3601H35.9614V24.4962H36.7116C37.6651 24.4962 38.5951 24.2501 38.5951 23.2185C38.5951 22.4409 37.9425 22.0345 37.2431 22.0345C36.5436 22.0345 35.934 22.5034 35.7699 23.2341L33.3981 22.687C33.9178 20.8779 35.6175 19.9518 37.4072 19.9518C39.3101 19.9518 41.1936 20.9248 41.1936 22.9918C41.1936 24.1758 40.4316 25.055 39.3844 25.3285V25.3754C40.6035 25.6646 41.4554 26.6688 41.4554 27.8684C41.4554 30.2207 39.3727 31.2836 37.3994 31.2836H37.3915Z" fill="white"/>
<path d="M45.089 30.9945V23.0974L43.0844 24.6447L41.7637 22.8356L45.3 20.241H47.6406V30.9906H45.089V30.9945Z" fill="white"/>
<path d="M12.9185 19.7407V17.4353H10.6365V19.7407H12.9185Z" fill="#B72026"/>
<path d="M12.9185 23.8436V21.5382H10.6365V23.8436H12.9185Z" fill="#ED2024"/>
<path d="M12.9185 27.9466V25.6411H10.6365V27.9466H12.9185Z" fill="#EFC932"/>
<path d="M12.9185 32.0495V29.744H10.6365V32.0495H12.9185Z" fill="#F47621"/>
<path d="M12.9185 36.1524V33.8469H10.6365V36.1524H12.9185Z" fill="#4178BD"/>
<path d="M12.9185 40.2553V37.9498H10.6365V40.2553H12.9185Z" fill="#5253A3"/>
<path d="M12.9146 44.3621V42.0566H10.6326V44.3621H12.9146Z" fill="#409544"/>
<path d="M7.79127 23.8436H5.50928V21.5382H7.79127" fill="#ED2024"/>
<path d="M7.79127 27.9465H5.50928V25.6411H7.79127" fill="#EFC932"/>
<path d="M7.79127 32.0495H5.50928V29.744H7.79127" fill="#F47621"/>
<path d="M7.79127 36.1524H5.50928V33.8469H7.79127" fill="#4178BD"/>
<path d="M7.79127 40.2553H5.50928V37.9498H7.79127" fill="#5253A3"/>
<path d="M7.79127 44.3582H5.50928V42.0527H7.79127" fill="#409544"/>
<path d="M7.7915 19.7407V17.4353H5.50951V19.7407H7.7915Z" fill="#B72026"/>
<path d="M2.66481 23.8436H0.382812V21.5382H2.66481" fill="#ED2024"/>
<path d="M2.66481 27.9465H0.382812V25.6411H2.66481" fill="#EFC932"/>
<path d="M2.66481 32.0495H0.382812V29.744H2.66481" fill="#F47621"/>
<path d="M2.66481 36.1524H0.382812V33.8469H2.66481" fill="#4178BD"/>
<path d="M2.66481 40.2553H0.382812V37.9498H2.66481" fill="#5253A3"/>
<path d="M2.66481 44.3582H0.382812V42.0527H2.66481" fill="#409544"/>
<path d="M2.66504 19.7407V17.4353H0.383046V19.7407H2.66504Z" fill="#B72026"/>
<path d="M27.8098 35.1521V35.8203H26.2976V36.4338H27.7238V37.102H26.2976V37.7701H27.8919V38.4383H25.5708V35.1443H27.8059L27.8098 35.1521Z" fill="white"/>
<path d="M29.1151 35.1521L29.8184 36.3048L30.4944 35.1521H31.3736L30.3069 36.7112L31.4986 38.4461H30.5882L29.7832 37.1215L29.0017 38.4461H28.1421L29.2948 36.7268L28.2085 35.156H29.119L29.1151 35.1521Z" fill="white"/>
<path d="M34.2612 35.5506L33.7024 36.0078C33.5461 35.8163 33.3273 35.7381 33.0811 35.7381C32.5653 35.7381 32.1277 36.1523 32.1277 36.7971C32.1277 37.3441 32.4794 37.856 33.0577 37.856C33.3429 37.856 33.5774 37.7388 33.7376 37.5043L34.3433 37.9537C34.0814 38.3366 33.6047 38.5242 33.1515 38.5242C32.1199 38.5242 31.3735 37.8443 31.3735 36.7932C31.3735 35.742 32.1121 35.0621 33.1515 35.0621C33.5852 35.0621 34.015 35.2302 34.2612 35.5467V35.5506Z" fill="white"/>
<path d="M35.2737 35.1521V36.3791H36.6843V35.1521H37.4111V38.4461H36.6843V37.0238H35.2737V38.4461H34.5469V35.1521H35.2737Z" fill="white"/>
<path d="M39.6652 35.1521L41.0993 38.4461H40.2826L39.9973 37.7467H38.7196L38.4461 38.4461H37.645L39.0674 35.1521H39.6691H39.6652ZM38.9462 37.1332H39.7512L39.3448 36.1094L38.9462 37.1332Z" fill="white"/>
<path d="M42.3226 35.1521L43.7215 37.438H43.7293V35.1521H44.4561V38.4461H43.5066L42.0686 36.1016H42.0608V38.4461H41.334V35.1521H42.3187H42.3226Z" fill="white"/>
<path d="M47.8477 35.492L47.3358 36.0507C47.117 35.8163 46.8513 35.7381 46.5426 35.7381C45.9252 35.7381 45.5149 36.1797 45.5149 36.7971C45.5149 37.4145 45.9252 37.856 46.5426 37.856C46.7809 37.856 47.0115 37.8052 47.2225 37.6919V37.1566H46.6324V36.4884H47.9219V38.2077C47.496 38.4343 47.0232 38.5242 46.5465 38.5242C45.511 38.5242 44.7646 37.856 44.7646 36.7932C44.7646 35.7303 45.5071 35.0621 46.5465 35.0621C47.031 35.0621 47.496 35.1598 47.8516 35.4841L47.8477 35.492Z" fill="white"/>
<path d="M50.5398 35.1521V35.8203H49.0276V36.4338H50.4538V37.102H49.0276V37.7701H50.6218V38.4383H48.3008V35.1443H50.5359L50.5398 35.1521Z" fill="white"/>
<path d="M18.2206 35.066V35.7069H17.2828V38.3562H16.556V35.7069H15.6182V35.066H18.2206Z" fill="white"/>
<path d="M19.3967 35.066V36.293H20.8073V35.066H21.5341V38.3601H20.8073V36.9377H19.3967V38.3601H18.6699V35.066H19.3967Z" fill="white"/>
<path d="M24.2185 35.066V35.7342H22.7063V36.3477H24.1325V37.0159H22.7063V37.6841H24.3006V38.3523H21.9795V35.0582H24.2146L24.2185 35.066Z" fill="white"/>
<path d="M50.2036 39.7161V39.8294H50.3599V40.2514H50.4928V39.8294H50.653V39.7161H50.2036Z" fill="white"/>
<path d="M50.7471 40.2514V39.72H50.8643L51.0597 40.0404H50.9776L51.1769 39.7239H51.2902V40.2592H51.1652V40.0912C51.1652 40.0482 51.1652 40.0052 51.1652 39.9701C51.1652 39.9349 51.1691 39.8958 51.1769 39.8606L51.1925 39.8997L51.044 40.1303H50.9932L50.8487 39.9036L50.8643 39.8606C50.8682 39.8958 50.876 39.931 50.876 39.9661C50.876 40.0013 50.876 40.0443 50.876 40.0951V40.2631H50.7471V40.2514Z" fill="white"/>
<path d="M17.8923 40.0052C16.5325 40.0052 15.6143 40.8962 15.6143 42.2208C15.6143 43.5455 16.5286 44.4364 17.8923 44.4364C19.2561 44.4364 20.1704 43.5259 20.1704 42.2208C20.1704 40.9157 19.2561 40.0052 17.8923 40.0052ZM17.8923 43.6119C17.0913 43.6119 16.5521 43.0531 16.5521 42.2208C16.5521 41.3885 17.103 40.8297 17.8884 40.8297C18.6738 40.8297 19.2365 41.4002 19.2365 42.2208C19.2365 43.0414 18.6856 43.6119 17.8963 43.6119H17.8923Z" fill="white"/>
<path d="M22.9138 42.5334C23.4804 42.4279 23.8165 41.9981 23.8165 41.3846C23.8165 40.3334 22.9724 40.1107 22.2613 40.1107H20.6045V44.3269H21.5032V42.6272H21.9956V42.6389L22.8865 44.3308H23.965L22.8865 42.5373H22.9138V42.5334ZM22.105 41.8769H21.5032V40.8688H22.1597C22.6403 40.8688 22.8826 41.0407 22.8826 41.3807C22.8826 41.8144 22.5075 41.8769 22.105 41.8769Z" fill="white"/>
<path d="M26.3093 43.6119C25.5161 43.6119 25.0862 42.8968 25.0862 42.2208C25.0862 41.4159 25.6138 40.8297 26.3366 40.8297C26.6766 40.8297 26.9501 40.9431 27.1455 41.1697L27.8371 40.6031C27.5324 40.2241 27.0087 40.0013 26.4265 40.0013C25.0862 40.0013 24.1484 40.9118 24.1484 42.2169C24.1484 43.522 25.0628 44.4325 26.4265 44.4325C27.0517 44.4325 27.63 44.1589 27.9387 43.7174L27.1885 43.1586C26.9853 43.4517 26.6805 43.608 26.3054 43.608L26.3093 43.6119Z" fill="white"/>
<path d="M29.1541 40.1146H28.2554V44.3308H29.1541V42.4904H31.0141V44.3308H31.9128V40.1146H31.0141V41.7011H29.1541V40.1146Z" fill="white"/>
<path d="M33.3938 42.5998H35.2382V41.7714H33.3938V40.9391H35.3476V40.1146H32.4951V44.3308H35.4531V43.5024H33.3938V42.5998Z" fill="white"/>
<path d="M38.8252 40.4312C38.4892 40.1498 38.0632 40.0052 37.5474 40.0052C36.7738 40.0052 35.9454 40.4312 35.9454 41.369C35.9454 42.1036 36.4924 42.338 37.0004 42.5061C37.0512 42.5217 37.1059 42.5412 37.1567 42.5569C37.5748 42.6897 37.9382 42.803 37.9382 43.1508C37.9382 43.4986 37.5396 43.6158 37.27 43.6158C36.9535 43.6158 36.6565 43.4751 36.4533 43.225L35.8125 43.9284C36.1876 44.2762 36.6487 44.4442 37.2153 44.4442C38.0007 44.4442 38.8369 44.0808 38.8369 43.0648C38.8369 42.3263 38.3446 42.0723 37.8092 41.9121C37.7506 41.8926 37.692 41.877 37.6373 41.8613C37.2309 41.7441 36.8753 41.6386 36.8753 41.2986C36.8753 40.9587 37.2661 40.8415 37.524 40.8415C37.7506 40.8415 38.0437 40.9274 38.2039 41.115L38.8174 40.4429L38.8252 40.4312Z" fill="white"/>
<path d="M40.3803 44.3308H41.279V40.9039H42.4942V40.1146H39.165V40.9039H40.3803V44.3308Z" fill="white"/>
<path d="M45.198 42.5334C45.7646 42.4279 46.1007 41.9981 46.1007 41.3846C46.1007 40.3334 45.2527 40.1107 44.5455 40.1107H42.8887V44.3269H43.7874V42.6272H44.2797V42.6389L45.1707 44.3308H46.2491L45.1707 42.5373H45.198V42.5334ZM44.3892 41.8769H43.7874V40.8688H44.4439C44.9245 40.8688 45.1668 41.0407 45.1668 41.3807C45.1668 41.8144 44.7916 41.8769 44.3892 41.8769Z" fill="white"/>
<path d="M49.0472 40.1146H48.297L46.4761 44.3308H47.4686L47.8242 43.4282H49.5044L49.8717 44.3308H50.8877L49.0511 40.1146H49.0472ZM48.0977 42.674L48.1094 42.6467L48.6447 41.2791L49.1957 42.674H48.0977Z" fill="white"/>
<path d="M50.9854 17.4431V17.5564H51.1417V17.9784H51.2745V17.5564H51.4347V17.4431H50.9854Z" fill="white"/>
<path d="M51.5283 17.9784V17.447H51.6455L51.8409 17.7674H51.7589L51.9582 17.4509H52.0715V17.9863H51.9464V17.8182C51.9464 17.7753 51.9464 17.7323 51.9464 17.6971C51.9464 17.6619 51.9503 17.6229 51.9582 17.5877L51.9738 17.6268L51.8253 17.8573H51.7745L51.6299 17.6307L51.6455 17.5877C51.6495 17.6229 51.6573 17.658 51.6573 17.6932C51.6573 17.7284 51.6573 17.7713 51.6573 17.8221V17.9902H51.5283V17.9784Z" fill="white"/>
<path d="M57.5273 26.3975V23.0105H58.7856C59.4887 23.0105 60.0724 23.2354 60.0724 24.0391C60.0724 24.8332 59.5318 25.0772 58.819 25.0772H58.2736V26.3975H57.5273ZM58.2736 23.642V24.4457H58.7712C59.0343 24.4457 59.2974 24.3548 59.2974 24.0391C59.2974 23.6898 58.9434 23.642 58.6563 23.642H58.2736ZM62.6886 24.0725V26.3975H61.9997V26.0818H61.9902C61.8945 26.2636 61.6601 26.4549 61.3108 26.4549C60.5837 26.4549 60.4497 25.9765 60.4497 25.3546V24.0725H61.1673V25.2111C61.1673 25.479 61.1722 25.8234 61.5405 25.8234C61.9136 25.8234 61.971 25.5317 61.971 25.2302V24.0725H62.6886ZM63.1968 26.3975V24.0725H63.9143V24.4457H63.9239C64.077 24.1635 64.2779 24.0151 64.5936 24.0151C64.675 24.0151 64.7659 24.02 64.8329 24.0391V24.6944C64.7324 24.6657 64.6319 24.6466 64.5267 24.6466C63.9813 24.6466 63.9143 24.9623 63.9143 25.4264V26.3975H63.1968ZM66.759 25.6273L67.2614 25.9957C67.0318 26.2875 66.6538 26.4549 66.2807 26.4549C65.5631 26.4549 64.989 25.9765 64.989 25.2351C64.989 24.4935 65.5631 24.0151 66.2807 24.0151C66.9504 24.0151 67.3714 24.4935 67.3714 25.2351V25.4599H65.7066C65.764 25.7326 65.9697 25.9096 66.2472 25.9096C66.4816 25.9096 66.6395 25.79 66.759 25.6273ZM65.7066 24.9719H66.6538C66.6586 24.7327 66.472 24.5318 66.2137 24.5318C65.8979 24.5318 65.7257 24.7471 65.7066 24.9719ZM67.8987 26.3975V23.0105H69.1569C69.8601 23.0105 70.4437 23.2354 70.4437 24.0391C70.4437 24.8332 69.9032 25.0772 69.1903 25.0772H68.645V26.3975H67.8987ZM68.645 23.642V24.4457H69.1425C69.4056 24.4457 69.6687 24.3548 69.6687 24.0391C69.6687 23.6898 69.3147 23.642 69.0277 23.642H68.645ZM70.8306 26.3975V22.7809H71.5482V26.3975H70.8306ZM73.5229 26.3975V26.1057H73.5133C73.3555 26.3545 73.0684 26.4549 72.7766 26.4549C72.3413 26.4549 71.949 26.2062 71.949 25.7373C71.949 24.9336 72.9249 24.9193 73.5229 24.9193C73.5229 24.6657 73.3124 24.5031 73.0636 24.5031C72.8293 24.5031 72.6331 24.6083 72.48 24.7806L72.0973 24.3883C72.3604 24.1395 72.7431 24.0151 73.121 24.0151C73.9583 24.0151 74.1831 24.4409 74.1831 25.2159V26.3975H73.5229ZM73.5229 25.3786H73.3459C73.1259 25.3786 72.6379 25.3977 72.6379 25.7135C72.6379 25.8857 72.8197 25.967 72.9775 25.967C73.2598 25.967 73.5229 25.8187 73.5229 25.5317V25.3786ZM77.0252 24.0725L75.9728 26.7755C75.7814 27.2682 75.6714 27.5457 74.9873 27.5457C74.8055 27.5457 74.6237 27.5169 74.4515 27.4595L74.5472 26.8712C74.6572 26.919 74.7625 26.9429 74.882 26.9429C75.2073 26.9429 75.26 26.8042 75.3604 26.5506L75.4131 26.4167L74.3941 24.0725H75.1691L75.7671 25.6082H75.7767L76.2885 24.0725H77.0252ZM79.8313 26.3975V23.8142L79.152 24.4122L78.7453 23.9434L79.8504 23.0105H80.5202V26.3975H79.8313ZM81.4425 24.704C81.4425 23.9003 81.6961 22.9531 82.7007 22.9531C83.7053 22.9531 83.9588 23.9003 83.9588 24.704C83.9588 25.5077 83.7053 26.4549 82.7007 26.4549C81.6961 26.4549 81.4425 25.5077 81.4425 24.704ZM82.1601 24.704C82.1601 25.058 82.184 25.7947 82.7007 25.7947C83.2173 25.7947 83.2412 25.058 83.2412 24.704C83.2412 24.35 83.2173 23.6133 82.7007 23.6133C82.184 23.6133 82.1601 24.35 82.1601 24.704ZM85.1491 24.9672V24.3453H85.3834C85.6466 24.3453 85.9288 24.2879 85.9288 23.9673C85.9288 23.7616 85.7423 23.6133 85.5078 23.6133C85.283 23.6133 85.1299 23.7521 85.0868 23.929L84.2975 23.7664C84.4458 23.178 84.929 22.9531 85.5031 22.9531C86.1059 22.9531 86.6464 23.245 86.6464 23.8956C86.6464 24.2687 86.4407 24.5605 86.0676 24.637V24.6514C86.4742 24.704 86.7038 25.0485 86.7038 25.4407C86.7038 26.12 86.1489 26.4549 85.4839 26.4549C84.8812 26.4549 84.4075 26.187 84.2688 25.5795L85.0247 25.4025C85.0725 25.6417 85.2208 25.7947 85.527 25.7947C85.838 25.7947 85.9862 25.613 85.9862 25.3595C85.9862 24.9767 85.637 24.9672 85.3165 24.9672H85.1491ZM88.3246 26.3975V23.8142L87.6453 24.4122L87.2386 23.9434L88.3438 23.0105H89.0135V26.3975H88.3246Z" fill="white"/>
<path d="M89.8613 23.7449V23.1901H89.6523V23.0216H90.2598V23.1901H90.0509V23.7449H89.8613ZM90.4143 23.7449V23.0216H90.6688L90.8409 23.4921L91.0129 23.0216H91.2675V23.7449H91.0779V23.2744H91.0744L90.9023 23.7449H90.7794L90.6074 23.2744H90.6039V23.7449H90.4143Z" fill="white"/>
<path d="M57.5273 32.6367V29.2497H58.5415L59.9815 31.6034H59.9911V29.2497H60.7374V32.6367H59.7615L58.2832 30.2256H58.2736V32.6367H57.5273ZM61.2512 31.4742C61.2512 30.7327 61.8253 30.2543 62.5429 30.2543C63.2605 30.2543 63.8345 30.7327 63.8345 31.4742C63.8345 32.2157 63.2605 32.6941 62.5429 32.6941C61.8253 32.6941 61.2512 32.2157 61.2512 31.4742ZM61.9688 31.4742C61.9688 31.8234 62.1841 32.0626 62.5429 32.0626C62.9017 32.0626 63.117 31.8234 63.117 31.4742C63.117 31.125 62.9017 30.8858 62.5429 30.8858C62.1841 30.8858 61.9688 31.125 61.9688 31.4742ZM65.7637 32.6367V29.2497H66.8832C67.9739 29.2497 68.8876 29.7138 68.8876 30.9528C68.8876 32.0483 67.993 32.6367 66.9836 32.6367H65.7637ZM66.51 29.9386V31.9478H66.8975C67.5912 31.9478 68.1126 31.6847 68.1126 30.9145C68.1126 30.2496 67.5816 29.9386 66.9501 29.9386H66.51ZM71.5799 29.5176L71.0681 30.0773C70.9484 29.9243 70.7092 29.8525 70.5274 29.8525C70.317 29.8525 70.0252 29.9481 70.0252 30.2017C70.0252 30.8188 71.5847 30.4218 71.5847 31.6082C71.5847 32.364 70.9771 32.7228 70.2787 32.7228C69.8434 32.7228 69.4607 32.5937 69.1401 32.2971L69.6712 31.7134C69.8243 31.9144 70.073 32.0339 70.3218 32.0339C70.5657 32.0339 70.8384 31.9191 70.8384 31.6799C70.8384 31.058 69.2502 31.3929 69.2502 30.2639C69.2502 29.5415 69.8768 29.1636 70.5418 29.1636C70.9246 29.1636 71.2929 29.2641 71.5799 29.5176ZM72.7961 32.6367V29.9099H71.8297V29.2497H74.5087V29.9099H73.5424V32.6367H72.7961ZM74.5289 32.7228L75.9592 28.9962L76.5046 29.1636L75.0694 32.8903L74.5289 32.7228ZM76.9554 32.6367L78.3428 29.9099H76.6684V29.2497H79.1465V29.8812L77.7926 32.6367H76.9554ZM79.5569 32.6367V31.8761L80.8724 30.6944C81.0064 30.57 81.1739 30.4265 81.1739 30.2209C81.1739 29.9912 80.9777 29.8525 80.7576 29.8525C80.4946 29.8525 80.3366 30.0391 80.3175 30.283L79.5999 30.2304C79.643 29.532 80.131 29.1923 80.7959 29.1923C81.4131 29.1923 81.8915 29.532 81.8915 30.2113C81.8915 30.6466 81.7048 30.8953 81.4465 31.1202L80.418 32.0052H81.9202V32.6367H79.5569ZM83.5313 32.6367V30.0534L82.852 30.6514L82.4454 30.1826L83.5505 29.2497H84.2202V32.6367H83.5313ZM86.7447 32.6367V29.2497H87.491V30.5126H88.9405V29.2497H89.6868V32.6367H88.9405V31.1728H87.491V32.6367H86.7447ZM91.7428 32.6367V32.3449H91.7331C91.5751 32.5937 91.2884 32.6941 90.9966 32.6941C90.5612 32.6941 90.1689 32.4453 90.1689 31.9765C90.1689 31.1728 91.1448 31.1585 91.7428 31.1585C91.7428 30.9049 91.5321 30.7423 91.2836 30.7423C91.0492 30.7423 90.8531 30.8475 90.7 31.0197L90.3173 30.6274C90.5803 30.3787 90.9631 30.2543 91.3408 30.2543C92.1782 30.2543 92.4029 30.6801 92.4029 31.4551V32.6367H91.7428ZM91.7428 31.6178H91.5655C91.346 31.6178 90.8578 31.6369 90.8578 31.9526C90.8578 32.1249 91.0396 32.2061 91.1975 32.2061C91.4795 32.2061 91.7428 32.0579 91.7428 31.7708V31.6178ZM92.8532 32.6367V30.3117H93.5422V30.6274H93.5519C93.6476 30.4457 93.8819 30.2543 94.2313 30.2543C94.9581 30.2543 95.0924 30.7327 95.0924 31.3546V32.6367H94.3744V31.4981C94.3744 31.2302 94.37 30.8858 94.0013 30.8858C93.6283 30.8858 93.5712 31.1776 93.5712 31.479V32.6367H92.8532ZM98.04 29.0201V32.6367H97.3799V32.3305H97.3702C97.2605 32.498 96.9831 32.6941 96.6575 32.6941C95.9684 32.6941 95.5137 32.1966 95.5137 31.4934C95.5137 30.8475 95.9158 30.2543 96.5758 30.2543C96.8725 30.2543 97.1499 30.3357 97.3132 30.5605H97.3228V29.0201H98.04ZM97.3799 31.4742C97.3799 31.125 97.1648 30.8858 96.8058 30.8858C96.4468 30.8858 96.2318 31.125 96.2318 31.4742C96.2318 31.8234 96.4468 32.0626 96.8058 32.0626C97.1648 32.0626 97.3799 31.8234 97.3799 31.4742ZM100.661 30.5653L100.187 31.0628C100.116 30.9623 99.9816 30.8858 99.8333 30.8858C99.4743 30.8858 99.2592 31.125 99.2592 31.4742C99.2592 31.8234 99.4743 32.0626 99.8333 32.0626C99.9913 32.0626 100.106 31.9813 100.187 31.8857L100.661 32.3832C100.436 32.6128 100.106 32.6941 99.8333 32.6941C99.1161 32.6941 98.5421 32.2157 98.5421 31.4742C98.5421 30.7327 99.1161 30.2543 99.8333 30.2543C100.106 30.2543 100.436 30.3357 100.661 30.5653ZM103.16 30.3117V32.6367H102.471V32.3209H102.462C102.367 32.5027 102.131 32.6941 101.783 32.6941C101.055 32.6941 100.922 32.2157 100.922 31.5938V30.3117H101.639V31.4503C101.639 31.7182 101.644 32.0626 102.012 32.0626C102.385 32.0626 102.443 31.7708 102.443 31.4694V30.3117H103.16ZM103.917 32.6367V30.8858H103.444V30.3117H103.917V29.9003C103.917 29.3932 104.047 28.9626 104.826 28.9626C104.969 28.9626 105.113 28.9722 105.247 29.0057L105.213 29.6133C105.132 29.5846 105.065 29.5654 104.979 29.5654C104.75 29.5654 104.635 29.6372 104.635 29.9434V30.3117H105.166V30.8858H104.635V32.6367H103.917ZM105.604 32.6367V30.8858H105.13V30.3117H105.604V29.9003C105.604 29.3932 105.733 28.9626 106.512 28.9626C106.656 28.9626 106.799 28.9722 106.934 29.0057L106.9 29.6133C106.819 29.5846 106.752 29.5654 106.666 29.5654C106.436 29.5654 106.321 29.6372 106.321 29.9434V30.3117H106.852V30.8858H106.321V32.6367H105.604ZM108.881 30.5605L108.441 30.9958C108.335 30.8666 108.197 30.7997 108.025 30.7997C107.905 30.7997 107.761 30.8523 107.761 30.991C107.761 31.3355 108.972 31.0437 108.972 31.9287C108.972 32.5219 108.398 32.6941 107.9 32.6941C107.575 32.6941 107.216 32.6128 106.987 32.3784L107.422 31.8952C107.556 32.0579 107.714 32.1487 107.929 32.1487C108.091 32.1487 108.255 32.1057 108.255 31.9813C108.255 31.6082 107.044 31.9239 107.044 31.0389C107.044 30.4935 107.532 30.2543 108.02 30.2543C108.327 30.2543 108.666 30.3308 108.881 30.5605Z" fill="white"/>
<path d="M109.594 29.7461V29.1914H109.385V29.0228H109.992V29.1914H109.783V29.7461H109.594ZM110.147 29.7461V29.0228H110.401L110.573 29.4933L110.745 29.0228H111V29.7461H110.81V29.2756H110.807L110.635 29.7461H110.512L110.34 29.2756H110.336V29.7461H110.147Z" fill="white"/>
<path d="M57.7056 36.7665C57.7056 35.6806 58.4758 34.9869 59.533 34.9869C60.5903 34.9869 61.3605 35.6806 61.3605 36.7665C61.3605 37.8525 60.5903 38.5461 59.533 38.5461C58.4758 38.5461 57.7056 37.8525 57.7056 36.7665ZM58.4806 36.7665C58.4806 37.398 58.8968 37.8572 59.533 37.8572C60.1693 37.8572 60.5855 37.398 60.5855 36.7665C60.5855 36.135 60.1693 35.6758 59.533 35.6758C58.8968 35.6758 58.4806 36.135 58.4806 36.7665ZM62.3509 38.46L61.4993 36.135H62.2648L62.7384 37.5942H62.748L63.145 36.135H63.9296L64.3601 37.5942H64.3697L64.8051 36.135H65.5322L64.7046 38.46H63.9965L63.5134 36.9149H63.5038L63.0733 38.46H62.3509ZM65.7618 38.46V36.135H66.4507V36.4508H66.4603C66.556 36.269 66.7904 36.0776 67.1396 36.0776C67.8668 36.0776 68.0007 36.556 68.0007 37.1779V38.46H67.2831V37.3214C67.2831 37.0535 67.2784 36.7091 66.91 36.7091C66.5368 36.7091 66.4794 37.001 66.4794 37.3023V38.46H65.7618ZM71.5079 36.135V36.7091H70.8764V37.4841C70.8764 37.7329 70.9051 37.9147 71.2161 37.9147C71.2926 37.9147 71.4457 37.9051 71.5079 37.8477V38.4457C71.35 38.5031 71.173 38.5174 71.0056 38.5174C70.5272 38.5174 70.1588 38.3213 70.1588 37.8142V36.7091H69.6996V36.135H70.1588V35.4462H70.8764V36.135H71.5079ZM71.8726 34.8434H72.5902V36.4508H72.5997C72.6667 36.269 72.9011 36.0776 73.2504 36.0776C73.9775 36.0776 74.1115 36.556 74.1115 37.1779V38.46H73.3939V37.3214C73.3939 37.0535 73.389 36.7091 73.0207 36.7091C72.6476 36.7091 72.5902 37.001 72.5902 37.3023V38.46H71.8726V34.8434ZM76.3179 37.6899L76.8201 38.0582C76.5905 38.35 76.2126 38.5174 75.8395 38.5174C75.1219 38.5174 74.5478 38.039 74.5478 37.2976C74.5478 36.556 75.1219 36.0776 75.8395 36.0776C76.5092 36.0776 76.9302 36.556 76.9302 37.2976V37.5224H75.2654C75.3228 37.7951 75.5285 37.9721 75.8059 37.9721C76.0404 37.9721 76.1982 37.8525 76.3179 37.6899ZM75.2654 37.0344H76.2126C76.2173 36.7952 76.0308 36.5943 75.7725 36.5943C75.4568 36.5943 75.2845 36.8096 75.2654 37.0344ZM78.873 38.46V35.073H79.9924C81.0831 35.073 81.9969 35.5371 81.9969 36.7761C81.9969 37.8716 81.1023 38.46 80.0929 38.46H78.873ZM79.6193 35.7619V37.7711H80.0068C80.7004 37.7711 81.2219 37.5081 81.2219 36.7378C81.2219 36.0729 80.6909 35.7619 80.0594 35.7619H79.6193ZM84.1103 37.6899L84.6127 38.0582C84.3831 38.35 84.0051 38.5174 83.632 38.5174C82.9144 38.5174 82.3403 38.039 82.3403 37.2976C82.3403 36.556 82.9144 36.0776 83.632 36.0776C84.3017 36.0776 84.7227 36.556 84.7227 37.2976V37.5224H83.0579C83.1153 37.7951 83.321 37.9721 83.5985 37.9721C83.8329 37.9721 83.9908 37.8525 84.1103 37.6899ZM83.0579 37.0344H84.0051C84.0099 36.7952 83.8233 36.5943 83.565 36.5943C83.2492 36.5943 83.077 36.8096 83.0579 37.0344ZM86.8574 37.6899L87.3597 38.0582C87.1301 38.35 86.7521 38.5174 86.379 38.5174C85.6614 38.5174 85.0873 38.039 85.0873 37.2976C85.0873 36.556 85.6614 36.0776 86.379 36.0776C87.0487 36.0776 87.4697 36.556 87.4697 37.2976V37.5224H85.8049C85.8623 37.7951 86.0681 37.9721 86.3455 37.9721C86.5799 37.9721 86.7378 37.8525 86.8574 37.6899ZM85.8049 37.0344H86.7521C86.7569 36.7952 86.5703 36.5943 86.312 36.5943C85.9963 36.5943 85.824 36.8096 85.8049 37.0344ZM90.3459 34.8434V38.46H89.6857V38.1538H89.6762C89.5661 38.3213 89.2886 38.5174 88.9633 38.5174C88.2745 38.5174 87.82 38.0199 87.82 37.3167C87.82 36.6708 88.2219 36.0776 88.8821 36.0776C89.1787 36.0776 89.4561 36.159 89.6188 36.3838H89.6283V34.8434H90.3459ZM89.6857 37.2976C89.6857 36.9483 89.4704 36.7091 89.1117 36.7091C88.7528 36.7091 88.5376 36.9483 88.5376 37.2976C88.5376 37.6468 88.7528 37.8859 89.1117 37.8859C89.4704 37.8859 89.6857 37.6468 89.6857 37.2976Z" fill="white"/>
<path d="M91.266 35.5705V35.0157H91.0571V34.8472H91.6645V35.0157H91.4555V35.5705H91.266ZM91.819 35.5705V34.8472H92.0735L92.2456 35.3177L92.4176 34.8472H92.6722V35.5705H92.4826V35.1H92.479L92.307 35.5705H92.1841L92.0121 35.1H92.0085V35.5705H91.819Z" fill="white"/>
<path d="M58.4991 44.3319V41.605H57.5327V40.9449H60.2117V41.605H59.2454V44.3319H58.4991ZM60.4998 40.7152H61.2174V42.3226H61.2269C61.2939 42.1408 61.5283 41.9495 61.8776 41.9495C62.6047 41.9495 62.7387 42.4279 62.7387 43.0498V44.3319H62.0211V43.1933C62.0211 42.9254 62.0162 42.581 61.6479 42.581C61.2748 42.581 61.2174 42.8728 61.2174 43.1742V44.3319H60.4998V40.7152ZM64.945 43.5617L65.4473 43.93C65.2177 44.2219 64.8398 44.3893 64.4667 44.3893C63.7491 44.3893 63.175 43.9109 63.175 43.1694C63.175 42.4279 63.7491 41.9495 64.4667 41.9495C65.1364 41.9495 65.5574 42.4279 65.5574 43.1694V43.3942H63.8926C63.95 43.667 64.1557 43.8439 64.4331 43.8439C64.6676 43.8439 64.8254 43.7244 64.945 43.5617ZM63.8926 42.9063H64.8398C64.8445 42.6671 64.658 42.4662 64.3997 42.4662C64.0839 42.4662 63.9117 42.6815 63.8926 42.9063ZM68.1556 44.3319V41.605H67.1893V40.9449H69.8683V41.605H68.9019V44.3319H68.1556ZM70.2376 44.3319V40.9449H70.9839V44.3319H70.2376ZM74.4518 41.3563L73.8777 41.8251C73.7294 41.6481 73.5141 41.5476 73.2366 41.5476C72.6721 41.5476 72.256 42.0069 72.256 42.6384C72.256 43.2698 72.6721 43.7291 73.2128 43.7291C73.5141 43.7291 73.7581 43.5952 73.9112 43.3655L74.5331 43.8296C74.2508 44.2315 73.7724 44.418 73.3084 44.418C72.2512 44.418 71.481 43.7244 71.481 42.6384C71.481 41.5525 72.2512 40.8588 73.3084 40.8588C73.6863 40.8588 74.1647 40.988 74.4518 41.3563ZM77.1239 41.2128L76.6121 41.7725C76.4924 41.6194 76.2532 41.5476 76.0714 41.5476C75.8609 41.5476 75.5692 41.6433 75.5692 41.8969C75.5692 42.514 77.1287 42.117 77.1287 43.3034C77.1287 44.0592 76.5211 44.418 75.8227 44.418C75.3874 44.418 75.0047 44.2889 74.6841 43.9923L75.2152 43.4086C75.3682 43.6095 75.617 43.7291 75.8658 43.7291C76.1097 43.7291 76.3824 43.6143 76.3824 43.3751C76.3824 42.7532 74.7942 43.0881 74.7942 41.9591C74.7942 41.2367 75.4208 40.8588 76.0858 40.8588C76.4685 40.8588 76.8369 40.9593 77.1239 41.2128ZM77.5938 40.7152H78.3114V42.3226H78.3209C78.3879 42.1408 78.6224 41.9495 78.9715 41.9495C79.6987 41.9495 79.8326 42.4279 79.8326 43.0498V44.3319H79.1151V43.1933C79.1151 42.9254 79.1103 42.581 78.7419 42.581C78.3688 42.581 78.3114 42.8728 78.3114 43.1742V44.3319H77.5938V40.7152ZM82.0391 43.5617L82.5414 43.93C82.3118 44.2219 81.9339 44.3893 81.5607 44.3893C80.8431 44.3893 80.2691 43.9109 80.2691 43.1694C80.2691 42.4279 80.8431 41.9495 81.5607 41.9495C82.2305 41.9495 82.6515 42.4279 82.6515 43.1694V43.3942H80.9867C81.0441 43.667 81.2497 43.8439 81.5272 43.8439C81.7617 43.8439 81.9195 43.7244 82.0391 43.5617ZM80.9867 42.9063H81.9339C81.9386 42.6671 81.7521 42.4662 81.4938 42.4662C81.178 42.4662 81.0058 42.6815 80.9867 42.9063ZM83.0974 44.3319V40.7152H83.815V44.3319H83.0974ZM84.5792 44.3319V42.581H84.1057V42.0069H84.5792V41.5955C84.5792 41.0884 84.7084 40.6578 85.4882 40.6578C85.6317 40.6578 85.7752 40.6674 85.9092 40.7009L85.8757 41.3084C85.7943 41.2797 85.7274 41.2606 85.6413 41.2606C85.4116 41.2606 85.2968 41.3324 85.2968 41.6386V42.0069H85.8279V42.581H85.2968V44.3319H84.5792Z" fill="white"/>
<path d="M86.789 41.4422V40.8874H86.5801V40.7189H87.1875V40.8874H86.9786V41.4422H86.789ZM87.342 41.4422V40.7189H87.5966L87.7686 41.1894L87.9406 40.7189H88.1952V41.4422H88.0056V40.9717H88.0021L87.83 41.4422H87.7072L87.5351 40.9717H87.5316V41.4422H87.342Z" fill="white"/>
<path d="M54.7289 22.7809H54.4707V44.4168H54.7289V22.7809Z" fill="white"/>
</svg>
