<?xml version="1.0" encoding="UTF-8"?>
<svg id="Layer_1" data-name="Layer 1" xmlns="http://www.w3.org/2000/svg" viewBox="0 0 131.3 49.14">
  <defs>
    <style>
      .cls-1 {
        fill: #232156;
      }

      .cls-1, .cls-2 {
        stroke-width: 0px;
      }

      .cls-2 {
        fill: #4178bd;
      }
    </style>
  </defs>
  <g>
    <g>
      <path class="cls-1" d="M1.8,35.18h1.58c.18,0,.37.01.55.04.18.03.35.08.5.16.15.08.27.19.36.33s.14.33.14.56-.07.44-.2.59c-.13.16-.31.27-.53.34h0c.14.03.27.07.38.13.11.06.21.13.29.22.08.09.14.19.19.31.04.12.07.25.07.38,0,.22-.05.41-.14.56-.1.15-.22.27-.37.36s-.32.16-.51.2-.38.06-.56.06h-1.73v-4.23ZM2.73,36.87h.67c.07,0,.14,0,.21-.02.07-.02.13-.04.19-.08.06-.04.1-.08.13-.14s.05-.13.05-.22-.02-.16-.06-.22-.09-.1-.15-.13c-.06-.03-.13-.05-.2-.07-.08-.01-.15-.02-.22-.02h-.63v.9ZM2.73,38.62h.84c.07,0,.14,0,.22-.02.07-.02.14-.04.2-.08s.11-.09.15-.16.06-.14.06-.23c0-.1-.03-.18-.08-.24s-.11-.11-.19-.14c-.08-.03-.16-.05-.25-.07-.09-.01-.17-.02-.25-.02h-.71v.96Z"/>
      <path class="cls-1" d="M5.56,36.5h.9v.47h.01c.1-.18.21-.31.34-.4.13-.09.3-.13.5-.13.05,0,.1,0,.16,0s.1.01.14.02v.82c-.06-.02-.13-.04-.19-.04s-.13-.01-.19-.01c-.17,0-.31.02-.41.07s-.18.12-.23.2c-.05.09-.09.19-.1.31-.02.12-.02.25-.02.39v1.21h-.9v-2.91Z"/>
      <path class="cls-1" d="M7.78,37.95c0-.23.04-.44.13-.63.08-.19.2-.35.34-.48.15-.13.32-.24.51-.31.2-.07.41-.11.63-.11s.43.04.63.11c.2.07.37.17.51.31.15.13.26.29.34.48s.12.4.12.63-.04.44-.12.63c-.08.19-.2.35-.34.48s-.32.24-.51.31c-.2.07-.41.11-.63.11s-.43-.04-.63-.11c-.2-.07-.37-.17-.51-.31s-.26-.29-.34-.48c-.08-.19-.13-.4-.13-.63ZM8.68,37.95c0,.22.06.4.19.53.13.14.3.2.53.2s.4-.07.53-.2c.13-.13.19-.31.19-.53s-.06-.4-.19-.53c-.12-.14-.3-.2-.53-.2s-.4.07-.53.2c-.12.14-.19.31-.19.53Z"/>
      <path class="cls-1" d="M11.54,34.89h.9v2.76l.99-1.15h1.1l-1.15,1.31,1.18,1.6h-1.13l-.98-1.47h-.01v1.47h-.9v-4.52Z"/>
      <path class="cls-1" d="M17.61,38.9c-.14.18-.33.32-.54.42-.22.1-.45.15-.68.15-.22,0-.43-.04-.63-.11-.2-.07-.37-.17-.51-.31s-.26-.29-.34-.48c-.08-.19-.12-.4-.12-.63s.04-.44.12-.63.2-.35.34-.48c.15-.13.32-.24.51-.31.2-.07.41-.11.63-.11.21,0,.4.04.57.11.17.07.31.17.43.31.12.13.21.29.27.48.06.19.1.4.1.63v.28h-2.08c.04.17.11.31.23.41.12.1.27.15.44.15.15,0,.27-.03.37-.1.1-.07.19-.15.27-.25l.63.46ZM16.85,37.63c0-.15-.05-.28-.15-.39-.1-.11-.24-.16-.4-.16-.1,0-.19.02-.26.05-.08.03-.14.07-.19.12s-.1.11-.12.17c-.03.07-.05.13-.05.21h1.18Z"/>
      <path class="cls-1" d="M18.29,36.5h.9v.47h.01c.1-.18.21-.31.34-.4.13-.09.3-.13.5-.13.05,0,.1,0,.16,0s.1.01.14.02v.82c-.06-.02-.13-.04-.19-.04s-.13-.01-.19-.01c-.17,0-.31.02-.41.07s-.18.12-.23.2c-.05.09-.09.19-.1.31-.02.12-.02.25-.02.39v1.21h-.9v-2.91Z"/>
      <path class="cls-1" d="M22.55,39.04h-.01c-.1.16-.23.27-.4.33-.17.07-.34.1-.52.1-.13,0-.27-.02-.39-.06-.12-.04-.24-.09-.33-.17-.1-.08-.17-.17-.23-.28s-.08-.24-.08-.39c0-.17.03-.31.09-.42.06-.12.15-.21.25-.29.11-.08.23-.13.36-.18.13-.04.28-.07.42-.09.15-.02.29-.03.44-.04s.28,0,.4,0c0-.16-.06-.29-.17-.38-.11-.09-.25-.14-.4-.14s-.28.03-.4.09c-.12.06-.23.15-.33.25l-.48-.49c.17-.16.36-.27.59-.35.22-.08.45-.12.69-.12.26,0,.48.03.65.1.17.07.3.16.41.29.1.13.17.28.21.47.04.19.06.4.06.64v1.48h-.83v-.36ZM22.33,38.13c-.07,0-.15,0-.25,0-.1,0-.2.02-.29.05-.09.03-.17.07-.24.12s-.1.13-.1.23c0,.11.05.19.14.24.09.05.19.08.29.08.09,0,.17-.01.25-.04.08-.02.15-.06.22-.1.06-.04.11-.1.15-.17s.06-.15.06-.24v-.19h-.22Z"/>
      <path class="cls-1" d="M26.98,39.16c0,.55-.14.97-.42,1.25-.28.29-.7.43-1.26.43-.26,0-.51-.03-.76-.09s-.48-.17-.69-.34l.5-.74c.14.12.29.21.44.28.15.07.32.1.51.1.27,0,.48-.07.61-.2.13-.13.19-.3.19-.51v-.28h-.01c-.1.14-.23.24-.39.3s-.3.09-.43.09c-.21,0-.41-.04-.59-.11-.17-.07-.33-.18-.45-.31-.12-.13-.22-.29-.29-.47-.07-.18-.1-.38-.1-.6,0-.19.03-.38.09-.56s.15-.34.26-.48c.11-.14.25-.25.42-.34.16-.09.35-.13.56-.13.13,0,.24.01.35.04.11.03.2.06.28.11.08.04.16.09.21.15s.11.11.14.16h.01v-.38h.83v2.66ZM24.72,37.94c0,.1.02.19.05.27.04.09.09.16.15.23s.14.12.23.16c.09.04.18.06.28.06s.19-.02.28-.06c.09-.04.17-.09.23-.16.07-.07.12-.14.15-.23s.05-.18.05-.27-.02-.19-.05-.27-.09-.16-.15-.23c-.07-.07-.14-.12-.23-.16-.09-.04-.18-.06-.28-.06s-.2.02-.28.06-.16.09-.23.16c-.07.07-.12.14-.15.23-.04.09-.05.18-.05.27Z"/>
      <path class="cls-1" d="M30.45,38.9c-.14.18-.33.32-.54.42-.22.1-.45.15-.68.15-.22,0-.43-.04-.63-.11-.2-.07-.37-.17-.51-.31s-.26-.29-.34-.48c-.08-.19-.12-.4-.12-.63s.04-.44.12-.63.2-.35.34-.48c.15-.13.32-.24.51-.31.2-.07.41-.11.63-.11.21,0,.4.04.57.11.17.07.31.17.43.31.12.13.21.29.27.48.06.19.1.4.1.63v.28h-2.08c.04.17.11.31.23.41.12.1.27.15.44.15.15,0,.27-.03.37-.1.1-.07.19-.15.27-.25l.63.46ZM29.69,37.63c0-.15-.05-.28-.15-.39-.1-.11-.24-.16-.4-.16-.1,0-.19.02-.26.05-.08.03-.14.07-.19.12s-.1.11-.12.17c-.03.07-.05.13-.05.21h1.18Z"/>
      <path class="cls-1" d="M35.11,36.21c-.08-.09-.18-.17-.31-.21-.13-.05-.25-.07-.37-.07-.07,0-.14,0-.21.02-.07.02-.14.04-.2.08-.06.03-.12.08-.16.13-.04.06-.06.12-.06.2,0,.13.05.22.14.29.09.07.22.13.36.17s.3.1.47.14c.17.05.32.12.47.2s.27.21.36.35.14.34.14.59-.04.44-.13.62c-.09.18-.21.32-.36.44-.15.12-.32.2-.52.26-.2.06-.41.08-.62.08-.28,0-.53-.04-.76-.12-.24-.08-.46-.22-.66-.41l.66-.73c.1.13.22.23.36.3.15.07.3.1.45.1.08,0,.15,0,.23-.03.08-.02.15-.04.21-.08.06-.04.11-.08.15-.14s.06-.12.06-.2c0-.13-.05-.23-.15-.3-.1-.07-.22-.14-.37-.19s-.31-.1-.48-.16-.33-.12-.48-.21c-.15-.09-.27-.2-.37-.35s-.15-.33-.15-.57.04-.43.13-.6c.09-.17.21-.31.36-.43.15-.12.32-.2.52-.26s.4-.09.6-.09c.24,0,.47.03.69.1.22.07.42.18.6.34l-.64.7Z"/>
      <path class="cls-1" d="M39.08,38.9c-.14.18-.33.32-.54.42-.22.1-.45.15-.68.15-.22,0-.43-.04-.63-.11-.2-.07-.37-.17-.51-.31s-.26-.29-.34-.48c-.08-.19-.12-.4-.12-.63s.04-.44.12-.63.2-.35.34-.48c.15-.13.32-.24.51-.31.2-.07.41-.11.63-.11.21,0,.4.04.57.11.17.07.31.17.43.31.12.13.21.29.27.48.06.19.1.4.1.63v.28h-2.08c.04.17.11.31.23.41.12.1.27.15.44.15.15,0,.27-.03.37-.1.1-.07.19-.15.27-.25l.63.46ZM38.32,37.63c0-.15-.05-.28-.15-.39-.1-.11-.24-.16-.4-.16-.1,0-.19.02-.26.05-.08.03-.14.07-.19.12s-.1.11-.12.17c-.03.07-.05.13-.05.21h1.18Z"/>
      <path class="cls-1" d="M39.76,36.5h.9v.47h.01c.1-.18.21-.31.34-.4.13-.09.3-.13.5-.13.05,0,.1,0,.16,0s.1.01.14.02v.82c-.06-.02-.13-.04-.19-.04s-.13-.01-.19-.01c-.17,0-.31.02-.41.07s-.18.12-.23.2c-.05.09-.09.19-.1.31-.02.12-.02.25-.02.39v1.21h-.9v-2.91Z"/>
      <path class="cls-1" d="M41.89,36.5h.97l.74,1.97h.01l.68-1.97h.9l-1.15,2.91h-.95l-1.2-2.91Z"/>
      <path class="cls-1" d="M45.46,35.59c0-.14.05-.27.15-.37.1-.1.22-.15.37-.15s.27.05.37.15c.1.1.15.22.15.37s-.05.27-.15.37-.22.15-.37.15-.27-.05-.37-.15-.15-.22-.15-.37ZM45.53,36.5h.9v2.91h-.9v-2.91Z"/>
      <path class="cls-1" d="M49.04,37.44c-.04-.06-.11-.12-.19-.16-.08-.04-.17-.06-.26-.06-.23,0-.4.07-.53.2-.12.14-.19.31-.19.53s.06.4.19.53c.13.14.3.2.53.2.1,0,.19-.02.26-.07.07-.04.13-.1.19-.16l.59.62c-.14.14-.3.24-.49.3s-.37.09-.54.09c-.22,0-.43-.04-.63-.11-.2-.07-.37-.17-.51-.31s-.26-.29-.34-.48c-.08-.19-.12-.4-.12-.63s.04-.44.12-.63.2-.35.34-.48c.15-.13.32-.24.51-.31.2-.07.41-.11.63-.11.17,0,.35.03.54.09s.35.16.49.3l-.59.62Z"/>
      <path class="cls-1" d="M52.7,38.9c-.14.18-.33.32-.54.42-.22.1-.45.15-.68.15-.22,0-.43-.04-.63-.11-.2-.07-.37-.17-.51-.31s-.26-.29-.34-.48c-.08-.19-.12-.4-.12-.63s.04-.44.12-.63.2-.35.34-.48c.15-.13.32-.24.51-.31.2-.07.41-.11.63-.11.21,0,.4.04.57.11.17.07.31.17.43.31.12.13.21.29.27.48.06.19.1.4.1.63v.28h-2.08c.04.17.11.31.23.41.12.1.27.15.44.15.15,0,.27-.03.37-.1.1-.07.19-.15.27-.25l.63.46ZM51.94,37.63c0-.15-.05-.28-.15-.39-.1-.11-.24-.16-.4-.16-.1,0-.19.02-.26.05-.08.03-.14.07-.19.12s-.1.11-.12.17c-.03.07-.05.13-.05.21h1.18Z"/>
      <path class="cls-1" d="M55.03,37.36c-.13-.16-.31-.25-.52-.25-.08,0-.15.02-.22.05-.07.04-.11.1-.11.18,0,.07.04.12.11.16.07.03.17.06.28.09.11.03.24.05.37.08.13.03.25.08.36.14s.21.15.28.26c.07.11.11.26.11.44s-.04.34-.12.46c-.08.12-.19.22-.31.29-.13.07-.27.13-.43.16-.16.03-.32.04-.47.04-.2,0-.41-.03-.62-.09-.21-.06-.38-.16-.53-.31l.54-.6c.08.1.18.18.28.24.1.05.22.08.36.08.1,0,.2-.02.28-.04.08-.03.13-.08.13-.17,0-.08-.04-.13-.11-.17-.07-.04-.17-.07-.28-.1-.11-.03-.24-.05-.36-.08-.13-.03-.25-.07-.37-.13-.11-.06-.21-.14-.28-.25-.07-.11-.11-.26-.11-.44,0-.17.04-.32.1-.44.07-.12.16-.23.28-.3.11-.08.24-.14.39-.18s.3-.06.45-.06c.19,0,.38.03.58.08s.36.16.5.3l-.55.54Z"/>
      <path class="cls-1" d="M58.64,34.92v5.98h-.75v-5.98h.75Z"/>
      <path class="cls-1" d="M61.16,35.18h.93v3.37h1.73v.86h-2.66v-4.23Z"/>
      <path class="cls-1" d="M66.98,38.9c-.14.18-.33.32-.54.42-.22.1-.45.15-.68.15-.22,0-.43-.04-.63-.11-.2-.07-.37-.17-.51-.31s-.26-.29-.34-.48c-.08-.19-.12-.4-.12-.63s.04-.44.12-.63.2-.35.34-.48c.15-.13.32-.24.51-.31.2-.07.41-.11.63-.11.21,0,.4.04.57.11.17.07.31.17.43.31.12.13.21.29.27.48.06.19.1.4.1.63v.28h-2.08c.04.17.11.31.23.41.12.1.27.15.44.15.15,0,.27-.03.37-.1.1-.07.19-.15.27-.25l.63.46ZM66.22,37.63c0-.15-.05-.28-.15-.39-.1-.11-.24-.16-.4-.16-.1,0-.19.02-.26.05-.08.03-.14.07-.19.12s-.1.11-.12.17c-.03.07-.05.13-.05.21h1.18Z"/>
      <path class="cls-1" d="M69.48,39.04h-.01c-.1.16-.23.27-.4.33-.17.07-.34.1-.52.1-.13,0-.27-.02-.39-.06-.12-.04-.24-.09-.33-.17-.1-.08-.17-.17-.23-.28s-.08-.24-.08-.39c0-.17.03-.31.09-.42.06-.12.15-.21.25-.29.11-.08.23-.13.36-.18.13-.04.28-.07.42-.09.15-.02.29-.03.44-.04s.28,0,.4,0c0-.16-.06-.29-.17-.38-.11-.09-.25-.14-.4-.14s-.28.03-.4.09c-.12.06-.23.15-.33.25l-.48-.49c.17-.16.36-.27.59-.35.22-.08.45-.12.69-.12.26,0,.48.03.65.1.17.07.3.16.41.29.1.13.17.28.21.47.04.19.06.4.06.64v1.48h-.83v-.36ZM69.26,38.13c-.07,0-.15,0-.25,0-.1,0-.2.02-.29.05-.09.03-.17.07-.24.12s-.1.13-.1.23c0,.11.05.19.14.24.09.05.19.08.29.08.09,0,.17-.01.25-.04.08-.02.15-.06.22-.1.06-.04.11-.1.15-.17s.06-.15.06-.24v-.19h-.22Z"/>
      <path class="cls-1" d="M72.51,37.36c-.13-.16-.31-.25-.52-.25-.08,0-.15.02-.22.05-.07.04-.11.1-.11.18,0,.07.04.12.11.16.07.03.17.06.28.09.11.03.24.05.37.08.13.03.25.08.36.14s.21.15.28.26c.07.11.11.26.11.44s-.04.34-.12.46c-.08.12-.19.22-.31.29-.13.07-.27.13-.43.16-.16.03-.32.04-.47.04-.2,0-.41-.03-.62-.09-.21-.06-.38-.16-.53-.31l.54-.6c.08.1.18.18.28.24.1.05.22.08.36.08.1,0,.2-.02.28-.04.08-.03.13-.08.13-.17,0-.08-.04-.13-.11-.17-.07-.04-.17-.07-.28-.1-.11-.03-.24-.05-.36-.08-.13-.03-.25-.07-.37-.13-.11-.06-.21-.14-.28-.25-.07-.11-.11-.26-.11-.44,0-.17.04-.32.1-.44.07-.12.16-.23.28-.3.11-.08.24-.14.39-.18s.3-.06.45-.06c.19,0,.38.03.58.08s.36.16.5.3l-.55.54Z"/>
      <path class="cls-1" d="M73.57,35.59c0-.14.05-.27.15-.37.1-.1.22-.15.37-.15s.27.05.37.15c.1.1.15.22.15.37s-.05.27-.15.37-.22.15-.37.15-.27-.05-.37-.15-.15-.22-.15-.37ZM73.65,36.5h.9v2.91h-.9v-2.91Z"/>
      <path class="cls-1" d="M75.19,36.5h.86v.39h.01c.03-.06.07-.11.12-.17s.11-.11.19-.15c.07-.04.15-.08.25-.11.09-.03.19-.04.3-.04.23,0,.41.04.55.1s.25.17.33.29c.08.12.13.27.16.44.03.17.04.35.04.54v1.6h-.9v-1.42c0-.08,0-.17,0-.26,0-.09-.02-.17-.05-.25-.03-.08-.08-.14-.14-.19-.06-.05-.15-.07-.27-.07s-.21.02-.28.06c-.07.04-.13.1-.17.17-.04.07-.06.15-.07.24-.01.09-.02.18-.02.28v1.45h-.9v-2.91Z"/>
      <path class="cls-1" d="M81.67,39.16c0,.55-.14.97-.42,1.25-.28.29-.7.43-1.26.43-.26,0-.51-.03-.76-.09s-.48-.17-.69-.34l.5-.74c.14.12.29.21.44.28.15.07.32.1.51.1.27,0,.48-.07.61-.2.13-.13.19-.3.19-.51v-.28h-.01c-.1.14-.23.24-.39.3s-.3.09-.43.09c-.21,0-.41-.04-.59-.11-.17-.07-.33-.18-.45-.31-.12-.13-.22-.29-.29-.47-.07-.18-.1-.38-.1-.6,0-.19.03-.38.09-.56s.15-.34.26-.48c.11-.14.25-.25.42-.34.16-.09.35-.13.56-.13.13,0,.24.01.35.04.11.03.2.06.28.11.08.04.16.09.21.15s.11.11.14.16h.01v-.38h.83v2.66ZM79.41,37.94c0,.1.02.19.05.27.04.09.09.16.15.23s.14.12.23.16c.09.04.18.06.28.06s.19-.02.28-.06c.09-.04.17-.09.23-.16.07-.07.12-.14.15-.23s.05-.18.05-.27-.02-.19-.05-.27-.09-.16-.15-.23c-.07-.07-.14-.12-.23-.16-.09-.04-.18-.06-.28-.06s-.2.02-.28.06-.16.09-.23.16c-.07.07-.12.14-.15.23-.04.09-.05.18-.05.27Z"/>
      <path class="cls-1" d="M84.27,35.18h1.64c.21,0,.42.02.61.06s.36.11.51.21.26.23.35.39c.09.17.13.37.13.62,0,.3-.08.55-.23.76s-.38.34-.68.4l1.08,1.79h-1.12l-.88-1.69h-.46v1.69h-.93v-4.23ZM85.2,36.93h.55c.08,0,.17,0,.27,0s.18-.02.25-.05c.08-.03.14-.08.19-.14s.07-.15.07-.27c0-.11-.02-.19-.07-.26-.04-.06-.1-.11-.17-.15-.07-.03-.15-.06-.23-.07s-.17-.02-.26-.02h-.61v.96Z"/>
      <path class="cls-1" d="M90.78,38.9c-.14.18-.33.32-.54.42-.22.1-.45.15-.68.15-.22,0-.43-.04-.63-.11-.2-.07-.37-.17-.51-.31s-.26-.29-.34-.48c-.08-.19-.12-.4-.12-.63s.04-.44.12-.63.2-.35.34-.48c.15-.13.32-.24.51-.31.2-.07.41-.11.63-.11.21,0,.4.04.57.11.17.07.31.17.43.31.12.13.21.29.27.48.06.19.1.4.1.63v.28h-2.08c.04.17.11.31.23.41.12.1.27.15.44.15.15,0,.27-.03.37-.1.1-.07.19-.15.27-.25l.63.46ZM90.02,37.63c0-.15-.05-.28-.15-.39-.1-.11-.24-.16-.4-.16-.1,0-.19.02-.26.05-.08.03-.14.07-.19.12s-.1.11-.12.17c-.03.07-.05.13-.05.21h1.18Z"/>
      <path class="cls-1" d="M91.54,36.5h.83v.38h.01c.04-.05.08-.1.14-.16s.12-.1.2-.15c.08-.04.16-.08.25-.11.09-.03.19-.04.29-.04.21,0,.41.04.59.11.17.07.33.18.45.31.12.13.22.29.29.48.07.18.1.38.1.6,0,.2-.03.4-.09.58s-.15.35-.26.49c-.11.14-.25.26-.42.34s-.35.13-.56.13c-.19,0-.36-.03-.52-.09-.16-.06-.29-.16-.4-.3h-.01v1.67h-.9v-4.27ZM92.37,37.95c0,.22.06.4.19.53.12.14.3.2.53.2s.4-.07.53-.2c.12-.13.19-.31.19-.53s-.06-.4-.19-.53c-.13-.14-.3-.2-.53-.2s-.4.07-.53.2c-.13.14-.19.31-.19.53Z"/>
      <path class="cls-1" d="M95.22,36.5h.9v.47h.01c.1-.18.21-.31.34-.4.13-.09.3-.13.5-.13.05,0,.1,0,.16,0s.1.01.14.02v.82c-.06-.02-.13-.04-.19-.04s-.13-.01-.19-.01c-.17,0-.31.02-.41.07s-.18.12-.23.2c-.05.09-.09.19-.1.31-.02.12-.02.25-.02.39v1.21h-.9v-2.91Z"/>
      <path class="cls-1" d="M100.3,38.9c-.14.18-.33.32-.54.42-.22.1-.45.15-.68.15-.22,0-.43-.04-.63-.11-.2-.07-.37-.17-.51-.31s-.26-.29-.34-.48c-.08-.19-.12-.4-.12-.63s.04-.44.12-.63.2-.35.34-.48c.15-.13.32-.24.51-.31.2-.07.41-.11.63-.11.21,0,.4.04.57.11.17.07.31.17.43.31.12.13.21.29.27.48.06.19.1.4.1.63v.28h-2.08c.04.17.11.31.23.41.12.1.27.15.44.15.15,0,.27-.03.37-.1.1-.07.19-.15.27-.25l.63.46ZM99.54,37.63c0-.15-.05-.28-.15-.39-.1-.11-.24-.16-.4-.16-.1,0-.19.02-.26.05-.08.03-.14.07-.19.12s-.1.11-.12.17c-.03.07-.05.13-.05.21h1.18Z"/>
      <path class="cls-1" d="M102.63,37.36c-.13-.16-.31-.25-.52-.25-.08,0-.15.02-.22.05-.07.04-.11.1-.11.18,0,.07.04.12.11.16.07.03.17.06.28.09.11.03.24.05.37.08.13.03.25.08.36.14s.21.15.28.26c.07.11.11.26.11.44s-.04.34-.12.46c-.08.12-.19.22-.31.29-.13.07-.27.13-.43.16-.16.03-.32.04-.47.04-.2,0-.41-.03-.62-.09-.21-.06-.38-.16-.53-.31l.54-.6c.08.1.18.18.28.24.1.05.22.08.36.08.1,0,.2-.02.28-.04.08-.03.13-.08.13-.17,0-.08-.04-.13-.11-.17-.07-.04-.17-.07-.28-.1-.11-.03-.24-.05-.36-.08-.13-.03-.25-.07-.37-.13-.11-.06-.21-.14-.28-.25-.07-.11-.11-.26-.11-.44,0-.17.04-.32.1-.44.07-.12.16-.23.28-.3.11-.08.24-.14.39-.18s.3-.06.45-.06c.19,0,.38.03.58.08s.36.16.5.3l-.55.54Z"/>
      <path class="cls-1" d="M106.5,38.9c-.14.18-.33.32-.54.42-.22.1-.45.15-.68.15-.22,0-.43-.04-.63-.11-.2-.07-.37-.17-.51-.31s-.26-.29-.34-.48c-.08-.19-.12-.4-.12-.63s.04-.44.12-.63.2-.35.34-.48c.15-.13.32-.24.51-.31.2-.07.41-.11.63-.11.21,0,.4.04.57.11.17.07.31.17.43.31.12.13.21.29.27.48.06.19.1.4.1.63v.28h-2.08c.04.17.11.31.23.41.12.1.27.15.44.15.15,0,.27-.03.37-.1.1-.07.19-.15.27-.25l.63.46ZM105.74,37.63c0-.15-.05-.28-.15-.39-.1-.11-.24-.16-.4-.16-.1,0-.19.02-.26.05-.08.03-.14.07-.19.12s-.1.11-.12.17c-.03.07-.05.13-.05.21h1.18Z"/>
      <path class="cls-1" d="M107.18,36.5h.86v.39h.01c.03-.06.07-.11.12-.17s.11-.11.19-.15c.07-.04.15-.08.25-.11.09-.03.19-.04.3-.04.23,0,.41.04.55.1s.25.17.33.29c.08.12.13.27.16.44.03.17.04.35.04.54v1.6h-.9v-1.42c0-.08,0-.17,0-.26,0-.09-.02-.17-.05-.25-.03-.08-.08-.14-.14-.19-.06-.05-.15-.07-.27-.07s-.21.02-.28.06c-.07.04-.13.1-.17.17-.04.07-.06.15-.07.24-.01.09-.02.18-.02.28v1.45h-.9v-2.91Z"/>
      <path class="cls-1" d="M112.59,37.22h-.79v.97c0,.08,0,.15.01.22,0,.07.03.12.05.17.03.05.07.08.13.11.06.03.13.04.23.04.05,0,.11,0,.19-.01.08,0,.14-.03.18-.07v.75c-.1.04-.2.06-.31.07s-.21.02-.32.02c-.15,0-.29-.02-.42-.05-.13-.03-.24-.08-.33-.15-.09-.07-.17-.16-.22-.27s-.08-.25-.08-.41v-1.38h-.57v-.72h.57v-.86h.9v.86h.79v.72Z"/>
      <path class="cls-1" d="M114.87,39.04h-.01c-.1.16-.23.27-.4.33-.17.07-.34.1-.52.1-.13,0-.27-.02-.39-.06-.12-.04-.24-.09-.33-.17-.1-.08-.17-.17-.23-.28s-.08-.24-.08-.39c0-.17.03-.31.09-.42.06-.12.15-.21.25-.29.11-.08.23-.13.36-.18.13-.04.28-.07.42-.09.15-.02.29-.03.44-.04s.28,0,.4,0c0-.16-.06-.29-.17-.38-.11-.09-.25-.14-.4-.14s-.28.03-.4.09c-.12.06-.23.15-.33.25l-.48-.49c.17-.16.36-.27.59-.35.22-.08.45-.12.69-.12.26,0,.48.03.65.1.17.07.3.16.41.29.1.13.17.28.21.47.04.19.06.4.06.64v1.48h-.83v-.36ZM114.65,38.13c-.07,0-.15,0-.25,0-.1,0-.2.02-.29.05-.09.03-.17.07-.24.12s-.1.13-.1.23c0,.11.05.19.14.24.09.05.19.08.29.08.09,0,.17-.01.25-.04.08-.02.15-.06.22-.1.06-.04.11-.1.15-.17s.06-.15.06-.24v-.19h-.22Z"/>
      <path class="cls-1" d="M118.23,37.22h-.79v.97c0,.08,0,.15.01.22,0,.07.03.12.05.17.03.05.07.08.13.11.06.03.13.04.23.04.05,0,.11,0,.19-.01.08,0,.14-.03.18-.07v.75c-.1.04-.2.06-.31.07s-.21.02-.32.02c-.15,0-.29-.02-.42-.05-.13-.03-.24-.08-.33-.15-.09-.07-.17-.16-.22-.27s-.08-.25-.08-.41v-1.38h-.57v-.72h.57v-.86h.9v.86h.79v.72Z"/>
      <path class="cls-1" d="M118.63,35.59c0-.14.05-.27.15-.37.1-.1.22-.15.37-.15s.27.05.37.15c.1.1.15.22.15.37s-.05.27-.15.37-.22.15-.37.15-.27-.05-.37-.15-.15-.22-.15-.37ZM118.7,36.5h.9v2.91h-.9v-2.91Z"/>
      <path class="cls-1" d="M120.14,37.95c0-.23.04-.44.13-.63.08-.19.2-.35.34-.48.15-.13.32-.24.51-.31.2-.07.41-.11.63-.11s.43.04.63.11c.2.07.37.17.51.31.15.13.26.29.34.48s.12.4.12.63-.04.44-.12.63c-.08.19-.2.35-.34.48s-.32.24-.51.31c-.2.07-.41.11-.63.11s-.43-.04-.63-.11c-.2-.07-.37-.17-.51-.31s-.26-.29-.34-.48c-.08-.19-.13-.4-.13-.63ZM121.03,37.95c0,.22.06.4.19.53.13.14.3.2.53.2s.4-.07.53-.2c.13-.13.19-.31.19-.53s-.06-.4-.19-.53c-.12-.14-.3-.2-.53-.2s-.4.07-.53.2c-.12.14-.19.31-.19.53Z"/>
      <path class="cls-1" d="M123.89,36.5h.86v.39h.01c.03-.06.07-.11.12-.17s.11-.11.19-.15c.07-.04.15-.08.25-.11.09-.03.19-.04.3-.04.23,0,.41.04.55.1s.25.17.33.29c.08.12.13.27.16.44.03.17.04.35.04.54v1.6h-.9v-1.42c0-.08,0-.17,0-.26,0-.09-.02-.17-.05-.25-.03-.08-.08-.14-.14-.19-.06-.05-.15-.07-.27-.07s-.21.02-.28.06c-.07.04-.13.1-.17.17-.04.07-.06.15-.07.24-.01.09-.02.18-.02.28v1.45h-.9v-2.91Z"/>
      <path class="cls-1" d="M129.81,34.92v5.98h-.75v-5.98h.75Z"/>
    </g>
    <g>
      <path class="cls-1" d="M3.89,43.38c-.08-.09-.18-.17-.31-.21-.13-.05-.25-.07-.37-.07-.07,0-.14,0-.21.02-.07.02-.14.04-.2.08-.06.03-.12.08-.16.13-.04.06-.06.12-.06.2,0,.13.05.22.14.29.09.07.22.13.36.17s.3.1.47.14c.17.05.32.12.47.2s.27.21.36.35.14.34.14.59-.04.44-.13.62c-.09.18-.21.32-.36.44-.15.12-.32.2-.52.26-.2.06-.41.08-.62.08-.28,0-.53-.04-.76-.12-.24-.08-.46-.22-.66-.41l.66-.73c.1.13.22.23.36.3.15.07.3.1.45.1.08,0,.15,0,.23-.03.08-.02.15-.04.21-.08.06-.04.11-.08.15-.14s.06-.12.06-.2c0-.13-.05-.23-.15-.3-.1-.07-.22-.14-.37-.19s-.31-.1-.48-.16-.33-.12-.48-.21c-.15-.09-.27-.2-.37-.35s-.15-.33-.15-.57.04-.43.13-.6c.09-.17.21-.31.36-.43.15-.12.32-.2.52-.26s.4-.09.6-.09c.24,0,.47.03.69.1.22.07.42.18.6.34l-.64.7Z"/>
      <path class="cls-1" d="M6.94,46.22h-.01c-.1.16-.23.27-.4.33-.17.07-.34.1-.52.1-.13,0-.27-.02-.39-.06-.12-.04-.24-.09-.33-.17-.1-.08-.17-.17-.23-.28s-.08-.24-.08-.39c0-.17.03-.31.09-.42.06-.12.15-.21.25-.29.11-.08.23-.13.36-.18.13-.04.28-.07.42-.09.15-.02.29-.03.44-.04s.28,0,.4,0c0-.16-.06-.29-.17-.38-.11-.09-.25-.14-.4-.14s-.28.03-.4.09c-.12.06-.23.15-.33.25l-.48-.49c.17-.16.36-.27.59-.35.22-.08.45-.12.69-.12.26,0,.48.03.65.1.17.07.3.16.41.29.1.13.17.28.21.47.04.19.06.4.06.64v1.48h-.83v-.36ZM6.72,45.31c-.07,0-.15,0-.25,0-.1,0-.2.02-.29.05-.09.03-.17.07-.24.12s-.1.13-.1.23c0,.11.05.19.14.24.09.05.19.08.29.08.09,0,.17-.01.25-.04.08-.02.15-.06.22-.1.06-.04.11-.1.15-.17s.06-.15.06-.24v-.19h-.22Z"/>
      <path class="cls-1" d="M8.34,42.06h.9v4.52h-.9v-4.52Z"/>
      <path class="cls-1" d="M12.63,46.08c-.14.18-.33.32-.54.42-.22.1-.45.15-.68.15-.22,0-.43-.04-.63-.11-.2-.07-.37-.17-.51-.31s-.26-.29-.34-.48c-.08-.19-.12-.4-.12-.63s.04-.44.12-.63.2-.35.34-.48c.15-.13.32-.24.51-.31.2-.07.41-.11.63-.11.21,0,.4.04.57.11.17.07.31.17.43.31.12.13.21.29.27.48.06.19.1.4.1.63v.28h-2.08c.04.17.11.31.23.41.12.1.27.15.44.15.15,0,.27-.03.37-.1.1-.07.19-.15.27-.25l.63.46ZM11.87,44.8c0-.15-.05-.28-.15-.39-.1-.11-.24-.16-.4-.16-.1,0-.19.02-.26.05-.08.03-.14.07-.19.12s-.1.11-.12.17c-.03.07-.05.13-.05.21h1.18Z"/>
      <path class="cls-1" d="M14.96,44.53c-.13-.16-.31-.25-.52-.25-.08,0-.15.02-.22.05-.07.04-.11.1-.11.18,0,.07.04.12.11.16.07.03.17.06.28.09.11.03.24.05.37.08.13.03.25.08.36.14s.21.15.28.26c.07.11.11.26.11.44s-.04.34-.12.46c-.08.12-.19.22-.31.29-.13.07-.27.13-.43.16-.16.03-.32.04-.47.04-.2,0-.41-.03-.62-.09-.21-.06-.38-.16-.53-.31l.54-.6c.08.1.18.18.28.24.1.05.22.08.36.08.1,0,.2-.02.28-.04.08-.03.13-.08.13-.17,0-.08-.04-.13-.11-.17-.07-.04-.17-.07-.28-.1-.11-.03-.24-.05-.36-.08-.13-.03-.25-.07-.37-.13-.11-.06-.21-.14-.28-.25-.07-.11-.11-.26-.11-.44,0-.17.04-.32.1-.44.07-.12.16-.23.28-.3.11-.08.24-.14.39-.18s.3-.06.45-.06c.19,0,.38.03.58.08s.36.16.5.3l-.55.54Z"/>
      <path class="cls-1" d="M18.78,43.17h-1.21v-.82h3.35v.82h-1.21v3.41h-.93v-3.41Z"/>
      <path class="cls-1" d="M20.74,43.67h.9v.47h.01c.1-.18.21-.31.34-.4.13-.09.3-.13.5-.13.05,0,.1,0,.16,0s.1.01.14.02v.82c-.06-.02-.13-.04-.19-.04s-.13-.01-.19-.01c-.17,0-.31.02-.41.07s-.18.12-.23.2c-.05.09-.09.19-.1.31-.02.12-.02.25-.02.39v1.21h-.9v-2.91Z"/>
      <path class="cls-1" d="M24.99,46.22h-.01c-.1.16-.23.27-.4.33-.17.07-.34.1-.52.1-.13,0-.27-.02-.39-.06-.12-.04-.24-.09-.33-.17-.1-.08-.17-.17-.23-.28s-.08-.24-.08-.39c0-.17.03-.31.09-.42.06-.12.15-.21.25-.29.11-.08.23-.13.36-.18.13-.04.28-.07.42-.09.15-.02.29-.03.44-.04s.28,0,.4,0c0-.16-.06-.29-.17-.38-.11-.09-.25-.14-.4-.14s-.28.03-.4.09c-.12.06-.23.15-.33.25l-.48-.49c.17-.16.36-.27.59-.35.22-.08.45-.12.69-.12.26,0,.48.03.65.1.17.07.3.16.41.29.1.13.17.28.21.47.04.19.06.4.06.64v1.48h-.83v-.36ZM24.77,45.31c-.07,0-.15,0-.25,0-.1,0-.2.02-.29.05-.09.03-.17.07-.24.12s-.1.13-.1.23c0,.11.05.19.14.24.09.05.19.08.29.08.09,0,.17-.01.25-.04.08-.02.15-.06.22-.1.06-.04.11-.1.15-.17s.06-.15.06-.24v-.19h-.22Z"/>
      <path class="cls-1" d="M26.38,43.67h.86v.39h.01c.03-.06.07-.11.12-.17s.11-.11.19-.15c.07-.04.15-.08.25-.11.09-.03.19-.04.3-.04.23,0,.41.04.55.1s.25.17.33.29c.08.12.13.27.16.44.03.17.04.35.04.54v1.6h-.9v-1.42c0-.08,0-.17,0-.26,0-.09-.02-.17-.05-.25-.03-.08-.08-.14-.14-.19-.06-.05-.15-.07-.27-.07s-.21.02-.28.06c-.07.04-.13.1-.17.17-.04.07-.06.15-.07.24-.01.09-.02.18-.02.28v1.45h-.9v-2.91Z"/>
      <path class="cls-1" d="M31.45,44.53c-.13-.16-.31-.25-.52-.25-.08,0-.15.02-.22.05-.07.04-.11.1-.11.18,0,.07.04.12.11.16.07.03.17.06.28.09.11.03.24.05.37.08.13.03.25.08.36.14s.21.15.28.26c.07.11.11.26.11.44s-.04.34-.12.46c-.08.12-.19.22-.31.29-.13.07-.27.13-.43.16-.16.03-.32.04-.47.04-.2,0-.41-.03-.62-.09-.21-.06-.38-.16-.53-.31l.54-.6c.08.1.18.18.28.24.1.05.22.08.36.08.1,0,.2-.02.28-.04.08-.03.13-.08.13-.17,0-.08-.04-.13-.11-.17-.07-.04-.17-.07-.28-.1-.11-.03-.24-.05-.36-.08-.13-.03-.25-.07-.37-.13-.11-.06-.21-.14-.28-.25-.07-.11-.11-.26-.11-.44,0-.17.04-.32.1-.44.07-.12.16-.23.28-.3.11-.08.24-.14.39-.18s.3-.06.45-.06c.19,0,.38.03.58.08s.36.16.5.3l-.55.54Z"/>
      <path class="cls-1" d="M34.4,46.22h-.01c-.1.16-.23.27-.4.33-.17.07-.34.1-.52.1-.13,0-.27-.02-.39-.06-.12-.04-.24-.09-.33-.17-.1-.08-.17-.17-.23-.28s-.08-.24-.08-.39c0-.17.03-.31.09-.42.06-.12.15-.21.25-.29.11-.08.23-.13.36-.18.13-.04.28-.07.42-.09.15-.02.29-.03.44-.04s.28,0,.4,0c0-.16-.06-.29-.17-.38-.11-.09-.25-.14-.4-.14s-.28.03-.4.09c-.12.06-.23.15-.33.25l-.48-.49c.17-.16.36-.27.59-.35.22-.08.45-.12.69-.12.26,0,.48.03.65.1.17.07.3.16.41.29.1.13.17.28.21.47.04.19.06.4.06.64v1.48h-.83v-.36ZM34.18,45.31c-.07,0-.15,0-.25,0-.1,0-.2.02-.29.05-.09.03-.17.07-.24.12s-.1.13-.1.23c0,.11.05.19.14.24.09.05.19.08.29.08.09,0,.17-.01.25-.04.08-.02.15-.06.22-.1.06-.04.11-.1.15-.17s.06-.15.06-.24v-.19h-.22Z"/>
      <path class="cls-1" d="M37.75,44.61c-.04-.06-.11-.12-.19-.16-.08-.04-.17-.06-.26-.06-.23,0-.4.07-.53.2-.12.14-.19.31-.19.53s.06.4.19.53c.13.14.3.2.53.2.1,0,.19-.02.26-.07.07-.04.13-.1.19-.16l.59.62c-.14.14-.3.24-.49.3s-.37.09-.54.09c-.22,0-.43-.04-.63-.11-.2-.07-.37-.17-.51-.31s-.26-.29-.34-.48c-.08-.19-.12-.4-.12-.63s.04-.44.12-.63.2-.35.34-.48c.15-.13.32-.24.51-.31.2-.07.41-.11.63-.11.17,0,.35.03.54.09s.35.16.49.3l-.59.62Z"/>
      <path class="cls-1" d="M40.65,44.39h-.79v.97c0,.08,0,.15.01.22,0,.07.03.12.05.17.03.05.07.08.13.11.06.03.13.04.23.04.05,0,.11,0,.19-.01.08,0,.14-.03.18-.07v.75c-.1.04-.2.06-.31.07s-.21.02-.32.02c-.15,0-.29-.02-.42-.05-.13-.03-.24-.08-.33-.15-.09-.07-.17-.16-.22-.27s-.08-.25-.08-.41v-1.38h-.57v-.72h.57v-.86h.9v.86h.79v.72Z"/>
      <path class="cls-1" d="M41.04,42.76c0-.14.05-.27.15-.37.1-.1.22-.15.37-.15s.27.05.37.15c.1.1.15.22.15.37s-.05.27-.15.37-.22.15-.37.15-.27-.05-.37-.15-.15-.22-.15-.37ZM41.11,43.67h.9v2.91h-.9v-2.91Z"/>
      <path class="cls-1" d="M42.55,45.13c0-.23.04-.44.13-.63.08-.19.2-.35.34-.48.15-.13.32-.24.51-.31.2-.07.41-.11.63-.11s.43.04.63.11c.2.07.37.17.51.31.15.13.26.29.34.48s.12.4.12.63-.04.44-.12.63c-.08.19-.2.35-.34.48s-.32.24-.51.31c-.2.07-.41.11-.63.11s-.43-.04-.63-.11c-.2-.07-.37-.17-.51-.31s-.26-.29-.34-.48c-.08-.19-.13-.4-.13-.63ZM43.44,45.13c0,.22.06.4.19.53.13.14.3.2.53.2s.4-.07.53-.2c.13-.13.19-.31.19-.53s-.06-.4-.19-.53c-.12-.14-.3-.2-.53-.2s-.4.07-.53.2c-.12.14-.19.31-.19.53Z"/>
      <path class="cls-1" d="M46.3,43.67h.86v.39h.01c.03-.06.07-.11.12-.17s.11-.11.19-.15c.07-.04.15-.08.25-.11.09-.03.19-.04.3-.04.23,0,.41.04.55.1s.25.17.33.29c.08.12.13.27.16.44.03.17.04.35.04.54v1.6h-.9v-1.42c0-.08,0-.17,0-.26,0-.09-.02-.17-.05-.25-.03-.08-.08-.14-.14-.19-.06-.05-.15-.07-.27-.07s-.21.02-.28.06c-.07.04-.13.1-.17.17-.04.07-.06.15-.07.24-.01.09-.02.18-.02.28v1.45h-.9v-2.91Z"/>
      <path class="cls-1" d="M51.38,44.53c-.13-.16-.31-.25-.52-.25-.08,0-.15.02-.22.05-.07.04-.11.1-.11.18,0,.07.04.12.11.16.07.03.17.06.28.09.11.03.24.05.37.08.13.03.25.08.36.14s.21.15.28.26c.07.11.11.26.11.44s-.04.34-.12.46c-.08.12-.19.22-.31.29-.13.07-.27.13-.43.16-.16.03-.32.04-.47.04-.2,0-.41-.03-.62-.09-.21-.06-.38-.16-.53-.31l.54-.6c.08.1.18.18.28.24.1.05.22.08.36.08.1,0,.2-.02.28-.04.08-.03.13-.08.13-.17,0-.08-.04-.13-.11-.17-.07-.04-.17-.07-.28-.1-.11-.03-.24-.05-.36-.08-.13-.03-.25-.07-.37-.13-.11-.06-.21-.14-.28-.25-.07-.11-.11-.26-.11-.44,0-.17.04-.32.1-.44.07-.12.16-.23.28-.3.11-.08.24-.14.39-.18s.3-.06.45-.06c.19,0,.38.03.58.08s.36.16.5.3l-.55.54Z"/>
      <path class="cls-1" d="M54.99,42.1v5.98h-.75v-5.98h.75Z"/>
      <path class="cls-1" d="M57.06,42.35h1.06l1.05,2.77h.01l1.06-2.77h1l-1.75,4.23h-.75l-1.69-4.23Z"/>
      <path class="cls-1" d="M63.07,46.22h-.01c-.1.16-.23.27-.4.33-.17.07-.34.1-.52.1-.13,0-.27-.02-.39-.06-.12-.04-.24-.09-.33-.17-.1-.08-.17-.17-.23-.28s-.08-.24-.08-.39c0-.17.03-.31.09-.42.06-.12.15-.21.25-.29.11-.08.23-.13.36-.18.13-.04.28-.07.42-.09.15-.02.29-.03.44-.04s.28,0,.4,0c0-.16-.06-.29-.17-.38-.11-.09-.25-.14-.4-.14s-.28.03-.4.09c-.12.06-.23.15-.33.25l-.48-.49c.17-.16.36-.27.59-.35.22-.08.45-.12.69-.12.26,0,.48.03.65.1.17.07.3.16.41.29.1.13.17.28.21.47.04.19.06.4.06.64v1.48h-.83v-.36ZM62.85,45.31c-.07,0-.15,0-.25,0-.1,0-.2.02-.29.05-.09.03-.17.07-.24.12s-.1.13-.1.23c0,.11.05.19.14.24.09.05.19.08.29.08.09,0,.17-.01.25-.04.08-.02.15-.06.22-.1.06-.04.11-.1.15-.17s.06-.15.06-.24v-.19h-.22Z"/>
      <path class="cls-1" d="M64.47,42.06h.9v4.52h-.9v-4.52Z"/>
      <path class="cls-1" d="M68.81,46.58h-.86v-.39h-.01c-.03.06-.07.11-.12.17-.05.06-.11.11-.18.15-.07.04-.15.08-.25.11-.09.03-.19.04-.3.04-.23,0-.41-.03-.55-.1-.14-.07-.25-.17-.33-.29-.08-.12-.13-.27-.16-.44-.03-.17-.04-.35-.04-.54v-1.6h.9v1.42c0,.08,0,.17,0,.26,0,.09.02.17.05.25.03.08.08.14.14.19.06.05.15.07.27.07s.21-.02.28-.06c.07-.04.13-.1.16-.17s.06-.15.07-.24c.01-.09.02-.18.02-.27v-1.45h.9v2.91Z"/>
      <path class="cls-1" d="M71.27,46.22h-.01c-.1.16-.23.27-.4.33-.17.07-.34.1-.52.1-.13,0-.27-.02-.39-.06-.12-.04-.24-.09-.33-.17-.1-.08-.17-.17-.23-.28s-.08-.24-.08-.39c0-.17.03-.31.09-.42.06-.12.15-.21.25-.29.11-.08.23-.13.36-.18.13-.04.28-.07.42-.09.15-.02.29-.03.44-.04s.28,0,.4,0c0-.16-.06-.29-.17-.38-.11-.09-.25-.14-.4-.14s-.28.03-.4.09c-.12.06-.23.15-.33.25l-.48-.49c.17-.16.36-.27.59-.35.22-.08.45-.12.69-.12.26,0,.48.03.65.1.17.07.3.16.41.29.1.13.17.28.21.47.04.19.06.4.06.64v1.48h-.83v-.36ZM71.05,45.31c-.07,0-.15,0-.25,0-.1,0-.2.02-.29.05-.09.03-.17.07-.24.12s-.1.13-.1.23c0,.11.05.19.14.24.09.05.19.08.29.08.09,0,.17-.01.25-.04.08-.02.15-.06.22-.1.06-.04.11-.1.15-.17s.06-.15.06-.24v-.19h-.22Z"/>
      <path class="cls-1" d="M74.63,44.39h-.79v.97c0,.08,0,.15.01.22,0,.07.03.12.05.17.03.05.07.08.13.11.06.03.13.04.23.04.05,0,.11,0,.19-.01.08,0,.14-.03.18-.07v.75c-.1.04-.2.06-.31.07s-.21.02-.32.02c-.15,0-.29-.02-.42-.05-.13-.03-.24-.08-.33-.15-.09-.07-.17-.16-.22-.27s-.08-.25-.08-.41v-1.38h-.57v-.72h.57v-.86h.9v.86h.79v.72Z"/>
      <path class="cls-1" d="M75.03,42.76c0-.14.05-.27.15-.37.1-.1.22-.15.37-.15s.27.05.37.15c.1.1.15.22.15.37s-.05.27-.15.37-.22.15-.37.15-.27-.05-.37-.15-.15-.22-.15-.37ZM75.1,43.67h.9v2.91h-.9v-2.91Z"/>
      <path class="cls-1" d="M76.53,45.13c0-.23.04-.44.13-.63.08-.19.2-.35.34-.48.15-.13.32-.24.51-.31.2-.07.41-.11.63-.11s.43.04.63.11c.2.07.37.17.51.31.15.13.26.29.34.48s.12.4.12.63-.04.44-.12.63c-.08.19-.2.35-.34.48s-.32.24-.51.31c-.2.07-.41.11-.63.11s-.43-.04-.63-.11c-.2-.07-.37-.17-.51-.31s-.26-.29-.34-.48c-.08-.19-.13-.4-.13-.63ZM77.43,45.13c0,.22.06.4.19.53.13.14.3.2.53.2s.4-.07.53-.2c.13-.13.19-.31.19-.53s-.06-.4-.19-.53c-.12-.14-.3-.2-.53-.2s-.4.07-.53.2c-.12.14-.19.31-.19.53Z"/>
      <path class="cls-1" d="M80.29,43.67h.86v.39h.01c.03-.06.07-.11.12-.17s.11-.11.19-.15c.07-.04.15-.08.25-.11.09-.03.19-.04.3-.04.23,0,.41.04.55.1s.25.17.33.29c.08.12.13.27.16.44.03.17.04.35.04.54v1.6h-.9v-1.42c0-.08,0-.17,0-.26,0-.09-.02-.17-.05-.25-.03-.08-.08-.14-.14-.19-.06-.05-.15-.07-.27-.07s-.21.02-.28.06c-.07.04-.13.1-.17.17-.04.07-.06.15-.07.24-.01.09-.02.18-.02.28v1.45h-.9v-2.91Z"/>
      <path class="cls-1" d="M86.99,42.35h.77l1.84,4.23h-1.05l-.36-.9h-1.64l-.35.9h-1.03l1.83-4.23ZM87.35,43.58l-.51,1.32h1.03l-.52-1.32Z"/>
      <path class="cls-1" d="M92.96,46.58h-.83v-.38h-.01c-.04.05-.08.1-.14.16-.06.05-.12.1-.2.15-.08.04-.16.08-.26.11-.09.03-.19.04-.29.04-.21,0-.41-.04-.59-.11-.17-.07-.33-.18-.45-.31-.12-.13-.22-.29-.29-.48-.07-.18-.1-.38-.1-.6,0-.2.03-.4.09-.58.06-.18.15-.35.26-.49.11-.14.25-.26.42-.34.16-.09.35-.13.56-.13.19,0,.36.03.52.09.16.06.29.16.4.3h.01v-1.92h.9v4.52ZM92.14,45.13c0-.22-.06-.4-.19-.53-.12-.14-.3-.2-.53-.2s-.4.07-.53.2c-.12.14-.19.31-.19.53s.06.4.19.53c.13.14.3.2.53.2s.4-.07.53-.2c.13-.13.19-.31.19-.53Z"/>
      <path class="cls-1" d="M93.38,43.67h.97l.74,1.97h.01l.68-1.97h.9l-1.15,2.91h-.95l-1.2-2.91Z"/>
      <path class="cls-1" d="M96.94,42.76c0-.14.05-.27.15-.37.1-.1.22-.15.37-.15s.27.05.37.15c.1.1.15.22.15.37s-.05.27-.15.37-.22.15-.37.15-.27-.05-.37-.15-.15-.22-.15-.37ZM97.02,43.67h.9v2.91h-.9v-2.91Z"/>
      <path class="cls-1" d="M100.2,44.53c-.13-.16-.31-.25-.52-.25-.08,0-.15.02-.22.05-.07.04-.11.1-.11.18,0,.07.04.12.11.16.07.03.17.06.28.09.11.03.24.05.37.08.13.03.25.08.36.14s.21.15.28.26c.07.11.11.26.11.44s-.04.34-.12.46c-.08.12-.19.22-.31.29-.13.07-.27.13-.43.16-.16.03-.32.04-.47.04-.2,0-.41-.03-.62-.09-.21-.06-.38-.16-.53-.31l.54-.6c.08.1.18.18.28.24.1.05.22.08.36.08.1,0,.2-.02.28-.04.08-.03.13-.08.13-.17,0-.08-.04-.13-.11-.17-.07-.04-.17-.07-.28-.1-.11-.03-.24-.05-.36-.08-.13-.03-.25-.07-.37-.13-.11-.06-.21-.14-.28-.25-.07-.11-.11-.26-.11-.44,0-.17.04-.32.1-.44.07-.12.16-.23.28-.3.11-.08.24-.14.39-.18s.3-.06.45-.06c.19,0,.38.03.58.08s.36.16.5.3l-.55.54Z"/>
      <path class="cls-1" d="M101.22,45.13c0-.23.04-.44.13-.63.08-.19.2-.35.34-.48.15-.13.32-.24.51-.31.2-.07.41-.11.63-.11s.43.04.63.11c.2.07.37.17.51.31.15.13.26.29.34.48s.12.4.12.63-.04.44-.12.63c-.08.19-.2.35-.34.48s-.32.24-.51.31c-.2.07-.41.11-.63.11s-.43-.04-.63-.11c-.2-.07-.37-.17-.51-.31s-.26-.29-.34-.48c-.08-.19-.13-.4-.13-.63ZM102.11,45.13c0,.22.06.4.19.53.13.14.3.2.53.2s.4-.07.53-.2c.13-.13.19-.31.19-.53s-.06-.4-.19-.53c-.12-.14-.3-.2-.53-.2s-.4.07-.53.2c-.12.14-.19.31-.19.53Z"/>
      <path class="cls-1" d="M104.97,43.67h.9v.47h.01c.1-.18.21-.31.34-.4.13-.09.3-.13.5-.13.05,0,.1,0,.16,0s.1.01.14.02v.82c-.06-.02-.13-.04-.19-.04s-.13-.01-.19-.01c-.17,0-.31.02-.41.07s-.18.12-.23.2c-.05.09-.09.19-.1.31-.02.12-.02.25-.02.39v1.21h-.9v-2.91Z"/>
      <path class="cls-1" d="M109.08,47.05c-.06.16-.12.29-.17.41-.06.12-.13.22-.21.3-.08.08-.19.14-.33.19-.13.04-.3.06-.52.06-.23,0-.45-.04-.67-.11l.12-.74c.14.06.28.09.42.09.1,0,.18-.01.25-.03.06-.02.12-.05.16-.1s.08-.09.1-.15c.03-.06.06-.13.09-.21l.07-.17-1.27-2.93h.97l.75,1.92h.01l.64-1.92h.92l-1.32,3.38Z"/>
      <path class="cls-1" d="M113.22,42.1v5.98h-.75v-5.98h.75Z"/>
    </g>
    <path class="cls-1" d="M43.11,4.75c-.21-.27-.5-.46-.86-.59-.36-.13-.7-.19-1.03-.19-.19,0-.38.02-.58.07-.2.04-.39.11-.57.21-.18.1-.32.22-.43.38-.11.15-.17.34-.17.57,0,.36.13.63.4.82.27.19.6.35,1.01.48.41.13.84.27,1.31.4.47.13.9.32,1.31.57.41.24.74.57,1.01.99.27.41.4.96.4,1.65,0,.66-.12,1.23-.37,1.72-.25.49-.58.9-.99,1.22-.42.32-.9.56-1.45.72-.55.16-1.13.23-1.74.23-.77,0-1.48-.12-2.14-.35-.66-.23-1.27-.61-1.83-1.14l1.85-2.03c.27.36.6.63,1.01.83.41.19.83.29,1.26.29.21,0,.42-.03.64-.08.22-.05.41-.12.59-.22.17-.1.31-.23.42-.38.11-.16.16-.34.16-.55,0-.35-.14-.63-.41-.84-.27-.21-.61-.38-1.02-.53-.41-.15-.86-.29-1.34-.44-.48-.14-.92-.34-1.33-.58-.41-.24-.75-.57-1.03-.97-.27-.4-.41-.93-.41-1.59,0-.63.13-1.19.38-1.67.25-.48.58-.88,1-1.2.42-.32.9-.56,1.45-.72.54-.16,1.11-.24,1.68-.24.67,0,1.31.1,1.94.28.62.19,1.18.51,1.68.95l-1.79,1.95Z"/>
    <path class="cls-1" d="M45.9,5.57h2.5s0,8.11,0,8.11h-2.5s0-8.11,0-8.11ZM45.7,3.02c0-.4.14-.74.42-1.03.28-.28.63-.42,1.03-.42s.74.14,1.03.43c.28.28.42.63.42,1.03,0,.4-.14.74-.43,1.03-.28.28-.62.42-1.03.42-.4,0-.74-.14-1.03-.43-.28-.28-.42-.63-.42-1.03"/>
    <path class="cls-1" d="M49.54,5.57h2.4s0,1.1,0,1.1h.03c.08-.16.19-.31.34-.47.14-.16.32-.29.52-.42.2-.12.43-.22.68-.3.26-.08.53-.12.84-.12.57,0,1.07.12,1.51.35.44.23.77.6.99,1.1.29-.52.64-.9,1.05-1.12.41-.22.92-.33,1.52-.33.54,0,1,.09,1.38.28.37.18.67.43.88.75.22.32.37.69.47,1.12.09.43.14.89.14,1.38v4.79s-2.51,0-2.51,0v-4.72c0-.38-.08-.7-.24-.98-.16-.27-.45-.41-.86-.41-.29,0-.53.05-.73.14-.2.09-.35.23-.47.39-.12.17-.2.36-.25.58-.05.22-.08.45-.08.7v4.29s-2.51,0-2.51,0v-4.29c0-.14,0-.32-.01-.53-.01-.21-.05-.41-.12-.6-.07-.19-.18-.35-.33-.48-.15-.13-.37-.2-.66-.2-.32,0-.58.06-.78.17-.2.12-.35.27-.46.47s-.18.41-.21.66c-.03.24-.05.5-.05.77v4.04s-2.51,0-2.51,0V5.57Z"/>
    <path class="cls-1" d="M65.58,9.64c0,.61.18,1.11.52,1.49.35.38.84.57,1.48.57.63,0,1.13-.19,1.48-.56.35-.38.53-.87.53-1.49,0-.61-.17-1.11-.52-1.49-.35-.38-.84-.57-1.48-.57-.64,0-1.13.19-1.48.57-.35.38-.53.87-.53,1.49M63.28,5.59h2.3v1.07h.03c.1-.14.23-.29.39-.44.16-.15.35-.29.57-.41.22-.12.45-.22.71-.3.26-.08.53-.12.82-.12.6,0,1.15.1,1.64.31.49.21.91.5,1.26.87.35.37.62.81.81,1.33.19.51.28,1.07.28,1.69,0,.57-.09,1.11-.26,1.63-.17.52-.42.98-.74,1.38-.32.4-.7.72-1.16.96-.46.24-.97.36-1.55.36-.52,0-1.01-.08-1.46-.24-.45-.16-.82-.44-1.11-.83h-.03v4.67s-2.51,0-2.51,0V5.59Z"/>
  </g>
  <rect class="cls-1" x="67.87" y="6.15" width="12.61" height="2.5" transform="translate(66.69 81.57) rotate(-89.93)"/>
  <path class="cls-1" d="M82.12,8.74c.01-.42-.13-.78-.41-1.08-.29-.3-.66-.45-1.12-.45-.28,0-.52.04-.73.13-.21.09-.39.2-.54.34-.15.14-.27.3-.35.48-.08.18-.13.38-.14.58h3.3ZM84.24,12.31c-.4.51-.91.91-1.52,1.18-.61.28-1.25.42-1.9.41-.62,0-1.21-.1-1.76-.3-.55-.2-1.03-.49-1.43-.86-.41-.37-.72-.82-.96-1.34-.23-.52-.35-1.11-.35-1.75,0-.64.12-1.23.35-1.75s.55-.97.96-1.34c.41-.37.89-.66,1.44-.86.55-.2,1.14-.3,1.76-.3.58,0,1.1.1,1.58.3.47.2.87.49,1.2.86.33.37.58.82.76,1.34s.27,1.11.27,1.75v.78s-5.81,0-5.81,0c.1.48.32.86.65,1.14.33.28.75.43,1.23.43.41,0,.76-.09,1.04-.28.28-.18.53-.42.74-.71l1.75,1.29Z"/>
  <polygon class="cls-1" points="84.65 1.51 85.26 1.51 85.26 3.12 85.76 3.12 85.76 1.51 86.38 1.51 86.38 1.07 84.65 1.06 84.65 1.51"/>
  <path class="cls-1" d="M86.73,3.12V1.07h.45l.75,1.22h-.32s.76-1.22.76-1.22h.43s0,2.06,0,2.06h-.48s0-.64,0-.64c0-.17,0-.33.01-.47,0-.14.02-.28.04-.42l.06.15-.57.88h-.19l-.56-.88.06-.16c.02.13.04.27.05.4.01.14.01.3.01.49v.64h-.48Z"/>
  <path class="cls-2" d="M11.75,11.16h9.9v9.9h-9.9v-9.9ZM1.85,30.97h29.71V1.26H1.85v29.7Z"/>
  <g>
    <path class="cls-1" d="M36.69,19.3h4.33c.5,0,1.01.04,1.52.11s.97.21,1.37.43c.41.21.73.51.99.9.25.38.38.89.38,1.53s-.18,1.2-.55,1.63c-.37.43-.85.74-1.45.93v.03c.38.05.73.16,1.04.32.31.16.58.36.8.61s.4.53.52.86c.12.33.18.68.18,1.05,0,.61-.13,1.12-.39,1.54-.26.41-.6.74-1.02.99-.42.25-.88.43-1.4.54-.52.11-1.04.16-1.55.16h-4.76v-11.63ZM39.25,23.94h1.86c.2,0,.39-.02.58-.07.19-.04.36-.12.52-.21s.28-.23.37-.39c.09-.16.14-.36.14-.59s-.05-.44-.16-.6c-.1-.16-.24-.28-.4-.37s-.35-.15-.56-.19c-.21-.04-.41-.06-.61-.06h-1.74v2.48ZM39.25,28.75h2.3c.2,0,.4-.02.6-.07.2-.04.39-.12.55-.23.16-.11.3-.25.4-.43.1-.17.16-.39.16-.64,0-.27-.07-.5-.21-.67-.14-.17-.31-.3-.52-.39-.21-.09-.43-.15-.67-.18-.24-.03-.47-.05-.67-.05h-1.94v2.64Z"/>
    <path class="cls-1" d="M47.33,19.3h4.5c.59,0,1.15.06,1.68.17.53.12,1,.31,1.4.58.4.27.72.63.95,1.08s.35,1.02.35,1.7c0,.82-.21,1.52-.64,2.09-.43.58-1.05.94-1.87,1.09l2.96,4.91h-3.07l-2.43-4.65h-1.26v4.65h-2.56v-11.63ZM49.89,24.11h1.51c.23,0,.47,0,.73-.02.26-.02.49-.07.7-.15.21-.08.38-.21.52-.39.14-.17.21-.42.21-.74,0-.3-.06-.53-.18-.71-.12-.17-.27-.31-.46-.4-.19-.09-.4-.16-.64-.19-.24-.03-.48-.05-.71-.05h-1.68v2.64Z"/>
    <path class="cls-1" d="M57.33,25.11c0-.93.16-1.77.47-2.53.31-.75.75-1.4,1.31-1.93s1.22-.94,1.99-1.22c.77-.28,1.6-.43,2.51-.43s1.75.14,2.51.43c.77.29,1.43.69,1.99,1.22.56.53.99,1.17,1.3,1.93.31.76.47,1.6.47,2.53s-.16,1.77-.47,2.53c-.31.75-.75,1.4-1.3,1.93-.56.53-1.22.94-1.99,1.22-.77.29-1.6.43-2.51.43s-1.75-.14-2.51-.43c-.77-.28-1.43-.69-1.99-1.22s-.99-1.17-1.31-1.93c-.31-.76-.47-1.6-.47-2.53ZM59.99,25.11c0,.55.08,1.05.25,1.5.17.45.41.85.73,1.18.32.33.7.59,1.14.78.44.19.94.28,1.49.28s1.04-.09,1.49-.28c.44-.19.82-.45,1.14-.78.32-.33.56-.73.73-1.18.17-.45.25-.96.25-1.5s-.08-1.04-.25-1.49c-.17-.46-.41-.86-.73-1.19s-.7-.59-1.14-.78c-.44-.19-.94-.28-1.49-.28s-1.04.09-1.49.28c-.44.19-.82.45-1.14.78s-.56.73-.73,1.19c-.17.46-.25.96-.25,1.49Z"/>
    <path class="cls-1" d="M71.72,19.3h2.56v4.83l4.52-4.83h3.35l-5.17,5.4,5.62,6.22h-3.58l-4.73-5.52v5.52h-2.56v-11.63Z"/>
    <path class="cls-1" d="M83.58,19.3h7.9v2.36h-5.34v2.17h5.04v2.37h-5.04v2.36h5.63v2.37h-8.19v-11.63Z"/>
    <path class="cls-1" d="M93.82,19.3h4.5c.59,0,1.15.06,1.68.17.53.12,1,.31,1.4.58.4.27.72.63.95,1.08s.35,1.02.35,1.7c0,.82-.21,1.52-.64,2.09-.43.58-1.05.94-1.87,1.09l2.96,4.91h-3.07l-2.43-4.65h-1.26v4.65h-2.56v-11.63ZM96.39,24.11h1.51c.23,0,.47,0,.73-.02.26-.02.49-.07.7-.15.21-.08.38-.21.52-.39.14-.17.21-.42.21-.74,0-.3-.06-.53-.18-.71-.12-.17-.27-.31-.46-.4-.19-.09-.4-.16-.64-.19-.24-.03-.48-.05-.71-.05h-1.68v2.64Z"/>
  </g>
</svg>