<?xml version="1.0" encoding="UTF-8"?>
<svg id="Layer_1" data-name="Layer 1" xmlns="http://www.w3.org/2000/svg" viewBox="0 0 94.32 49.14">
  <defs>
    <style>
      .cls-1 {
        fill: #232156;
      }

      .cls-1, .cls-2, .cls-3 {
        stroke-width: 0px;
      }

      .cls-2 {
        fill: #e34027;
      }

      .cls-3 {
        fill: #232256;
      }
    </style>
  </defs>
  <polygon class="cls-2" points="1.16 6.18 1.16 9.19 7.52 8.17 7.52 4.1 1.16 6.18"/>
  <polygon class="cls-2" points="1.15 16.55 7.51 17.62 7.51 13.55 1.16 13.54 1.15 16.55"/>
  <polygon class="cls-2" points="1.15 23.97 7.5 27.1 7.5 22.92 1.15 20.77 1.15 23.97"/>
  <g>
    <g>
      <path class="cls-3" d="M42.89,4.62c-.21-.27-.49-.46-.85-.59-.36-.13-.7-.19-1.02-.19-.19,0-.38.02-.58.07-.2.04-.39.11-.56.2-.18.09-.32.22-.43.37-.11.15-.17.34-.17.56,0,.35.13.62.4.81.27.19.6.35,1,.48.4.13.84.26,1.3.4.46.13.9.32,1.3.57.4.24.74.57,1,.98.27.41.4.95.4,1.64,0,.65-.12,1.22-.36,1.71-.24.49-.57.89-.99,1.21-.41.32-.9.56-1.44.71-.55.16-1.13.23-1.73.23-.76,0-1.47-.12-2.12-.35-.65-.23-1.26-.61-1.82-1.13l1.84-2.02c.27.35.6.63,1,.82.4.19.82.29,1.25.29.21,0,.42-.02.64-.07.22-.05.41-.12.58-.22.17-.1.31-.23.42-.38.1-.16.16-.34.16-.55,0-.35-.13-.63-.41-.84-.27-.2-.61-.38-1.02-.52-.41-.14-.85-.29-1.32-.43-.48-.14-.92-.34-1.33-.58-.41-.24-.75-.56-1.02-.96-.27-.4-.4-.92-.4-1.57,0-.63.13-1.18.37-1.66.25-.47.58-.87.99-1.19.42-.32.89-.56,1.43-.72.54-.16,1.1-.24,1.67-.24.66,0,1.3.1,1.92.28.62.19,1.17.5,1.67.95l-1.77,1.94Z"/>
      <path class="cls-3" d="M45.66,5.44h2.48s0,8.05,0,8.05h-2.48s0-8.05,0-8.05ZM45.46,2.9c0-.4.14-.74.42-1.02.28-.28.62-.42,1.02-.42.4,0,.74.14,1.02.42.28.28.42.62.42,1.02,0,.4-.14.74-.42,1.02-.28.28-.62.42-1.02.42-.4,0-.74-.14-1.02-.42-.28-.28-.42-.62-.42-1.02"/>
      <path class="cls-3" d="M49.27,5.44h2.38s0,1.1,0,1.1h.03c.08-.16.19-.31.33-.46.14-.15.32-.29.51-.41.2-.12.43-.22.68-.3.25-.08.53-.12.83-.12.56,0,1.06.12,1.5.35.44.23.76.6.98,1.09.29-.52.64-.89,1.04-1.11.41-.22.91-.33,1.51-.33.54,0,1,.09,1.37.27.37.18.66.43.88.75.21.32.37.69.46,1.11.09.43.14.88.14,1.37v4.75s-2.49,0-2.49,0v-4.69c0-.37-.08-.7-.24-.97-.16-.27-.44-.41-.85-.41-.29,0-.53.05-.72.14-.19.09-.35.22-.46.39-.12.17-.2.36-.25.58-.05.22-.08.45-.08.7v4.26s-2.49,0-2.49,0v-4.26c0-.14,0-.32-.01-.53-.01-.21-.05-.41-.12-.6-.07-.19-.17-.35-.32-.48-.15-.13-.37-.2-.65-.2-.32,0-.58.06-.78.17-.2.12-.35.27-.46.46-.11.19-.17.41-.21.65-.03.24-.05.5-.05.76v4.01s-2.49,0-2.49,0V5.44Z"/>
      <path class="cls-3" d="M65.2,9.48c0,.61.17,1.1.52,1.47.35.38.84.56,1.47.56.63,0,1.12-.19,1.47-.56.35-.38.52-.87.52-1.47,0-.61-.17-1.1-.52-1.48-.35-.37-.84-.56-1.47-.56-.63,0-1.12.19-1.47.56-.35.38-.52.87-.52,1.47M62.92,5.45h2.29s0,1.06,0,1.06h.03c.1-.14.23-.29.39-.44.16-.15.35-.28.56-.41.22-.12.45-.22.7-.3.25-.08.52-.12.81-.12.6,0,1.14.1,1.62.31.49.21.9.49,1.25.86.35.37.62.81.8,1.32.19.51.28,1.06.28,1.67,0,.56-.09,1.1-.26,1.61-.17.51-.41.97-.73,1.37-.32.4-.7.71-1.15.95-.45.24-.97.35-1.54.35-.52,0-1-.08-1.45-.24-.45-.16-.81-.43-1.1-.82h-.03v4.64s-2.49,0-2.49,0V5.45Z"/>
    </g>
    <rect class="cls-3" x="72.49" y=".99" width="2.48" height="12.52"/>
    <path class="cls-3" d="M81.62,8.58c.01-.42-.13-.78-.41-1.08-.29-.3-.66-.45-1.11-.45-.28,0-.52.04-.73.13-.21.09-.39.2-.54.34-.15.14-.26.3-.35.48-.08.18-.13.37-.14.57h3.28ZM83.72,12.13c-.4.51-.9.9-1.51,1.17-.61.28-1.24.41-1.89.41-.62,0-1.2-.1-1.75-.3-.54-.2-1.02-.48-1.42-.85-.4-.37-.72-.82-.95-1.33-.23-.52-.35-1.1-.35-1.74,0-.64.12-1.22.35-1.74.23-.52.55-.96.95-1.33.4-.37.88-.65,1.43-.85.55-.2,1.13-.3,1.75-.3.57,0,1.1.1,1.57.3.47.2.87.48,1.19.86.33.37.58.82.75,1.33.18.52.26,1.1.26,1.74v.78s-5.77,0-5.77,0c.1.47.31.85.65,1.13s.74.42,1.22.42c.41,0,.76-.09,1.04-.27.28-.18.53-.42.74-.7l1.74,1.28Z"/>
    <polygon class="cls-3" points="84.12 .99 84.12 1.43 84.73 1.43 84.73 3.03 85.22 3.03 85.22 1.43 85.84 1.43 85.84 .99 84.12 .99"/>
    <path class="cls-3" d="M86.19,3.03V.99s.44,0,.44,0l.74,1.21h-.32s.75-1.21.75-1.21h.43v2.04s-.48,0-.48,0v-.64c0-.17,0-.33.01-.47,0-.14.02-.28.05-.42l.06.15-.57.88h-.19l-.55-.87.06-.16c.02.13.04.26.04.4,0,.14.01.3.01.49v.63h-.48Z"/>
    <polygon class="cls-2" points="15.46 1.48 15.45 6.89 7.92 8.09 7.92 3.94 15.46 1.48"/>
    <polygon class="cls-2" points="1.07 9.82 1.06 12.92 15.45 12.93 15.45 7.52 1.07 9.82"/>
    <polygon class="cls-2" points="15.45 13.56 15.44 18.97 7.91 17.7 7.91 13.55 15.45 13.56"/>
    <polygon class="cls-2" points="1.06 20.19 15.44 25.01 15.44 19.6 1.06 17.18 1.06 20.19"/>
    <polygon class="cls-2" points="15.43 25.63 15.43 31.05 7.9 27.34 7.9 23.08 15.43 25.63"/>
    <path class="cls-2" d="M30.21,16.29c1.53,1.57,2.46,3.72,2.46,6.08,0,4.84-3.95,8.78-8.79,8.77h-7.96s0-5.39,0-5.39h7.96c1.87,0,3.39-1.51,3.4-3.38,0-1.86-1.52-3.39-3.39-3.39h-7.96s0-5.39,0-5.39h7.96c1.87,0,3.39-1.51,3.4-3.38,0-1.86-1.52-3.39-3.39-3.39h-7.96s0-5.39,0-5.39h7.96c4.84.01,8.78,3.96,8.77,8.79,0,2.36-.94,4.51-2.47,6.08"/>
    <rect class="cls-2" x="15.94" y="7.56" width="3.17" height="5.33"/>
    <rect class="cls-2" x="15.93" y="19.69" width="3.17" height="5.33"/>
    <g>
      <path class="cls-3" d="M93.54,20.18c-.5-.44-1.05-.75-1.66-.94-.61-.19-1.25-.28-1.91-.28-.57,0-1.13.08-1.66.24-.54.16-1.01.4-1.43.71-.41.32-.74.71-.99,1.19-.25.47-.37,1.02-.37,1.65,0,.65.13,1.17.4,1.57.27.4.61.71,1.01.96.41.24.85.43,1.32.58.47.14.91.29,1.32.43.41.14.74.32,1.01.52.27.2.4.48.4.83,0,.21-.05.39-.16.54-.1.15-.24.28-.41.38-.17.1-.36.17-.58.22-.21.05-.43.07-.63.07-.43,0-.84-.1-1.24-.29s-.73-.46-1-.82l-1.83,2.01c.56.52,1.16.89,1.81,1.12.65.23,1.35.35,2.11.35.61,0,1.3-.08,1.84-.23.54-.15.9-.39,1.31-.71.41-.32.74-.72.98-1.2.24-.48.36-1.05.36-1.7,0-.68-.13-1.23-.39-1.63-.26-.41-.6-.73-1-.97-.4-.24-.83-.43-1.29-.56-.46-.13-.89-.27-1.29-.4-.4-.13-.73-.29-1-.48-.26-.19-.4-.46-.4-.81,0-.22.06-.41.17-.56.11-.15.25-.28.43-.37.18-.09.36-.16.56-.21.2-.04.39-.06.58-.06.32,0,.66.06,1.01.19.36.13.64.32.85.59l1.76-1.93ZM74.21,30.9h2.57s0-5.53,0-5.53l4.74,5.54h3.59s-5.63-6.25-5.63-6.25l5.19-5.42h-3.36s-4.53,4.84-4.53,4.84v-4.84s-2.57,0-2.57,0v11.66ZM72.44,20.66c-.25-.32-.54-.59-.86-.81-.32-.22-.65-.39-1-.53-.35-.13-.7-.23-1.05-.29-.36-.06-.7-.09-1.03-.09-.91,0-1.75.14-2.52.43-.77.28-1.43.69-1.99,1.22-.56.53-1,1.18-1.31,1.94-.31.76-.47,1.6-.47,2.54,0,.93.15,1.78.47,2.54.31.76.75,1.4,1.31,1.94.56.53,1.22.94,1.99,1.23.77.29,1.61.43,2.52.43.8,0,1.58-.16,2.34-.49.76-.33,1.39-.84,1.88-1.53l-2.14-1.6c-.26.39-.6.7-1.01.92-.41.22-.87.33-1.4.33-.46,0-.89-.09-1.29-.28-.4-.19-.75-.45-1.04-.78-.3-.34-.53-.73-.7-1.19-.17-.46-.25-.96-.25-1.51s.09-1.04.26-1.5c.17-.46.41-.86.71-1.19.3-.33.66-.59,1.07-.78.41-.19.86-.28,1.34-.28.48,0,.91.08,1.28.25.37.17.68.4.93.71l1.98-1.61ZM57.91,30.89h2.57s.01-11.66.01-11.66h-2.57s-.01,11.66-.01,11.66ZM49.85,21.4h1.68c.23,0,.47.02.71.05.24.03.46.1.64.19.19.09.34.23.46.4.12.18.18.41.18.71,0,.32-.07.57-.21.74-.14.17-.31.3-.52.39-.21.08-.44.13-.7.15-.26.02-.5.03-.73.03h-1.52s0-2.65,0-2.65ZM47.27,30.88h2.57s0-4.66,0-4.66h1.27s2.43,4.67,2.43,4.67h3.08s-2.96-4.93-2.96-4.93c.83-.15,1.45-.52,1.88-1.09.43-.58.64-1.28.64-2.1,0-.68-.12-1.25-.35-1.7-.24-.46-.55-.82-.95-1.09-.4-.27-.87-.46-1.4-.58-.53-.11-1.09-.17-1.69-.17h-4.51s0,11.66,0,11.66ZM39.17,26.05h1.94c.21,0,.43.02.68.05.24.03.47.09.68.18.21.09.38.22.52.39.14.17.21.39.21.67,0,.25-.05.47-.16.64-.1.18-.24.32-.4.43s-.35.19-.55.23c-.2.04-.4.06-.6.06h-2.31s0-2.65,0-2.65ZM39.17,21.39h1.75c.2,0,.4.02.61.06.21.04.4.1.56.19.17.09.3.21.4.37.1.16.16.36.16.6,0,.23-.05.43-.14.59-.09.17-.22.3-.37.4-.15.1-.33.17-.52.21-.19.04-.39.07-.58.07h-1.86s0-2.49,0-2.49ZM36.6,30.87h4.78c.52,0,1.04-.05,1.56-.16.52-.11.99-.29,1.41-.54.42-.25.76-.58,1.02-.99.26-.41.4-.92.4-1.54,0-.37-.06-.72-.18-1.06-.12-.33-.29-.62-.52-.86-.23-.25-.5-.45-.81-.61-.31-.16-.66-.27-1.05-.32v-.03c.61-.19,1.09-.5,1.46-.93.37-.43.55-.98.55-1.64,0-.64-.13-1.15-.38-1.53-.25-.38-.58-.68-.99-.9-.41-.21-.86-.36-1.37-.43-.51-.07-1.02-.11-1.52-.11h-4.35s-.01,11.66-.01,11.66Z"/>
      <g>
        <path class="cls-1" d="M3.77,36.35c-.09-.11-.2-.2-.34-.26-.13-.06-.29-.09-.46-.09s-.34.03-.49.1c-.15.07-.28.16-.39.28-.11.12-.19.27-.26.43-.06.17-.09.35-.09.54s.03.38.09.55c.06.17.15.31.25.43.11.12.23.22.38.28.15.07.3.1.47.1.19,0,.36-.04.51-.12s.27-.19.36-.33l.78.58c-.18.25-.41.44-.68.56s-.56.18-.85.18c-.33,0-.64-.05-.91-.16-.28-.1-.52-.25-.72-.45-.2-.19-.36-.43-.48-.7-.11-.27-.17-.58-.17-.92s.06-.65.17-.92c.11-.27.27-.51.48-.7.2-.19.44-.34.72-.45.28-.1.58-.16.91-.16.12,0,.24.01.37.03.13.02.26.06.38.1s.25.11.36.19c.12.08.22.18.31.29l-.72.59Z"/>
        <path class="cls-1" d="M4.87,38.03c0-.23.04-.44.13-.63.08-.19.2-.35.34-.48.15-.13.32-.24.51-.31s.41-.11.63-.11.43.04.63.11.37.17.51.31c.15.13.26.29.34.48.08.19.13.4.13.63s-.04.44-.13.63c-.08.19-.2.35-.34.48-.15.13-.32.24-.51.31-.2.07-.41.11-.63.11s-.43-.04-.63-.11c-.2-.07-.37-.17-.51-.31-.15-.13-.26-.29-.34-.48-.08-.19-.13-.4-.13-.63ZM5.77,38.03c0,.22.06.4.19.53.13.14.3.2.53.2s.4-.07.53-.2c.13-.14.19-.31.19-.53s-.06-.4-.19-.53c-.13-.14-.3-.2-.53-.2s-.4.07-.53.2c-.13.14-.19.31-.19.53Z"/>
        <path class="cls-1" d="M8.63,36.58h.86v.39h.01c.03-.06.07-.11.12-.17s.11-.11.19-.15.15-.08.25-.11c.09-.03.19-.04.3-.04.23,0,.41.03.55.1.14.07.25.17.33.29s.13.27.16.44c.03.17.04.35.04.54v1.6h-.9v-1.42c0-.08,0-.17,0-.26s-.02-.17-.05-.25-.08-.14-.14-.19c-.06-.05-.15-.07-.27-.07s-.21.02-.28.06c-.07.04-.13.1-.16.17-.04.07-.06.15-.07.24-.01.09-.02.18-.02.28v1.45h-.9v-2.9Z"/>
        <path class="cls-1" d="M13.7,37.43c-.13-.16-.3-.25-.52-.25-.08,0-.15.02-.22.05-.07.04-.11.1-.11.19,0,.07.04.12.11.16.07.03.17.06.28.09.11.03.23.05.36.08.13.03.25.08.36.14.11.06.21.15.28.26.07.11.11.26.11.44s-.04.34-.12.46-.19.22-.31.29-.27.13-.43.16c-.16.03-.32.04-.47.04-.2,0-.41-.03-.62-.09-.21-.06-.38-.16-.53-.31l.54-.6c.08.1.18.18.28.24s.22.08.36.08c.1,0,.2-.01.28-.04.08-.03.13-.08.13-.16s-.04-.13-.11-.17c-.07-.04-.17-.07-.28-.1s-.24-.05-.36-.08-.25-.07-.36-.13c-.11-.06-.21-.14-.28-.25-.07-.11-.11-.26-.11-.44,0-.17.03-.32.1-.44.07-.12.16-.22.27-.3.11-.08.24-.14.39-.18.15-.04.3-.06.45-.06.19,0,.38.03.58.08.2.06.36.16.5.3l-.55.54Z"/>
        <path class="cls-1" d="M16.8,37.3h-.79v.97c0,.08,0,.15.01.22,0,.07.03.12.05.17.03.05.07.08.13.11.06.03.13.04.23.04.05,0,.11,0,.19-.01.08,0,.14-.03.18-.07v.75c-.1.04-.2.06-.31.07-.11.01-.21.02-.32.02-.15,0-.29-.02-.42-.05-.13-.03-.24-.08-.33-.15s-.17-.16-.22-.27c-.05-.11-.08-.25-.08-.41v-1.38h-.57v-.72h.57v-.86h.9v.86h.79v.72Z"/>
        <path class="cls-1" d="M17.26,36.58h.9v.47h.01c.1-.18.21-.31.34-.4.13-.09.3-.13.5-.13.05,0,.1,0,.16,0,.05,0,.1.01.14.02v.82c-.06-.02-.13-.03-.19-.04-.06,0-.13-.01-.19-.01-.17,0-.31.02-.41.07-.1.05-.18.11-.23.2-.05.09-.09.19-.1.31s-.02.25-.02.39v1.21h-.9v-2.9Z"/>
        <path class="cls-1" d="M22.49,39.48h-.86v-.39h-.01c-.03.06-.07.11-.12.17-.05.06-.11.11-.18.15s-.15.08-.25.11c-.09.03-.19.04-.3.04-.23,0-.41-.04-.55-.1-.14-.07-.25-.17-.33-.29s-.13-.27-.16-.44c-.03-.17-.04-.35-.04-.54v-1.6h.9v1.42c0,.08,0,.17,0,.26,0,.09.02.17.05.25.03.08.08.14.14.19s.15.07.27.07.21-.02.28-.06c.07-.04.13-.1.16-.17.04-.07.06-.15.07-.24.01-.09.02-.18.02-.27v-1.45h.9v2.9Z"/>
        <path class="cls-1" d="M25.09,37.52c-.04-.06-.11-.12-.19-.16-.08-.04-.17-.06-.26-.06-.23,0-.4.07-.53.2-.13.14-.19.31-.19.53s.06.4.19.53c.13.14.3.2.53.2.1,0,.19-.02.26-.07.07-.04.13-.1.19-.16l.59.62c-.14.14-.3.24-.49.3-.19.06-.37.09-.54.09-.22,0-.43-.04-.63-.11-.2-.07-.37-.17-.51-.31-.15-.13-.26-.29-.34-.48-.08-.19-.13-.4-.13-.63s.04-.44.13-.63c.08-.19.2-.35.34-.48.15-.13.32-.24.51-.31s.41-.11.63-.11c.17,0,.35.03.54.09.19.06.35.16.49.3l-.59.62Z"/>
        <path class="cls-1" d="M27.98,37.3h-.79v.97c0,.08,0,.15.01.22,0,.07.03.12.05.17.03.05.07.08.13.11.06.03.13.04.23.04.05,0,.11,0,.19-.01.08,0,.14-.03.18-.07v.75c-.1.04-.2.06-.31.07-.11.01-.21.02-.32.02-.15,0-.29-.02-.42-.05-.13-.03-.24-.08-.33-.15s-.17-.16-.22-.27c-.05-.11-.08-.25-.08-.41v-1.38h-.57v-.72h.57v-.86h.9v.86h.79v.72Z"/>
        <path class="cls-1" d="M28.38,35.66c0-.14.05-.27.15-.37.1-.1.22-.15.37-.15s.27.05.37.15.15.22.15.37-.05.27-.15.37c-.1.1-.22.15-.37.15s-.27-.05-.37-.15-.15-.22-.15-.37ZM28.45,36.58h.9v2.9h-.9v-2.9Z"/>
        <path class="cls-1" d="M29.88,38.03c0-.23.04-.44.13-.63.08-.19.2-.35.34-.48.15-.13.32-.24.51-.31s.41-.11.63-.11.43.04.63.11.37.17.51.31c.15.13.26.29.34.48.08.19.13.4.13.63s-.04.44-.13.63c-.08.19-.2.35-.34.48-.15.13-.32.24-.51.31-.2.07-.41.11-.63.11s-.43-.04-.63-.11c-.2-.07-.37-.17-.51-.31-.15-.13-.26-.29-.34-.48-.08-.19-.13-.4-.13-.63ZM30.78,38.03c0,.22.06.4.19.53.13.14.3.2.53.2s.4-.07.53-.2c.13-.14.19-.31.19-.53s-.06-.4-.19-.53c-.13-.14-.3-.2-.53-.2s-.4.07-.53.2c-.13.14-.19.31-.19.53Z"/>
        <path class="cls-1" d="M33.64,36.58h.86v.39h.01c.03-.06.07-.11.12-.17s.11-.11.19-.15.15-.08.25-.11c.09-.03.19-.04.3-.04.23,0,.41.03.55.1.14.07.25.17.33.29s.13.27.16.44c.03.17.04.35.04.54v1.6h-.9v-1.42c0-.08,0-.17,0-.26s-.02-.17-.05-.25-.08-.14-.14-.19c-.06-.05-.15-.07-.27-.07s-.21.02-.28.06c-.07.04-.13.1-.16.17-.04.07-.06.15-.07.24-.01.09-.02.18-.02.28v1.45h-.9v-2.9Z"/>
        <path class="cls-1" d="M39.56,35v5.98h-.75v-5.98h.75Z"/>
        <path class="cls-1" d="M42.05,35.25h1.64c.21,0,.42.02.61.06.19.04.36.11.51.21s.26.23.35.39c.09.17.13.37.13.62,0,.3-.08.55-.23.76-.16.21-.38.34-.68.4l1.08,1.79h-1.12l-.88-1.69h-.46v1.69h-.93v-4.23ZM42.98,37h.55c.08,0,.17,0,.27,0,.09,0,.18-.02.25-.05s.14-.08.19-.14c.05-.06.07-.15.07-.27,0-.11-.02-.19-.07-.26-.04-.06-.1-.11-.17-.15-.07-.03-.15-.06-.23-.07-.09-.01-.17-.02-.26-.02h-.61v.96Z"/>
        <path class="cls-1" d="M48.56,38.98c-.14.18-.32.32-.54.42s-.45.15-.68.15c-.22,0-.43-.04-.63-.11-.2-.07-.37-.17-.51-.31-.15-.13-.26-.29-.34-.48-.08-.19-.13-.4-.13-.63s.04-.44.13-.63c.08-.19.2-.35.34-.48.15-.13.32-.24.51-.31s.41-.11.63-.11c.21,0,.4.04.56.11s.31.17.43.31c.12.13.21.29.27.48.06.19.1.4.1.63v.28h-2.08c.04.17.11.31.23.41s.27.15.44.15c.15,0,.27-.03.37-.1.1-.07.19-.15.27-.25l.63.46ZM47.8,37.7c0-.15-.05-.28-.15-.39-.1-.11-.24-.16-.4-.16-.1,0-.19.02-.26.05s-.14.07-.19.12c-.05.05-.1.11-.13.17-.03.07-.05.13-.05.21h1.18Z"/>
        <path class="cls-1" d="M49.32,36.58h.83v.38h.01c.04-.05.08-.1.14-.16.06-.05.13-.1.2-.15s.16-.08.25-.11c.09-.03.19-.04.29-.04.22,0,.41.04.59.11.18.07.33.18.45.31.13.13.22.29.29.48.07.18.1.38.1.6,0,.2-.03.4-.09.58-.06.19-.15.35-.26.49-.11.14-.25.26-.42.34-.16.09-.35.13-.56.13-.19,0-.36-.03-.52-.09-.16-.06-.29-.16-.4-.3h-.01v1.67h-.9v-4.27ZM50.15,38.03c0,.22.06.4.19.53.13.14.3.2.53.2s.4-.07.53-.2c.13-.14.19-.31.19-.53s-.06-.4-.19-.53c-.13-.14-.3-.2-.53-.2s-.4.07-.53.2c-.13.14-.19.31-.19.53Z"/>
        <path class="cls-1" d="M52.89,38.03c0-.23.04-.44.13-.63.08-.19.2-.35.34-.48.15-.13.32-.24.51-.31s.41-.11.63-.11.43.04.63.11.37.17.51.31c.15.13.26.29.34.48.08.19.13.4.13.63s-.04.44-.13.63c-.08.19-.2.35-.34.48-.15.13-.32.24-.51.31-.2.07-.41.11-.63.11s-.43-.04-.63-.11c-.2-.07-.37-.17-.51-.31-.15-.13-.26-.29-.34-.48-.08-.19-.13-.4-.13-.63ZM53.79,38.03c0,.22.06.4.19.53.13.14.3.2.53.2s.4-.07.53-.2c.13-.14.19-.31.19-.53s-.06-.4-.19-.53c-.13-.14-.3-.2-.53-.2s-.4.07-.53.2c-.13.14-.19.31-.19.53Z"/>
        <path class="cls-1" d="M58.29,37.43c-.13-.16-.3-.25-.52-.25-.08,0-.15.02-.22.05-.07.04-.11.1-.11.19,0,.07.04.12.11.16.07.03.17.06.28.09.11.03.23.05.36.08.13.03.25.08.36.14.11.06.21.15.28.26.07.11.11.26.11.44s-.04.34-.12.46-.19.22-.31.29-.27.13-.43.16c-.16.03-.32.04-.47.04-.2,0-.41-.03-.62-.09-.21-.06-.38-.16-.53-.31l.54-.6c.08.1.18.18.28.24s.22.08.36.08c.1,0,.2-.01.28-.04.08-.03.13-.08.13-.16s-.04-.13-.11-.17c-.07-.04-.17-.07-.28-.1s-.24-.05-.36-.08-.25-.07-.36-.13c-.11-.06-.21-.14-.28-.25-.07-.11-.11-.26-.11-.44,0-.17.03-.32.1-.44.07-.12.16-.22.27-.3.11-.08.24-.14.39-.18.15-.04.3-.06.45-.06.19,0,.38.03.58.08.2.06.36.16.5.3l-.55.54Z"/>
        <path class="cls-1" d="M59.36,35.66c0-.14.05-.27.15-.37.1-.1.22-.15.37-.15s.27.05.37.15.15.22.15.37-.05.27-.15.37c-.1.1-.22.15-.37.15s-.27-.05-.37-.15-.15-.22-.15-.37ZM59.43,36.58h.9v2.9h-.9v-2.9Z"/>
        <path class="cls-1" d="M62.95,37.3h-.79v.97c0,.08,0,.15.01.22,0,.07.03.12.05.17.03.05.07.08.13.11.06.03.13.04.23.04.05,0,.11,0,.19-.01.08,0,.14-.03.18-.07v.75c-.1.04-.2.06-.31.07-.11.01-.21.02-.32.02-.15,0-.29-.02-.42-.05-.13-.03-.24-.08-.33-.15s-.17-.16-.22-.27c-.05-.11-.08-.25-.08-.41v-1.38h-.57v-.72h.57v-.86h.9v.86h.79v.72Z"/>
        <path class="cls-1" d="M63.34,35.66c0-.14.05-.27.15-.37.1-.1.22-.15.37-.15s.27.05.37.15.15.22.15.37-.05.27-.15.37c-.1.1-.22.15-.37.15s-.27-.05-.37-.15-.15-.22-.15-.37ZM63.41,36.58h.9v2.9h-.9v-2.9Z"/>
        <path class="cls-1" d="M64.85,38.03c0-.23.04-.44.13-.63.08-.19.2-.35.34-.48.15-.13.32-.24.51-.31s.41-.11.63-.11.43.04.63.11.37.17.51.31c.15.13.26.29.34.48.08.19.13.4.13.63s-.04.44-.13.63c-.08.19-.2.35-.34.48-.15.13-.32.24-.51.31-.2.07-.41.11-.63.11s-.43-.04-.63-.11c-.2-.07-.37-.17-.51-.31-.15-.13-.26-.29-.34-.48-.08-.19-.13-.4-.13-.63ZM65.75,38.03c0,.22.06.4.19.53.13.14.3.2.53.2s.4-.07.53-.2c.13-.14.19-.31.19-.53s-.06-.4-.19-.53c-.13-.14-.3-.2-.53-.2s-.4.07-.53.2c-.13.14-.19.31-.19.53Z"/>
        <path class="cls-1" d="M68.6,36.58h.86v.39h.01c.03-.06.07-.11.12-.17s.11-.11.19-.15.15-.08.25-.11c.09-.03.19-.04.3-.04.23,0,.41.03.55.1.14.07.25.17.33.29s.13.27.16.44c.03.17.04.35.04.54v1.6h-.9v-1.42c0-.08,0-.17,0-.26s-.02-.17-.05-.25-.08-.14-.14-.19c-.06-.05-.15-.07-.27-.07s-.21.02-.28.06c-.07.04-.13.1-.16.17-.04.07-.06.15-.07.24-.01.09-.02.18-.02.28v1.45h-.9v-2.9Z"/>
        <path class="cls-1" d="M71.97,35.66c0-.14.05-.27.15-.37.1-.1.22-.15.37-.15s.27.05.37.15.15.22.15.37-.05.27-.15.37c-.1.1-.22.15-.37.15s-.27-.05-.37-.15-.15-.22-.15-.37ZM72.05,36.58h.9v2.9h-.9v-2.9Z"/>
        <path class="cls-1" d="M73.59,36.58h.86v.39h.01c.03-.06.07-.11.12-.17s.11-.11.19-.15.15-.08.25-.11c.09-.03.19-.04.3-.04.23,0,.41.03.55.1.14.07.25.17.33.29s.13.27.16.44c.03.17.04.35.04.54v1.6h-.9v-1.42c0-.08,0-.17,0-.26s-.02-.17-.05-.25-.08-.14-.14-.19c-.06-.05-.15-.07-.27-.07s-.21.02-.28.06c-.07.04-.13.1-.16.17-.04.07-.06.15-.07.24-.01.09-.02.18-.02.28v1.45h-.9v-2.9Z"/>
        <path class="cls-1" d="M80.07,39.24c0,.55-.14.97-.42,1.25-.28.28-.7.43-1.26.43-.26,0-.51-.03-.77-.09-.25-.06-.48-.17-.69-.34l.5-.74c.14.12.29.21.44.27s.32.1.5.1c.27,0,.48-.07.61-.2.13-.13.19-.3.19-.51v-.28h-.01c-.1.14-.23.24-.39.3-.15.06-.3.09-.43.09-.22,0-.41-.04-.59-.11-.18-.07-.33-.18-.45-.31-.13-.13-.22-.29-.29-.48-.07-.18-.1-.38-.1-.6,0-.19.03-.38.09-.56.06-.18.15-.34.26-.48.11-.14.25-.25.42-.34.16-.09.35-.13.56-.13.13,0,.24.01.35.04.11.03.2.06.28.11.08.04.16.09.21.15.06.05.11.11.14.16h.01v-.38h.82v2.66ZM77.81,38.01c0,.1.02.19.05.27.04.09.09.16.15.23.07.07.14.12.23.16.09.04.18.06.28.06s.19-.02.28-.06c.09-.04.16-.09.23-.16s.12-.14.15-.23c.04-.09.05-.18.05-.27s-.02-.19-.05-.27c-.04-.09-.09-.16-.15-.23s-.14-.12-.23-.16c-.09-.04-.18-.06-.28-.06s-.2.02-.28.06c-.09.04-.16.09-.23.16-.07.07-.12.14-.15.23-.04.09-.05.18-.05.27Z"/>
        <path class="cls-1" d="M83.28,35v5.98h-.75v-5.98h.75Z"/>
      </g>
      <g>
        <path class="cls-1" d="M4.83,46.36c-.27.14-.56.25-.86.31-.3.06-.6.1-.91.1-.33,0-.64-.05-.91-.16-.28-.1-.52-.25-.72-.45-.2-.19-.36-.43-.48-.7-.11-.27-.17-.58-.17-.92s.06-.65.17-.92c.11-.27.27-.51.48-.7.2-.19.44-.34.72-.45.28-.1.58-.16.91-.16s.65.04.94.12c.29.08.54.22.75.42l-.66.72c-.13-.13-.27-.23-.43-.3-.16-.07-.36-.1-.6-.1-.2,0-.38.03-.54.1-.16.07-.3.16-.42.28-.12.12-.2.27-.27.43-.06.17-.09.35-.09.54s.03.38.09.55c.06.17.15.31.27.43.12.12.25.22.42.28.16.07.34.1.54.1s.38-.02.53-.07.26-.09.35-.14v-.69h-.76v-.86h1.66v2.21Z"/>
        <path class="cls-1" d="M5.54,43.75h.9v.47h.01c.1-.18.21-.31.34-.4.13-.09.3-.13.5-.13.05,0,.1,0,.16,0,.05,0,.1.01.14.02v.82c-.06-.02-.13-.03-.19-.04-.06,0-.13-.01-.19-.01-.17,0-.31.02-.41.07-.1.05-.18.11-.23.2-.05.09-.09.19-.1.31s-.02.25-.02.39v1.21h-.9v-2.9Z"/>
        <path class="cls-1" d="M7.76,45.2c0-.23.04-.44.13-.63.08-.19.2-.35.34-.48.15-.13.32-.24.51-.31s.41-.11.63-.11.43.04.63.11.37.17.51.31c.15.13.26.29.34.48.08.19.13.4.13.63s-.04.44-.13.63c-.08.19-.2.35-.34.48-.15.13-.32.24-.51.31-.2.07-.41.11-.63.11s-.43-.04-.63-.11c-.2-.07-.37-.17-.51-.31-.15-.13-.26-.29-.34-.48-.08-.19-.13-.4-.13-.63ZM8.65,45.2c0,.22.06.4.19.53.13.14.3.2.53.2s.4-.07.53-.2c.13-.14.19-.31.19-.53s-.06-.4-.19-.53c-.13-.14-.3-.2-.53-.2s-.4.07-.53.2c-.13.14-.19.31-.19.53Z"/>
        <path class="cls-1" d="M14.31,46.66h-.86v-.39h-.01c-.03.06-.07.11-.12.17-.05.06-.11.11-.18.15s-.15.08-.25.11c-.09.03-.19.04-.3.04-.23,0-.41-.04-.55-.1-.14-.07-.25-.17-.33-.29s-.13-.27-.16-.44c-.03-.17-.04-.35-.04-.54v-1.6h.9v1.42c0,.08,0,.17,0,.26,0,.09.02.17.05.25.03.08.08.14.14.19s.15.07.27.07.21-.02.28-.06c.07-.04.13-.1.16-.17.04-.07.06-.15.07-.24.01-.09.02-.18.02-.27v-1.45h.9v2.9Z"/>
        <path class="cls-1" d="M14.94,43.75h.86v.39h.01c.03-.06.07-.11.12-.17s.11-.11.19-.15.15-.08.25-.11c.09-.03.19-.04.3-.04.23,0,.41.03.55.1.14.07.25.17.33.29s.13.27.16.44c.03.17.04.35.04.54v1.6h-.9v-1.42c0-.08,0-.17,0-.26s-.02-.17-.05-.25-.08-.14-.14-.19c-.06-.05-.15-.07-.27-.07s-.21.02-.28.06c-.07.04-.13.1-.16.17-.04.07-.06.15-.07.24-.01.09-.02.18-.02.28v1.45h-.9v-2.9Z"/>
        <path class="cls-1" d="M21.42,46.66h-.82v-.38h-.01c-.04.05-.08.1-.14.16-.06.05-.13.1-.2.15s-.16.08-.26.11-.19.04-.29.04c-.22,0-.41-.04-.59-.11-.18-.07-.33-.18-.45-.31s-.22-.29-.29-.48c-.07-.18-.1-.38-.1-.6,0-.2.03-.4.09-.58.06-.19.15-.35.26-.49.11-.14.25-.26.42-.34.16-.09.35-.13.56-.13.19,0,.36.03.52.09.16.06.29.16.4.3h.01v-1.92h.9v4.52ZM20.59,45.2c0-.22-.06-.4-.19-.53-.13-.14-.3-.2-.53-.2s-.4.07-.53.2c-.13.14-.19.31-.19.53s.06.4.19.53c.13.14.3.2.53.2s.4-.07.53-.2c.13-.14.19-.31.19-.53Z"/>
        <path class="cls-1" d="M27.59,45.02c0,.25-.04.48-.11.69-.08.21-.19.39-.34.55-.15.16-.34.28-.56.36s-.48.13-.77.13-.55-.04-.78-.13-.41-.21-.56-.36c-.15-.16-.26-.34-.34-.55-.08-.21-.11-.44-.11-.69v-2.6h.93v2.56c0,.13.02.25.06.36.04.11.1.21.18.29s.17.15.27.19c.11.05.22.07.34.07s.24-.02.34-.07.19-.11.27-.19.13-.18.18-.29c.04-.11.06-.23.06-.36v-2.56h.93v2.6Z"/>
        <path class="cls-1" d="M28.42,43.75h.83v.38h.01c.04-.05.08-.1.14-.16.06-.05.13-.1.2-.15s.16-.08.25-.11c.09-.03.19-.04.29-.04.22,0,.41.04.59.11.18.07.33.18.45.31.13.13.22.29.29.48.07.18.1.38.1.6,0,.2-.03.4-.09.58-.06.19-.15.35-.26.49-.11.14-.25.26-.42.34-.16.09-.35.13-.56.13-.19,0-.36-.03-.52-.09-.16-.06-.29-.16-.4-.3h-.01v1.67h-.9v-4.27ZM29.24,45.2c0,.22.06.4.19.53.13.14.3.2.53.2s.4-.07.53-.2c.13-.14.19-.31.19-.53s-.06-.4-.19-.53c-.13-.14-.3-.2-.53-.2s-.4.07-.53.2c-.13.14-.19.31-.19.53Z"/>
        <path class="cls-1" d="M34.59,42.17v5.98h-.75v-5.98h.75Z"/>
        <path class="cls-1" d="M37.08,42.42h1.64c.21,0,.42.02.61.06.19.04.36.11.51.21s.26.23.35.39c.09.17.13.37.13.62,0,.3-.08.55-.23.76-.16.21-.38.34-.68.4l1.08,1.79h-1.12l-.88-1.69h-.46v1.69h-.93v-4.23ZM38.01,44.17h.55c.08,0,.17,0,.27,0,.09,0,.18-.02.25-.05s.14-.08.19-.14c.05-.06.07-.15.07-.27,0-.11-.02-.19-.07-.26-.04-.06-.1-.11-.17-.15-.07-.03-.15-.06-.23-.07-.09-.01-.17-.02-.26-.02h-.61v.96Z"/>
        <path class="cls-1" d="M43.59,46.15c-.14.18-.32.32-.54.42s-.45.15-.68.15c-.22,0-.43-.04-.63-.11-.2-.07-.37-.17-.51-.31-.15-.13-.26-.29-.34-.48-.08-.19-.13-.4-.13-.63s.04-.44.13-.63c.08-.19.2-.35.34-.48.15-.13.32-.24.51-.31s.41-.11.63-.11c.21,0,.4.04.56.11s.31.17.43.31c.12.13.21.29.27.48.06.19.1.4.1.63v.28h-2.08c.04.17.11.31.23.41s.27.15.44.15c.15,0,.27-.03.37-.1.1-.07.19-.15.27-.25l.63.46ZM42.83,44.87c0-.15-.05-.28-.15-.39-.1-.11-.24-.16-.4-.16-.1,0-.19.02-.26.05s-.14.07-.19.12c-.05.05-.1.11-.13.17-.03.07-.05.13-.05.21h1.18Z"/>
        <path class="cls-1" d="M45.17,42.14v2.01h.01c.02-.06.05-.11.1-.17s.11-.11.17-.15c.07-.04.15-.08.24-.11.09-.03.19-.04.3-.04.23,0,.41.03.55.1.14.07.25.17.33.29s.13.27.16.44c.03.17.04.35.04.54v1.6h-.9v-1.42c0-.08,0-.17,0-.26s-.02-.17-.05-.25-.08-.14-.14-.19c-.06-.05-.15-.07-.27-.07s-.21.02-.28.06c-.07.04-.13.1-.16.17-.04.07-.06.15-.07.24-.01.09-.02.18-.02.28v1.45h-.9v-4.52h.9Z"/>
        <path class="cls-1" d="M49.52,46.29h-.01c-.1.16-.23.27-.4.33-.17.07-.34.1-.52.1-.14,0-.27-.02-.39-.06-.13-.04-.24-.09-.33-.17-.1-.08-.17-.17-.23-.28-.06-.11-.08-.24-.08-.39,0-.17.03-.31.09-.42.06-.12.15-.21.25-.29s.23-.13.36-.18c.14-.04.28-.07.42-.09.15-.02.29-.03.44-.04s.28,0,.4,0c0-.16-.06-.29-.17-.38-.11-.09-.25-.14-.4-.14-.15,0-.28.03-.4.09-.12.06-.23.15-.33.25l-.48-.49c.17-.16.36-.27.59-.35.22-.08.45-.12.69-.12.26,0,.48.03.65.1.17.07.31.16.41.29.1.13.17.28.21.47.04.19.06.4.06.64v1.48h-.83v-.36ZM49.3,45.38c-.07,0-.15,0-.25,0s-.2.02-.29.05c-.09.03-.17.07-.24.13-.07.06-.1.13-.1.23,0,.11.05.19.14.24.09.05.19.08.29.08.09,0,.17-.01.25-.04s.15-.06.22-.1c.06-.04.11-.1.15-.17.04-.07.06-.15.06-.24v-.19h-.22Z"/>
        <path class="cls-1" d="M50.99,42.14h.9v1.92h.01c.1-.14.24-.24.4-.3.16-.06.34-.09.52-.09.21,0,.39.04.56.13.16.09.3.2.42.34.11.14.2.31.26.49.06.19.09.38.09.58,0,.22-.03.42-.1.6-.07.18-.16.34-.29.48s-.28.24-.45.31c-.18.07-.37.11-.59.11-.1,0-.2-.01-.29-.04s-.18-.06-.25-.11-.15-.09-.2-.15c-.06-.05-.1-.11-.14-.16h-.01v.38h-.83v-4.52ZM51.82,45.2c0,.22.06.4.19.53.13.14.3.2.53.2s.4-.07.53-.2c.13-.14.19-.31.19-.53s-.06-.4-.19-.53c-.13-.14-.3-.2-.53-.2s-.4.07-.53.2c-.13.14-.19.31-.19.53Z"/>
        <path class="cls-1" d="M57.17,42.17v5.98h-.75v-5.98h.75Z"/>
        <path class="cls-1" d="M59.65,42.42h1.58c.18,0,.37.01.55.04.19.03.35.08.5.16.15.08.27.19.36.33s.14.32.14.56-.07.44-.2.6c-.13.16-.31.27-.53.34h0c.14.03.27.07.38.13.11.06.21.13.29.22.08.09.14.19.19.31s.07.25.07.38c0,.22-.05.41-.14.56s-.22.27-.37.36c-.15.09-.32.16-.51.2-.19.04-.38.06-.56.06h-1.73v-4.23ZM60.59,44.11h.68c.07,0,.14,0,.21-.02.07-.02.13-.04.19-.08.06-.04.1-.08.13-.14.03-.06.05-.13.05-.21,0-.09-.02-.16-.06-.22-.04-.06-.09-.1-.15-.13-.06-.03-.13-.06-.2-.07-.08-.01-.15-.02-.22-.02h-.63v.9ZM60.59,45.87h.84c.07,0,.14,0,.22-.02.07-.02.14-.04.2-.08.06-.04.11-.09.15-.16.04-.06.06-.14.06-.23,0-.1-.02-.18-.07-.24-.05-.06-.11-.11-.19-.14-.08-.03-.16-.05-.25-.07-.09-.01-.17-.02-.24-.02h-.71v.96Z"/>
        <path class="cls-1" d="M66.21,46.66h-.86v-.39h-.01c-.03.06-.07.11-.12.17-.05.06-.11.11-.18.15s-.15.08-.25.11c-.09.03-.19.04-.3.04-.23,0-.41-.04-.55-.1-.14-.07-.25-.17-.33-.29s-.13-.27-.16-.44c-.03-.17-.04-.35-.04-.54v-1.6h.9v1.42c0,.08,0,.17,0,.26,0,.09.02.17.05.25.03.08.08.14.14.19s.15.07.27.07.21-.02.28-.06c.07-.04.13-.1.16-.17.04-.07.06-.15.07-.24.01-.09.02-.18.02-.27v-1.45h.9v2.9Z"/>
        <path class="cls-1" d="M66.79,42.84c0-.14.05-.27.15-.37.1-.1.22-.15.37-.15s.27.05.37.15.15.22.15.37-.05.27-.15.37c-.1.1-.22.15-.37.15s-.27-.05-.37-.15-.15-.22-.15-.37ZM66.86,43.75h.9v2.9h-.9v-2.9Z"/>
        <path class="cls-1" d="M68.41,42.14h.9v4.52h-.9v-4.52Z"/>
        <path class="cls-1" d="M73,46.66h-.82v-.38h-.01c-.04.05-.08.1-.14.16-.06.05-.13.1-.2.15s-.16.08-.26.11-.19.04-.29.04c-.22,0-.41-.04-.59-.11-.18-.07-.33-.18-.45-.31s-.22-.29-.29-.48c-.07-.18-.1-.38-.1-.6,0-.2.03-.4.09-.58.06-.19.15-.35.26-.49.11-.14.25-.26.42-.34.16-.09.35-.13.56-.13.19,0,.36.03.52.09.16.06.29.16.4.3h.01v-1.92h.9v4.52ZM72.18,45.2c0-.22-.06-.4-.19-.53-.13-.14-.3-.2-.53-.2s-.4.07-.53.2c-.13.14-.19.31-.19.53s.06.4.19.53c.13.14.3.2.53.2s.4-.07.53-.2c.13-.14.19-.31.19-.53Z"/>
        <path class="cls-1" d="M75.37,44.54c0-.34.06-.65.17-.92.11-.27.27-.51.48-.7.2-.19.44-.34.72-.45.28-.1.58-.16.91-.16s.64.05.91.16c.28.1.52.25.72.45.2.19.36.43.48.7.11.27.17.58.17.92s-.06.65-.17.92c-.11.27-.27.51-.48.7-.2.19-.44.34-.72.45-.28.1-.58.16-.91.16s-.64-.05-.91-.16c-.28-.1-.52-.25-.72-.45-.2-.19-.36-.43-.48-.7-.11-.27-.17-.58-.17-.92ZM76.34,44.54c0,.2.03.38.09.55.06.17.15.31.27.43.12.12.25.22.42.28.16.07.34.1.54.1s.38-.03.54-.1c.16-.07.3-.16.42-.28s.2-.27.27-.43c.06-.17.09-.35.09-.55s-.03-.38-.09-.54c-.06-.17-.15-.31-.27-.43s-.25-.22-.42-.28c-.16-.07-.34-.1-.54-.1s-.38.03-.54.1c-.16.07-.3.16-.42.28-.12.12-.2.27-.27.43-.06.17-.09.35-.09.54Z"/>
        <path class="cls-1" d="M83.26,46.66h-.86v-.39h-.01c-.03.06-.07.11-.12.17-.05.06-.11.11-.18.15s-.15.08-.25.11c-.09.03-.19.04-.3.04-.23,0-.41-.04-.55-.1-.14-.07-.25-.17-.33-.29s-.13-.27-.16-.44c-.03-.17-.04-.35-.04-.54v-1.6h.9v1.42c0,.08,0,.17,0,.26,0,.09.02.17.05.25.03.08.08.14.14.19s.15.07.27.07.21-.02.28-.06c.07-.04.13-.1.16-.17.04-.07.06-.15.07-.24.01-.09.02-.18.02-.27v-1.45h.9v2.9Z"/>
        <path class="cls-1" d="M85.87,44.47h-.79v.97c0,.08,0,.15.01.22,0,.07.03.12.05.17.03.05.07.08.13.11.06.03.13.04.23.04.05,0,.11,0,.19-.01.08,0,.14-.03.18-.07v.75c-.1.04-.2.06-.31.07-.11.01-.21.02-.32.02-.15,0-.29-.02-.42-.05-.13-.03-.24-.08-.33-.15s-.17-.16-.22-.27c-.05-.11-.08-.25-.08-.41v-1.38h-.57v-.72h.57v-.86h.9v.86h.79v.72Z"/>
        <path class="cls-1" d="M88.82,42.17v5.98h-.75v-5.98h.75Z"/>
      </g>
    </g>
  </g>
</svg>