<?xml version="1.0" encoding="UTF-8"?>
<svg id="Layer_1" data-name="Layer 1" xmlns="http://www.w3.org/2000/svg" viewBox="0 0 144.86 66.36">
  <defs>
    <style>
      .cls-1, .cls-2 {
        fill: #232156;
      }

      .cls-1, .cls-3 {
        stroke-width: 0px;
      }

      .cls-2 {
        font-family: Avenir-Black, Avenir;
        font-size: 7.38px;
        font-weight: 800;
      }

      .cls-4 {
        letter-spacing: -.02em;
      }

      .cls-3 {
        fill: #f47621;
      }
    </style>
  </defs>
  <g>
    <path class="cls-3" d="M43.78,12.8v22.29c0-1-.1-1.93-.29-2.81-.19-.87-.51-1.64-.95-2.28-.44-.65-1.04-1.16-1.8-1.53-.76-.37-1.7-.56-2.8-.56-1.23,0-2.26.23-3.1.68-.84.46-1.55,1.21-2.15,2.28-.45-1.02-1.12-1.77-2.02-2.25-.9-.48-1.92-.71-3.08-.71-.61,0-1.17.08-1.69.24-.53.16-.99.36-1.4.61-.4.25-.76.54-1.05.85-.3.32-.52.64-.68.95h-.07v-2.24h-4.9v16.53h-6.06c-2.46,0-4.46-2-4.46-4.46V12.8c0-2.46,1.99-4.46,4.46-4.46h27.59c2.46,0,4.46,1.99,4.46,4.46"/>
    <path class="cls-1" d="M28.2,35.02c.02.43.03.8.03,1.09v8.74h-5.34v-8.23c0-.55.04-1.07.1-1.57.07-.5.21-.95.42-1.34.22-.39.53-.71.94-.95.41-.24.94-.36,1.6-.36.59,0,1.04.14,1.35.41.3.27.52.6.66.99.14.39.22.8.24,1.22"/>
    <path class="cls-1" d="M38.68,35.23v9.63h-5.34v-8.74c0-.5.05-.98.15-1.43.11-.46.27-.86.51-1.19.24-.34.56-.61.96-.8.39-.19.88-.29,1.48-.29.83,0,1.42.28,1.75.84.33.56.49,1.22.49,1.99"/>
    <path class="cls-1" d="M43.78,40.39v4.46h-4.46c2.46,0,4.46-2,4.46-4.46"/>
    <path class="cls-1" d="M49.58,44.98h3.19v-11.12h.04l3.66,11.12h2.44l3.81-11.12h.04v11.12h3.19v-14.5h-4.81l-3.36,9.46h-.04l-3.34-9.46h-4.83v14.5ZM66.59,44.98h3.52l1.21-3.07h5.63l1.25,3.07h3.6l-6.31-14.5h-2.64l-6.27,14.5ZM75.86,39.2h-3.54l1.76-4.5,1.78,4.5ZM82.44,44.98h3.19v-10.32h.04l6.33,10.32h4.18v-14.5h-3.19v10.07h-.04l-6.16-10.07h-4.34v14.5ZM96.81,44.98h3.52l1.21-3.07h5.63l1.25,3.07h3.6l-6.31-14.5h-2.64l-6.27,14.5ZM106.08,39.2h-3.54l1.76-4.5,1.78,4.5ZM125.37,36.38h-5.67v2.95h2.6v2.35c-.3.17-.7.33-1.21.48-.5.16-1.11.24-1.8.24s-1.3-.12-1.85-.35c-.55-.23-1.03-.56-1.42-.97-.4-.42-.7-.91-.91-1.48-.21-.57-.32-1.19-.32-1.87s.11-1.29.32-1.86c.21-.57.51-1.07.91-1.48.4-.42.87-.74,1.42-.97.55-.23,1.17-.35,1.85-.35.82,0,1.5.12,2.05.35.55.23,1.04.57,1.47,1.02l2.25-2.46c-.74-.68-1.59-1.16-2.57-1.44-.98-.28-2.04-.42-3.2-.42s-2.18.18-3.13.53c-.96.35-1.78.86-2.48,1.52-.7.66-1.24,1.46-1.63,2.41-.39.94-.58,1.99-.58,3.15s.2,2.21.58,3.15c.39.94.93,1.74,1.63,2.41s1.52,1.17,2.48,1.53c.96.35,2,.53,3.13.53,1.06,0,2.11-.11,3.13-.33,1.02-.22,2.01-.57,2.95-1.06v-7.58ZM127.89,44.98h10.22v-2.95h-7.02v-2.95h6.29v-2.95h-6.29v-2.7h6.65v-2.95h-9.85v14.5Z"/>
    <path class="cls-1" d="M57.42,12.34c-.26-.33-.62-.58-1.07-.73-.45-.16-.87-.24-1.27-.24-.24,0-.48.03-.72.08-.25.05-.48.14-.7.26-.22.12-.4.27-.54.47-.14.19-.21.43-.21.7,0,.44.17.78.5,1.01.33.23.75.44,1.25.6.5.16,1.05.33,1.62.5.58.17,1.12.4,1.63.7.5.3.92.71,1.25,1.22.33.51.5,1.19.5,2.05s-.15,1.52-.45,2.13c-.3.61-.71,1.11-1.23,1.51-.52.4-1.12.7-1.8.89-.68.19-1.4.29-2.16.29-.95,0-1.83-.14-2.65-.43-.81-.29-1.57-.76-2.27-1.41l2.3-2.53c.33.44.75.78,1.25,1.03.5.24,1.02.36,1.56.36.26,0,.53-.03.8-.09.27-.06.51-.15.73-.28.21-.12.39-.28.52-.48.13-.19.2-.42.2-.68,0-.44-.17-.79-.51-1.04-.34-.26-.76-.47-1.27-.65-.51-.18-1.06-.36-1.65-.54-.59-.18-1.15-.42-1.65-.72-.51-.3-.93-.7-1.27-1.2-.34-.5-.51-1.15-.51-1.97s.16-1.48.47-2.07c.31-.59.72-1.09,1.24-1.49.52-.4,1.11-.7,1.79-.9.67-.2,1.37-.3,2.09-.3.83,0,1.63.12,2.4.35.77.24,1.47.63,2.09,1.18l-2.21,2.42Z"/>
    <path class="cls-1" d="M60.63,10.19c0-.5.18-.92.53-1.27.35-.35.78-.53,1.27-.53s.92.18,1.27.53c.35.35.53.78.53,1.27s-.18.92-.53,1.27c-.35.35-.77.53-1.27.53s-.92-.18-1.27-.53c-.35-.35-.53-.78-.53-1.27M60.88,13.35h3.1v10.05h-3.1v-10.05Z"/>
    <path class="cls-1" d="M65.39,13.35h2.98v1.37h.04c.1-.19.23-.39.41-.58.18-.19.39-.36.64-.52.25-.15.53-.28.85-.37.32-.1.66-.15,1.03-.15.7,0,1.33.15,1.87.43s.95.74,1.23,1.36c.36-.65.79-1.11,1.3-1.39.51-.27,1.14-.41,1.88-.41.68,0,1.24.11,1.71.34.46.23.83.54,1.1.93.27.39.46.86.58,1.39.12.53.18,1.1.18,1.71v5.94h-3.1v-5.85c0-.47-.1-.87-.3-1.21-.2-.34-.56-.51-1.07-.51-.36,0-.66.06-.9.17-.24.12-.43.28-.58.49-.14.21-.25.45-.31.72-.06.28-.09.57-.09.87v5.32h-3.1v-5.32c0-.18,0-.4-.02-.66-.01-.26-.06-.51-.14-.75-.08-.23-.22-.43-.4-.6-.19-.17-.46-.25-.82-.25-.4,0-.72.07-.97.22-.25.14-.44.34-.57.58-.13.24-.22.51-.26.82-.04.3-.06.62-.06.95v5.01h-3.1v-10.05Z"/>
    <path class="cls-1" d="M82.43,13.35h2.86v1.32h.04c.12-.18.29-.36.49-.55.2-.19.43-.35.7-.51.27-.15.56-.28.88-.37.32-.1.65-.14,1.01-.14.74,0,1.42.13,2.03.38.61.26,1.13.61,1.56,1.08.43.46.77,1.01,1,1.64.23.64.35,1.33.35,2.09,0,.7-.11,1.38-.32,2.02s-.52,1.21-.91,1.71c-.39.5-.87.89-1.44,1.19-.57.3-1.21.44-1.92.44-.65,0-1.25-.1-1.81-.3-.56-.2-1.02-.54-1.38-1.02h-.04v5.79h-3.1v-14.77ZM85.29,18.38c0,.76.22,1.37.65,1.84.44.47,1.05.7,1.83.7s1.4-.24,1.83-.7c.43-.47.65-1.08.65-1.84s-.22-1.37-.65-1.84c-.43-.47-1.05-.7-1.83-.7s-1.4.23-1.83.7c-.43.47-.65,1.08-.65,1.84"/>
    <rect class="cls-1" x="94.39" y="7.77" width="3.1" height="15.64"/>
    <path class="cls-1" d="M108.42,21.67c-.49.64-1.12,1.12-1.88,1.47-.76.35-1.55.52-2.36.52-.77,0-1.5-.12-2.18-.37-.68-.25-1.28-.6-1.78-1.06-.5-.46-.9-1.02-1.19-1.67-.29-.65-.43-1.37-.43-2.17s.15-1.52.43-2.17.69-1.2,1.19-1.67c.5-.46,1.1-.82,1.78-1.07.68-.25,1.41-.37,2.18-.37.72,0,1.37.12,1.96.37.59.25,1.08.6,1.49,1.07.41.46.72,1.02.94,1.67.22.65.33,1.37.33,2.17v.97h-7.2c.12.59.39,1.06.81,1.41.41.35.92.53,1.53.53.51,0,.94-.11,1.29-.34.35-.23.66-.52.92-.88l2.17,1.59ZM105.79,17.24c.01-.52-.16-.97-.52-1.34-.36-.37-.82-.56-1.39-.56-.34,0-.65.06-.91.16-.26.11-.49.25-.67.42s-.33.37-.43.6c-.1.23-.16.47-.17.71h4.1Z"/>
    <polygon class="cls-1" points="109.65 10.32 109.65 8.31 108.89 8.31 108.89 7.77 111.04 7.77 111.04 8.31 110.27 8.31 110.27 10.32 109.65 10.32"/>
    <path class="cls-1" d="M111.48,10.32v-2.55h.55l.93,1.51h-.4s.94-1.51.94-1.51h.53v2.55h-.6v-.79c0-.22,0-.42.02-.59.01-.18.03-.35.06-.52l.07.19-.71,1.09h-.24l-.69-1.09.07-.2c.03.16.05.33.06.5.01.17.02.37.02.61v.79h-.6Z"/>
    <text class="cls-2" transform="translate(6.76 55.22)"><tspan x="0" y="0">P</tspan><tspan class="cls-4" x="4.65" y="0">r</tspan><tspan x="7.52" y="0">operty Management | Accounting</tspan></text>
  </g>
  <path class="cls-3" d="M43.78,12.8v22.29c0-1-.1-1.93-.29-2.81-.19-.87-.51-1.64-.95-2.28-.44-.65-1.04-1.16-1.8-1.53-.76-.37-1.7-.56-2.8-.56-1.23,0-2.26.23-3.1.68-.84.46-1.55,1.21-2.15,2.28-.45-1.02-1.12-1.77-2.02-2.25-.9-.48-1.92-.71-3.08-.71-.61,0-1.17.08-1.69.24-.53.16-.99.36-1.4.61-.4.25-.76.54-1.05.85-.3.32-.52.64-.68.95h-.07v-2.24h-4.9v16.53h-6.06c-2.46,0-4.46-2-4.46-4.46V12.8c0-2.46,1.99-4.46,4.46-4.46h27.59c2.46,0,4.46,1.99,4.46,4.46"/>
  <path class="cls-1" d="M28.2,35.02c.02.43.03.8.03,1.09v8.74h-5.34v-8.23c0-.55.04-1.07.1-1.57.07-.5.21-.95.42-1.34.22-.39.53-.71.94-.95.41-.24.94-.36,1.6-.36.59,0,1.04.14,1.35.41.3.27.52.6.66.99.14.39.22.8.24,1.22"/>
  <path class="cls-1" d="M38.68,35.23v9.63h-5.34v-8.74c0-.5.05-.98.15-1.43.11-.46.27-.86.51-1.19.24-.34.56-.61.96-.8.39-.19.88-.29,1.48-.29.83,0,1.42.28,1.75.84.33.56.49,1.22.49,1.99"/>
  <path class="cls-1" d="M43.78,40.39v4.46h-4.46c2.46,0,4.46-2,4.46-4.46"/>
  <path class="cls-1" d="M49.58,44.98h3.19v-11.12h.04l3.66,11.12h2.44l3.81-11.12h.04v11.12h3.19v-14.5h-4.81l-3.36,9.46h-.04l-3.34-9.46h-4.83v14.5ZM66.59,44.98h3.52l1.21-3.07h5.63l1.25,3.07h3.6l-6.31-14.5h-2.64l-6.27,14.5ZM75.86,39.2h-3.54l1.76-4.5,1.78,4.5ZM82.44,44.98h3.19v-10.32h.04l6.33,10.32h4.18v-14.5h-3.19v10.07h-.04l-6.16-10.07h-4.34v14.5ZM96.81,44.98h3.52l1.21-3.07h5.63l1.25,3.07h3.6l-6.31-14.5h-2.64l-6.27,14.5ZM106.08,39.2h-3.54l1.76-4.5,1.78,4.5ZM125.37,36.38h-5.67v2.95h2.6v2.35c-.3.17-.7.33-1.21.48-.5.16-1.11.24-1.8.24s-1.3-.12-1.85-.35c-.55-.23-1.03-.56-1.42-.97-.4-.42-.7-.91-.91-1.48-.21-.57-.32-1.19-.32-1.87s.11-1.29.32-1.86c.21-.57.51-1.07.91-1.48.4-.42.87-.74,1.42-.97.55-.23,1.17-.35,1.85-.35.82,0,1.5.12,2.05.35.55.23,1.04.57,1.47,1.02l2.25-2.46c-.74-.68-1.59-1.16-2.57-1.44-.98-.28-2.04-.42-3.2-.42s-2.18.18-3.13.53c-.96.35-1.78.86-2.48,1.52-.7.66-1.24,1.46-1.63,2.41-.39.94-.58,1.99-.58,3.15s.2,2.21.58,3.15c.39.94.93,1.74,1.63,2.41s1.52,1.17,2.48,1.53c.96.35,2,.53,3.13.53,1.06,0,2.11-.11,3.13-.33,1.02-.22,2.01-.57,2.95-1.06v-7.58ZM127.89,44.98h10.22v-2.95h-7.02v-2.95h6.29v-2.95h-6.29v-2.7h6.65v-2.95h-9.85v14.5Z"/>
  <path class="cls-1" d="M57.42,12.34c-.26-.33-.62-.58-1.07-.73-.45-.16-.87-.24-1.27-.24-.24,0-.48.03-.72.08-.25.05-.48.14-.7.26-.22.12-.4.27-.54.47-.14.19-.21.43-.21.7,0,.44.17.78.5,1.01.33.23.75.44,1.25.6.5.16,1.05.33,1.62.5.58.17,1.12.4,1.63.7.5.3.92.71,1.25,1.22.33.51.5,1.19.5,2.05s-.15,1.52-.45,2.13c-.3.61-.71,1.11-1.23,1.51-.52.4-1.12.7-1.8.89-.68.19-1.4.29-2.16.29-.95,0-1.83-.14-2.65-.43-.81-.29-1.57-.76-2.27-1.41l2.3-2.53c.33.44.75.78,1.25,1.03.5.24,1.02.36,1.56.36.26,0,.53-.03.8-.09.27-.06.51-.15.73-.28.21-.12.39-.28.52-.48.13-.19.2-.42.2-.68,0-.44-.17-.79-.51-1.04-.34-.26-.76-.47-1.27-.65-.51-.18-1.06-.36-1.65-.54-.59-.18-1.15-.42-1.65-.72-.51-.3-.93-.7-1.27-1.2-.34-.5-.51-1.15-.51-1.97s.16-1.48.47-2.07c.31-.59.72-1.09,1.24-1.49.52-.4,1.11-.7,1.79-.9.67-.2,1.37-.3,2.09-.3.83,0,1.63.12,2.4.35.77.24,1.47.63,2.09,1.18l-2.21,2.42Z"/>
  <path class="cls-1" d="M60.63,10.19c0-.5.18-.92.53-1.27.35-.35.78-.53,1.27-.53s.92.18,1.27.53c.35.35.53.78.53,1.27s-.18.92-.53,1.27c-.35.35-.77.53-1.27.53s-.92-.18-1.27-.53c-.35-.35-.53-.78-.53-1.27M60.88,13.35h3.1v10.05h-3.1v-10.05Z"/>
  <path class="cls-1" d="M65.39,13.35h2.98v1.37h.04c.1-.19.23-.39.41-.58.18-.19.39-.36.64-.52.25-.15.53-.28.85-.37.32-.1.66-.15,1.03-.15.7,0,1.33.15,1.87.43s.95.74,1.23,1.36c.36-.65.79-1.11,1.3-1.39.51-.27,1.14-.41,1.88-.41.68,0,1.24.11,1.71.34.46.23.83.54,1.1.93.27.39.46.86.58,1.39.12.53.18,1.1.18,1.71v5.94h-3.1v-5.85c0-.47-.1-.87-.3-1.21-.2-.34-.56-.51-1.07-.51-.36,0-.66.06-.9.17-.24.12-.43.28-.58.49-.14.21-.25.45-.31.72-.06.28-.09.57-.09.87v5.32h-3.1v-5.32c0-.18,0-.4-.02-.66-.01-.26-.06-.51-.14-.75-.08-.23-.22-.43-.4-.6-.19-.17-.46-.25-.82-.25-.4,0-.72.07-.97.22-.25.14-.44.34-.57.58-.13.24-.22.51-.26.82-.04.3-.06.62-.06.95v5.01h-3.1v-10.05Z"/>
  <path class="cls-1" d="M82.43,13.35h2.86v1.32h.04c.12-.18.29-.36.49-.55.2-.19.43-.35.7-.51.27-.15.56-.28.88-.37.32-.1.65-.14,1.01-.14.74,0,1.42.13,2.03.38.61.26,1.13.61,1.56,1.08.43.46.77,1.01,1,1.64.23.64.35,1.33.35,2.09,0,.7-.11,1.38-.32,2.02s-.52,1.21-.91,1.71c-.39.5-.87.89-1.44,1.19-.57.3-1.21.44-1.92.44-.65,0-1.25-.1-1.81-.3-.56-.2-1.02-.54-1.38-1.02h-.04v5.79h-3.1v-14.77ZM85.29,18.38c0,.76.22,1.37.65,1.84.44.47,1.05.7,1.83.7s1.4-.24,1.83-.7c.43-.47.65-1.08.65-1.84s-.22-1.37-.65-1.84c-.43-.47-1.05-.7-1.83-.7s-1.4.23-1.83.7c-.43.47-.65,1.08-.65,1.84"/>
  <rect class="cls-1" x="94.39" y="7.77" width="3.1" height="15.64"/>
  <path class="cls-1" d="M108.42,21.67c-.49.64-1.12,1.12-1.88,1.47-.76.35-1.55.52-2.36.52-.77,0-1.5-.12-2.18-.37-.68-.25-1.28-.6-1.78-1.06-.5-.46-.9-1.02-1.19-1.67-.29-.65-.43-1.37-.43-2.17s.15-1.52.43-2.17.69-1.2,1.19-1.67c.5-.46,1.1-.82,1.78-1.07.68-.25,1.41-.37,2.18-.37.72,0,1.37.12,1.96.37.59.25,1.08.6,1.49,1.07.41.46.72,1.02.94,1.67.22.65.33,1.37.33,2.17v.97h-7.2c.12.59.39,1.06.81,1.41.41.35.92.53,1.53.53.51,0,.94-.11,1.29-.34.35-.23.66-.52.92-.88l2.17,1.59ZM105.79,17.24c.01-.52-.16-.97-.52-1.34-.36-.37-.82-.56-1.39-.56-.34,0-.65.06-.91.16-.26.11-.49.25-.67.42s-.33.37-.43.6c-.1.23-.16.47-.17.71h4.1Z"/>
  <polygon class="cls-1" points="109.65 10.32 109.65 8.31 108.89 8.31 108.89 7.77 111.04 7.77 111.04 8.31 110.27 8.31 110.27 10.32 109.65 10.32"/>
  <path class="cls-1" d="M111.48,10.32v-2.55h.55l.93,1.51h-.4s.94-1.51.94-1.51h.53v2.55h-.6v-.79c0-.22,0-.42.02-.59.01-.18.03-.35.06-.52l.07.19-.71,1.09h-.24l-.69-1.09.07-.2c.03.16.05.33.06.5.01.17.02.37.02.61v.79h-.6Z"/>
  <text class="cls-2" transform="translate(6.76 55.22)"><tspan x="0" y="0">P</tspan><tspan class="cls-4" x="4.65" y="0">r</tspan><tspan x="7.52" y="0">operty Management | Accounting</tspan></text>
</svg>