<?xml version="1.0" encoding="UTF-8"?>
<svg id="Layer_1" data-name="Layer 1" xmlns="http://www.w3.org/2000/svg" viewBox="0 0 139.18 59.92">
  <defs>
    <style>
      .cls-1, .cls-2 {
        fill: #232156;
      }

      .cls-1, .cls-3 {
        stroke-width: 0px;
      }

      .cls-4 {
        letter-spacing: 0em;
      }

      .cls-2 {
        font-family: Avenir-Black, Avenir;
        font-size: 7.38px;
        font-weight: 800;
      }

      .cls-5 {
        letter-spacing: -.02em;
      }

      .cls-6 {
        letter-spacing: 0em;
      }

      .cls-3 {
        fill: #4178bd;
      }
    </style>
  </defs>
  <path class="cls-3" d="M4.43,41.66h36.69V4.98H4.43v36.69ZM28.89,29.43h-12.23v-12.23h12.23v12.23Z"/>
  <g>
    <path class="cls-1" d="M46.16,41.66h3.18v-5.77h1.57l3.01,5.77h3.81l-3.67-6.09c1.02-.19,1.79-.64,2.32-1.36.53-.71.79-1.58.79-2.6,0-.84-.15-1.54-.44-2.11-.29-.56-.68-1.01-1.18-1.35-.5-.33-1.07-.57-1.73-.71-.66-.14-1.35-.22-2.09-.22h-5.58v14.43ZM49.33,29.92h2.08c.29,0,.58.02.88.06.3.04.56.12.79.24.23.11.42.28.57.5.15.22.22.51.22.88,0,.39-.09.7-.26.92-.17.22-.38.38-.64.48-.26.1-.55.16-.87.18-.32.02-.62.03-.91.03h-1.88v-3.28ZM59.48,41.66h10.17v-2.93h-6.99v-2.93h6.26v-2.94h-6.26v-2.69h6.62v-2.94h-9.8v14.43ZM70.71,41.66h3.51l1.2-3.06h5.6l1.24,3.06h3.59l-6.28-14.43h-2.63l-6.24,14.43ZM79.95,35.91h-3.53l1.75-4.48,1.77,4.48ZM87.43,41.66h9.07v-2.93h-5.89v-11.5h-3.18v14.43ZM99.16,41.66h3.18v-11.62h4.12v-2.81h-11.42v2.81h4.12v11.62ZM112.26,41.66h3.18v-6.16l5.42-8.27h-3.77l-3.24,5.4-3.06-5.4h-3.95l5.42,8.27v6.16Z"/>
    <path class="cls-1" d="M54.01,9.03c-.26-.33-.62-.57-1.06-.73-.45-.16-.87-.24-1.27-.24-.23,0-.47.03-.72.09-.25.05-.48.14-.7.26-.22.12-.4.27-.54.47-.14.19-.21.43-.21.7,0,.44.17.78.49,1.01.33.23.75.43,1.25.6.5.17,1.04.33,1.62.5.58.17,1.12.4,1.62.7.5.3.92.71,1.25,1.22.33.51.49,1.19.49,2.05s-.15,1.52-.45,2.13c-.3.61-.71,1.11-1.23,1.51-.52.4-1.12.7-1.8.89-.68.19-1.4.29-2.16.29-.95,0-1.83-.14-2.65-.43-.81-.29-1.57-.76-2.27-1.4l2.29-2.52c.33.44.75.78,1.25,1.03.5.24,1.02.36,1.56.36.26,0,.53-.03.8-.09.27-.06.51-.15.72-.28.21-.12.39-.28.52-.48.13-.19.2-.42.2-.68,0-.44-.17-.79-.51-1.04-.34-.26-.76-.47-1.27-.65s-1.06-.36-1.65-.54c-.59-.18-1.14-.42-1.65-.72-.51-.3-.93-.7-1.27-1.2-.34-.5-.51-1.15-.51-1.96s.16-1.47.47-2.07c.31-.59.72-1.09,1.24-1.49.52-.4,1.11-.7,1.79-.9.67-.2,1.37-.3,2.09-.3.83,0,1.63.12,2.4.35.77.23,1.47.63,2.09,1.18l-2.21,2.42Z"/>
    <path class="cls-1" d="M57.21,6.88c0-.5.18-.92.53-1.27.35-.35.77-.53,1.27-.53s.92.17,1.27.53c.35.35.53.78.53,1.27s-.18.92-.53,1.27c-.35.35-.77.53-1.27.53s-.92-.18-1.27-.53c-.35-.35-.53-.78-.53-1.27M57.46,10.04h3.1v10.05h-3.1v-10.05Z"/>
    <path class="cls-1" d="M61.97,10.04h2.98v1.37h.04c.1-.19.23-.39.41-.58s.39-.37.64-.52c.25-.15.53-.28.85-.37.32-.1.66-.15,1.03-.15.7,0,1.33.15,1.87.43s.95.74,1.23,1.36c.36-.65.79-1.11,1.3-1.39.51-.27,1.14-.41,1.88-.41.67,0,1.24.11,1.71.34.46.23.83.54,1.1.93.27.39.46.86.58,1.39.12.53.18,1.1.18,1.7v5.93h-3.1v-5.85c0-.47-.1-.87-.3-1.21-.2-.34-.55-.51-1.07-.51-.36,0-.66.06-.9.17-.24.12-.43.28-.58.49-.15.21-.25.45-.31.72-.06.28-.09.57-.09.87v5.31h-3.1v-5.31c0-.18,0-.4-.02-.66-.01-.26-.06-.51-.14-.75-.08-.23-.22-.43-.4-.6-.19-.17-.46-.25-.82-.25-.4,0-.72.07-.97.22-.25.14-.44.34-.57.58-.13.24-.22.51-.26.82-.04.3-.06.62-.06.95v5h-3.1v-10.05Z"/>
    <path class="cls-1" d="M79,10.04h2.85v1.32h.04c.12-.18.29-.36.49-.55.2-.19.43-.36.7-.51.27-.15.56-.28.88-.37.32-.1.65-.14,1.01-.14.74,0,1.42.13,2.03.38.61.26,1.13.61,1.56,1.08.43.46.77,1.01,1,1.64.23.63.35,1.33.35,2.09,0,.7-.11,1.37-.32,2.01-.21.64-.52,1.21-.91,1.7-.39.5-.87.89-1.44,1.19-.57.3-1.21.44-1.92.44-.65,0-1.25-.1-1.81-.3-.56-.2-1.02-.54-1.37-1.02h-.04v5.79h-3.1v-14.76ZM81.86,15.06c0,.76.22,1.37.65,1.84.43.47,1.04.7,1.83.7s1.4-.24,1.83-.7c.43-.47.65-1.08.65-1.84s-.22-1.37-.65-1.84c-.43-.47-1.04-.7-1.83-.7s-1.4.23-1.83.7c-.43.47-.65,1.08-.65,1.84"/>
  </g>
  <rect class="cls-1" x="90.95" y="4.46" width="3.1" height="15.63"/>
  <g>
    <path class="cls-1" d="M104.97,18.35c-.5.63-1.12,1.12-1.88,1.47-.76.35-1.54.52-2.36.52-.77,0-1.5-.12-2.18-.37-.68-.25-1.28-.6-1.78-1.06-.5-.46-.9-1.02-1.19-1.66-.29-.65-.43-1.37-.43-2.17s.15-1.52.43-2.17c.29-.65.68-1.2,1.19-1.67.5-.46,1.1-.82,1.78-1.06.68-.25,1.41-.37,2.18-.37.72,0,1.37.12,1.96.37.58.25,1.08.6,1.49,1.06.41.46.72,1.02.94,1.67.22.65.33,1.37.33,2.17v.97h-7.19c.12.59.39,1.06.81,1.41.41.35.92.53,1.53.53.51,0,.94-.11,1.29-.34.35-.23.66-.52.92-.88l2.17,1.59ZM102.34,13.93c.01-.52-.16-.97-.52-1.34-.36-.37-.82-.56-1.39-.56-.34,0-.65.06-.91.17-.26.11-.49.25-.67.42s-.33.37-.43.6c-.1.23-.16.47-.17.71h4.09Z"/>
    <path class="cls-1" d="M54.01,9.03c-.26-.33-.62-.57-1.06-.73-.45-.16-.87-.24-1.27-.24-.23,0-.47.03-.72.09-.25.05-.48.14-.7.26-.22.12-.4.27-.54.47-.14.19-.21.43-.21.7,0,.44.17.78.49,1.01.33.23.75.43,1.25.6.5.17,1.04.33,1.62.5.58.17,1.12.4,1.62.7.5.3.92.71,1.25,1.22.33.51.49,1.19.49,2.05s-.15,1.52-.45,2.13c-.3.61-.71,1.11-1.23,1.51-.52.4-1.12.7-1.8.89-.68.19-1.4.29-2.16.29-.95,0-1.83-.14-2.65-.43-.81-.29-1.57-.76-2.27-1.4l2.29-2.52c.33.44.75.78,1.25,1.03.5.24,1.02.36,1.56.36.26,0,.53-.03.8-.09.27-.06.51-.15.72-.28.21-.12.39-.28.52-.48.13-.19.2-.42.2-.68,0-.44-.17-.79-.51-1.04-.34-.26-.76-.47-1.27-.65s-1.06-.36-1.65-.54c-.59-.18-1.14-.42-1.65-.72-.51-.3-.93-.7-1.27-1.2-.34-.5-.51-1.15-.51-1.96s.16-1.47.47-2.07c.31-.59.72-1.09,1.24-1.49.52-.4,1.11-.7,1.79-.9.67-.2,1.37-.3,2.09-.3.83,0,1.63.12,2.4.35.77.23,1.47.63,2.09,1.18l-2.21,2.42Z"/>
    <path class="cls-1" d="M57.21,6.88c0-.5.18-.92.53-1.27.35-.35.77-.53,1.27-.53s.92.17,1.27.53c.35.35.53.78.53,1.27s-.18.92-.53,1.27c-.35.35-.77.53-1.27.53s-.92-.18-1.27-.53c-.35-.35-.53-.78-.53-1.27M57.46,10.04h3.1v10.05h-3.1v-10.05Z"/>
    <path class="cls-1" d="M61.97,10.04h2.98v1.37h.04c.1-.19.23-.39.41-.58s.39-.37.64-.52c.25-.15.53-.28.85-.37.32-.1.66-.15,1.03-.15.7,0,1.33.15,1.87.43s.95.74,1.23,1.36c.36-.65.79-1.11,1.3-1.39.51-.27,1.14-.41,1.88-.41.67,0,1.24.11,1.71.34.46.23.83.54,1.1.93.27.39.46.86.58,1.39.12.53.18,1.1.18,1.7v5.93h-3.1v-5.85c0-.47-.1-.87-.3-1.21-.2-.34-.55-.51-1.07-.51-.36,0-.66.06-.9.17-.24.12-.43.28-.58.49-.15.21-.25.45-.31.72-.06.28-.09.57-.09.87v5.31h-3.1v-5.31c0-.18,0-.4-.02-.66-.01-.26-.06-.51-.14-.75-.08-.23-.22-.43-.4-.6-.19-.17-.46-.25-.82-.25-.4,0-.72.07-.97.22-.25.14-.44.34-.57.58-.13.24-.22.51-.26.82-.04.3-.06.62-.06.95v5h-3.1v-10.05Z"/>
    <path class="cls-1" d="M79,10.04h2.85v1.32h.04c.12-.18.29-.36.49-.55.2-.19.43-.36.7-.51.27-.15.56-.28.88-.37.32-.1.65-.14,1.01-.14.74,0,1.42.13,2.03.38.61.26,1.13.61,1.56,1.08.43.46.77,1.01,1,1.64.23.63.35,1.33.35,2.09,0,.7-.11,1.37-.32,2.01-.21.64-.52,1.21-.91,1.7-.39.5-.87.89-1.44,1.19-.57.3-1.21.44-1.92.44-.65,0-1.25-.1-1.81-.3-.56-.2-1.02-.54-1.37-1.02h-.04v5.79h-3.1v-14.76ZM81.86,15.06c0,.76.22,1.37.65,1.84.43.47,1.04.7,1.83.7s1.4-.24,1.83-.7c.43-.47.65-1.08.65-1.84s-.22-1.37-.65-1.84c-.43-.47-1.04-.7-1.83-.7s-1.4.23-1.83.7c-.43.47-.65,1.08-.65,1.84"/>
  </g>
  <rect class="cls-1" x="90.95" y="4.46" width="3.1" height="15.63"/>
  <text class="cls-2" transform="translate(3.84 52.08)"><tspan x="0" y="0">B</tspan><tspan class="cls-5" x="4.78" y="0">r</tspan><tspan x="7.66" y="0">okerage |</tspan><tspan class="cls-4" x="40.18" y="0"> </tspan><tspan x="42.36" y="0">Leasing</tspan><tspan class="cls-4" x="68.75" y="0"> </tspan><tspan x="70.93" y="0">| Sales |</tspan><tspan class="cls-4" x="96.35" y="0"> </tspan><tspan class="cls-6" x="98.53" y="0">Appraisal</tspan></text>
  <polygon class="cls-1" points="106.62 7.17 106.62 5.17 105.87 5.17 105.87 4.62 108.02 4.62 108.02 5.17 107.24 5.17 107.24 7.17 106.62 7.17"/>
  <path class="cls-1" d="M108.45,7.17v-2.55h.55l.93,1.51h-.4s.94-1.51.94-1.51h.53v2.55h-.6v-.79c0-.22,0-.42.02-.59.01-.18.03-.35.06-.52l.07.19-.71,1.09h-.24l-.69-1.09.07-.2c.03.16.05.33.06.5.01.17.02.37.02.61v.79h-.6Z"/>
</svg>