<?xml version="1.0" encoding="UTF-8"?>
<svg id="Layer_1" data-name="Layer 1" xmlns="http://www.w3.org/2000/svg" viewBox="0 0 99.78 41.68">
  <defs>
    <style>
      .cls-1 {
        letter-spacing: -.02em;
      }

      .cls-2, .cls-3, .cls-4 {
        stroke-width: 0px;
      }

      .cls-2, .cls-5, .cls-6 {
        fill: #232156;
      }

      .cls-7 {
        letter-spacing: -.09em;
      }

      .cls-3 {
        fill: #2cace3;
      }

      .cls-8 {
        letter-spacing: -.02em;
      }

      .cls-9 {
        letter-spacing: -.11em;
      }

      .cls-4 {
        fill: #10688d;
      }

      .cls-5 {
        font-size: 5.98px;
      }

      .cls-5, .cls-6 {
        font-family: Avenir-Black, Avenir;
        font-weight: 800;
      }

      .cls-6 {
        font-size: 16.42px;
      }
    </style>
  </defs>
  <g>
    <text class="cls-5" transform="translate(.69 39.63)"><tspan x="0" y="0">Wealth Preservation | Tax Planning</tspan></text>
    <path class="cls-2" d="M41.36,5c-.21-.27-.5-.46-.86-.59-.36-.13-.7-.19-1.03-.19-.19,0-.38.02-.58.07-.2.04-.39.11-.57.21-.18.1-.32.22-.43.38-.11.15-.17.34-.17.57,0,.36.13.63.4.82.27.19.6.35,1.01.48.41.13.84.27,1.31.4s.9.32,1.31.57c.4.24.74.57,1.01.99s.4.96.4,1.65c0,.66-.12,1.23-.37,1.72-.25.49-.58.9-.99,1.22-.42.32-.9.56-1.45.72-.55.16-1.13.23-1.74.23-.77,0-1.48-.12-2.14-.35-.66-.23-1.27-.61-1.83-1.14l1.85-2.03c.27.36.6.63,1.01.83.41.19.82.29,1.26.29.21,0,.42-.03.64-.08.22-.05.41-.12.59-.22.17-.1.31-.23.42-.38.11-.16.16-.34.16-.55,0-.35-.13-.63-.41-.84-.27-.21-.61-.38-1.03-.53-.41-.15-.86-.29-1.33-.44-.48-.14-.92-.34-1.33-.58-.41-.24-.75-.57-1.03-.97-.27-.4-.41-.93-.41-1.59,0-.63.13-1.19.38-1.67.25-.48.58-.88,1-1.2.42-.32.9-.56,1.45-.72.54-.16,1.11-.24,1.68-.24.67,0,1.31.1,1.94.28.62.19,1.18.51,1.68.95l-1.79,1.95Z"/>
    <path class="cls-2" d="M44.14,5.82h2.5s0,8.11,0,8.11h-2.5s0-8.11,0-8.11ZM43.95,3.27c0-.4.14-.74.42-1.03.28-.28.63-.42,1.03-.42s.74.14,1.03.43c.28.28.43.63.43,1.03,0,.4-.14.74-.43,1.03-.28.28-.62.42-1.03.42-.4,0-.74-.14-1.03-.43-.28-.28-.43-.63-.42-1.03"/>
    <path class="cls-2" d="M47.78,5.82h2.4s0,1.1,0,1.1h.03c.08-.16.19-.31.33-.47.15-.16.32-.29.52-.42.2-.12.43-.22.68-.3.26-.08.53-.12.84-.12.57,0,1.07.12,1.51.35.44.23.77.6.99,1.1.29-.52.64-.9,1.05-1.12.41-.22.92-.33,1.52-.33.54,0,1,.09,1.38.28.37.18.67.43.88.75.22.32.37.69.47,1.12.09.43.14.89.14,1.38v4.79s-2.51,0-2.51,0v-4.72c0-.38-.08-.7-.24-.98-.16-.27-.45-.41-.86-.41-.29,0-.53.05-.73.14-.19.09-.35.23-.47.39-.12.17-.2.36-.25.58-.05.22-.08.45-.08.7v4.29s-2.51,0-2.51,0v-4.29c0-.14,0-.32-.01-.53-.01-.21-.05-.41-.12-.6-.07-.19-.18-.35-.33-.48-.15-.13-.37-.2-.66-.2-.32,0-.58.06-.78.17-.2.12-.35.27-.46.47s-.18.41-.21.66c-.03.24-.05.5-.05.77v4.04s-2.51,0-2.51,0V5.82Z"/>
    <path class="cls-2" d="M63.83,9.89c0,.61.17,1.11.52,1.49.35.38.84.57,1.48.57.63,0,1.13-.19,1.48-.56.35-.38.53-.87.53-1.49,0-.61-.17-1.11-.52-1.49-.35-.38-.84-.57-1.48-.57-.63,0-1.13.19-1.48.57-.35.38-.53.87-.53,1.49M61.53,5.84h2.3s0,1.07,0,1.07h.03c.1-.14.23-.29.39-.44.16-.15.35-.29.57-.41.22-.12.45-.22.71-.3.26-.08.53-.12.82-.12.6,0,1.15.1,1.63.31.49.21.91.5,1.26.87.35.37.62.81.81,1.33.19.51.28,1.07.28,1.69,0,.57-.09,1.11-.26,1.63-.17.52-.42.98-.74,1.38-.32.4-.7.72-1.16.96-.46.24-.97.36-1.55.36-.52,0-1.01-.08-1.46-.24-.45-.16-.82-.44-1.11-.83h-.03v4.67s-2.51,0-2.51,0V5.84Z"/>
  </g>
  <rect class="cls-2" x="66.12" y="6.4" width="12.61" height="2.5" transform="translate(64.69 80.06) rotate(-89.93)"/>
  <path class="cls-2" d="M80.37,8.99c.01-.42-.13-.78-.42-1.08-.29-.3-.66-.45-1.12-.45-.28,0-.52.04-.73.13-.21.09-.39.2-.54.34-.15.14-.27.3-.35.48-.08.18-.13.38-.14.58h3.3ZM82.48,12.56c-.4.51-.91.91-1.52,1.18-.61.28-1.25.42-1.9.41-.62,0-1.21-.1-1.76-.3-.55-.2-1.03-.49-1.43-.86-.41-.37-.72-.82-.96-1.34-.23-.52-.35-1.11-.35-1.75,0-.64.12-1.23.35-1.75.23-.52.55-.97.96-1.34.41-.37.89-.66,1.44-.86.55-.2,1.14-.3,1.76-.3.58,0,1.1.1,1.58.3.47.2.87.49,1.2.86.33.37.58.82.76,1.34s.27,1.11.27,1.75v.78s-5.81,0-5.81,0c.1.48.32.86.65,1.14.33.28.75.43,1.23.43.41,0,.76-.09,1.04-.28.28-.18.53-.42.74-.71l1.75,1.29Z"/>
  <polygon class="cls-2" points="82.89 1.31 82.89 1.75 83.5 1.75 83.5 3.37 84 3.37 84.01 1.76 84.63 1.76 84.63 1.32 82.89 1.31"/>
  <path class="cls-2" d="M84.98,3.37V1.32h.45l.75,1.22h-.32s.76-1.22.76-1.22h.43s0,2.06,0,2.06h-.49s0-.64,0-.64c0-.17,0-.33.01-.47,0-.14.02-.28.04-.42l.06.15-.57.88h-.19l-.56-.88.06-.16c.02.13.04.27.04.4.01.14.01.3.01.49v.64h-.48Z"/>
  <text class="cls-6" transform="translate(34.39 31.33)"><tspan class="cls-7" x="0" y="0">F</tspan><tspan class="cls-1" x="8.19" y="0">A</tspan><tspan x="20.04" y="0">M</tspan><tspan class="cls-8" x="35.54" y="0">I</tspan><tspan class="cls-9" x="40.09" y="0">L</tspan><tspan x="47.1" y="0">Y</tspan></text>
  <g>
    <path class="cls-4" d="M30.96,16.32c0,2.68-.7,5.2-1.93,7.37-.05.09-.1.18-.16.27h0c-.04.06-.08.13-.11.19-.05.09-.11.18-.16.26-.36.56-.75,1.09-1.17,1.59-.04.05-.08.09-.12.14,0,0,0,0,0,0-.01.01-.02.03-.04.04-.03.04-.06.07-.09.11-1.65,1.85-3.74,3.29-6.12,4.15-.16-.67-.33-1.35-.48-2.03-.16-.69-.33-1.38-.47-2.08-.13-.67-.22-1.34-.32-2.01-.04-.24-.06-.48-.09-.72-.06-.58.22-1.01.63-1.36.62-.55,1.26-1.08,1.92-1.58.51-.39,1.06-.72,1.58-1.08.46-.32.92-.64,1.37-.97.46-.34.62-.88.82-1.38.25-.63.51-1.25.77-1.87.05-.11.12-.2.2-.29.42-.49.56-1.1.75-1.69.32-.95.77-1.84,1.32-2.69.16-.26.32-.51.48-.77.92,1.94,1.43,4.11,1.43,6.41"/>
    <path class="cls-3" d="M11.1,12.34c.56.87.94,1.74,1.2,2.49.13.36.62.4.81.07.54-.97,1.26-2.18,2.15-3.46,2.75-3.93,5.61-5.68,8.52-6.61.47-.15.95-.26,1.42-.33-2.55-2-5.76-3.19-9.25-3.19-5.43,0-10.18,2.88-12.82,7.2,4.33.32,6.71,1.88,7.97,3.83M26.5,10.44c-.05.23-.09.46-.17.68-.12.35-.24.71-.4,1.04-.19.38-.41.74-.63,1.11-.05.07-.13.13-.21.16-.19.07-.39.12-.59.17-.05.02-.14.04-.16.02-.03-.04-.05-.12-.03-.18.35-1.43.69-2.87,1.29-4.23.1-.23.23-.47.38-.67.12-.15.3-.28.47-.37.15-.09.27,0,.32.16.03.1.02.22.04.33.01,0,.02,0,.04.01-.12.59-.23,1.18-.35,1.76M24,13.2c-.11.4-.23.81-.34,1.21,0,.02,0,.05-.02.06-.24.25-.5.46-.78.63-.02-.01-.05-.02-.07-.04.02-.12.04-.25.07-.37.16-.6.33-1.2.5-1.81.12-.44.24-.88.36-1.31.06-.23.12-.47.2-.7.11-.34.3-.64.61-.84.07-.05.17-.04.26-.06,0,.08.02.16,0,.24-.26.99-.53,1.99-.8,2.98M22.46,14.95c-.06.19-.11.41-.24.55-.19.21-.44.37-.71.58-.06-.61.78-3.1,1.48-3.31-.08.35-.16.69-.24,1.03-.09.38-.18.77-.29,1.15M9.17,20.51c-.07-.02-.14-.02-.2-.06-.12-.07-.23-.16-.35-.22-.33-.18-.32-.52-.4-.82-.11-.43-.22-.85-.32-1.28-.06-.24-.1-.49-.16-.73.02-.01.05-.03.07-.04.14.16.32.3.43.48.19.34.37.69.5,1.05.17.46.31.93.45,1.4.02.07-.01.15-.02.23M7.71,19.6c-.15-.11-.29-.23-.43-.34-.18-.15-.28-.34-.34-.57-.19-.75-.41-1.48-.62-2.22-.16-.56-.3-1.12-.45-1.68-.02-.08-.02-.15-.04-.27.38.03.59.25.72.5.19.39.33.8.44,1.21.3,1.04.58,2.09.87,3.14.02.09.02.18.04.32-.09-.04-.15-.06-.19-.08M6.1,18.13c-.17-.05-.35-.08-.53-.14-.06-.02-.13-.07-.16-.12-.32-.56-.65-1.12-.93-1.7-.14-.29-.17-.63-.25-.95-.04-.16-.08-.32-.11-.49-.09-.5-.18-.99-.27-1.49.01,0,.02,0,.03,0,0-.05-.02-.11,0-.15.05-.11.11-.28.19-.31.12-.03.29.03.39.11.5.4.7.99.9,1.56.27.77.49,1.57.72,2.35.11.37.19.74.27,1.11.05.24-.02.29-.26.22M26.15,5.31c-.7.02-1.39.14-2.09.36-6.51,2.09-11.18,12.34-11.22,12.44h0c-.19.42-.81.32-.85-.14h0s-.24-2.29-1.65-4.47c-1.69-2.61-4.27-4-7.69-4.14-.62,1.18-1.09,2.46-1.38,3.81.34.23.69.47.97.77.54.6,1.04,1.25,1.51,1.92.46.65.86,1.35,1.29,2.02.07.11.06.19-.03.29-.44.49-.42,1.05-.12,1.57.26.45.6.87.97,1.25.72.75,1.49,1.47,2.24,2.19.05.05.14.07.21.11.01-.02.03-.03.04-.05-.04-.06-.08-.13-.13-.19-.23-.25-.48-.48-.7-.73-.6-.67-1.2-1.35-1.79-2.04-.3-.35-.57-.74-.53-1.24.02-.26.18-.5.39-.56.16-.04.47.09.58.28.33.56.85.91,1.35,1.27.72.52,1.48.99,2.23,1.47.49.31,1,.58,1.5.88.49.3,1,.55,1.42.96.64.62,1.1,1.35,1.45,2.16.35.8.59,1.62.57,2.5-.01.8-.03,1.6-.04,2.4,0,.27-.03.54-.04.82,0,.01,0,.02,0,.04.44.04.89.06,1.34.06.08,0,.15,0,.23,0-.01-.23-.02-.47-.03-.7-.03-.9-.06-1.81-.09-2.71-.02-1-.03-2-.05-3,0-.54.01-1.08,0-1.61-.02-.79.19-1.53.49-2.24.26-.61.6-1.18,1-1.71.5-.67,1.19-1.1,1.91-1.49.53-.29,1.05-.59,1.56-.91.74-.47,1.48-.95,2.19-1.47.51-.37,1.05-.73,1.39-1.31.12-.21.33-.28.58-.23.19.04.36.24.37.47,0,.16-.01.34-.06.49-.17.58-.6.98-.97,1.4-.68.78-1.39,1.54-2.08,2.31-.03.04-.05.09-.08.13.01.01.02.03.04.04.06-.04.14-.07.19-.12.36-.33.74-.64,1.07-.98.65-.67,1.28-1.35,1.91-2.04.33-.36.52-.79.47-1.29-.02-.28-.05-.57-.34-.75-.05-.03-.07-.2-.04-.26.17-.33.35-.65.56-.95.61-.87,1.22-1.75,1.87-2.59.27-.34.61-.63.95-.92-.76-1.34-1.73-2.55-2.85-3.59"/>
    <path class="cls-4" d="M11.02,28.2c-.09.73-.2,1.46-.3,2.19C5.01,28.27.94,22.77.94,16.32c0-.68.05-1.35.13-2.01.5.88,1.02,1.75,1.49,2.65.26.5.38,1.06.59,1.59.15.36.31.72.53,1.03.37.52.62,1.1.83,1.69.16.46.35.9.53,1.35.14.35.44.55.73.75.9.63,1.82,1.22,2.71,1.86.63.46,1.24.97,1.82,1.5.29.26.6.56.67.99.03.16.06.32.04.48"/>
  </g>
</svg>