<?xml version="1.0" encoding="UTF-8"?>
<svg id="Layer_1" data-name="Layer 1" xmlns="http://www.w3.org/2000/svg" viewBox="0 0 107.51 48.33">
  <defs>
    <style>
      .cls-1 {
        fill: #5253a3;
      }

      .cls-1, .cls-2, .cls-3 {
        stroke-width: 0px;
      }

      .cls-2 {
        fill: #222053;
      }

      .cls-3 {
        fill: #232256;
      }
    </style>
  </defs>
  <polygon class="cls-1" points="23.29 15.87 23.29 23.26 23.28 30.65 15.89 30.65 8.49 30.64 1.1 30.64 1.11 23.24 8.5 23.25 15.89 23.25 15.9 15.86 23.29 15.87"/>
  <polygon class="cls-1" points="23.31 1.08 23.3 8.47 15.9 8.47 8.51 8.46 8.51 15.85 1.11 15.85 1.12 8.45 1.12 1.06 15.91 1.07 23.31 1.08"/>
  <g>
    <path class="cls-3" d="M86.23,19.9c-.5-.44-1.05-.76-1.67-.94-.62-.19-1.26-.28-1.92-.28-.57,0-1.13.08-1.67.24-.54.16-1.02.4-1.43.72-.41.32-.75.72-.99,1.19-.25.47-.37,1.03-.37,1.66,0,.65.13,1.18.4,1.57.27.4.61.72,1.02.96.41.24.85.44,1.32.58.47.14.92.29,1.33.43.41.14.75.32,1.02.52.27.2.41.48.4.84,0,.21-.05.39-.16.55-.1.15-.24.28-.41.38-.17.1-.36.17-.58.22-.22.05-.43.08-.64.08-.43,0-.85-.1-1.25-.29-.4-.19-.74-.47-1-.82l-1.84,2.02c.56.52,1.17.9,1.82,1.13.65.23,1.36.35,2.12.35.61,0,1.18-.08,1.73-.23.55-.15,1.03-.39,1.44-.71.41-.32.74-.72.99-1.21s.37-1.05.37-1.71c0-.68-.13-1.23-.4-1.64-.27-.41-.6-.73-1-.98-.4-.24-.84-.43-1.3-.56-.46-.13-.9-.27-1.3-.4-.4-.13-.74-.29-1-.48-.26-.19-.4-.46-.4-.81,0-.22.06-.41.17-.56.11-.15.26-.28.43-.37.18-.09.37-.16.56-.21.2-.04.39-.07.58-.07.32,0,.66.06,1.02.19.36.13.64.32.85.59l1.77-1.94ZM68.32,30.68h8.26s0-2.38,0-2.38h-5.68s0-2.39,0-2.39h5.08s0-2.38,0-2.38h-5.08s0-2.19,0-2.19h5.38s0-2.38,0-2.38h-7.97s-.01,11.72-.01,11.72ZM66.54,20.38c-.25-.32-.54-.59-.86-.81-.32-.22-.65-.4-1-.53-.35-.13-.7-.23-1.06-.29-.36-.06-.7-.09-1.04-.09-.92,0-1.76.14-2.53.43-.77.29-1.44.7-2.01,1.23-.56.54-1,1.18-1.32,1.94-.32.76-.47,1.61-.47,2.55,0,.94.16,1.79.47,2.55.31.76.75,1.41,1.32,1.95.56.54,1.23.95,2,1.23.77.29,1.62.43,2.53.43.81,0,1.59-.16,2.35-.49.76-.33,1.39-.84,1.89-1.54l-2.15-1.61c-.26.4-.6.7-1.01.93-.41.22-.88.33-1.41.33-.46,0-.9-.09-1.3-.28-.4-.19-.75-.45-1.05-.79-.3-.34-.53-.73-.7-1.19-.17-.46-.26-.96-.25-1.52,0-.54.09-1.04.26-1.51.17-.47.41-.86.71-1.2.3-.34.66-.6,1.08-.79.41-.19.86-.28,1.35-.28.49,0,.91.08,1.28.25.37.17.68.4.93.71l1.99-1.62ZM51.69,25.99h-2.86s1.43-3.64,1.43-3.64l1.44,3.64ZM44.19,30.66h2.85s.98-2.48.98-2.48h4.55s1.01,2.49,1.01,2.49h2.92s-5.09-11.73-5.09-11.73h-2.14s-5.08,11.72-5.08,11.72ZM39.18,21.11h1.32c.24,0,.5.02.76.04.26.03.5.09.72.19.22.1.39.24.53.42.14.18.21.42.21.72,0,.28-.05.5-.16.69-.11.18-.24.32-.41.43-.17.1-.37.18-.58.22-.22.04-.44.06-.67.06h-1.72s0-2.78,0-2.78ZM36.58,30.65h2.58s0-4.57,0-4.57h1.89c.62,0,1.19-.06,1.72-.17.53-.12.99-.31,1.38-.59.39-.28.69-.65.91-1.11.22-.46.33-1.04.33-1.72,0-.7-.12-1.27-.35-1.73-.24-.46-.56-.82-.96-1.09-.4-.27-.88-.46-1.42-.57-.54-.11-1.12-.17-1.72-.17h-4.36s-.01,11.72-.01,11.72ZM35.21,19.85c-.5-.44-1.05-.76-1.67-.95-.62-.19-1.26-.28-1.92-.28-.57,0-1.13.08-1.67.24-.54.16-1.02.4-1.43.72-.42.32-.75.72-.99,1.19-.25.47-.38,1.03-.38,1.66,0,.65.13,1.18.4,1.57.27.4.61.72,1.02.96.41.24.85.44,1.33.58.47.14.92.29,1.33.43.41.14.75.32,1.02.52.27.2.41.48.41.84,0,.21-.05.39-.16.55-.11.15-.24.28-.41.38-.17.1-.36.17-.58.22-.21.05-.43.07-.64.07-.43,0-.85-.1-1.25-.29-.4-.19-.74-.47-1-.82l-1.84,2.02c.56.52,1.17.9,1.82,1.13.65.23,1.36.35,2.12.35.61,0,1.19-.08,1.73-.23.55-.15,1.03-.39,1.44-.71.41-.32.74-.72.99-1.21.24-.49.37-1.05.37-1.71,0-.69-.13-1.23-.4-1.64-.26-.41-.6-.73-1-.98-.4-.24-.84-.43-1.3-.56-.46-.13-.9-.27-1.3-.4-.4-.13-.74-.29-1-.48-.26-.19-.4-.46-.4-.81,0-.22.05-.41.17-.56.11-.15.25-.28.43-.37.18-.09.36-.16.56-.21.2-.04.39-.06.58-.06.32,0,.66.06,1.02.19.36.13.64.32.85.59l1.78-1.94Z"/>
    <path class="cls-3" d="M33.52,4.28c-.21-.27-.5-.46-.86-.59-.36-.13-.71-.19-1.03-.19-.19,0-.38.02-.58.07-.2.04-.39.11-.57.21-.18.09-.32.22-.44.38-.11.15-.17.34-.17.57,0,.36.13.63.4.82.27.19.6.35,1.01.49.4.13.84.27,1.31.4.47.13.9.32,1.31.57.4.25.74.58,1.01.99.27.41.4.96.4,1.65,0,.66-.12,1.23-.37,1.72-.24.49-.58.9-.99,1.22-.42.32-.9.56-1.45.72-.55.16-1.13.23-1.75.23-.77,0-1.48-.12-2.14-.35-.66-.23-1.27-.61-1.84-1.14l1.86-2.04c.27.36.6.63,1.01.83.41.2.83.29,1.26.29.21,0,.43-.03.64-.08.22-.05.41-.12.58-.22.17-.1.31-.23.42-.38.11-.16.16-.34.16-.55,0-.36-.14-.64-.41-.84-.27-.21-.61-.38-1.03-.53-.41-.15-.86-.29-1.34-.44-.48-.14-.92-.34-1.33-.59-.41-.24-.75-.57-1.03-.97-.27-.4-.41-.93-.41-1.59,0-.63.13-1.19.38-1.67.25-.48.58-.88,1-1.2s.9-.56,1.45-.73c.54-.16,1.11-.24,1.69-.24.67,0,1.31.1,1.94.28.62.19,1.18.51,1.69.95l-1.79,1.95Z"/>
    <path class="cls-3" d="M36.3,5.1h2.5s0,8.12,0,8.12h-2.51s0-8.12,0-8.12ZM36.11,2.54c0-.4.14-.74.42-1.03.29-.28.63-.42,1.03-.42s.74.14,1.03.43c.28.28.43.63.43,1.03s-.14.74-.43,1.03c-.28.28-.63.43-1.03.42-.4,0-.74-.14-1.03-.43-.28-.28-.43-.63-.42-1.03"/>
    <path class="cls-3" d="M39.95,5.1h2.4v1.1h.03c.08-.16.19-.31.33-.47.14-.15.32-.29.52-.42.2-.12.43-.22.69-.3.26-.08.53-.12.83-.12.57,0,1.07.12,1.51.35.44.24.77.6.99,1.1.29-.52.64-.9,1.05-1.12.41-.22.92-.33,1.52-.33.54,0,1,.09,1.38.28.37.18.67.43.88.75.22.32.37.69.47,1.12.09.43.14.89.14,1.38v4.79s-2.51,0-2.51,0v-4.72c0-.38-.08-.7-.24-.98-.16-.27-.45-.41-.86-.41-.29,0-.53.05-.73.14-.19.09-.35.22-.47.39-.12.17-.2.36-.25.58-.05.22-.07.46-.08.7v4.29s-2.51,0-2.51,0v-4.29c0-.14,0-.32-.01-.53-.01-.21-.05-.41-.12-.6-.07-.19-.18-.35-.33-.48-.15-.13-.37-.2-.66-.2-.32,0-.58.06-.78.17-.2.12-.35.27-.46.47-.11.19-.18.41-.21.66-.03.24-.05.5-.05.77v4.04s-2.51,0-2.51,0V5.1Z"/>
    <path class="cls-3" d="M56.01,9.17c0,.61.17,1.11.52,1.49.35.38.84.57,1.48.57.64,0,1.13-.19,1.48-.56.35-.38.53-.87.53-1.49,0-.61-.17-1.11-.53-1.49-.35-.38-.84-.57-1.48-.57-.63,0-1.12.19-1.48.56-.35.38-.53.87-.53,1.49M53.71,5.11h2.3s0,1.07,0,1.07h.03c.1-.15.23-.29.39-.44.16-.15.35-.29.57-.41.22-.12.45-.22.71-.3.26-.08.53-.12.82-.12.6,0,1.15.1,1.64.31.49.21.91.5,1.26.87.35.37.62.82.81,1.33.19.51.28,1.07.28,1.69,0,.57-.09,1.11-.26,1.63-.17.52-.42.98-.74,1.38-.32.4-.7.72-1.16.96-.46.24-.97.36-1.55.36-.52,0-1.01-.08-1.46-.24-.45-.16-.82-.44-1.11-.83h-.03v4.68s-2.51,0-2.51,0V5.11Z"/>
  </g>
  <rect class="cls-3" x="63.36" y=".61" width="2.5" height="12.63"/>
  <g>
    <path class="cls-3" d="M72.56,8.27c0-.42-.13-.78-.42-1.08-.29-.3-.66-.45-1.12-.45-.28,0-.52.05-.74.13-.21.09-.39.2-.54.34-.15.14-.27.3-.35.48-.08.18-.13.38-.14.58h3.31ZM74.67,11.85c-.4.51-.91.91-1.52,1.18-.61.28-1.25.42-1.9.42-.62,0-1.21-.1-1.76-.3-.55-.2-1.03-.49-1.44-.86-.4-.37-.72-.82-.96-1.34-.23-.52-.35-1.11-.35-1.75,0-.65.12-1.23.35-1.75.23-.52.56-.97.96-1.34.41-.37.89-.66,1.44-.86.55-.2,1.14-.3,1.76-.3.58,0,1.1.1,1.58.3.47.2.87.49,1.2.86.33.37.58.82.76,1.35.18.52.26,1.11.26,1.75v.79s-5.81,0-5.81,0c.1.48.32.86.65,1.14.33.28.74.43,1.23.43.41,0,.76-.09,1.04-.27.28-.18.53-.42.74-.71l1.75,1.29Z"/>
    <path class="cls-3" d="M33.52,4.28c-.21-.27-.5-.46-.86-.59-.36-.13-.71-.19-1.03-.19-.19,0-.38.02-.58.07-.2.04-.39.11-.57.21-.18.09-.32.22-.44.38-.11.15-.17.34-.17.57,0,.36.13.63.4.82.27.19.6.35,1.01.49.4.13.84.27,1.31.4.47.13.9.32,1.31.57.4.25.74.58,1.01.99.27.41.4.96.4,1.65,0,.66-.12,1.23-.37,1.72-.24.49-.58.9-.99,1.22-.42.32-.9.56-1.45.72-.55.16-1.13.23-1.75.23-.77,0-1.48-.12-2.14-.35-.66-.23-1.27-.61-1.84-1.14l1.86-2.04c.27.36.6.63,1.01.83.41.2.83.29,1.26.29.21,0,.43-.03.64-.08.22-.05.41-.12.58-.22.17-.1.31-.23.42-.38.11-.16.16-.34.16-.55,0-.36-.14-.64-.41-.84-.27-.21-.61-.38-1.03-.53-.41-.15-.86-.29-1.34-.44-.48-.14-.92-.34-1.33-.59-.41-.24-.75-.57-1.03-.97-.27-.4-.41-.93-.41-1.59,0-.63.13-1.19.38-1.67.25-.48.58-.88,1-1.2s.9-.56,1.45-.73c.54-.16,1.11-.24,1.69-.24.67,0,1.31.1,1.94.28.62.19,1.18.51,1.69.95l-1.79,1.95Z"/>
    <path class="cls-3" d="M36.3,5.1h2.5s0,8.12,0,8.12h-2.51s0-8.12,0-8.12ZM36.11,2.54c0-.4.14-.74.42-1.03.29-.28.63-.42,1.03-.42s.74.14,1.03.43c.28.28.43.63.43,1.03s-.14.74-.43,1.03c-.28.28-.63.43-1.03.42-.4,0-.74-.14-1.03-.43-.28-.28-.43-.63-.42-1.03"/>
    <path class="cls-3" d="M39.95,5.1h2.4v1.1h.03c.08-.16.19-.31.33-.47.14-.15.32-.29.52-.42.2-.12.43-.22.69-.3.26-.08.53-.12.83-.12.57,0,1.07.12,1.51.35.44.24.77.6.99,1.1.29-.52.64-.9,1.05-1.12.41-.22.92-.33,1.52-.33.54,0,1,.09,1.38.28.37.18.67.43.88.75.22.32.37.69.47,1.12.09.43.14.89.14,1.38v4.79s-2.51,0-2.51,0v-4.72c0-.38-.08-.7-.24-.98-.16-.27-.45-.41-.86-.41-.29,0-.53.05-.73.14-.19.09-.35.22-.47.39-.12.17-.2.36-.25.58-.05.22-.07.46-.08.7v4.29s-2.51,0-2.51,0v-4.29c0-.14,0-.32-.01-.53-.01-.21-.05-.41-.12-.6-.07-.19-.18-.35-.33-.48-.15-.13-.37-.2-.66-.2-.32,0-.58.06-.78.17-.2.12-.35.27-.46.47-.11.19-.18.41-.21.66-.03.24-.05.5-.05.77v4.04s-2.51,0-2.51,0V5.1Z"/>
    <path class="cls-3" d="M56.01,9.17c0,.61.17,1.11.52,1.49.35.38.84.57,1.48.57.64,0,1.13-.19,1.48-.56.35-.38.53-.87.53-1.49,0-.61-.17-1.11-.53-1.49-.35-.38-.84-.57-1.48-.57-.63,0-1.12.19-1.48.56-.35.38-.53.87-.53,1.49M53.71,5.11h2.3s0,1.07,0,1.07h.03c.1-.15.23-.29.39-.44.16-.15.35-.29.57-.41.22-.12.45-.22.71-.3.26-.08.53-.12.82-.12.6,0,1.15.1,1.64.31.49.21.91.5,1.26.87.35.37.62.82.81,1.33.19.51.28,1.07.28,1.69,0,.57-.09,1.11-.26,1.63-.17.52-.42.98-.74,1.38-.32.4-.7.72-1.16.96-.46.24-.97.36-1.55.36-.52,0-1.01-.08-1.46-.24-.45-.16-.82-.44-1.11-.83h-.03v4.68s-2.51,0-2.51,0V5.11Z"/>
  </g>
  <rect class="cls-3" x="63.36" y=".61" width="2.5" height="12.63"/>
  <path class="cls-3" d="M72.56,8.27c0-.42-.13-.78-.42-1.08-.29-.3-.66-.45-1.12-.45-.28,0-.52.05-.74.13-.21.09-.39.2-.54.34-.15.14-.27.3-.35.48-.08.18-.13.38-.14.58h3.31ZM74.67,11.85c-.4.51-.91.91-1.52,1.18-.61.28-1.25.42-1.9.42-.62,0-1.21-.1-1.76-.3-.55-.2-1.03-.49-1.44-.86-.4-.37-.72-.82-.96-1.34-.23-.52-.35-1.11-.35-1.75,0-.65.12-1.23.35-1.75.23-.52.56-.97.96-1.34.41-.37.89-.66,1.44-.86.55-.2,1.14-.3,1.76-.3.58,0,1.1.1,1.58.3.47.2.87.49,1.2.86.33.37.58.82.76,1.35.18.52.26,1.11.26,1.75v.79s-5.81,0-5.81,0c.1.48.32.86.65,1.14.33.28.74.43,1.23.43.41,0,.76-.09,1.04-.27.28-.18.53-.42.74-.71l1.75,1.29Z"/>
  <polygon class="cls-3" points="75.68 2.68 75.68 1.07 75.07 1.06 75.07 .62 76.8 .62 76.8 1.07 76.18 1.07 76.18 2.68 75.68 2.68"/>
  <path class="cls-3" d="M77.16,2.68V.62h.45l.75,1.22h-.32s.76-1.22.76-1.22h.43s0,2.06,0,2.06h-.48v-.64c0-.18,0-.33.01-.48,0-.14.02-.28.04-.42l.06.15-.57.88h-.19l-.56-.88.06-.16c.02.13.04.27.04.4.01.14.01.3.01.49v.64h-.49Z"/>
  <g>
    <path class="cls-2" d="M.61,34.82h1.02l.68,2.71h.01l.88-2.71h.87l.88,2.79h.01l.71-2.79h.94l-1.24,4.23h-.83l-.93-2.93h-.01l-.93,2.93h-.8l-1.25-4.23Z"/>
    <path class="cls-2" d="M8.51,38.69h-.01c-.1.16-.23.27-.4.33-.17.07-.34.1-.52.1-.14,0-.27-.02-.39-.06-.13-.04-.24-.09-.33-.17-.1-.08-.17-.17-.23-.28-.06-.11-.08-.24-.08-.39,0-.17.03-.31.09-.42.06-.12.15-.21.25-.29.11-.08.23-.13.36-.18.14-.04.28-.07.42-.09.15-.02.29-.03.44-.04s.28,0,.4,0c0-.16-.06-.29-.17-.38-.11-.09-.25-.14-.4-.14s-.28.03-.4.09-.23.15-.33.25l-.48-.49c.17-.16.36-.27.59-.35.22-.08.45-.12.69-.12.26,0,.48.03.65.1s.31.16.41.29c.1.13.17.28.21.47.04.19.06.4.06.64v1.48h-.83v-.36ZM8.29,37.78c-.07,0-.15,0-.25,0-.1,0-.2.02-.29.05-.09.03-.17.07-.24.12-.07.06-.1.13-.1.23,0,.11.05.19.14.24s.19.08.29.08c.09,0,.17-.01.25-.04.08-.02.15-.06.22-.1.06-.04.11-.1.15-.17s.06-.15.06-.24v-.19h-.22Z"/>
    <path class="cls-2" d="M9.9,36.15h.9v.47h.01c.1-.18.21-.31.34-.4.13-.09.3-.13.5-.13.05,0,.1,0,.16,0,.05,0,.1.01.14.02v.82c-.06-.02-.13-.04-.19-.04-.06,0-.13-.01-.19-.01-.17,0-.31.02-.41.07s-.18.12-.23.2c-.05.09-.09.19-.1.31-.02.12-.02.25-.02.39v1.21h-.9v-2.91Z"/>
    <path class="cls-2" d="M14.98,38.55c-.14.18-.32.32-.54.42s-.45.15-.68.15c-.22,0-.43-.04-.63-.11-.2-.07-.37-.17-.51-.31s-.26-.29-.34-.48c-.08-.19-.13-.4-.13-.63s.04-.44.13-.63c.08-.19.2-.35.34-.48.15-.13.32-.24.51-.31.2-.07.41-.11.63-.11.21,0,.4.04.56.11.17.07.31.17.43.31.12.13.21.29.27.48.06.19.1.4.1.63v.28h-2.08c.04.17.11.31.23.41s.27.15.44.15c.15,0,.27-.03.37-.1.1-.07.19-.15.27-.25l.63.46ZM14.22,37.27c0-.15-.05-.28-.15-.39s-.24-.16-.4-.16c-.1,0-.19.02-.26.05s-.14.07-.19.12c-.05.05-.1.11-.13.17-.03.07-.05.13-.05.21h1.18Z"/>
    <path class="cls-2" d="M16.56,34.53v2.01h.01c.02-.06.05-.11.1-.17s.11-.11.17-.15c.07-.04.15-.08.24-.11.09-.03.19-.04.3-.04.23,0,.41.04.55.1.14.07.25.17.33.29.08.12.13.27.16.44.03.17.04.35.04.54v1.6h-.9v-1.42c0-.08,0-.17,0-.26s-.02-.17-.05-.25c-.03-.08-.08-.14-.14-.19-.06-.05-.15-.07-.27-.07s-.21.02-.28.06-.13.1-.16.17c-.04.07-.06.15-.07.24-.01.09-.02.18-.02.28v1.45h-.9v-4.52h.9Z"/>
    <path class="cls-2" d="M18.99,37.6c0-.23.04-.44.13-.63.08-.19.2-.35.34-.48.15-.13.32-.24.51-.31.2-.07.41-.11.63-.11s.43.04.63.11c.2.07.37.17.51.31.15.13.26.29.34.48.08.19.13.4.13.63s-.04.44-.13.63c-.08.19-.2.35-.34.48s-.32.24-.51.31c-.2.07-.41.11-.63.11s-.43-.04-.63-.11c-.2-.07-.37-.17-.51-.31s-.26-.29-.34-.48c-.08-.19-.13-.4-.13-.63ZM19.88,37.6c0,.22.06.4.19.53.13.14.3.2.53.2s.4-.07.53-.2c.13-.13.19-.31.19-.53s-.06-.4-.19-.53-.3-.2-.53-.2-.4.07-.53.2-.19.31-.19.53Z"/>
    <path class="cls-2" d="M25.54,39.05h-.86v-.39h-.01c-.03.06-.07.11-.12.17-.05.06-.11.11-.18.15-.07.04-.15.08-.25.11-.09.03-.19.04-.3.04-.23,0-.41-.03-.55-.1-.14-.07-.25-.17-.33-.29-.08-.12-.13-.27-.16-.44-.03-.17-.04-.35-.04-.54v-1.6h.9v1.42c0,.08,0,.17,0,.26,0,.09.02.17.05.25.03.08.08.14.14.19.06.05.15.07.27.07s.21-.02.28-.06.13-.1.16-.17c.04-.07.06-.15.07-.24.01-.09.02-.18.02-.27v-1.45h.9v2.91Z"/>
    <path class="cls-2" d="M27.81,37c-.13-.16-.3-.25-.52-.25-.08,0-.15.02-.22.05-.07.04-.11.1-.11.18,0,.07.04.12.11.16.07.03.17.06.28.09.11.03.23.05.36.08.13.03.25.08.36.14.11.06.21.15.28.26.07.11.11.26.11.44s-.04.34-.12.46c-.08.12-.19.22-.31.29-.13.07-.27.13-.43.16-.16.03-.32.04-.47.04-.2,0-.41-.03-.62-.09s-.38-.16-.53-.31l.54-.6c.08.1.18.18.28.24s.22.08.36.08c.1,0,.2-.02.28-.04.08-.03.13-.08.13-.17,0-.08-.04-.13-.11-.17s-.17-.07-.28-.1c-.11-.03-.24-.05-.36-.08-.13-.03-.25-.07-.36-.13-.11-.06-.21-.14-.28-.25-.07-.11-.11-.26-.11-.44,0-.17.03-.32.1-.44.07-.12.16-.23.27-.3.11-.08.24-.14.39-.18s.3-.06.45-.06c.19,0,.38.03.58.08s.36.16.5.3l-.55.54Z"/>
    <path class="cls-2" d="M31.69,38.55c-.14.18-.32.32-.54.42s-.45.15-.68.15c-.22,0-.43-.04-.63-.11-.2-.07-.37-.17-.51-.31s-.26-.29-.34-.48c-.08-.19-.13-.4-.13-.63s.04-.44.13-.63c.08-.19.2-.35.34-.48.15-.13.32-.24.51-.31.2-.07.41-.11.63-.11.21,0,.4.04.56.11.17.07.31.17.43.31.12.13.21.29.27.48.06.19.1.4.1.63v.28h-2.08c.04.17.11.31.23.41s.27.15.44.15c.15,0,.27-.03.37-.1.1-.07.19-.15.27-.25l.63.46ZM30.93,37.27c0-.15-.05-.28-.15-.39s-.24-.16-.4-.16c-.1,0-.19.02-.26.05s-.14.07-.19.12c-.05.05-.1.11-.13.17-.03.07-.05.13-.05.21h1.18Z"/>
    <path class="cls-2" d="M36.34,35.85c-.08-.09-.18-.17-.31-.21-.13-.05-.25-.07-.37-.07-.07,0-.14,0-.21.02-.07.02-.14.04-.2.08-.06.03-.12.08-.16.13-.04.06-.06.12-.06.2,0,.13.05.22.14.29.1.07.22.13.36.17.15.05.3.1.47.14.17.05.32.12.47.2.15.09.27.21.36.35s.14.34.14.59-.04.44-.13.62-.21.32-.36.44c-.15.12-.32.2-.52.26-.2.06-.41.08-.62.08-.27,0-.53-.04-.77-.12-.23-.08-.45-.22-.66-.41l.66-.73c.1.13.22.23.36.3.15.07.3.1.45.1.08,0,.15,0,.23-.03.08-.02.15-.04.21-.08.06-.04.11-.08.15-.14.04-.06.06-.12.06-.2,0-.13-.05-.23-.15-.3-.1-.07-.22-.14-.37-.19s-.31-.1-.48-.16-.33-.12-.48-.21c-.15-.09-.27-.2-.37-.35s-.15-.33-.15-.57.04-.43.13-.6c.09-.17.21-.31.36-.43.15-.12.32-.2.52-.26s.4-.09.6-.09c.24,0,.47.03.69.1.22.07.42.18.6.34l-.64.7Z"/>
    <path class="cls-2" d="M40.37,39.05h-.86v-.39h-.01c-.03.06-.07.11-.12.17-.05.06-.11.11-.18.15-.07.04-.15.08-.25.11-.09.03-.19.04-.3.04-.23,0-.41-.03-.55-.1-.14-.07-.25-.17-.33-.29-.08-.12-.13-.27-.16-.44-.03-.17-.04-.35-.04-.54v-1.6h.9v1.42c0,.08,0,.17,0,.26,0,.09.02.17.05.25.03.08.08.14.14.19.06.05.15.07.27.07s.21-.02.28-.06.13-.1.16-.17c.04-.07.06-.15.07-.24.01-.09.02-.18.02-.27v-1.45h.9v2.91Z"/>
    <path class="cls-2" d="M40.94,35.23c0-.14.05-.27.15-.37.1-.1.22-.15.37-.15s.27.05.37.15c.1.1.15.22.15.37s-.05.27-.15.37-.22.15-.37.15-.27-.05-.37-.15c-.1-.1-.15-.22-.15-.37ZM41.01,36.15h.9v2.91h-.9v-2.91Z"/>
    <path class="cls-2" d="M44.53,36.87h-.79v.97c0,.08,0,.15.01.22,0,.07.03.12.05.17s.07.08.13.11c.06.03.13.04.23.04.05,0,.11,0,.19-.01.08,0,.14-.03.18-.07v.75c-.1.04-.2.06-.31.07s-.21.02-.32.02c-.15,0-.29-.02-.42-.05-.13-.03-.24-.08-.33-.15-.1-.07-.17-.16-.22-.27s-.08-.25-.08-.41v-1.38h-.57v-.72h.57v-.86h.9v.86h.79v.72Z"/>
    <path class="cls-2" d="M47.74,38.55c-.14.18-.32.32-.54.42s-.45.15-.68.15c-.22,0-.43-.04-.63-.11-.2-.07-.37-.17-.51-.31s-.26-.29-.34-.48c-.08-.19-.13-.4-.13-.63s.04-.44.13-.63c.08-.19.2-.35.34-.48.15-.13.32-.24.51-.31.2-.07.41-.11.63-.11.21,0,.4.04.56.11.17.07.31.17.43.31.12.13.21.29.27.48.06.19.1.4.1.63v.28h-2.08c.04.17.11.31.23.41s.27.15.44.15c.15,0,.27-.03.37-.1.1-.07.19-.15.27-.25l.63.46ZM46.98,37.27c0-.15-.05-.28-.15-.39s-.24-.16-.4-.16c-.1,0-.19.02-.26.05s-.14.07-.19.12c-.05.05-.1.11-.13.17-.03.07-.05.13-.05.21h1.18Z"/>
    <path class="cls-2" d="M50.06,37c-.13-.16-.3-.25-.52-.25-.08,0-.15.02-.22.05-.07.04-.11.1-.11.18,0,.07.04.12.11.16.07.03.17.06.28.09.11.03.23.05.36.08.13.03.25.08.36.14.11.06.21.15.28.26.07.11.11.26.11.44s-.04.34-.12.46c-.08.12-.19.22-.31.29-.13.07-.27.13-.43.16-.16.03-.32.04-.47.04-.2,0-.41-.03-.62-.09s-.38-.16-.53-.31l.54-.6c.08.1.18.18.28.24s.22.08.36.08c.1,0,.2-.02.28-.04.08-.03.13-.08.13-.17,0-.08-.04-.13-.11-.17s-.17-.07-.28-.1c-.11-.03-.24-.05-.36-.08-.13-.03-.25-.07-.36-.13-.11-.06-.21-.14-.28-.25-.07-.11-.11-.26-.11-.44,0-.17.03-.32.1-.44.07-.12.16-.23.27-.3.11-.08.24-.14.39-.18s.3-.06.45-.06c.19,0,.38.03.58.08s.36.16.5.3l-.55.54Z"/>
    <path class="cls-2" d="M53.68,34.57v5.98h-.75v-5.98h.75Z"/>
    <path class="cls-2" d="M56.2,34.82h.93v3.37h1.73v.86h-2.66v-4.23Z"/>
    <path class="cls-2" d="M61.08,38.69h-.01c-.1.16-.23.27-.4.33-.17.07-.34.1-.52.1-.14,0-.27-.02-.39-.06-.13-.04-.24-.09-.33-.17-.1-.08-.17-.17-.23-.28-.06-.11-.08-.24-.08-.39,0-.17.03-.31.09-.42.06-.12.15-.21.25-.29.11-.08.23-.13.36-.18.14-.04.28-.07.42-.09.15-.02.29-.03.44-.04s.28,0,.4,0c0-.16-.06-.29-.17-.38-.11-.09-.25-.14-.4-.14s-.28.03-.4.09-.23.15-.33.25l-.48-.49c.17-.16.36-.27.59-.35.22-.08.45-.12.69-.12.26,0,.48.03.65.1s.31.16.41.29c.1.13.17.28.21.47.04.19.06.4.06.64v1.48h-.83v-.36ZM60.86,37.78c-.07,0-.15,0-.25,0-.1,0-.2.02-.29.05-.09.03-.17.07-.24.12-.07.06-.1.13-.1.23,0,.11.05.19.14.24s.19.08.29.08c.09,0,.17-.01.25-.04.08-.02.15-.06.22-.1.06-.04.11-.1.15-.17s.06-.15.06-.24v-.19h-.22Z"/>
    <path class="cls-2" d="M64.11,37c-.13-.16-.3-.25-.52-.25-.08,0-.15.02-.22.05-.07.04-.11.1-.11.18,0,.07.04.12.11.16.07.03.17.06.28.09.11.03.23.05.36.08.13.03.25.08.36.14.11.06.21.15.28.26.07.11.11.26.11.44s-.04.34-.12.46c-.08.12-.19.22-.31.29-.13.07-.27.13-.43.16-.16.03-.32.04-.47.04-.2,0-.41-.03-.62-.09s-.38-.16-.53-.31l.54-.6c.08.1.18.18.28.24s.22.08.36.08c.1,0,.2-.02.28-.04.08-.03.13-.08.13-.17,0-.08-.04-.13-.11-.17s-.17-.07-.28-.1c-.11-.03-.24-.05-.36-.08-.13-.03-.25-.07-.36-.13-.11-.06-.21-.14-.28-.25-.07-.11-.11-.26-.11-.44,0-.17.03-.32.1-.44.07-.12.16-.23.27-.3.11-.08.24-.14.39-.18s.3-.06.45-.06c.19,0,.38.03.58.08s.36.16.5.3l-.55.54Z"/>
    <path class="cls-2" d="M67.21,36.87h-.79v.97c0,.08,0,.15.01.22,0,.07.03.12.05.17s.07.08.13.11c.06.03.13.04.23.04.05,0,.11,0,.19-.01.08,0,.14-.03.18-.07v.75c-.1.04-.2.06-.31.07s-.21.02-.32.02c-.15,0-.29-.02-.42-.05-.13-.03-.24-.08-.33-.15-.1-.07-.17-.16-.22-.27s-.08-.25-.08-.41v-1.38h-.57v-.72h.57v-.86h.9v.86h.79v.72Z"/>
    <path class="cls-2" d="M69.55,34.82h1.41l.97,2.76h.01l.98-2.76h1.4v4.23h-.93v-3.25h-.01l-1.11,3.25h-.71l-1.07-3.25h-.01v3.25h-.93v-4.23Z"/>
    <path class="cls-2" d="M75.02,35.23c0-.14.05-.27.15-.37.1-.1.22-.15.37-.15s.27.05.37.15c.1.1.15.22.15.37s-.05.27-.15.37-.22.15-.37.15-.27-.05-.37-.15c-.1-.1-.15-.22-.15-.37ZM75.09,36.15h.9v2.91h-.9v-2.91Z"/>
    <path class="cls-2" d="M76.65,34.53h.9v4.52h-.9v-4.52Z"/>
    <path class="cls-2" d="M80.94,38.55c-.14.18-.32.32-.54.42s-.45.15-.68.15c-.22,0-.43-.04-.63-.11-.2-.07-.37-.17-.51-.31s-.26-.29-.34-.48c-.08-.19-.13-.4-.13-.63s.04-.44.13-.63c.08-.19.2-.35.34-.48.15-.13.32-.24.51-.31.2-.07.41-.11.63-.11.21,0,.4.04.56.11.17.07.31.17.43.31.12.13.21.29.27.48.06.19.1.4.1.63v.28h-2.08c.04.17.11.31.23.41s.27.15.44.15c.15,0,.27-.03.37-.1.1-.07.19-.15.27-.25l.63.46ZM80.18,37.27c0-.15-.05-.28-.15-.39s-.24-.16-.4-.16c-.1,0-.19.02-.26.05s-.14.07-.19.12c-.05.05-.1.11-.13.17-.03.07-.05.13-.05.21h1.18Z"/>
    <path class="cls-2" d="M84.11,34.57v5.98h-.75v-5.98h.75Z"/>
  </g>
  <g>
    <path class="cls-2" d="M1.08,41.99h2.84v.86h-1.91v.86h1.76v.86h-1.76v1.65h-.93v-4.23Z"/>
    <path class="cls-2" d="M4.49,41.71h.9v4.52h-.9v-4.52Z"/>
    <path class="cls-2" d="M8.78,45.72c-.14.18-.32.32-.54.42s-.45.15-.68.15c-.22,0-.43-.04-.63-.11-.2-.07-.37-.17-.51-.31s-.26-.29-.34-.48c-.08-.19-.13-.4-.13-.63s.04-.44.13-.63c.08-.19.2-.35.34-.48.15-.13.32-.24.51-.31.2-.07.41-.11.63-.11.21,0,.4.04.56.11.17.07.31.17.43.31.12.13.21.29.27.48.06.19.1.4.1.63v.28h-2.08c.04.17.11.31.23.41s.27.15.44.15c.15,0,.27-.03.37-.1.1-.07.19-.15.27-.25l.63.46ZM8.02,44.44c0-.15-.05-.28-.15-.39s-.24-.16-.4-.16c-.1,0-.19.02-.26.05s-.14.07-.19.12c-.05.05-.1.11-.13.17-.03.07-.05.13-.05.21h1.18Z"/>
    <path class="cls-2" d="M10.25,44.67l-.97-1.35h1.06l.51.79.5-.79h1l-.94,1.35,1.12,1.55h-1.06l-.63-.97-.68.97h-1.05l1.15-1.55Z"/>
    <path class="cls-2" d="M14.71,41.99h.93v3.37h1.73v.86h-2.66v-4.23Z"/>
    <path class="cls-2" d="M20.52,45.72c-.14.18-.32.32-.54.42s-.45.15-.68.15c-.22,0-.43-.04-.63-.11-.2-.07-.37-.17-.51-.31s-.26-.29-.34-.48c-.08-.19-.13-.4-.13-.63s.04-.44.13-.63c.08-.19.2-.35.34-.48.15-.13.32-.24.51-.31.2-.07.41-.11.63-.11.21,0,.4.04.56.11.17.07.31.17.43.31.12.13.21.29.27.48.06.19.1.4.1.63v.28h-2.08c.04.17.11.31.23.41s.27.15.44.15c.15,0,.27-.03.37-.1.1-.07.19-.15.27-.25l.63.46ZM19.76,44.44c0-.15-.05-.28-.15-.39s-.24-.16-.4-.16c-.1,0-.19.02-.26.05s-.14.07-.19.12c-.05.05-.1.11-.13.17-.03.07-.05.13-.05.21h1.18Z"/>
    <path class="cls-2" d="M23.02,45.86h-.01c-.1.16-.23.27-.4.33-.17.07-.34.1-.52.1-.14,0-.27-.02-.39-.06-.13-.04-.24-.09-.33-.17-.1-.08-.17-.17-.23-.28-.06-.11-.08-.24-.08-.39,0-.17.03-.31.09-.42.06-.12.15-.21.25-.29.11-.08.23-.13.36-.18.14-.04.28-.07.42-.09.15-.02.29-.03.44-.04s.28,0,.4,0c0-.16-.06-.29-.17-.38-.11-.09-.25-.14-.4-.14s-.28.03-.4.09-.23.15-.33.25l-.48-.49c.17-.16.36-.27.59-.35.22-.08.45-.12.69-.12.26,0,.48.03.65.1s.31.16.41.29c.1.13.17.28.21.47.04.19.06.4.06.64v1.48h-.83v-.36ZM22.8,44.95c-.07,0-.15,0-.25,0-.1,0-.2.02-.29.05-.09.03-.17.07-.24.12-.07.06-.1.13-.1.23,0,.11.05.19.14.24s.19.08.29.08c.09,0,.17-.01.25-.04.08-.02.15-.06.22-.1.06-.04.11-.1.15-.17s.06-.15.06-.24v-.19h-.22Z"/>
    <path class="cls-2" d="M26.05,44.18c-.13-.16-.3-.25-.52-.25-.08,0-.15.02-.22.05-.07.04-.11.1-.11.18,0,.07.04.12.11.16.07.03.17.06.28.09.11.03.23.05.36.08.13.03.25.08.36.14.11.06.21.15.28.26.07.11.11.26.11.44s-.04.34-.12.46c-.08.12-.19.22-.31.29-.13.07-.27.13-.43.16-.16.03-.32.04-.47.04-.2,0-.41-.03-.62-.09s-.38-.16-.53-.31l.54-.6c.08.1.18.18.28.24s.22.08.36.08c.1,0,.2-.02.28-.04.08-.03.13-.08.13-.17,0-.08-.04-.13-.11-.17s-.17-.07-.28-.1c-.11-.03-.24-.05-.36-.08-.13-.03-.25-.07-.36-.13-.11-.06-.21-.14-.28-.25-.07-.11-.11-.26-.11-.44,0-.17.03-.32.1-.44.07-.12.16-.23.27-.3.11-.08.24-.14.39-.18s.3-.06.45-.06c.19,0,.38.03.58.08s.36.16.5.3l-.55.54Z"/>
    <path class="cls-2" d="M27.11,42.41c0-.14.05-.27.15-.37.1-.1.22-.15.37-.15s.27.05.37.15c.1.1.15.22.15.37s-.05.27-.15.37-.22.15-.37.15-.27-.05-.37-.15c-.1-.1-.15-.22-.15-.37ZM27.19,43.32h.9v2.91h-.9v-2.91Z"/>
    <path class="cls-2" d="M28.73,43.32h.86v.39h.01c.03-.06.07-.11.12-.17s.11-.11.19-.15.15-.08.25-.11c.09-.03.19-.04.3-.04.23,0,.41.04.55.1.14.07.25.17.33.29.08.12.13.27.16.44.03.17.04.35.04.54v1.6h-.9v-1.42c0-.08,0-.17,0-.26s-.02-.17-.05-.25c-.03-.08-.08-.14-.14-.19-.06-.05-.15-.07-.27-.07s-.21.02-.28.06-.13.1-.16.17c-.04.07-.06.15-.07.24-.01.09-.02.18-.02.28v1.45h-.9v-2.91Z"/>
    <path class="cls-2" d="M35.21,45.98c0,.55-.14.97-.42,1.25-.28.29-.7.43-1.26.43-.26,0-.51-.03-.77-.09s-.48-.17-.69-.34l.5-.74c.14.12.29.21.44.28s.32.1.5.1c.27,0,.48-.07.61-.2s.19-.3.19-.51v-.28h-.01c-.1.14-.23.24-.39.3-.15.06-.3.09-.43.09-.22,0-.41-.04-.59-.11-.18-.07-.33-.18-.45-.31-.13-.13-.22-.29-.29-.47-.07-.18-.1-.38-.1-.6,0-.19.03-.38.09-.56.06-.18.15-.34.26-.48.11-.14.25-.25.42-.34.16-.09.35-.13.56-.13.13,0,.24.01.35.04.11.03.2.06.28.11.08.04.16.09.21.15.06.05.11.11.14.16h.01v-.38h.82v2.66ZM32.95,44.76c0,.1.02.19.05.27.04.09.09.16.15.23.07.07.14.12.23.16.09.04.18.06.28.06s.19-.02.28-.06c.09-.04.16-.09.23-.16.07-.07.12-.14.15-.23.04-.09.05-.18.05-.27s-.02-.19-.05-.27c-.04-.09-.09-.16-.15-.23-.07-.07-.14-.12-.23-.16-.09-.04-.18-.06-.28-.06-.1,0-.2.02-.28.06-.09.04-.16.09-.23.16-.07.07-.12.14-.15.23-.04.09-.05.18-.05.27Z"/>
    <path class="cls-2" d="M38.42,41.74v5.98h-.75v-5.98h.75Z"/>
    <path class="cls-2" d="M43,43.03c-.08-.09-.18-.17-.31-.21-.13-.05-.25-.07-.37-.07-.07,0-.14,0-.21.02-.07.02-.14.04-.2.08-.06.03-.12.08-.16.13-.04.06-.06.12-.06.2,0,.13.05.22.14.29.1.07.22.13.36.17.15.05.3.1.47.14.17.05.32.12.47.2.15.09.27.21.36.35s.14.34.14.59-.04.44-.13.62-.21.32-.36.44c-.15.12-.32.2-.52.26-.2.06-.41.08-.62.08-.27,0-.53-.04-.77-.12-.23-.08-.45-.22-.66-.41l.66-.73c.1.13.22.23.36.3.15.07.3.1.45.1.08,0,.15,0,.23-.03.08-.02.15-.04.21-.08.06-.04.11-.08.15-.14.04-.06.06-.12.06-.2,0-.13-.05-.23-.15-.3-.1-.07-.22-.14-.37-.19s-.31-.1-.48-.16-.33-.12-.48-.21c-.15-.09-.27-.2-.37-.35s-.15-.33-.15-.57.04-.43.13-.6c.09-.17.21-.31.36-.43.15-.12.32-.2.52-.26s.4-.09.6-.09c.24,0,.47.03.69.1.22.07.42.18.6.34l-.64.7Z"/>
    <path class="cls-2" d="M45.12,41.71v2.01h.01c.02-.06.05-.11.1-.17s.11-.11.17-.15c.07-.04.15-.08.24-.11.09-.03.19-.04.3-.04.23,0,.41.04.55.1.14.07.25.17.33.29.08.12.13.27.16.44.03.17.04.35.04.54v1.6h-.9v-1.42c0-.08,0-.17,0-.26s-.02-.17-.05-.25c-.03-.08-.08-.14-.14-.19-.06-.05-.15-.07-.27-.07s-.21.02-.28.06-.13.1-.16.17c-.04.07-.06.15-.07.24-.01.09-.02.18-.02.28v1.45h-.9v-4.52h.9Z"/>
    <path class="cls-2" d="M47.54,44.77c0-.23.04-.44.13-.63.08-.19.2-.35.34-.48.15-.13.32-.24.51-.31.2-.07.41-.11.63-.11s.43.04.63.11c.2.07.37.17.51.31.15.13.26.29.34.48.08.19.13.4.13.63s-.04.44-.13.63c-.08.19-.2.35-.34.48s-.32.24-.51.31c-.2.07-.41.11-.63.11s-.43-.04-.63-.11c-.2-.07-.37-.17-.51-.31s-.26-.29-.34-.48c-.08-.19-.13-.4-.13-.63ZM48.44,44.77c0,.22.06.4.19.53.13.14.3.2.53.2s.4-.07.53-.2c.13-.13.19-.31.19-.53s-.06-.4-.19-.53-.3-.2-.53-.2-.4.07-.53.2-.19.31-.19.53Z"/>
    <path class="cls-2" d="M51.3,43.32h.9v.47h.01c.1-.18.21-.31.34-.4.13-.09.3-.13.5-.13.05,0,.1,0,.16,0,.05,0,.1.01.14.02v.82c-.06-.02-.13-.04-.19-.04-.06,0-.13-.01-.19-.01-.17,0-.31.02-.41.07s-.18.12-.23.2c-.05.09-.09.19-.1.31-.02.12-.02.25-.02.39v1.21h-.9v-2.91Z"/>
    <path class="cls-2" d="M55.71,44.04h-.79v.97c0,.08,0,.15.01.22,0,.07.03.12.05.17s.07.08.13.11c.06.03.13.04.23.04.05,0,.11,0,.19-.01.08,0,.14-.03.18-.07v.75c-.1.04-.2.06-.31.07s-.21.02-.32.02c-.15,0-.29-.02-.42-.05-.13-.03-.24-.08-.33-.15-.1-.07-.17-.16-.22-.27s-.08-.25-.08-.41v-1.38h-.57v-.72h.57v-.86h.9v.86h.79v.72Z"/>
    <path class="cls-2" d="M57.47,45.1h-1.47v-.72h1.47v.72Z"/>
    <path class="cls-2" d="M58.86,42.82h-1.21v-.82h3.35v.82h-1.21v3.41h-.93v-3.41Z"/>
    <path class="cls-2" d="M63.45,45.72c-.14.18-.32.32-.54.42s-.45.15-.68.15c-.22,0-.43-.04-.63-.11-.2-.07-.37-.17-.51-.31s-.26-.29-.34-.48c-.08-.19-.13-.4-.13-.63s.04-.44.13-.63c.08-.19.2-.35.34-.48.15-.13.32-.24.51-.31.2-.07.41-.11.63-.11.21,0,.4.04.56.11.17.07.31.17.43.31.12.13.21.29.27.48.06.19.1.4.1.63v.28h-2.08c.04.17.11.31.23.41s.27.15.44.15c.15,0,.27-.03.37-.1.1-.07.19-.15.27-.25l.63.46ZM62.7,44.44c0-.15-.05-.28-.15-.39s-.24-.16-.4-.16c-.1,0-.19.02-.26.05s-.14.07-.19.12c-.05.05-.1.11-.13.17-.03.07-.05.13-.05.21h1.18Z"/>
    <path class="cls-2" d="M64.14,43.32h.9v.47h.01c.1-.18.21-.31.34-.4.13-.09.3-.13.5-.13.05,0,.1,0,.16,0,.05,0,.1.01.14.02v.82c-.06-.02-.13-.04-.19-.04-.06,0-.13-.01-.19-.01-.17,0-.31.02-.41.07s-.18.12-.23.2c-.05.09-.09.19-.1.31-.02.12-.02.25-.02.39v1.21h-.9v-2.91Z"/>
    <path class="cls-2" d="M66.67,43.32h.86v.39h.01c.03-.06.07-.11.12-.17s.11-.11.19-.15.15-.08.25-.11c.09-.03.19-.04.3-.04.2,0,.38.04.54.12.16.08.28.22.36.39.1-.19.23-.32.38-.4.15-.08.33-.12.54-.12.19,0,.36.03.49.1.13.07.24.16.32.27.08.11.13.25.17.4.03.15.05.32.05.49v1.72h-.9v-1.69c0-.14-.03-.25-.09-.35-.06-.1-.16-.15-.31-.15-.1,0-.19.02-.26.05-.07.03-.13.08-.17.14-.04.06-.07.13-.09.21s-.03.16-.03.25v1.54h-.9v-1.54c0-.05,0-.12,0-.19,0-.08-.02-.15-.04-.21-.02-.07-.06-.13-.12-.17s-.13-.07-.24-.07c-.12,0-.21.02-.28.06s-.13.1-.16.17c-.04.07-.06.15-.07.24-.01.09-.02.18-.02.28v1.45h-.9v-2.91Z"/>
    <path class="cls-2" d="M73.53,44.11c0-.34.06-.65.17-.92.11-.28.27-.51.48-.7.2-.19.44-.34.72-.45.28-.1.58-.16.91-.16s.64.05.91.16c.28.1.52.25.72.45.2.19.36.43.48.7.11.27.17.58.17.92s-.06.65-.17.92c-.11.27-.27.51-.48.7-.2.19-.44.34-.72.45s-.58.16-.91.16-.64-.05-.91-.16c-.28-.1-.52-.25-.72-.45s-.36-.43-.48-.7c-.11-.28-.17-.58-.17-.92ZM74.49,44.11c0,.2.03.38.09.55.06.17.15.31.27.43.12.12.25.22.42.28.16.07.34.1.54.1s.38-.03.54-.1c.16-.07.3-.16.42-.28.12-.12.2-.26.27-.43.06-.17.09-.35.09-.55s-.03-.38-.09-.54c-.06-.17-.15-.31-.27-.43-.12-.12-.25-.22-.42-.28-.16-.07-.34-.1-.54-.1s-.38.03-.54.1c-.16.07-.3.16-.42.28-.12.12-.2.27-.27.43-.06.17-.09.35-.09.54Z"/>
    <path class="cls-2" d="M80.58,44.26c-.04-.06-.11-.12-.19-.16-.08-.04-.17-.06-.26-.06-.23,0-.4.07-.53.2s-.19.31-.19.53.06.4.19.53c.13.14.3.2.53.2.1,0,.19-.02.26-.07s.13-.1.19-.16l.59.62c-.14.14-.3.24-.49.3s-.37.09-.54.09c-.22,0-.43-.04-.63-.11-.2-.07-.37-.17-.51-.31s-.26-.29-.34-.48c-.08-.19-.13-.4-.13-.63s.04-.44.13-.63c.08-.19.2-.35.34-.48.15-.13.32-.24.51-.31.2-.07.41-.11.63-.11.17,0,.35.03.54.09s.35.16.49.3l-.59.62Z"/>
    <path class="cls-2" d="M83.46,44.26c-.04-.06-.11-.12-.19-.16-.08-.04-.17-.06-.26-.06-.23,0-.4.07-.53.2s-.19.31-.19.53.06.4.19.53c.13.14.3.2.53.2.1,0,.19-.02.26-.07s.13-.1.19-.16l.59.62c-.14.14-.3.24-.49.3s-.37.09-.54.09c-.22,0-.43-.04-.63-.11-.2-.07-.37-.17-.51-.31s-.26-.29-.34-.48c-.08-.19-.13-.4-.13-.63s.04-.44.13-.63c.08-.19.2-.35.34-.48.15-.13.32-.24.51-.31.2-.07.41-.11.63-.11.17,0,.35.03.54.09s.35.16.49.3l-.59.62Z"/>
    <path class="cls-2" d="M87.17,46.23h-.86v-.39h-.01c-.03.06-.07.11-.12.17-.05.06-.11.11-.18.15-.07.04-.15.08-.25.11-.09.03-.19.04-.3.04-.23,0-.41-.03-.55-.1-.14-.07-.25-.17-.33-.29-.08-.12-.13-.27-.16-.44-.03-.17-.04-.35-.04-.54v-1.6h.9v1.42c0,.08,0,.17,0,.26,0,.09.02.17.05.25.03.08.08.14.14.19.06.05.15.07.27.07s.21-.02.28-.06.13-.1.16-.17c.04-.07.06-.15.07-.24.01-.09.02-.18.02-.27v-1.45h.9v2.91Z"/>
    <path class="cls-2" d="M87.89,43.32h.82v.38h.01c.04-.05.08-.1.14-.16.06-.05.13-.1.2-.15s.16-.08.25-.11c.09-.03.19-.04.29-.04.22,0,.41.04.59.11.18.07.33.18.45.31.13.13.22.29.29.48.07.18.1.38.1.6,0,.2-.03.4-.09.58-.06.19-.15.35-.26.49-.11.14-.25.26-.42.34-.16.09-.35.13-.56.13-.19,0-.36-.03-.52-.09-.16-.06-.29-.16-.4-.3h-.01v1.67h-.9v-4.27ZM88.71,44.77c0,.22.06.4.19.53.13.14.3.2.53.2s.4-.07.53-.2c.13-.13.19-.31.19-.53s-.06-.4-.19-.53-.3-.2-.53-.2-.4.07-.53.2-.19.31-.19.53Z"/>
    <path class="cls-2" d="M93.39,45.86h-.01c-.1.16-.23.27-.4.33-.17.07-.34.1-.52.1-.14,0-.27-.02-.39-.06-.13-.04-.24-.09-.33-.17-.1-.08-.17-.17-.23-.28-.06-.11-.08-.24-.08-.39,0-.17.03-.31.09-.42.06-.12.15-.21.25-.29.11-.08.23-.13.36-.18.14-.04.28-.07.42-.09.15-.02.29-.03.44-.04s.28,0,.4,0c0-.16-.06-.29-.17-.38-.11-.09-.25-.14-.4-.14s-.28.03-.4.09-.23.15-.33.25l-.48-.49c.17-.16.36-.27.59-.35.22-.08.45-.12.69-.12.26,0,.48.03.65.1s.31.16.41.29c.1.13.17.28.21.47.04.19.06.4.06.64v1.48h-.83v-.36ZM93.17,44.95c-.07,0-.15,0-.25,0-.1,0-.2.02-.29.05-.09.03-.17.07-.24.12-.07.06-.1.13-.1.23,0,.11.05.19.14.24s.19.08.29.08c.09,0,.17-.01.25-.04.08-.02.15-.06.22-.1.06-.04.11-.1.15-.17s.06-.15.06-.24v-.19h-.22Z"/>
    <path class="cls-2" d="M94.78,43.32h.86v.39h.01c.03-.06.07-.11.12-.17s.11-.11.19-.15.15-.08.25-.11c.09-.03.19-.04.3-.04.23,0,.41.04.55.1.14.07.25.17.33.29.08.12.13.27.16.44.03.17.04.35.04.54v1.6h-.9v-1.42c0-.08,0-.17,0-.26s-.02-.17-.05-.25c-.03-.08-.08-.14-.14-.19-.06-.05-.15-.07-.27-.07s-.21.02-.28.06-.13.1-.16.17c-.04.07-.06.15-.07.24-.01.09-.02.18-.02.28v1.45h-.9v-2.91Z"/>
    <path class="cls-2" d="M100.18,44.26c-.04-.06-.11-.12-.19-.16-.08-.04-.17-.06-.26-.06-.23,0-.4.07-.53.2s-.19.31-.19.53.06.4.19.53c.13.14.3.2.53.2.1,0,.19-.02.26-.07s.13-.1.19-.16l.59.62c-.14.14-.3.24-.49.3s-.37.09-.54.09c-.22,0-.43-.04-.63-.11-.2-.07-.37-.17-.51-.31s-.26-.29-.34-.48c-.08-.19-.13-.4-.13-.63s.04-.44.13-.63c.08-.19.2-.35.34-.48.15-.13.32-.24.51-.31.2-.07.41-.11.63-.11.17,0,.35.03.54.09s.35.16.49.3l-.59.62Z"/>
    <path class="cls-2" d="M102.77,46.7c-.06.16-.12.29-.17.41-.06.12-.13.22-.21.3-.09.08-.19.14-.33.19-.13.04-.31.06-.52.06-.23,0-.45-.04-.67-.11l.12-.74c.14.06.28.09.42.09.1,0,.18-.01.25-.03.06-.02.12-.05.16-.1.04-.04.08-.09.1-.15s.06-.13.09-.21l.07-.17-1.27-2.93h.97l.75,1.92h.01l.64-1.92h.92l-1.31,3.38Z"/>
    <path class="cls-2" d="M106.91,41.74v5.98h-.75v-5.98h.75Z"/>
  </g>
</svg>