<?xml version="1.0" encoding="UTF-8"?>
<svg id="Layer_1" data-name="Layer 1" xmlns="http://www.w3.org/2000/svg" viewBox="0 0 127.61 49.14">
  <defs>
    <style>
      .cls-1 {
        fill: #232156;
      }

      .cls-1, .cls-2 {
        stroke-width: 0px;
      }

      .cls-2 {
        fill: #218299;
      }
    </style>
  </defs>
  <g>
    <path class="cls-1" d="M28.53,4.72c-.21-.27-.5-.46-.86-.59-.36-.13-.7-.19-1.03-.19-.19,0-.38.02-.58.07-.2.04-.39.11-.57.21-.18.09-.32.22-.43.38-.11.15-.17.34-.17.57,0,.36.13.63.4.82.27.19.6.35,1.01.48.41.13.84.27,1.31.4.47.13.9.32,1.31.57.4.25.74.57,1.01.99.27.41.4.96.4,1.65,0,.66-.12,1.23-.37,1.72-.25.49-.58.9-.99,1.22-.42.32-.9.56-1.45.72-.55.16-1.13.23-1.74.23-.77,0-1.48-.12-2.14-.35-.66-.23-1.27-.61-1.83-1.14l1.85-2.03c.27.36.6.63,1.01.83.4.19.82.29,1.26.29.21,0,.43-.02.64-.07.22-.05.41-.12.59-.22.17-.1.31-.23.42-.38.11-.16.16-.34.16-.55,0-.35-.14-.64-.41-.84-.27-.21-.61-.38-1.03-.53-.41-.15-.86-.29-1.33-.44-.48-.14-.92-.34-1.33-.59-.41-.24-.75-.57-1.03-.97-.27-.4-.41-.93-.41-1.59,0-.63.13-1.19.38-1.67.25-.48.58-.88,1-1.2.42-.32.9-.56,1.45-.72.54-.16,1.11-.24,1.68-.24.67,0,1.31.1,1.94.28.62.19,1.18.51,1.68.95l-1.79,1.95Z"/>
    <path class="cls-1" d="M31.31,5.54h2.5s0,8.11,0,8.11h-2.5s0-8.11,0-8.11ZM31.12,2.99c0-.4.14-.74.43-1.03.28-.28.63-.42,1.03-.42s.74.14,1.03.43c.28.28.43.63.43,1.03,0,.4-.14.74-.43,1.03-.28.28-.62.43-1.03.42-.4,0-.74-.14-1.03-.43-.28-.28-.43-.63-.42-1.03"/>
    <path class="cls-1" d="M34.95,5.54h2.4s0,1.1,0,1.1h.03c.08-.16.19-.31.33-.47.14-.16.32-.29.52-.42.2-.12.43-.22.68-.3.26-.08.53-.12.83-.12.57,0,1.07.12,1.51.35.44.23.77.6.99,1.1.29-.52.64-.89,1.05-1.12.41-.22.92-.33,1.52-.33.54,0,1,.09,1.37.28.37.18.67.43.88.75.22.32.37.69.46,1.12.09.43.14.89.14,1.37v4.79s-2.51,0-2.51,0v-4.72c0-.38-.08-.7-.24-.98-.16-.27-.45-.41-.86-.41-.29,0-.53.05-.73.14-.2.09-.35.22-.47.39-.12.17-.2.36-.25.58-.05.22-.07.46-.07.7v4.29s-2.51,0-2.51,0v-4.29c0-.14,0-.32-.01-.53-.01-.21-.05-.41-.12-.6-.07-.19-.17-.35-.33-.48-.15-.13-.37-.2-.66-.2-.32,0-.58.06-.78.17-.2.12-.35.27-.46.47s-.18.41-.21.66c-.03.24-.05.5-.05.77v4.04s-2.51,0-2.51,0V5.54Z"/>
    <path class="cls-1" d="M50.99,9.61c0,.61.17,1.11.52,1.49.35.38.84.57,1.48.57.63,0,1.13-.19,1.48-.57.35-.38.53-.87.53-1.48,0-.61-.17-1.11-.52-1.49-.35-.38-.84-.57-1.48-.57-.63,0-1.13.19-1.48.56-.35.38-.53.87-.53,1.48M48.7,5.55h2.3s0,1.07,0,1.07h.03c.1-.14.23-.29.39-.44.16-.15.35-.29.57-.41.22-.12.45-.22.71-.3.26-.08.53-.12.82-.12.6,0,1.15.1,1.63.31.49.21.91.5,1.26.87.35.37.62.81.81,1.33.19.51.28,1.07.28,1.68,0,.57-.09,1.11-.26,1.63-.17.52-.42.98-.74,1.38-.32.4-.7.72-1.16.96s-.97.36-1.55.36c-.52,0-1.01-.08-1.46-.24-.45-.16-.82-.44-1.11-.83h-.03v4.67s-2.51,0-2.51,0V5.55Z"/>
  </g>
  <rect class="cls-1" x="58.34" y="1.06" width="2.5" height="12.61"/>
  <path class="cls-1" d="M67.53,8.71c.01-.42-.13-.78-.42-1.09-.29-.3-.66-.45-1.12-.45-.28,0-.52.04-.73.13-.21.09-.39.2-.54.34-.15.14-.27.3-.35.48-.08.18-.13.38-.14.58h3.3ZM69.64,12.28c-.4.51-.91.91-1.52,1.18-.61.28-1.25.41-1.9.41-.62,0-1.21-.1-1.76-.3-.55-.2-1.03-.49-1.43-.86-.4-.37-.72-.82-.96-1.34-.23-.52-.35-1.11-.35-1.75,0-.65.12-1.23.35-1.75.23-.52.56-.97.96-1.34.41-.37.89-.66,1.44-.86.55-.2,1.14-.3,1.76-.3.58,0,1.1.1,1.58.3.47.2.87.49,1.2.86.33.37.58.82.76,1.34.18.52.27,1.11.27,1.75v.78s-5.81,0-5.81,0c.1.48.32.86.65,1.14.33.28.74.43,1.23.43.41,0,.76-.09,1.04-.27.28-.18.53-.42.74-.71l1.75,1.29Z"/>
  <polygon class="cls-1" points="70.05 1.03 70.05 1.47 70.66 1.47 70.66 3.09 71.16 3.09 71.16 1.48 71.79 1.48 71.79 1.04 70.05 1.03"/>
  <path class="cls-1" d="M72.14,3.09V1.04h.45l.75,1.22h-.32s.76-1.22.76-1.22h.43s0,2.06,0,2.06h-.48s0-.64,0-.64c0-.18,0-.33.01-.48,0-.14.02-.28.05-.42l.06.15-.57.88h-.19l-.56-.88.06-.16c.02.13.04.27.04.4,0,.14.01.3.01.49v.64h-.48Z"/>
  <g>
    <path class="cls-1" d="M30.59,22.44c-.25-.31-.56-.54-.93-.71s-.79-.25-1.27-.25-.93.09-1.34.28-.77.45-1.07.78c-.3.33-.54.73-.71,1.19s-.25.96-.25,1.49.08,1.05.25,1.5.4.85.7,1.18.64.59,1.04.78.83.28,1.29.28c.53,0,.99-.11,1.4-.33.4-.22.74-.53,1-.92l2.13,1.59c-.49.69-1.12,1.2-1.87,1.53-.76.33-1.53.49-2.33.49-.91,0-1.75-.14-2.51-.43-.77-.29-1.43-.69-1.99-1.22s-.99-1.17-1.31-1.93c-.31-.76-.47-1.6-.47-2.53s.16-1.77.47-2.53c.31-.76.75-1.4,1.31-1.93.56-.53,1.22-.94,1.99-1.22.77-.28,1.6-.43,2.51-.43.33,0,.67.03,1.03.09s.71.16,1.05.29c.34.13.68.31.99.53.32.22.6.49.85.8l-1.97,1.61Z"/>
    <path class="cls-1" d="M33.3,25.23c0-.93.16-1.77.47-2.53s.75-1.4,1.31-1.93c.56-.53,1.22-.94,1.99-1.22.77-.28,1.6-.43,2.51-.43s1.75.14,2.51.43c.77.29,1.43.69,1.99,1.22.56.53.99,1.17,1.31,1.93.31.76.47,1.6.47,2.53s-.16,1.77-.47,2.53c-.31.76-.75,1.4-1.31,1.93-.56.53-1.22.94-1.99,1.22-.77.28-1.6.43-2.51.43s-1.75-.14-2.51-.43c-.77-.29-1.43-.69-1.99-1.22s-.99-1.17-1.31-1.93-.47-1.6-.47-2.53ZM35.96,25.23c0,.55.09,1.05.25,1.5.17.45.41.85.73,1.18.32.33.7.59,1.14.78s.94.28,1.49.28,1.04-.09,1.49-.28.82-.45,1.14-.78.56-.73.73-1.18.25-.96.25-1.5-.09-1.03-.25-1.49-.41-.86-.73-1.19-.7-.59-1.14-.78-.94-.28-1.49-.28-1.04.09-1.49.28-.82.45-1.14.78c-.32.33-.56.73-.73,1.19-.17.46-.25.96-.25,1.49Z"/>
    <path class="cls-1" d="M47.27,19.42h3.87l2.68,7.58h.03l2.69-7.58h3.86v11.62h-2.56v-8.91h-.03l-3.05,8.91h-1.95l-2.94-8.91h-.03v8.91h-2.56v-11.62Z"/>
    <path class="cls-1" d="M62.46,19.42h4.32c.6,0,1.17.06,1.71.16s1,.3,1.4.57.72.63.95,1.08c.24.45.35,1.03.35,1.72s-.11,1.25-.33,1.71c-.22.46-.52.83-.9,1.1-.38.27-.84.47-1.36.58-.53.12-1.09.17-1.71.17h-1.87v4.53h-2.56v-11.62ZM65.02,24.35h1.71c.23,0,.45-.02.66-.07.21-.04.4-.12.57-.22.17-.1.31-.25.41-.43.1-.18.16-.41.16-.68,0-.3-.07-.53-.21-.71-.14-.18-.31-.32-.53-.42-.21-.1-.45-.16-.71-.19s-.51-.04-.76-.04h-1.31v2.76Z"/>
    <path class="cls-1" d="M82.6,26.56c0,.69-.1,1.32-.31,1.9-.21.58-.52,1.08-.93,1.51-.41.43-.92.76-1.54,1-.61.24-1.32.36-2.12.36s-1.52-.12-2.13-.36-1.12-.57-1.54-1c-.41-.43-.72-.93-.93-1.51-.21-.58-.31-1.21-.31-1.9v-7.14h2.56v7.04c0,.36.06.7.17,1,.12.31.28.57.48.8.21.22.46.4.75.53.29.13.6.19.94.19s.65-.06.94-.19.53-.3.74-.53c.21-.22.37-.49.48-.8.11-.31.17-.64.17-1v-7.04h2.56v7.14Z"/>
    <path class="cls-1" d="M87.54,21.69h-3.32v-2.27h9.19v2.27h-3.32v9.36h-2.56v-9.36Z"/>
    <path class="cls-1" d="M94.81,19.42h7.9v2.36h-5.34v2.17h5.04v2.36h-5.04v2.36h5.63v2.36h-8.19v-11.62Z"/>
  </g>
  <g>
    <path class="cls-1" d="M.85,35.21h1.27l1.8,2.94h.01v-2.94h.93v4.23h-1.22l-1.85-3.01h-.01v3.01h-.93v-4.23Z"/>
    <path class="cls-1" d="M5.3,36.54h.97l.74,1.97h.01l.68-1.97h.9l-1.15,2.9h-.95l-1.2-2.9Z"/>
    <path class="cls-1" d="M8.87,35.62c0-.14.05-.27.15-.37.1-.1.22-.15.37-.15s.27.05.37.15.15.22.15.37-.05.27-.15.37c-.1.1-.22.15-.37.15s-.27-.05-.37-.15c-.1-.1-.15-.22-.15-.37ZM8.94,36.54h.89v2.9h-.89v-2.9Z"/>
    <path class="cls-1" d="M13.53,39.44h-.83v-.38h-.01c-.04.05-.08.1-.14.16-.06.05-.12.1-.2.15-.08.04-.16.08-.26.11-.09.03-.19.04-.29.04-.22,0-.41-.04-.59-.11-.18-.07-.33-.18-.45-.31-.13-.13-.22-.29-.29-.47s-.1-.39-.1-.6c0-.2.03-.4.09-.58.06-.19.15-.35.26-.49s.25-.26.42-.34.35-.13.56-.13c.19,0,.36.03.52.09.16.06.29.16.4.3h.01v-1.92h.9v4.52ZM12.71,37.99c0-.22-.06-.4-.19-.53s-.3-.2-.53-.2-.4.07-.53.2c-.13.14-.19.31-.19.53s.06.4.19.53c.12.14.3.2.53.2s.4-.07.53-.2.19-.31.19-.53Z"/>
    <path class="cls-1" d="M14.19,35.62c0-.14.05-.27.15-.37.1-.1.22-.15.37-.15s.27.05.37.15.15.22.15.37-.05.27-.15.37c-.1.1-.22.15-.37.15s-.27-.05-.37-.15c-.1-.1-.15-.22-.15-.37ZM14.26,36.54h.89v2.9h-.89v-2.9Z"/>
    <path class="cls-1" d="M17.62,39.08h-.01c-.1.16-.23.27-.4.33-.16.07-.34.1-.52.1-.14,0-.27-.02-.39-.06-.12-.04-.24-.09-.33-.17-.1-.08-.17-.17-.23-.28-.06-.11-.08-.24-.08-.39,0-.17.03-.31.09-.42s.15-.21.25-.29c.11-.07.23-.13.36-.18s.28-.07.42-.09c.14-.02.29-.03.44-.04.15,0,.28,0,.4,0,0-.16-.06-.29-.17-.38-.11-.09-.25-.14-.4-.14s-.28.03-.4.09c-.12.06-.23.15-.33.25l-.48-.49c.17-.16.36-.27.59-.35.22-.08.45-.12.69-.12.26,0,.48.03.65.1.17.07.31.16.41.29.1.13.17.28.21.47.04.19.06.4.06.64v1.48h-.82v-.36ZM17.4,38.17c-.07,0-.15,0-.25,0-.1,0-.2.02-.29.05-.09.03-.17.07-.24.13-.06.06-.1.13-.1.23,0,.11.05.19.14.24.09.05.19.08.29.08.09,0,.17-.01.25-.04.08-.02.15-.06.22-.1s.11-.1.15-.17c.04-.07.06-.15.06-.24v-.19h-.22Z"/>
    <path class="cls-1" d="M22.28,35.21h.77l1.84,4.23h-1.05l-.37-.9h-1.64l-.35.9h-1.03l1.83-4.23ZM22.64,36.44l-.51,1.31h1.03l-.52-1.31Z"/>
    <path class="cls-1" d="M25.15,35.62c0-.14.05-.27.15-.37.1-.1.22-.15.37-.15s.27.05.37.15c.1.1.15.22.15.37s-.05.27-.15.37-.22.15-.37.15-.27-.05-.37-.15c-.1-.1-.15-.22-.15-.37ZM25.22,36.54h.9v2.9h-.9v-2.9Z"/>
    <path class="cls-1" d="M28.68,35.21h2.84v.86h-1.91v.86h1.76v.86h-1.76v1.65h-.93v-4.23Z"/>
    <path class="cls-1" d="M33.89,39.08h-.01c-.1.16-.23.27-.4.33s-.34.1-.52.1c-.14,0-.27-.02-.39-.06-.12-.04-.24-.09-.33-.17-.1-.08-.17-.17-.23-.28s-.08-.24-.08-.39c0-.17.03-.31.09-.42.06-.12.15-.21.25-.29.11-.07.23-.13.36-.18s.28-.07.42-.09.29-.03.44-.04c.14,0,.28,0,.4,0,0-.16-.06-.29-.17-.38s-.25-.14-.4-.14-.28.03-.4.09c-.12.06-.23.15-.33.25l-.48-.49c.17-.16.36-.27.58-.35.22-.08.45-.12.69-.12.26,0,.48.03.65.1.17.07.3.16.41.29.1.13.17.28.21.47.04.19.06.4.06.64v1.48h-.83v-.36ZM33.67,38.17c-.07,0-.15,0-.25,0-.1,0-.2.02-.29.05-.09.03-.17.07-.24.13s-.1.13-.1.23c0,.11.05.19.14.24.09.05.19.08.29.08.09,0,.17-.01.25-.04s.15-.06.22-.1c.06-.04.11-.1.15-.17.04-.07.06-.15.06-.24v-.19h-.22Z"/>
    <path class="cls-1" d="M37.25,37.48c-.04-.06-.11-.12-.19-.16-.08-.04-.17-.06-.26-.06-.23,0-.4.07-.53.2-.12.14-.19.31-.19.53s.06.4.19.53c.13.14.3.2.53.2.1,0,.19-.02.26-.07.07-.04.13-.1.19-.16l.59.62c-.14.14-.3.24-.49.3-.19.06-.37.09-.54.09-.22,0-.43-.04-.63-.11-.2-.07-.37-.17-.51-.31-.15-.13-.26-.29-.34-.48-.08-.19-.13-.4-.13-.63s.04-.44.13-.63c.08-.19.2-.35.34-.48.14-.13.32-.24.51-.31.2-.07.41-.11.63-.11.17,0,.35.03.54.09.19.06.35.16.49.3l-.59.62Z"/>
    <path class="cls-1" d="M40.14,37.25h-.79v.97c0,.08,0,.15.01.22s.02.12.05.17c.03.05.07.08.13.11s.13.04.23.04c.05,0,.11,0,.19-.01.08,0,.14-.03.18-.07v.75c-.1.04-.2.06-.31.07-.11.01-.21.02-.32.02-.15,0-.29-.02-.42-.05-.13-.03-.24-.08-.34-.15s-.17-.16-.22-.27c-.05-.11-.08-.25-.08-.41v-1.38h-.57v-.72h.57v-.86h.9v.86h.79v.72Z"/>
    <path class="cls-1" d="M40.48,37.99c0-.23.04-.44.13-.63.08-.19.2-.35.34-.48.15-.13.32-.24.51-.31.2-.07.41-.11.63-.11s.43.04.63.11.37.17.51.31c.15.13.26.29.34.48s.13.4.13.63-.04.44-.13.63-.2.35-.34.48c-.14.13-.32.24-.51.31-.2.07-.41.11-.63.11s-.43-.04-.63-.11c-.2-.07-.37-.17-.51-.31s-.26-.29-.34-.48c-.08-.19-.13-.4-.13-.63ZM41.38,37.99c0,.22.06.4.19.53s.3.2.53.2.4-.07.53-.2c.12-.14.19-.31.19-.53s-.06-.4-.19-.53c-.13-.14-.3-.2-.53-.2s-.4.07-.53.2-.19.31-.19.53Z"/>
    <path class="cls-1" d="M44.24,36.54h.9v.47h.01c.1-.18.21-.31.34-.4.13-.09.3-.13.5-.13.05,0,.1,0,.15,0,.05,0,.1.01.14.02v.82c-.06-.02-.13-.03-.19-.04-.06-.01-.13-.01-.19-.01-.17,0-.31.02-.41.07-.1.05-.18.12-.23.2-.05.09-.09.19-.11.31-.02.12-.02.25-.02.39v1.21h-.9v-2.9Z"/>
    <path class="cls-1" d="M48.34,39.91c-.06.16-.12.29-.17.41s-.13.22-.21.3c-.09.08-.19.14-.33.19s-.3.06-.52.06c-.23,0-.45-.04-.67-.11l.12-.74c.14.06.27.09.42.09.1,0,.18-.01.25-.03.06-.02.12-.05.16-.1s.08-.09.1-.15c.03-.06.06-.13.09-.21l.07-.17-1.27-2.93h.97l.75,1.92h.01l.64-1.92h.92l-1.31,3.38Z"/>
    <path class="cls-1" d="M52.48,34.96v5.97h-.75v-5.97h.75Z"/>
    <path class="cls-1" d="M55.01,35.21h2.87v.86h-1.94v.79h1.83v.86h-1.83v.86h2.05v.86h-2.98v-4.23Z"/>
    <path class="cls-1" d="M58.62,36.54h.86v.39h.01c.03-.06.07-.11.12-.17.05-.06.11-.11.19-.15s.15-.08.25-.11c.09-.03.19-.04.3-.04.23,0,.41.03.55.1s.25.17.33.29c.08.12.13.27.16.44.03.17.04.35.04.54v1.6h-.9v-1.42c0-.08,0-.17,0-.26s-.02-.17-.05-.25c-.03-.07-.07-.14-.14-.19-.06-.05-.15-.07-.27-.07s-.21.02-.28.06-.13.1-.16.17-.06.15-.07.24c-.01.09-.02.18-.02.28v1.45h-.9v-2.9Z"/>
    <path class="cls-1" d="M64.03,37.25h-.79v.97c0,.08,0,.15.01.22s.03.12.05.17.07.08.13.11c.06.03.13.04.23.04.05,0,.11,0,.19-.01.08,0,.14-.03.18-.07v.75c-.1.04-.2.06-.31.07-.11.01-.21.02-.32.02-.15,0-.29-.02-.42-.05s-.24-.08-.34-.15-.17-.16-.22-.27c-.05-.11-.08-.25-.08-.41v-1.38h-.57v-.72h.57v-.86h.9v.86h.79v.72Z"/>
    <path class="cls-1" d="M67.23,38.94c-.14.18-.32.32-.54.42-.22.1-.45.15-.68.15s-.43-.04-.63-.11c-.2-.07-.37-.17-.51-.31s-.26-.29-.34-.48-.13-.4-.13-.63.04-.44.13-.63.2-.35.34-.48c.15-.13.32-.24.51-.31.2-.07.41-.11.63-.11.21,0,.4.04.56.11s.31.17.43.31c.12.13.21.29.27.48.06.19.1.4.1.63v.28h-2.08c.04.17.11.31.23.41.12.1.27.15.44.15.15,0,.27-.03.37-.1.1-.07.19-.15.27-.25l.63.46ZM66.47,37.66c0-.15-.05-.28-.15-.39-.1-.11-.24-.16-.4-.16-.1,0-.19.02-.26.05-.07.03-.14.07-.19.12-.05.05-.1.11-.13.17s-.05.13-.05.21h1.18Z"/>
    <path class="cls-1" d="M67.91,36.54h.9v.47h.01c.1-.18.21-.31.34-.4.13-.09.3-.13.5-.13.05,0,.1,0,.15,0,.05,0,.1.01.14.02v.82c-.06-.02-.13-.03-.19-.04-.06-.01-.13-.01-.19-.01-.17,0-.31.02-.41.07-.1.05-.18.12-.23.2-.05.09-.09.19-.11.31-.02.12-.02.25-.02.39v1.21h-.9v-2.9Z"/>
    <path class="cls-1" d="M70.43,36.54h.82v.38h.01c.04-.05.08-.1.14-.16s.13-.1.2-.15c.08-.04.16-.08.25-.11s.19-.04.29-.04c.21,0,.41.04.58.11s.33.18.45.31c.12.13.22.29.29.48s.1.38.1.6c0,.2-.03.4-.09.58s-.15.35-.26.49c-.11.14-.25.26-.42.34-.16.09-.35.13-.56.13-.19,0-.36-.03-.52-.09-.16-.06-.29-.16-.4-.3h-.01v1.67h-.9v-4.27ZM71.25,37.99c0,.22.06.4.19.53.12.14.3.2.53.2s.4-.07.53-.2c.12-.14.19-.31.19-.53s-.06-.4-.19-.53c-.13-.14-.3-.2-.53-.2s-.4.07-.53.2c-.13.14-.19.31-.19.53Z"/>
    <path class="cls-1" d="M74.11,36.54h.9v.47h.01c.1-.18.21-.31.34-.4.13-.09.3-.13.5-.13.05,0,.1,0,.15,0,.05,0,.1.01.14.02v.82c-.06-.02-.13-.03-.19-.04-.06-.01-.13-.01-.19-.01-.17,0-.31.02-.41.07-.1.05-.18.12-.23.2-.05.09-.09.19-.11.31-.02.12-.02.25-.02.39v1.21h-.9v-2.9Z"/>
    <path class="cls-1" d="M76.48,35.62c0-.14.05-.27.15-.37.1-.1.22-.15.37-.15s.27.05.37.15.15.22.15.37-.05.27-.15.37c-.1.1-.22.15-.37.15s-.27-.05-.37-.15c-.1-.1-.15-.22-.15-.37ZM76.55,36.54h.89v2.9h-.89v-2.9Z"/>
    <path class="cls-1" d="M79.74,37.39c-.13-.16-.3-.25-.52-.25-.07,0-.15.02-.22.05-.07.04-.11.1-.11.19,0,.07.04.12.11.16.07.03.17.06.28.09.11.03.24.05.37.08.13.03.25.08.36.14.11.06.21.15.28.26.07.11.11.26.11.44s-.04.34-.12.46c-.08.12-.19.22-.31.29-.13.07-.27.12-.43.16-.16.03-.32.04-.47.04-.2,0-.41-.03-.62-.09-.21-.06-.38-.16-.53-.31l.54-.6c.08.1.18.18.28.24s.22.08.36.08c.1,0,.2-.01.28-.04.08-.03.12-.08.12-.16,0-.07-.04-.13-.11-.17-.07-.04-.17-.07-.28-.1-.11-.03-.24-.05-.36-.08-.13-.03-.25-.07-.36-.14-.11-.06-.21-.14-.28-.25-.07-.11-.11-.26-.11-.44,0-.17.03-.32.11-.44.07-.12.16-.22.27-.3.11-.08.24-.14.39-.18.15-.04.3-.06.45-.06.19,0,.39.03.58.08.19.06.36.16.5.3l-.55.54Z"/>
    <path class="cls-1" d="M83.61,38.94c-.14.18-.32.32-.54.42-.22.1-.45.15-.68.15s-.43-.04-.63-.11c-.2-.07-.37-.17-.51-.31-.15-.13-.26-.29-.34-.48-.08-.19-.13-.4-.13-.63s.04-.44.13-.63c.08-.19.2-.35.34-.48.14-.13.32-.24.51-.31s.41-.11.63-.11c.21,0,.4.04.57.11.17.07.31.17.43.31.12.13.21.29.27.48.06.19.1.4.1.63v.28h-2.08c.04.17.11.31.23.41.12.1.27.15.44.15.15,0,.27-.03.37-.1.1-.07.19-.15.27-.25l.63.46ZM82.85,37.66c0-.15-.05-.28-.15-.39-.1-.11-.24-.16-.4-.16-.1,0-.19.02-.26.05-.08.03-.14.07-.19.12-.05.05-.1.11-.13.17-.03.07-.05.13-.05.21h1.18Z"/>
    <path class="cls-1" d="M86.17,35.21h1.57c.22,0,.43.02.62.06.2.04.37.11.51.21.14.1.26.23.35.39.09.17.13.37.13.62s-.04.45-.12.62c-.08.17-.19.3-.33.4-.14.1-.31.17-.5.21-.19.04-.4.06-.62.06h-.68v1.65h-.93v-4.23ZM87.1,37h.62c.08,0,.16,0,.24-.02.08-.02.15-.04.21-.08.06-.04.11-.09.15-.16.04-.07.06-.15.06-.25,0-.11-.02-.19-.07-.26-.05-.07-.11-.12-.19-.15-.08-.04-.16-.06-.26-.07-.1,0-.19-.01-.27-.01h-.48v1Z"/>
    <path class="cls-1" d="M89.82,36.54h.89v.47h.01c.1-.18.21-.31.34-.4.13-.09.3-.13.5-.13.05,0,.1,0,.16,0,.05,0,.1.01.14.02v.82c-.06-.02-.13-.03-.19-.04s-.13-.01-.19-.01c-.17,0-.31.02-.41.07-.1.05-.18.12-.23.2s-.09.19-.1.31c-.02.12-.02.25-.02.39v1.21h-.89v-2.9Z"/>
    <path class="cls-1" d="M92.19,35.62c0-.14.05-.27.15-.37.1-.1.22-.15.37-.15s.27.05.37.15c.1.1.15.22.15.37s-.05.27-.15.37-.22.15-.37.15-.27-.05-.37-.15c-.1-.1-.15-.22-.15-.37ZM92.27,36.54h.9v2.9h-.9v-2.9Z"/>
    <path class="cls-1" d="M93.5,36.54h.97l.73,1.97h.01l.68-1.97h.9l-1.15,2.9h-.95l-1.2-2.9Z"/>
    <path class="cls-1" d="M98.95,39.08h-.01c-.1.16-.23.27-.4.33s-.34.1-.52.1c-.14,0-.27-.02-.39-.06-.12-.04-.24-.09-.33-.17-.1-.08-.17-.17-.23-.28s-.08-.24-.08-.39c0-.17.03-.31.09-.42.06-.12.15-.21.25-.29.11-.07.23-.13.36-.18s.28-.07.42-.09.29-.03.44-.04c.14,0,.28,0,.4,0,0-.16-.06-.29-.17-.38s-.25-.14-.4-.14-.28.03-.4.09c-.12.06-.23.15-.33.25l-.48-.49c.17-.16.36-.27.58-.35.22-.08.45-.12.69-.12.26,0,.48.03.65.1.17.07.3.16.41.29.1.13.17.28.21.47.04.19.06.4.06.64v1.48h-.83v-.36ZM98.73,38.17c-.07,0-.15,0-.25,0-.1,0-.2.02-.29.05-.09.03-.17.07-.24.13s-.1.13-.1.23c0,.11.05.19.14.24.09.05.19.08.29.08.09,0,.17-.01.25-.04s.15-.06.22-.1c.06-.04.11-.1.15-.17.04-.07.06-.15.06-.24v-.19h-.22Z"/>
    <path class="cls-1" d="M102.32,37.25h-.79v.97c0,.08,0,.15.01.22s.03.12.05.17.07.08.13.11c.06.03.13.04.23.04.05,0,.11,0,.19-.01.08,0,.14-.03.18-.07v.75c-.1.04-.2.06-.31.07-.11.01-.21.02-.32.02-.15,0-.29-.02-.42-.05s-.24-.08-.34-.15-.17-.16-.22-.27c-.05-.11-.08-.25-.08-.41v-1.38h-.57v-.72h.57v-.86h.9v.86h.79v.72Z"/>
    <path class="cls-1" d="M105.52,38.94c-.14.18-.32.32-.54.42-.22.1-.45.15-.68.15s-.43-.04-.63-.11c-.2-.07-.37-.17-.51-.31s-.26-.29-.34-.48-.13-.4-.13-.63.04-.44.13-.63.2-.35.34-.48c.15-.13.32-.24.51-.31.2-.07.41-.11.63-.11.21,0,.4.04.56.11s.31.17.43.31c.12.13.21.29.27.48.06.19.1.4.1.63v.28h-2.08c.04.17.11.31.23.41.12.1.27.15.44.15.15,0,.27-.03.37-.1.1-.07.19-.15.27-.25l.63.46ZM104.76,37.66c0-.15-.05-.28-.15-.39-.1-.11-.24-.16-.4-.16-.1,0-.19.02-.26.05-.07.03-.14.07-.19.12-.05.05-.1.11-.13.17s-.05.13-.05.21h1.18Z"/>
    <path class="cls-1" d="M110.85,36.31c-.09-.11-.2-.2-.34-.26-.13-.06-.29-.09-.46-.09s-.34.03-.49.1c-.15.07-.28.16-.39.28-.11.12-.2.27-.26.43-.06.17-.09.35-.09.54s.03.38.09.55c.06.17.15.31.25.43.11.12.23.22.38.28.14.07.3.1.47.1.19,0,.36-.04.51-.12.15-.08.27-.19.36-.34l.78.58c-.18.25-.41.44-.68.56s-.56.18-.85.18c-.33,0-.63-.05-.91-.16-.28-.1-.52-.25-.72-.45-.2-.19-.36-.43-.48-.7s-.17-.58-.17-.92.06-.65.17-.92.27-.51.48-.7c.2-.19.44-.34.72-.45.28-.1.58-.16.91-.16.12,0,.24.01.37.03.13.02.26.06.38.11s.25.11.36.19c.12.08.22.18.31.29l-.72.58Z"/>
    <path class="cls-1" d="M112.07,34.92h.9v4.52h-.9v-4.52Z"/>
    <path class="cls-1" d="M113.51,37.99c0-.23.04-.44.13-.63.08-.19.2-.35.34-.48.15-.13.32-.24.51-.31.2-.07.41-.11.63-.11s.43.04.63.11.37.17.51.31c.15.13.26.29.34.48s.13.4.13.63-.04.44-.13.63-.2.35-.34.48c-.14.13-.32.24-.51.31-.2.07-.41.11-.63.11s-.43-.04-.63-.11c-.2-.07-.37-.17-.51-.31s-.26-.29-.34-.48c-.08-.19-.13-.4-.13-.63ZM114.4,37.99c0,.22.06.4.19.53s.3.2.53.2.4-.07.53-.2c.12-.14.19-.31.19-.53s-.06-.4-.19-.53c-.13-.14-.3-.2-.53-.2s-.4.07-.53.2-.19.31-.19.53Z"/>
    <path class="cls-1" d="M120.06,39.44h-.86v-.39h-.01c-.03.06-.07.11-.12.17-.05.06-.11.11-.18.15-.07.04-.15.08-.24.11-.09.03-.19.04-.3.04-.23,0-.41-.04-.55-.11-.14-.07-.25-.17-.33-.29-.08-.12-.13-.27-.16-.44s-.04-.35-.04-.54v-1.6h.9v1.42c0,.08,0,.17,0,.26,0,.09.02.17.05.25.03.08.08.14.14.19.06.05.15.07.27.07s.21-.02.28-.06c.07-.04.13-.1.16-.17.04-.07.06-.15.07-.24.01-.09.02-.18.02-.27v-1.45h.9v2.9Z"/>
    <path class="cls-1" d="M123.74,39.44h-.82v-.38h-.01c-.04.05-.08.1-.14.16-.06.05-.13.1-.2.15-.08.04-.16.08-.26.11-.09.03-.19.04-.29.04-.22,0-.41-.04-.59-.11-.17-.07-.32-.18-.45-.31s-.22-.29-.29-.47c-.07-.18-.1-.39-.1-.6,0-.2.03-.4.09-.58s.15-.35.26-.49c.11-.14.25-.26.42-.34.16-.09.35-.13.56-.13.19,0,.36.03.52.09.16.06.29.16.4.3h.01v-1.92h.89v4.52ZM122.91,37.99c0-.22-.06-.4-.19-.53-.13-.14-.3-.2-.53-.2s-.4.07-.53.2-.19.31-.19.53.06.4.19.53.3.2.53.2.4-.07.53-.2c.12-.14.19-.31.19-.53Z"/>
    <path class="cls-1" d="M126.95,34.96v5.97h-.75v-5.97h.75Z"/>
  </g>
  <g>
    <path class="cls-1" d="M.85,42.38h.93v1.58h1.81v-1.58h.93v4.23h-.93v-1.83h-1.81v1.83h-.93v-4.23Z"/>
    <path class="cls-1" d="M6.95,47.08c-.06.16-.12.29-.17.41-.06.12-.13.22-.21.3-.09.08-.19.14-.33.19-.13.04-.3.06-.52.06-.23,0-.45-.04-.67-.11l.12-.74c.14.06.27.09.42.09.1,0,.18-.01.24-.03.06-.02.12-.05.16-.1s.08-.09.11-.15c.03-.06.06-.13.09-.21l.07-.17-1.27-2.93h.97l.75,1.92h.01l.64-1.92h.92l-1.31,3.38Z"/>
    <path class="cls-1" d="M8.68,43.71h.83v.38h.01c.04-.05.08-.1.14-.16.06-.05.12-.1.2-.15.08-.04.16-.08.25-.11s.19-.04.29-.04c.21,0,.41.04.58.11.18.07.33.18.45.31.13.13.22.29.29.48.07.18.1.38.1.6,0,.2-.03.4-.09.58-.06.19-.15.35-.26.49-.11.14-.25.26-.41.34-.16.09-.35.13-.56.13-.19,0-.36-.03-.52-.09-.16-.06-.29-.16-.4-.3h-.01v1.67h-.9v-4.27ZM9.5,45.16c0,.22.06.4.19.53s.3.2.53.2.4-.07.53-.2c.13-.14.19-.31.19-.53s-.06-.4-.19-.53c-.12-.14-.3-.2-.53-.2s-.4.07-.53.2-.19.31-.19.53Z"/>
    <path class="cls-1" d="M15.11,46.11c-.14.18-.32.32-.54.42-.22.1-.45.15-.68.15-.22,0-.43-.04-.63-.11-.2-.07-.37-.17-.51-.31s-.26-.29-.34-.48-.12-.4-.12-.63.04-.44.12-.63.2-.35.34-.48c.15-.13.32-.24.51-.31s.41-.11.63-.11c.21,0,.4.04.56.11.17.07.31.17.43.31.12.13.21.29.27.48s.1.4.1.63v.28h-2.08c.04.17.11.31.23.41s.27.15.44.15c.15,0,.27-.03.37-.1.1-.07.19-.15.27-.25l.63.46ZM14.35,44.83c0-.15-.05-.28-.15-.39-.1-.11-.24-.16-.4-.16-.1,0-.19.02-.26.05-.08.03-.14.07-.19.12-.05.05-.1.11-.12.17-.03.07-.05.13-.05.21h1.18Z"/>
    <path class="cls-1" d="M15.79,43.71h.89v.47h.01c.1-.18.21-.31.34-.4.13-.09.3-.13.5-.13.05,0,.1,0,.16,0,.05,0,.1.01.14.02v.82c-.06-.02-.13-.03-.19-.04s-.13-.01-.19-.01c-.17,0-.31.02-.41.07-.1.05-.18.12-.23.2s-.09.19-.1.31c-.02.12-.02.25-.02.39v1.21h-.89v-2.9Z"/>
    <path class="cls-1" d="M19.87,44.56c-.13-.16-.31-.25-.52-.25-.08,0-.15.02-.22.05-.07.04-.11.1-.11.19,0,.07.04.12.11.16.07.03.17.06.28.09s.24.05.36.08c.13.03.25.08.36.14.11.06.21.15.28.26.07.11.11.26.11.44s-.04.34-.12.46-.19.22-.31.29c-.13.07-.27.12-.43.16s-.32.04-.47.04c-.2,0-.41-.03-.62-.09-.21-.06-.38-.16-.53-.31l.54-.6c.08.1.18.18.28.24.1.05.22.08.35.08.1,0,.2-.01.28-.04.08-.03.13-.08.13-.16,0-.07-.04-.13-.11-.17-.07-.04-.17-.07-.28-.1-.11-.03-.24-.05-.37-.08-.13-.03-.25-.07-.36-.14-.11-.06-.21-.14-.28-.25-.07-.11-.11-.26-.11-.44,0-.17.04-.32.11-.44.07-.12.16-.22.28-.3.11-.08.24-.14.39-.18.15-.04.3-.06.45-.06.19,0,.39.03.58.08s.36.16.5.3l-.55.54Z"/>
    <path class="cls-1" d="M22.95,44.65c-.04-.06-.11-.12-.19-.16-.08-.04-.17-.06-.26-.06-.23,0-.4.07-.53.2s-.19.31-.19.53.06.4.19.53.3.2.53.2c.1,0,.19-.02.26-.07.07-.04.13-.1.19-.16l.59.62c-.14.14-.3.24-.49.3-.19.06-.37.09-.54.09-.22,0-.43-.04-.63-.11-.2-.07-.37-.17-.51-.31-.15-.13-.26-.29-.34-.48-.08-.19-.13-.4-.13-.63s.04-.44.13-.63c.08-.19.2-.35.34-.48.14-.13.32-.24.51-.31s.41-.11.63-.11c.17,0,.35.03.54.09.19.06.35.16.49.3l-.59.62Z"/>
    <path class="cls-1" d="M25.69,46.25h-.01c-.1.16-.23.27-.4.33-.17.07-.34.1-.52.1-.14,0-.27-.02-.39-.06-.13-.04-.24-.09-.33-.17-.1-.08-.17-.17-.23-.28s-.08-.24-.08-.39c0-.17.03-.31.09-.42s.14-.21.25-.29c.11-.07.23-.13.36-.18s.27-.07.42-.09.29-.03.44-.04c.14,0,.28,0,.4,0,0-.16-.06-.29-.17-.38-.11-.09-.25-.14-.4-.14s-.28.03-.4.09c-.12.06-.23.15-.32.25l-.48-.49c.17-.16.36-.27.58-.35.22-.08.45-.12.69-.12.26,0,.48.03.65.1.17.07.3.16.41.29.1.13.17.28.21.47s.06.4.06.64v1.48h-.83v-.36ZM25.47,45.34c-.07,0-.15,0-.25,0-.1,0-.2.02-.29.05-.09.03-.17.07-.24.13-.07.06-.1.13-.1.23,0,.11.05.19.14.24.09.05.19.08.29.08.09,0,.17-.01.25-.04.08-.02.16-.06.22-.1s.11-.1.15-.17c.04-.07.06-.15.06-.24v-.19h-.22Z"/>
    <path class="cls-1" d="M27.09,42.09h.9v4.52h-.9v-4.52Z"/>
    <path class="cls-1" d="M31.38,46.11c-.14.18-.32.32-.54.42-.22.1-.45.15-.68.15-.22,0-.43-.04-.63-.11-.2-.07-.37-.17-.51-.31s-.26-.29-.34-.48-.12-.4-.12-.63.04-.44.12-.63.2-.35.34-.48c.15-.13.32-.24.51-.31s.41-.11.63-.11c.21,0,.4.04.56.11.17.07.31.17.43.31.12.13.21.29.27.48s.1.4.1.63v.28h-2.08c.04.17.11.31.23.41s.27.15.44.15c.15,0,.27-.03.37-.1.1-.07.19-.15.27-.25l.63.46ZM30.62,44.83c0-.15-.05-.28-.15-.39-.1-.11-.24-.16-.4-.16-.1,0-.19.02-.26.05-.08.03-.14.07-.19.12-.05.05-.1.11-.12.17-.03.07-.05.13-.05.21h1.18Z"/>
    <path class="cls-1" d="M37.77,46.31c-.28.14-.56.25-.86.31-.3.06-.6.1-.91.1-.33,0-.64-.05-.91-.16-.28-.1-.52-.25-.72-.45-.2-.19-.36-.43-.47-.7s-.17-.58-.17-.92.06-.65.17-.92.27-.51.47-.7c.2-.19.44-.34.72-.45.28-.1.58-.16.91-.16s.65.04.93.12c.29.08.53.22.75.42l-.66.72c-.13-.13-.27-.23-.43-.3-.16-.07-.36-.1-.6-.1-.2,0-.38.03-.54.1s-.3.16-.42.28c-.12.12-.21.27-.27.43-.06.17-.09.35-.09.54s.03.38.09.55c.06.17.15.31.27.43s.25.22.42.28.34.1.54.1.38-.02.53-.07c.15-.05.27-.09.35-.14v-.69h-.76v-.86h1.66v2.21Z"/>
    <path class="cls-1" d="M38.56,43.71h.83v.38h.01c.04-.05.08-.1.14-.16.06-.05.12-.1.2-.15.08-.04.16-.08.25-.11s.19-.04.29-.04c.21,0,.41.04.58.11.18.07.33.18.45.31.13.13.22.29.29.48.07.18.1.38.1.6,0,.2-.03.4-.09.58-.06.19-.15.35-.26.49-.11.14-.25.26-.41.34-.16.09-.35.13-.56.13-.19,0-.36-.03-.52-.09-.16-.06-.29-.16-.4-.3h-.01v1.67h-.9v-4.27ZM39.39,45.16c0,.22.06.4.19.53s.3.2.53.2.4-.07.53-.2c.13-.14.19-.31.19-.53s-.06-.4-.19-.53c-.12-.14-.3-.2-.53-.2s-.4.07-.53.2-.19.31-.19.53Z"/>
    <path class="cls-1" d="M45.04,46.61h-.86v-.39h-.01c-.03.06-.07.11-.12.17-.05.06-.11.11-.18.15-.07.04-.15.08-.25.11-.09.03-.19.04-.3.04-.23,0-.41-.04-.55-.11s-.25-.17-.33-.29-.13-.27-.16-.44c-.02-.17-.04-.35-.04-.54v-1.6h.89v1.42c0,.08,0,.17,0,.26,0,.09.02.17.05.25s.08.14.14.19.15.07.27.07.21-.02.28-.06c.07-.04.13-.1.16-.17s.06-.15.07-.24.02-.18.02-.27v-1.45h.9v2.9Z"/>
    <path class="cls-1" d="M47.54,42.38h.93v4.23h-.93v-4.23Z"/>
    <path class="cls-1" d="M49.21,43.71h.86v.39h.01c.03-.06.07-.11.12-.17.05-.06.11-.11.19-.15s.15-.08.24-.11.19-.04.3-.04c.23,0,.41.03.55.1s.25.17.32.29c.08.12.13.27.16.44.03.17.04.35.04.54v1.6h-.9v-1.42c0-.08,0-.17,0-.26,0-.09-.02-.17-.05-.25-.03-.07-.08-.14-.14-.19-.06-.05-.15-.07-.27-.07s-.21.02-.28.06-.13.1-.16.17-.06.15-.07.24c-.01.09-.02.18-.02.28v1.45h-.9v-2.9Z"/>
    <path class="cls-1" d="M52.95,44.42h-.59v-.72h.59v-.51c0-.16.01-.31.04-.45.03-.14.08-.27.16-.37.08-.11.19-.19.34-.25.15-.06.35-.09.59-.09.09,0,.18,0,.27.01s.17.02.26.04l-.04.76c-.05-.02-.1-.03-.14-.04-.04,0-.09-.01-.15-.01-.14,0-.25.03-.32.09s-.11.19-.11.38v.46h.66v.72h-.66v2.19h-.9v-2.19Z"/>
    <path class="cls-1" d="M54.85,43.71h.9v.47h.01c.1-.18.21-.31.34-.4s.3-.13.5-.13c.05,0,.1,0,.16,0,.05,0,.1.01.14.02v.82c-.06-.02-.13-.03-.19-.04-.06-.01-.13-.01-.19-.01-.17,0-.31.02-.41.07-.1.05-.18.12-.23.2-.05.09-.09.19-.1.31-.02.12-.02.25-.02.39v1.21h-.9v-2.9Z"/>
    <path class="cls-1" d="M59.1,46.25h-.01c-.1.16-.23.27-.4.33-.16.07-.34.1-.52.1-.14,0-.27-.02-.39-.06-.12-.04-.24-.09-.33-.17-.1-.08-.17-.17-.23-.28-.06-.11-.08-.24-.08-.39,0-.17.03-.31.09-.42s.15-.21.25-.29c.11-.07.23-.13.36-.18s.28-.07.42-.09c.14-.02.29-.03.44-.04.15,0,.28,0,.4,0,0-.16-.06-.29-.17-.38-.11-.09-.25-.14-.4-.14s-.28.03-.4.09c-.12.06-.23.15-.33.25l-.48-.49c.17-.16.36-.27.59-.35.22-.08.45-.12.69-.12.26,0,.48.03.65.1.17.07.31.16.41.29.1.13.17.28.21.47.04.19.06.4.06.64v1.48h-.82v-.36ZM58.88,45.34c-.07,0-.15,0-.25,0-.1,0-.2.02-.29.05-.09.03-.17.07-.24.13-.06.06-.1.13-.1.23,0,.11.05.19.14.24.09.05.19.08.29.08.09,0,.17-.01.25-.04.08-.02.15-.06.22-.1s.11-.1.15-.17c.04-.07.06-.15.06-.24v-.19h-.22Z"/>
    <path class="cls-1" d="M62.13,44.56c-.13-.16-.3-.25-.52-.25-.08,0-.15.02-.22.05-.07.04-.11.1-.11.19,0,.07.04.12.11.16.07.03.17.06.28.09.11.03.24.05.36.08.13.03.25.08.36.14.11.06.21.15.28.26.07.11.11.26.11.44s-.04.34-.12.46c-.08.12-.19.22-.31.29-.13.07-.27.12-.43.16-.16.03-.32.04-.47.04-.2,0-.41-.03-.62-.09-.21-.06-.38-.16-.52-.31l.54-.6c.08.1.18.18.28.24.1.05.22.08.35.08.1,0,.2-.01.28-.04.08-.03.13-.08.13-.16,0-.07-.04-.13-.11-.17-.07-.04-.17-.07-.28-.1s-.24-.05-.37-.08c-.13-.03-.25-.07-.36-.14-.11-.06-.21-.14-.28-.25-.07-.11-.11-.26-.11-.44,0-.17.04-.32.1-.44.07-.12.16-.22.28-.3.11-.08.24-.14.39-.18.15-.04.3-.06.45-.06.19,0,.38.03.58.08.2.06.36.16.5.3l-.55.54Z"/>
    <path class="cls-1" d="M65.23,44.42h-.79v.97c0,.08,0,.15.01.22s.03.12.05.17.07.08.13.11c.06.03.13.04.23.04.05,0,.11,0,.19-.01.08,0,.14-.03.18-.07v.75c-.1.04-.2.06-.31.07-.11.01-.21.02-.32.02-.15,0-.29-.02-.42-.05s-.24-.08-.34-.15-.17-.16-.22-.27c-.05-.11-.08-.25-.08-.41v-1.38h-.57v-.72h.57v-.86h.9v.86h.79v.72Z"/>
    <path class="cls-1" d="M65.69,43.71h.89v.47h.01c.1-.18.21-.31.34-.4.13-.09.3-.13.5-.13.05,0,.1,0,.16,0,.05,0,.1.01.14.02v.82c-.06-.02-.13-.03-.19-.04s-.13-.01-.19-.01c-.17,0-.31.02-.41.07-.1.05-.18.12-.23.2s-.09.19-.1.31c-.02.12-.02.25-.02.39v1.21h-.89v-2.9Z"/>
    <path class="cls-1" d="M70.92,46.61h-.86v-.39h-.01c-.03.06-.07.11-.12.17-.05.06-.11.11-.18.15-.07.04-.15.08-.24.11-.09.03-.19.04-.3.04-.23,0-.41-.04-.55-.11-.14-.07-.25-.17-.33-.29s-.13-.27-.16-.44c-.03-.17-.04-.35-.04-.54v-1.6h.9v1.42c0,.08,0,.17,0,.26s.02.17.05.25c.03.08.07.14.14.19.06.05.15.07.27.07s.21-.02.28-.06c.07-.04.12-.1.16-.17s.06-.15.07-.24.02-.18.02-.27v-1.45h.9v2.9Z"/>
    <path class="cls-1" d="M73.52,44.65c-.04-.06-.11-.12-.19-.16s-.17-.06-.26-.06c-.23,0-.4.07-.53.2-.13.14-.19.31-.19.53s.06.4.19.53c.12.14.3.2.53.2.1,0,.19-.02.26-.07s.13-.1.19-.16l.59.62c-.14.14-.3.24-.49.3-.19.06-.37.09-.54.09-.22,0-.43-.04-.63-.11-.2-.07-.37-.17-.51-.31s-.26-.29-.34-.48-.12-.4-.12-.63.04-.44.12-.63.2-.35.34-.48c.15-.13.32-.24.51-.31s.41-.11.63-.11c.17,0,.35.03.54.09.19.06.35.16.49.3l-.59.62Z"/>
    <path class="cls-1" d="M76.41,44.42h-.79v.97c0,.08,0,.15.01.22,0,.07.02.12.05.17s.07.08.13.11c.06.03.14.04.23.04.05,0,.11,0,.19-.01.08,0,.14-.03.18-.07v.75c-.1.04-.2.06-.31.07-.11.01-.21.02-.32.02-.15,0-.29-.02-.42-.05s-.24-.08-.33-.15-.17-.16-.22-.27c-.05-.11-.08-.25-.08-.41v-1.38h-.57v-.72h.57v-.86h.9v.86h.79v.72Z"/>
    <path class="cls-1" d="M79.66,46.61h-.86v-.39h-.01c-.03.06-.07.11-.12.17-.05.06-.11.11-.18.15-.07.04-.15.08-.24.11-.09.03-.19.04-.3.04-.23,0-.41-.04-.55-.11-.14-.07-.25-.17-.33-.29s-.13-.27-.16-.44c-.03-.17-.04-.35-.04-.54v-1.6h.9v1.42c0,.08,0,.17,0,.26s.02.17.05.25c.03.08.07.14.14.19.06.05.15.07.27.07s.21-.02.28-.06c.07-.04.12-.1.16-.17s.06-.15.07-.24.02-.18.02-.27v-1.45h.9v2.9Z"/>
    <path class="cls-1" d="M80.29,43.71h.9v.47h.01c.1-.18.21-.31.34-.4s.3-.13.5-.13c.05,0,.1,0,.16,0,.05,0,.1.01.14.02v.82c-.06-.02-.13-.03-.19-.04-.06-.01-.13-.01-.19-.01-.17,0-.31.02-.41.07-.1.05-.18.12-.23.2-.05.09-.09.19-.1.31-.02.12-.02.25-.02.39v1.21h-.9v-2.9Z"/>
    <path class="cls-1" d="M85.37,46.11c-.14.18-.32.32-.54.42-.22.1-.45.15-.68.15s-.43-.04-.63-.11c-.2-.07-.37-.17-.51-.31-.15-.13-.26-.29-.34-.48-.08-.19-.13-.4-.13-.63s.04-.44.13-.63c.08-.19.2-.35.34-.48.14-.13.32-.24.51-.31s.41-.11.63-.11c.21,0,.4.04.57.11.17.07.31.17.43.31.12.13.21.29.27.48.06.19.1.4.1.63v.28h-2.08c.04.17.11.31.23.41.12.1.27.15.44.15.15,0,.27-.03.37-.1.1-.07.19-.15.27-.25l.63.46ZM84.61,44.83c0-.15-.05-.28-.15-.39-.1-.11-.24-.16-.4-.16-.1,0-.19.02-.26.05-.08.03-.14.07-.19.12-.05.05-.1.11-.13.17-.03.07-.05.13-.05.21h1.18Z"/>
    <path class="cls-1" d="M88.54,42.13v5.97h-.75v-5.97h.75Z"/>
    <path class="cls-1" d="M91.02,42.38h.93v4.23h-.93v-4.23Z"/>
    <path class="cls-1" d="M94.19,42.38h.77l1.84,4.23h-1.05l-.37-.9h-1.64l-.35.9h-1.03l1.83-4.23ZM94.55,43.61l-.51,1.31h1.03l-.52-1.31Z"/>
    <path class="cls-1" d="M98.62,42.38h.77l1.84,4.23h-1.05l-.36-.9h-1.64l-.35.9h-1.03l1.83-4.23ZM98.98,43.61l-.51,1.31h1.03l-.52-1.31Z"/>
    <path class="cls-1" d="M103.74,43.41c-.08-.1-.18-.17-.31-.21s-.25-.07-.37-.07c-.07,0-.14,0-.21.02-.07.02-.14.04-.2.07-.06.03-.11.08-.16.13-.04.06-.06.12-.06.2,0,.13.05.23.14.29s.22.12.36.17c.14.05.3.1.47.14.17.05.32.12.47.2.15.09.27.21.36.35.1.15.14.34.14.59,0,.23-.04.44-.13.62-.09.17-.21.32-.36.44-.15.12-.32.2-.52.26s-.41.08-.62.08c-.27,0-.53-.04-.76-.12-.23-.08-.45-.22-.66-.41l.66-.73c.1.13.22.23.36.3s.3.11.45.11c.07,0,.15,0,.23-.03.08-.02.15-.04.21-.08.06-.04.11-.08.15-.14.04-.06.06-.12.06-.2,0-.13-.05-.23-.15-.3-.1-.07-.22-.14-.37-.19s-.31-.1-.48-.16c-.17-.05-.33-.12-.48-.21-.15-.09-.27-.2-.37-.35-.1-.14-.15-.33-.15-.57s.04-.43.13-.6c.09-.17.21-.31.36-.43.15-.12.32-.2.52-.26.2-.06.4-.09.6-.09.24,0,.47.03.69.1s.42.18.6.34l-.64.7Z"/>
    <path class="cls-1" d="M107.46,42.13v5.97h-.75v-5.97h.75Z"/>
  </g>
  <path class="cls-1" d="M12.94,8.54c1.27.74,2.45,1.41,3.6,2.11.62.38.85.96.85,1.6,0,3.46.01,6.92,0,10.39,0,.69-.32,1.26-.95,1.7-3.1,2.18-6.18,4.38-9.29,6.55-.21.15-.57.25-.82.21-.39-.07-.45-.41-.45-.74,0-3.49,0-6.99,0-10.48,0-.47.22-.84.61-1.16,1.95-1.53,3.89-3.07,5.85-4.61.45-.35.6-.8.59-1.31,0-1.39,0-2.77,0-4.25"/>
  <path class="cls-2" d="M5.12,24.03c-1.27-.74-2.45-1.41-3.6-2.11-.62-.38-.85-.96-.85-1.6-.01-3.46-.01-6.92,0-10.39,0-.69.32-1.26.95-1.7C4.72,6.05,7.81,3.86,10.91,1.69c.21-.15.57-.25.82-.21.39.07.45.41.45.74,0,3.49,0,6.99,0,10.48,0,.47-.22.84-.61,1.16-1.95,1.53-3.9,3.07-5.85,4.61-.45.35-.6.8-.59,1.31,0,1.39,0,2.77,0,4.25"/>
</svg>