<?xml version="1.0" encoding="UTF-8"?>
<svg id="Layer_1" data-name="Layer 1" xmlns="http://www.w3.org/2000/svg" viewBox="0 0 181.17 78.44">
  <defs>
    <style>
      .cls-1 {
        fill: #efc932;
      }

      .cls-1, .cls-2 {
        stroke-width: 0px;
      }

      .cls-2 {
        fill: #232256;
      }

      .cls-3 {
        letter-spacing: -.1em;
      }

      .cls-4 {
        fill: #222053;
        font-family: Avenir-Black, Avenir;
        font-size: 7.37px;
        font-weight: 800;
      }
    </style>
  </defs>
  <polygon class="cls-1" points="44.59 34.37 32.57 46.46 24.28 38.08 27.25 35.11 32.61 40.48 41.62 31.4 44.59 34.37"/>
  <g>
    <path class="cls-1" d="M61.04,16.21v11.85c-.01,3.49-2.85,6.33-6.34,6.33h-7.65s-4.2-4.22-4.2-4.22h5.92s5.94.01,5.94.01c1.17,0,2.12-.95,2.12-2.12v-11.85c.01-1.17-.94-2.12-2.11-2.12l-33.79-.03c-1.17,0-2.12.95-2.12,2.11v11.84c-.01,1.17.94,2.12,2.11,2.12v4.21c-3.49,0-6.33-2.84-6.32-6.34v-11.85c.01-3.49,2.85-6.32,6.34-6.32l33.79.03c3.49,0,6.32,2.84,6.31,6.33"/>
    <path class="cls-2" d="M70.35,40.72l1.76-4.5,1.78,4.51h-3.54ZM73.53,32h-2.64s-6.27,14.49-6.27,14.49h3.52s1.21-3.07,1.21-3.07h5.63s1.24,3.08,1.24,3.08h3.6s-6.29-14.5-6.29-14.5ZM90.51,41.22c-.27.57-.63,1.02-1.1,1.37-.46.35-1.01.6-1.65.75-.63.15-1.32.23-2.06.22h-1.66v-8.6s1.89,0,1.89,0c.67,0,1.31.09,1.91.26.61.17,1.14.43,1.59.77.45.34.81.78,1.07,1.3.27.53.4,1.14.4,1.85,0,.82-.13,1.51-.4,2.08M93.54,35.93c-.46-.93-1.07-1.68-1.85-2.27-.78-.58-1.69-1-2.73-1.26-1.04-.26-2.14-.39-3.3-.4h-4.79s-.01,14.5-.01,14.5h5.22c1.08,0,2.11-.15,3.09-.46.98-.31,1.85-.77,2.6-1.38.75-.6,1.35-1.36,1.79-2.25.44-.89.67-1.93.67-3.1,0-1.32-.23-2.45-.68-3.38M108.98,32.03v14.5s3.18,0,3.18,0v-14.5s-3.18,0-3.18,0ZM123.59,40.11c-.33-.51-.74-.91-1.23-1.21-.5-.3-1.03-.53-1.61-.7-.57-.16-1.11-.33-1.6-.49-.5-.17-.91-.36-1.24-.59-.33-.23-.49-.57-.49-1,0-.27.07-.5.2-.7.14-.19.32-.34.53-.46.22-.12.45-.2.7-.26.24-.05.48-.08.72-.08.39,0,.81.08,1.26.24.44.16.79.4,1.05.73l2.19-2.39c-.61-.55-1.3-.93-2.06-1.17-.76-.23-1.56-.35-2.38-.35-.71,0-1.4.1-2.06.3-.67.2-1.26.49-1.77.89-.51.39-.92.89-1.23,1.47-.31.59-.46,1.27-.46,2.05s.16,1.46.5,1.95c.33.49.75.89,1.26,1.19.51.3,1.05.54,1.64.72.59.18,1.13.35,1.64.53.5.18.92.4,1.26.65.33.25.5.6.5,1.04,0,.26-.07.48-.2.68-.13.19-.3.35-.51.47-.21.12-.45.21-.72.28-.27.06-.53.09-.79.09-.53,0-1.05-.12-1.55-.36-.5-.24-.91-.58-1.23-1.01l-2.27,2.49c.69.64,1.44,1.11,2.25,1.4.8.29,1.68.43,2.61.43.75,0,1.46-.09,2.14-.28s1.27-.48,1.78-.88c.51-.4.92-.89,1.22-1.5.3-.6.45-1.3.45-2.11,0-.85-.16-1.52-.49-2.03M137.17,41.18c-.21.57-.51,1.06-.91,1.48-.4.42-.87.74-1.42.97-.55.23-1.17.35-1.85.34-.68,0-1.3-.12-1.85-.35-.55-.23-1.02-.56-1.42-.97-.39-.42-.7-.91-.91-1.48-.21-.57-.32-1.19-.32-1.87s.11-1.29.32-1.86c.21-.57.51-1.07.91-1.48.4-.42.87-.74,1.42-.97.55-.23,1.17-.35,1.85-.35s1.3.12,1.85.35c.55.23,1.03.56,1.42.97.39.42.7.91.91,1.49.21.57.32,1.19.32,1.86,0,.68-.11,1.3-.32,1.87M140.23,36.16c-.39-.94-.93-1.75-1.62-2.41-.7-.66-1.52-1.17-2.47-1.53-.95-.36-2-.53-3.13-.54-1.13,0-2.18.18-3.13.53-.96.35-1.78.86-2.48,1.52-.7.66-1.24,1.46-1.63,2.4-.39.94-.58,1.99-.58,3.15s.19,2.21.58,3.15c.39.94.93,1.75,1.62,2.41.7.66,1.52,1.17,2.47,1.53.95.35,2,.53,3.13.54,1.13,0,2.18-.18,3.13-.53.96-.35,1.78-.86,2.48-1.52.7-.66,1.24-1.46,1.63-2.4s.58-1.99.58-3.15c0-1.16-.19-2.21-.58-3.16M149.68,37.37c-.17.22-.39.38-.65.48-.26.1-.55.16-.87.18-.32.02-.62.03-.91.03h-1.88s0-3.3,0-3.3h2.09c.29,0,.58.02.88.06.3.04.57.12.8.24.23.11.42.28.57.5.15.22.22.51.22.88,0,.39-.08.7-.26.92M150.12,40.45c1.02-.19,1.8-.64,2.33-1.36.53-.71.8-1.59.8-2.61,0-.85-.15-1.55-.44-2.12-.29-.57-.69-1.02-1.18-1.35-.5-.34-1.08-.57-1.74-.72-.66-.14-1.36-.22-2.1-.22h-5.6s-.01,14.5-.01,14.5h3.19s0-5.79,0-5.79h1.58s3.02,5.8,3.02,5.8h3.82s-3.68-6.12-3.68-6.12ZM163.12,32.08l-3.26,5.42-3.06-5.43h-3.97s5.43,8.32,5.43,8.32v6.19s3.19,0,3.19,0v-6.19s5.45-8.31,5.45-8.31h-3.78Z"/>
  </g>
  <polygon class="cls-2" points="99.48 46.53 102.04 46.53 108.04 32.02 104.61 32.02 100.96 41.53 100.92 41.53 97.34 32.01 93.69 32.01 99.48 46.53"/>
  <g>
    <path class="cls-2" d="M73.62,13.88c-.26-.33-.61-.57-1.06-.73-.45-.16-.87-.24-1.27-.24-.23,0-.47.03-.72.08-.25.05-.48.14-.7.25-.22.12-.4.27-.54.46-.14.19-.21.43-.21.7,0,.44.16.77.49,1.01.33.23.74.43,1.24.6.5.16,1.04.33,1.61.49.58.17,1.11.4,1.61.7.5.3.91.71,1.24,1.22.33.51.49,1.18.49,2.04,0,.81-.15,1.52-.45,2.12-.3.6-.71,1.1-1.23,1.5-.51.4-1.11.69-1.79.88-.68.19-1.39.29-2.15.29-.94,0-1.82-.15-2.63-.43-.81-.29-1.56-.76-2.26-1.4l2.28-2.51c.33.44.74.78,1.24,1.02.5.24,1.02.36,1.55.36.26,0,.53-.03.79-.09.27-.06.51-.15.72-.28.21-.12.38-.28.51-.47.13-.19.2-.42.2-.68,0-.44-.17-.79-.5-1.04-.34-.25-.76-.47-1.26-.65-.51-.18-1.06-.36-1.64-.54-.59-.18-1.14-.42-1.65-.72-.51-.3-.93-.7-1.26-1.2-.33-.49-.5-1.14-.5-1.96,0-.78.16-1.47.46-2.06.31-.59.72-1.08,1.23-1.48.51-.4,1.11-.7,1.78-.89.67-.2,1.36-.3,2.08-.3.82,0,1.62.12,2.38.35.77.24,1.46.63,2.08,1.18l-2.2,2.41Z"/>
    <path class="cls-2" d="M77.05,14.89h3.08s0,10,0,10h-3.08s0-10,0-10ZM76.81,11.74c0-.49.17-.92.52-1.27.35-.35.77-.52,1.26-.52.5,0,.92.18,1.26.53.35.35.53.77.53,1.27,0,.49-.18.92-.53,1.27-.35.35-.77.52-1.27.52-.49,0-.91-.17-1.26-.52-.35-.35-.52-.77-.52-1.27"/>
    <path class="cls-2" d="M81.54,14.89h2.96s0,1.36,0,1.36h.04c.1-.19.23-.38.41-.58.18-.19.39-.36.64-.51.25-.15.53-.27.84-.37.32-.1.66-.14,1.03-.14.7,0,1.32.15,1.86.43.54.29.95.74,1.22,1.36.36-.64.79-1.1,1.3-1.38.51-.27,1.13-.41,1.87-.41.67,0,1.24.11,1.7.34.46.23.82.54,1.09.93.27.39.46.85.57,1.38.12.53.17,1.09.17,1.7v5.91s-3.09,0-3.09,0v-5.82c0-.46-.09-.87-.29-1.2-.2-.34-.55-.5-1.06-.5-.36,0-.65.06-.89.17-.24.12-.43.28-.57.48-.14.2-.25.44-.31.72-.06.27-.09.56-.09.86v5.29s-3.09,0-3.09,0v-5.29c0-.18,0-.4-.02-.66-.01-.26-.06-.51-.14-.74-.08-.23-.21-.43-.4-.6-.18-.17-.46-.25-.81-.25-.4,0-.72.07-.97.22-.25.14-.44.33-.57.57-.13.24-.22.51-.26.81-.04.3-.06.62-.06.95v4.98s-3.09,0-3.09,0v-10Z"/>
    <path class="cls-2" d="M101.31,19.91c0,.76.22,1.36.65,1.83.43.47,1.04.7,1.82.7.78,0,1.39-.23,1.82-.7.43-.47.65-1.08.65-1.83,0-.75-.21-1.37-.65-1.83-.43-.47-1.04-.7-1.82-.7-.78,0-1.39.23-1.82.7-.43.47-.65,1.08-.65,1.83M98.47,14.91h2.84s0,1.32,0,1.32h.04c.12-.18.28-.36.48-.54.2-.18.43-.35.7-.5.27-.15.56-.27.87-.37.32-.1.65-.14,1.01-.14.74,0,1.41.13,2.02.38.6.26,1.12.61,1.55,1.07.43.46.76,1.01,1,1.64.23.63.35,1.32.35,2.08,0,.7-.11,1.37-.32,2.01-.21.64-.52,1.2-.91,1.7-.39.49-.87.89-1.43,1.18-.56.3-1.2.44-1.91.44-.64,0-1.24-.1-1.8-.3-.55-.2-1.01-.54-1.37-1.02h-.04v5.76s-3.09,0-3.09,0v-14.69Z"/>
  </g>
  <rect class="cls-2" x="110.35" y="9.37" width="3.08" height="15.56"/>
  <path class="cls-2" d="M121.68,18.8c.01-.52-.16-.97-.51-1.34-.36-.37-.81-.56-1.38-.56-.34,0-.64.06-.9.16-.26.11-.48.25-.67.42-.18.17-.33.37-.43.6-.1.23-.16.46-.18.71h4.07ZM124.28,23.21c-.49.63-1.12,1.12-1.87,1.46-.75.34-1.54.51-2.35.51-.77,0-1.49-.12-2.17-.37-.68-.25-1.27-.6-1.77-1.06-.5-.46-.89-1.01-1.18-1.66-.29-.64-.43-1.36-.43-2.16,0-.8.15-1.52.43-2.16.29-.64.68-1.2,1.18-1.66.5-.46,1.09-.81,1.77-1.06.68-.25,1.4-.37,2.17-.37.71,0,1.36.12,1.94.37.58.25,1.07.6,1.48,1.06.4.46.72,1.01.93,1.66.22.64.33,1.36.33,2.16v.97s-7.15,0-7.15,0c.12.59.39,1.06.8,1.41.41.35.92.53,1.52.53.51,0,.94-.11,1.29-.34.35-.23.65-.52.91-.87l2.16,1.59Z"/>
  <polygon class="cls-2" points="125.54 11.9 125.54 9.91 124.79 9.91 124.79 9.36 126.93 9.37 126.93 9.91 126.15 9.91 126.15 11.9 125.54 11.9"/>
  <path class="cls-2" d="M127.36,11.9v-2.54s.55,0,.55,0l.92,1.5h-.39s.93-1.5.93-1.5h.53v2.54s-.6,0-.6,0v-.79c0-.22,0-.41.02-.59,0-.17.03-.35.05-.52l.07.19-.7,1.09h-.24l-.69-1.08.07-.2c.03.16.05.33.06.5.01.17.02.37.02.61v.79h-.6Z"/>
  <text class="cls-4" transform="translate(14.27 56.86)"><tspan x="0" y="0">Private Fund Advisory | Compliance |</tspan></text>
  <text class="cls-4" transform="translate(14.27 65.71)"><tspan x="0" y="0">Fiduciary Investment Management | </tspan><tspan class="cls-3" x="126.91" y="0">T</tspan><tspan x="130.41" y="0">ax</tspan></text>
</svg>