<svg width="111" height="45" viewBox="0 0 111 45" fill="none" xmlns="http://www.w3.org/2000/svg">
<path d="M31.6119 8.69814C31.6119 9.35461 31.7955 9.88212 32.1707 10.2924C32.5458 10.7027 33.0772 10.9059 33.7532 10.9059C34.4292 10.9059 34.9606 10.7027 35.3358 10.3041C35.7109 9.89385 35.8945 9.36633 35.8945 8.70987C35.8945 8.0534 35.7109 7.52589 35.3358 7.1156C34.9606 6.70531 34.4292 6.50212 33.7532 6.50212C33.0772 6.50212 32.5458 6.70531 32.1707 7.10388C31.7955 7.50244 31.6119 8.04168 31.6119 8.69814ZM29.1462 4.34907H31.6119V5.49007H31.6431C31.7526 5.33768 31.8893 5.17747 32.0613 5.01726C32.2332 4.85705 32.4364 4.70466 32.6747 4.57571C32.9131 4.44676 33.1593 4.33735 33.4406 4.25138C33.7219 4.16542 34.0111 4.12244 34.312 4.12244C34.9567 4.12244 35.5389 4.23185 36.0665 4.45458C36.594 4.68121 37.0355 4.98209 37.4146 5.39238C37.7897 5.79095 38.0827 6.26376 38.2859 6.81472C38.4891 7.36568 38.5868 7.96744 38.5868 8.6239C38.5868 9.23738 38.4891 9.80788 38.3055 10.3706C38.1218 10.9215 37.8522 11.4139 37.5201 11.8476C37.1762 12.2774 36.7659 12.6213 36.2697 12.8714C35.7851 13.1293 35.2263 13.2582 34.6011 13.2465C34.0424 13.2465 33.5227 13.1605 33.0381 12.9886C32.5536 12.8167 32.155 12.5158 31.8542 12.1055H31.8229V17.4393H29.1423V4.34907H29.1462Z" fill="#409544"/>
<path d="M15.5481 17.4354V33.2178H50.5517V17.4354" fill="#409544"/>
<path d="M7.25236 3.71608C7.02572 3.42692 6.72484 3.21982 6.338 3.07915C5.95116 2.93848 5.58385 2.87596 5.23999 2.87596C5.0368 2.87596 4.8297 2.8994 4.61478 2.9502C4.39987 2.99318 4.19668 3.06743 4.0013 3.17684C3.80593 3.27453 3.65744 3.4152 3.53631 3.57541C3.41908 3.73561 3.35265 3.94271 3.35265 4.18889C3.35265 4.56401 3.49332 4.85707 3.78248 5.06026C4.07164 5.26345 4.42722 5.43539 4.86096 5.57606C5.29469 5.71673 5.7675 5.86521 6.25985 6.00588C6.76783 6.14655 7.22892 6.34975 7.65874 6.61936C8.08857 6.87726 8.45588 7.23284 8.73722 7.6744C9.02637 8.11594 9.16705 8.70989 9.16705 9.44059C9.16705 10.1713 9.0381 10.7535 8.76848 11.281C8.49886 11.8086 8.155 12.2384 7.70173 12.5861C7.24845 12.93 6.73266 13.1879 6.13872 13.352C5.54477 13.524 4.92348 13.5982 4.26311 13.5982C3.44643 13.5982 2.68056 13.4693 1.96939 13.2231C1.26994 12.9769 0.613481 12.5666 0 12.0078L1.98111 9.81962C2.27027 10.2065 2.62585 10.4995 3.05959 10.7144C3.48942 10.9176 3.94269 11.027 4.40768 11.027C4.63432 11.027 4.86096 10.9958 5.09541 10.9411C5.32986 10.8864 5.53696 10.8121 5.72061 10.7027C5.90427 10.5933 6.05275 10.4566 6.17388 10.2924C6.29111 10.1205 6.34582 9.92513 6.34582 9.69849C6.34582 9.32337 6.20514 9.01858 5.90427 8.79195C5.61511 8.56531 5.2478 8.38166 4.80625 8.23317C4.3647 8.07296 3.89189 7.92057 3.37219 7.76818C2.8564 7.61578 2.37968 7.40087 1.93813 7.14297C1.49658 6.88508 1.12927 6.52949 0.840117 6.10748C0.550961 5.67765 0.398567 5.10715 0.398567 4.40771C0.398567 3.70826 0.539238 3.13776 0.797134 2.61806C1.06675 2.11008 1.42234 1.68026 1.87561 1.3364C2.32888 0.992533 2.84468 0.734637 3.4269 0.562706C4.00912 0.390775 4.61088 0.30481 5.23608 0.30481C5.95897 0.30481 6.64669 0.41422 7.31488 0.605689C7.98307 0.80888 8.58483 1.15665 9.12406 1.62946L7.20547 3.71998L7.24845 3.70826L7.25236 3.71608Z" fill="#232255"/>
<path d="M10.234 4.59917H12.9145V13.2895H10.234V4.59917ZM10.019 1.86391C10.019 1.43408 10.1714 1.06677 10.4723 0.765895C10.7732 0.465015 11.1405 0.312622 11.5703 0.312622C12.0002 0.312622 12.3675 0.465015 12.6683 0.765895C12.9692 1.06677 13.1216 1.43408 13.1216 1.86391C13.1216 2.29374 12.9692 2.66104 12.6683 2.96192C12.3675 3.2628 12.0002 3.41519 11.5703 3.41519C11.1405 3.41519 10.7732 3.2628 10.4723 2.96192C10.1714 2.66104 10.019 2.29374 10.019 1.86391Z" fill="#232255"/>
<path d="M14.1335 4.59916H16.7086V5.78314H16.7399C16.8258 5.61121 16.9431 5.451 17.0954 5.28689C17.2478 5.11495 17.4393 4.97428 17.6542 4.83361C17.8691 4.70466 18.1192 4.59525 18.3849 4.50929C18.6546 4.42332 18.9554 4.38034 19.2798 4.38034C19.8932 4.38034 20.4325 4.50929 20.8936 4.75546C21.3664 5.00164 21.722 5.4002 21.9603 5.93944C22.2729 5.38067 22.648 4.9821 23.0896 4.74374C23.5311 4.50538 24.0704 4.38816 24.7151 4.38816C25.2973 4.38816 25.7936 4.48584 26.1922 4.68903C26.5907 4.88441 26.9033 5.15403 27.1417 5.49789C27.3683 5.84175 27.5403 6.24032 27.6379 6.69359C27.7356 7.15859 27.7903 7.64312 27.7903 8.17064V13.309H25.0981V8.24879C25.0981 7.8385 25.0121 7.49464 24.8519 7.20548C24.6799 6.91632 24.3673 6.76393 23.9258 6.76393C23.6132 6.76393 23.3553 6.81863 23.1521 6.91632C22.9489 7.01401 22.777 7.15468 22.6559 7.33443C22.5269 7.51808 22.4409 7.72127 22.3862 7.95963C22.3315 8.19799 22.312 8.44416 22.312 8.71378V13.3129H19.6197V8.71378C19.6197 8.56139 19.6197 8.36992 19.608 8.14328C19.5963 7.91665 19.5533 7.70173 19.479 7.49854C19.4048 7.29535 19.2954 7.12342 19.1352 6.98275C18.975 6.84208 18.7366 6.76784 18.424 6.76784C18.0801 6.76784 17.7988 6.83426 17.5839 6.95149C17.369 7.08044 17.2088 7.24065 17.0876 7.44775C16.9665 7.65484 16.8923 7.88929 16.861 8.15891C16.8297 8.41681 16.8063 8.69815 16.8063 8.97559V13.3051H14.1257V4.59916H14.1375H14.1335Z" fill="#232255"/>
<path d="M42.0995 0H39.4189V13.5278H42.0995V0Z" fill="#232255"/>
<path d="M49.0706 7.99479C49.0823 7.54151 48.93 7.15467 48.6291 6.83035C48.3165 6.50602 47.9179 6.34581 47.4334 6.34581C47.1325 6.34581 46.8746 6.3888 46.648 6.48648C46.4213 6.58417 46.2299 6.7014 46.0657 6.85379C45.9055 7.00618 45.7766 7.17812 45.6906 7.36958C45.6047 7.56496 45.5499 7.76815 45.5382 7.98306H49.0823L49.0706 7.99479ZM51.3448 11.8281C50.915 12.379 50.3757 12.7971 49.7193 13.098C49.0628 13.3989 48.3829 13.5396 47.6835 13.5396C46.984 13.5396 46.3901 13.4302 45.8 13.2152C45.2061 13.0003 44.702 12.6877 44.2605 12.2892C43.8306 11.8906 43.4868 11.4061 43.2367 10.8473C42.9905 10.2885 42.8616 9.6633 42.8616 8.97167C42.8616 8.28004 42.9905 7.65874 43.2367 7.09606C43.4829 6.53728 43.8306 6.05275 44.2722 5.65418C44.7137 5.25561 45.2217 4.94301 45.8118 4.73982C46.4057 4.52491 47.027 4.4155 47.6952 4.4155C48.3204 4.4155 48.8792 4.52491 49.3871 4.73982C49.8951 4.95473 50.3249 5.25561 50.6688 5.6659C51.0244 6.06447 51.294 6.549 51.4855 7.10778C51.6808 7.66656 51.7746 8.29176 51.7746 8.98339V9.82351H45.5499C45.6594 10.3393 45.8938 10.7379 46.2494 11.0505C46.605 11.3513 47.0465 11.5155 47.574 11.5155C48.0156 11.5155 48.3907 11.4178 48.6955 11.2263C48.9964 11.0309 49.266 10.773 49.4926 10.4604L51.3682 11.8398L51.3448 11.8281Z" fill="#232255"/>
<path d="M19.8937 30.9945V23.0974L17.8891 24.6448L16.5684 22.8356L20.1047 20.241H22.4453V30.9906H19.8937V30.9945Z" fill="white"/>
<path d="M28.1034 31.2837C25.0477 31.2837 23.8833 28.6383 23.8833 25.5865C23.8833 22.5347 25.0477 19.9518 28.1034 19.9518C31.1591 19.9518 32.2923 22.5503 32.2923 25.5865C32.2923 28.6226 31.1396 31.2837 28.1034 31.2837ZM28.1034 22.1127C26.7514 22.1127 26.4935 24.2384 26.4935 25.5904C26.4935 26.9424 26.7514 29.0994 28.1034 29.0994C29.4554 29.0994 29.686 26.9737 29.686 25.5904C29.686 24.2071 29.4398 22.1127 28.1034 22.1127Z" fill="white"/>
<path d="M37.3915 31.2837C35.43 31.2837 33.656 30.4318 33.0737 28.4273L35.4456 27.8021C35.6449 28.5171 36.2974 29.1384 37.2704 29.1384C38.0011 29.1384 38.8334 28.775 38.8334 27.7708C38.8334 26.6767 37.712 26.3602 36.6491 26.3602H35.9614V24.4963H36.7116C37.6651 24.4963 38.5951 24.2501 38.5951 23.2185C38.5951 22.4409 37.9425 22.0346 37.2431 22.0346C36.5436 22.0346 35.934 22.5035 35.7699 23.2342L33.3981 22.6871C33.9178 20.8779 35.6175 19.9518 37.4072 19.9518C39.3101 19.9518 41.1936 20.9248 41.1936 22.9919C41.1936 24.1759 40.4316 25.0551 39.3844 25.3286V25.3755C40.6035 25.6646 41.4554 26.6689 41.4554 27.8685C41.4554 30.2208 39.3727 31.2837 37.3994 31.2837H37.3915Z" fill="white"/>
<path d="M45.0892 30.9945V23.0974L43.0847 24.6448L41.7639 22.8356L45.3002 20.241H47.6408V30.9906H45.0892V30.9945Z" fill="white"/>
<path d="M12.9182 19.7408V17.4354H10.6362V19.7408H12.9182Z" fill="#B72026"/>
<path d="M12.9182 23.8437V21.5383H10.6362V23.8437H12.9182Z" fill="#ED2024"/>
<path d="M12.9182 27.9466V25.6411H10.6362V27.9466H12.9182Z" fill="#EFC932"/>
<path d="M12.9182 32.0495V29.744H10.6362V32.0495H12.9182Z" fill="#F47621"/>
<path d="M12.9182 36.1524V33.847H10.6362V36.1524H12.9182Z" fill="#4178BD"/>
<path d="M12.9182 40.2553V37.9499H10.6362V40.2553H12.9182Z" fill="#5253A3"/>
<path d="M12.9143 44.3621V42.0567H10.6323V44.3621H12.9143Z" fill="#409544"/>
<path d="M7.79176 23.8437H5.50977V21.5383H7.79176" fill="#ED2024"/>
<path d="M7.79176 27.9466H5.50977V25.6411H7.79176" fill="#EFC932"/>
<path d="M7.79176 32.0495H5.50977V29.744H7.79176" fill="#F47621"/>
<path d="M7.79176 36.1524H5.50977V33.847H7.79176" fill="#4178BD"/>
<path d="M7.79176 40.2553H5.50977V37.9499H7.79176" fill="#5253A3"/>
<path d="M7.79176 44.3582H5.50977V42.0527H7.79176" fill="#409544"/>
<path d="M7.79175 19.7408V17.4354H5.50976V19.7408H7.79175Z" fill="#B72026"/>
<path d="M2.66481 23.8437H0.382812V21.5383H2.66481" fill="#ED2024"/>
<path d="M2.66481 27.9466H0.382812V25.6411H2.66481" fill="#EFC932"/>
<path d="M2.66481 32.0495H0.382812V29.744H2.66481" fill="#F47621"/>
<path d="M2.66481 36.1524H0.382812V33.847H2.66481" fill="#4178BD"/>
<path d="M2.66481 40.2553H0.382812V37.9499H2.66481" fill="#5253A3"/>
<path d="M2.66481 44.3582H0.382812V42.0527H2.66481" fill="#409544"/>
<path d="M2.66479 19.7408V17.4354H0.382802V19.7408H2.66479Z" fill="#B72026"/>
<path d="M27.8103 35.1521V35.8203H26.2981V36.4338H27.7243V37.102H26.2981V37.7701H27.8924V38.4383H25.5713V35.1443H27.8064L27.8103 35.1521Z" fill="#232255"/>
<path d="M29.1153 35.1521L29.8187 36.3048L30.4947 35.1521H31.3739L30.3071 36.7112L31.4989 38.4461H30.5884L29.7835 37.1215L29.002 38.4461H28.1423L29.2951 36.7268L28.2088 35.156H29.1192L29.1153 35.1521Z" fill="#232255"/>
<path d="M34.2617 35.5507L33.7029 36.0079C33.5466 35.8164 33.3278 35.7383 33.0816 35.7383C32.5658 35.7383 32.1282 36.1525 32.1282 36.7972C32.1282 37.3442 32.4799 37.8561 33.0582 37.8561C33.3434 37.8561 33.5779 37.7389 33.7381 37.5045L34.3437 37.9538C34.0819 38.3368 33.6052 38.5243 33.1519 38.5243C32.1204 38.5243 31.374 37.8444 31.374 36.7933C31.374 35.7422 32.1125 35.0623 33.1519 35.0623C33.5857 35.0623 34.0155 35.2303 34.2617 35.5468V35.5507Z" fill="#232255"/>
<path d="M35.2737 35.1521V36.3791H36.6843V35.1521H37.4111V38.4461H36.6843V37.0238H35.2737V38.4461H34.5469V35.1521H35.2737Z" fill="#232255"/>
<path d="M39.6657 35.1521L41.0998 38.4461H40.2831L39.9978 37.7467H38.7201L38.4465 38.4461H37.6455L39.0678 35.1521H39.6696H39.6657ZM38.9467 37.1332H39.7517L39.3453 36.1094L38.9467 37.1332Z" fill="#232255"/>
<path d="M42.3228 35.1521L43.7217 37.438H43.7295V35.1521H44.4563V38.4461H43.5068L42.0688 36.1016H42.061V38.4461H41.3342V35.1521H42.3189H42.3228Z" fill="#232255"/>
<path d="M47.8482 35.4921L47.3363 36.0509C47.1175 35.8164 46.8518 35.7383 46.5431 35.7383C45.9257 35.7383 45.5154 36.1798 45.5154 36.7972C45.5154 37.4146 45.9257 37.8561 46.5431 37.8561C46.7814 37.8561 47.012 37.8053 47.223 37.692V37.1567H46.6329V36.4885H47.9224V38.2078C47.4965 38.4344 47.0237 38.5243 46.547 38.5243C45.5115 38.5243 44.7651 37.8561 44.7651 36.7933C44.7651 35.7304 45.5076 35.0623 46.547 35.0623C47.0315 35.0623 47.4965 35.1599 47.8521 35.4843L47.8482 35.4921Z" fill="#232255"/>
<path d="M50.5403 35.1521V35.8203H49.0281V36.4338H50.4543V37.102H49.0281V37.7701H50.6223V38.4383H48.3013V35.1443H50.5364L50.5403 35.1521Z" fill="#232255"/>
<path d="M18.2206 35.0662V35.707H17.2828V38.3563H16.556V35.707H15.6182V35.0662H18.2206Z" fill="#232255"/>
<path d="M19.397 35.0662V36.2931H20.8076V35.0662H21.5344V38.3602H20.8076V36.9379H19.397V38.3602H18.6702V35.0662H19.397Z" fill="#232255"/>
<path d="M24.2187 35.0662V35.7343H22.7065V36.3478H24.1328V37.016H22.7065V37.6842H24.3008V38.3524H21.9797V35.0583H24.2148L24.2187 35.0662Z" fill="#232255"/>
<path d="M50.2039 39.7161V39.8294H50.3602V40.2514H50.493V39.8294H50.6532V39.7161H50.2039Z" fill="#232255"/>
<path d="M50.7473 40.2514V39.72H50.8645L51.0599 40.0404H50.9779L51.1771 39.7239H51.2905V40.2592H51.1654V40.0912C51.1654 40.0482 51.1654 40.0052 51.1654 39.9701C51.1654 39.9349 51.1693 39.8958 51.1771 39.8606L51.1928 39.8997L51.0443 40.1303H50.9935L50.8489 39.9036L50.8645 39.8606C50.8684 39.8958 50.8763 39.931 50.8763 39.9661C50.8763 40.0013 50.8763 40.0443 50.8763 40.0951V40.2631H50.7473V40.2514Z" fill="#232255"/>
<path d="M17.8928 40.0052C16.533 40.0052 15.6147 40.8961 15.6147 42.2208C15.6147 43.5454 16.5291 44.4363 17.8928 44.4363C19.2566 44.4363 20.1709 43.5259 20.1709 42.2208C20.1709 40.9156 19.2566 40.0052 17.8928 40.0052ZM17.8928 43.6118C17.0918 43.6118 16.5526 43.0531 16.5526 42.2208C16.5526 41.3885 17.1035 40.8297 17.8889 40.8297C18.6743 40.8297 19.237 41.4002 19.237 42.2208C19.237 43.0413 18.6861 43.6118 17.8967 43.6118H17.8928Z" fill="#232255"/>
<path d="M22.9138 42.5333C23.4804 42.4278 23.8165 41.998 23.8165 41.3845C23.8165 40.3334 22.9724 40.1107 22.2613 40.1107H20.6045V44.3269H21.5032V42.6271H21.9956V42.6389L22.8865 44.3308H23.965L22.8865 42.5373H22.9138V42.5333ZM22.105 41.8769H21.5032V40.8687H22.1597C22.6403 40.8687 22.8826 41.0407 22.8826 41.3806C22.8826 41.8144 22.5075 41.8769 22.105 41.8769Z" fill="#232255"/>
<path d="M26.3095 43.6118C25.5163 43.6118 25.0865 42.8968 25.0865 42.2208C25.0865 41.4158 25.614 40.8297 26.3369 40.8297C26.6768 40.8297 26.9504 40.943 27.1458 41.1696L27.8374 40.603C27.5326 40.224 27.009 40.0013 26.4268 40.0013C25.0865 40.0013 24.1487 40.9117 24.1487 42.2168C24.1487 43.522 25.063 44.4324 26.4268 44.4324C27.052 44.4324 27.6303 44.1589 27.939 43.7173L27.1887 43.1586C26.9855 43.4516 26.6808 43.6079 26.3056 43.6079L26.3095 43.6118Z" fill="#232255"/>
<path d="M29.1543 40.1146H28.2556V44.3308H29.1543V42.4904H31.0143V44.3308H31.9131V40.1146H31.0143V41.701H29.1543V40.1146Z" fill="#232255"/>
<path d="M33.3941 42.5998H35.2384V41.7714H33.3941V40.9391H35.3479V40.1146H32.4954V44.3308H35.4534V43.5024H33.3941V42.5998Z" fill="#232255"/>
<path d="M38.8254 40.4311C38.4894 40.1498 38.0635 40.0052 37.5477 40.0052C36.774 40.0052 35.9456 40.4311 35.9456 41.3689C35.9456 42.1035 36.4927 42.338 37.0006 42.506C37.0514 42.5216 37.1061 42.5412 37.1569 42.5568C37.575 42.6897 37.9384 42.803 37.9384 43.1507C37.9384 43.4985 37.5399 43.6157 37.2703 43.6157C36.9537 43.6157 36.6568 43.4751 36.4536 43.225L35.8127 43.9283C36.1879 44.2761 36.649 44.4441 37.2155 44.4441C38.001 44.4441 38.8372 44.0807 38.8372 43.0648C38.8372 42.3263 38.3448 42.0723 37.8095 41.9121C37.7509 41.8925 37.6923 41.8769 37.6376 41.8613C37.2312 41.744 36.8756 41.6385 36.8756 41.2986C36.8756 40.9586 37.2663 40.8414 37.5242 40.8414C37.7509 40.8414 38.0439 40.9274 38.2041 41.1149L38.8176 40.4428L38.8254 40.4311Z" fill="#232255"/>
<path d="M40.3805 44.3308H41.2793V40.9039H42.4945V40.1146H39.1653V40.9039H40.3805V44.3308Z" fill="#232255"/>
<path d="M45.1985 42.5333C45.7651 42.4278 46.1011 41.998 46.1011 41.3845C46.1011 40.3334 45.2532 40.1107 44.5459 40.1107H42.8892V44.3269H43.7879V42.6271H44.2802V42.6389L45.1712 44.3308H46.2496L45.1712 42.5373H45.1985V42.5333ZM44.3896 41.8769H43.7879V40.8687H44.4444C44.925 40.8687 45.1672 41.0407 45.1672 41.3806C45.1672 41.8144 44.7921 41.8769 44.3896 41.8769Z" fill="#232255"/>
<path d="M49.0475 40.1146H48.2972L46.4763 44.3308H47.4688L47.8244 43.4282H49.5046L49.872 44.3308H50.8879L49.0514 40.1146H49.0475ZM48.0979 42.674L48.1097 42.6467L48.645 41.279L49.196 42.674H48.0979Z" fill="#232255"/>
<path d="M50.9854 17.4432V17.5565H51.1417V17.9785H51.2745V17.5565H51.4347V17.4432H50.9854Z" fill="#232255"/>
<path d="M51.5286 17.9785V17.4471H51.6458L51.8412 17.7675H51.7591L51.9584 17.451H52.0717V17.9863H51.9467V17.8183C51.9467 17.7753 51.9467 17.7323 51.9467 17.6972C51.9467 17.662 51.9506 17.6229 51.9584 17.5878L51.974 17.6268L51.8255 17.8574H51.7747L51.6302 17.6307L51.6458 17.5878C51.6497 17.6229 51.6575 17.6581 51.6575 17.6933C51.6575 17.7284 51.6575 17.7714 51.6575 17.8222V17.9902H51.5286V17.9785Z" fill="#232255"/>
<path d="M57.5273 26.3975V23.0105H58.7856C59.4887 23.0105 60.0724 23.2354 60.0724 24.0391C60.0724 24.8332 59.5318 25.0772 58.819 25.0772H58.2736V26.3975H57.5273ZM58.2736 23.642V24.4457H58.7712C59.0343 24.4457 59.2974 24.3548 59.2974 24.0391C59.2974 23.6898 58.9434 23.642 58.6563 23.642H58.2736ZM62.6886 24.0725V26.3975H61.9997V26.0818H61.9902C61.8945 26.2636 61.6601 26.4549 61.3108 26.4549C60.5837 26.4549 60.4497 25.9765 60.4497 25.3546V24.0725H61.1673V25.2111C61.1673 25.479 61.1722 25.8234 61.5405 25.8234C61.9136 25.8234 61.971 25.5317 61.971 25.2302V24.0725H62.6886ZM63.1968 26.3975V24.0725H63.9143V24.4457H63.9239C64.077 24.1635 64.2779 24.0151 64.5936 24.0151C64.675 24.0151 64.7659 24.02 64.8328 24.0391V24.6944C64.7324 24.6657 64.6319 24.6466 64.5267 24.6466C63.9813 24.6466 63.9143 24.9623 63.9143 25.4264V26.3975H63.1968ZM66.759 25.6273L67.2614 25.9957C67.0318 26.2875 66.6538 26.4549 66.2807 26.4549C65.5631 26.4549 64.989 25.9765 64.989 25.2351C64.989 24.4935 65.5631 24.0151 66.2807 24.0151C66.9504 24.0151 67.3714 24.4935 67.3714 25.2351V25.4599H65.7066C65.764 25.7326 65.9697 25.9096 66.2472 25.9096C66.4816 25.9096 66.6395 25.79 66.759 25.6273ZM65.7066 24.9719H66.6538C66.6586 24.7327 66.472 24.5318 66.2137 24.5318C65.8979 24.5318 65.7257 24.7471 65.7066 24.9719ZM67.8987 26.3975V23.0105H69.1569C69.8601 23.0105 70.4437 23.2354 70.4437 24.0391C70.4437 24.8332 69.9032 25.0772 69.1903 25.0772H68.645V26.3975H67.8987ZM68.645 23.642V24.4457H69.1425C69.4056 24.4457 69.6687 24.3548 69.6687 24.0391C69.6687 23.6898 69.3147 23.642 69.0277 23.642H68.645ZM70.8306 26.3975V22.7809H71.5482V26.3975H70.8306ZM73.5229 26.3975V26.1057H73.5133C73.3555 26.3545 73.0684 26.4549 72.7766 26.4549C72.3413 26.4549 71.949 26.2062 71.949 25.7373C71.949 24.9336 72.9249 24.9193 73.5229 24.9193C73.5229 24.6657 73.3124 24.5031 73.0636 24.5031C72.8293 24.5031 72.6331 24.6083 72.48 24.7806L72.0973 24.3883C72.3604 24.1395 72.7431 24.0151 73.121 24.0151C73.9583 24.0151 74.1831 24.4409 74.1831 25.2159V26.3975H73.5229ZM73.5229 25.3786H73.3459C73.1259 25.3786 72.6379 25.3977 72.6379 25.7135C72.6379 25.8857 72.8197 25.967 72.9775 25.967C73.2598 25.967 73.5229 25.8187 73.5229 25.5317V25.3786ZM77.0252 24.0725L75.9728 26.7755C75.7814 27.2682 75.6714 27.5457 74.9873 27.5457C74.8055 27.5457 74.6237 27.5169 74.4515 27.4595L74.5472 26.8712C74.6572 26.919 74.7625 26.9429 74.882 26.9429C75.2073 26.9429 75.26 26.8042 75.3604 26.5506L75.4131 26.4167L74.3941 24.0725H75.1691L75.7671 25.6082H75.7767L76.2885 24.0725H77.0252ZM79.8313 26.3975V23.8142L79.152 24.4122L78.7453 23.9434L79.8504 23.0105H80.5202V26.3975H79.8313ZM81.4425 24.704C81.4425 23.9003 81.6961 22.9531 82.7007 22.9531C83.7053 22.9531 83.9588 23.9003 83.9588 24.704C83.9588 25.5077 83.7053 26.4549 82.7007 26.4549C81.6961 26.4549 81.4425 25.5077 81.4425 24.704ZM82.1601 24.704C82.1601 25.058 82.184 25.7947 82.7007 25.7947C83.2173 25.7947 83.2412 25.058 83.2412 24.704C83.2412 24.35 83.2173 23.6133 82.7007 23.6133C82.184 23.6133 82.1601 24.35 82.1601 24.704ZM85.1491 24.9672V24.3453H85.3834C85.6466 24.3453 85.9288 24.2879 85.9288 23.9673C85.9288 23.7616 85.7423 23.6133 85.5078 23.6133C85.283 23.6133 85.1299 23.7521 85.0868 23.929L84.2975 23.7664C84.4458 23.178 84.929 22.9531 85.5031 22.9531C86.1059 22.9531 86.6464 23.245 86.6464 23.8956C86.6464 24.2687 86.4407 24.5605 86.0676 24.637V24.6514C86.4742 24.704 86.7038 25.0485 86.7038 25.4407C86.7038 26.12 86.1489 26.4549 85.4839 26.4549C84.8812 26.4549 84.4075 26.187 84.2688 25.5795L85.0247 25.4025C85.0725 25.6417 85.2208 25.7947 85.527 25.7947C85.838 25.7947 85.9862 25.613 85.9862 25.3595C85.9862 24.9767 85.637 24.9672 85.3165 24.9672H85.1491ZM88.3246 26.3975V23.8142L87.6453 24.4122L87.2386 23.9434L88.3438 23.0105H89.0135V26.3975H88.3246Z" fill="#232255"/>
<path d="M89.8613 23.7449V23.1901H89.6523V23.0216H90.2598V23.1901H90.0509V23.7449H89.8613ZM90.4143 23.7449V23.0216H90.6688L90.8409 23.4921L91.0129 23.0216H91.2675V23.7449H91.0779V23.2744H91.0744L90.9023 23.7449H90.7794L90.6074 23.2744H90.6039V23.7449H90.4143Z" fill="#232255"/>
<path d="M57.5276 32.6366V29.2496H58.5418L59.9818 31.6033H59.9913V29.2496H60.7376V32.6366H59.7617L58.2834 30.2255H58.2739V32.6366H57.5276ZM61.2515 31.4742C61.2515 30.7326 61.8256 30.2542 62.5431 30.2542C63.2607 30.2542 63.8348 30.7326 63.8348 31.4742C63.8348 32.2156 63.2607 32.694 62.5431 32.694C61.8256 32.694 61.2515 32.2156 61.2515 31.4742ZM61.9691 31.4742C61.9691 31.8234 62.1844 32.0626 62.5431 32.0626C62.902 32.0626 63.1172 31.8234 63.1172 31.4742C63.1172 31.1249 62.902 30.8857 62.5431 30.8857C62.1844 30.8857 61.9691 31.1249 61.9691 31.4742ZM65.764 32.6366V29.2496H66.8834C67.9741 29.2496 68.8878 29.7137 68.8878 30.9527C68.8878 32.0482 67.9933 32.6366 66.9838 32.6366H65.764ZM66.5103 29.9385V31.9477H66.8977C67.5914 31.9477 68.1128 31.6847 68.1128 30.9144C68.1128 30.2495 67.5819 29.9385 66.9504 29.9385H66.5103ZM71.5802 29.5175L71.0683 30.0773C70.9487 29.9242 70.7095 29.8524 70.5277 29.8524C70.3172 29.8524 70.0254 29.9481 70.0254 30.2017C70.0254 30.8187 71.585 30.4217 71.585 31.6081C71.585 32.364 70.9774 32.7227 70.2789 32.7227C69.8436 32.7227 69.4609 32.5936 69.1404 32.297L69.6714 31.7134C69.8245 31.9143 70.0733 32.0339 70.322 32.0339C70.566 32.0339 70.8387 31.919 70.8387 31.6798C70.8387 31.0579 69.2504 31.3928 69.2504 30.2638C69.2504 29.5415 69.8771 29.1635 70.5421 29.1635C70.9248 29.1635 71.2931 29.264 71.5802 29.5175ZM72.7963 32.6366V29.9098H71.83V29.2496H74.509V29.9098H73.5426V32.6366H72.7963ZM74.5291 32.7227L75.9595 28.9961L76.5049 29.1635L75.0697 32.8902L74.5291 32.7227ZM76.9557 32.6366L78.343 29.9098H76.6686V29.2496H79.1467V29.8811L77.7928 32.6366H76.9557ZM79.5572 32.6366V31.876L80.8727 30.6944C81.0066 30.57 81.1741 30.4265 81.1741 30.2208C81.1741 29.9912 80.9779 29.8524 80.7579 29.8524C80.4948 29.8524 80.3369 30.039 80.3178 30.2829L79.6002 30.2304C79.6433 29.5319 80.1312 29.1922 80.7961 29.1922C81.4133 29.1922 81.8917 29.5319 81.8917 30.2112C81.8917 30.6465 81.7051 30.8953 81.4468 31.1202L80.4183 32.0051H81.9204V32.6366H79.5572ZM83.5316 32.6366V30.0533L82.8523 30.6513L82.4457 30.1825L83.5507 29.2496H84.2205V32.6366H83.5316ZM86.745 32.6366V29.2496H87.4912V30.5126H88.9407V29.2496H89.687V32.6366H88.9407V31.1727H87.4912V32.6366H86.745ZM91.743 32.6366V32.3448H91.7334C91.5754 32.5936 91.2886 32.694 90.9968 32.694C90.5615 32.694 90.1692 32.4453 90.1692 31.9764C90.1692 31.1727 91.1451 31.1584 91.743 31.1584C91.743 30.9049 91.5324 30.7422 91.2839 30.7422C91.0494 30.7422 90.8533 30.8474 90.7002 31.0197L90.3175 30.6274C90.5806 30.3786 90.9633 30.2542 91.341 30.2542C92.1784 30.2542 92.4031 30.6801 92.4031 31.455V32.6366H91.743ZM91.743 31.6177H91.5657C91.3463 31.6177 90.8581 31.6368 90.8581 31.9526C90.8581 32.1248 91.0398 32.2061 91.1978 32.2061C91.4797 32.2061 91.743 32.0578 91.743 31.7708V31.6177ZM92.8534 32.6366V30.3116H93.5425V30.6274H93.5521C93.6478 30.4456 93.8822 30.2542 94.2315 30.2542C94.9583 30.2542 95.0926 30.7326 95.0926 31.3545V32.6366H94.3746V31.4981C94.3746 31.2302 94.3702 30.8857 94.0016 30.8857C93.6285 30.8857 93.5715 31.1776 93.5715 31.4789V32.6366H92.8534ZM98.0402 29.02V32.6366H97.3801V32.3305H97.3705C97.2608 32.4979 96.9834 32.694 96.6577 32.694C95.9687 32.694 95.514 32.1965 95.514 31.4933C95.514 30.8474 95.916 30.2542 96.5761 30.2542C96.8728 30.2542 97.1502 30.3356 97.3134 30.5604H97.3231V29.02H98.0402ZM97.3801 31.4742C97.3801 31.1249 97.1651 30.8857 96.8061 30.8857C96.4471 30.8857 96.232 31.1249 96.232 31.4742C96.232 31.8234 96.4471 32.0626 96.8061 32.0626C97.1651 32.0626 97.3801 31.8234 97.3801 31.4742ZM100.661 30.5652L100.187 31.0628C100.116 30.9623 99.9819 30.8857 99.8335 30.8857C99.4745 30.8857 99.2595 31.1249 99.2595 31.4742C99.2595 31.8234 99.4745 32.0626 99.8335 32.0626C99.9915 32.0626 100.107 31.9813 100.187 31.8856L100.661 32.3831C100.437 32.6127 100.107 32.694 99.8335 32.694C99.1164 32.694 98.5423 32.2156 98.5423 31.4742C98.5423 30.7326 99.1164 30.2542 99.8335 30.2542C100.107 30.2542 100.437 30.3356 100.661 30.5652ZM103.16 30.3116V32.6366H102.471V32.3209H102.462C102.367 32.5027 102.132 32.694 101.783 32.694C101.055 32.694 100.922 32.2156 100.922 31.5937V30.3116H101.639V31.4502C101.639 31.7181 101.644 32.0626 102.012 32.0626C102.385 32.0626 102.443 31.7708 102.443 31.4693V30.3116H103.16ZM103.917 32.6366V30.8857H103.444V30.3116H103.917V29.9002C103.917 29.3931 104.047 28.9626 104.826 28.9626C104.969 28.9626 105.113 28.9722 105.248 29.0057L105.213 29.6132C105.133 29.5845 105.065 29.5654 104.979 29.5654C104.75 29.5654 104.635 29.6372 104.635 29.9433V30.3116H105.166V30.8857H104.635V32.6366H103.917ZM105.604 32.6366V30.8857H105.13V30.3116H105.604V29.9002C105.604 29.3931 105.733 28.9626 106.513 28.9626C106.657 28.9626 106.8 28.9722 106.934 29.0057L106.901 29.6132C106.819 29.5845 106.752 29.5654 106.666 29.5654C106.436 29.5654 106.321 29.6372 106.321 29.9433V30.3116H106.852V30.8857H106.321V32.6366H105.604ZM108.882 30.5604L108.441 30.9958C108.336 30.8666 108.197 30.7996 108.025 30.7996C107.906 30.7996 107.762 30.8523 107.762 30.991C107.762 31.3354 108.972 31.0436 108.972 31.9286C108.972 32.5218 108.398 32.694 107.9 32.694C107.576 32.694 107.217 32.6127 106.987 32.3783L107.422 31.8952C107.556 32.0578 107.714 32.1487 107.929 32.1487C108.092 32.1487 108.255 32.1057 108.255 31.9813C108.255 31.6081 107.045 31.9239 107.045 31.0388C107.045 30.4934 107.533 30.2542 108.021 30.2542C108.327 30.2542 108.666 30.3308 108.882 30.5604Z" fill="#232255"/>
<path d="M109.594 29.746V29.1913H109.385V29.0227H109.993V29.1913H109.784V29.746H109.594ZM110.147 29.746V29.0227H110.402L110.574 29.4932L110.746 29.0227H111V29.746H110.811V29.2755H110.807L110.635 29.746H110.512L110.34 29.2755H110.337V29.746H110.147Z" fill="#232255"/>
<path d="M57.7058 36.7665C57.7058 35.6806 58.4761 34.9869 59.5333 34.9869C60.5905 34.9869 61.3607 35.6806 61.3607 36.7665C61.3607 37.8525 60.5905 38.5461 59.5333 38.5461C58.4761 38.5461 57.7058 37.8525 57.7058 36.7665ZM58.4808 36.7665C58.4808 37.398 58.897 37.8572 59.5333 37.8572C60.1696 37.8572 60.5857 37.398 60.5857 36.7665C60.5857 36.135 60.1696 35.6758 59.5333 35.6758C58.897 35.6758 58.4808 36.135 58.4808 36.7665ZM62.3511 38.46L61.4996 36.135H62.265L62.7387 37.5942H62.7482L63.1452 36.135H63.9298L64.3604 37.5942H64.3699L64.8053 36.135H65.5325L64.7048 38.46H63.9968L63.5136 36.9149H63.5041L63.0735 38.46H62.3511ZM65.7621 38.46V36.135H66.451V36.4508H66.4605C66.5562 36.269 66.7907 36.0776 67.1398 36.0776C67.867 36.0776 68.0009 36.556 68.0009 37.1779V38.46H67.2834V37.3214C67.2834 37.0535 67.2786 36.7091 66.9102 36.7091C66.5371 36.7091 66.4797 37.001 66.4797 37.3023V38.46H65.7621ZM71.5081 36.135V36.7091H70.8766V37.4841C70.8766 37.7329 70.9053 37.9147 71.2163 37.9147C71.2929 37.9147 71.446 37.9051 71.5081 37.8477V38.4457C71.3503 38.5031 71.1732 38.5174 71.0059 38.5174C70.5275 38.5174 70.1591 38.3213 70.1591 37.8142V36.7091H69.6998V36.135H70.1591V35.4462H70.8766V36.135H71.5081ZM71.8728 34.8434H72.5904V36.4508H72.6C72.667 36.269 72.9013 36.0776 73.2506 36.0776C73.9778 36.0776 74.1117 36.556 74.1117 37.1779V38.46H73.3941V37.3214C73.3941 37.0535 73.3893 36.7091 73.021 36.7091C72.6478 36.7091 72.5904 37.001 72.5904 37.3023V38.46H71.8728V34.8434ZM76.3181 37.6899L76.8204 38.0582C76.5907 38.35 76.2128 38.5174 75.8397 38.5174C75.1221 38.5174 74.548 38.039 74.548 37.2976C74.548 36.556 75.1221 36.0776 75.8397 36.0776C76.5094 36.0776 76.9304 36.556 76.9304 37.2976V37.5224H75.2656C75.323 37.7951 75.5287 37.9721 75.8062 37.9721C76.0406 37.9721 76.1985 37.8525 76.3181 37.6899ZM75.2656 37.0344H76.2128C76.2176 36.7952 76.0311 36.5943 75.7727 36.5943C75.457 36.5943 75.2848 36.8096 75.2656 37.0344ZM78.8732 38.46V35.073H79.9927C81.0834 35.073 81.9972 35.5371 81.9972 36.7761C81.9972 37.8716 81.1025 38.46 80.0932 38.46H78.8732ZM79.6195 35.7619V37.7711H80.0071C80.7007 37.7711 81.2222 37.5081 81.2222 36.7378C81.2222 36.0729 80.6911 35.7619 80.0596 35.7619H79.6195ZM84.1106 37.6899L84.6129 38.0582C84.3833 38.35 84.0053 38.5174 83.6322 38.5174C82.9146 38.5174 82.3405 38.039 82.3405 37.2976C82.3405 36.556 82.9146 36.0776 83.6322 36.0776C84.3019 36.0776 84.7229 36.556 84.7229 37.2976V37.5224H83.0581C83.1155 37.7951 83.3213 37.9721 83.5988 37.9721C83.8331 37.9721 83.991 37.8525 84.1106 37.6899ZM83.0581 37.0344H84.0053C84.0102 36.7952 83.8236 36.5943 83.5652 36.5943C83.2495 36.5943 83.0773 36.8096 83.0581 37.0344ZM86.8576 37.6899L87.36 38.0582C87.1303 38.35 86.7524 38.5174 86.3792 38.5174C85.6616 38.5174 85.0876 38.039 85.0876 37.2976C85.0876 36.556 85.6616 36.0776 86.3792 36.0776C87.049 36.0776 87.4699 36.556 87.4699 37.2976V37.5224H85.8051C85.8626 37.7951 86.0683 37.9721 86.3458 37.9721C86.5801 37.9721 86.7381 37.8525 86.8576 37.6899ZM85.8051 37.0344H86.7524C86.7572 36.7952 86.5706 36.5943 86.3122 36.5943C85.9965 36.5943 85.8243 36.8096 85.8051 37.0344ZM90.3462 34.8434V38.46H89.686V38.1538H89.6764C89.5664 38.3213 89.2889 38.5174 88.9636 38.5174C88.2747 38.5174 87.8203 38.0199 87.8203 37.3167C87.8203 36.6708 88.2221 36.0776 88.8823 36.0776C89.1789 36.0776 89.4564 36.159 89.619 36.3838H89.6286V34.8434H90.3462ZM89.686 37.2976C89.686 36.9483 89.4707 36.7091 89.1119 36.7091C88.7531 36.7091 88.5379 36.9483 88.5379 37.2976C88.5379 37.6468 88.7531 37.8859 89.1119 37.8859C89.4707 37.8859 89.686 37.6468 89.686 37.2976Z" fill="#232255"/>
<path d="M91.266 35.5704V35.0156H91.0571V34.8471H91.6645V35.0156H91.4555V35.5704H91.266ZM91.819 35.5704V34.8471H92.0735L92.2456 35.3176L92.4176 34.8471H92.6722V35.5704H92.4826V35.0999H92.479L92.307 35.5704H92.1841L92.0121 35.0999H92.0085V35.5704H91.819Z" fill="#232255"/>
<path d="M58.4993 44.3318V41.605H57.533V40.9448H60.2119V41.605H59.2456V44.3318H58.4993ZM60.5 40.7152H61.2176V42.3226H61.2272C61.2942 42.1408 61.5285 41.9494 61.8778 41.9494C62.6049 41.9494 62.7389 42.4278 62.7389 43.0497V44.3318H62.0213V43.1932C62.0213 42.9253 62.0165 42.5809 61.6482 42.5809C61.275 42.5809 61.2176 42.8728 61.2176 43.1741V44.3318H60.5V40.7152ZM64.9453 43.5616L65.4476 43.93C65.2179 44.2218 64.84 44.3892 64.4669 44.3892C63.7493 44.3892 63.1752 43.9108 63.1752 43.1694C63.1752 42.4278 63.7493 41.9494 64.4669 41.9494C65.1366 41.9494 65.5576 42.4278 65.5576 43.1694V43.3942H63.8928C63.9502 43.6669 64.1559 43.8439 64.4334 43.8439C64.6678 43.8439 64.8256 43.7243 64.9453 43.5616ZM63.8928 42.9062H64.84C64.8448 42.667 64.6583 42.4661 64.3999 42.4661C64.0842 42.4661 63.912 42.6814 63.8928 42.9062ZM68.1559 44.3318V41.605H67.1895V40.9448H69.8685V41.605H68.9021V44.3318H68.1559ZM70.2379 44.3318V40.9448H70.9842V44.3318H70.2379ZM74.452 41.3562L73.8779 41.825C73.7297 41.6481 73.5144 41.5476 73.2369 41.5476C72.6724 41.5476 72.2562 42.0068 72.2562 42.6383C72.2562 43.2698 72.6724 43.729 73.213 43.729C73.5144 43.729 73.7584 43.5951 73.9115 43.3655L74.5334 43.8295C74.2511 44.2314 73.7727 44.4179 73.3087 44.4179C72.2514 44.4179 71.4812 43.7243 71.4812 42.6383C71.4812 41.5524 72.2514 40.8587 73.3087 40.8587C73.6866 40.8587 74.165 40.9879 74.452 41.3562ZM77.1241 41.2127L76.6123 41.7725C76.4927 41.6194 76.2535 41.5476 76.0717 41.5476C75.8612 41.5476 75.5694 41.6433 75.5694 41.8968C75.5694 42.5139 77.129 42.1169 77.129 43.3033C77.129 44.0592 76.5214 44.4179 75.8229 44.4179C75.3876 44.4179 75.0049 44.2888 74.6843 43.9922L75.2154 43.4086C75.3685 43.6095 75.6173 43.729 75.866 43.729C76.11 43.729 76.3827 43.6142 76.3827 43.375C76.3827 42.7531 74.7944 43.088 74.7944 41.959C74.7944 41.2367 75.4211 40.8587 76.0861 40.8587C76.4688 40.8587 76.8371 40.9592 77.1241 41.2127ZM77.594 40.7152H78.3116V42.3226H78.3212C78.3881 42.1408 78.6226 41.9494 78.9718 41.9494C79.6989 41.9494 79.8329 42.4278 79.8329 43.0497V44.3318H79.1153V43.1932C79.1153 42.9253 79.1106 42.5809 78.7422 42.5809C78.369 42.5809 78.3116 42.8728 78.3116 43.1741V44.3318H77.594V40.7152ZM82.0394 43.5616L82.5416 43.93C82.312 44.2218 81.9341 44.3892 81.561 44.3892C80.8434 44.3892 80.2693 43.9108 80.2693 43.1694C80.2693 42.4278 80.8434 41.9494 81.561 41.9494C82.2307 41.9494 82.6517 42.4278 82.6517 43.1694V43.3942H80.9869C81.0443 43.6669 81.25 43.8439 81.5274 43.8439C81.7619 43.8439 81.9197 43.7243 82.0394 43.5616ZM80.9869 42.9062H81.9341C81.9389 42.667 81.7523 42.4661 81.494 42.4661C81.1783 42.4661 81.006 42.6814 80.9869 42.9062ZM83.0976 44.3318V40.7152H83.8152V44.3318H83.0976ZM84.5795 44.3318V42.5809H84.1059V42.0068H84.5795V41.5954C84.5795 41.0883 84.7087 40.6578 85.4884 40.6578C85.6319 40.6578 85.7755 40.6673 85.9094 40.7009L85.876 41.3084C85.7946 41.2797 85.7276 41.2605 85.6415 41.2605C85.4119 41.2605 85.2971 41.3323 85.2971 41.6385V42.0068H85.8281V42.5809H85.2971V44.3318H84.5795Z" fill="#232255"/>
<path d="M86.7895 41.4421V40.8873H86.5806V40.7188H87.188V40.8873H86.9791V41.4421H86.7895ZM87.3425 41.4421V40.7188H87.597L87.7691 41.1893L87.9411 40.7188H88.1957V41.4421H88.0061V40.9716H88.0026L87.8305 41.4421H87.7076L87.5356 40.9716H87.5321V41.4421H87.3425Z" fill="#232255"/>
<path d="M54.7289 22.7809H54.4707V44.4168H54.7289V22.7809Z" fill="#232255"/>
</svg>
