<?xml version="1.0" encoding="UTF-8"?>
<svg id="Layer_1" data-name="Layer 1" xmlns="http://www.w3.org/2000/svg" viewBox="0 0 129.98 49.14">
  <defs>
    <style>
      .cls-1 {
        fill: #232156;
      }

      .cls-1, .cls-2 {
        stroke-width: 0px;
      }

      .cls-2 {
        fill: #4178bd;
      }
    </style>
  </defs>
  <path class="cls-2" d="M1.15,31.05h29.72V1.32H1.15v29.72ZM20.96,21.14h-9.91v-9.91h9.91v9.91Z"/>
  <g>
    <path class="cls-1" d="M1.1,35.25h1.58c.18,0,.37.01.55.04s.35.08.5.16c.15.08.27.19.36.33.09.14.14.33.14.56s-.07.44-.2.59c-.13.16-.31.27-.53.34h0c.14.03.27.07.38.13.11.06.21.13.29.22.08.09.14.19.19.31s.07.25.07.38c0,.22-.05.41-.14.56-.1.15-.22.27-.37.36s-.32.16-.51.2c-.19.04-.38.06-.57.06h-1.73v-4.23ZM2.04,36.95h.68c.07,0,.14,0,.21-.02.07-.02.13-.04.19-.08s.1-.08.13-.14c.03-.06.05-.13.05-.22,0-.09-.02-.16-.06-.22-.04-.06-.09-.1-.15-.13-.06-.03-.13-.05-.2-.07-.08-.01-.15-.02-.22-.02h-.63v.9ZM2.04,38.7h.84c.07,0,.14,0,.22-.02.07-.02.14-.04.2-.08.06-.04.11-.09.15-.16.04-.06.06-.14.06-.23,0-.1-.02-.18-.07-.24-.05-.06-.11-.11-.19-.14-.08-.03-.16-.05-.25-.07-.09-.01-.17-.02-.25-.02h-.71v.96Z"/>
    <path class="cls-1" d="M4.87,36.58h.9v.47h.01c.1-.18.21-.31.34-.4.13-.09.3-.13.5-.13.05,0,.1,0,.16,0,.05,0,.1.01.14.02v.82c-.06-.02-.13-.03-.19-.04-.06,0-.13-.01-.19-.01-.17,0-.31.02-.41.07-.1.05-.18.11-.23.2-.05.09-.09.19-.1.31-.02.12-.02.25-.02.39v1.21h-.9v-2.91Z"/>
    <path class="cls-1" d="M7.09,38.04c0-.23.04-.44.13-.63.08-.19.2-.35.34-.48.15-.13.32-.24.51-.31.2-.07.41-.11.63-.11s.43.04.63.11.37.17.51.31c.15.13.26.29.34.48.08.19.13.4.13.63s-.04.44-.13.63c-.08.19-.2.35-.34.48-.15.13-.32.24-.51.31s-.41.11-.63.11-.43-.04-.63-.11c-.2-.07-.37-.17-.51-.31-.15-.13-.26-.29-.34-.48-.08-.19-.13-.4-.13-.63ZM7.98,38.04c0,.22.06.4.19.53s.3.2.53.2.4-.07.53-.2.19-.31.19-.53-.06-.4-.19-.53-.3-.2-.53-.2-.4.07-.53.2-.19.31-.19.53Z"/>
    <path class="cls-1" d="M10.84,34.97h.9v2.76l.99-1.15h1.1l-1.15,1.31,1.18,1.6h-1.13l-.98-1.47h-.01v1.47h-.9v-4.52Z"/>
    <path class="cls-1" d="M16.92,38.99c-.14.18-.33.32-.54.42-.22.1-.45.15-.68.15s-.43-.04-.63-.11-.37-.17-.51-.31c-.15-.13-.26-.29-.34-.48-.08-.19-.13-.4-.13-.63s.04-.44.13-.63c.08-.19.2-.35.34-.48.15-.13.32-.24.51-.31s.41-.11.63-.11c.21,0,.4.04.57.11.17.07.31.17.43.31.12.13.21.29.27.48.06.19.1.4.1.63v.28h-2.08c.04.17.11.31.23.41.12.1.27.15.44.15.15,0,.27-.03.37-.1.1-.07.19-.15.27-.25l.63.46ZM16.16,37.71c0-.15-.05-.28-.15-.39-.1-.11-.24-.16-.4-.16-.1,0-.19.02-.26.05s-.14.07-.19.12c-.05.05-.1.11-.13.17-.03.07-.05.13-.05.21h1.18Z"/>
    <path class="cls-1" d="M17.6,36.58h.9v.47h.01c.1-.18.21-.31.34-.4.13-.09.3-.13.5-.13.05,0,.1,0,.16,0,.05,0,.1.01.14.02v.82c-.06-.02-.13-.03-.19-.04-.06,0-.13-.01-.19-.01-.17,0-.31.02-.41.07-.1.05-.18.11-.23.2-.05.09-.09.19-.1.31-.02.12-.02.25-.02.39v1.21h-.9v-2.91Z"/>
    <path class="cls-1" d="M21.86,39.12h-.01c-.1.16-.23.27-.4.34-.17.07-.34.1-.52.1-.14,0-.27-.02-.39-.06-.13-.04-.24-.09-.33-.17-.1-.08-.17-.17-.23-.28s-.08-.24-.08-.39c0-.17.03-.31.09-.42.06-.12.15-.21.25-.29.11-.08.23-.13.36-.18.14-.04.28-.07.42-.09.15-.02.29-.03.44-.04.15,0,.28,0,.4,0,0-.16-.06-.29-.17-.38-.11-.09-.25-.14-.4-.14s-.28.03-.4.09-.23.15-.33.25l-.48-.49c.17-.16.36-.27.59-.35s.45-.12.69-.12c.26,0,.48.03.65.1.17.07.3.16.41.29.1.13.17.28.21.47.04.19.06.4.06.64v1.48h-.83v-.36ZM21.64,38.22c-.07,0-.15,0-.25,0-.1,0-.2.02-.29.05-.09.03-.17.07-.24.13s-.1.13-.1.23c0,.11.05.19.14.24.09.05.19.08.29.08.09,0,.17-.01.25-.04.08-.02.15-.06.22-.1.06-.04.11-.1.15-.17s.06-.15.06-.24v-.19h-.22Z"/>
    <path class="cls-1" d="M26.3,39.24c0,.55-.14.97-.42,1.25-.28.28-.7.43-1.27.43-.26,0-.51-.03-.77-.09-.25-.06-.48-.17-.69-.34l.5-.74c.14.12.29.21.44.28s.32.1.51.1c.28,0,.48-.07.61-.2s.19-.3.19-.51v-.28h-.01c-.1.14-.23.24-.39.3-.15.06-.3.09-.43.09-.22,0-.41-.04-.59-.11-.18-.07-.33-.18-.45-.31-.13-.13-.22-.29-.29-.48s-.1-.38-.1-.6c0-.19.03-.38.09-.56s.15-.34.26-.48c.11-.14.25-.25.42-.34s.35-.13.56-.13c.13,0,.24.01.35.04s.2.06.28.11c.08.04.16.09.22.15.06.05.11.11.14.16h.01v-.38h.83v2.66ZM24.04,38.02c0,.1.02.19.05.27s.09.16.15.23.14.12.23.16c.09.04.18.06.28.06s.19-.02.28-.06c.09-.04.16-.09.23-.16s.12-.14.15-.23.05-.18.05-.27-.02-.19-.05-.27-.09-.16-.15-.23c-.07-.07-.14-.12-.23-.16-.09-.04-.18-.06-.28-.06s-.2.02-.28.06c-.09.04-.16.09-.23.16-.07.07-.12.14-.15.23s-.05.18-.05.27Z"/>
    <path class="cls-1" d="M29.77,38.99c-.14.18-.33.32-.54.42-.22.1-.45.15-.68.15s-.43-.04-.63-.11-.37-.17-.51-.31c-.15-.13-.26-.29-.34-.48-.08-.19-.13-.4-.13-.63s.04-.44.13-.63c.08-.19.2-.35.34-.48.15-.13.32-.24.51-.31s.41-.11.63-.11c.21,0,.4.04.57.11.17.07.31.17.43.31.12.13.21.29.27.48.06.19.1.4.1.63v.28h-2.08c.04.17.11.31.23.41.12.1.27.15.44.15.15,0,.27-.03.37-.1.1-.07.19-.15.27-.25l.63.46ZM29.01,37.71c0-.15-.05-.28-.15-.39-.1-.11-.24-.16-.4-.16-.1,0-.19.02-.26.05-.08.03-.14.07-.19.12-.05.05-.1.11-.13.17s-.05.13-.05.21h1.18Z"/>
    <path class="cls-1" d="M34.42,36.29c-.08-.1-.18-.17-.31-.21-.13-.05-.25-.07-.37-.07-.07,0-.14,0-.21.02-.07.02-.14.04-.2.07-.06.03-.12.08-.16.13-.04.06-.06.12-.06.2,0,.13.05.23.14.29.1.07.22.13.36.17.15.05.3.1.47.14s.32.12.47.2.27.21.36.35c.1.15.14.34.14.59s-.04.44-.13.62c-.09.18-.21.32-.36.44-.15.12-.32.2-.52.26s-.41.08-.63.08c-.28,0-.53-.04-.77-.13-.24-.08-.45-.22-.66-.41l.66-.73c.1.13.22.23.36.3.15.07.3.1.45.1.08,0,.15,0,.23-.03.08-.02.15-.04.21-.08s.11-.08.15-.14.06-.12.06-.2c0-.13-.05-.23-.15-.3-.1-.07-.22-.14-.37-.19-.15-.05-.31-.1-.48-.16-.17-.05-.33-.12-.48-.21-.15-.09-.27-.2-.37-.35-.1-.14-.15-.33-.15-.57s.05-.43.13-.6.21-.32.36-.43c.15-.12.32-.2.52-.26s.4-.09.6-.09c.24,0,.47.03.69.1.22.07.42.18.6.34l-.64.7Z"/>
    <path class="cls-1" d="M38.4,38.99c-.14.18-.33.32-.54.42-.22.1-.45.15-.68.15s-.43-.04-.63-.11-.37-.17-.51-.31c-.15-.13-.26-.29-.34-.48-.08-.19-.13-.4-.13-.63s.04-.44.13-.63c.08-.19.2-.35.34-.48.15-.13.32-.24.51-.31s.41-.11.63-.11c.21,0,.4.04.57.11.17.07.31.17.43.31.12.13.21.29.27.48.06.19.1.4.1.63v.28h-2.08c.04.17.11.31.23.41.12.1.27.15.44.15.15,0,.27-.03.37-.1.1-.07.19-.15.27-.25l.63.46ZM37.64,37.71c0-.15-.05-.28-.15-.39-.1-.11-.24-.16-.4-.16-.1,0-.19.02-.26.05-.08.03-.14.07-.19.12-.05.05-.1.11-.13.17s-.05.13-.05.21h1.18Z"/>
    <path class="cls-1" d="M39.08,36.58h.9v.47h.01c.1-.18.21-.31.34-.4.13-.09.3-.13.5-.13.05,0,.1,0,.16,0,.05,0,.1.01.14.02v.82c-.06-.02-.13-.03-.19-.04-.06,0-.13-.01-.19-.01-.17,0-.31.02-.41.07-.1.05-.18.11-.23.2-.05.09-.09.19-.1.31-.02.12-.02.25-.02.39v1.21h-.9v-2.91Z"/>
    <path class="cls-1" d="M41.21,36.58h.97l.74,1.97h.01l.68-1.97h.9l-1.15,2.91h-.95l-1.2-2.91Z"/>
    <path class="cls-1" d="M44.78,35.67c0-.14.05-.27.15-.37s.22-.15.37-.15.27.05.37.15c.1.1.15.22.15.37s-.05.27-.15.37-.22.15-.37.15-.27-.05-.37-.15c-.1-.1-.15-.22-.15-.37ZM44.86,36.58h.9v2.91h-.9v-2.91Z"/>
    <path class="cls-1" d="M48.37,37.52c-.04-.06-.11-.12-.19-.16-.08-.04-.17-.06-.26-.06-.23,0-.4.07-.53.2-.13.14-.19.31-.19.53s.06.4.19.53c.13.14.3.2.53.2.1,0,.19-.02.26-.07.07-.04.13-.1.19-.16l.59.62c-.14.14-.3.24-.49.3s-.37.09-.54.09c-.22,0-.43-.04-.63-.11s-.37-.17-.51-.31c-.15-.13-.26-.29-.34-.48-.08-.19-.13-.4-.13-.63s.04-.44.13-.63c.08-.19.2-.35.34-.48.15-.13.32-.24.51-.31s.41-.11.63-.11c.17,0,.35.03.54.09.19.06.35.16.49.3l-.59.62Z"/>
    <path class="cls-1" d="M52.03,38.99c-.14.18-.32.32-.54.42-.22.1-.45.15-.68.15s-.43-.04-.63-.11-.37-.17-.51-.31c-.15-.13-.26-.29-.34-.48-.08-.19-.13-.4-.13-.63s.04-.44.13-.63c.08-.19.2-.35.34-.48.15-.13.32-.24.51-.31s.41-.11.63-.11c.21,0,.4.04.57.11.17.07.31.17.43.31.12.13.21.29.27.48.06.19.1.4.1.63v.28h-2.08c.04.17.11.31.23.41.12.1.27.15.44.15.15,0,.27-.03.37-.1s.19-.15.27-.25l.63.46ZM51.27,37.71c0-.15-.05-.28-.15-.39-.1-.11-.24-.16-.4-.16-.1,0-.19.02-.26.05-.08.03-.14.07-.19.12s-.1.11-.13.17c-.03.07-.05.13-.05.21h1.18Z"/>
    <path class="cls-1" d="M54.36,37.44c-.13-.16-.31-.25-.52-.25-.08,0-.15.02-.22.05-.07.04-.11.1-.11.19,0,.07.04.12.11.16.07.03.17.06.28.09.11.03.24.05.36.08s.25.08.36.14c.11.06.21.15.28.26s.11.26.11.44-.04.34-.12.46c-.08.12-.19.22-.31.29-.13.07-.27.13-.43.16-.16.03-.32.04-.47.04-.2,0-.41-.03-.62-.09-.21-.06-.38-.16-.53-.31l.54-.6c.08.1.18.18.28.24.1.05.22.08.36.08.1,0,.2-.01.28-.04s.13-.08.13-.16c0-.08-.04-.13-.11-.17s-.17-.07-.28-.1c-.11-.03-.24-.05-.36-.08s-.25-.07-.36-.13c-.11-.06-.21-.14-.28-.25s-.11-.26-.11-.44c0-.17.03-.32.1-.44s.16-.23.28-.3c.11-.08.24-.14.39-.18s.3-.06.45-.06c.19,0,.38.03.58.08.2.06.36.16.5.3l-.55.54Z"/>
    <path class="cls-1" d="M57.98,35v5.98h-.75v-5.98h.75Z"/>
    <path class="cls-1" d="M60.5,35.25h.93v3.37h1.73v.86h-2.66v-4.23Z"/>
    <path class="cls-1" d="M66.32,38.99c-.14.18-.32.32-.54.42-.22.1-.45.15-.68.15s-.43-.04-.63-.11-.37-.17-.51-.31c-.15-.13-.26-.29-.34-.48-.08-.19-.13-.4-.13-.63s.04-.44.13-.63c.08-.19.2-.35.34-.48.15-.13.32-.24.51-.31s.41-.11.63-.11c.21,0,.4.04.57.11.17.07.31.17.43.31.12.13.21.29.27.48.06.19.1.4.1.63v.28h-2.08c.04.17.11.31.23.41.12.1.27.15.44.15.15,0,.27-.03.37-.1s.19-.15.27-.25l.63.46ZM65.56,37.71c0-.15-.05-.28-.15-.39-.1-.11-.24-.16-.4-.16-.1,0-.19.02-.26.05-.08.03-.14.07-.19.12s-.1.11-.13.17c-.03.07-.05.13-.05.21h1.18Z"/>
    <path class="cls-1" d="M68.82,39.12h-.01c-.1.16-.23.27-.4.34-.17.07-.34.1-.52.1-.14,0-.27-.02-.39-.06-.13-.04-.24-.09-.33-.17-.1-.08-.17-.17-.23-.28s-.08-.24-.08-.39c0-.17.03-.31.09-.42.06-.12.15-.21.25-.29.11-.08.23-.13.36-.18.14-.04.28-.07.42-.09.15-.02.29-.03.44-.04.15,0,.28,0,.4,0,0-.16-.06-.29-.17-.38-.11-.09-.25-.14-.4-.14s-.28.03-.4.09-.23.15-.33.25l-.48-.49c.17-.16.36-.27.59-.35s.45-.12.69-.12c.26,0,.48.03.65.1.17.07.3.16.41.29.1.13.17.28.21.47.04.19.06.4.06.64v1.48h-.83v-.36ZM68.6,38.22c-.07,0-.15,0-.25,0-.1,0-.2.02-.29.05-.09.03-.17.07-.24.13s-.1.13-.1.23c0,.11.05.19.14.24.09.05.19.08.29.08.09,0,.17-.01.25-.04.08-.02.15-.06.22-.1.06-.04.11-.1.15-.17s.06-.15.06-.24v-.19h-.22Z"/>
    <path class="cls-1" d="M71.85,37.44c-.13-.16-.31-.25-.52-.25-.08,0-.15.02-.22.05-.07.04-.11.1-.11.19,0,.07.04.12.11.16.07.03.17.06.28.09.11.03.24.05.36.08s.25.08.36.14c.11.06.21.15.28.26s.11.26.11.44-.04.34-.12.46c-.08.12-.19.22-.31.29-.13.07-.27.13-.43.16-.16.03-.32.04-.47.04-.2,0-.41-.03-.62-.09-.21-.06-.38-.16-.53-.31l.54-.6c.08.1.18.18.28.24.1.05.22.08.36.08.1,0,.2-.01.28-.04s.13-.08.13-.16c0-.08-.04-.13-.11-.17s-.17-.07-.28-.1c-.11-.03-.24-.05-.36-.08s-.25-.07-.36-.13c-.11-.06-.21-.14-.28-.25s-.11-.26-.11-.44c0-.17.03-.32.1-.44s.16-.23.28-.3c.11-.08.24-.14.39-.18s.3-.06.45-.06c.19,0,.38.03.58.08.2.06.36.16.5.3l-.55.54Z"/>
    <path class="cls-1" d="M72.92,35.67c0-.14.05-.27.15-.37.1-.1.22-.15.37-.15s.27.05.37.15.15.22.15.37-.05.27-.15.37c-.1.1-.22.15-.37.15s-.27-.05-.37-.15-.15-.22-.15-.37ZM72.99,36.58h.9v2.91h-.9v-2.91Z"/>
    <path class="cls-1" d="M74.53,36.58h.86v.39h.01c.03-.06.07-.11.12-.17.05-.06.11-.11.19-.15.07-.04.15-.08.25-.11s.19-.04.3-.04c.23,0,.41.03.55.1.14.07.25.17.33.29.08.12.13.27.16.44.03.17.04.35.04.54v1.6h-.9v-1.42c0-.08,0-.17,0-.26,0-.09-.02-.17-.05-.25-.03-.08-.08-.14-.14-.19-.06-.05-.15-.07-.27-.07s-.21.02-.28.06c-.07.04-.13.1-.16.17-.04.07-.06.15-.07.24-.01.09-.02.18-.02.28v1.45h-.9v-2.91Z"/>
    <path class="cls-1" d="M81.02,39.24c0,.55-.14.97-.42,1.25-.28.28-.7.43-1.27.43-.26,0-.51-.03-.77-.09-.25-.06-.48-.17-.69-.34l.5-.74c.14.12.29.21.44.28s.32.1.51.1c.28,0,.48-.07.61-.2s.19-.3.19-.51v-.28h-.01c-.1.14-.23.24-.39.3-.15.06-.3.09-.43.09-.22,0-.41-.04-.59-.11-.18-.07-.33-.18-.45-.31-.13-.13-.22-.29-.29-.48-.07-.18-.1-.38-.1-.6,0-.19.03-.38.09-.56.06-.18.15-.34.26-.48.11-.14.25-.25.42-.34.16-.09.35-.13.56-.13.13,0,.24.01.35.04.11.03.2.06.28.11.08.04.16.09.22.15s.11.11.14.16h.01v-.38h.83v2.66ZM78.76,38.02c0,.1.02.19.05.27.04.09.09.16.15.23.07.07.14.12.23.16.09.04.18.06.28.06s.19-.02.28-.06c.09-.04.16-.09.23-.16.07-.07.12-.14.15-.23.04-.09.05-.18.05-.27s-.02-.19-.05-.27c-.04-.09-.09-.16-.15-.23-.07-.07-.14-.12-.23-.16-.09-.04-.18-.06-.28-.06s-.2.02-.28.06c-.09.04-.16.09-.23.16s-.12.14-.15.23c-.04.09-.05.18-.05.27Z"/>
    <path class="cls-1" d="M83.62,35.25h1.64c.22,0,.42.02.61.06.19.04.36.11.51.21.15.1.26.23.35.39.09.17.13.37.13.62,0,.3-.08.55-.23.76s-.38.34-.68.4l1.08,1.79h-1.12l-.89-1.69h-.46v1.69h-.93v-4.23ZM84.55,37.01h.55c.08,0,.17,0,.27,0,.09,0,.18-.02.25-.05.08-.03.14-.08.19-.14.05-.06.07-.15.07-.27,0-.11-.02-.19-.07-.26-.04-.06-.1-.11-.17-.15s-.15-.06-.23-.07c-.09-.01-.17-.02-.26-.02h-.61v.96Z"/>
    <path class="cls-1" d="M90.13,38.99c-.14.18-.32.32-.54.42-.22.1-.45.15-.68.15s-.43-.04-.63-.11-.37-.17-.51-.31c-.15-.13-.26-.29-.34-.48-.08-.19-.13-.4-.13-.63s.04-.44.13-.63c.08-.19.2-.35.34-.48.15-.13.32-.24.51-.31s.41-.11.63-.11c.21,0,.4.04.57.11.17.07.31.17.43.31.12.13.21.29.27.48.06.19.1.4.1.63v.28h-2.08c.04.17.11.31.23.41.12.1.27.15.44.15.15,0,.27-.03.37-.1s.19-.15.27-.25l.63.46ZM89.37,37.71c0-.15-.05-.28-.15-.39-.1-.11-.24-.16-.4-.16-.1,0-.19.02-.26.05-.08.03-.14.07-.19.12s-.1.11-.13.17c-.03.07-.05.13-.05.21h1.18Z"/>
    <path class="cls-1" d="M90.9,36.58h.83v.38h.01c.04-.05.08-.1.14-.16.06-.05.13-.1.2-.15.08-.04.16-.08.25-.11.09-.03.19-.04.29-.04.22,0,.41.04.59.11.18.07.33.18.45.31.13.13.22.29.29.48s.1.38.1.6c0,.2-.03.4-.09.58s-.15.35-.26.49c-.11.14-.25.26-.42.34-.16.09-.35.13-.56.13-.19,0-.36-.03-.52-.09s-.29-.16-.4-.3h-.01v1.67h-.9v-4.27ZM91.72,38.04c0,.22.06.4.19.53.13.14.3.2.53.2s.4-.07.53-.2c.13-.14.19-.31.19-.53s-.06-.4-.19-.53c-.13-.14-.3-.2-.53-.2s-.4.07-.53.2c-.13.14-.19.31-.19.53Z"/>
    <path class="cls-1" d="M94.58,36.58h.9v.47h.01c.1-.18.21-.31.34-.4.13-.09.3-.13.5-.13.05,0,.1,0,.16,0,.05,0,.1.01.14.02v.82c-.06-.02-.13-.03-.19-.04-.06,0-.13-.01-.19-.01-.17,0-.31.02-.41.07-.1.05-.18.11-.23.2-.05.09-.09.19-.1.31-.02.12-.02.25-.02.39v1.21h-.9v-2.91Z"/>
    <path class="cls-1" d="M99.66,38.99c-.14.18-.32.32-.54.42-.22.1-.45.15-.68.15s-.43-.04-.63-.11-.37-.17-.51-.31c-.15-.13-.26-.29-.34-.48-.08-.19-.13-.4-.13-.63s.04-.44.13-.63c.08-.19.2-.35.34-.48.15-.13.32-.24.51-.31s.41-.11.63-.11c.21,0,.4.04.57.11.17.07.31.17.43.31.12.13.21.29.27.48.06.19.1.4.1.63v.28h-2.08c.04.17.11.31.23.41.12.1.27.15.44.15.15,0,.27-.03.37-.1s.19-.15.27-.25l.63.46ZM98.9,37.71c0-.15-.05-.28-.15-.39-.1-.11-.24-.16-.4-.16-.1,0-.19.02-.26.05-.08.03-.14.07-.19.12s-.1.11-.13.17c-.03.07-.05.13-.05.21h1.18Z"/>
    <path class="cls-1" d="M101.99,37.44c-.13-.16-.31-.25-.52-.25-.08,0-.15.02-.22.05-.07.04-.11.1-.11.19,0,.07.04.12.11.16.07.03.17.06.28.09.11.03.24.05.36.08s.25.08.36.14c.11.06.21.15.28.26s.11.26.11.44-.04.34-.12.46c-.08.12-.19.22-.31.29-.13.07-.27.13-.43.16-.16.03-.32.04-.47.04-.2,0-.41-.03-.62-.09-.21-.06-.38-.16-.53-.31l.54-.6c.08.1.18.18.28.24.1.05.22.08.36.08.1,0,.2-.01.28-.04s.13-.08.13-.16c0-.08-.04-.13-.11-.17s-.17-.07-.28-.1c-.11-.03-.24-.05-.36-.08s-.25-.07-.36-.13c-.11-.06-.21-.14-.28-.25s-.11-.26-.11-.44c0-.17.03-.32.1-.44s.16-.23.28-.3c.11-.08.24-.14.39-.18s.3-.06.45-.06c.19,0,.38.03.58.08.2.06.36.16.5.3l-.55.54Z"/>
    <path class="cls-1" d="M105.86,38.99c-.14.18-.32.32-.54.42-.22.1-.45.15-.68.15s-.43-.04-.63-.11-.37-.17-.51-.31c-.15-.13-.26-.29-.34-.48-.08-.19-.13-.4-.13-.63s.04-.44.13-.63c.08-.19.2-.35.34-.48.15-.13.32-.24.51-.31s.41-.11.63-.11c.21,0,.4.04.57.11.17.07.31.17.43.31.12.13.21.29.27.48.06.19.1.4.1.63v.28h-2.08c.04.17.11.31.23.41.12.1.27.15.44.15.15,0,.27-.03.37-.1s.19-.15.27-.25l.63.46ZM105.1,37.71c0-.15-.05-.28-.15-.39-.1-.11-.24-.16-.4-.16-.1,0-.19.02-.26.05-.08.03-.14.07-.19.12s-.1.11-.13.17c-.03.07-.05.13-.05.21h1.18Z"/>
    <path class="cls-1" d="M106.54,36.58h.86v.39h.01c.03-.06.07-.11.12-.17.05-.06.11-.11.19-.15.07-.04.15-.08.25-.11s.19-.04.3-.04c.23,0,.41.03.55.1.14.07.25.17.33.29.08.12.13.27.16.44.03.17.04.35.04.54v1.6h-.9v-1.42c0-.08,0-.17,0-.26,0-.09-.02-.17-.05-.25-.03-.08-.08-.14-.14-.19-.06-.05-.15-.07-.27-.07s-.21.02-.28.06c-.07.04-.13.1-.16.17-.04.07-.06.15-.07.24-.01.09-.02.18-.02.28v1.45h-.9v-2.91Z"/>
    <path class="cls-1" d="M111.96,37.3h-.79v.97c0,.08,0,.15.01.22,0,.07.03.12.05.17.03.05.07.08.13.11.06.03.13.04.23.04.05,0,.11,0,.19-.01.08,0,.14-.03.18-.07v.75c-.1.04-.2.06-.31.07-.11.01-.21.02-.32.02-.15,0-.29-.02-.42-.05-.13-.03-.24-.08-.34-.15-.1-.07-.17-.16-.22-.27-.05-.11-.08-.25-.08-.41v-1.38h-.57v-.72h.57v-.86h.9v.86h.79v.72Z"/>
    <path class="cls-1" d="M114.24,39.12h-.01c-.1.16-.23.27-.4.34s-.34.1-.52.1c-.14,0-.27-.02-.39-.06-.13-.04-.24-.09-.33-.17-.1-.08-.17-.17-.23-.28s-.08-.24-.08-.39c0-.17.03-.31.09-.42.06-.12.15-.21.25-.29.11-.08.23-.13.36-.18s.28-.07.42-.09.29-.03.44-.04.28,0,.4,0c0-.16-.06-.29-.17-.38-.11-.09-.25-.14-.4-.14-.15,0-.28.03-.4.09-.12.06-.23.15-.33.25l-.48-.49c.17-.16.36-.27.59-.35.22-.08.45-.12.69-.12.26,0,.48.03.65.1.17.07.3.16.41.29.1.13.17.28.21.47.04.19.06.4.06.64v1.48h-.83v-.36ZM114.01,38.22c-.07,0-.15,0-.25,0-.1,0-.2.02-.29.05-.09.03-.17.07-.24.13-.07.06-.1.13-.1.23,0,.11.05.19.14.24.09.05.19.08.29.08.09,0,.17-.01.25-.04.08-.02.15-.06.22-.1.06-.04.11-.1.15-.17.04-.07.06-.15.06-.24v-.19h-.22Z"/>
    <path class="cls-1" d="M117.6,37.3h-.79v.97c0,.08,0,.15.01.22,0,.07.03.12.05.17.03.05.07.08.13.11.06.03.13.04.23.04.05,0,.11,0,.19-.01.08,0,.14-.03.18-.07v.75c-.1.04-.2.06-.31.07-.11.01-.21.02-.32.02-.15,0-.29-.02-.42-.05-.13-.03-.24-.08-.33-.15-.1-.07-.17-.16-.22-.27-.05-.11-.08-.25-.08-.41v-1.38h-.57v-.72h.57v-.86h.9v.86h.79v.72Z"/>
    <path class="cls-1" d="M118,35.67c0-.14.05-.27.15-.37.1-.1.22-.15.37-.15s.27.05.37.15.15.22.15.37-.05.27-.15.37c-.1.1-.22.15-.37.15s-.27-.05-.37-.15-.15-.22-.15-.37ZM118.07,36.58h.9v2.91h-.9v-2.91Z"/>
    <path class="cls-1" d="M119.5,38.04c0-.23.04-.44.13-.63.08-.19.2-.35.34-.48.15-.13.32-.24.51-.31.2-.07.41-.11.63-.11s.43.04.63.11.37.17.51.31c.15.13.26.29.34.48.08.19.13.4.13.63s-.04.44-.13.63c-.08.19-.2.35-.34.48-.15.13-.32.24-.51.31s-.41.11-.63.11-.43-.04-.63-.11c-.2-.07-.37-.17-.51-.31-.15-.13-.26-.29-.34-.48-.08-.19-.13-.4-.13-.63ZM120.4,38.04c0,.22.06.4.19.53.13.14.3.2.53.2s.4-.07.53-.2c.13-.14.19-.31.19-.53s-.06-.4-.19-.53c-.13-.14-.3-.2-.53-.2s-.4.07-.53.2c-.13.14-.19.31-.19.53Z"/>
    <path class="cls-1" d="M123.26,36.58h.86v.39h.01c.03-.06.07-.11.12-.17.05-.06.11-.11.19-.15.07-.04.15-.08.25-.11s.19-.04.3-.04c.23,0,.41.03.55.1.14.07.25.17.33.29.08.12.13.27.16.44.03.17.04.35.04.54v1.6h-.9v-1.42c0-.08,0-.17,0-.26,0-.09-.02-.17-.05-.25-.03-.08-.08-.14-.14-.19-.06-.05-.15-.07-.27-.07s-.21.02-.28.06c-.07.04-.13.1-.16.17-.04.07-.06.15-.07.24-.01.09-.02.18-.02.28v1.45h-.9v-2.91Z"/>
    <path class="cls-1" d="M129.19,35v5.98h-.75v-5.98h.75Z"/>
  </g>
  <g>
    <path class="cls-1" d="M3.2,43.47c-.08-.1-.18-.17-.31-.21-.13-.05-.25-.07-.37-.07-.07,0-.14,0-.21.02-.07.02-.14.04-.2.07-.06.03-.12.08-.16.13-.04.06-.06.12-.06.2,0,.13.05.23.14.29s.22.13.36.17c.15.05.3.1.47.14.17.05.32.12.47.2.15.09.27.21.36.35s.14.34.14.59-.04.44-.13.62c-.09.18-.21.32-.36.44s-.32.2-.52.26c-.2.06-.41.08-.62.08-.28,0-.53-.04-.77-.13-.24-.08-.45-.22-.66-.41l.66-.73c.1.13.22.23.36.3.15.07.3.1.45.1.08,0,.15,0,.23-.03.08-.02.15-.04.21-.08s.11-.08.15-.14c.04-.06.06-.12.06-.2,0-.13-.05-.23-.15-.3-.1-.07-.22-.14-.37-.19-.15-.05-.31-.1-.48-.16-.17-.05-.33-.12-.48-.21-.15-.09-.27-.2-.37-.35-.1-.14-.15-.33-.15-.57s.04-.43.13-.6c.09-.17.21-.32.36-.43.15-.12.32-.2.52-.26s.4-.09.6-.09c.24,0,.47.03.69.1.22.07.42.18.6.34l-.64.7Z"/>
    <path class="cls-1" d="M6.25,46.3h-.01c-.1.16-.23.27-.4.34-.17.07-.34.1-.52.1-.14,0-.27-.02-.39-.06s-.24-.09-.33-.17c-.1-.08-.17-.17-.23-.28s-.08-.24-.08-.39c0-.17.03-.31.09-.42.06-.12.15-.21.25-.29.11-.08.23-.13.36-.18.14-.04.28-.07.42-.09.15-.02.29-.03.44-.04.15,0,.28,0,.4,0,0-.16-.06-.29-.17-.38s-.25-.14-.4-.14-.28.03-.4.09c-.12.06-.23.15-.33.25l-.48-.49c.17-.16.36-.27.59-.35.22-.08.45-.12.69-.12.26,0,.48.03.65.1.17.07.3.16.41.29.1.13.17.28.21.47.04.19.06.4.06.64v1.48h-.83v-.36ZM6.03,45.39c-.07,0-.15,0-.25,0s-.2.02-.29.05c-.09.03-.17.07-.24.13-.07.06-.1.13-.1.23,0,.11.05.19.14.24.09.05.19.08.29.08.09,0,.17-.01.25-.04.08-.02.15-.06.22-.1s.11-.1.15-.17c.04-.07.06-.15.06-.24v-.19h-.22Z"/>
    <path class="cls-1" d="M7.65,42.15h.9v4.52h-.9v-4.52Z"/>
    <path class="cls-1" d="M11.94,46.16c-.14.18-.33.32-.54.42-.22.1-.45.15-.68.15s-.43-.04-.63-.11-.37-.17-.51-.31c-.15-.13-.26-.29-.34-.48-.08-.19-.13-.4-.13-.63s.04-.44.13-.63c.08-.19.2-.35.34-.48.15-.13.32-.24.51-.31s.41-.11.63-.11c.21,0,.4.04.57.11.17.07.31.17.43.31.12.13.21.29.27.48.06.19.1.4.1.63v.28h-2.08c.04.17.11.31.23.41.12.1.27.15.44.15.15,0,.27-.03.37-.1.1-.07.19-.15.27-.25l.63.46ZM11.18,44.88c0-.15-.05-.28-.15-.39-.1-.11-.24-.16-.4-.16-.1,0-.19.02-.26.05s-.14.07-.19.12c-.05.05-.1.11-.13.17-.03.07-.05.13-.05.21h1.18Z"/>
    <path class="cls-1" d="M14.27,44.62c-.13-.16-.31-.25-.52-.25-.08,0-.15.02-.22.05s-.11.1-.11.19c0,.07.04.12.11.16.07.03.17.06.28.09.11.03.24.05.36.08.13.03.25.08.36.14s.21.15.28.26c.07.11.11.26.11.44s-.04.34-.12.46c-.08.12-.19.22-.31.29-.13.07-.27.13-.43.16-.16.03-.32.04-.47.04-.2,0-.41-.03-.62-.09-.21-.06-.38-.16-.53-.31l.54-.6c.08.1.18.18.28.24s.22.08.36.08c.1,0,.2-.01.28-.04.08-.03.13-.08.13-.16,0-.08-.04-.13-.11-.17-.07-.04-.17-.07-.28-.1s-.24-.05-.36-.08c-.13-.03-.25-.07-.36-.13s-.21-.14-.28-.25-.11-.26-.11-.44c0-.17.03-.32.1-.44.07-.12.16-.23.28-.3s.24-.14.39-.18c.15-.04.3-.06.45-.06.19,0,.38.03.58.08.2.06.36.16.5.3l-.55.54Z"/>
    <path class="cls-1" d="M18.1,43.26h-1.21v-.83h3.35v.83h-1.21v3.41h-.93v-3.41Z"/>
    <path class="cls-1" d="M20.05,43.76h.9v.47h.01c.1-.18.21-.31.34-.4.13-.09.3-.13.5-.13.05,0,.1,0,.16,0,.05,0,.1.01.14.02v.82c-.06-.02-.13-.03-.19-.04-.06,0-.13-.01-.19-.01-.17,0-.31.02-.41.07-.1.05-.18.11-.23.2-.05.09-.09.19-.1.31-.02.12-.02.25-.02.39v1.21h-.9v-2.91Z"/>
    <path class="cls-1" d="M24.31,46.3h-.01c-.1.16-.23.27-.4.34s-.34.1-.52.1c-.14,0-.27-.02-.39-.06-.13-.04-.24-.09-.33-.17-.1-.08-.17-.17-.23-.28s-.08-.24-.08-.39c0-.17.03-.31.09-.42.06-.12.15-.21.25-.29.11-.08.23-.13.36-.18s.28-.07.42-.09.29-.03.44-.04.28,0,.4,0c0-.16-.06-.29-.17-.38-.11-.09-.25-.14-.4-.14-.15,0-.28.03-.4.09-.12.06-.23.15-.33.25l-.48-.49c.17-.16.36-.27.59-.35.22-.08.45-.12.69-.12.26,0,.48.03.65.1.17.07.3.16.41.29.1.13.17.28.21.47.04.19.06.4.06.64v1.48h-.83v-.36ZM24.09,45.39c-.07,0-.15,0-.25,0-.1,0-.2.02-.29.05-.09.03-.17.07-.24.13-.07.06-.1.13-.1.23,0,.11.05.19.14.24.09.05.19.08.29.08.09,0,.17-.01.25-.04.08-.02.15-.06.22-.1.06-.04.11-.1.15-.17.04-.07.06-.15.06-.24v-.19h-.22Z"/>
    <path class="cls-1" d="M25.7,43.76h.86v.39h.01c.03-.06.07-.11.12-.17.05-.06.11-.11.19-.15.07-.04.15-.08.25-.11s.19-.04.3-.04c.23,0,.41.03.55.1.14.07.25.17.33.29.08.12.13.27.16.44.03.17.04.35.04.54v1.6h-.9v-1.42c0-.08,0-.17,0-.26,0-.09-.02-.17-.05-.25-.03-.08-.08-.14-.14-.19-.06-.05-.15-.07-.27-.07s-.21.02-.28.06c-.07.04-.13.1-.16.17-.04.07-.06.15-.07.24-.01.09-.02.18-.02.28v1.45h-.9v-2.91Z"/>
    <path class="cls-1" d="M30.78,44.62c-.13-.16-.3-.25-.52-.25-.08,0-.15.02-.22.05-.07.04-.11.1-.11.19,0,.07.04.12.11.16.07.03.17.06.28.09s.24.05.36.08c.13.03.25.08.36.14.11.06.21.15.28.26.07.11.11.26.11.44s-.04.34-.12.46c-.08.12-.19.22-.31.29-.13.07-.27.13-.43.16s-.32.04-.47.04c-.2,0-.41-.03-.62-.09s-.38-.16-.53-.31l.54-.6c.08.1.18.18.28.24.1.05.22.08.36.08.1,0,.2-.01.28-.04.08-.03.13-.08.13-.16,0-.08-.04-.13-.11-.17-.07-.04-.17-.07-.28-.1-.11-.03-.24-.05-.36-.08-.13-.03-.25-.07-.36-.13-.11-.06-.21-.14-.28-.25s-.11-.26-.11-.44c0-.17.03-.32.1-.44.07-.12.16-.23.28-.3.11-.08.24-.14.39-.18.15-.04.3-.06.45-.06.19,0,.38.03.58.08s.36.16.5.3l-.55.54Z"/>
    <path class="cls-1" d="M33.72,46.3h-.01c-.1.16-.23.27-.4.34-.17.07-.34.1-.52.1-.14,0-.27-.02-.39-.06-.13-.04-.24-.09-.33-.17-.1-.08-.17-.17-.23-.28s-.08-.24-.08-.39c0-.17.03-.31.09-.42.06-.12.15-.21.25-.29.11-.08.23-.13.36-.18.14-.04.28-.07.42-.09.15-.02.29-.03.44-.04.15,0,.28,0,.4,0,0-.16-.06-.29-.17-.38-.11-.09-.25-.14-.4-.14s-.28.03-.4.09-.23.15-.33.25l-.48-.49c.17-.16.36-.27.59-.35s.45-.12.69-.12c.26,0,.48.03.65.1.17.07.3.16.41.29.1.13.17.28.21.47.04.19.06.4.06.64v1.48h-.83v-.36ZM33.5,45.39c-.07,0-.15,0-.25,0-.1,0-.2.02-.29.05-.09.03-.17.07-.24.13s-.1.13-.1.23c0,.11.05.19.14.24.09.05.19.08.29.08.09,0,.17-.01.25-.04.08-.02.15-.06.22-.1.06-.04.11-.1.15-.17s.06-.15.06-.24v-.19h-.22Z"/>
    <path class="cls-1" d="M37.08,44.7c-.04-.06-.11-.12-.19-.16-.08-.04-.17-.06-.26-.06-.23,0-.4.07-.53.2-.13.14-.19.31-.19.53s.06.4.19.53c.13.14.3.2.53.2.1,0,.19-.02.26-.07.07-.04.13-.1.19-.16l.59.62c-.14.14-.3.24-.49.3s-.37.09-.54.09c-.22,0-.43-.04-.63-.11s-.37-.17-.51-.31c-.15-.13-.26-.29-.34-.48-.08-.19-.13-.4-.13-.63s.04-.44.13-.63c.08-.19.2-.35.34-.48.15-.13.32-.24.51-.31s.41-.11.63-.11c.17,0,.35.03.54.09.19.06.35.16.49.3l-.59.62Z"/>
    <path class="cls-1" d="M39.97,44.48h-.79v.97c0,.08,0,.15.01.22,0,.07.03.12.05.17.03.05.07.08.13.11.06.03.13.04.23.04.05,0,.11,0,.19-.01.08,0,.14-.03.18-.07v.75c-.1.04-.2.06-.31.07-.11.01-.21.02-.32.02-.15,0-.29-.02-.42-.05-.13-.03-.24-.08-.33-.15-.1-.07-.17-.16-.22-.27-.05-.11-.08-.25-.08-.41v-1.38h-.57v-.72h.57v-.86h.9v.86h.79v.72Z"/>
    <path class="cls-1" d="M40.37,42.85c0-.14.05-.27.15-.37s.22-.15.37-.15.27.05.37.15c.1.1.15.22.15.37s-.05.27-.15.37-.22.15-.37.15-.27-.05-.37-.15c-.1-.1-.15-.22-.15-.37ZM40.44,43.76h.9v2.91h-.9v-2.91Z"/>
    <path class="cls-1" d="M41.88,45.21c0-.23.04-.44.13-.63.08-.19.2-.35.34-.48.15-.13.32-.24.51-.31s.41-.11.63-.11.43.04.63.11.37.17.51.31c.15.13.26.29.34.48.08.19.13.4.13.63s-.04.44-.13.63c-.08.19-.2.35-.34.48-.15.13-.32.24-.51.31s-.41.11-.63.11-.43-.04-.63-.11-.37-.17-.51-.31c-.15-.13-.26-.29-.34-.48-.08-.19-.13-.4-.13-.63ZM42.77,45.21c0,.22.06.4.19.53.13.14.3.2.53.2s.4-.07.53-.2c.13-.14.19-.31.19-.53s-.06-.4-.19-.53c-.13-.14-.3-.2-.53-.2s-.4.07-.53.2c-.13.14-.19.31-.19.53Z"/>
    <path class="cls-1" d="M45.63,43.76h.86v.39h.01c.03-.06.07-.11.12-.17.05-.06.11-.11.19-.15.07-.04.15-.08.25-.11.09-.03.19-.04.3-.04.23,0,.41.03.55.1.14.07.25.17.33.29.08.12.13.27.16.44.03.17.04.35.04.54v1.6h-.9v-1.42c0-.08,0-.17,0-.26,0-.09-.02-.17-.05-.25-.03-.08-.08-.14-.14-.19-.06-.05-.15-.07-.27-.07s-.21.02-.28.06c-.07.04-.13.1-.16.17-.04.07-.06.15-.07.24-.01.09-.02.18-.02.28v1.45h-.9v-2.91Z"/>
    <path class="cls-1" d="M50.71,44.62c-.13-.16-.31-.25-.52-.25-.08,0-.15.02-.22.05-.07.04-.11.1-.11.19,0,.07.04.12.11.16.07.03.17.06.28.09.11.03.24.05.36.08s.25.08.36.14c.11.06.21.15.28.26s.11.26.11.44-.04.34-.12.46c-.08.12-.19.22-.31.29-.13.07-.27.13-.43.16-.16.03-.32.04-.47.04-.2,0-.41-.03-.62-.09-.21-.06-.38-.16-.53-.31l.54-.6c.08.1.18.18.28.24.1.05.22.08.36.08.1,0,.2-.01.28-.04s.13-.08.13-.16c0-.08-.04-.13-.11-.17s-.17-.07-.28-.1c-.11-.03-.24-.05-.36-.08s-.25-.07-.36-.13c-.11-.06-.21-.14-.28-.25s-.11-.26-.11-.44c0-.17.03-.32.1-.44s.16-.23.28-.3c.11-.08.24-.14.39-.18s.3-.06.45-.06c.19,0,.38.03.58.08.2.06.36.16.5.3l-.55.54Z"/>
    <path class="cls-1" d="M54.33,42.18v5.98h-.75v-5.98h.75Z"/>
    <path class="cls-1" d="M56.4,42.43h1.06l1.05,2.78h.01l1.06-2.78h1l-1.75,4.23h-.75l-1.69-4.23Z"/>
    <path class="cls-1" d="M62.41,46.3h-.01c-.1.16-.23.27-.4.34-.17.07-.34.1-.52.1-.14,0-.27-.02-.39-.06-.13-.04-.24-.09-.33-.17-.1-.08-.17-.17-.23-.28s-.08-.24-.08-.39c0-.17.03-.31.09-.42.06-.12.15-.21.25-.29.11-.08.23-.13.36-.18.14-.04.28-.07.42-.09.15-.02.29-.03.44-.04.15,0,.28,0,.4,0,0-.16-.06-.29-.17-.38-.11-.09-.25-.14-.4-.14s-.28.03-.4.09-.23.15-.33.25l-.48-.49c.17-.16.36-.27.59-.35s.45-.12.69-.12c.26,0,.48.03.65.1.17.07.3.16.41.29.1.13.17.28.21.47.04.19.06.4.06.64v1.48h-.83v-.36ZM62.19,45.39c-.07,0-.15,0-.25,0-.1,0-.2.02-.29.05-.09.03-.17.07-.24.13s-.1.13-.1.23c0,.11.05.19.14.24.09.05.19.08.29.08.09,0,.17-.01.25-.04.08-.02.15-.06.22-.1.06-.04.11-.1.15-.17s.06-.15.06-.24v-.19h-.22Z"/>
    <path class="cls-1" d="M63.81,42.15h.9v4.52h-.9v-4.52Z"/>
    <path class="cls-1" d="M68.15,46.67h-.86v-.39h-.01c-.03.06-.07.11-.12.17s-.11.11-.18.15c-.07.04-.15.08-.25.11s-.19.04-.3.04c-.23,0-.41-.03-.55-.1-.14-.07-.25-.17-.33-.29s-.13-.27-.16-.44c-.03-.17-.04-.35-.04-.54v-1.6h.9v1.42c0,.08,0,.17,0,.26,0,.09.02.17.05.25.03.08.08.14.14.19.06.05.15.07.27.07s.21-.02.28-.06c.07-.04.13-.1.16-.17.04-.07.06-.15.07-.24s.02-.18.02-.28v-1.45h.9v2.91Z"/>
    <path class="cls-1" d="M70.61,46.3h-.01c-.1.16-.23.27-.4.34s-.34.1-.52.1c-.14,0-.27-.02-.39-.06-.13-.04-.24-.09-.33-.17-.1-.08-.17-.17-.23-.28s-.08-.24-.08-.39c0-.17.03-.31.09-.42.06-.12.15-.21.25-.29.11-.08.23-.13.36-.18s.28-.07.42-.09.29-.03.44-.04.28,0,.4,0c0-.16-.06-.29-.17-.38-.11-.09-.25-.14-.4-.14-.15,0-.28.03-.4.09-.12.06-.23.15-.33.25l-.48-.49c.17-.16.36-.27.59-.35.22-.08.45-.12.69-.12.26,0,.48.03.65.1.17.07.3.16.41.29.1.13.17.28.21.47.04.19.06.4.06.64v1.48h-.83v-.36ZM70.39,45.39c-.07,0-.15,0-.25,0-.1,0-.2.02-.29.05-.09.03-.17.07-.24.13-.07.06-.1.13-.1.23,0,.11.05.19.14.24.09.05.19.08.29.08.09,0,.17-.01.25-.04.08-.02.15-.06.22-.1.06-.04.11-.1.15-.17.04-.07.06-.15.06-.24v-.19h-.22Z"/>
    <path class="cls-1" d="M73.98,44.48h-.79v.97c0,.08,0,.15.01.22,0,.07.03.12.05.17.03.05.07.08.13.11.06.03.13.04.23.04.05,0,.11,0,.19-.01.08,0,.14-.03.18-.07v.75c-.1.04-.2.06-.31.07-.11.01-.21.02-.32.02-.15,0-.29-.02-.42-.05-.13-.03-.24-.08-.34-.15-.1-.07-.17-.16-.22-.27-.05-.11-.08-.25-.08-.41v-1.38h-.57v-.72h.57v-.86h.9v.86h.79v.72Z"/>
    <path class="cls-1" d="M74.37,42.85c0-.14.05-.27.15-.37.1-.1.22-.15.37-.15s.27.05.37.15.15.22.15.37-.05.27-.15.37c-.1.1-.22.15-.37.15s-.27-.05-.37-.15-.15-.22-.15-.37ZM74.44,43.76h.9v2.91h-.9v-2.91Z"/>
    <path class="cls-1" d="M75.88,45.21c0-.23.04-.44.13-.63.08-.19.2-.35.34-.48.15-.13.32-.24.51-.31s.41-.11.63-.11.43.04.63.11.37.17.51.31c.15.13.26.29.34.48.08.19.13.4.13.63s-.04.44-.13.63c-.08.19-.2.35-.34.48-.15.13-.32.24-.51.31s-.41.11-.63.11-.43-.04-.63-.11-.37-.17-.51-.31c-.15-.13-.26-.29-.34-.48-.08-.19-.13-.4-.13-.63ZM76.78,45.21c0,.22.06.4.19.53.13.14.3.2.53.2s.4-.07.53-.2c.13-.14.19-.31.19-.53s-.06-.4-.19-.53c-.13-.14-.3-.2-.53-.2s-.4.07-.53.2c-.13.14-.19.31-.19.53Z"/>
    <path class="cls-1" d="M79.63,43.76h.86v.39h.01c.03-.06.07-.11.12-.17.05-.06.11-.11.19-.15.07-.04.15-.08.25-.11s.19-.04.3-.04c.23,0,.41.03.55.1.14.07.25.17.33.29.08.12.13.27.16.44.03.17.04.35.04.54v1.6h-.9v-1.42c0-.08,0-.17,0-.26,0-.09-.02-.17-.05-.25-.03-.08-.08-.14-.14-.19-.06-.05-.15-.07-.27-.07s-.21.02-.28.06c-.07.04-.13.1-.16.17-.04.07-.06.15-.07.24-.01.09-.02.18-.02.28v1.45h-.9v-2.91Z"/>
    <path class="cls-1" d="M86.35,42.43h.77l1.84,4.23h-1.05l-.36-.9h-1.64l-.35.9h-1.03l1.83-4.23ZM86.7,43.66l-.51,1.32h1.03l-.52-1.32Z"/>
    <path class="cls-1" d="M92.32,46.67h-.83v-.38h-.01c-.04.05-.08.1-.14.16-.06.05-.13.1-.2.15-.08.04-.16.08-.26.11-.09.03-.19.04-.29.04-.22,0-.41-.04-.59-.11-.18-.07-.33-.18-.45-.31-.13-.13-.22-.29-.29-.48-.07-.18-.1-.38-.1-.6,0-.2.03-.4.09-.58s.15-.35.26-.49c.11-.14.25-.26.42-.34s.35-.13.56-.13c.19,0,.36.03.52.09.16.06.29.16.4.3h.01v-1.93h.9v4.52ZM91.5,45.21c0-.22-.06-.4-.19-.53-.13-.14-.3-.2-.53-.2s-.4.07-.53.2c-.13.14-.19.31-.19.53s.06.4.19.53c.13.14.3.2.53.2s.4-.07.53-.2c.13-.14.19-.31.19-.53Z"/>
    <path class="cls-1" d="M92.73,43.76h.97l.74,1.97h.01l.68-1.97h.9l-1.15,2.91h-.95l-1.2-2.91Z"/>
    <path class="cls-1" d="M96.3,42.85c0-.14.05-.27.15-.37s.22-.15.37-.15.27.05.37.15c.1.1.15.22.15.37s-.05.27-.15.37-.22.15-.37.15-.27-.05-.37-.15c-.1-.1-.15-.22-.15-.37ZM96.38,43.76h.9v2.91h-.9v-2.91Z"/>
    <path class="cls-1" d="M99.56,44.62c-.13-.16-.3-.25-.52-.25-.08,0-.15.02-.22.05-.07.04-.11.1-.11.19,0,.07.04.12.11.16.07.03.17.06.28.09s.24.05.36.08c.13.03.25.08.36.14.11.06.21.15.28.26.07.11.11.26.11.44s-.04.34-.12.46c-.08.12-.19.22-.31.29-.13.07-.27.13-.43.16s-.32.04-.47.04c-.2,0-.41-.03-.62-.09s-.38-.16-.53-.31l.54-.6c.08.1.18.18.28.24.1.05.22.08.36.08.1,0,.2-.01.28-.04.08-.03.13-.08.13-.16,0-.08-.04-.13-.11-.17-.07-.04-.17-.07-.28-.1-.11-.03-.24-.05-.36-.08-.13-.03-.25-.07-.36-.13-.11-.06-.21-.14-.28-.25s-.11-.26-.11-.44c0-.17.03-.32.1-.44.07-.12.16-.23.28-.3.11-.08.24-.14.39-.18.15-.04.3-.06.45-.06.19,0,.38.03.58.08s.36.16.5.3l-.55.54Z"/>
    <path class="cls-1" d="M100.58,45.21c0-.23.04-.44.13-.63.08-.19.2-.35.34-.48.15-.13.32-.24.51-.31s.41-.11.63-.11.43.04.63.11.37.17.51.31c.15.13.26.29.34.48.08.19.13.4.13.63s-.04.44-.13.63c-.08.19-.2.35-.34.48-.15.13-.32.24-.51.31s-.41.11-.63.11-.43-.04-.63-.11-.37-.17-.51-.31c-.15-.13-.26-.29-.34-.48-.08-.19-.13-.4-.13-.63ZM101.48,45.21c0,.22.06.4.19.53.13.14.3.2.53.2s.4-.07.53-.2c.13-.14.19-.31.19-.53s-.06-.4-.19-.53c-.13-.14-.3-.2-.53-.2s-.4.07-.53.2c-.13.14-.19.31-.19.53Z"/>
    <path class="cls-1" d="M104.34,43.76h.9v.47h.01c.1-.18.21-.31.34-.4.13-.09.3-.13.5-.13.05,0,.1,0,.16,0,.05,0,.1.01.14.02v.82c-.06-.02-.13-.03-.19-.04-.06,0-.13-.01-.19-.01-.17,0-.31.02-.41.07-.1.05-.18.11-.23.2-.05.09-.09.19-.1.31-.02.12-.02.25-.02.39v1.21h-.9v-2.91Z"/>
    <path class="cls-1" d="M108.45,47.14c-.06.16-.12.29-.17.41s-.13.22-.21.3c-.09.08-.19.14-.33.19-.13.04-.31.06-.52.06-.23,0-.45-.04-.67-.11l.12-.74c.14.06.28.09.42.09.1,0,.18-.01.25-.03.06-.02.12-.05.16-.1.04-.04.08-.09.1-.15.03-.06.06-.13.09-.21l.07-.17-1.27-2.93h.97l.75,1.92h.01l.64-1.92h.92l-1.32,3.38Z"/>
    <path class="cls-1" d="M112.59,42.18v5.98h-.75v-5.98h.75Z"/>
  </g>
  <g>
    <path class="cls-1" d="M35.48,20.84h1.74v-3.15h.86l1.65,3.15h2.08l-2-3.33c.56-.1.98-.35,1.27-.74.29-.39.43-.86.43-1.42,0-.46-.08-.84-.24-1.15-.16-.31-.37-.55-.65-.73-.27-.18-.59-.31-.95-.39-.36-.08-.74-.12-1.14-.12h-3.05v7.88ZM37.22,14.43h1.14c.16,0,.32.01.48.03.16.02.31.06.43.13.13.06.23.15.31.27.08.12.12.28.12.48,0,.21-.05.38-.14.5-.09.12-.21.21-.35.26-.14.06-.3.09-.47.1-.17.01-.34.02-.5.02h-1.02v-1.79ZM42.76,20.84h5.56v-1.6h-3.82v-1.6h3.42v-1.6h-3.42v-1.47h3.62v-1.6h-5.36v7.88ZM48.9,20.84h1.92l.66-1.67h3.06l.68,1.67h1.96l-3.43-7.88h-1.44l-3.41,7.88ZM53.94,17.7h-1.93l.96-2.45.97,2.45ZM58.03,20.84h4.95v-1.6h-3.22v-6.28h-1.74v7.88ZM64.44,20.84h1.74v-6.35h2.25v-1.54h-6.24v1.54h2.25v6.35ZM71.6,20.84h1.74v-3.36l2.96-4.52h-2.06l-1.77,2.95-1.67-2.95h-2.16l2.96,4.52v3.36Z"/>
    <path class="cls-1" d="M39.77,3.49c-.14-.18-.34-.31-.58-.4-.24-.09-.48-.13-.7-.13-.13,0-.26.02-.39.05-.14.03-.26.08-.38.14-.12.06-.22.15-.29.25-.08.1-.11.23-.11.38,0,.24.09.43.27.55.18.13.41.24.68.33.27.09.57.18.89.27.32.09.61.22.89.38.27.17.5.39.68.67.18.28.27.65.27,1.12s-.08.83-.25,1.16c-.17.33-.39.61-.67.82-.28.22-.61.38-.98.49-.37.11-.77.16-1.18.16-.52,0-1-.08-1.45-.24-.44-.16-.86-.41-1.24-.77l1.25-1.38c.18.24.41.43.68.56.27.13.56.2.85.2.14,0,.29-.02.43-.05.15-.03.28-.08.4-.15.12-.07.21-.15.28-.26.07-.11.11-.23.11-.37,0-.24-.09-.43-.28-.57-.18-.14-.42-.26-.69-.36-.28-.1-.58-.2-.9-.29-.32-.1-.63-.23-.9-.4-.28-.17-.51-.38-.69-.65-.18-.27-.28-.63-.28-1.07s.09-.81.25-1.13c.17-.32.39-.59.68-.81.28-.22.61-.38.98-.49.37-.11.75-.16,1.14-.16.45,0,.89.06,1.31.19.42.13.8.34,1.14.64l-1.21,1.32Z"/>
    <path class="cls-1" d="M41.52,2.32c0-.27.1-.5.29-.69.19-.19.42-.29.69-.29s.5.1.69.29.29.42.29.69-.1.5-.29.69c-.19.19-.42.29-.69.29s-.5-.1-.69-.29c-.19-.19-.29-.42-.29-.69M41.66,4.04h1.69v5.49h-1.69v-5.49Z"/>
    <path class="cls-1" d="M44.12,4.04h1.63v.75h.02c.05-.11.13-.21.23-.32.1-.11.21-.2.35-.28.14-.08.29-.15.46-.2.17-.05.36-.08.56-.08.38,0,.72.08,1.02.24.3.16.52.41.67.74.2-.35.43-.61.71-.76.28-.15.62-.23,1.03-.23.37,0,.68.06.93.19.25.12.45.29.6.51.15.21.25.47.32.76.06.29.1.6.1.93v3.24h-1.69v-3.2c0-.26-.05-.48-.16-.66-.11-.19-.3-.28-.58-.28-.2,0-.36.03-.49.1-.13.06-.24.15-.32.27-.08.11-.14.24-.17.4-.03.15-.05.31-.05.47v2.9h-1.69v-2.9c0-.1,0-.22-.01-.36,0-.14-.03-.28-.08-.41-.05-.13-.12-.24-.22-.33-.1-.09-.25-.13-.45-.13-.22,0-.39.04-.53.12-.14.08-.24.18-.31.32-.07.13-.12.28-.14.45-.02.17-.03.34-.03.52v2.73h-1.69v-5.49Z"/>
    <path class="cls-1" d="M53.42,4.04h1.56v.72h.02c.07-.1.16-.2.27-.3.11-.1.24-.19.38-.28.15-.08.31-.15.48-.2.17-.05.36-.08.55-.08.41,0,.78.07,1.11.21.33.14.62.34.85.59.24.25.42.55.55.9.13.35.19.73.19,1.14,0,.38-.06.75-.17,1.1-.12.35-.28.66-.5.93-.21.27-.48.49-.78.65-.31.16-.66.24-1.05.24-.35,0-.68-.05-.99-.16-.3-.11-.56-.3-.75-.56h-.02v3.16h-1.69V4.04ZM54.98,6.79c0,.41.12.75.36,1,.24.26.57.38,1,.38s.76-.13,1-.38c.24-.26.36-.59.36-1s-.12-.75-.36-1.01c-.24-.26-.57-.38-1-.38s-.76.13-1,.38c-.24.26-.36.59-.36,1.01"/>
  </g>
  <rect class="cls-1" x="59.95" y=".99" width="1.69" height="8.54"/>
  <g>
    <path class="cls-1" d="M67.61,8.58c-.27.35-.61.61-1.03.8-.41.19-.84.28-1.29.28-.42,0-.82-.07-1.19-.2-.37-.13-.7-.33-.97-.58-.27-.25-.49-.56-.65-.91-.16-.35-.24-.75-.24-1.19s.08-.83.24-1.19c.16-.35.37-.66.65-.91.27-.25.6-.45.97-.58.37-.14.77-.2,1.19-.2.39,0,.75.07,1.07.2.32.13.59.33.81.58.22.25.39.56.51.91.12.35.18.75.18,1.19v.53h-3.93c.07.32.21.58.44.77.23.19.5.29.84.29.28,0,.51-.06.71-.19.19-.12.36-.28.5-.48l1.19.87ZM66.17,6.17c0-.29-.09-.53-.28-.73-.2-.2-.45-.3-.76-.3-.19,0-.35.03-.5.09-.14.06-.27.14-.37.23-.1.09-.18.2-.24.33-.06.12-.09.25-.1.39h2.24Z"/>
    <path class="cls-1" d="M39.77,3.49c-.14-.18-.34-.31-.58-.4-.24-.09-.48-.13-.7-.13-.13,0-.26.02-.39.05-.14.03-.26.08-.38.14-.12.06-.22.15-.29.25-.08.1-.11.23-.11.38,0,.24.09.43.27.55.18.13.41.24.68.33.27.09.57.18.89.27.32.09.61.22.89.38.27.17.5.39.68.67.18.28.27.65.27,1.12s-.08.83-.25,1.16c-.17.33-.39.61-.67.82-.28.22-.61.38-.98.49-.37.11-.77.16-1.18.16-.52,0-1-.08-1.45-.24-.44-.16-.86-.41-1.24-.77l1.25-1.38c.18.24.41.43.68.56.27.13.56.2.85.2.14,0,.29-.02.43-.05.15-.03.28-.08.4-.15.12-.07.21-.15.28-.26.07-.11.11-.23.11-.37,0-.24-.09-.43-.28-.57-.18-.14-.42-.26-.69-.36-.28-.1-.58-.2-.9-.29-.32-.1-.63-.23-.9-.4-.28-.17-.51-.38-.69-.65-.18-.27-.28-.63-.28-1.07s.09-.81.25-1.13c.17-.32.39-.59.68-.81.28-.22.61-.38.98-.49.37-.11.75-.16,1.14-.16.45,0,.89.06,1.31.19.42.13.8.34,1.14.64l-1.21,1.32Z"/>
    <path class="cls-1" d="M41.52,2.32c0-.27.1-.5.29-.69.19-.19.42-.29.69-.29s.5.1.69.29.29.42.29.69-.1.5-.29.69c-.19.19-.42.29-.69.29s-.5-.1-.69-.29c-.19-.19-.29-.42-.29-.69M41.66,4.04h1.69v5.49h-1.69v-5.49Z"/>
    <path class="cls-1" d="M44.12,4.04h1.63v.75h.02c.05-.11.13-.21.23-.32.1-.11.21-.2.35-.28.14-.08.29-.15.46-.2.17-.05.36-.08.56-.08.38,0,.72.08,1.02.24.3.16.52.41.67.74.2-.35.43-.61.71-.76.28-.15.62-.23,1.03-.23.37,0,.68.06.93.19.25.12.45.29.6.51.15.21.25.47.32.76.06.29.1.6.1.93v3.24h-1.69v-3.2c0-.26-.05-.48-.16-.66-.11-.19-.3-.28-.58-.28-.2,0-.36.03-.49.1-.13.06-.24.15-.32.27-.08.11-.14.24-.17.4-.03.15-.05.31-.05.47v2.9h-1.69v-2.9c0-.1,0-.22-.01-.36,0-.14-.03-.28-.08-.41-.05-.13-.12-.24-.22-.33-.1-.09-.25-.13-.45-.13-.22,0-.39.04-.53.12-.14.08-.24.18-.31.32-.07.13-.12.28-.14.45-.02.17-.03.34-.03.52v2.73h-1.69v-5.49Z"/>
    <path class="cls-1" d="M53.42,4.04h1.56v.72h.02c.07-.1.16-.2.27-.3.11-.1.24-.19.38-.28.15-.08.31-.15.48-.2.17-.05.36-.08.55-.08.41,0,.78.07,1.11.21.33.14.62.34.85.59.24.25.42.55.55.9.13.35.19.73.19,1.14,0,.38-.06.75-.17,1.1-.12.35-.28.66-.5.93-.21.27-.48.49-.78.65-.31.16-.66.24-1.05.24-.35,0-.68-.05-.99-.16-.3-.11-.56-.3-.75-.56h-.02v3.16h-1.69V4.04ZM54.98,6.79c0,.41.12.75.36,1,.24.26.57.38,1,.38s.76-.13,1-.38c.24-.26.36-.59.36-1s-.12-.75-.36-1.01c-.24-.26-.57-.38-1-.38s-.76.13-1,.38c-.24.26-.36.59-.36,1.01"/>
  </g>
  <rect class="cls-1" x="59.95" y=".99" width="1.69" height="8.54"/>
  <path class="cls-1" d="M92.23,23.76c-.33-.3-.71-.51-1.13-.64-.42-.13-.85-.19-1.3-.19-.39,0-.76.05-1.13.16-.36.11-.69.27-.97.49-.28.22-.5.48-.67.8-.17.32-.25.69-.25,1.12s.09.79.27,1.06c.18.27.41.48.69.65.28.16.57.29.89.39.32.1.62.19.89.29.28.1.5.21.69.35.18.14.27.33.27.56,0,.14-.04.26-.11.37-.07.1-.16.19-.28.26-.12.07-.25.12-.39.15-.15.03-.29.05-.43.05-.29,0-.57-.07-.84-.2-.27-.13-.5-.31-.68-.55l-1.24,1.36c.38.35.79.6,1.23.76.44.16.92.23,1.43.23.41,0,.8-.05,1.17-.16.37-.1.69-.26.97-.48.28-.22.5-.49.66-.82.16-.33.25-.71.25-1.15,0-.46-.09-.83-.27-1.11-.18-.28-.4-.5-.68-.66-.27-.16-.56-.29-.88-.38-.31-.09-.6-.18-.88-.27s-.5-.2-.68-.32c-.18-.13-.27-.31-.27-.55,0-.15.04-.28.11-.38.07-.1.17-.19.29-.25.12-.06.25-.11.38-.14s.26-.04.39-.04c.22,0,.44.04.69.13.24.09.43.22.58.4l1.19-1.31ZM81.4,24.61h1.14c.16,0,.32.01.48.03.16.02.31.07.44.13.13.06.23.15.31.27.08.12.12.28.12.48,0,.22-.05.38-.14.5-.09.12-.21.21-.35.26-.14.06-.3.09-.47.1-.17.01-.34.02-.5.02h-1.03v-1.8ZM79.66,31.04h1.74v-3.16h.86l1.65,3.16h2.09l-2.01-3.34c.56-.1.98-.35,1.27-.74.29-.39.44-.87.44-1.42,0-.46-.08-.85-.24-1.16-.16-.31-.38-.55-.65-.74-.27-.18-.59-.31-.95-.39-.36-.08-.74-.12-1.14-.12h-3.06v7.91ZM71.93,26.07c.12-.31.28-.58.5-.81.22-.23.47-.4.78-.53.3-.13.64-.19,1.01-.19s.71.06,1.01.19c.3.13.56.3.78.53.22.23.38.5.5.81.12.31.17.65.17,1.02s-.06.71-.17,1.02c-.12.31-.28.58-.5.8-.22.23-.47.4-.78.53-.3.13-.64.19-1.01.19s-.71-.06-1.01-.19c-.3-.13-.56-.3-.78-.53-.22-.23-.38-.5-.5-.8-.12-.31-.17-.65-.17-1.02s.06-.7.17-1.02M70.26,28.8c.21.51.51.95.89,1.31.38.36.83.64,1.35.83.52.19,1.09.29,1.71.29s1.19-.1,1.71-.29c.52-.19.97-.47,1.35-.83.38-.36.68-.8.89-1.31s.32-1.09.32-1.72-.11-1.21-.32-1.72-.51-.95-.89-1.31c-.38-.36-.83-.64-1.35-.83-.52-.19-1.09-.29-1.71-.29s-1.19.1-1.71.29c-.52.19-.97.47-1.35.83-.38.36-.68.8-.89,1.31-.21.51-.32,1.09-.32,1.72s.11,1.21.32,1.72M69.06,23.76c-.34-.3-.71-.51-1.13-.64-.42-.13-.85-.19-1.3-.19-.39,0-.76.05-1.13.16-.36.11-.69.27-.97.49-.28.22-.5.48-.67.8-.17.32-.25.69-.25,1.12s.09.79.27,1.06c.18.27.41.48.69.65.28.16.57.29.89.39.32.1.62.19.89.29.28.1.5.21.69.35.18.14.27.33.27.56,0,.14-.04.26-.11.37-.07.1-.16.19-.28.26-.12.07-.25.12-.39.15-.14.03-.29.05-.43.05-.29,0-.57-.07-.84-.2-.27-.13-.5-.31-.68-.55l-1.24,1.36c.38.35.79.6,1.23.76.44.16.92.23,1.43.23.41,0,.8-.05,1.17-.16.37-.1.69-.26.97-.48.28-.22.5-.49.66-.82.16-.33.25-.71.25-1.15,0-.46-.09-.83-.27-1.11-.18-.28-.4-.5-.68-.66-.27-.16-.56-.29-.88-.38-.31-.09-.61-.18-.88-.27-.27-.09-.5-.2-.68-.32-.18-.13-.27-.31-.27-.55,0-.15.04-.28.11-.38.07-.1.17-.19.29-.25.12-.06.25-.11.38-.14.13-.03.26-.04.39-.04.22,0,.44.04.69.13.24.09.43.22.57.4l1.2-1.31ZM60.41,31.04h1.74v-7.91h-1.74v7.91ZM54.72,31.04h1.4l3.26-7.91h-1.87l-1.99,5.18h-.02l-1.95-5.18h-1.99l3.16,7.91ZM45.83,24.74h1.03c.36,0,.71.05,1.04.14.33.09.62.23.87.42.25.19.44.42.59.71.15.29.22.62.22,1.01,0,.45-.07.82-.22,1.13-.14.31-.34.56-.6.75-.25.19-.55.33-.9.41-.35.08-.72.12-1.12.12h-.9v-4.69ZM44.09,31.04h2.85c.59,0,1.15-.09,1.69-.26.54-.17,1.01-.42,1.42-.75.41-.33.74-.74.98-1.23.24-.49.36-1.05.36-1.69,0-.72-.12-1.34-.37-1.84-.25-.51-.59-.92-1.01-1.23-.42-.32-.92-.55-1.49-.69-.57-.14-1.17-.21-1.8-.21h-2.61v7.91ZM40.28,27.89h-1.93l.96-2.46.97,2.46ZM35.22,31.04h1.92l.66-1.68h3.07l.68,1.68h1.97l-3.44-7.91h-1.44l-3.42,7.91Z"/>
  <polygon class="cls-1" points="67.86 .98 67.86 1.42 68.47 1.42 68.47 3.04 68.97 3.04 68.97 1.42 69.6 1.42 69.6 .98 67.86 .98"/>
  <path class="cls-1" d="M69.96,3.04V.98h.45l.75,1.23h-.32s.76-1.23.76-1.23h.43v2.07h-.49v-.64c0-.18,0-.34.01-.48,0-.14.02-.28.05-.42l.06.15-.57.89h-.19l-.56-.88.06-.16c.02.13.04.27.05.41,0,.14.01.3.01.49v.64h-.49Z"/>
</svg>