<svg width="148" height="119" viewBox="0 0 148 119" fill="none" xmlns="http://www.w3.org/2000/svg">
<path d="M19.4492 10.5032C18.839 9.71672 18.0254 9.18395 16.9831 8.8034C15.9407 8.42285 14.9492 8.24526 14.0339 8.24526C13.4746 8.24526 12.9407 8.296 12.3559 8.44822C11.7712 8.57507 11.2373 8.75266 10.7034 9.0571C10.1949 9.3108 9.78814 9.69135 9.45763 10.1226C9.12712 10.5539 8.97458 11.1121 8.97458 11.7717C8.97458 12.7865 9.35593 13.5476 10.1186 14.1057C10.8814 14.6639 11.8475 15.1205 13.0169 15.5011C14.1864 15.8816 15.4322 16.2875 16.7797 16.6427C18.1271 17.0233 19.3729 17.556 20.5424 18.2918C21.6864 18.9768 22.678 19.9408 23.4407 21.1078C24.2288 22.3002 24.5847 23.8732 24.5847 25.8267C24.5847 27.7802 24.2288 29.3531 23.517 30.7484C22.8051 32.1692 21.8644 33.3108 20.6695 34.2241C19.4746 35.1374 18.0763 35.8478 16.4746 36.2791C14.8983 36.7358 13.2203 36.9387 11.4407 36.9387C9.25424 36.9387 7.19492 36.5835 5.28814 35.9239C3.40678 35.2643 1.65254 34.1734 0 32.6766L5.31356 26.8161C6.1017 27.8563 7.04237 28.6427 8.21186 29.2009C9.35593 29.759 10.5763 30.0381 11.822 30.0381C12.4322 30.0381 13.0424 29.962 13.678 29.8097C14.3136 29.6575 14.8729 29.4546 15.3559 29.1755C15.839 28.8964 16.2458 28.5159 16.5763 28.0846C16.8814 27.6279 17.0339 27.0952 17.0339 26.5117C17.0339 25.4969 16.6525 24.685 15.839 24.1015C15.0508 23.4926 14.0847 23.0106 12.8898 22.6047C11.6949 22.1734 10.4237 21.7675 9.05085 21.3615C7.67797 20.9556 6.38136 20.3721 5.21186 19.6871C4.04237 19.0021 3.05085 18.0381 2.26271 16.9218C1.47458 15.7801 1.0678 14.2326 1.0678 12.3552C1.0678 10.4778 1.44915 8.95562 2.13559 7.56027C2.84746 6.21566 3.81356 5.04864 5.0339 4.13532C6.25424 3.222 7.62712 2.51164 9.20339 2.05498C10.7542 1.59832 12.3814 1.37 14.0593 1.37C15.9915 1.37 17.8475 1.64906 19.6271 2.18183C21.4068 2.73997 23.0339 3.65329 24.4831 4.92179L19.3475 10.5032H19.4746H19.4492Z" fill="white"/>
<path d="M27.4321 12.8626H34.627V36.1269H27.4321V12.8626ZM26.8728 5.53067C26.8728 4.38902 27.2796 3.39959 28.0931 2.58775C28.9067 1.77591 29.8728 1.37 31.0423 1.37C32.2118 1.37 33.1779 1.77591 33.9914 2.58775C34.805 3.39959 35.2118 4.36365 35.2118 5.53067C35.2118 6.69769 34.805 7.66175 33.9914 8.47359C33.1779 9.28543 32.2118 9.69135 31.0423 9.69135C29.8728 9.69135 28.9067 9.28543 28.0931 8.47359C27.2796 7.66175 26.8728 6.69769 26.8728 5.53067Z" fill="white"/>
<path d="M37.9068 12.8626H44.8221V16.0339H44.8984C45.1272 15.5772 45.4577 15.1459 45.839 14.7146C46.2458 14.258 46.7543 13.8774 47.339 13.4969C47.9238 13.1417 48.5848 12.8626 49.2967 12.6343C50.0085 12.406 50.8221 12.2791 51.6865 12.2791C53.339 12.2791 54.7882 12.6343 56.0085 13.2939C57.2797 13.9535 58.2204 15.0191 58.856 16.4652C59.695 14.9683 60.7119 13.9028 61.8814 13.2685C63.0763 12.6343 64.5001 12.3299 66.2543 12.3299C67.8051 12.3299 69.1526 12.5836 70.2204 13.1417C71.2882 13.6491 72.1272 14.3848 72.7628 15.2981C73.3729 16.2115 73.8306 17.277 74.0848 18.4948C74.339 19.7379 74.4916 21.0318 74.4916 22.4525V36.203H67.2712V22.6554C67.2712 21.5645 67.0424 20.6258 66.6102 19.8647C66.1526 19.0783 65.3136 18.6723 64.1187 18.6723C63.2797 18.6723 62.5933 18.8246 62.034 19.0783C61.4746 19.332 61.017 19.7125 60.7119 20.1945C60.356 20.6766 60.1272 21.2347 60.0001 21.869C59.8729 22.5032 59.7967 23.1628 59.7967 23.8986V36.203H52.5763V23.8986C52.5763 23.4926 52.5763 22.9852 52.5509 22.3764C52.5255 21.7675 52.3984 21.184 52.195 20.6512C51.9916 20.0931 51.7119 19.6364 51.2797 19.2559C50.8475 18.8753 50.2119 18.6723 49.3729 18.6723C48.4577 18.6723 47.695 18.8499 47.1102 19.1544C46.5255 19.5096 46.0933 19.9408 45.7882 20.4736C45.4831 21.0064 45.2797 21.666 45.178 22.3764C45.1018 23.0614 45.0255 23.8225 45.0255 24.5582V36.1523H37.8306V12.8626H37.856H37.9068Z" fill="white"/>
<path d="M84.0509 24.5328C84.0509 26.2833 84.5339 27.704 85.5509 28.795C86.5678 29.8859 87.9661 30.444 89.7966 30.444C91.6271 30.444 93.0255 29.8859 94.0424 28.8203C95.0594 27.7294 95.5424 26.3087 95.5424 24.5582C95.5424 22.8076 95.0594 21.3869 94.0424 20.296C93.0255 19.2051 91.6271 18.647 89.7966 18.647C87.9661 18.647 86.5678 19.2051 85.5509 20.2706C84.5339 21.3362 84.0509 22.7823 84.0509 24.5328ZM77.4407 12.888H84.0509V15.9324H84.1271C84.4068 15.5265 84.7882 15.0952 85.2458 14.6639C85.7034 14.2326 86.2627 13.8267 86.8983 13.4715C87.5339 13.1163 88.1949 12.8372 88.9577 12.6089C89.7204 12.3806 90.4831 12.2537 91.2966 12.2537C93.0254 12.2537 94.6017 12.5328 96 13.1417C97.3983 13.7506 98.5932 14.5624 99.6102 15.6533C100.627 16.7188 101.39 17.9873 101.949 19.4588C102.508 20.9303 102.763 22.5539 102.763 24.3045C102.763 25.9535 102.508 27.4757 102 28.9725C101.517 30.444 100.78 31.7632 99.8899 32.9303C98.9746 34.0719 97.856 35.0106 96.5339 35.6702C95.2373 36.3552 93.7373 36.7104 92.0593 36.685C90.5593 36.685 89.161 36.4567 87.8644 36C86.5678 35.5434 85.5 34.7315 84.6865 33.6406H84.6102V61.5476H77.4153V12.888H77.4407Z" fill="#409544"/>
<path d="M112.373 0H105.178V36.203H112.373V0Z" fill="white"/>
<path d="M131.593 21.945C131.619 20.7273 131.212 19.6871 130.398 18.8245C129.559 17.9619 128.492 17.5306 127.195 17.5306C126.381 17.5306 125.695 17.6575 125.085 17.9112C124.475 18.1649 123.966 18.4947 123.534 18.9006C123.102 19.3065 122.746 19.7632 122.517 20.296C122.288 20.8034 122.136 21.3615 122.11 21.945H131.619H131.593ZM137.695 32.1945C136.551 33.666 135.102 34.7822 133.322 35.5941C131.568 36.4059 129.737 36.7865 127.856 36.7865C125.975 36.7865 124.398 36.5074 122.797 35.9239C121.22 35.3404 119.847 34.5032 118.678 33.4376C117.534 32.3721 116.593 31.0782 115.932 29.5814C115.271 28.0846 114.915 26.4101 114.915 24.5581C114.915 22.7061 115.271 21.0317 115.932 19.5349C116.593 18.038 117.508 16.7442 118.703 15.6786C119.898 14.6131 121.246 13.7759 122.822 13.2177C124.398 12.6342 126.076 12.3552 127.881 12.3552C129.559 12.3552 131.059 12.6342 132.407 13.2177C133.754 13.8013 134.924 14.6131 135.839 15.704C136.78 16.7695 137.517 18.0634 138.025 19.5602C138.534 21.0571 138.814 22.7315 138.814 24.5835V26.8414H122.11C122.39 28.2368 123.025 29.3023 123.992 30.1395C124.932 30.9514 126.127 31.3827 127.551 31.3827C128.746 31.3827 129.737 31.129 130.551 30.5962C131.364 30.0634 132.076 29.3784 132.686 28.5412L137.72 32.2199H137.67L137.695 32.1945Z" fill="white"/>
<path d="M140.517 48.685H40.627V96.6089H140.517V48.685Z" fill="#409544"/>
<path d="M53.1864 88.4398V65.962L47.4661 70.3763L43.7034 65.2262L53.7966 57.8436H60.483V88.4651H53.1864V88.4398Z" fill="white"/>
<path d="M76.627 89.277C67.9067 89.277 64.5762 81.7421 64.5762 73.0655C64.5762 64.389 67.9067 57.0063 76.627 57.0063C85.3474 57.0063 88.5762 64.4144 88.5762 73.0655C88.5762 81.7167 85.2965 89.277 76.627 89.277ZM76.627 63.1459C72.7626 63.1459 72.0253 69.2093 72.0253 73.0402C72.0253 76.871 72.7626 83.036 76.627 83.036C80.4914 83.036 81.1524 76.9725 81.1524 73.0402C81.1524 69.1078 80.4406 63.1459 76.627 63.1459Z" fill="white"/>
<path d="M103.144 89.277C97.5507 89.277 92.4914 86.8415 90.8389 81.1586L97.6016 79.3827C98.1609 81.4123 100.042 83.1882 102.813 83.1882C104.898 83.1882 107.263 82.148 107.263 79.3066C107.263 76.1861 104.059 75.2728 101.034 75.2728H99.0762V69.9704H101.212C103.932 69.9704 106.576 69.2854 106.576 66.3425C106.576 64.1353 104.72 62.9683 102.712 62.9683C100.703 62.9683 98.9745 64.3129 98.5168 66.3679L91.7541 64.8203C93.2287 59.6702 98.0846 57.0317 103.195 57.0317C108.61 57.0317 114 59.7971 114 65.6829C114 69.0571 111.839 71.5687 108.839 72.3298V72.4567C112.322 73.2939 114.737 76.1353 114.737 79.5603C114.737 86.258 108.788 89.277 103.169 89.277H103.144Z" fill="white"/>
<path d="M125.11 88.4398V65.962L119.39 70.3763L115.627 65.2262L125.72 57.8436H132.407V88.4651H125.11V88.4398Z" fill="white"/>
<path d="M33.8643 54.6216V48.685H27.4575V54.6216H33.8643Z" fill="#B72026"/>
<path d="M33.8643 65.2009V59.2643H27.4575V65.2009H33.8643Z" fill="#ED2024"/>
<path d="M33.8643 75.7801V69.8436H27.4575V75.7801H33.8643Z" fill="#EFC932"/>
<path d="M33.8389 86.3594V80.4229H27.4321V86.3594H33.8389Z" fill="#F47621"/>
<path d="M33.8389 96.964V91.0275H27.4321V96.964H33.8389Z" fill="#4178BD"/>
<path d="M33.8389 107.543V101.607H27.4321V107.543H33.8389Z" fill="#5253A3"/>
<path d="M33.8389 118.123V112.186H27.4321V118.123H33.8389Z" fill="#409544"/>
<path d="M20.6187 65.2262H14.1865V59.2643H20.6187" fill="#ED2024"/>
<path d="M20.6187 75.8055H14.1865V69.8436H20.6187" fill="#EFC932"/>
<path d="M20.6187 86.3848H14.1865V80.4229H20.6187" fill="#F47621"/>
<path d="M20.6187 96.964H14.1865V91.0275H20.6187" fill="#4178BD"/>
<path d="M20.6187 107.543H14.1865V101.607H20.6187" fill="#5253A3"/>
<path d="M20.6187 118.123H14.1865V112.186H20.6187" fill="#409544"/>
<path d="M20.6187 54.6216V48.685H14.2119V54.6216H20.6187Z" fill="#B72026"/>
<path d="M7.37284 65.2262H0.966064V59.2643H7.37284" fill="#ED2024"/>
<path d="M7.37284 75.8055H0.966064V69.8436H7.37284" fill="#EFC932"/>
<path d="M7.37284 86.3848H0.966064V80.4229H7.37284" fill="#F47621"/>
<path d="M7.37284 96.9642H0.966064V91.0276H7.37284" fill="#4178BD"/>
<path d="M7.37284 107.543H0.966064V101.607H7.37284" fill="#5253A3"/>
<path d="M7.37284 118.123H0.966064V112.186H7.37284" fill="#409544"/>
<path d="M7.3728 54.647V48.7104H0.966022V54.647H7.3728Z" fill="#B72026"/>
<path d="M40.6272 104.55H49.5001V107.315H43.5001V109.852H49.1696V112.617H43.5001V115.383H49.8306V118.148H40.6272V104.55Z" fill="white"/>
<path d="M55.0169 111.045L50.6949 104.55H54.3051L57.1017 109.319L59.7712 104.55H63.2542L59.0339 110.994L63.7627 118.148H60.1525L56.9491 112.668L53.8475 118.148H50.4407L55.0169 111.045Z" fill="white"/>
<path d="M72.5594 108.102C72.2797 107.746 71.9238 107.467 71.517 107.29C71.1102 107.112 70.6272 106.985 70.0933 106.985C69.5594 106.985 69.0509 107.087 68.5933 107.315C68.1357 107.543 67.7289 107.823 67.3984 108.228C67.0679 108.634 66.7882 109.091 66.6102 109.624C66.4068 110.157 66.3306 110.74 66.3306 111.374C66.3306 112.009 66.4323 112.592 66.6102 113.125C66.8136 113.658 67.0679 114.114 67.3984 114.52C67.7289 114.901 68.1102 115.205 68.5679 115.434C69.0255 115.662 69.5085 115.763 70.017 115.763C70.6018 115.763 71.1357 115.636 71.5933 115.383C72.0509 115.129 72.4323 114.774 72.7119 114.292L75.1272 116.169C74.5679 116.981 73.8814 117.565 73.017 117.945C72.1526 118.326 71.2882 118.529 70.3984 118.529C69.3814 118.529 68.4407 118.376 67.5763 118.021C66.7119 117.691 65.9746 117.209 65.339 116.601C64.7035 115.966 64.2204 115.231 63.8645 114.343C63.5085 113.455 63.3306 112.465 63.3306 111.374C63.3306 110.283 63.5085 109.294 63.8645 108.406C64.2204 107.518 64.7035 106.782 65.339 106.148C65.9746 105.514 66.7119 105.057 67.5763 104.727C68.4407 104.398 69.3814 104.245 70.3984 104.245C70.7797 104.245 71.1611 104.271 71.5424 104.347C71.9238 104.423 72.3306 104.524 72.7373 104.677C73.1441 104.829 73.5001 105.032 73.856 105.286C74.2119 105.539 74.5424 105.869 74.8221 106.224L72.6102 108.102H72.5594Z" fill="white"/>
<path d="M75.9407 104.55H78.8136V109.624H84.4068V104.55H87.2797V118.148H84.4068V112.262H78.8136V118.148H75.9407V104.55Z" fill="white"/>
<path d="M93.5086 104.55H95.8984L101.593 118.148H98.3391L97.2204 115.281H92.1357L91.0425 118.148H87.8645L93.5086 104.55ZM94.6272 108.508L93.0255 112.744H96.2289L94.6272 108.508Z" fill="white"/>
<path d="M102.509 104.55H106.424L111.966 113.987H111.992V104.55H114.864V118.148H111.102L105.407 108.457H105.381V118.148H102.509V104.55Z" fill="white"/>
<path d="M129.026 117.184C128.187 117.641 127.297 117.97 126.382 118.173C125.466 118.376 124.526 118.478 123.559 118.478C122.543 118.478 121.602 118.326 120.737 117.97C119.873 117.641 119.136 117.159 118.5 116.55C117.865 115.916 117.382 115.18 117.026 114.292C116.67 113.404 116.492 112.414 116.492 111.324C116.492 110.233 116.67 109.243 117.026 108.355C117.382 107.467 117.865 106.732 118.5 106.097C119.136 105.463 119.873 105.006 120.737 104.677C121.602 104.347 122.543 104.195 123.559 104.195C124.576 104.195 125.568 104.321 126.458 104.575C127.348 104.829 128.11 105.285 128.771 105.92L126.737 108.228C126.331 107.797 125.898 107.493 125.415 107.264C124.907 107.036 124.322 106.935 123.585 106.935C122.975 106.935 122.415 107.036 121.907 107.264C121.398 107.493 120.992 107.772 120.61 108.178C120.254 108.558 119.975 109.04 119.797 109.573C119.593 110.106 119.517 110.689 119.517 111.324C119.517 111.958 119.619 112.541 119.797 113.074C120 113.607 120.254 114.064 120.61 114.469C120.966 114.85 121.398 115.154 121.907 115.383C122.415 115.611 122.949 115.713 123.585 115.713C124.221 115.713 124.754 115.636 125.212 115.484C125.67 115.332 126.026 115.18 126.305 115.028V112.82H123.966V110.055H129.076V117.159L129.026 117.184Z" fill="white"/>
<path d="M131.314 104.55H140.187V107.315H134.187V109.852H139.856V112.617H134.187V115.383H140.517V118.148H131.314V104.55Z" fill="white"/>
<path d="M142.271 104.55V105.108H143.009V107.087H143.619V105.108H144.407V104.55H142.271Z" fill="white"/>
<path d="M144.839 107.087V104.55H145.398L146.339 106.072H145.932L146.873 104.575H147.407V107.112H146.822V106.326C146.822 106.123 146.822 105.92 146.822 105.742C146.822 105.564 146.822 105.387 146.873 105.209L146.949 105.387L146.237 106.478H146.009L145.322 105.387L145.398 105.184C145.398 105.336 145.449 105.514 145.449 105.691C145.449 105.869 145.449 106.072 145.449 106.3V107.087H144.839Z" fill="white"/>
</svg>
