<?xml version="1.0" encoding="UTF-8"?>
<svg id="Layer_1" data-name="Layer 1" xmlns="http://www.w3.org/2000/svg" viewBox="0 0 841.89 384.81">
  <defs>
    <style>
      .cls-1 {
        fill: #fff;
        stroke-width: 0px;
      }
    </style>
  </defs>
  <g>
    <g>
      <path class="cls-1" d="M44.77,282.74c-.59-.74-1.39-1.29-2.39-1.65-1.01-.36-1.96-.53-2.86-.53-.53,0-1.07.06-1.62.19-.56.12-1.08.32-1.58.58-.5.26-.9.61-1.21,1.04-.31.43-.46.96-.46,1.58,0,.99.37,1.75,1.11,2.28.74.53,1.68.97,2.81,1.35,1.13.37,2.34.74,3.65,1.11,1.3.37,2.51.9,3.65,1.58,1.13.68,2.07,1.59,2.81,2.74.74,1.15,1.11,2.68,1.11,4.6s-.34,3.42-1.02,4.78c-.68,1.36-1.6,2.49-2.76,3.39-1.16.9-2.51,1.56-4.04,2-1.53.43-3.15.65-4.85.65-2.14,0-4.12-.33-5.94-.98-1.83-.65-3.53-1.7-5.11-3.16l5.15-5.67c.74.99,1.68,1.76,2.81,2.3,1.13.54,2.3.81,3.51.81.59,0,1.18-.07,1.79-.21s1.15-.35,1.63-.63c.48-.28.87-.63,1.16-1.07.29-.43.44-.94.44-1.53,0-.99-.38-1.77-1.14-2.34-.76-.57-1.71-1.06-2.86-1.46-1.15-.4-2.38-.8-3.71-1.21-1.33-.4-2.57-.94-3.71-1.62-1.15-.68-2.1-1.58-2.86-2.69-.76-1.11-1.14-2.58-1.14-4.41s.35-3.31,1.04-4.64c.7-1.33,1.62-2.45,2.79-3.34,1.16-.9,2.5-1.57,4.02-2.02,1.52-.45,3.08-.67,4.69-.67,1.86,0,3.65.26,5.39.79,1.73.53,3.3,1.41,4.69,2.65l-4.97,5.43Z"/>
      <path class="cls-1" d="M75.65,303.68c-1.11,1.42-2.52,2.52-4.23,3.3-1.7.77-3.47,1.16-5.29,1.16s-3.37-.28-4.9-.84c-1.53-.56-2.86-1.35-3.99-2.39-1.13-1.04-2.02-2.28-2.67-3.74-.65-1.45-.98-3.08-.98-4.88s.32-3.42.98-4.88c.65-1.46,1.54-2.7,2.67-3.74,1.13-1.04,2.46-1.83,3.99-2.39,1.53-.56,3.17-.84,4.9-.84,1.61,0,3.07.28,4.39.84,1.32.56,2.43,1.35,3.34,2.39.91,1.04,1.62,2.28,2.11,3.74.49,1.46.74,3.08.74,4.88v2.18h-16.16c.28,1.33.88,2.39,1.81,3.18.93.79,2.07,1.18,3.44,1.18,1.15,0,2.11-.25,2.9-.77.79-.51,1.48-1.17,2.07-1.97l4.88,3.58ZM69.75,293.74c.03-1.18-.36-2.18-1.16-3.02-.81-.84-1.84-1.25-3.11-1.25-.77,0-1.46.12-2.04.37-.59.25-1.09.57-1.51.95-.42.39-.74.84-.98,1.35-.23.51-.36,1.04-.4,1.6h9.19Z"/>
      <path class="cls-1" d="M96.21,292.3c-.34-.5-.82-.91-1.44-1.23-.62-.32-1.28-.49-2-.49-1.76,0-3.13.53-4.11,1.58-.98,1.05-1.46,2.43-1.46,4.13s.49,3.08,1.46,4.13,2.34,1.58,4.11,1.58c.77,0,1.44-.17,2-.51.56-.34,1.04-.74,1.44-1.21l4.6,4.83c-1.08,1.11-2.36,1.9-3.83,2.34-1.47.45-2.87.67-4.2.67-1.73,0-3.37-.28-4.9-.84-1.53-.56-2.86-1.35-3.99-2.39-1.13-1.04-2.02-2.28-2.67-3.74-.65-1.45-.98-3.08-.98-4.88s.32-3.42.98-4.88c.65-1.46,1.54-2.7,2.67-3.74,1.13-1.04,2.46-1.83,3.99-2.39,1.53-.56,3.17-.84,4.9-.84,1.33,0,2.73.22,4.2.67,1.47.45,2.75,1.23,3.83,2.34l-4.6,4.83Z"/>
      <path class="cls-1" d="M125.05,307.58h-6.69v-3.06h-.09c-.25.43-.56.87-.95,1.3-.39.43-.86.82-1.42,1.16-.56.34-1.19.62-1.9.84-.71.22-1.49.33-2.32.33-1.76,0-3.2-.27-4.3-.81-1.1-.54-1.95-1.29-2.55-2.25-.6-.96-1.01-2.09-1.21-3.39-.2-1.3-.3-2.71-.3-4.23v-12.44h6.97v11.05c0,.65.02,1.32.07,2.02.05.7.19,1.34.42,1.93.23.59.59,1.07,1.07,1.44.48.37,1.17.56,2.07.56s1.63-.16,2.18-.49.98-.76,1.28-1.3c.29-.54.49-1.15.58-1.83.09-.68.14-1.39.14-2.14v-11.24h6.97v22.57Z"/>
      <path class="cls-1" d="M129.97,285.01h6.97v3.62h.09c.74-1.39,1.62-2.44,2.65-3.13,1.02-.7,2.31-1.04,3.85-1.04.4,0,.8.02,1.21.05.4.03.77.09,1.11.19v6.36c-.5-.16-.98-.27-1.46-.35-.48-.08-.98-.12-1.51-.12-1.33,0-2.38.19-3.16.56-.77.37-1.37.89-1.79,1.56s-.69,1.46-.81,2.39c-.12.93-.19,1.95-.19,3.07v9.43h-6.97v-22.57Z"/>
      <path class="cls-1" d="M169.39,303.68c-1.11,1.42-2.52,2.52-4.23,3.3-1.7.77-3.47,1.16-5.29,1.16s-3.37-.28-4.9-.84c-1.53-.56-2.86-1.35-3.99-2.39-1.13-1.04-2.02-2.28-2.67-3.74-.65-1.45-.98-3.08-.98-4.88s.32-3.42.98-4.88c.65-1.46,1.54-2.7,2.67-3.74,1.13-1.04,2.46-1.83,3.99-2.39,1.53-.56,3.17-.84,4.9-.84,1.61,0,3.07.28,4.39.84,1.32.56,2.43,1.35,3.34,2.39.91,1.04,1.62,2.28,2.11,3.74.49,1.46.74,3.08.74,4.88v2.18h-16.16c.28,1.33.88,2.39,1.81,3.18.93.79,2.07,1.18,3.44,1.18,1.15,0,2.11-.25,2.9-.77.79-.51,1.48-1.17,2.07-1.97l4.88,3.58ZM163.5,293.74c.03-1.18-.36-2.18-1.16-3.02-.81-.84-1.84-1.25-3.11-1.25-.77,0-1.46.12-2.04.37-.59.25-1.09.57-1.51.95-.42.39-.74.84-.98,1.35-.23.51-.36,1.04-.4,1.6h9.19Z"/>
      <path class="cls-1" d="M198.37,307.58h-6.41v-2.97h-.09c-.28.4-.64.81-1.09,1.23s-.98.8-1.58,1.14-1.27.62-2,.84c-.73.22-1.48.33-2.25.33-1.67,0-3.19-.29-4.55-.86-1.36-.57-2.53-1.38-3.51-2.42-.98-1.04-1.73-2.27-2.25-3.69-.53-1.42-.79-2.99-.79-4.69,0-1.58.24-3.09.72-4.53s1.16-2.72,2.04-3.83,1.96-2,3.23-2.67c1.27-.67,2.71-1,4.32-1,1.45,0,2.81.22,4.06.67,1.25.45,2.28,1.22,3.09,2.3h.09v-14.95h6.97v35.1ZM191.96,296.3c0-1.7-.49-3.08-1.46-4.13-.98-1.05-2.35-1.58-4.11-1.58s-3.13.53-4.11,1.58c-.98,1.05-1.46,2.43-1.46,4.13s.49,3.08,1.46,4.13,2.34,1.58,4.11,1.58,3.13-.53,4.11-1.58,1.46-2.43,1.46-4.13Z"/>
      <path class="cls-1" d="M218.85,274.7h7.24v26.19h13.42v6.69h-20.66v-32.88Z"/>
      <path class="cls-1" d="M263.98,303.68c-1.11,1.42-2.52,2.52-4.23,3.3-1.7.77-3.47,1.16-5.29,1.16s-3.37-.28-4.9-.84c-1.53-.56-2.86-1.35-3.99-2.39-1.13-1.04-2.02-2.28-2.67-3.74-.65-1.45-.98-3.08-.98-4.88s.32-3.42.98-4.88c.65-1.46,1.54-2.7,2.67-3.74,1.13-1.04,2.46-1.83,3.99-2.39,1.53-.56,3.17-.84,4.9-.84,1.61,0,3.07.28,4.39.84,1.32.56,2.43,1.35,3.34,2.39.91,1.04,1.62,2.28,2.11,3.74.49,1.46.74,3.08.74,4.88v2.18h-16.16c.28,1.33.88,2.39,1.81,3.18.93.79,2.07,1.18,3.44,1.18,1.15,0,2.11-.25,2.9-.77.79-.51,1.48-1.17,2.07-1.97l4.88,3.58ZM258.08,293.74c.03-1.18-.36-2.18-1.16-3.02-.81-.84-1.84-1.25-3.11-1.25-.77,0-1.46.12-2.04.37-.59.25-1.09.57-1.51.95-.42.39-.74.84-.98,1.35-.23.51-.36,1.04-.4,1.6h9.19Z"/>
      <path class="cls-1" d="M269.27,285.01h6.69v3.07h.09c.22-.43.53-.87.93-1.3.4-.43.88-.82,1.44-1.16s1.19-.62,1.9-.84c.71-.22,1.49-.33,2.32-.33,1.76,0,3.19.27,4.27.81,1.08.54,1.93,1.29,2.53,2.25.6.96,1.01,2.09,1.23,3.39.22,1.3.33,2.71.33,4.23v12.44h-6.97v-11.05c0-.65-.02-1.32-.07-2.02-.05-.7-.19-1.34-.42-1.93-.23-.59-.59-1.07-1.07-1.44-.48-.37-1.17-.56-2.07-.56s-1.62.16-2.18.49c-.56.33-.98.76-1.28,1.3-.29.54-.49,1.15-.58,1.83-.09.68-.14,1.39-.14,2.14v11.24h-6.97v-22.57Z"/>
      <path class="cls-1" d="M319.61,307.58h-6.41v-2.97h-.09c-.28.4-.64.81-1.09,1.23s-.98.8-1.58,1.14-1.27.62-2,.84c-.73.22-1.48.33-2.25.33-1.67,0-3.19-.29-4.55-.86-1.36-.57-2.53-1.38-3.51-2.42-.98-1.04-1.73-2.27-2.25-3.69-.53-1.42-.79-2.99-.79-4.69,0-1.58.24-3.09.72-4.53s1.16-2.72,2.04-3.83,1.96-2,3.23-2.67c1.27-.67,2.71-1,4.32-1,1.45,0,2.81.22,4.06.67,1.25.45,2.28,1.22,3.09,2.3h.09v-14.95h6.97v35.1ZM313.2,296.3c0-1.7-.49-3.08-1.46-4.13-.98-1.05-2.35-1.58-4.11-1.58s-3.13.53-4.11,1.58c-.98,1.05-1.46,2.43-1.46,4.13s.49,3.08,1.46,4.13,2.34,1.58,4.11,1.58,3.13-.53,4.11-1.58,1.46-2.43,1.46-4.13Z"/>
      <path class="cls-1" d="M324.71,277.91c0-1.11.4-2.07,1.18-2.86.79-.79,1.74-1.18,2.86-1.18s2.07.39,2.86,1.18c.79.79,1.18,1.74,1.18,2.86s-.39,2.07-1.18,2.86c-.79.79-1.74,1.18-2.86,1.18s-2.07-.39-2.86-1.18c-.79-.79-1.18-1.74-1.18-2.86ZM325.27,285.01h6.97v22.57h-6.97v-22.57Z"/>
      <path class="cls-1" d="M337.25,285.01h6.69v3.07h.09c.22-.43.53-.87.93-1.3.4-.43.88-.82,1.44-1.16s1.19-.62,1.9-.84c.71-.22,1.49-.33,2.32-.33,1.76,0,3.19.27,4.27.81,1.08.54,1.93,1.29,2.53,2.25.6.96,1.01,2.09,1.23,3.39.22,1.3.33,2.71.33,4.23v12.44h-6.97v-11.05c0-.65-.02-1.32-.07-2.02-.05-.7-.19-1.34-.42-1.93-.23-.59-.59-1.07-1.07-1.44-.48-.37-1.17-.56-2.07-.56s-1.62.16-2.18.49c-.56.33-.98.76-1.28,1.3-.29.54-.49,1.15-.58,1.83-.09.68-.14,1.39-.14,2.14v11.24h-6.97v-22.57Z"/>
      <path class="cls-1" d="M387.58,305.68c0,4.27-1.08,7.51-3.23,9.73-2.15,2.21-5.43,3.32-9.82,3.32-2.01,0-3.99-.23-5.94-.67-1.95-.45-3.75-1.32-5.39-2.62l3.85-5.76c1.08.9,2.22,1.61,3.41,2.14,1.19.53,2.5.79,3.92.79,2.14,0,3.71-.52,4.71-1.56s1.51-2.36,1.51-3.97v-2.18h-.09c-.81,1.08-1.8,1.85-3,2.3-1.19.45-2.31.67-3.37.67-1.67,0-3.19-.29-4.55-.86-1.36-.57-2.53-1.38-3.51-2.42-.98-1.04-1.73-2.27-2.25-3.69-.53-1.42-.79-2.99-.79-4.69,0-1.49.24-2.94.72-4.37s1.16-2.68,2.04-3.76,1.96-1.96,3.23-2.62c1.27-.67,2.71-1,4.32-1,.99,0,1.9.11,2.72.33.82.22,1.56.5,2.21.84.65.34,1.21.72,1.67,1.14.46.42.84.83,1.11,1.23h.09v-2.97h6.41v20.66ZM370.03,296.16c0,.74.14,1.45.42,2.11.28.67.67,1.25,1.18,1.76s1.1.92,1.76,1.23c.67.31,1.4.46,2.21.46s1.5-.15,2.18-.46c.68-.31,1.28-.72,1.79-1.23.51-.51.91-1.1,1.18-1.76.28-.67.42-1.37.42-2.11s-.14-1.45-.42-2.11c-.28-.67-.67-1.25-1.18-1.76-.51-.51-1.11-.92-1.79-1.23-.68-.31-1.41-.46-2.18-.46s-1.54.16-2.21.46c-.67.31-1.25.72-1.76,1.23s-.91,1.1-1.18,1.76c-.28.67-.42,1.37-.42,2.11Z"/>
      <path class="cls-1" d="M412.52,272.75v46.43h-5.85v-46.43h5.85Z"/>
      <path class="cls-1" d="M448.09,282.74c-.59-.74-1.39-1.29-2.39-1.65-1.01-.36-1.96-.53-2.86-.53-.53,0-1.07.06-1.63.19-.56.12-1.08.32-1.58.58-.5.26-.9.61-1.21,1.04-.31.43-.46.96-.46,1.58,0,.99.37,1.75,1.11,2.28s1.68.97,2.81,1.35c1.13.37,2.34.74,3.64,1.11,1.3.37,2.51.9,3.65,1.58,1.13.68,2.07,1.59,2.81,2.74.74,1.15,1.11,2.68,1.11,4.6s-.34,3.42-1.02,4.78c-.68,1.36-1.6,2.49-2.76,3.39-1.16.9-2.51,1.56-4.04,2-1.53.43-3.15.65-4.85.65-2.14,0-4.12-.33-5.94-.98-1.83-.65-3.53-1.7-5.11-3.16l5.15-5.67c.74.99,1.68,1.76,2.81,2.3,1.13.54,2.3.81,3.51.81.59,0,1.18-.07,1.79-.21.6-.14,1.14-.35,1.62-.63.48-.28.87-.63,1.16-1.07.29-.43.44-.94.44-1.53,0-.99-.38-1.77-1.14-2.34-.76-.57-1.71-1.06-2.86-1.46-1.15-.4-2.38-.8-3.71-1.21s-2.57-.94-3.71-1.62-2.1-1.58-2.86-2.69c-.76-1.11-1.14-2.58-1.14-4.41s.35-3.31,1.04-4.64,1.62-2.45,2.79-3.34,2.5-1.57,4.02-2.02c1.52-.45,3.08-.67,4.69-.67,1.86,0,3.65.26,5.39.79,1.73.53,3.3,1.41,4.69,2.65l-4.97,5.43Z"/>
      <path class="cls-1" d="M472.97,290.58h-6.13v7.52c0,.62.03,1.18.09,1.7.06.51.2.95.42,1.32.22.37.55.66,1,.86.45.2,1.04.3,1.79.3.37,0,.86-.04,1.46-.12s1.06-.26,1.37-.53v5.8c-.77.28-1.58.46-2.42.56s-1.66.14-2.46.14c-1.18,0-2.26-.12-3.25-.37-.99-.25-1.86-.64-2.6-1.18s-1.32-1.25-1.74-2.11c-.42-.87-.63-1.92-.63-3.16v-10.73h-4.46v-5.57h4.46v-6.69h6.96v6.69h6.13v5.57Z"/>
      <path class="cls-1" d="M476.5,285.01h6.96v3.62h.09c.74-1.39,1.63-2.44,2.65-3.13,1.02-.7,2.31-1.04,3.85-1.04.4,0,.8.02,1.21.05.4.03.77.09,1.11.19v6.36c-.5-.16-.98-.27-1.46-.35-.48-.08-.98-.12-1.51-.12-1.33,0-2.38.19-3.16.56-.77.37-1.37.89-1.79,1.56s-.69,1.46-.81,2.39c-.12.93-.19,1.95-.19,3.07v9.43h-6.96v-22.57Z"/>
      <path class="cls-1" d="M517.13,307.58h-6.69v-3.06h-.09c-.25.43-.57.87-.95,1.3-.39.43-.86.82-1.42,1.16-.56.34-1.19.62-1.9.84-.71.22-1.49.33-2.32.33-1.76,0-3.2-.27-4.29-.81-1.1-.54-1.95-1.29-2.55-2.25-.6-.96-1.01-2.09-1.21-3.39-.2-1.3-.3-2.71-.3-4.23v-12.44h6.96v11.05c0,.65.02,1.32.07,2.02.05.7.19,1.34.42,1.93.23.59.59,1.07,1.07,1.44.48.37,1.17.56,2.07.56s1.62-.16,2.18-.49.98-.76,1.28-1.3c.29-.54.49-1.15.58-1.83.09-.68.14-1.39.14-2.14v-11.24h6.96v22.57Z"/>
      <path class="cls-1" d="M537.33,292.3c-.34-.5-.82-.91-1.44-1.23-.62-.32-1.29-.49-2-.49-1.76,0-3.13.53-4.11,1.58-.98,1.05-1.46,2.43-1.46,4.13s.49,3.08,1.46,4.13c.97,1.05,2.34,1.58,4.11,1.58.77,0,1.44-.17,2-.51.56-.34,1.04-.74,1.44-1.21l4.6,4.83c-1.08,1.11-2.36,1.9-3.83,2.34-1.47.45-2.87.67-4.2.67-1.73,0-3.37-.28-4.9-.84-1.53-.56-2.86-1.35-3.99-2.39s-2.02-2.28-2.67-3.74c-.65-1.45-.97-3.08-.97-4.88s.33-3.42.97-4.88c.65-1.46,1.54-2.7,2.67-3.74,1.13-1.04,2.46-1.83,3.99-2.39,1.53-.56,3.16-.84,4.9-.84,1.33,0,2.73.22,4.2.67,1.47.45,2.75,1.23,3.83,2.34l-4.6,4.83Z"/>
      <path class="cls-1" d="M559.8,290.58h-6.13v7.52c0,.62.03,1.18.09,1.7.06.51.2.95.42,1.32.22.37.55.66,1,.86.45.2,1.04.3,1.79.3.37,0,.86-.04,1.46-.12s1.06-.26,1.37-.53v5.8c-.77.28-1.58.46-2.42.56s-1.66.14-2.46.14c-1.18,0-2.26-.12-3.25-.37-.99-.25-1.86-.64-2.6-1.18s-1.32-1.25-1.74-2.11c-.42-.87-.63-1.92-.63-3.16v-10.73h-4.46v-5.57h4.46v-6.69h6.96v6.69h6.13v5.57Z"/>
      <path class="cls-1" d="M585.06,307.58h-6.69v-3.06h-.09c-.25.43-.57.87-.95,1.3-.39.43-.86.82-1.42,1.16-.56.34-1.19.62-1.9.84-.71.22-1.49.33-2.32.33-1.76,0-3.2-.27-4.29-.81-1.1-.54-1.95-1.29-2.55-2.25-.6-.96-1.01-2.09-1.21-3.39-.2-1.3-.3-2.71-.3-4.23v-12.44h6.96v11.05c0,.65.02,1.32.07,2.02.05.7.19,1.34.42,1.93.23.59.59,1.07,1.07,1.44.48.37,1.17.56,2.07.56s1.62-.16,2.18-.49.98-.76,1.28-1.3c.29-.54.49-1.15.58-1.83.09-.68.14-1.39.14-2.14v-11.24h6.96v22.57Z"/>
      <path class="cls-1" d="M589.99,285.01h6.96v3.62h.09c.74-1.39,1.63-2.44,2.65-3.13,1.02-.7,2.31-1.04,3.85-1.04.4,0,.8.02,1.21.05.4.03.77.09,1.11.19v6.36c-.5-.16-.98-.27-1.46-.35-.48-.08-.98-.12-1.51-.12-1.33,0-2.38.19-3.16.56-.77.37-1.37.89-1.79,1.56s-.69,1.46-.81,2.39c-.12.93-.19,1.95-.19,3.07v9.43h-6.96v-22.57Z"/>
      <path class="cls-1" d="M629.46,303.68c-1.11,1.42-2.52,2.52-4.22,3.3-1.7.77-3.47,1.16-5.29,1.16s-3.37-.28-4.9-.84c-1.53-.56-2.86-1.35-3.99-2.39s-2.02-2.28-2.67-3.74c-.65-1.45-.97-3.08-.97-4.88s.33-3.42.97-4.88c.65-1.46,1.54-2.7,2.67-3.74,1.13-1.04,2.46-1.83,3.99-2.39,1.53-.56,3.16-.84,4.9-.84,1.61,0,3.07.28,4.39.84,1.32.56,2.43,1.35,3.34,2.39.91,1.04,1.62,2.28,2.11,3.74s.74,3.08.74,4.88v2.18h-16.16c.28,1.33.88,2.39,1.81,3.18.93.79,2.07,1.18,3.44,1.18,1.14,0,2.11-.25,2.9-.77.79-.51,1.48-1.17,2.07-1.97l4.88,3.58ZM623.56,293.74c.03-1.18-.36-2.18-1.16-3.02-.81-.84-1.84-1.25-3.11-1.25-.77,0-1.46.12-2.04.37-.59.25-1.09.57-1.51.95-.42.39-.74.84-.98,1.35-.23.51-.36,1.04-.39,1.6h9.19Z"/>
      <path class="cls-1" d="M658.43,307.58h-6.41v-2.97h-.09c-.28.4-.64.81-1.09,1.23-.45.42-.98.8-1.58,1.14s-1.27.62-2,.84c-.73.22-1.48.33-2.25.33-1.67,0-3.19-.29-4.55-.86-1.36-.57-2.53-1.38-3.51-2.42-.98-1.04-1.73-2.27-2.25-3.69-.53-1.42-.79-2.99-.79-4.69,0-1.58.24-3.09.72-4.53.48-1.44,1.16-2.72,2.04-3.83.88-1.11,1.96-2,3.23-2.67,1.27-.67,2.71-1,4.32-1,1.46,0,2.81.22,4.06.67,1.25.45,2.28,1.22,3.09,2.3h.09v-14.95h6.96v35.1ZM652.02,296.3c0-1.7-.49-3.08-1.46-4.13-.97-1.05-2.34-1.58-4.11-1.58s-3.13.53-4.11,1.58c-.97,1.05-1.46,2.43-1.46,4.13s.49,3.08,1.46,4.13c.98,1.05,2.34,1.58,4.11,1.58s3.13-.53,4.11-1.58c.98-1.05,1.46-2.43,1.46-4.13Z"/>
      <path class="cls-1" d="M678.63,274.7h10.87c2.63,0,5.13.29,7.5.88,2.37.59,4.43,1.54,6.2,2.86,1.76,1.32,3.16,3.03,4.2,5.13,1.04,2.11,1.56,4.66,1.56,7.66,0,2.66-.5,5.01-1.51,7.04s-2.36,3.73-4.06,5.11c-1.7,1.38-3.67,2.42-5.9,3.13-2.23.71-4.57,1.07-7.01,1.07h-11.84v-32.88ZM685.87,300.89h3.76c1.67,0,3.23-.17,4.67-.51,1.44-.34,2.69-.91,3.74-1.7,1.05-.79,1.88-1.83,2.48-3.11s.91-2.86.91-4.71c0-1.61-.3-3.01-.91-4.2-.6-1.19-1.42-2.17-2.44-2.95-1.02-.77-2.22-1.35-3.6-1.74-1.38-.39-2.83-.58-4.34-.58h-4.27v19.5Z"/>
      <path class="cls-1" d="M734.35,303.68c-1.11,1.42-2.52,2.52-4.22,3.3-1.7.77-3.47,1.16-5.29,1.16s-3.37-.28-4.9-.84c-1.53-.56-2.86-1.35-3.99-2.39s-2.02-2.28-2.67-3.74c-.65-1.45-.97-3.08-.97-4.88s.33-3.42.97-4.88c.65-1.46,1.54-2.7,2.67-3.74,1.13-1.04,2.46-1.83,3.99-2.39,1.53-.56,3.16-.84,4.9-.84,1.61,0,3.07.28,4.39.84,1.32.56,2.43,1.35,3.34,2.39.91,1.04,1.62,2.28,2.11,3.74s.74,3.08.74,4.88v2.18h-16.16c.28,1.33.88,2.39,1.81,3.18.93.79,2.07,1.18,3.44,1.18,1.14,0,2.11-.25,2.9-.77.79-.51,1.48-1.17,2.07-1.97l4.88,3.58ZM728.45,293.74c.03-1.18-.36-2.18-1.16-3.02-.81-.84-1.84-1.25-3.11-1.25-.77,0-1.46.12-2.04.37-.59.25-1.09.57-1.51.95-.42.39-.74.84-.98,1.35-.23.51-.36,1.04-.39,1.6h9.19Z"/>
      <path class="cls-1" d="M740.29,272.47h6.96v14.95h.09c.8-1.08,1.83-1.85,3.09-2.3,1.25-.45,2.61-.67,4.06-.67,1.61,0,3.05.33,4.32,1,1.27.67,2.34,1.56,3.23,2.67.88,1.11,1.56,2.39,2.04,3.83.48,1.44.72,2.95.72,4.53,0,1.7-.26,3.27-.79,4.69-.53,1.42-1.28,2.66-2.25,3.69-.98,1.04-2.14,1.84-3.51,2.42s-2.88.86-4.55.86c-.8,0-1.56-.11-2.28-.33-.71-.22-1.37-.5-1.97-.84-.6-.34-1.13-.72-1.58-1.14-.45-.42-.81-.83-1.09-1.23h-.09v2.97h-6.41v-35.1ZM746.7,296.3c0,1.7.49,3.08,1.46,4.13.98,1.05,2.34,1.58,4.11,1.58s3.13-.53,4.11-1.58c.98-1.05,1.46-2.43,1.46-4.13s-.49-3.08-1.46-4.13c-.97-1.05-2.34-1.58-4.11-1.58s-3.13.53-4.11,1.58c-.97,1.05-1.46,2.43-1.46,4.13Z"/>
      <path class="cls-1" d="M784.26,290.58h-6.13v7.52c0,.62.03,1.18.09,1.7.06.51.2.95.42,1.32.22.37.55.66,1,.86.45.2,1.04.3,1.79.3.37,0,.86-.04,1.46-.12s1.06-.26,1.37-.53v5.8c-.77.28-1.58.46-2.42.56s-1.66.14-2.46.14c-1.18,0-2.26-.12-3.25-.37-.99-.25-1.86-.64-2.6-1.18s-1.32-1.25-1.74-2.11c-.42-.87-.63-1.92-.63-3.16v-10.73h-4.46v-5.57h4.46v-6.69h6.96v6.69h6.13v5.57Z"/>
      <path class="cls-1" d="M807.16,272.75v46.43h-5.85v-46.43h5.85Z"/>
    </g>
    <g>
      <path class="cls-1" d="M44.77,338.46c-.59-.74-1.39-1.29-2.39-1.65-1.01-.36-1.96-.53-2.86-.53-.53,0-1.07.06-1.62.19-.56.12-1.08.32-1.58.58-.5.26-.9.61-1.21,1.04-.31.43-.46.96-.46,1.58,0,.99.37,1.75,1.11,2.28.74.53,1.68.97,2.81,1.35,1.13.37,2.34.74,3.65,1.11,1.3.37,2.51.9,3.65,1.58,1.13.68,2.07,1.59,2.81,2.74.74,1.15,1.11,2.68,1.11,4.6s-.34,3.42-1.02,4.78c-.68,1.36-1.6,2.49-2.76,3.39-1.16.9-2.51,1.56-4.04,2-1.53.43-3.15.65-4.85.65-2.14,0-4.12-.33-5.94-.98-1.83-.65-3.53-1.7-5.11-3.16l5.15-5.67c.74.99,1.68,1.76,2.81,2.3,1.13.54,2.3.81,3.51.81.59,0,1.18-.07,1.79-.21s1.15-.35,1.63-.63c.48-.28.87-.63,1.16-1.07.29-.43.44-.94.44-1.53,0-.99-.38-1.77-1.14-2.34-.76-.57-1.71-1.06-2.86-1.46-1.15-.4-2.38-.8-3.71-1.21-1.33-.4-2.57-.94-3.71-1.62-1.15-.68-2.1-1.58-2.86-2.69-.76-1.11-1.14-2.58-1.14-4.41s.35-3.31,1.04-4.64c.7-1.33,1.62-2.45,2.79-3.34,1.16-.9,2.5-1.57,4.02-2.02,1.52-.45,3.08-.67,4.69-.67,1.86,0,3.65.26,5.39.79,1.73.53,3.3,1.41,4.69,2.65l-4.97,5.43Z"/>
      <path class="cls-1" d="M54.94,340.74h6.41v2.97h.09c.28-.4.64-.81,1.09-1.23.45-.42.98-.8,1.58-1.14s1.26-.62,1.97-.84c.71-.22,1.47-.33,2.28-.33,1.67,0,3.19.29,4.55.86,1.36.57,2.53,1.38,3.51,2.42s1.73,2.27,2.25,3.69c.53,1.42.79,2.99.79,4.69,0,1.58-.24,3.09-.72,4.53-.48,1.44-1.16,2.72-2.04,3.83-.88,1.11-1.96,2-3.23,2.67-1.27.67-2.71,1-4.32,1-1.46,0-2.81-.23-4.06-.67-1.25-.45-2.28-1.21-3.09-2.3h-.09v13h-6.96v-33.15ZM61.34,352.02c0,1.7.49,3.08,1.46,4.13.98,1.05,2.35,1.58,4.11,1.58s3.13-.53,4.11-1.58,1.46-2.43,1.46-4.13-.49-3.08-1.46-4.13c-.98-1.05-2.35-1.58-4.11-1.58s-3.13.53-4.11,1.58c-.98,1.05-1.46,2.43-1.46,4.13Z"/>
      <path class="cls-1" d="M104.9,359.41c-1.11,1.42-2.52,2.52-4.23,3.3-1.7.77-3.47,1.16-5.29,1.16s-3.37-.28-4.9-.84c-1.53-.56-2.86-1.35-3.99-2.39-1.13-1.04-2.02-2.28-2.67-3.74-.65-1.45-.98-3.08-.98-4.88s.32-3.42.98-4.88c.65-1.46,1.54-2.7,2.67-3.74,1.13-1.04,2.46-1.83,3.99-2.39,1.53-.56,3.17-.84,4.9-.84,1.61,0,3.07.28,4.39.84,1.32.56,2.43,1.35,3.34,2.39.91,1.04,1.62,2.28,2.11,3.74.49,1.46.74,3.08.74,4.88v2.18h-16.16c.28,1.33.88,2.39,1.81,3.18.93.79,2.07,1.18,3.44,1.18,1.15,0,2.11-.25,2.9-.77.79-.51,1.48-1.17,2.07-1.97l4.88,3.58ZM99,349.47c.03-1.18-.36-2.18-1.16-3.02-.81-.84-1.84-1.25-3.11-1.25-.77,0-1.46.12-2.04.37-.59.25-1.09.57-1.51.95-.42.39-.74.84-.98,1.35-.23.51-.36,1.04-.4,1.6h9.19Z"/>
      <path class="cls-1" d="M125.47,348.03c-.34-.5-.82-.91-1.44-1.23-.62-.32-1.28-.49-2-.49-1.76,0-3.13.53-4.11,1.58-.98,1.05-1.46,2.43-1.46,4.13s.49,3.08,1.46,4.13,2.34,1.58,4.11,1.58c.77,0,1.44-.17,2-.51.56-.34,1.04-.74,1.44-1.21l4.6,4.83c-1.08,1.11-2.36,1.9-3.83,2.34-1.47.45-2.87.67-4.2.67-1.73,0-3.37-.28-4.9-.84-1.53-.56-2.86-1.35-3.99-2.39-1.13-1.04-2.02-2.28-2.67-3.74-.65-1.45-.98-3.08-.98-4.88s.32-3.42.98-4.88c.65-1.46,1.54-2.7,2.67-3.74,1.13-1.04,2.46-1.83,3.99-2.39,1.53-.56,3.17-.84,4.9-.84,1.33,0,2.73.22,4.2.67,1.47.45,2.75,1.23,3.83,2.34l-4.6,4.83Z"/>
      <path class="cls-1" d="M132.11,333.63c0-1.11.4-2.07,1.18-2.86.79-.79,1.74-1.18,2.86-1.18s2.07.39,2.86,1.18c.79.79,1.18,1.74,1.18,2.86s-.39,2.07-1.18,2.86c-.79.79-1.74,1.18-2.86,1.18s-2.07-.39-2.86-1.18c-.79-.79-1.18-1.74-1.18-2.86ZM132.66,340.74h6.97v22.57h-6.97v-22.57Z"/>
      <path class="cls-1" d="M158.81,360.47h-.09c-.77,1.21-1.8,2.07-3.09,2.6-1.29.53-2.64.79-4.06.79-1.05,0-2.07-.15-3.04-.44s-1.83-.74-2.58-1.32c-.74-.59-1.33-1.32-1.76-2.18-.43-.87-.65-1.87-.65-3.02,0-1.3.24-2.4.72-3.3.48-.9,1.13-1.64,1.95-2.23.82-.59,1.76-1.04,2.81-1.37,1.05-.33,2.14-.56,3.27-.72,1.13-.15,2.26-.25,3.39-.28,1.13-.03,2.17-.05,3.13-.05,0-1.24-.44-2.22-1.32-2.95-.88-.73-1.93-1.09-3.13-1.09-1.15,0-2.19.24-3.13.72-.94.48-1.79,1.14-2.53,1.97l-3.71-3.81c1.3-1.21,2.82-2.11,4.55-2.72,1.73-.6,3.53-.91,5.39-.91,2.04,0,3.72.25,5.04.77,1.32.51,2.37,1.26,3.16,2.25.79.99,1.34,2.21,1.65,3.65.31,1.44.46,3.1.46,4.99v11.47h-6.41v-2.83ZM157.09,353.42c-.53,0-1.18.02-1.97.07-.79.05-1.55.18-2.28.4-.73.22-1.35.54-1.86.97-.51.43-.77,1.04-.77,1.81,0,.83.36,1.46,1.07,1.86.71.4,1.45.6,2.23.6.68,0,1.34-.09,1.97-.28.63-.19,1.2-.45,1.69-.79.5-.34.89-.77,1.18-1.3.29-.53.44-1.15.44-1.86v-1.49h-1.72Z"/>
      <path class="cls-1" d="M169.67,328.2h6.97v35.1h-6.97v-35.1Z"/>
      <path class="cls-1" d="M212.53,338.46c-.59-.74-1.39-1.29-2.39-1.65-1.01-.36-1.96-.53-2.86-.53-.53,0-1.07.06-1.62.19-.56.12-1.08.32-1.58.58-.5.26-.9.61-1.21,1.04-.31.43-.46.96-.46,1.58,0,.99.37,1.75,1.11,2.28.74.53,1.68.97,2.81,1.35,1.13.37,2.34.74,3.65,1.11,1.3.37,2.51.9,3.65,1.58,1.13.68,2.07,1.59,2.81,2.74.74,1.15,1.11,2.68,1.11,4.6s-.34,3.42-1.02,4.78c-.68,1.36-1.6,2.49-2.76,3.39-1.16.9-2.51,1.56-4.04,2-1.53.43-3.15.65-4.85.65-2.14,0-4.12-.33-5.94-.98-1.83-.65-3.53-1.7-5.11-3.16l5.15-5.67c.74.99,1.68,1.76,2.81,2.3,1.13.54,2.3.81,3.51.81.59,0,1.18-.07,1.79-.21s1.15-.35,1.63-.63c.48-.28.87-.63,1.16-1.07.29-.43.44-.94.44-1.53,0-.99-.38-1.77-1.14-2.34-.76-.57-1.71-1.06-2.86-1.46-1.15-.4-2.38-.8-3.71-1.21-1.33-.4-2.57-.94-3.71-1.62-1.15-.68-2.1-1.58-2.86-2.69-.76-1.11-1.14-2.58-1.14-4.41s.35-3.31,1.04-4.64c.7-1.33,1.62-2.45,2.79-3.34,1.16-.9,2.5-1.57,4.02-2.02,1.52-.45,3.08-.67,4.69-.67,1.86,0,3.65.26,5.39.79,1.73.53,3.3,1.41,4.69,2.65l-4.97,5.43Z"/>
      <path class="cls-1" d="M221.58,333.63c0-1.11.4-2.07,1.18-2.86.79-.79,1.74-1.18,2.86-1.18s2.07.39,2.86,1.18c.79.79,1.18,1.74,1.18,2.86s-.39,2.07-1.18,2.86c-.79.79-1.74,1.18-2.86,1.18s-2.07-.39-2.86-1.18c-.79-.79-1.18-1.74-1.18-2.86ZM222.14,340.74h6.97v22.57h-6.97v-22.57Z"/>
      <path class="cls-1" d="M249.49,346.31h-6.13v7.52c0,.62.03,1.18.09,1.7.06.51.2.95.42,1.32.22.37.55.66,1,.86.45.2,1.04.3,1.79.3.37,0,.86-.04,1.46-.12s1.06-.26,1.37-.53v5.8c-.77.28-1.58.46-2.41.56-.84.09-1.66.14-2.46.14-1.18,0-2.26-.12-3.25-.37-.99-.25-1.86-.64-2.6-1.18-.74-.54-1.32-1.25-1.74-2.11-.42-.87-.63-1.92-.63-3.16v-10.73h-4.46v-5.57h4.46v-6.69h6.96v6.69h6.13v5.57Z"/>
      <path class="cls-1" d="M274.75,363.31h-6.69v-3.06h-.09c-.25.43-.56.87-.95,1.3-.39.43-.86.82-1.42,1.16-.56.34-1.19.62-1.9.84-.71.22-1.49.33-2.32.33-1.76,0-3.2-.27-4.3-.81-1.1-.54-1.95-1.29-2.55-2.25-.6-.96-1.01-2.09-1.21-3.39-.2-1.3-.3-2.71-.3-4.23v-12.44h6.97v11.05c0,.65.02,1.32.07,2.02.05.7.19,1.34.42,1.93.23.59.59,1.07,1.07,1.44.48.37,1.17.56,2.07.56s1.63-.16,2.18-.49.98-.76,1.28-1.3c.29-.54.49-1.15.58-1.83.09-.68.14-1.39.14-2.14v-11.24h6.97v22.57Z"/>
      <path class="cls-1" d="M293.84,360.47h-.09c-.77,1.21-1.8,2.07-3.09,2.6-1.29.53-2.64.79-4.06.79-1.05,0-2.07-.15-3.04-.44s-1.83-.74-2.58-1.32c-.74-.59-1.33-1.32-1.76-2.18-.43-.87-.65-1.87-.65-3.02,0-1.3.24-2.4.72-3.3.48-.9,1.13-1.64,1.95-2.23.82-.59,1.76-1.04,2.81-1.37,1.05-.33,2.14-.56,3.27-.72,1.13-.15,2.26-.25,3.39-.28,1.13-.03,2.17-.05,3.13-.05,0-1.24-.44-2.22-1.32-2.95-.88-.73-1.93-1.09-3.13-1.09-1.15,0-2.19.24-3.13.72-.94.48-1.79,1.14-2.53,1.97l-3.71-3.81c1.3-1.21,2.82-2.11,4.55-2.72,1.73-.6,3.53-.91,5.39-.91,2.04,0,3.72.25,5.04.77,1.32.51,2.37,1.26,3.16,2.25.79.99,1.34,2.21,1.65,3.65.31,1.44.46,3.1.46,4.99v11.47h-6.41v-2.83ZM292.12,353.42c-.53,0-1.18.02-1.97.07-.79.05-1.55.18-2.28.4-.73.22-1.35.54-1.86.97-.51.43-.77,1.04-.77,1.81,0,.83.36,1.46,1.07,1.86.71.4,1.45.6,2.23.6.68,0,1.34-.09,1.97-.28.63-.19,1.2-.45,1.69-.79.5-.34.89-.77,1.18-1.3.29-.53.44-1.15.44-1.86v-1.49h-1.72Z"/>
      <path class="cls-1" d="M319.98,346.31h-6.13v7.52c0,.62.03,1.18.09,1.7.06.51.2.95.42,1.32.22.37.55.66,1,.86.45.2,1.04.3,1.79.3.37,0,.86-.04,1.46-.12s1.06-.26,1.37-.53v5.8c-.77.28-1.58.46-2.41.56-.84.09-1.66.14-2.46.14-1.18,0-2.26-.12-3.25-.37-.99-.25-1.86-.64-2.6-1.18-.74-.54-1.32-1.25-1.74-2.11-.42-.87-.63-1.92-.63-3.16v-10.73h-4.46v-5.57h4.46v-6.69h6.96v6.69h6.13v5.57Z"/>
      <path class="cls-1" d="M323.04,333.63c0-1.11.4-2.07,1.18-2.86.79-.79,1.74-1.18,2.86-1.18s2.07.39,2.86,1.18c.79.79,1.18,1.74,1.18,2.86s-.39,2.07-1.18,2.86c-.79.79-1.74,1.18-2.86,1.18s-2.07-.39-2.86-1.18c-.79-.79-1.18-1.74-1.18-2.86ZM323.6,340.74h6.97v22.57h-6.97v-22.57Z"/>
      <path class="cls-1" d="M334.74,352.02c0-1.79.33-3.42.98-4.88.65-1.46,1.54-2.7,2.67-3.74,1.13-1.04,2.46-1.83,3.99-2.39,1.53-.56,3.16-.84,4.9-.84s3.37.28,4.9.84c1.53.56,2.86,1.35,3.99,2.39,1.13,1.04,2.02,2.28,2.67,3.74.65,1.46.98,3.08.98,4.88s-.33,3.42-.98,4.88c-.65,1.46-1.54,2.7-2.67,3.74-1.13,1.04-2.46,1.83-3.99,2.39-1.53.56-3.17.84-4.9.84s-3.37-.28-4.9-.84c-1.53-.56-2.86-1.35-3.99-2.39-1.13-1.04-2.02-2.28-2.67-3.74-.65-1.45-.98-3.08-.98-4.88ZM341.71,352.02c0,1.7.49,3.08,1.46,4.13s2.34,1.58,4.11,1.58,3.13-.53,4.11-1.58,1.46-2.43,1.46-4.13-.49-3.08-1.46-4.13c-.98-1.05-2.35-1.58-4.11-1.58s-3.13.53-4.11,1.58c-.98,1.05-1.46,2.43-1.46,4.13Z"/>
      <path class="cls-1" d="M363.9,340.74h6.69v3.07h.09c.22-.43.53-.87.93-1.3.4-.43.88-.82,1.44-1.16s1.19-.62,1.9-.84c.71-.22,1.49-.33,2.32-.33,1.76,0,3.19.27,4.27.81,1.08.54,1.93,1.29,2.53,2.25.6.96,1.01,2.09,1.23,3.39.22,1.3.33,2.71.33,4.23v12.44h-6.97v-11.05c0-.65-.02-1.32-.07-2.02-.05-.7-.19-1.34-.42-1.93-.23-.59-.59-1.07-1.07-1.44-.48-.37-1.17-.56-2.07-.56s-1.62.16-2.18.49c-.56.33-.98.76-1.28,1.3-.29.54-.49,1.15-.58,1.83-.09.68-.14,1.39-.14,2.14v11.24h-6.97v-22.57Z"/>
      <path class="cls-1" d="M403.32,347.38c-1.02-1.27-2.37-1.9-4.04-1.9-.59,0-1.16.14-1.72.42-.56.28-.84.76-.84,1.44,0,.56.29.97.86,1.23.57.26,1.3.5,2.18.7s1.83.42,2.83.65c1.01.23,1.95.6,2.83,1.09.88.5,1.61,1.17,2.18,2.02.57.85.86,1.99.86,3.41s-.32,2.65-.95,3.6-1.45,1.7-2.44,2.28c-.99.57-2.1.97-3.34,1.21-1.24.23-2.46.35-3.67.35-1.58,0-3.17-.23-4.78-.67-1.61-.45-2.97-1.25-4.09-2.39l4.23-4.69c.65.81,1.37,1.42,2.16,1.83.79.42,1.71.63,2.76.63.8,0,1.53-.12,2.18-.35.65-.23.98-.66.98-1.28s-.29-1.03-.86-1.32c-.57-.29-1.3-.54-2.18-.74s-1.83-.42-2.83-.65c-1.01-.23-1.95-.58-2.83-1.04-.88-.46-1.61-1.12-2.18-1.97-.57-.85-.86-1.99-.86-3.41,0-1.33.27-2.48.81-3.44.54-.96,1.25-1.75,2.14-2.37.88-.62,1.9-1.08,3.04-1.37,1.15-.29,2.31-.44,3.48-.44,1.49,0,2.99.22,4.5.65,1.52.43,2.8,1.21,3.85,2.32l-4.27,4.23Z"/>
      <path class="cls-1" d="M431.42,328.48v46.43h-5.85v-46.43h5.85Z"/>
      <path class="cls-1" d="M451.01,330.43h7.24v26.19h13.42v6.69h-20.66v-32.88Z"/>
      <path class="cls-1" d="M496.14,359.41c-1.11,1.42-2.52,2.52-4.22,3.3-1.7.77-3.47,1.16-5.29,1.16s-3.37-.28-4.9-.84c-1.53-.56-2.86-1.35-3.99-2.39s-2.02-2.28-2.67-3.74c-.65-1.45-.97-3.08-.97-4.88s.33-3.42.97-4.88c.65-1.46,1.54-2.7,2.67-3.74,1.13-1.04,2.46-1.83,3.99-2.39,1.53-.56,3.16-.84,4.9-.84,1.61,0,3.07.28,4.39.84,1.32.56,2.43,1.35,3.34,2.39.91,1.04,1.62,2.28,2.11,3.74s.74,3.08.74,4.88v2.18h-16.16c.28,1.33.88,2.39,1.81,3.18.93.79,2.07,1.18,3.44,1.18,1.14,0,2.11-.25,2.9-.77.79-.51,1.48-1.17,2.07-1.97l4.88,3.58ZM490.25,349.47c.03-1.18-.36-2.18-1.16-3.02-.81-.84-1.84-1.25-3.11-1.25-.77,0-1.46.12-2.04.37-.59.25-1.09.57-1.51.95-.42.39-.74.84-.98,1.35-.23.51-.36,1.04-.39,1.6h9.19Z"/>
      <path class="cls-1" d="M515.6,360.47h-.09c-.77,1.21-1.8,2.07-3.09,2.6-1.28.53-2.64.79-4.06.79-1.05,0-2.07-.15-3.04-.44-.97-.29-1.83-.74-2.58-1.32-.74-.59-1.33-1.32-1.76-2.18-.43-.87-.65-1.87-.65-3.02,0-1.3.24-2.4.72-3.3.48-.9,1.13-1.64,1.95-2.23.82-.59,1.76-1.04,2.81-1.37,1.05-.33,2.14-.56,3.27-.72,1.13-.15,2.26-.25,3.39-.28,1.13-.03,2.17-.05,3.13-.05,0-1.24-.44-2.22-1.32-2.95-.88-.73-1.93-1.09-3.13-1.09s-2.19.24-3.13.72c-.94.48-1.79,1.14-2.53,1.97l-3.71-3.81c1.3-1.21,2.82-2.11,4.55-2.72,1.73-.6,3.53-.91,5.39-.91,2.04,0,3.72.25,5.04.77s2.37,1.26,3.16,2.25c.79.99,1.34,2.21,1.65,3.65.31,1.44.46,3.1.46,4.99v11.47h-6.41v-2.83ZM513.88,353.42c-.53,0-1.18.02-1.97.07-.79.05-1.55.18-2.28.4s-1.35.54-1.86.97c-.51.43-.77,1.04-.77,1.81,0,.83.36,1.46,1.07,1.86.71.4,1.45.6,2.23.6.68,0,1.34-.09,1.97-.28.63-.19,1.2-.45,1.69-.79.5-.34.89-.77,1.18-1.3.29-.53.44-1.15.44-1.86v-1.49h-1.72Z"/>
      <path class="cls-1" d="M539.14,347.38c-1.02-1.27-2.37-1.9-4.04-1.9-.59,0-1.16.14-1.72.42-.56.28-.84.76-.84,1.44,0,.56.29.97.86,1.23.57.26,1.3.5,2.18.7.88.2,1.83.42,2.83.65,1.01.23,1.95.6,2.83,1.09.88.5,1.61,1.17,2.18,2.02.57.85.86,1.99.86,3.41s-.32,2.65-.95,3.6c-.63.94-1.45,1.7-2.44,2.28-.99.57-2.11.97-3.34,1.21s-2.46.35-3.67.35c-1.58,0-3.17-.23-4.78-.67s-2.97-1.25-4.09-2.39l4.23-4.69c.65.81,1.37,1.42,2.16,1.83s1.71.63,2.76.63c.8,0,1.53-.12,2.18-.35.65-.23.98-.66.98-1.28s-.29-1.03-.86-1.32c-.57-.29-1.3-.54-2.18-.74-.88-.2-1.83-.42-2.83-.65-1.01-.23-1.95-.58-2.83-1.04-.88-.46-1.61-1.12-2.18-1.97s-.86-1.99-.86-3.41c0-1.33.27-2.48.81-3.44.54-.96,1.25-1.75,2.14-2.37.88-.62,1.9-1.08,3.04-1.37,1.14-.29,2.31-.44,3.48-.44,1.49,0,2.99.22,4.5.65,1.52.43,2.8,1.21,3.85,2.32l-4.27,4.23Z"/>
      <path class="cls-1" d="M569.23,359.41c-1.11,1.42-2.52,2.52-4.22,3.3-1.7.77-3.47,1.16-5.29,1.16s-3.37-.28-4.9-.84c-1.53-.56-2.86-1.35-3.99-2.39s-2.02-2.28-2.67-3.74c-.65-1.45-.97-3.08-.97-4.88s.33-3.42.97-4.88c.65-1.46,1.54-2.7,2.67-3.74,1.13-1.04,2.46-1.83,3.99-2.39,1.53-.56,3.16-.84,4.9-.84,1.61,0,3.07.28,4.39.84,1.32.56,2.43,1.35,3.34,2.39.91,1.04,1.62,2.28,2.11,3.74s.74,3.08.74,4.88v2.18h-16.16c.28,1.33.88,2.39,1.81,3.18.93.79,2.07,1.18,3.44,1.18,1.14,0,2.11-.25,2.9-.77.79-.51,1.48-1.17,2.07-1.97l4.88,3.58ZM563.33,349.47c.03-1.18-.36-2.18-1.16-3.02-.81-.84-1.84-1.25-3.11-1.25-.77,0-1.46.12-2.04.37-.59.25-1.09.57-1.51.95-.42.39-.74.84-.98,1.35-.23.51-.36,1.04-.39,1.6h9.19Z"/>
      <path class="cls-1" d="M589.43,330.43h22.06v6.69h-14.81v6.69h13.7v6.69h-13.7v12.82h-7.24v-32.88Z"/>
      <path class="cls-1" d="M615.34,333.63c0-1.11.39-2.07,1.18-2.86.79-.79,1.74-1.18,2.86-1.18s2.07.39,2.86,1.18c.79.79,1.18,1.74,1.18,2.86s-.39,2.07-1.18,2.86c-.79.79-1.74,1.18-2.86,1.18s-2.07-.39-2.86-1.18c-.79-.79-1.18-1.74-1.18-2.86ZM615.89,340.74h6.96v22.57h-6.96v-22.57Z"/>
      <path class="cls-1" d="M627.87,340.74h6.69v3.07h.09c.22-.43.53-.87.93-1.3.4-.43.88-.82,1.44-1.16.56-.34,1.19-.62,1.9-.84.71-.22,1.49-.33,2.32-.33,1.76,0,3.19.27,4.27.81,1.08.54,1.93,1.29,2.53,2.25.6.96,1.01,2.09,1.23,3.39.22,1.3.33,2.71.33,4.23v12.44h-6.96v-11.05c0-.65-.02-1.32-.07-2.02-.05-.7-.19-1.34-.42-1.93-.23-.59-.59-1.07-1.07-1.44-.48-.37-1.17-.56-2.07-.56s-1.62.16-2.18.49c-.56.33-.98.76-1.28,1.3-.29.54-.49,1.15-.58,1.83-.09.68-.14,1.39-.14,2.14v11.24h-6.96v-22.57Z"/>
      <path class="cls-1" d="M668.69,360.47h-.09c-.77,1.21-1.8,2.07-3.09,2.6-1.28.53-2.64.79-4.06.79-1.05,0-2.07-.15-3.04-.44-.97-.29-1.83-.74-2.58-1.32-.74-.59-1.33-1.32-1.76-2.18-.43-.87-.65-1.87-.65-3.02,0-1.3.24-2.4.72-3.3.48-.9,1.13-1.64,1.95-2.23.82-.59,1.76-1.04,2.81-1.37,1.05-.33,2.14-.56,3.27-.72,1.13-.15,2.26-.25,3.39-.28,1.13-.03,2.17-.05,3.13-.05,0-1.24-.44-2.22-1.32-2.95-.88-.73-1.93-1.09-3.13-1.09s-2.19.24-3.13.72c-.94.48-1.79,1.14-2.53,1.97l-3.71-3.81c1.3-1.21,2.82-2.11,4.55-2.72,1.73-.6,3.53-.91,5.39-.91,2.04,0,3.72.25,5.04.77s2.37,1.26,3.16,2.25c.79.99,1.34,2.21,1.65,3.65.31,1.44.46,3.1.46,4.99v11.47h-6.41v-2.83ZM666.97,353.42c-.53,0-1.18.02-1.97.07-.79.05-1.55.18-2.28.4s-1.35.54-1.86.97c-.51.43-.77,1.04-.77,1.81,0,.83.36,1.46,1.07,1.86.71.4,1.45.6,2.23.6.68,0,1.34-.09,1.97-.28.63-.19,1.2-.45,1.69-.79.5-.34.89-.77,1.18-1.3.29-.53.44-1.15.44-1.86v-1.49h-1.72Z"/>
      <path class="cls-1" d="M679.46,340.74h6.69v3.07h.09c.22-.43.53-.87.93-1.3.4-.43.88-.82,1.44-1.16.56-.34,1.19-.62,1.9-.84.71-.22,1.49-.33,2.32-.33,1.76,0,3.19.27,4.27.81,1.08.54,1.93,1.29,2.53,2.25.6.96,1.01,2.09,1.23,3.39.22,1.3.33,2.71.33,4.23v12.44h-6.96v-11.05c0-.65-.02-1.32-.07-2.02-.05-.7-.19-1.34-.42-1.93-.23-.59-.59-1.07-1.07-1.44-.48-.37-1.17-.56-2.07-.56s-1.62.16-2.18.49c-.56.33-.98.76-1.28,1.3-.29.54-.49,1.15-.58,1.83-.09.68-.14,1.39-.14,2.14v11.24h-6.96v-22.57Z"/>
      <path class="cls-1" d="M721.39,348.03c-.34-.5-.82-.91-1.44-1.23-.62-.32-1.29-.49-2-.49-1.76,0-3.13.53-4.11,1.58-.98,1.05-1.46,2.43-1.46,4.13s.49,3.08,1.46,4.13c.97,1.05,2.34,1.58,4.11,1.58.77,0,1.44-.17,2-.51.56-.34,1.04-.74,1.44-1.21l4.6,4.83c-1.08,1.11-2.36,1.9-3.83,2.34-1.47.45-2.87.67-4.2.67-1.73,0-3.37-.28-4.9-.84-1.53-.56-2.86-1.35-3.99-2.39s-2.02-2.28-2.67-3.74c-.65-1.45-.97-3.08-.97-4.88s.33-3.42.97-4.88c.65-1.46,1.54-2.7,2.67-3.74,1.13-1.04,2.46-1.83,3.99-2.39,1.53-.56,3.16-.84,4.9-.84,1.33,0,2.73.22,4.2.67,1.47.45,2.75,1.23,3.83,2.34l-4.6,4.83Z"/>
      <path class="cls-1" d="M728.03,333.63c0-1.11.39-2.07,1.18-2.86.79-.79,1.74-1.18,2.86-1.18s2.07.39,2.86,1.18c.79.79,1.18,1.74,1.18,2.86s-.39,2.07-1.18,2.86c-.79.79-1.74,1.18-2.86,1.18s-2.07-.39-2.86-1.18c-.79-.79-1.18-1.74-1.18-2.86ZM728.59,340.74h6.96v22.57h-6.96v-22.57Z"/>
      <path class="cls-1" d="M740.57,340.74h6.69v3.07h.09c.22-.43.53-.87.93-1.3.4-.43.88-.82,1.44-1.16.56-.34,1.19-.62,1.9-.84.71-.22,1.49-.33,2.32-.33,1.76,0,3.19.27,4.27.81,1.08.54,1.93,1.29,2.53,2.25.6.96,1.01,2.09,1.23,3.39.22,1.3.33,2.71.33,4.23v12.44h-6.96v-11.05c0-.65-.02-1.32-.07-2.02-.05-.7-.19-1.34-.42-1.93-.23-.59-.59-1.07-1.07-1.44-.48-.37-1.17-.56-2.07-.56s-1.62.16-2.18.49c-.56.33-.98.76-1.28,1.3-.29.54-.49,1.15-.58,1.83-.09.68-.14,1.39-.14,2.14v11.24h-6.96v-22.57Z"/>
      <path class="cls-1" d="M790.9,361.4c0,4.27-1.08,7.51-3.23,9.73-2.15,2.21-5.43,3.32-9.82,3.32-2.01,0-3.99-.23-5.94-.67-1.95-.45-3.75-1.32-5.39-2.62l3.85-5.76c1.08.9,2.22,1.61,3.41,2.14s2.5.79,3.92.79c2.14,0,3.71-.52,4.71-1.56s1.51-2.36,1.51-3.97v-2.18h-.09c-.8,1.08-1.8,1.85-2.99,2.3-1.19.45-2.31.67-3.37.67-1.67,0-3.19-.29-4.55-.86-1.36-.57-2.53-1.38-3.51-2.42-.98-1.04-1.73-2.27-2.25-3.69-.53-1.42-.79-2.99-.79-4.69,0-1.49.24-2.94.72-4.37.48-1.42,1.16-2.68,2.04-3.76.88-1.08,1.96-1.96,3.23-2.62,1.27-.67,2.71-1,4.32-1,.99,0,1.9.11,2.72.33.82.22,1.55.5,2.21.84s1.21.72,1.67,1.14c.46.42.84.83,1.11,1.23h.09v-2.97h6.41v20.66ZM773.35,351.88c0,.74.14,1.45.42,2.11.28.67.67,1.25,1.18,1.76s1.1.92,1.76,1.23c.67.31,1.4.46,2.21.46s1.5-.15,2.18-.46c.68-.31,1.28-.72,1.79-1.23s.91-1.1,1.18-1.76c.28-.67.42-1.37.42-2.11s-.14-1.45-.42-2.11c-.28-.67-.67-1.25-1.18-1.76s-1.11-.92-1.79-1.23c-.68-.31-1.41-.46-2.18-.46s-1.54.16-2.21.46c-.67.31-1.25.72-1.76,1.23s-.91,1.1-1.18,1.76c-.28.67-.42,1.37-.42,2.11Z"/>
      <path class="cls-1" d="M815.84,328.48v46.43h-5.85v-46.43h5.85Z"/>
    </g>
    <path class="cls-1" d="M310.01,38.54c-1.63-2.07-3.86-3.6-6.67-4.6-2.8-1-5.46-1.51-7.97-1.51-1.48,0-2.98.18-4.53.53-1.57.33-3.04.88-4.41,1.61-1.39.74-2.51,1.7-3.38,2.91-.86,1.2-1.3,2.67-1.3,4.4,0,2.77,1.03,4.88,3.1,6.35,2.08,1.47,4.69,2.73,7.85,3.76,3.15,1.03,6.54,2.08,10.17,3.12s7.02,2.5,10.18,4.42c3.15,1.9,5.76,4.46,7.84,7.65s3.1,7.47,3.09,12.83c0,5.1-.95,9.54-2.86,13.35-1.91,3.8-4.47,6.95-7.72,9.46-3.25,2.49-7.01,4.36-11.28,5.55-4.28,1.22-8.8,1.81-13.55,1.8-5.96,0-11.5-.92-16.59-2.73-5.1-1.81-9.84-4.75-14.25-8.83l14.4-15.8c2.08,2.77,4.68,4.91,7.85,6.43,3.15,1.51,6.41,2.27,9.78,2.27,1.65,0,3.3-.19,4.99-.58,1.69-.38,3.2-.96,4.55-1.73,1.33-.78,2.41-1.77,3.23-2.98.82-1.22,1.24-2.64,1.24-4.29,0-2.76-1.05-4.93-3.17-6.53-2.11-1.61-4.77-2.98-7.96-4.09-3.2-1.13-6.66-2.25-10.37-3.39-3.71-1.12-7.17-2.63-10.36-4.54-3.2-1.9-5.85-4.41-7.97-7.51-2.11-3.12-3.17-7.22-3.17-12.33,0-4.93.99-9.24,2.94-12.97,1.94-3.71,4.54-6.81,7.78-9.31,3.26-2.51,6.99-4.38,11.23-5.63,4.23-1.25,8.6-1.87,13.08-1.86,5.2,0,10.2.75,15.05,2.21,4.83,1.48,9.2,3.95,13.08,7.4l-13.89,15.15Z"/>
    <path class="cls-1" d="M331.65,44.9l19.44.02-.05,63-19.44-.02.05-63ZM330.12,25.08c0-3.12,1.1-5.76,3.3-7.98,2.21-2.19,4.87-3.29,7.98-3.29s5.77,1.11,7.97,3.31c2.2,2.21,3.3,4.86,3.3,7.98,0,3.12-1.11,5.77-3.32,7.97-2.21,2.21-4.86,3.3-7.97,3.29-3.12,0-5.76-1.1-7.97-3.3-2.2-2.21-3.3-4.87-3.29-7.98"/>
    <path class="cls-1" d="M359.92,44.93l18.67.02v8.55s.24,0,.24,0c.61-1.21,1.48-2.41,2.6-3.62,1.13-1.21,2.46-2.29,4.02-3.24,1.56-.95,3.32-1.72,5.31-2.33,2-.61,4.16-.9,6.49-.9,4.4,0,8.31.92,11.72,2.73,3.42,1.82,5.98,4.67,7.71,8.56,2.25-4.06,4.97-6.95,8.17-8.68,3.2-1.72,7.13-2.59,11.8-2.59,4.23,0,7.79.72,10.69,2.15,2.89,1.42,5.18,3.38,6.87,5.83,1.68,2.48,2.88,5.36,3.62,8.69.73,3.33,1.1,6.9,1.1,10.69l-.03,37.2-19.44-.02.03-36.68c0-2.94-.62-5.47-1.87-7.58-1.25-2.12-3.48-3.18-6.68-3.18-2.25,0-4.13.37-5.64,1.1-1.51.73-2.72,1.75-3.63,3.04-.9,1.3-1.56,2.8-1.95,4.54-.38,1.72-.59,3.53-.59,5.44l-.02,33.3-19.45-.02.03-33.31c0-1.11-.04-2.5-.12-4.14-.09-1.65-.39-3.2-.9-4.67-.53-1.47-1.36-2.73-2.52-3.76-1.17-1.03-2.88-1.55-5.13-1.55-2.51,0-4.53.45-6.09,1.35-1.55.91-2.75,2.11-3.57,3.62s-1.37,3.22-1.62,5.13c-.26,1.9-.4,3.88-.4,5.95l-.03,31.37-19.45-.02.06-63Z"/>
    <path class="cls-1" d="M484.58,76.55c0,4.75,1.36,8.59,4.06,11.54,2.73,2.93,6.55,4.4,11.47,4.4,4.93,0,8.76-1.46,11.47-4.39,2.73-2.94,4.09-6.77,4.09-11.54,0-4.75-1.35-8.6-4.07-11.54-2.72-2.94-6.55-4.4-11.47-4.4-4.93,0-8.75,1.46-11.47,4.39-2.73,2.94-4.09,6.78-4.09,11.54M466.72,45.03l17.88.02v8.29s.26,0,.26,0c.78-1.11,1.79-2.27,3.05-3.43,1.25-1.17,2.73-2.23,4.41-3.17,1.69-.95,3.51-1.73,5.5-2.33,2-.61,4.11-.9,6.35-.9,4.66,0,8.9.8,12.7,2.4,3.81,1.62,7.06,3.86,9.78,6.76,2.72,2.89,4.81,6.33,6.28,10.31,1.46,3.98,2.19,8.34,2.19,13.09,0,4.42-.68,8.62-2.02,12.64-1.34,4.02-3.26,7.58-5.72,10.69-2.46,3.11-5.47,5.59-9.01,7.44-3.55,1.86-7.56,2.78-12.06,2.77-4.06,0-7.85-.63-11.35-1.88-3.49-1.26-6.37-3.4-8.61-6.43h-.26l-.03,36.3-19.44-.02.08-92.56Z"/>
  </g>
  <polygon class="cls-1" points="541.59 108.09 561.03 108.11 561.12 10.11 541.68 10.09 541.59 108.09"/>
  <path class="cls-1" d="M613.05,69.52c.09-3.28-.99-6.08-3.22-8.43-2.25-2.33-5.14-3.5-8.69-3.5-2.15,0-4.06.34-5.7,1.03-1.64.7-3.05,1.58-4.22,2.65-1.17,1.09-2.07,2.34-2.73,3.75-.64,1.43-1.01,2.94-1.1,4.47l25.66.02ZM629.49,97.28c-3.11,3.97-7.05,7.04-11.81,9.19-4.75,2.16-9.68,3.22-14.78,3.22-4.84,0-9.39-.77-13.67-2.34-4.26-1.55-7.99-3.78-11.14-6.68-3.15-2.9-5.63-6.39-7.44-10.44-1.81-4.06-2.72-8.61-2.72-13.61.02-5.01.92-9.56,2.74-13.61,1.82-4.06,4.3-7.54,7.46-10.43,3.16-2.9,6.88-5.13,11.16-6.67,4.28-1.56,8.84-2.32,13.67-2.32,4.49,0,8.58.78,12.26,2.35,3.67,1.55,6.77,3.78,9.31,6.68,2.55,2.9,4.51,6.38,5.9,10.44s2.07,8.6,2.07,13.6v6.1s-45.12-.03-45.12-.03c.78,3.71,2.46,6.67,5.05,8.86,2.59,2.21,5.79,3.33,9.58,3.33,3.2,0,5.91-.71,8.12-2.14,2.2-1.42,4.13-3.25,5.76-5.5l13.6,9.99Z"/>
  <polygon class="cls-1" points="632.69 9.9 632.69 13.33 637.43 13.33 637.42 25.88 641.3 25.88 641.32 13.34 646.17 13.34 646.18 9.92 632.69 9.9"/>
  <path class="cls-1" d="M648.9,25.89l.02-15.97h3.46l5.82,9.49-2.5-.03,5.9-9.45h3.34s-.02,15.98-.02,15.98h-3.77s0-4.98,0-4.98c0-1.36.03-2.6.11-3.69.06-1.1.19-2.18.35-3.27l.44,1.2-4.44,6.85h-1.5l-4.33-6.82.44-1.24c.16,1.02.29,2.07.35,3.14.08,1.07.1,2.35.1,3.82v4.97h-3.77Z"/>
  <g>
    <path class="cls-1" d="M324.13,176.25c-1.96-2.38-4.36-4.21-7.21-5.49-2.85-1.28-6.15-1.91-9.89-1.91s-7.21.72-10.4,2.17c-3.19,1.45-5.95,3.47-8.29,6.06-2.34,2.59-4.17,5.68-5.49,9.25-1.32,3.57-1.98,7.44-1.98,11.61s.66,8.15,1.98,11.67c1.32,3.53,3.13,6.59,5.42,9.19,2.3,2.6,5,4.62,8.1,6.06,3.1,1.45,6.44,2.17,10.02,2.17,4.08,0,7.7-.85,10.84-2.55,3.15-1.7,5.74-4.08,7.78-7.14l16.59,12.38c-3.83,5.36-8.68,9.31-14.54,11.87-5.87,2.55-11.91,3.83-18.12,3.83-7.06,0-13.57-1.11-19.52-3.32-5.95-2.21-11.1-5.38-15.44-9.5-4.34-4.12-7.72-9.12-10.14-14.99-2.42-5.87-3.64-12.42-3.64-19.65s1.21-13.78,3.64-19.65c2.42-5.87,5.81-10.86,10.14-14.99,4.34-4.12,9.48-7.29,15.44-9.5,5.95-2.21,12.46-3.32,19.52-3.32,2.55,0,5.21.24,7.97.7,2.76.47,5.49,1.21,8.17,2.23,2.68,1.02,5.25,2.38,7.72,4.08,2.47,1.7,4.68,3.79,6.63,6.25l-15.31,12.5Z"/>
    <path class="cls-1" d="M349.9,152.77h34.96c4.59,0,8.95.45,13.08,1.34,4.12.89,7.74,2.38,10.84,4.47,3.1,2.08,5.57,4.89,7.4,8.42,1.83,3.53,2.74,7.93,2.74,13.21,0,6.38-1.66,11.8-4.98,16.27-3.32,4.46-8.17,7.29-14.54,8.48l22.96,38.15h-23.86l-18.88-36.11h-9.82v36.11h-19.9v-90.33ZM369.81,190.15h11.74c1.79,0,3.68-.06,5.68-.19,2-.13,3.81-.51,5.42-1.15,1.61-.64,2.95-1.64,4.02-3,1.06-1.36,1.59-3.27,1.59-5.74,0-2.3-.47-4.12-1.4-5.49-.94-1.36-2.13-2.4-3.57-3.13-1.45-.72-3.11-1.21-4.98-1.47-1.87-.25-3.7-.38-5.49-.38h-13.01v20.54Z"/>
    <path class="cls-1" d="M430.92,152.77h61.37v18.37h-41.46v16.84h39.17v18.37h-39.17v18.37h43.76v18.37h-63.66v-90.33Z"/>
    <path class="cls-1" d="M508.1,152.77h29.85c7.23,0,14.1.81,20.6,2.42,6.51,1.62,12.18,4.23,17.03,7.85,4.85,3.62,8.7,8.31,11.55,14.1,2.85,5.79,4.27,12.8,4.27,21.05,0,7.32-1.38,13.76-4.15,19.33-2.76,5.57-6.49,10.25-11.16,14.03-4.68,3.79-10.08,6.66-16.2,8.61-6.12,1.96-12.55,2.93-19.26,2.93h-32.53v-90.33ZM528,224.73h10.33c4.59,0,8.87-.47,12.82-1.4,3.96-.93,7.38-2.49,10.27-4.66,2.89-2.17,5.17-5.02,6.83-8.55,1.66-3.53,2.49-7.85,2.49-12.95,0-4.42-.83-8.27-2.49-11.55-1.66-3.27-3.89-5.97-6.7-8.1-2.81-2.12-6.1-3.72-9.89-4.78-3.79-1.06-7.76-1.59-11.93-1.59h-11.74v53.58Z"/>
    <path class="cls-1" d="M602.26,152.77h19.9v90.33h-19.9v-90.33Z"/>
    <path class="cls-1" d="M655.33,170.38h-25.77v-17.61h71.45v17.61h-25.77v72.72h-19.9v-72.72Z"/>
  </g>
  <g>
    <path class="cls-1" d="M226.04,79.04l-45.16,25.6-.12.12c.57.32.82.89.82,1.51h.06v73.85l-6.67,3.77-33.84,19.13-10.76,6.1-.06,30.38c0,2.77,2.96,4.47,5.34,3.15l93.85-53.28c1.13-.69,1.89-1.89,1.89-3.15v-9.12l.06-94.92c0-2.77-3.02-4.53-5.41-3.15M119.23,176.6c0,1.01-1.07,1.64-1.95,1.13l-33.53-19.13c-.44-.19-.63-.62-.63-1.13v-37.18c0-1,1.07-1.63,1.95-1.13l33.53,19.12c.38.26.63.69.63,1.13v37.17ZM126.4,132.32l-48.62-27.74-45.1-25.72c-2.45-1.32-5.41.37-5.41,3.15l-.06,56.86v47.18c0,1.32.63,2.52,1.83,3.15l93.72,53.4c2.39,1.38,5.41-.32,5.41-3.08l.06-56.3v-47.74c0-1.26-.69-2.45-1.83-3.15"/>
    <path class="cls-1" d="M226.04,70.05L131.25,14.7c-1.13-.69-2.52-.69-3.65,0l-94.92,55.17c-2.39,1.44-2.39,4.9,0,6.28l46.99,26.74c.12-.26.25-.32.37-.38l48.31-27.24c.62-.38,1.44-.38,1.95,0l48.12,28.05.06-.06,47.55-26.98c2.39-1.33,2.39-4.85,0-6.23"/>
  </g>
</svg>