<svg width="180" height="83" viewBox="0 0 180 83" fill="none" xmlns="http://www.w3.org/2000/svg">
<path d="M176.996 70.173H175.482V67.6809C175.482 67.0395 175.255 66.7188 174.802 66.7188C174.545 66.7188 174.346 66.8135 174.206 67.0029C174.065 67.1922 173.995 67.4243 173.995 67.6992V70.173H172.48V65.6102H173.94V66.2424H173.958C174.068 66.0286 174.246 65.8484 174.49 65.7018C174.741 65.5552 175.02 65.4819 175.326 65.4819C175.895 65.4819 176.314 65.6652 176.583 66.0317C176.859 66.392 176.996 66.8318 176.996 67.351V70.173Z" fill="#232156"/>
<path d="M170.793 66.1233C171.282 66.5631 171.527 67.1464 171.527 67.8733C171.527 68.6001 171.282 69.1896 170.793 69.6416C170.303 70.0936 169.7 70.3196 168.984 70.3196C168.274 70.3196 167.675 70.0936 167.185 69.6416C166.695 69.1896 166.451 68.6001 166.451 67.8733C166.451 67.1464 166.695 66.5631 167.185 66.1233C167.675 65.6835 168.274 65.4636 168.984 65.4636C169.7 65.4636 170.303 65.6835 170.793 66.1233ZM170.077 67.8733C170.077 67.5618 169.979 67.2899 169.783 67.0578C169.587 66.8257 169.321 66.7097 168.984 66.7097C168.648 66.7097 168.384 66.8257 168.195 67.0578C168.005 67.2838 167.91 67.5556 167.91 67.8733C167.91 68.1909 168.005 68.4688 168.195 68.707C168.391 68.9391 168.657 69.0552 168.993 69.0552C169.33 69.0552 169.593 68.9391 169.783 68.707C169.979 68.4688 170.077 68.1909 170.077 67.8733Z" fill="#232156"/>
<path d="M165.598 64.1535C165.598 64.3856 165.512 64.581 165.341 64.7398C165.176 64.8986 164.974 64.978 164.735 64.978C164.496 64.978 164.291 64.8986 164.12 64.7398C163.955 64.5749 163.872 64.3795 163.872 64.1535C163.872 63.9336 163.955 63.7412 164.12 63.5762C164.291 63.4113 164.496 63.3289 164.735 63.3289C164.974 63.3289 165.176 63.4113 165.341 63.5762C165.512 63.735 165.598 63.9275 165.598 64.1535ZM165.488 70.173H163.982V65.6102H165.488V70.173Z" fill="#232156"/>
<path d="M163.257 66.7371H162.183V68.4779C162.183 68.6978 162.225 68.8597 162.311 68.9635C162.397 69.0673 162.544 69.1193 162.752 69.1193C162.929 69.1193 163.076 69.0948 163.192 69.046L163.211 70.1454C162.96 70.237 162.669 70.2829 162.339 70.2829C161.757 70.2829 161.341 70.1424 161.09 69.8614C160.839 69.5804 160.714 69.1803 160.714 68.6612V66.7371H159.979V65.6102H160.705V64.4099H162.183V65.6102H163.257V66.7371Z" fill="#232156"/>
<path d="M158.138 68.3405V68.1848H157.945C157.009 68.1848 156.54 68.3925 156.54 68.8078C156.54 68.9666 156.605 69.0857 156.733 69.1651C156.862 69.2384 157.015 69.2751 157.192 69.2751C157.492 69.2751 157.725 69.1926 157.89 69.0277C158.055 68.8567 158.138 68.6276 158.138 68.3405ZM156.136 67.0487L155.375 66.2332C155.919 65.7202 156.599 65.4636 157.412 65.4636C158.165 65.4636 158.704 65.656 159.028 66.0408C159.352 66.4195 159.515 67.0304 159.515 67.8733V70.173H158.138V69.6874H158.11C158 69.8706 157.826 70.0172 157.587 70.1272C157.348 70.231 157.091 70.2829 156.816 70.2829C156.547 70.2829 156.293 70.2432 156.054 70.1638C155.821 70.0783 155.613 69.9225 155.43 69.6965C155.246 69.4705 155.154 69.1896 155.154 68.8536C155.154 67.8275 156.133 67.3144 158.092 67.3144V67.2411C158.092 67.0273 158.015 66.8654 157.862 66.7555C157.709 66.6394 157.51 66.5814 157.266 66.5814C156.849 66.5814 156.473 66.7372 156.136 67.0487Z" fill="#232156"/>
<path d="M154.972 65.5186L154.908 66.8379C154.791 66.8074 154.663 66.7921 154.522 66.7921C154.161 66.7921 153.892 66.9051 153.714 67.1311C153.537 67.351 153.448 67.5831 153.448 67.8274V70.173H151.943V65.6102H153.393V66.2699H153.411C153.528 66.0317 153.696 65.8423 153.916 65.7018C154.137 65.5552 154.381 65.4819 154.651 65.4819C154.797 65.4819 154.905 65.4942 154.972 65.5186Z" fill="#232156"/>
<path d="M151.235 66.7371H150.161V68.4779C150.161 68.6978 150.204 68.8597 150.29 68.9635C150.376 69.0673 150.522 69.1193 150.73 69.1193C150.908 69.1193 151.055 69.0948 151.171 69.046L151.189 70.1454C150.939 70.237 150.648 70.2829 150.317 70.2829C149.736 70.2829 149.32 70.1424 149.069 69.8614C148.818 69.5804 148.693 69.1803 148.693 68.6612V66.7371H147.958V65.6102H148.683V64.4099H150.161V65.6102H151.235V66.7371Z" fill="#232156"/>
<path d="M147.713 66.105L146.887 66.9571C146.599 66.6822 146.281 66.5448 145.932 66.5448C145.773 66.5448 145.639 66.5753 145.528 66.6364C145.418 66.6975 145.363 66.7891 145.363 66.9112C145.363 67.0334 145.421 67.122 145.538 67.1769C145.654 67.2319 145.874 67.2961 146.199 67.3694C147.172 67.5892 147.658 68.0535 147.658 68.762C147.658 69.2934 147.465 69.6874 147.08 69.9439C146.7 70.1944 146.241 70.3196 145.703 70.3196C145.323 70.3196 144.953 70.2585 144.592 70.1363C144.237 70.0142 143.943 69.8401 143.711 69.6141L144.555 68.7254C144.868 69.0674 145.241 69.2384 145.675 69.2384C145.822 69.2384 145.948 69.2079 146.052 69.1468C146.162 69.0796 146.217 68.9788 146.217 68.8445C146.217 68.7101 146.15 68.6093 146.015 68.5421C145.886 68.4749 145.651 68.4016 145.308 68.3222C144.421 68.1145 143.977 67.6717 143.977 66.9937C143.977 66.4928 144.17 66.1141 144.555 65.8576C144.941 65.5949 145.382 65.4636 145.877 65.4636C146.642 65.4636 147.254 65.6774 147.713 66.105Z" fill="#232156"/>
<path d="M139.941 67.3694H141.878C141.878 67.1189 141.798 66.9112 141.639 66.7463C141.486 66.5814 141.266 66.4989 140.978 66.4989C140.697 66.4989 140.458 66.5845 140.262 66.7555C140.066 66.9265 139.959 67.1311 139.941 67.3694ZM143.264 67.9466C143.264 68.1115 143.261 68.2306 143.255 68.3039H139.941C139.965 68.5482 140.085 68.7528 140.299 68.9178C140.513 69.0827 140.758 69.1651 141.033 69.1651C141.474 69.1651 141.811 69.0063 142.043 68.6887L143.09 69.3484C142.643 69.9958 141.951 70.3196 141.015 70.3196C140.299 70.3196 139.699 70.1058 139.216 69.6782C138.738 69.2445 138.5 68.6551 138.5 67.9099C138.5 67.1769 138.732 66.5875 139.197 66.1416C139.669 65.6896 140.259 65.4636 140.969 65.4636C141.654 65.4636 142.208 65.6866 142.631 66.1325C143.053 66.5722 143.264 67.1769 143.264 67.9466Z" fill="#232156"/>
<path d="M137.589 70.1729H136.075V67.6991C136.075 67.0578 135.851 66.7371 135.404 66.7371C135.154 66.7371 134.955 66.8287 134.808 67.012C134.661 67.1952 134.587 67.4273 134.587 67.7083V70.1729H133.082V63.2463H134.587V66.1874H134.606C134.716 65.9919 134.887 65.827 135.12 65.6926C135.352 65.5521 135.619 65.4819 135.919 65.4819C136.494 65.4819 136.916 65.6651 137.185 66.0316C137.455 66.392 137.589 66.8318 137.589 67.351V70.1729Z" fill="#232156"/>
<path d="M132.468 66.0775L131.596 67.0853C131.516 66.9754 131.4 66.8868 131.247 66.8196C131.1 66.7524 130.95 66.7188 130.797 66.7188C130.485 66.7188 130.231 66.8349 130.035 67.067C129.839 67.293 129.741 67.5679 129.741 67.8916C129.741 68.2153 129.839 68.4902 130.035 68.7162C130.231 68.9422 130.491 69.0552 130.815 69.0552C131.17 69.0552 131.443 68.9422 131.632 68.7162L132.468 69.7332C132.064 70.1241 131.501 70.3196 130.779 70.3196C130.038 70.3196 129.426 70.0997 128.943 69.6599C128.459 69.2201 128.218 68.6307 128.218 67.8916C128.218 67.1647 128.459 66.5784 128.943 66.1325C129.432 65.6866 130.041 65.4636 130.769 65.4636C131.094 65.4636 131.412 65.5216 131.724 65.6377C132.042 65.7476 132.29 65.8942 132.468 66.0775Z" fill="#232156"/>
<path d="M127.998 65.5186L127.934 66.8379C127.818 66.8074 127.689 66.7921 127.548 66.7921C127.187 66.7921 126.918 66.9051 126.741 67.1311C126.563 67.351 126.474 67.5831 126.474 67.8274V70.173H124.969V65.6102H126.419V66.2699H126.438C126.554 66.0317 126.722 65.8423 126.943 65.7018C127.163 65.5552 127.408 65.4819 127.677 65.4819C127.824 65.4819 127.931 65.4942 127.998 65.5186Z" fill="#232156"/>
<path d="M124.018 66.9021C124.018 67.9221 123.685 68.7528 123.018 69.3942C122.35 70.0294 121.503 70.3471 120.475 70.3471C119.453 70.3471 118.608 70.0294 117.941 69.3942C117.274 68.7528 116.941 67.9221 116.941 66.9021C116.941 65.8759 117.271 65.0544 117.932 64.4375C118.599 63.8205 119.447 63.5121 120.475 63.5121C121.509 63.5121 122.357 63.8205 123.018 64.4375C123.685 65.0544 124.018 65.8759 124.018 66.9021ZM122.338 66.9021C122.338 66.3279 122.164 65.8545 121.815 65.4819C121.466 65.1094 121.019 64.9231 120.475 64.9231C119.93 64.9231 119.483 65.1094 119.135 65.4819C118.792 65.8545 118.621 66.3279 118.621 66.9021C118.621 67.4885 118.792 67.971 119.135 68.3497C119.483 68.7284 119.93 68.9178 120.475 68.9178C121.019 68.9178 121.466 68.7284 121.815 68.3497C122.164 67.971 122.338 67.4885 122.338 66.9021Z" fill="#232156"/>
<path d="M114.284 65.6102L112.237 70.8601C112.041 71.3732 111.793 71.7519 111.494 71.9963C111.194 72.2467 110.771 72.3719 110.227 72.3719C109.945 72.3719 109.67 72.3383 109.401 72.2711L109.566 71.0067C109.743 71.0617 109.906 71.0892 110.052 71.0892C110.273 71.0892 110.435 71.0403 110.539 70.9426C110.649 70.851 110.744 70.6952 110.824 70.4753L110.97 70.0997L109.061 65.6102H110.732L111.751 68.5421H111.778L112.687 65.6102H114.284Z" fill="#232156"/>
<path d="M105.401 67.3694H107.338C107.338 67.1189 107.258 66.9112 107.099 66.7463C106.946 66.5814 106.726 66.4989 106.438 66.4989C106.157 66.4989 105.918 66.5845 105.722 66.7555C105.527 66.9265 105.42 67.1311 105.401 67.3694ZM108.724 67.9466C108.724 68.1115 108.721 68.2306 108.715 68.3039H105.401C105.426 68.5482 105.545 68.7528 105.759 68.9178C105.973 69.0827 106.218 69.1651 106.494 69.1651C106.934 69.1651 107.271 69.0063 107.503 68.6887L108.55 69.3484C108.103 69.9958 107.411 70.3196 106.475 70.3196C105.759 70.3196 105.159 70.1058 104.676 69.6782C104.199 69.2445 103.96 68.6551 103.96 67.9099C103.96 67.1769 104.193 66.5875 104.658 66.1416C105.129 65.6896 105.719 65.4636 106.429 65.4636C107.115 65.4636 107.668 65.6866 108.091 66.1325C108.513 66.5722 108.724 67.1769 108.724 67.9466Z" fill="#232156"/>
<path d="M101.967 67.6717L103.802 70.1729H101.939L100.443 67.9832H100.415V70.1729H98.9006V63.2463H100.415V67.4609H100.443L101.902 65.6102H103.729L101.967 67.6717Z" fill="#232156"/>
<path d="M97.7514 70.173H96.2368V67.6809C96.2368 67.0395 96.0104 66.7188 95.5575 66.7188C95.3005 66.7188 95.1016 66.8135 94.9609 67.0029C94.8201 67.1922 94.7497 67.4243 94.7497 67.6992V70.173H93.2351V65.6102H94.6947V66.2424H94.713C94.8232 66.0286 95.0006 65.8484 95.2454 65.7018C95.4963 65.5552 95.7748 65.4819 96.0808 65.4819C96.6499 65.4819 97.0691 65.6652 97.3384 66.0317C97.6137 66.392 97.7514 66.8318 97.7514 67.351V70.173Z" fill="#232156"/>
<path d="M92.6247 65.5186L92.5604 66.8379C92.4442 66.8074 92.3157 66.7921 92.1749 66.7921C91.8138 66.7921 91.5446 66.9051 91.3671 67.1311C91.1896 67.351 91.1009 67.5831 91.1009 67.8274V70.173H89.5955V65.6102H91.0458V66.2699H91.0642C91.1805 66.0317 91.3487 65.8423 91.5691 65.7018C91.7894 65.5552 92.0342 65.4819 92.3034 65.4819C92.4503 65.4819 92.5574 65.4942 92.6247 65.5186Z" fill="#232156"/>
<path d="M88.418 70.173H86.9677V69.5408H86.9493C86.8392 69.7546 86.6586 69.9348 86.4077 70.0814C86.1568 70.228 85.8784 70.3013 85.5724 70.3013C85.0033 70.3013 84.5841 70.1211 84.3148 69.7607C84.0455 69.3942 83.9109 68.9514 83.9109 68.4322V65.6102H85.4255V68.084C85.4255 68.7315 85.6519 69.0552 86.1048 69.0552C86.3557 69.0552 86.5515 68.9605 86.6923 68.7712C86.8392 68.5818 86.9126 68.3497 86.9126 68.0748V65.6102H88.418V70.173Z" fill="#232156"/>
<path d="M84.1478 65.0238H82.3119V70.173H80.7422V65.0238H78.9062V63.6862H84.1478V65.0238Z" fill="#232156"/>
<path d="M76.2828 72.4636H75.0895L75.0803 63.3014H76.2828V72.4636Z" fill="#232156"/>
<path d="M71.6727 70.1729H70.2866V69.5774H70.2682C70.1214 69.8034 69.9102 69.9805 69.6349 70.1088C69.3656 70.2371 69.078 70.3012 68.772 70.3012C68.1111 70.3012 67.5817 70.066 67.1839 69.5957C66.7923 69.1193 66.5964 68.5451 66.5964 67.8732C66.5964 67.2136 66.7953 66.6516 67.1931 66.1874C67.5909 65.7171 68.1111 65.4819 68.7536 65.4819C69.335 65.4819 69.8001 65.6865 70.1489 66.0958H70.1673V63.2463H71.6727V70.1729ZM70.2315 67.8824C70.2315 67.577 70.1275 67.3052 69.9194 67.067C69.7175 66.8287 69.4543 66.7096 69.13 66.7096C68.7934 66.7096 68.5272 66.8257 68.3314 67.0578C68.1417 67.2838 68.0468 67.5556 68.0468 67.8732C68.0468 68.197 68.1417 68.4749 68.3314 68.707C68.5272 68.9391 68.7934 69.0551 69.13 69.0551C69.4543 69.0551 69.7175 68.9391 69.9194 68.707C70.1275 68.4688 70.2315 68.1939 70.2315 67.8824Z" fill="#232156"/>
<path d="M62.5694 67.3694H64.5062C64.5062 67.1189 64.4267 66.9112 64.2676 66.7463C64.1146 66.5814 63.8943 66.4989 63.6066 66.4989C63.3251 66.4989 63.0865 66.5845 62.8906 66.7555C62.6948 66.9265 62.5877 67.1311 62.5694 67.3694ZM65.8923 67.9466C65.8923 68.1115 65.8893 68.2306 65.8832 68.3039H62.5694C62.5938 68.5482 62.7132 68.7528 62.9274 68.9178C63.1415 69.0827 63.3863 69.1651 63.6617 69.1651C64.1023 69.1651 64.4389 69.0063 64.6715 68.6887L65.7179 69.3484C65.2712 69.9958 64.5797 70.3196 63.6434 70.3196C62.9274 70.3196 62.3276 70.1058 61.8442 69.6782C61.3668 69.2445 61.1282 68.6551 61.1282 67.9099C61.1282 67.1769 61.3607 66.5875 61.8258 66.1416C62.297 65.6896 62.8876 65.4636 63.5975 65.4636C64.2829 65.4636 64.8367 65.6866 65.259 66.1325C65.6812 66.5722 65.8923 67.1769 65.8923 67.9466Z" fill="#232156"/>
<path d="M60.1625 69.7423C60.1625 70.6097 59.9238 71.2633 59.4465 71.703C58.9691 72.1489 58.3113 72.3719 57.4729 72.3719C57.0628 72.3719 56.6436 72.3077 56.2153 72.1795C55.7869 72.0573 55.4228 71.8832 55.1229 71.6572L55.8756 70.5853C56.3162 70.9701 56.8211 71.1625 57.3902 71.1625C57.8186 71.1625 58.1399 71.0464 58.3541 70.8143C58.5744 70.5883 58.6846 70.2799 58.6846 69.8889V69.6141H58.657C58.3449 70.0172 57.8829 70.2188 57.2709 70.2188C56.6039 70.2188 56.0714 69.9928 55.6737 69.5408C55.282 69.0888 55.0862 68.5329 55.0862 67.8733C55.0862 67.2136 55.282 66.6516 55.6737 66.1874C56.0714 65.7171 56.6008 65.4819 57.2617 65.4819C57.9165 65.4819 58.403 65.7202 58.7213 66.1966H58.7396V65.6102H60.1625V69.7423ZM58.4275 68.6887C58.6295 68.4627 58.7305 68.1878 58.7305 67.8641C58.7305 67.5404 58.6264 67.2686 58.4183 67.0487C58.2164 66.8227 57.9502 66.7097 57.6197 66.7097C57.2893 66.7097 57.0261 66.8196 56.8303 67.0395C56.6406 67.2594 56.5457 67.5343 56.5457 67.8641C56.5457 68.1817 56.6436 68.4566 56.8395 68.6887C57.0353 68.9147 57.2954 69.0277 57.6197 69.0277C57.9563 69.0277 58.2256 68.9147 58.4275 68.6887Z" fill="#232156"/>
<path d="M52.8151 68.3405V68.1848H52.6224C51.686 68.1848 51.2179 68.3925 51.2179 68.8078C51.2179 68.9666 51.2821 69.0857 51.4107 69.1651C51.5392 69.2384 51.6922 69.2751 51.8696 69.2751C52.1695 69.2751 52.4021 69.1926 52.5673 69.0277C52.7325 68.8567 52.8151 68.6276 52.8151 68.3405ZM50.814 67.0487L50.0521 66.2332C50.5967 65.7202 51.276 65.4636 52.0899 65.4636C52.8427 65.4636 53.3812 65.656 53.7055 66.0408C54.0299 66.4195 54.1921 67.0304 54.1921 67.8733V70.173H52.8151V69.6874H52.7876C52.6774 69.8706 52.503 70.0172 52.2644 70.1272C52.0257 70.231 51.7687 70.2829 51.4933 70.2829C51.224 70.2829 50.97 70.2432 50.7314 70.1638C50.4988 70.0783 50.2908 69.9225 50.1072 69.6965C49.9236 69.4705 49.8318 69.1896 49.8318 68.8536C49.8318 67.8275 50.8109 67.3144 52.7692 67.3144V67.2411C52.7692 67.0273 52.6927 66.8654 52.5397 66.7555C52.3868 66.6394 52.1879 66.5814 51.9431 66.5814C51.5269 66.5814 51.1506 66.7372 50.814 67.0487Z" fill="#232156"/>
<path d="M49.4089 66.7371H48.3349V68.4779C48.3349 68.6978 48.3778 68.8597 48.4634 68.9635C48.5491 69.0673 48.696 69.1193 48.9041 69.1193C49.0815 69.1193 49.2284 69.0948 49.3447 69.046L49.363 70.1454C49.1121 70.237 48.8214 70.2829 48.491 70.2829C47.9096 70.2829 47.4935 70.1424 47.2426 69.8614C46.9917 69.5804 46.8662 69.1803 46.8662 68.6612V66.7371H46.1318V65.6102H46.857V64.4099H48.3349V65.6102H49.4089V66.7371Z" fill="#232156"/>
<path d="M45.5608 70.173H44.0461V67.6809C44.0461 67.0395 43.8197 66.7188 43.3669 66.7188C43.1098 66.7188 42.9109 66.8135 42.7702 67.0029C42.6294 67.1922 42.5591 67.4243 42.5591 67.6992V70.173H41.0444V65.6102H42.504V66.2424H42.5223C42.6325 66.0286 42.81 65.8484 43.0548 65.7018C43.3057 65.5552 43.5841 65.4819 43.8901 65.4819C44.4592 65.4819 44.8784 65.6652 45.1477 66.0317C45.4231 66.392 45.5608 66.8318 45.5608 67.351V70.173Z" fill="#232156"/>
<path d="M38.5439 68.3405V68.1848H38.3511C37.4148 68.1848 36.9467 68.3925 36.9467 68.8078C36.9467 68.9666 37.0109 69.0857 37.1394 69.1651C37.2679 69.2384 37.4209 69.2751 37.5984 69.2751C37.8983 69.2751 38.1308 69.1926 38.296 69.0277C38.4613 68.8567 38.5439 68.6276 38.5439 68.3405ZM36.5428 67.0487L35.7809 66.2332C36.3255 65.7202 37.0048 65.4636 37.8187 65.4636C38.5714 65.4636 39.11 65.656 39.4343 66.0408C39.7586 66.4195 39.9208 67.0304 39.9208 67.8733V70.173H38.5439V69.6874H38.5164C38.4062 69.8706 38.2318 70.0172 37.9931 70.1272C37.7545 70.231 37.4974 70.2829 37.222 70.2829C36.9528 70.2829 36.6988 70.2432 36.4601 70.1638C36.2276 70.0783 36.0195 69.9225 35.8359 69.6965C35.6523 69.4705 35.5605 69.1896 35.5605 68.8536C35.5605 67.8275 36.5397 67.3144 38.498 67.3144V67.2411C38.498 67.0273 38.4215 66.8654 38.2685 66.7555C38.1155 66.6394 37.9166 66.5814 37.6718 66.5814C37.2557 66.5814 36.8793 66.7372 36.5428 67.0487Z" fill="#232156"/>
<path d="M35.2632 65.6102L33.464 70.173H31.8392L30.04 65.6102H31.7015L32.6654 68.5696H32.6929L33.6568 65.6102H35.2632Z" fill="#232156"/>
<path d="M29.4415 70.1729H28.0554V69.5774H28.037C27.8902 69.8034 27.679 69.9805 27.4037 70.1088C27.1344 70.2371 26.8468 70.3012 26.5408 70.3012C25.8799 70.3012 25.3505 70.066 24.9527 69.5957C24.5611 69.1193 24.3652 68.5451 24.3652 67.8732C24.3652 67.2136 24.5641 66.6516 24.9619 66.1874C25.3597 65.7171 25.8799 65.4819 26.5224 65.4819C27.1038 65.4819 27.5689 65.6865 27.9177 66.0958H27.9361V63.2463H29.4415V70.1729ZM28.0003 67.8824C28.0003 67.577 27.8963 67.3052 27.6882 67.067C27.4863 66.8287 27.2231 66.7096 26.8988 66.7096C26.5622 66.7096 26.296 66.8257 26.1002 67.0578C25.9105 67.2838 25.8156 67.5556 25.8156 67.8732C25.8156 68.197 25.9105 68.4749 26.1002 68.707C26.296 68.9391 26.5622 69.0551 26.8988 69.0551C27.2231 69.0551 27.4863 68.9391 27.6882 68.707C27.8963 68.4688 28.0003 68.1939 28.0003 67.8824Z" fill="#232156"/>
<path d="M24.1403 70.173H22.3962L21.8913 68.8994H19.3761L18.8988 70.173H17.1914L19.9177 63.6862H21.4415L24.1403 70.173ZM21.4599 67.6442L20.6521 65.4178L19.8259 67.6442H21.4599Z" fill="#232156"/>
<path d="M15.2162 70.173H13.4446L12.4624 68.7712L11.4526 70.173H9.7085L11.5352 67.7817L9.88291 65.6102H11.6362L12.4899 66.8288L13.3528 65.6102H15.051L13.4078 67.7817L15.2162 70.173Z" fill="#232156"/>
<path d="M7.82294 68.3405V68.1848H7.63017C6.69386 68.1848 6.22571 68.3925 6.22571 68.8078C6.22571 68.9666 6.28996 69.0857 6.41848 69.1651C6.54699 69.2384 6.69998 69.2751 6.87745 69.2751C7.17732 69.2751 7.40987 69.1926 7.5751 69.0277C7.74033 68.8567 7.82294 68.6276 7.82294 68.3405ZM5.82181 67.0487L5.05991 66.2332C5.60456 65.7202 6.28384 65.4636 7.09776 65.4636C7.85048 65.4636 8.38902 65.656 8.71336 66.0408C9.0377 66.4195 9.19987 67.0304 9.19987 67.8733V70.173H7.82294V69.6874H7.79541C7.68525 69.8706 7.51084 70.0172 7.27217 70.1272C7.03351 70.231 6.77648 70.2829 6.50109 70.2829C6.23183 70.2829 5.97786 70.2432 5.73919 70.1638C5.50664 70.0783 5.29858 69.9225 5.11499 69.6965C4.9314 69.4705 4.8396 69.1896 4.8396 68.8536C4.8396 67.8275 5.81875 67.3144 7.77705 67.3144V67.2411C7.77705 67.0273 7.70055 66.8654 7.54756 66.7555C7.39457 66.6394 7.19568 66.5814 6.95089 66.5814C6.53475 66.5814 6.15839 66.7372 5.82181 67.0487Z" fill="#232156"/>
<path d="M5.3687 65.0238H3.5328V70.173H1.9631V65.0238H0.127197V63.6862H5.3687V65.0238Z" fill="#232156"/>
<path d="M114.303 55.1103L113.477 55.9624C113.189 55.6876 112.871 55.5501 112.522 55.5501C112.363 55.5501 112.228 55.5807 112.118 55.6418C112.008 55.7028 111.953 55.7945 111.953 55.9166C111.953 56.0388 112.011 56.1273 112.128 56.1823C112.244 56.2373 112.464 56.3014 112.788 56.3747C113.761 56.5946 114.248 57.0588 114.248 57.7674C114.248 58.2988 114.055 58.6928 113.67 58.9493C113.29 59.1997 112.831 59.3249 112.293 59.3249C111.913 59.3249 111.543 59.2639 111.182 59.1417C110.827 59.0195 110.533 58.8455 110.301 58.6195L111.145 57.7307C111.457 58.0728 111.831 58.2438 112.265 58.2438C112.412 58.2438 112.538 58.2133 112.642 58.1522C112.752 58.085 112.807 57.9842 112.807 57.8498C112.807 57.7155 112.739 57.6147 112.605 57.5475C112.476 57.4803 112.241 57.407 111.898 57.3276C111.011 57.1199 110.567 56.6771 110.567 55.9991C110.567 55.4982 110.76 55.1195 111.145 54.863C111.531 54.6003 111.971 54.469 112.467 54.469C113.232 54.469 113.844 54.6828 114.303 55.1103Z" fill="#232156"/>
<path d="M106.531 56.3747H108.468C108.468 56.1243 108.388 55.9166 108.229 55.7517C108.076 55.5868 107.856 55.5043 107.568 55.5043C107.287 55.5043 107.048 55.5898 106.852 55.7609C106.656 55.9319 106.549 56.1365 106.531 56.3747ZM109.854 56.9519C109.854 57.1169 109.851 57.236 109.845 57.3093H106.531C106.555 57.5536 106.675 57.7582 106.889 57.9231C107.103 58.088 107.348 58.1705 107.623 58.1705C108.064 58.1705 108.4 58.0117 108.633 57.6941L109.679 58.3538C109.233 59.0012 108.541 59.3249 107.605 59.3249C106.889 59.3249 106.289 59.1112 105.806 58.6836C105.328 58.2499 105.09 57.6605 105.09 56.9153C105.09 56.1823 105.322 55.5929 105.787 55.147C106.258 54.695 106.849 54.469 107.559 54.469C108.244 54.469 108.798 54.6919 109.22 55.1378C109.643 55.5776 109.854 56.1823 109.854 56.9519Z" fill="#232156"/>
<path d="M104.237 53.1588C104.237 53.3909 104.151 53.5864 103.98 53.7452C103.814 53.904 103.613 53.9834 103.374 53.9834C103.135 53.9834 102.93 53.904 102.759 53.7452C102.594 53.5803 102.511 53.3848 102.511 53.1588C102.511 52.9389 102.594 52.7465 102.759 52.5816C102.93 52.4167 103.135 52.3342 103.374 52.3342C103.613 52.3342 103.814 52.4167 103.98 52.5816C104.151 52.7404 104.237 52.9328 104.237 53.1588ZM104.127 59.1784H102.621V54.6156H104.127V59.1784Z" fill="#232156"/>
<path d="M101.408 58.7477C101.408 59.6151 101.169 60.2686 100.692 60.7084C100.214 61.1543 99.5564 61.3773 98.718 61.3773C98.308 61.3773 97.8888 61.3131 97.4604 61.1848C97.032 61.0627 96.6679 60.8886 96.368 60.6626L97.1207 59.5906C97.5614 59.9754 98.0662 60.1678 98.6354 60.1678C99.0637 60.1678 99.385 60.0518 99.5992 59.8197C99.8195 59.5937 99.9297 59.2852 99.9297 58.8943V58.6194H99.9021C99.59 59.0226 99.128 59.2241 98.516 59.2241C97.849 59.2241 97.3166 58.9981 96.9188 58.5461C96.5271 58.0941 96.3313 57.5383 96.3313 56.8786C96.3313 56.219 96.5271 55.657 96.9188 55.1928C97.3166 54.7225 97.8459 54.4873 98.5068 54.4873C99.1617 54.4873 99.6482 54.7255 99.9664 55.202H99.9848V54.6156H101.408V58.7477ZM99.6726 57.6941C99.8746 57.4681 99.9756 57.1932 99.9756 56.8695C99.9756 56.5457 99.8715 56.2739 99.6635 56.054C99.4615 55.828 99.1953 55.715 98.8648 55.715C98.5344 55.715 98.2712 55.825 98.0754 56.0449C97.8857 56.2648 97.7908 56.5396 97.7908 56.8695C97.7908 57.1871 97.8888 57.462 98.0846 57.6941C98.2804 57.9201 98.5405 58.0331 98.8648 58.0331C99.2014 58.0331 99.4707 57.9201 99.6726 57.6941Z" fill="#232156"/>
<path d="M92.3042 56.3747H94.2411C94.2411 56.1243 94.1615 55.9166 94.0024 55.7517C93.8494 55.5868 93.6291 55.5043 93.3415 55.5043C93.06 55.5043 92.8213 55.5898 92.6255 55.7609C92.4297 55.9319 92.3226 56.1365 92.3042 56.3747ZM95.6272 56.9519C95.6272 57.1169 95.6241 57.236 95.618 57.3093H92.3042C92.3287 57.5536 92.448 57.7582 92.6622 57.9231C92.8764 58.088 93.1212 58.1705 93.3966 58.1705C93.8372 58.1705 94.1738 58.0117 94.4063 57.6941L95.4528 58.3538C95.0061 59.0012 94.3145 59.3249 93.3782 59.3249C92.6622 59.3249 92.0625 59.1112 91.579 58.6836C91.1017 58.2499 90.863 57.6605 90.863 56.9153C90.863 56.1823 91.0956 55.5929 91.5607 55.147C92.0319 54.695 92.6224 54.469 93.3323 54.469C94.0177 54.469 94.5716 54.6919 94.9938 55.1378C95.4161 55.5776 95.6272 56.1823 95.6272 56.9519Z" fill="#232156"/>
<path d="M90.385 55.7426H89.311V57.4834C89.311 57.7033 89.3538 57.8652 89.4395 57.969C89.5252 58.0728 89.6721 58.1248 89.8801 58.1248C90.0576 58.1248 90.2045 58.1003 90.3207 58.0515L90.3391 59.1509C90.0882 59.2425 89.7975 59.2884 89.467 59.2884C88.8857 59.2884 88.4695 59.1479 88.2186 58.8669C87.9677 58.5859 87.8423 58.1858 87.8423 57.6666V55.7426H87.1079V54.6156H87.8331V53.4154H89.311V54.6156H90.385V55.7426Z" fill="#232156"/>
<path d="M85.2661 57.3459V57.1902H85.0733C84.137 57.1902 83.6688 57.3978 83.6688 57.8132C83.6688 57.972 83.7331 58.0911 83.8616 58.1705C83.9901 58.2438 84.1431 58.2805 84.3206 58.2805C84.6204 58.2805 84.853 58.198 85.0182 58.0331C85.1834 57.862 85.2661 57.633 85.2661 57.3459ZM83.2649 56.054L82.503 55.2386C83.0477 54.7255 83.727 54.469 84.5409 54.469C85.2936 54.469 85.8321 54.6614 86.1565 55.0462C86.4808 55.4249 86.643 56.0357 86.643 56.8786V59.1783H85.2661V58.6928H85.2385C85.1284 58.876 84.954 59.0226 84.7153 59.1325C84.4766 59.2364 84.2196 59.2883 83.9442 59.2883C83.6749 59.2883 83.421 59.2486 83.1823 59.1692C82.9498 59.0837 82.7417 58.9279 82.5581 58.7019C82.3745 58.4759 82.2827 58.1949 82.2827 57.859C82.2827 56.8328 83.2619 56.3198 85.2202 56.3198V56.2465C85.2202 56.0327 85.1437 55.8708 84.9907 55.7609C84.8377 55.6448 84.6388 55.5868 84.394 55.5868C83.9779 55.5868 83.6015 55.7425 83.2649 56.054Z" fill="#232156"/>
<path d="M82.1005 54.524L82.0363 55.8433C81.92 55.8128 81.7915 55.7975 81.6507 55.7975C81.2897 55.7975 81.0204 55.9105 80.8429 56.1365C80.6655 56.3564 80.5767 56.5885 80.5767 56.8328V59.1783H79.0713V54.6156H80.5217V55.2753H80.54C80.6563 55.037 80.8246 54.8477 81.0449 54.7072C81.2652 54.5606 81.51 54.4873 81.7793 54.4873C81.9261 54.4873 82.0332 54.4995 82.1005 54.524Z" fill="#232156"/>
<path d="M78.3638 55.7426H77.2898V57.4834C77.2898 57.7033 77.3326 57.8652 77.4183 57.969C77.5039 58.0728 77.6508 58.1248 77.8589 58.1248C78.0364 58.1248 78.1832 58.1003 78.2995 58.0515L78.3179 59.1509C78.067 59.2425 77.7763 59.2884 77.4458 59.2884C76.8644 59.2884 76.4483 59.1479 76.1974 58.8669C75.9465 58.5859 75.821 58.1858 75.821 57.6666V55.7426H75.0867V54.6156H75.8119V53.4154H77.2898V54.6156H78.3638V55.7426Z" fill="#232156"/>
<path d="M74.8025 53.3237L73.802 54.3774C73.6735 54.2124 73.4991 54.0781 73.2787 53.9742C73.0646 53.8704 72.8534 53.8185 72.6454 53.8185C72.4006 53.8185 72.1864 53.8704 72.0028 53.9742C71.8253 54.072 71.7366 54.2369 71.7366 54.469C71.7366 54.5728 71.758 54.6644 71.8008 54.7439C71.8437 54.8172 71.9141 54.8843 72.012 54.9454C72.116 55.0004 72.217 55.0493 72.3149 55.092C72.4128 55.1287 72.5536 55.1745 72.7372 55.2294C72.9758 55.3089 73.1625 55.373 73.2971 55.4219C73.4317 55.4707 73.6031 55.5532 73.8112 55.6692C74.0253 55.7792 74.1906 55.8952 74.3068 56.0174C74.4231 56.1396 74.5272 56.3045 74.619 56.5122C74.7108 56.7137 74.7567 56.9367 74.7567 57.181C74.7567 57.8834 74.5149 58.4209 74.0315 58.7935C73.5541 59.16 72.9666 59.3433 72.269 59.3433C71.7978 59.3433 71.3449 59.2608 70.9104 59.0959C70.4759 58.931 70.1179 58.7019 69.8364 58.4087L70.8645 57.3642C71.0236 57.5658 71.2317 57.7307 71.4887 57.859C71.7519 57.9873 72.012 58.0514 72.269 58.0514C72.5321 58.0514 72.7463 57.9964 72.9116 57.8865C73.0829 57.7704 73.1686 57.5902 73.1686 57.3459C73.1686 57.2482 73.1441 57.1627 73.0952 57.0894C73.0523 57.01 73.0034 56.9458 72.9483 56.897C72.8932 56.842 72.7953 56.784 72.6545 56.7229C72.5138 56.6618 72.3945 56.616 72.2965 56.5854C72.1986 56.5488 72.0395 56.4938 71.8192 56.4205C71.5805 56.3411 71.3755 56.2587 71.2042 56.1732C71.0328 56.0876 70.8615 55.9746 70.6901 55.8342C70.5188 55.6937 70.3872 55.5165 70.2954 55.3027C70.2036 55.089 70.1577 54.8416 70.1577 54.5606C70.1577 54.2186 70.2311 53.9132 70.378 53.6444C70.5249 53.3695 70.7207 53.1557 70.9655 53.003C71.2103 52.8442 71.4765 52.7251 71.7641 52.6457C72.0579 52.5663 72.3608 52.5266 72.6729 52.5266C73.0523 52.5266 73.4317 52.5969 73.8112 52.7373C74.1967 52.8717 74.5272 53.0672 74.8025 53.3237Z" fill="#232156"/>
<path d="M67.4012 58.2805C66.7831 58.9951 65.9416 59.3524 64.8768 59.3524C63.867 59.3524 63.0317 59.0348 62.3708 58.3996C61.7099 57.7582 61.3794 56.9336 61.3794 55.9258C61.3794 54.9057 61.7129 54.0842 62.38 53.4612C63.0531 52.832 63.8946 52.5175 64.9043 52.5175C65.3755 52.5175 65.8315 52.603 66.2721 52.774C66.7188 52.9389 67.0738 53.171 67.3369 53.4703L66.2721 54.5331C66.1313 54.3377 65.9416 54.1911 65.7029 54.0933C65.4704 53.9895 65.2226 53.9376 64.9594 53.9376C64.4148 53.9376 63.965 54.1269 63.61 54.5056C63.2612 54.8782 63.0868 55.3516 63.0868 55.9258C63.0868 56.5122 63.2581 56.9916 63.6008 57.3642C63.9435 57.7307 64.3872 57.914 64.9319 57.914C65.5377 57.914 65.9967 57.6941 66.3088 57.2543L67.4012 58.2805Z" fill="#232156"/>
<path d="M60.3389 59.1783H58.76V52.6915H60.3389V59.1783Z" fill="#232156"/>
<path d="M58.0435 54.0292H56.2076V59.1783H54.6379V54.0292H52.802V52.6915H58.0435V54.0292Z" fill="#232156"/>
<path d="M50.1783 61.4689H48.985L48.9758 52.3068H50.1783V61.4689Z" fill="#232156"/>
<path d="M44.3818 59.1783H42.8397V54.414L41.628 55.3486L40.8293 54.2583L42.9682 52.6915H44.3818V59.1783Z" fill="#232156"/>
<path d="M39.659 57.2909C39.659 57.7429 39.5335 58.1308 39.2826 58.4545C39.0378 58.7722 38.7349 59.0012 38.3739 59.1417C38.0128 59.2822 37.6242 59.3524 37.2081 59.3524C36.5777 59.3524 36.027 59.2089 35.5557 58.9218C35.0845 58.6347 34.7663 58.2041 34.6011 57.6299L36.0331 57.2543C36.0943 57.4803 36.2228 57.6727 36.4186 57.8315C36.6144 57.9842 36.8531 58.0606 37.1346 58.0606C37.3855 58.0606 37.6058 57.9934 37.7955 57.859C37.9853 57.7246 38.0801 57.5169 38.0801 57.236C38.0801 56.9306 37.9516 56.7137 37.6946 56.5855C37.4437 56.4511 37.1316 56.3839 36.7583 56.3839H36.3452V55.2569H36.795C37.5538 55.2569 37.9332 55.0004 37.9332 54.4873C37.9332 54.2674 37.8537 54.0933 37.6946 53.9651C37.5355 53.8368 37.3427 53.7727 37.1163 53.7727C36.896 53.7727 36.7032 53.8399 36.538 53.9742C36.3788 54.1025 36.2748 54.2766 36.2259 54.4965L34.7938 54.1666C34.9468 53.6413 35.2467 53.2352 35.6934 52.9481C36.1402 52.661 36.6481 52.5175 37.2172 52.5175C37.8414 52.5175 38.3769 52.6763 38.8237 52.9939C39.2765 53.3115 39.5029 53.7635 39.5029 54.3499C39.5029 54.6981 39.402 55.0004 39.2 55.2569C38.9981 55.5074 38.7349 55.6753 38.4106 55.7609V55.7883C38.7778 55.8739 39.0776 56.0571 39.3102 56.3381C39.5427 56.6129 39.659 56.9306 39.659 57.2909Z" fill="#232156"/>
<path d="M33.7338 54.6064C33.8317 55.0035 33.8806 55.4402 33.8806 55.9166C33.8806 56.3931 33.8317 56.8328 33.7338 57.236C33.642 57.6391 33.4981 58.0025 33.3023 58.3263C33.1126 58.6439 32.8495 58.8943 32.5129 59.0776C32.1824 59.2608 31.7938 59.3524 31.3471 59.3524C30.7596 59.3524 30.267 59.1906 29.8692 58.8668C29.4775 58.5431 29.1991 58.1339 29.0338 57.6391C28.8747 57.1382 28.7952 56.5641 28.7952 55.9166C28.7952 55.4402 28.8411 55.0035 28.9329 54.6064C29.0308 54.2094 29.1776 53.8521 29.3735 53.5345C29.5693 53.2168 29.8355 52.9695 30.1721 52.7923C30.5087 52.6091 30.9003 52.5175 31.3471 52.5175C31.7938 52.5175 32.1824 52.6091 32.5129 52.7923C32.8495 52.9695 33.1126 53.2168 33.3023 53.5345C33.4981 53.8521 33.642 54.2094 33.7338 54.6064ZM32.3017 55.9166C32.3017 55.6784 32.2895 55.4524 32.265 55.2386C32.2405 55.0187 32.1947 54.7958 32.1273 54.5698C32.0661 54.3438 31.9682 54.1636 31.8336 54.0292C31.699 53.8887 31.5368 53.8185 31.3471 53.8185C31.1574 53.8185 30.9921 53.8887 30.8514 54.0292C30.7167 54.1636 30.6158 54.3438 30.5485 54.5698C30.4873 54.7958 30.4414 55.0187 30.4108 55.2386C30.3863 55.4524 30.374 55.6784 30.374 55.9166C30.374 56.1548 30.3863 56.3839 30.4108 56.6038C30.4414 56.8237 30.4873 57.0497 30.5485 57.2818C30.6158 57.5078 30.7167 57.691 30.8514 57.8315C30.986 57.9659 31.1512 58.0331 31.3471 58.0331C31.5368 58.0331 31.699 57.9659 31.8336 57.8315C31.9682 57.691 32.0661 57.5078 32.1273 57.2818C32.1947 57.0497 32.2405 56.8267 32.265 56.6129C32.2895 56.3931 32.3017 56.1609 32.3017 55.9166Z" fill="#232156"/>
<path d="M26.5784 59.1783H25.0362V54.414L23.8245 55.3486L23.0259 54.2583L25.1647 52.6915H26.5784V59.1783Z" fill="#232156"/>
<path d="M16.4746 56.3747H18.4115C18.4115 56.1243 18.332 55.9166 18.1728 55.7517C18.0199 55.5868 17.7995 55.5043 17.5119 55.5043C17.2304 55.5043 16.9917 55.5898 16.7959 55.7609C16.6001 55.9319 16.493 56.1365 16.4746 56.3747ZM19.7976 56.9519C19.7976 57.1169 19.7946 57.236 19.7884 57.3093H16.4746C16.4991 57.5536 16.6184 57.7582 16.8326 57.9231C17.0468 58.088 17.2916 58.1705 17.567 58.1705C18.0076 58.1705 18.3442 58.0117 18.5767 57.6941L19.6232 58.3538C19.1765 59.0012 18.4849 59.3249 17.5486 59.3249C16.8326 59.3249 16.2329 59.1112 15.7495 58.6836C15.2721 58.2499 15.0334 57.6605 15.0334 56.9153C15.0334 56.1823 15.266 55.5929 15.7311 55.147C16.2023 54.695 16.7929 54.469 17.5027 54.469C18.1881 54.469 18.742 54.6919 19.1642 55.1378C19.5865 55.5776 19.7976 56.1823 19.7976 56.9519Z" fill="#232156"/>
<path d="M14.8139 54.524L14.7497 55.8433C14.6334 55.8128 14.5049 55.7975 14.3641 55.7975C14.0031 55.7975 13.7338 55.9105 13.5563 56.1365C13.3788 56.3564 13.2901 56.5885 13.2901 56.8328V59.1783H11.7847V54.6156H13.235V55.2753H13.2534C13.3697 55.037 13.538 54.8477 13.7583 54.7072C13.9786 54.5606 14.2234 54.4873 14.4926 54.4873C14.6395 54.4873 14.7466 54.4995 14.8139 54.524Z" fill="#232156"/>
<path d="M10.6072 59.1784H9.15688V58.5462H9.13852C9.02837 58.76 8.84783 58.9401 8.59693 59.0867C8.34602 59.2333 8.06757 59.3066 7.76159 59.3066C7.19246 59.3066 6.77326 59.1264 6.504 58.7661C6.23473 58.3996 6.1001 57.9567 6.1001 57.4375V54.6156H7.61472V57.0894C7.61472 57.7368 7.84115 58.0606 8.294 58.0606C8.54491 58.0606 8.74074 57.9659 8.88149 57.7765C9.02836 57.5872 9.1018 57.3551 9.1018 57.0802V54.6156H10.6072V59.1784Z" fill="#232156"/>
<path d="M5.68087 54.6889C5.68087 55.1653 5.55542 55.5623 5.30451 55.88C5.05972 56.1976 4.75068 56.4205 4.37738 56.5488C4.0102 56.671 3.58488 56.732 3.10142 56.732H2.32116V59.1783H0.751465V52.6915H3.13814C3.90922 52.6915 4.52425 52.8503 4.98323 53.168C5.44832 53.4795 5.68087 53.9864 5.68087 54.6889ZM4.11117 54.698C4.11117 54.2033 3.74399 53.9559 3.00963 53.9559H2.32116V55.486H2.98209C3.73481 55.486 4.11117 55.2233 4.11117 54.698Z" fill="#232156"/>
<path d="M45.9581 5.6794C45.6287 5.26157 45.1895 4.96753 44.6248 4.76635C44.0601 4.56517 43.5268 4.47232 43.0249 4.47232C42.7269 4.47232 42.4289 4.50327 42.1152 4.58065C41.8015 4.64255 41.5034 4.75088 41.2211 4.90563C40.9388 5.04491 40.7192 5.24609 40.5466 5.47822C40.3741 5.71035 40.28 6.00438 40.28 6.36032C40.28 6.90195 40.4839 7.31979 40.9074 7.61382C41.3309 7.90785 41.8485 8.15546 42.4759 8.35664C43.1033 8.55782 43.7935 8.77447 44.515 8.97565C45.2522 9.17683 45.9267 9.47086 46.5541 9.85775C47.1815 10.2292 47.7148 10.7398 48.1226 11.3743C48.5461 12.0088 48.75 12.86 48.75 13.9123C48.75 14.9182 48.5618 15.8003 48.1697 16.5586C47.7776 17.3169 47.2756 17.9359 46.6169 18.4311C45.9581 18.9263 45.2052 19.2977 44.3425 19.5299C43.4798 19.7775 42.57 19.8858 41.6132 19.8858C40.4212 19.8858 39.3075 19.7001 38.2723 19.3441C37.2527 18.9882 36.2959 18.4002 35.4019 17.5954L38.288 14.4539C38.7115 15.011 39.2291 15.4289 39.8565 15.7384C40.4839 16.0324 41.1427 16.1872 41.8171 16.1872C42.1465 16.1872 42.4759 16.1407 42.821 16.0634C43.1661 15.986 43.4641 15.8777 43.7308 15.7229C43.9974 15.5682 44.217 15.367 44.3895 15.1348C44.5621 14.8872 44.6405 14.6087 44.6405 14.2837C44.6405 13.7421 44.4366 13.3088 43.9974 12.9838C43.5739 12.6588 43.0406 12.3957 42.3975 12.1791C41.7544 11.9469 41.0643 11.7303 40.3114 11.5136C39.5585 11.297 38.8683 10.9875 38.2252 10.616C37.5821 10.2446 37.0488 9.73395 36.6253 9.13041C36.2018 8.51139 35.9822 7.6912 35.9822 6.6853C35.9822 5.71035 36.1861 4.85921 36.5626 4.11639C36.9547 3.38905 37.4723 2.77003 38.1311 2.27482C38.7899 1.77961 39.5428 1.4082 40.3898 1.16059C41.2368 0.912988 42.1152 0.789185 43.0249 0.789185C44.0758 0.789185 45.0797 0.943938 46.0522 1.22249C47.0247 1.51653 47.903 2.01174 48.6873 2.69265L45.8953 5.69488L45.9581 5.6794Z" fill="#232156"/>
<path d="M50.3027 6.94838H54.2084V19.437H50.3027V6.94838ZM49.989 3.01764C49.989 2.39862 50.2086 1.87246 50.6478 1.43915C51.087 1.00584 51.6203 0.789185 52.2477 0.789185C52.8751 0.789185 53.4084 1.00584 53.8476 1.43915C54.2868 1.87246 54.5064 2.39862 54.5064 3.01764C54.5064 3.63665 54.2868 4.16281 53.8476 4.59612C53.4084 5.02943 52.8751 5.24609 52.2477 5.24609C51.6203 5.24609 51.087 5.02943 50.6478 4.59612C50.2086 4.16281 49.989 3.63665 49.989 3.01764Z" fill="#232156"/>
<path d="M55.9808 6.94842H59.7296V8.65071H59.7766C59.9021 8.40311 60.0746 8.17098 60.2942 7.93885C60.5138 7.69124 60.7962 7.49006 61.1099 7.28888C61.4236 7.10318 61.7843 6.94842 62.1765 6.82462C62.5686 6.70082 63.0078 6.63892 63.4783 6.63892C64.3724 6.63892 65.1567 6.82462 65.8311 7.18055C66.5213 7.53649 67.0389 8.10908 67.384 8.88284C67.8389 8.07812 68.3878 7.50554 69.0309 7.16508C69.674 6.82462 70.4583 6.65439 71.3994 6.65439C72.2464 6.65439 72.968 6.79367 73.5483 7.0877C74.1287 7.36626 74.5835 7.75314 74.9286 8.24835C75.258 8.74357 75.509 9.31615 75.6501 9.96612C75.7913 10.6316 75.8697 11.328 75.8697 12.0862V19.468H71.9484V12.1946C71.9484 11.6065 71.8229 11.1113 71.5876 10.6935C71.3367 10.2756 70.8818 10.059 70.2387 10.059C69.7838 10.059 69.4074 10.1363 69.1094 10.2756C68.8113 10.4149 68.5604 10.6161 68.3878 10.8792C68.1996 11.1422 68.0741 11.4363 67.9957 11.7767C67.9173 12.1172 67.8859 12.4731 67.8859 12.86V19.468H63.9646V12.86C63.9646 12.6434 63.9646 12.3648 63.9489 12.0398C63.9332 11.7148 63.8705 11.4053 63.7607 11.1113C63.6509 10.8173 63.494 10.5697 63.2588 10.3685C63.0235 10.1673 62.6784 10.059 62.2235 10.059C61.7216 10.059 61.3138 10.1518 61.0001 10.3221C60.6864 10.5078 60.4511 10.7399 60.2785 11.0339C60.106 11.328 59.9962 11.6684 59.9492 12.0553C59.9021 12.4267 59.8707 12.8291 59.8707 13.2314V19.4525H55.9651V6.94842H55.9808Z" fill="#232156"/>
<path d="M81.046 13.2159C81.046 14.1599 81.3127 14.9182 81.8617 15.5063C82.4107 16.0944 83.1792 16.3884 84.1674 16.3884C85.1556 16.3884 85.9242 16.0944 86.4732 15.5218C87.0221 14.9337 87.2888 14.1754 87.2888 13.2314C87.2888 12.2874 87.0221 11.5291 86.4732 10.9411C85.9242 10.353 85.1556 10.059 84.1674 10.059C83.1792 10.059 82.4107 10.353 81.8617 10.9256C81.3127 11.4982 81.046 12.2719 81.046 13.2159ZM77.4541 6.9639H81.046V8.60429H81.0931C81.2499 8.38763 81.4539 8.1555 81.7048 7.92337C81.9558 7.69124 82.2538 7.47459 82.5989 7.28888C82.944 7.10318 83.3047 6.94842 83.7125 6.82462C84.1204 6.70082 84.5439 6.63892 84.9831 6.63892C85.9242 6.63892 86.7712 6.79367 87.5398 7.11865C88.3083 7.44363 88.9514 7.87695 89.5004 8.46501C90.0494 9.0376 90.4729 9.71851 90.7709 10.5078C91.0689 11.297 91.2101 12.1636 91.2101 13.1076C91.2101 13.9897 91.0689 14.8099 90.8023 15.6146C90.5356 16.4039 90.1435 17.1157 89.6573 17.7348C89.1553 18.3538 88.5593 18.849 87.8378 19.2049C87.1319 19.5763 86.3163 19.762 85.4066 19.7466C84.5909 19.7466 83.838 19.6227 83.1322 19.3751C82.4263 19.1275 81.846 18.6942 81.4068 18.1062H81.3597V25.3022H77.4541V6.9639Z" fill="#232156"/>
<path d="M96.4176 0.0463867H92.512V19.4834H96.4176V0.0463867Z" fill="#232156"/>
<path d="M106.864 11.8231C106.88 11.1732 106.66 10.616 106.221 10.1518C105.766 9.68752 105.186 9.45539 104.48 9.45539C104.041 9.45539 103.664 9.51729 103.335 9.65657C103.005 9.79585 102.723 9.96608 102.488 10.1827C102.252 10.3994 102.064 10.647 101.939 10.9256C101.813 11.2041 101.735 11.4981 101.719 11.8076H106.88L106.864 11.8231ZM110.174 17.3324C109.546 18.1216 108.762 18.7251 107.805 19.1584C106.848 19.5918 105.86 19.7929 104.84 19.7929C103.868 19.7929 102.958 19.6382 102.096 19.3287C101.233 19.0192 100.496 18.5704 99.8526 17.9978C99.2252 17.4252 98.7232 16.7288 98.3625 15.9241C98.0017 15.1194 97.8135 14.2218 97.8135 13.2314C97.8135 12.241 98.0017 11.3434 98.3625 10.5387C98.7232 9.73395 99.2252 9.03756 99.8683 8.46497C100.511 7.89238 101.249 7.4436 102.111 7.14956C102.974 6.84006 103.884 6.6853 104.856 6.6853C105.766 6.6853 106.582 6.84006 107.319 7.14956C108.056 7.45907 108.683 7.89238 109.185 8.48045C109.703 9.05303 110.095 9.74943 110.377 10.5541C110.66 11.3589 110.801 12.2564 110.801 13.2469V14.4539H101.735C101.892 15.1968 102.237 15.7693 102.754 16.2181C103.272 16.6514 103.915 16.8836 104.684 16.8836C105.327 16.8836 105.876 16.7443 106.315 16.4657C106.754 16.1872 107.146 15.8158 107.476 15.367L110.205 17.3478L110.174 17.3324Z" fill="#232156"/>
<path d="M110.817 0V0.680916H111.758V3.17245H112.542V0.680916H113.515V0H110.817Z" fill="#232156"/>
<path d="M114.063 3.17236V0.0153809H114.769L115.946 1.90338H115.444L116.636 0.0308562H117.31V3.20331H116.557V2.21288C116.557 1.9498 116.557 1.7022 116.573 1.48554C116.573 1.26889 116.604 1.05223 116.652 0.835575L116.746 1.06771L115.852 2.42954H115.554L114.675 1.08318L114.769 0.835575C114.801 1.03675 114.832 1.25341 114.832 1.45459C114.832 1.67125 114.848 1.91885 114.848 2.21288V3.20331H114.095L114.063 3.17236Z" fill="#232156"/>
<path d="M37.4565 28.3354H49.7852V31.9721H41.4563V35.3148H49.3303V38.9515H41.4563V42.5882H50.2557V46.2249H37.4565V28.3044V28.3354Z" fill="#232156"/>
<path d="M57.4712 36.8932L51.4637 28.3353H56.483L60.3573 34.6028L64.0747 28.3353H68.9215L63.0552 36.8158L69.6273 46.2558H64.608L60.1691 39.0443L55.8556 46.2558H51.1187L57.4712 36.8932Z" fill="#232156"/>
<path d="M81.8462 32.9935C81.4541 32.5292 80.9678 32.1578 80.4032 31.9102C79.8228 31.6626 79.164 31.5233 78.4111 31.5233C77.6582 31.5233 76.9681 31.6626 76.325 31.9566C75.6819 32.2507 75.1329 32.6376 74.6623 33.1637C74.1918 33.6899 73.831 34.2934 73.5644 35.0053C73.2977 35.7172 73.1722 36.4755 73.1722 37.3111C73.1722 38.1468 73.2977 38.9206 73.5644 39.6324C73.831 40.3288 74.1918 40.9324 74.6466 41.4585C75.1015 41.9692 75.6505 42.3716 76.2779 42.6656C76.9053 42.9596 77.5798 43.0989 78.2856 43.0989C79.1013 43.0989 79.8385 42.9287 80.4659 42.5882C81.0933 42.2478 81.6266 41.7835 82.0344 41.1645L85.3754 43.6251C84.6068 44.6929 83.6343 45.4666 82.4579 45.9773C81.2815 46.488 80.0581 46.7356 78.8189 46.7356C77.4073 46.7356 76.0897 46.519 74.8976 46.0702C73.7055 45.6369 72.6703 45.0024 71.7919 44.1822C70.9135 43.362 70.2391 42.3716 69.7528 41.2109C69.2666 40.0503 69.0156 38.7503 69.0156 37.3111C69.0156 35.8719 69.2666 34.572 69.7528 33.4113C70.2391 32.2507 70.9135 31.2603 71.7919 30.4401C72.6703 29.6199 73.6898 29.0009 74.8976 28.5521C76.0897 28.1188 77.4073 27.9021 78.8189 27.9021C79.3366 27.9021 79.8699 27.9485 80.4188 28.0414C80.9678 28.1342 81.5168 28.289 82.0658 28.4902C82.6148 28.6913 83.1167 28.9699 83.6186 29.2949C84.1206 29.6353 84.5598 30.0532 84.9519 30.5329L81.8776 33.009L81.8462 32.9935Z" fill="#232156"/>
<path d="M86.5359 28.3353H90.5356V35.0207H98.2999V28.3353H102.3V46.2558H98.2999V38.5181H90.5356V46.2558H86.5359V28.3353Z" fill="#232156"/>
<path d="M110.974 28.3353H114.283L122.189 46.2558H117.671L116.103 42.4643H109.044L107.539 46.2558H103.131L110.974 28.3353ZM112.511 33.5505L110.299 39.1217H114.738L112.511 33.5505Z" fill="#232156"/>
<path d="M123.49 28.3353H128.933L136.65 40.7775H136.698V28.3353H140.697V46.2558H135.474L127.553 33.5041H127.506V46.2558H123.506V28.3353H123.49Z" fill="#232156"/>
<path d="M160.335 44.9868C159.159 45.5904 157.92 46.0392 156.649 46.3023C155.363 46.5653 154.061 46.7046 152.728 46.7046C151.316 46.7046 149.999 46.488 148.807 46.0392C147.614 45.6059 146.579 44.9714 145.701 44.1512C144.822 43.331 144.148 42.3406 143.662 41.1799C143.176 40.0193 142.925 38.7193 142.925 37.2801C142.925 35.8409 143.176 34.541 143.662 33.3803C144.148 32.2197 144.822 31.2292 145.701 30.4091C146.579 29.5889 147.599 28.9698 148.807 28.5211C149.999 28.0877 151.316 27.8711 152.728 27.8711C154.14 27.8711 155.52 28.0413 156.743 28.3818C157.967 28.7222 159.033 29.3258 159.959 30.1614L157.135 33.1946C156.586 32.6375 155.975 32.2197 155.285 31.9256C154.594 31.6316 153.747 31.4923 152.728 31.4923C151.865 31.4923 151.097 31.6316 150.406 31.9256C149.716 32.2197 149.12 32.6066 148.618 33.1327C148.116 33.6434 147.74 34.2624 147.473 34.9743C147.207 35.6862 147.081 36.4444 147.081 37.2801C147.081 38.1158 147.207 38.8896 147.473 39.6014C147.74 40.2978 148.116 40.9013 148.618 41.4275C149.12 41.9382 149.701 42.3406 150.406 42.6346C151.097 42.9286 151.865 43.0679 152.728 43.0679C153.591 43.0679 154.359 42.975 154.987 42.7739C155.614 42.5882 156.116 42.387 156.492 42.1858V39.2764H153.23V35.6397H160.335V45.0023V44.9868Z" fill="#232156"/>
<path d="M163.519 28.3354H175.848V31.9721H167.519V35.3148H175.393V38.9515H167.519V42.5882H176.319V46.2249H163.519V28.3044V28.3354Z" fill="#232156"/>
<path d="M26.4297 46.2559H3.26254C1.45873 46.2559 0 44.8167 0 43.037V3.21888C0 1.43921 1.45873 0 3.26254 0H26.4297C28.2335 0 29.6923 1.43921 29.6923 3.21888V43.037C29.6923 44.8167 28.2335 46.2559 26.4297 46.2559Z" fill="#232155"/>
<path d="M26.4139 46.2558H3.29379C1.48998 46.2558 0.03125 44.8166 0.03125 43.037V41.3811H29.6608V43.037C29.6608 44.8166 28.2021 46.2558 26.3982 46.2558" fill="#409544"/>
<path d="M24.8455 12.3957C24.8455 12.9683 24.8769 13.5409 24.8455 14.1134C24.8298 14.4849 24.7043 14.8408 24.6259 15.1967C24.5788 15.4443 24.5161 15.7074 24.4377 15.955C24.3436 16.28 24.2495 16.5895 24.1083 16.899C23.873 17.4252 23.622 17.9359 23.2456 18.3692C22.9005 18.7561 22.5554 19.1739 22.1319 19.4834C21.6927 19.8084 21.1751 20.056 20.6732 20.3036C20.485 20.3964 20.2497 20.4119 20.0458 20.4738C19.1674 20.7059 18.2734 20.6595 17.395 20.5976C17.0499 20.5667 16.7205 20.4429 16.3754 20.3655C15.9206 20.2726 15.5284 20.056 15.1363 19.8393C14.6657 19.5762 14.2736 19.2358 13.9128 18.8489C13.4109 18.3227 13.0345 17.7192 12.7521 17.0538C12.5012 16.4812 12.3286 15.8931 12.1875 15.2896C11.8424 13.8968 11.8737 12.4885 11.9522 11.0803C11.9835 10.4613 12.0933 9.82677 12.2502 9.22323C12.5012 8.1709 12.9403 7.18048 13.6148 6.32933C14.2265 5.57104 14.9794 4.99845 15.9049 4.62704C16.9872 4.17826 18.1008 4.16278 19.2302 4.24016C19.638 4.27111 20.0301 4.39491 20.4222 4.48776C21.034 4.61157 21.583 4.9056 22.0535 5.29248C22.4927 5.64842 22.9162 6.05078 23.2613 6.48409C23.6064 6.93287 23.873 7.44356 24.124 7.95425C24.2808 8.26375 24.3593 8.60421 24.4534 8.94467C24.5945 9.50178 24.72 10.0589 24.8298 10.6315C24.8769 10.8791 24.8612 11.1576 24.8612 11.4207C24.8612 11.7612 24.8612 12.1016 24.8612 12.4421C24.8612 12.4421 24.8612 12.4421 24.8455 12.4421V12.3957ZM21.0967 12.3647C21.1438 11.4981 21.0967 10.6315 20.8614 9.78034C20.7203 9.3006 20.5477 8.85182 20.2654 8.44946C19.8105 7.79949 19.1831 7.44356 18.3675 7.47451C18.1165 7.47451 17.8812 7.55189 17.6459 7.59831C17.2068 7.69116 16.8774 7.96972 16.595 8.31018C15.999 9.03752 15.7637 9.90414 15.701 10.7862C15.5755 12.21 15.5284 13.6647 15.9206 15.0729C16.046 15.5372 16.2343 15.9705 16.5166 16.3574C16.7832 16.7443 17.144 17.0228 17.5832 17.1621C18.0381 17.3014 18.4929 17.3478 18.9949 17.2085C19.4811 17.0692 19.8576 16.8371 20.1713 16.4657C20.4536 16.1407 20.6105 15.7693 20.7516 15.3669C20.9399 14.8408 21.0497 14.2991 21.0967 13.742C21.1438 13.2932 21.0967 12.829 21.0967 12.3647Z" fill="white"/>
<path d="M14.7442 27.9793C15.5127 28.227 16.1558 28.5829 16.6734 29.1245C17.0028 29.4805 17.2538 29.8983 17.4577 30.3471C17.693 30.8578 17.7557 31.3839 17.8185 31.9256C17.8498 32.2815 17.7714 32.6529 17.74 33.0088C17.693 33.6743 17.4263 34.2778 17.097 34.8504C16.7676 35.423 16.2813 35.8873 15.748 36.2587C15.3873 36.5063 14.9637 36.6765 14.5559 36.8467C13.5207 37.28 12.407 37.3729 11.3091 37.3729C10.713 37.3729 10.1327 37.2491 9.53663 37.1408C9.12882 37.0634 8.68963 36.986 8.31318 36.8158C7.5446 36.4753 6.79171 36.042 6.30546 35.3147C6.00744 34.8659 5.75648 34.4016 5.5212 33.9219C5.4114 33.7052 5.39571 33.4422 5.34866 33.1945C5.3016 32.9469 5.27023 32.6839 5.22317 32.4208C5.1918 32.2815 5.27023 32.2351 5.4114 32.2196C5.97607 32.1732 6.54074 32.1113 7.10541 32.0494C7.60734 31.9875 8.09359 31.9101 8.59552 31.8482C8.75237 31.8327 8.81511 31.8791 8.81511 32.0339C8.86217 32.7767 9.22293 33.3183 9.88171 33.6588C10.2738 33.86 10.713 33.9374 11.1365 33.9374C11.6541 33.9374 12.1874 33.9219 12.6894 33.8136C13.3011 33.6898 13.7874 33.3338 13.9599 32.7303C14.1638 32.0184 14.1167 31.322 13.5521 30.7494C13.2854 30.4709 12.9403 30.3161 12.5482 30.2078C11.8737 30.0221 11.1993 30.1149 10.5248 30.0995C10.3052 30.0995 10.2582 30.0376 10.2582 29.8209C10.2738 29.1709 10.2582 28.521 10.2582 27.871C10.2582 27.6698 10.3209 27.6079 10.5091 27.6234C10.5405 27.6234 10.5875 27.6234 10.6189 27.6234C11.0267 27.7163 11.2463 27.4841 11.4659 27.1746C11.9679 26.4318 12.5168 25.7045 13.0345 24.9771C13.0815 24.9152 13.0972 24.8224 13.1286 24.745C13.0501 24.745 12.9717 24.714 12.8933 24.714C12.2816 24.714 11.6698 24.6986 11.0581 24.714C10.6817 24.714 10.2895 24.745 9.92877 24.8378C9.50526 24.9462 9.19156 25.2093 9.08176 25.658C9.0347 25.8283 9.01902 26.014 8.95628 26.1842C8.95628 26.2306 8.87785 26.2925 8.83079 26.2925C8.67394 26.2925 8.5014 26.2925 8.34455 26.2771C8.12496 26.2616 7.90536 26.1997 7.68577 26.1842C6.99561 26.1223 6.32115 26.0759 5.63099 26.014C5.56825 26.014 5.45845 25.9211 5.45845 25.8747C5.45845 24.745 5.74079 23.6772 6.49368 22.7796C6.85445 22.3463 7.30932 22.0059 7.85831 21.7892C8.40729 21.5571 8.97196 21.4023 9.568 21.4023C11.9679 21.4023 14.352 21.4023 16.7519 21.3868C16.9087 21.3868 16.9872 21.4333 16.9872 21.6035C16.9872 22.532 17.0028 23.4605 16.9872 24.3736C16.9872 24.5593 16.8146 24.745 16.7048 24.9307C16.297 25.5807 15.8735 26.2152 15.45 26.8651C15.2147 27.2365 14.9794 27.5925 14.7442 27.9793Z" fill="white"/>
<path d="M8.78379 7.86137C7.48191 8.58871 6.19571 9.31605 4.86246 10.0743C4.86246 9.65651 4.86246 9.30058 4.86246 8.96012C4.86246 8.68156 4.86246 8.40301 4.86246 8.12445C4.84677 7.93874 4.90952 7.83042 5.05068 7.72209C5.85063 7.10307 6.57216 6.42216 7.23094 5.64839C7.49759 5.33888 7.65444 4.952 7.87404 4.59606C7.92109 4.53416 8.01521 4.45679 8.09363 4.45679C9.01907 4.45679 9.9445 4.45679 10.8542 4.45679C10.9797 4.45679 11.0268 4.51869 11.0268 4.64249C11.0268 4.75082 11.0268 4.84367 11.0268 4.952C11.0268 10.0589 11.0268 15.1657 11.0268 20.2726C11.0268 20.4274 10.9797 20.4738 10.8229 20.4738C9.67785 20.4738 8.53282 20.4738 7.38779 20.4738C7.21526 20.4738 7.18389 20.4274 7.18389 20.2417C7.19957 19.2822 7.18389 18.3227 7.18389 17.3632C7.18389 15.0884 7.19957 12.798 7.1682 10.5231C7.1682 10.0279 7.34074 9.70294 7.63876 9.36248C8.03089 8.89822 8.42302 8.41848 8.81516 7.95422C8.81516 7.95422 8.81516 7.92327 8.81516 7.87684L8.78379 7.86137Z" fill="white"/>
<path d="M22.0535 24.7914C22.0535 24.7914 21.9594 24.8069 21.9124 24.8378C21.3477 25.1783 20.783 25.5188 20.2027 25.8437C19.6223 26.1687 19.0576 26.4937 18.4773 26.8032C18.1008 27.0044 18.1008 27.0044 18.1008 26.5866C18.1008 26.0604 18.1008 25.5342 18.1008 25.0081C18.1008 24.8533 18.1636 24.7605 18.2734 24.6521C18.9478 24.0331 19.638 23.4296 20.2811 22.7951C20.6575 22.4237 20.9556 21.9749 21.1281 21.4797C21.1438 21.4333 21.2379 21.3868 21.3006 21.3868C22.2261 21.3868 23.1672 21.3868 24.0926 21.3868C24.2338 21.3868 24.2808 21.4487 24.2808 21.588C24.2808 26.6639 24.2808 31.7553 24.2808 36.8313C24.2808 36.8932 24.2808 36.9551 24.2808 37.0015C24.2808 37.1408 24.2338 37.1872 24.0612 37.1872C22.9162 37.1872 21.7555 37.1872 20.6105 37.1872C20.485 37.1872 20.4223 37.1562 20.4223 37.0324C20.4223 36.9086 20.4223 36.8003 20.4223 36.6765C20.4223 33.4576 20.4223 30.2233 20.4223 27.0044C20.4223 26.7258 20.6262 26.5866 20.7673 26.4009C21.1751 25.8747 21.6143 25.364 22.0378 24.8533C22.0378 24.8533 22.0378 24.8224 22.0378 24.7914H22.0535Z" fill="white"/>
</svg>
