<?xml version="1.0" encoding="UTF-8"?>
<svg id="Layer_1" data-name="Layer 1" xmlns="http://www.w3.org/2000/svg" viewBox="0 0 123.19 43.44">
  <defs>
    <style>
      .cls-1 {
        fill: #232156;
      }

      .cls-1, .cls-2, .cls-3, .cls-4 {
        stroke-width: 0px;
      }

      .cls-2 {
        fill: #1a9462;
      }

      .cls-3 {
        fill: #5fbf7f;
      }

      .cls-4 {
        fill: #54bc81;
      }
    </style>
  </defs>
  <g>
    <g>
      <path class="cls-1" d="M.69,31.3h1.28l.88,2.5h.01l.89-2.5h1.27v3.83h-.84v-2.94h-.01l-1.01,2.94h-.64l-.97-2.94h-.01v2.94h-.84v-3.83Z"/>
      <path class="cls-1" d="M8.18,34.68c-.13.17-.29.29-.49.38-.2.09-.4.14-.62.14-.2,0-.39-.03-.57-.1-.18-.06-.33-.16-.47-.28s-.24-.27-.31-.44-.11-.36-.11-.57.04-.4.11-.57.18-.31.31-.44c.13-.12.29-.21.47-.28s.37-.1.57-.1c.19,0,.36.03.51.1.15.06.28.16.39.28.11.12.19.27.25.44s.09.36.09.57v.25h-1.88c.03.15.1.28.21.37s.24.14.4.14c.13,0,.25-.03.34-.09.09-.06.17-.14.24-.23l.57.42ZM7.5,33.52c0-.14-.04-.25-.14-.35-.09-.1-.21-.15-.36-.15-.09,0-.17.01-.24.04-.07.03-.13.07-.18.11-.05.05-.09.1-.11.16-.03.06-.04.12-.05.19h1.07Z"/>
      <path class="cls-1" d="M8.8,32.5h.81v.42h.01c.09-.16.19-.28.31-.36.12-.08.27-.12.45-.12.05,0,.09,0,.14,0,.05,0,.09.01.13.02v.74c-.06-.02-.11-.03-.17-.04s-.11-.01-.18-.01c-.16,0-.28.02-.37.06-.09.04-.16.1-.21.18s-.08.17-.09.28c-.02.11-.02.23-.02.36v1.1h-.81v-2.63Z"/>
      <path class="cls-1" d="M12.68,33.35c-.04-.06-.1-.11-.17-.14-.07-.04-.15-.06-.23-.06-.21,0-.36.06-.48.18s-.17.28-.17.48.06.36.17.48.27.18.48.18c.09,0,.17-.02.23-.06.06-.04.12-.09.17-.14l.54.56c-.13.13-.28.22-.45.27-.17.05-.33.08-.49.08-.2,0-.39-.03-.57-.1-.18-.06-.33-.16-.46-.28-.13-.12-.24-.27-.31-.44-.08-.17-.11-.36-.11-.57s.04-.4.11-.57c.08-.17.18-.31.31-.44.13-.12.29-.21.46-.28s.37-.1.57-.1c.16,0,.32.03.49.08.17.05.32.14.45.27l-.54.56Z"/>
      <path class="cls-1" d="M14.32,31.04v1.82h.01s.05-.1.09-.15c.04-.05.1-.1.16-.14s.13-.07.22-.1c.08-.03.17-.04.27-.04.21,0,.37.03.5.09s.22.15.29.26c.07.11.12.24.14.39s.04.32.04.49v1.45h-.81v-1.29c0-.08,0-.15,0-.23s-.02-.16-.05-.23c-.03-.07-.07-.12-.12-.17-.06-.04-.14-.06-.24-.06s-.19.02-.25.06c-.06.04-.11.09-.15.15-.03.06-.06.13-.07.21-.01.08-.02.16-.02.25v1.31h-.81v-4.09h.81Z"/>
      <path class="cls-1" d="M18.26,34.8h-.01c-.09.14-.21.24-.36.3-.15.06-.31.09-.47.09-.12,0-.24-.02-.35-.05-.11-.03-.21-.09-.3-.15-.09-.07-.16-.15-.21-.25-.05-.1-.08-.22-.08-.35,0-.15.03-.28.08-.38.06-.1.13-.19.23-.26.1-.07.21-.12.33-.16s.25-.07.38-.08c.13-.02.26-.03.39-.03.13,0,.25,0,.37,0,0-.14-.05-.26-.15-.34s-.22-.13-.37-.13c-.13,0-.25.03-.36.08-.11.06-.21.13-.29.23l-.43-.44c.15-.14.33-.25.53-.32.2-.07.41-.11.63-.11.24,0,.43.03.59.09.15.06.28.15.37.26.09.11.16.26.19.42s.05.36.05.58v1.34h-.75v-.33ZM18.06,33.98c-.06,0-.14,0-.23,0-.09,0-.18.02-.26.05-.08.03-.16.06-.22.11s-.09.12-.09.21c0,.1.04.17.12.22.08.05.17.07.26.07.08,0,.16-.01.23-.03s.14-.05.2-.09c.06-.04.1-.09.14-.15.03-.06.05-.13.05-.22v-.17h-.2Z"/>
      <path class="cls-1" d="M19.52,32.5h.78v.36h.01s.06-.1.11-.15c.05-.05.1-.1.17-.14.07-.04.14-.07.22-.1s.17-.04.27-.04c.21,0,.37.03.5.09s.23.15.29.26c.07.11.12.24.14.39.03.15.04.32.04.49v1.45h-.81v-1.29c0-.08,0-.15,0-.23,0-.08-.02-.16-.05-.23-.03-.07-.07-.12-.12-.17-.06-.04-.14-.06-.24-.06s-.19.02-.25.06c-.07.04-.11.09-.15.15-.03.06-.06.13-.07.21-.01.08-.02.16-.02.25v1.31h-.81v-2.63Z"/>
      <path class="cls-1" d="M24.41,33.15h-.71v.88c0,.07,0,.14.01.2,0,.06.02.11.05.15.03.04.06.08.12.1s.12.03.21.03c.04,0,.1,0,.17-.01.07,0,.12-.03.16-.06v.68c-.09.03-.18.05-.28.06-.1.01-.19.02-.29.02-.14,0-.26-.01-.38-.04-.11-.03-.22-.07-.3-.14s-.15-.15-.2-.25c-.05-.1-.07-.22-.07-.37v-1.25h-.52v-.65h.52v-.78h.81v.78h.71v.65Z"/>
      <path class="cls-1" d="M29.03,32.3c-.08-.1-.19-.18-.31-.23-.12-.05-.26-.08-.42-.08s-.31.03-.44.09c-.14.06-.25.15-.35.26-.1.11-.18.24-.23.39-.06.15-.08.32-.08.49s.03.35.08.5c.05.15.13.28.23.39.1.11.21.2.34.26s.27.09.42.09c.17,0,.33-.04.46-.11.13-.07.24-.17.33-.3l.7.52c-.16.23-.37.39-.62.5-.25.11-.5.16-.77.16-.3,0-.58-.05-.83-.14-.25-.09-.47-.23-.65-.4-.18-.17-.33-.39-.43-.63s-.15-.53-.15-.83.05-.58.15-.83.25-.46.43-.63c.18-.18.4-.31.65-.4.25-.09.53-.14.83-.14.11,0,.22,0,.34.03s.23.05.35.1.22.1.33.17c.1.07.2.16.28.27l-.65.53Z"/>
      <path class="cls-1" d="M31.78,34.8h-.01c-.09.14-.21.24-.36.3-.15.06-.31.09-.47.09-.12,0-.24-.02-.35-.05-.11-.03-.21-.09-.3-.15-.09-.07-.16-.15-.21-.25-.05-.1-.08-.22-.08-.35,0-.15.03-.28.08-.38.06-.1.13-.19.23-.26.1-.07.21-.12.33-.16s.25-.07.38-.08c.13-.02.26-.03.39-.03.13,0,.25,0,.37,0,0-.14-.05-.26-.15-.34s-.22-.13-.37-.13c-.13,0-.25.03-.36.08-.11.06-.21.13-.29.23l-.43-.44c.15-.14.33-.25.53-.32.2-.07.41-.11.63-.11.24,0,.43.03.59.09.15.06.28.15.37.26.09.11.16.26.19.42s.05.36.05.58v1.34h-.75v-.33ZM31.58,33.98c-.06,0-.14,0-.23,0-.09,0-.18.02-.26.05-.08.03-.16.06-.22.11s-.09.12-.09.21c0,.1.04.17.12.22.08.05.17.07.26.07.08,0,.16-.01.23-.03s.14-.05.2-.09c.06-.04.1-.09.14-.15.03-.06.05-.13.05-.22v-.17h-.2Z"/>
      <path class="cls-1" d="M34.52,33.28c-.12-.15-.28-.22-.47-.22-.07,0-.13.02-.2.05-.06.03-.1.09-.1.17,0,.06.03.11.1.14.07.03.15.06.25.08s.21.05.33.08c.12.03.23.07.33.13.1.06.19.14.25.24.07.1.1.23.1.4s-.04.31-.11.42-.17.2-.28.27c-.11.07-.24.11-.39.14s-.29.04-.43.04c-.18,0-.37-.03-.56-.08-.19-.05-.35-.15-.48-.28l.49-.55c.08.09.16.16.25.21s.2.07.32.07c.09,0,.18-.01.25-.04.08-.03.11-.08.11-.15,0-.07-.03-.12-.1-.15-.07-.03-.15-.06-.25-.09-.1-.02-.21-.05-.33-.08-.12-.03-.23-.07-.33-.12-.1-.05-.19-.13-.25-.23-.07-.1-.1-.23-.1-.4,0-.15.03-.29.09-.4.06-.11.15-.2.25-.28.1-.07.22-.13.35-.16.13-.03.27-.05.41-.05.17,0,.35.02.52.08s.33.14.45.27l-.5.49Z"/>
      <path class="cls-1" d="M36.35,31.04v1.82h.01s.05-.1.09-.15c.04-.05.1-.1.16-.14.06-.04.13-.07.22-.1s.17-.04.27-.04c.21,0,.37.03.5.09s.22.15.29.26c.07.11.12.24.14.39.03.15.04.32.04.49v1.45h-.81v-1.29c0-.08,0-.15,0-.23,0-.08-.02-.16-.05-.23-.03-.07-.07-.12-.12-.17-.06-.04-.14-.06-.24-.06s-.19.02-.25.06-.11.09-.15.15-.06.13-.07.21c-.01.08-.02.16-.02.25v1.31h-.81v-4.09h.81Z"/>
      <path class="cls-1" d="M41.6,31.3h.7l1.67,3.83h-.95l-.33-.81h-1.49l-.32.81h-.93l1.65-3.83ZM41.93,32.42l-.47,1.19h.94l-.47-1.19Z"/>
      <path class="cls-1" d="M47.01,35.13h-.75v-.35h-.01s-.08.09-.13.14c-.05.05-.11.09-.18.13-.07.04-.15.07-.23.1-.08.02-.17.04-.26.04-.19,0-.37-.03-.53-.1-.16-.07-.29-.16-.41-.28-.11-.12-.2-.26-.26-.43s-.09-.35-.09-.55c0-.18.03-.36.08-.53.06-.17.13-.32.24-.45s.23-.23.38-.31.32-.12.5-.12c.17,0,.33.03.47.08.15.05.27.14.36.27h.01v-1.74h.81v4.09ZM46.26,33.82c0-.2-.06-.36-.17-.48s-.27-.18-.48-.18-.36.06-.48.18c-.11.12-.17.28-.17.48s.06.36.17.48c.11.12.27.18.48.18s.37-.06.48-.18.17-.28.17-.48Z"/>
      <path class="cls-1" d="M47.38,32.5h.88l.66,1.78h.01l.62-1.78h.82l-1.04,2.63h-.86l-1.09-2.63Z"/>
      <path class="cls-1" d="M52.31,34.8h-.01c-.09.14-.21.24-.36.3s-.31.09-.47.09c-.12,0-.24-.02-.36-.05-.11-.03-.21-.09-.3-.15-.09-.07-.15-.15-.21-.25s-.08-.22-.08-.35c0-.15.03-.28.08-.38.06-.1.13-.19.23-.26.1-.07.2-.12.33-.16s.25-.07.38-.08.26-.03.39-.03c.13,0,.25,0,.36,0,0-.14-.05-.26-.15-.34s-.23-.13-.36-.13-.26.03-.37.08c-.11.06-.21.13-.29.23l-.43-.44c.15-.14.33-.25.53-.32.2-.07.41-.11.63-.11.24,0,.43.03.59.09.15.06.28.15.37.26.09.11.16.26.19.42.04.17.05.36.05.58v1.34h-.75v-.33ZM52.11,33.98c-.06,0-.14,0-.23,0-.09,0-.18.02-.27.05-.08.03-.16.06-.22.11s-.09.12-.09.21c0,.1.04.17.12.22.08.05.17.07.26.07.08,0,.16-.01.23-.03s.14-.05.2-.09c.06-.04.1-.09.14-.15.03-.06.05-.13.05-.22v-.17h-.2Z"/>
      <path class="cls-1" d="M53.57,32.5h.78v.36h.01s.06-.1.11-.15c.05-.05.1-.1.17-.14.06-.04.14-.07.22-.1.08-.03.17-.04.27-.04.21,0,.37.03.5.09s.22.15.29.26c.07.11.12.24.14.39s.04.32.04.49v1.45h-.81v-1.29c0-.08,0-.15,0-.23s-.02-.16-.05-.23c-.03-.07-.07-.12-.12-.17-.06-.04-.14-.06-.24-.06s-.19.02-.25.06c-.06.04-.11.09-.15.15-.03.06-.06.13-.07.21-.01.08-.02.16-.02.25v1.31h-.81v-2.63Z"/>
      <path class="cls-1" d="M58.45,33.35c-.04-.06-.1-.11-.17-.14s-.15-.06-.23-.06c-.21,0-.37.06-.48.18-.11.12-.17.28-.17.48s.06.36.17.48c.11.12.27.18.48.18.09,0,.17-.02.23-.06s.12-.09.17-.14l.54.56c-.13.13-.27.22-.45.27-.17.05-.34.08-.49.08-.2,0-.39-.03-.57-.1-.18-.06-.33-.16-.47-.28s-.24-.27-.31-.44-.11-.36-.11-.57.04-.4.11-.57.18-.31.31-.44c.13-.12.29-.21.47-.28s.37-.1.57-.1c.15,0,.32.03.49.08.17.05.32.14.45.27l-.54.56Z"/>
      <path class="cls-1" d="M61.76,34.68c-.13.17-.29.29-.49.38-.2.09-.4.14-.62.14s-.39-.03-.57-.1c-.18-.06-.33-.16-.47-.28s-.24-.27-.31-.44-.11-.36-.11-.57.04-.4.11-.57.18-.31.31-.44c.13-.12.29-.21.47-.28.18-.06.37-.1.57-.1.19,0,.36.03.51.1s.28.16.39.28c.11.12.19.27.24.44.06.17.09.36.09.57v.25h-1.88c.03.15.1.28.21.37.11.09.24.14.4.14.13,0,.25-.03.34-.09.09-.06.17-.14.24-.23l.57.42ZM61.08,33.52c0-.14-.04-.25-.14-.35-.09-.1-.21-.15-.36-.15-.09,0-.17.01-.24.04-.07.03-.13.07-.18.11-.05.05-.09.1-.11.16s-.04.12-.05.19h1.07Z"/>
      <path class="cls-1" d="M64.64,31.08v5.41h-.68v-5.41h.68Z"/>
      <path class="cls-1" d="M66.89,31.3h1.48c.19,0,.38.02.55.06s.33.1.46.19.24.21.31.36c.08.15.12.34.12.56,0,.27-.07.5-.21.69-.14.19-.35.31-.62.36l.97,1.62h-1.01l-.8-1.53h-.42v1.53h-.84v-3.83ZM67.73,32.89h.5c.08,0,.16,0,.24,0,.08,0,.16-.02.23-.05.07-.03.12-.07.17-.13s.07-.14.07-.24c0-.1-.02-.18-.06-.23-.04-.06-.09-.1-.15-.13-.06-.03-.13-.05-.21-.06-.08-.01-.16-.02-.23-.02h-.55v.87Z"/>
      <path class="cls-1" d="M72.78,34.68c-.13.17-.29.29-.49.38-.2.09-.4.14-.62.14s-.39-.03-.57-.1c-.18-.06-.33-.16-.47-.28s-.24-.27-.31-.44-.11-.36-.11-.57.04-.4.11-.57.18-.31.31-.44c.13-.12.29-.21.47-.28.18-.06.37-.1.57-.1.19,0,.36.03.51.1s.28.16.39.28c.11.12.19.27.24.44.06.17.09.36.09.57v.25h-1.88c.03.15.1.28.21.37.11.09.24.14.4.14.13,0,.25-.03.34-.09.09-.06.17-.14.24-.23l.57.42ZM72.09,33.52c0-.14-.04-.25-.14-.35-.09-.1-.21-.15-.36-.15-.09,0-.17.01-.24.04-.07.03-.13.07-.18.11-.05.05-.09.1-.11.16s-.04.12-.05.19h1.07Z"/>
      <path class="cls-1" d="M75.17,33.35c-.04-.06-.1-.11-.17-.14-.07-.04-.15-.06-.23-.06-.21,0-.36.06-.48.18s-.17.28-.17.48.06.36.17.48.27.18.48.18c.09,0,.17-.02.23-.06.06-.04.12-.09.17-.14l.54.56c-.13.13-.28.22-.45.27-.17.05-.33.08-.49.08-.2,0-.39-.03-.57-.1-.18-.06-.33-.16-.46-.28-.13-.12-.24-.27-.31-.44-.08-.17-.11-.36-.11-.57s.04-.4.11-.57c.08-.17.18-.31.31-.44.13-.12.29-.21.46-.28s.37-.1.57-.1c.16,0,.32.03.49.08.17.05.32.14.45.27l-.54.56Z"/>
      <path class="cls-1" d="M78.49,34.68c-.13.17-.29.29-.49.38-.2.09-.4.14-.62.14-.2,0-.39-.03-.57-.1-.18-.06-.33-.16-.46-.28-.13-.12-.24-.27-.31-.44-.08-.17-.11-.36-.11-.57s.04-.4.11-.57c.08-.17.18-.31.31-.44.13-.12.29-.21.46-.28.18-.06.37-.1.57-.1.19,0,.36.03.51.1s.28.16.39.28c.11.12.19.27.25.44.06.17.09.36.09.57v.25h-1.88c.03.15.1.28.21.37.11.09.24.14.4.14.13,0,.25-.03.34-.09.09-.06.17-.14.24-.23l.57.42ZM77.8,33.52c0-.14-.04-.25-.14-.35-.09-.1-.21-.15-.36-.15-.09,0-.17.01-.24.04-.07.03-.13.07-.18.11-.05.05-.09.1-.11.16-.03.06-.04.12-.05.19h1.07Z"/>
      <path class="cls-1" d="M79.05,31.68c0-.13.05-.24.14-.33.09-.09.2-.14.33-.14s.24.05.33.14.14.2.14.33-.05.24-.14.33c-.09.09-.2.14-.33.14s-.24-.05-.33-.14c-.09-.09-.14-.2-.14-.33ZM79.11,32.5h.81v2.63h-.81v-2.63Z"/>
      <path class="cls-1" d="M80.23,32.5h.88l.66,1.78h.01l.62-1.78h.82l-1.04,2.63h-.86l-1.09-2.63Z"/>
      <path class="cls-1" d="M85.17,34.8h-.01c-.09.14-.21.24-.36.3s-.31.09-.47.09c-.12,0-.24-.02-.36-.05-.11-.03-.21-.09-.3-.15-.09-.07-.15-.15-.21-.25s-.08-.22-.08-.35c0-.15.03-.28.08-.38.06-.1.13-.19.23-.26.1-.07.2-.12.33-.16s.25-.07.38-.08.26-.03.39-.03c.13,0,.25,0,.36,0,0-.14-.05-.26-.15-.34s-.23-.13-.36-.13-.26.03-.37.08c-.11.06-.21.13-.29.23l-.43-.44c.15-.14.33-.25.53-.32.2-.07.41-.11.63-.11.24,0,.43.03.59.09.15.06.28.15.37.26.09.11.16.26.19.42.04.17.05.36.05.58v1.34h-.75v-.33ZM84.97,33.98c-.06,0-.14,0-.23,0-.09,0-.18.02-.27.05-.08.03-.16.06-.22.11s-.09.12-.09.21c0,.1.04.17.12.22.08.05.17.07.26.07.08,0,.16-.01.23-.03s.14-.05.2-.09c.06-.04.1-.09.14-.15.03-.06.05-.13.05-.22v-.17h-.2Z"/>
      <path class="cls-1" d="M86.5,31.04h.81v1.74h.01c.09-.13.21-.22.36-.27.15-.05.3-.08.47-.08.19,0,.35.04.5.12.15.08.27.18.37.31.1.13.18.28.24.45.05.17.08.34.08.53,0,.2-.03.38-.09.55-.06.17-.15.31-.26.43-.11.12-.25.21-.41.28-.16.07-.34.1-.53.1-.09,0-.18-.01-.27-.04-.08-.03-.16-.06-.23-.1-.07-.04-.13-.08-.18-.13-.05-.05-.1-.1-.13-.14h-.01v.35h-.75v-4.09ZM87.24,33.82c0,.2.06.36.17.48s.27.18.48.18.37-.06.48-.18c.11-.12.17-.28.17-.48s-.06-.36-.17-.48c-.11-.12-.27-.18-.48-.18s-.37.06-.48.18-.17.28-.17.48Z"/>
      <path class="cls-1" d="M89.84,31.04h.81v4.09h-.81v-4.09Z"/>
      <path class="cls-1" d="M93.72,34.68c-.13.17-.29.29-.49.38-.2.09-.4.14-.62.14-.2,0-.39-.03-.57-.1-.18-.06-.33-.16-.46-.28-.13-.12-.24-.27-.31-.44-.08-.17-.11-.36-.11-.57s.04-.4.11-.57c.08-.17.18-.31.31-.44.13-.12.29-.21.46-.28.18-.06.37-.1.57-.1.19,0,.36.03.51.1s.28.16.39.28c.11.12.19.27.25.44.06.17.09.36.09.57v.25h-1.88c.03.15.1.28.21.37.11.09.24.14.4.14.13,0,.25-.03.34-.09.09-.06.17-.14.24-.23l.57.42ZM93.03,33.52c0-.14-.04-.25-.14-.35-.09-.1-.21-.15-.36-.15-.09,0-.17.01-.24.04-.07.03-.13.07-.18.11-.05.05-.09.1-.11.16-.03.06-.04.12-.05.19h1.07Z"/>
      <path class="cls-1" d="M96.07,31.3h2.57v.78h-1.73v.78h1.6v.78h-1.6v1.49h-.84v-3.83Z"/>
      <path class="cls-1" d="M100.8,34.8h-.01c-.09.14-.21.24-.36.3-.15.06-.31.09-.47.09-.12,0-.24-.02-.35-.05-.11-.03-.21-.09-.3-.15-.09-.07-.16-.15-.21-.25-.05-.1-.08-.22-.08-.35,0-.15.03-.28.08-.38.06-.1.13-.19.23-.26.1-.07.21-.12.33-.16s.25-.07.38-.08c.13-.02.26-.03.39-.03.13,0,.25,0,.37,0,0-.14-.05-.26-.15-.34s-.22-.13-.37-.13c-.13,0-.25.03-.36.08-.11.06-.21.13-.29.23l-.43-.44c.15-.14.33-.25.53-.32.2-.07.41-.11.63-.11.24,0,.43.03.59.09.15.06.28.15.37.26.09.11.16.26.19.42s.05.36.05.58v1.34h-.75v-.33ZM100.59,33.98c-.06,0-.14,0-.23,0-.09,0-.18.02-.26.05-.08.03-.16.06-.22.11s-.09.12-.09.21c0,.1.04.17.12.22.08.05.17.07.26.07.08,0,.16-.01.23-.03s.14-.05.2-.09c.06-.04.1-.09.14-.15.03-.06.05-.13.05-.22v-.17h-.2Z"/>
      <path class="cls-1" d="M103.83,33.35c-.04-.06-.1-.11-.17-.14-.07-.04-.15-.06-.23-.06-.21,0-.37.06-.48.18-.11.12-.17.28-.17.48s.06.36.17.48c.11.12.27.18.48.18.09,0,.17-.02.23-.06.06-.04.12-.09.17-.14l.54.56c-.13.13-.27.22-.45.27-.17.05-.33.08-.49.08-.2,0-.39-.03-.57-.1-.18-.06-.33-.16-.47-.28s-.24-.27-.31-.44-.11-.36-.11-.57.04-.4.11-.57.18-.31.31-.44c.13-.12.29-.21.47-.28.18-.06.37-.1.57-.1.15,0,.32.03.49.08.17.05.32.14.45.27l-.54.56Z"/>
      <path class="cls-1" d="M106.45,33.15h-.71v.88c0,.07,0,.14.01.2,0,.06.02.11.05.15.03.04.06.08.12.1s.12.03.21.03c.04,0,.1,0,.17-.01.07,0,.12-.03.16-.06v.68c-.09.03-.18.05-.28.06-.1.01-.19.02-.29.02-.14,0-.26-.01-.38-.04-.11-.03-.22-.07-.3-.14s-.15-.15-.2-.25c-.05-.1-.07-.22-.07-.37v-1.25h-.52v-.65h.52v-.78h.81v.78h.71v.65Z"/>
      <path class="cls-1" d="M106.76,33.82c0-.21.04-.4.11-.57s.18-.31.31-.44c.13-.12.29-.21.47-.28s.37-.1.57-.1.39.03.57.1c.18.06.33.16.47.28.13.12.24.27.31.44.08.17.11.36.11.57s-.04.4-.11.57c-.08.17-.18.31-.31.44s-.29.21-.47.28c-.18.06-.37.1-.57.1s-.39-.03-.57-.1c-.18-.06-.33-.16-.47-.28-.13-.12-.23-.27-.31-.44s-.11-.36-.11-.57ZM107.57,33.82c0,.2.06.36.17.48.11.12.27.18.48.18s.37-.06.48-.18.17-.28.17-.48-.06-.36-.17-.48-.27-.18-.48-.18-.36.06-.48.18c-.11.12-.17.28-.17.48Z"/>
      <path class="cls-1" d="M110.16,32.5h.81v.42h.01c.09-.16.19-.28.31-.36s.27-.12.45-.12c.05,0,.09,0,.14,0,.05,0,.09.01.13.02v.74c-.06-.02-.11-.03-.17-.04-.06,0-.11-.01-.18-.01-.15,0-.28.02-.37.06-.09.04-.16.1-.21.18-.05.08-.08.17-.09.28-.02.11-.02.23-.02.36v1.1h-.81v-2.63Z"/>
      <path class="cls-1" d="M112.3,31.68c0-.13.05-.24.14-.33s.2-.14.33-.14.24.05.33.14.14.2.14.33-.05.24-.14.33c-.09.09-.2.14-.33.14s-.24-.05-.33-.14c-.09-.09-.14-.2-.14-.33ZM112.37,32.5h.81v2.63h-.81v-2.63Z"/>
      <path class="cls-1" d="M113.76,32.5h.78v.36h.01s.06-.1.11-.15c.05-.05.1-.1.17-.14s.14-.07.22-.1.17-.04.27-.04c.21,0,.37.03.5.09s.22.15.29.26c.07.11.12.24.14.39.03.15.04.32.04.49v1.45h-.81v-1.29c0-.08,0-.15,0-.23,0-.08-.02-.16-.05-.23-.03-.07-.07-.12-.12-.17-.06-.04-.14-.06-.24-.06s-.19.02-.25.06-.11.09-.15.15-.06.13-.07.21c-.01.08-.02.16-.02.25v1.31h-.81v-2.63Z"/>
      <path class="cls-1" d="M119.63,34.91c0,.5-.13.88-.38,1.13-.25.26-.63.39-1.14.39-.23,0-.47-.03-.69-.08-.23-.05-.44-.15-.63-.31l.45-.67c.13.1.26.19.4.25.14.06.29.09.46.09.25,0,.43-.06.55-.18.12-.12.18-.28.18-.46v-.25h-.01c-.09.13-.21.22-.35.27-.14.05-.27.08-.39.08-.19,0-.37-.03-.53-.1-.16-.07-.3-.16-.41-.28-.11-.12-.2-.26-.26-.43-.06-.17-.09-.35-.09-.55,0-.17.03-.34.08-.51s.13-.31.24-.44c.1-.13.23-.23.37-.31.15-.08.32-.12.5-.12.12,0,.22.01.32.04.1.03.18.06.26.1.08.04.14.08.19.13s.1.1.13.14h.01v-.35h.75v2.41ZM117.58,33.8c0,.09.02.17.05.25s.08.15.14.21c.06.06.13.11.21.14.08.04.16.05.26.05s.18-.02.25-.05.15-.08.21-.14.11-.13.14-.21c.03-.08.05-.16.05-.25s-.02-.17-.05-.25c-.03-.08-.08-.15-.14-.21s-.13-.11-.21-.14-.16-.05-.25-.05-.18.02-.26.05c-.08.04-.15.08-.21.14-.06.06-.11.13-.14.21-.03.08-.05.16-.05.25Z"/>
      <path class="cls-1" d="M122.53,31.08v5.41h-.68v-5.41h.68Z"/>
    </g>
    <g>
      <path class="cls-1" d="M.69,37.79h1.48c.19,0,.38.02.55.06.18.04.33.1.46.19.13.09.24.21.31.36s.12.34.12.56c0,.27-.07.5-.21.69s-.35.31-.62.36l.97,1.62h-1.01l-.8-1.53h-.42v1.53h-.84v-3.83ZM1.54,39.38h.5c.08,0,.16,0,.24,0,.08,0,.16-.02.23-.05.07-.03.13-.07.17-.13.05-.06.07-.14.07-.24,0-.1-.02-.18-.06-.23s-.09-.1-.15-.13c-.06-.03-.13-.05-.21-.06-.08-.01-.16-.02-.23-.02h-.55v.87Z"/>
      <path class="cls-1" d="M6.58,41.17c-.13.17-.29.29-.49.38-.2.09-.4.14-.62.14-.2,0-.39-.03-.57-.1-.18-.06-.33-.16-.46-.28-.13-.12-.24-.27-.31-.44-.08-.17-.11-.36-.11-.57s.04-.4.11-.57c.08-.17.18-.31.31-.44.13-.12.29-.21.46-.28.18-.06.37-.1.57-.1.19,0,.36.03.51.1s.28.16.39.28c.11.12.19.27.25.44.06.17.09.36.09.57v.25h-1.88c.03.15.1.28.21.37.11.09.24.14.4.14.13,0,.25-.03.34-.09.09-.06.17-.14.24-.23l.57.42ZM5.89,40.01c0-.14-.04-.25-.14-.35-.09-.1-.21-.15-.36-.15-.09,0-.17.01-.24.04-.07.03-.13.07-.18.11-.05.05-.09.1-.11.16-.03.06-.04.12-.05.19h1.07Z"/>
      <path class="cls-1" d="M6.92,38.99h.88l.67,1.78h.01l.62-1.78h.82l-1.04,2.63h-.86l-1.09-2.63Z"/>
      <path class="cls-1" d="M12.69,41.17c-.13.17-.29.29-.49.38-.2.09-.4.14-.62.14-.2,0-.39-.03-.57-.1-.18-.06-.33-.16-.46-.28-.13-.12-.24-.27-.31-.44-.08-.17-.11-.36-.11-.57s.04-.4.11-.57c.08-.17.18-.31.31-.44.13-.12.29-.21.46-.28.18-.06.37-.1.57-.1.19,0,.36.03.51.1s.28.16.39.28c.11.12.19.27.25.44.06.17.09.36.09.57v.25h-1.88c.03.15.1.28.21.37.11.09.24.14.4.14.13,0,.25-.03.34-.09.09-.06.17-.14.24-.23l.57.42ZM12.01,40.01c0-.14-.04-.25-.14-.35-.09-.1-.21-.15-.36-.15-.09,0-.17.01-.24.04-.07.03-.13.07-.18.11-.05.05-.09.1-.11.16-.03.06-.04.12-.05.19h1.07Z"/>
      <path class="cls-1" d="M13.31,38.99h.78v.36h.01s.06-.1.11-.15c.05-.05.1-.1.17-.14s.14-.07.22-.1.17-.04.27-.04c.21,0,.37.03.5.09s.22.15.29.26c.07.11.12.24.14.39.03.15.04.32.04.49v1.45h-.81v-1.29c0-.08,0-.15,0-.23,0-.08-.02-.16-.05-.23-.03-.07-.07-.12-.12-.17-.06-.04-.14-.06-.24-.06s-.19.02-.25.06-.11.09-.15.15-.06.13-.07.21c-.01.08-.02.16-.02.25v1.31h-.81v-2.63Z"/>
      <path class="cls-1" d="M18.94,41.62h-.78v-.36h-.01c-.03.05-.07.1-.11.15-.05.05-.1.1-.16.13-.06.04-.14.07-.22.1-.08.02-.17.04-.27.04-.21,0-.37-.03-.5-.1s-.23-.15-.3-.26c-.07-.11-.12-.24-.14-.39s-.03-.32-.03-.49v-1.45h.81v1.29c0,.08,0,.15,0,.24s.02.16.05.22c.03.07.07.12.12.17.05.04.14.06.24.06s.19-.02.25-.06.11-.09.15-.15c.03-.06.06-.13.07-.21.01-.08.02-.16.02-.25v-1.31h.81v2.63Z"/>
      <path class="cls-1" d="M22.01,41.17c-.13.17-.29.29-.49.38-.2.09-.4.14-.62.14s-.39-.03-.57-.1c-.18-.06-.33-.16-.47-.28s-.24-.27-.31-.44-.11-.36-.11-.57.04-.4.11-.57.18-.31.31-.44c.13-.12.29-.21.47-.28.18-.06.37-.1.57-.1.19,0,.36.03.51.1s.28.16.39.28c.11.12.19.27.24.44.06.17.09.36.09.57v.25h-1.88c.03.15.1.28.21.37.11.09.24.14.4.14.13,0,.25-.03.34-.09.09-.06.17-.14.24-.23l.57.42ZM21.32,40.01c0-.14-.04-.25-.14-.35-.09-.1-.21-.15-.36-.15-.09,0-.17.01-.24.04-.07.03-.13.07-.18.11-.05.05-.09.1-.11.16s-.04.12-.05.19h1.07Z"/>
      <path class="cls-1" d="M24.36,37.79h2.57v.78h-1.72v.78h1.6v.78h-1.6v1.49h-.84v-3.83Z"/>
      <path class="cls-1" d="M27.38,38.17c0-.13.05-.24.14-.33s.2-.14.33-.14.24.05.33.14c.09.09.14.2.14.33s-.05.24-.14.33c-.09.09-.2.14-.33.14s-.24-.05-.33-.14c-.09-.09-.14-.2-.14-.33ZM27.44,38.99h.81v2.63h-.81v-2.63Z"/>
      <path class="cls-1" d="M28.84,38.99h.78v.36h.01s.06-.1.11-.15c.05-.05.1-.1.17-.14s.14-.07.22-.1.17-.04.27-.04c.21,0,.37.03.5.09s.22.15.29.26c.07.11.12.24.14.39.03.15.04.32.04.49v1.45h-.81v-1.29c0-.08,0-.15,0-.23,0-.08-.02-.16-.05-.23-.03-.07-.07-.12-.12-.17-.06-.04-.14-.06-.24-.06s-.19.02-.25.06-.11.09-.15.15-.06.13-.07.21c-.01.08-.02.16-.02.25v1.31h-.81v-2.63Z"/>
      <path class="cls-1" d="M33.59,41.29h-.01c-.09.14-.21.24-.36.3-.15.06-.31.09-.47.09-.12,0-.24-.02-.36-.05-.11-.03-.21-.09-.3-.15-.09-.07-.15-.15-.21-.25s-.08-.22-.08-.35c0-.15.03-.28.08-.38s.13-.19.23-.26c.1-.07.21-.12.33-.16s.25-.07.38-.08.26-.03.4-.03c.13,0,.25,0,.36,0,0-.14-.05-.26-.15-.34-.1-.08-.23-.13-.37-.13s-.26.03-.37.08c-.11.06-.21.13-.29.23l-.43-.44c.15-.14.33-.25.53-.32.2-.07.41-.11.63-.11.24,0,.43.03.59.09.15.06.28.15.37.26.09.11.16.26.19.42s.05.36.05.58v1.34h-.75v-.33ZM33.39,40.47c-.06,0-.14,0-.23,0-.09,0-.18.02-.26.05-.08.03-.16.06-.22.11-.06.05-.09.12-.09.21,0,.1.04.17.12.22.08.05.17.07.26.07.08,0,.16-.01.23-.03.07-.02.14-.05.2-.09s.1-.09.14-.15c.03-.06.05-.13.05-.22v-.17h-.2Z"/>
      <path class="cls-1" d="M34.84,38.99h.78v.36h.01s.06-.1.11-.15c.05-.05.1-.1.17-.14s.14-.07.22-.1c.08-.03.17-.04.27-.04.21,0,.37.03.5.09s.23.15.3.26c.07.11.12.24.14.39.02.15.04.32.04.49v1.45h-.81v-1.29c0-.08,0-.15,0-.23s-.02-.16-.05-.23c-.03-.07-.07-.12-.12-.17-.06-.04-.14-.06-.24-.06s-.19.02-.25.06-.11.09-.15.15-.06.13-.07.21c-.01.08-.02.16-.02.25v1.31h-.81v-2.63Z"/>
      <path class="cls-1" d="M39.73,39.84c-.04-.06-.1-.11-.17-.14-.07-.04-.15-.06-.23-.06-.21,0-.36.06-.48.18-.11.12-.17.28-.17.48s.06.36.17.48c.11.12.27.18.48.18.09,0,.17-.02.23-.06.06-.04.12-.09.17-.14l.54.56c-.13.13-.28.22-.45.27-.17.05-.33.08-.49.08-.2,0-.39-.03-.57-.1-.18-.06-.33-.16-.46-.28-.13-.12-.24-.27-.31-.44-.08-.17-.11-.36-.11-.57s.04-.4.11-.57c.08-.17.18-.31.31-.44.13-.12.29-.21.46-.28.18-.06.37-.1.57-.1.16,0,.32.03.49.08.17.05.32.14.45.27l-.54.56Z"/>
      <path class="cls-1" d="M40.5,38.17c0-.13.05-.24.14-.33.09-.09.2-.14.33-.14s.24.05.33.14.14.2.14.33-.05.24-.14.33c-.09.09-.2.14-.33.14s-.24-.05-.33-.14c-.09-.09-.14-.2-.14-.33ZM40.57,38.99h.81v2.63h-.81v-2.63Z"/>
      <path class="cls-1" d="M41.96,38.99h.78v.36h.01s.06-.1.11-.15c.05-.05.1-.1.17-.14s.14-.07.22-.1c.08-.03.17-.04.27-.04.21,0,.37.03.5.09s.23.15.3.26c.07.11.12.24.14.39.02.15.04.32.04.49v1.45h-.81v-1.29c0-.08,0-.15,0-.23s-.02-.16-.05-.23c-.03-.07-.07-.12-.12-.17-.06-.04-.14-.06-.24-.06s-.19.02-.25.06-.11.09-.15.15-.06.13-.07.21c-.01.08-.02.16-.02.25v1.31h-.81v-2.63Z"/>
      <path class="cls-1" d="M47.82,41.4c0,.5-.12.88-.37,1.13-.25.26-.63.39-1.14.39-.23,0-.46-.03-.69-.08-.23-.05-.44-.15-.63-.31l.45-.67c.13.1.26.19.4.25.14.06.29.09.46.09.25,0,.43-.06.55-.18.12-.12.18-.28.18-.46v-.25h-.01c-.09.13-.21.22-.35.27-.14.05-.27.08-.39.08-.19,0-.37-.03-.53-.1-.16-.07-.29-.16-.41-.28-.11-.12-.2-.26-.26-.43-.06-.17-.09-.35-.09-.55,0-.17.03-.34.08-.51s.14-.31.24-.44c.1-.13.23-.23.38-.31.15-.08.31-.12.5-.12.11,0,.22.01.32.04.1.03.18.06.26.1s.14.08.19.13.1.1.13.14h.01v-.35h.75v2.41ZM45.78,40.29c0,.09.02.17.05.25s.08.15.14.21c.06.06.13.11.21.14s.16.05.26.05.18-.02.25-.05.15-.08.21-.14c.06-.06.11-.13.14-.21.03-.08.05-.16.05-.25s-.02-.17-.05-.25c-.03-.08-.08-.15-.14-.21-.06-.06-.13-.11-.21-.14s-.16-.05-.25-.05-.18.02-.26.05-.15.08-.21.14c-.06.06-.11.13-.14.21-.03.08-.05.16-.05.25Z"/>
      <path class="cls-1" d="M50.73,37.57v5.41h-.68v-5.41h.68Z"/>
      <path class="cls-1" d="M52.58,37.79h.92l.61,2.46h.01l.8-2.46h.78l.79,2.52h.01l.64-2.52h.85l-1.12,3.83h-.75l-.84-2.65h-.01l-.84,2.65h-.72l-1.14-3.83Z"/>
      <path class="cls-1" d="M58.09,40.31c0-.21.04-.4.11-.57.08-.17.18-.31.31-.44.13-.12.29-.21.47-.28.18-.06.37-.1.57-.1s.39.03.57.1.33.16.47.28c.13.12.24.27.31.44s.11.36.11.57-.04.4-.11.57-.18.31-.31.44-.29.21-.47.28c-.18.06-.37.1-.57.1s-.39-.03-.57-.1c-.18-.06-.33-.16-.47-.28-.13-.12-.23-.27-.31-.44-.08-.17-.11-.36-.11-.57ZM58.9,40.31c0,.2.06.36.17.48s.27.18.48.18.37-.06.48-.18c.11-.12.17-.28.17-.48s-.06-.36-.17-.48c-.11-.12-.27-.18-.48-.18s-.37.06-.48.18-.17.28-.17.48Z"/>
      <path class="cls-1" d="M61.49,38.99h.81v.42h.01c.09-.16.19-.28.31-.36.12-.08.27-.12.45-.12.05,0,.09,0,.14,0,.05,0,.09.01.13.02v.74c-.06-.02-.11-.03-.17-.04s-.11-.01-.18-.01c-.16,0-.28.02-.37.06-.09.04-.16.1-.21.18s-.08.17-.09.28c-.02.11-.02.23-.02.36v1.1h-.81v-2.63Z"/>
      <path class="cls-1" d="M63.69,37.53h.81v2.5l.9-1.04h1l-1.04,1.18,1.07,1.44h-1.02l-.89-1.33h-.01v1.33h-.81v-4.09Z"/>
      <path class="cls-1" d="M66.64,38.17c0-.13.05-.24.14-.33s.2-.14.33-.14.24.05.33.14.14.2.14.33-.05.24-.14.33c-.09.09-.2.14-.33.14s-.24-.05-.33-.14c-.09-.09-.14-.2-.14-.33ZM66.71,38.99h.81v2.63h-.81v-2.63Z"/>
      <path class="cls-1" d="M68.1,38.99h.78v.36h.01s.06-.1.11-.15c.05-.05.1-.1.17-.14.07-.04.14-.07.22-.1s.17-.04.27-.04c.21,0,.37.03.5.09s.23.15.29.26c.07.11.12.24.14.39.03.15.04.32.04.49v1.45h-.81v-1.29c0-.08,0-.15,0-.23,0-.08-.02-.16-.05-.23-.03-.07-.07-.12-.12-.17-.06-.04-.14-.06-.24-.06s-.19.02-.25.06c-.07.04-.11.09-.15.15-.03.06-.06.13-.07.21-.01.08-.02.16-.02.25v1.31h-.81v-2.63Z"/>
      <path class="cls-1" d="M73.97,41.4c0,.5-.13.88-.38,1.13-.25.26-.63.39-1.14.39-.23,0-.47-.03-.69-.08-.23-.05-.44-.15-.63-.31l.45-.67c.13.1.26.19.4.25.14.06.29.09.46.09.25,0,.43-.06.55-.18.12-.12.18-.28.18-.46v-.25h-.01c-.09.13-.21.22-.35.27-.14.05-.27.08-.39.08-.19,0-.37-.03-.53-.1-.16-.07-.3-.16-.41-.28-.11-.12-.2-.26-.26-.43-.06-.17-.09-.35-.09-.55,0-.17.03-.34.08-.51s.13-.31.24-.44c.1-.13.23-.23.37-.31.15-.08.32-.12.5-.12.12,0,.22.01.32.04.1.03.18.06.26.1.08.04.14.08.19.13s.1.1.13.14h.01v-.35h.75v2.41ZM71.92,40.29c0,.09.02.17.05.25s.08.15.14.21c.06.06.13.11.21.14.08.04.16.05.26.05s.18-.02.25-.05.15-.08.21-.14.11-.13.14-.21c.03-.08.05-.16.05-.25s-.02-.17-.05-.25c-.03-.08-.08-.15-.14-.21s-.13-.11-.21-.14-.16-.05-.25-.05-.18.02-.26.05c-.08.04-.15.08-.21.14-.06.06-.11.13-.14.21-.03.08-.05.16-.05.25Z"/>
      <path class="cls-1" d="M78.82,38.79c-.08-.1-.19-.18-.31-.23-.12-.05-.26-.08-.42-.08s-.31.03-.44.09-.25.15-.35.26c-.1.11-.18.24-.23.39-.06.15-.08.32-.08.49s.03.35.08.5c.06.15.13.28.23.39.1.11.21.2.34.26s.27.09.42.09c.17,0,.33-.04.46-.11.13-.07.24-.17.33-.3l.7.52c-.16.23-.37.39-.62.5-.25.11-.5.16-.77.16-.3,0-.57-.05-.83-.14-.25-.09-.47-.23-.65-.4-.18-.17-.33-.39-.43-.63-.1-.25-.15-.53-.15-.83s.05-.58.15-.83c.1-.25.25-.46.43-.63.18-.18.4-.31.65-.4.25-.09.53-.14.83-.14.11,0,.22,0,.34.03.12.02.23.05.35.1.11.04.22.1.33.17.1.07.2.16.28.27l-.65.53Z"/>
      <path class="cls-1" d="M81.57,41.29h-.01c-.09.14-.21.24-.36.3-.15.06-.31.09-.47.09-.12,0-.24-.02-.35-.05-.11-.03-.21-.09-.3-.15-.09-.07-.16-.15-.21-.25-.05-.1-.08-.22-.08-.35,0-.15.03-.28.08-.38s.13-.19.23-.26c.1-.07.2-.12.33-.16s.25-.07.38-.08c.13-.02.26-.03.39-.03.13,0,.25,0,.37,0,0-.14-.05-.26-.15-.34-.1-.08-.22-.13-.36-.13s-.26.03-.36.08c-.11.06-.21.13-.3.23l-.43-.44c.15-.14.33-.25.53-.32.2-.07.41-.11.63-.11.24,0,.43.03.59.09.15.06.28.15.37.26.09.11.16.26.19.42.04.17.05.36.05.58v1.34h-.75v-.33ZM81.37,40.47c-.06,0-.14,0-.23,0-.09,0-.18.02-.27.05-.08.03-.16.06-.22.11-.06.05-.09.12-.09.21,0,.1.04.17.12.22.08.05.17.07.26.07.08,0,.16-.01.23-.03.07-.02.14-.05.2-.09s.1-.09.14-.15c.03-.06.05-.13.05-.22v-.17h-.2Z"/>
      <path class="cls-1" d="M82.9,38.99h.75v.35h.01s.08-.09.13-.14.11-.09.18-.13c.07-.04.15-.07.23-.1s.17-.04.27-.04c.19,0,.37.03.53.1s.29.16.41.28c.11.12.2.26.26.43s.09.35.09.55c0,.18-.03.36-.08.53s-.13.32-.24.45c-.1.13-.23.23-.38.31-.15.08-.32.12-.5.12-.17,0-.33-.03-.47-.08-.15-.05-.27-.14-.36-.27h-.01v1.51h-.81v-3.86ZM83.65,40.31c0,.2.06.36.17.48.11.12.27.18.48.18s.36-.06.48-.18c.11-.12.17-.28.17-.48s-.06-.36-.17-.48c-.11-.12-.27-.18-.48-.18s-.37.06-.48.18c-.11.12-.17.28-.17.48Z"/>
      <path class="cls-1" d="M86.18,38.17c0-.13.05-.24.14-.33s.2-.14.33-.14.24.05.33.14c.09.09.14.2.14.33s-.05.24-.14.33c-.09.09-.2.14-.33.14s-.24-.05-.33-.14c-.09-.09-.14-.2-.14-.33ZM86.24,38.99h.81v2.63h-.81v-2.63Z"/>
      <path class="cls-1" d="M89.43,39.64h-.71v.88c0,.07,0,.14.01.2s.02.11.05.15c.02.04.06.08.12.1s.12.03.21.03c.04,0,.1,0,.17-.01.07,0,.12-.03.16-.06v.68c-.09.03-.18.05-.28.06-.1.01-.19.02-.29.02-.14,0-.26-.01-.38-.04-.12-.03-.22-.07-.3-.14s-.15-.15-.2-.25c-.05-.1-.07-.22-.07-.37v-1.25h-.52v-.65h.52v-.78h.81v.78h.71v.65Z"/>
      <path class="cls-1" d="M91.49,41.29h-.01c-.09.14-.21.24-.36.3-.15.06-.31.09-.47.09-.12,0-.24-.02-.35-.05-.11-.03-.21-.09-.3-.15-.09-.07-.16-.15-.21-.25-.05-.1-.08-.22-.08-.35,0-.15.03-.28.08-.38s.13-.19.23-.26c.1-.07.2-.12.33-.16s.25-.07.38-.08c.13-.02.26-.03.39-.03.13,0,.25,0,.37,0,0-.14-.05-.26-.15-.34-.1-.08-.22-.13-.36-.13s-.26.03-.36.08c-.11.06-.21.13-.3.23l-.43-.44c.15-.14.33-.25.53-.32.2-.07.41-.11.63-.11.24,0,.43.03.59.09.15.06.28.15.37.26.09.11.16.26.19.42.04.17.05.36.05.58v1.34h-.75v-.33ZM91.29,40.47c-.06,0-.14,0-.23,0-.09,0-.18.02-.27.05-.08.03-.16.06-.22.11-.06.05-.09.12-.09.21,0,.1.04.17.12.22.08.05.17.07.26.07.08,0,.16-.01.23-.03.07-.02.14-.05.2-.09s.1-.09.14-.15c.03-.06.05-.13.05-.22v-.17h-.2Z"/>
      <path class="cls-1" d="M92.75,37.53h.81v4.09h-.81v-4.09Z"/>
      <path class="cls-1" d="M96.4,37.57v5.41h-.68v-5.41h.68Z"/>
    </g>
    <path class="cls-1" d="M40.32,4.56h2.18s0,1,0,1h.03c.07-.14.17-.28.3-.42.13-.14.29-.27.47-.38.18-.11.39-.2.62-.27.23-.07.49-.11.76-.11.52,0,.97.11,1.37.32.4.21.7.55.9,1,.26-.47.58-.81.95-1.01.37-.2.83-.3,1.38-.3.49,0,.91.08,1.25.25.34.17.61.4.8.68.2.29.34.63.42,1.01.09.39.13.81.13,1.25v4.35s-2.28,0-2.28,0v-4.29c0-.34-.07-.64-.21-.89-.15-.25-.41-.37-.78-.37-.26,0-.48.04-.66.13-.18.08-.32.2-.42.35-.11.15-.18.33-.23.53-.04.2-.07.41-.07.64v3.89s-2.28,0-2.28,0v-3.89c0-.13,0-.29,0-.48-.01-.19-.05-.37-.11-.55-.06-.17-.16-.32-.3-.44-.14-.12-.34-.18-.6-.18-.29,0-.53.05-.71.16-.18.11-.32.25-.42.42-.1.18-.16.38-.19.6-.03.22-.05.45-.05.7v3.67s-2.28,0-2.28,0v-7.36Z"/>
    <path class="cls-1" d="M52.8,4.57h2.09s0,.97,0,.97h.03c.09-.13.21-.27.36-.4.15-.14.32-.26.52-.37.2-.11.41-.2.64-.27.23-.07.48-.11.74-.11.55,0,1.04.09,1.49.28.44.19.82.45,1.14.79.32.34.56.74.73,1.2.17.46.26.97.25,1.53,0,.52-.08,1.01-.24,1.48-.16.47-.38.89-.67,1.25-.29.36-.64.65-1.05.87-.41.22-.88.33-1.41.32-.47,0-.92-.07-1.33-.22-.41-.15-.74-.4-1.01-.75h-.03v4.24s-2.28,0-2.28,0V4.57ZM54.89,8.25c0,.56.16,1,.47,1.35.32.34.76.51,1.34.52.57,0,1.02-.17,1.34-.51.32-.34.48-.79.48-1.35,0-.56-.16-1-.47-1.35-.32-.34-.77-.51-1.34-.51-.58,0-1.02.17-1.34.51-.32.34-.48.79-.48,1.35"/>
  </g>
  <rect class="cls-1" x="61.55" y=".49" width="2.27" height="11.45"/>
  <path class="cls-1" d="M71.81,10.67c-.36.46-.82.82-1.38,1.07-.55.25-1.13.38-1.73.38-.57,0-1.1-.09-1.6-.27-.5-.18-.93-.44-1.3-.78-.37-.34-.66-.75-.87-1.22-.21-.47-.32-1.01-.32-1.59,0-.59.11-1.12.32-1.59.21-.47.5-.88.87-1.22.37-.34.8-.6,1.3-.78.5-.18,1.03-.27,1.6-.27.53,0,1,.09,1.43.27.43.18.79.44,1.09.78.3.34.53.75.69,1.22s.24,1,.24,1.59v.71s-5.27,0-5.27,0c.09.43.29.78.59,1.03.3.26.68.39,1.12.39.37,0,.69-.08.95-.25.26-.17.48-.38.67-.64l1.59,1.17ZM69.89,7.43c0-.38-.11-.71-.38-.99-.26-.27-.6-.41-1.02-.41-.25,0-.47.04-.67.12-.19.08-.36.18-.49.31-.14.13-.24.27-.32.44-.08.17-.12.34-.13.52h3Z"/>
  <polygon class="cls-1" points="72.19 .46 72.19 .86 72.74 .86 72.74 2.33 73.19 2.33 73.2 .86 73.76 .86 73.76 .46 72.19 .46"/>
  <g>
    <path class="cls-1" d="M74.08,2.33V.46h.41l.68,1.11h-.29s.69-1.11.69-1.11h.39s0,1.87,0,1.87h-.44s0-.58,0-.58c0-.16,0-.3.01-.43,0-.13.02-.25.04-.38l.05.14-.52.8h-.17l-.51-.8.05-.14c.02.12.03.24.04.37,0,.12.01.27.01.45v.58h-.44Z"/>
    <path class="cls-1" d="M35.56,19.75c-.23-.28-.51-.49-.84-.64-.33-.15-.72-.22-1.16-.22s-.84.09-1.22.25c-.37.17-.7.4-.97.71-.27.3-.49.66-.64,1.08-.15.42-.23.87-.23,1.36s.08.95.23,1.36c.15.41.37.77.63,1.07.27.3.58.54.95.71.36.17.75.25,1.17.25.48,0,.9-.1,1.27-.3.37-.2.67-.48.91-.84l1.94,1.45c-.45.63-1.01,1.09-1.7,1.39-.69.3-1.39.45-2.12.45-.82,0-1.58-.13-2.28-.39-.7-.26-1.3-.63-1.8-1.11-.51-.48-.9-1.07-1.19-1.75-.28-.69-.42-1.45-.42-2.29s.14-1.61.42-2.3c.28-.68.68-1.27,1.19-1.75.51-.48,1.11-.85,1.8-1.11.7-.26,1.46-.39,2.28-.39.3,0,.61.03.93.08.32.05.64.14.95.26.31.12.61.28.9.48.29.2.55.44.78.73l-1.79,1.46Z"/>
  </g>
  <path class="cls-1" d="M42.96,20.08l-1.28,3.28h2.58l-1.3-3.28ZM42.06,17.01h1.92l4.59,10.55h-2.62l-.91-2.23h-4.1l-.88,2.23h-2.56l4.56-10.55Z"/>
  <path class="cls-1" d="M54.85,19.59c-.19-.24-.44-.41-.77-.53-.32-.11-.63-.17-.92-.17-.17,0-.34.02-.52.06-.18.04-.35.1-.51.19-.16.08-.29.2-.39.33-.1.14-.15.31-.15.51,0,.32.12.56.36.73.24.17.54.31.9.43.36.12.75.24,1.17.36.42.12.81.29,1.17.51.36.22.66.51.9.88.24.37.36.86.36,1.48s-.11,1.1-.33,1.53c-.22.44-.51.8-.89,1.09-.37.29-.8.5-1.3.64-.49.14-1.01.21-1.56.21-.69,0-1.32-.11-1.91-.31-.59-.21-1.13-.55-1.64-1.01l1.65-1.82c.24.32.54.56.9.74.36.17.74.26,1.13.26.19,0,.38-.02.57-.07.19-.04.37-.11.52-.2.15-.09.28-.2.37-.34.09-.14.14-.3.14-.49,0-.32-.12-.57-.37-.75-.24-.19-.55-.34-.92-.47-.37-.13-.76-.26-1.19-.39-.43-.13-.82-.3-1.19-.52-.37-.22-.67-.51-.92-.86-.24-.36-.36-.83-.36-1.42s.11-1.06.33-1.49c.22-.43.52-.79.9-1.07.37-.29.8-.5,1.29-.65.49-.14.99-.22,1.51-.22.6,0,1.17.08,1.73.25.56.17,1.06.45,1.5.85l-1.59,1.74Z"/>
  <polygon class="cls-1" points="57.61 17.01 59.93 17.01 59.93 20.94 64.45 20.94 64.45 17.01 66.77 17.01 66.77 27.56 64.45 27.56 64.45 23 59.93 23 59.93 27.56 57.61 27.56 57.61 17.01"/>
  <g>
    <path class="cls-1" d="M34.49,3.81c-.19-.24-.45-.42-.78-.54-.33-.12-.64-.18-.93-.18-.17,0-.35.02-.53.06-.18.04-.35.1-.52.19-.16.09-.29.2-.39.34-.1.14-.15.31-.15.52,0,.32.12.57.36.74.24.17.55.32.92.44.37.12.76.24,1.19.36.43.12.82.29,1.19.52.37.22.67.52.92.89.24.37.36.87.36,1.5,0,.6-.11,1.11-.33,1.56-.22.44-.52.81-.9,1.1-.38.29-.82.51-1.32.65-.5.14-1.03.21-1.58.21-.7,0-1.34-.11-1.94-.32-.6-.21-1.15-.55-1.66-1.03l1.68-1.85c.24.33.55.57.92.75.37.18.75.27,1.14.27.19,0,.39-.02.58-.07.2-.04.37-.11.53-.2.16-.09.28-.21.38-.35.1-.14.14-.31.14-.5,0-.32-.12-.58-.37-.76-.25-.19-.56-.35-.93-.48-.37-.13-.78-.26-1.21-.4-.43-.13-.84-.31-1.21-.53-.37-.22-.68-.52-.93-.88-.25-.36-.37-.84-.37-1.44,0-.58.12-1.08.34-1.52.23-.43.53-.8.91-1.09.38-.29.82-.51,1.31-.66.49-.15,1-.22,1.53-.22.61,0,1.19.09,1.76.26.57.17,1.07.46,1.53.87l-1.62,1.77Z"/>
    <path class="cls-1" d="M36.84,2.24c0-.36.13-.67.39-.93.26-.26.57-.38.93-.38s.68.13.93.39c.26.26.39.57.39.93,0,.36-.13.67-.39.93-.26.26-.57.39-.93.38-.36,0-.67-.13-.93-.39-.26-.26-.39-.57-.39-.93M37.02,4.55h2.27s0,7.36,0,7.36h-2.27s0-7.36,0-7.36Z"/>
    <path class="cls-2" d="M14.57,1.08c-.08.51-.15,1.02-.22,1.52-.02.16-.04.32-.07.48-.01.1-.03.21-.05.31-.03.17-.05.34-.07.51-.01.09-.02.19-.04.28-.09.67-.19,1.34-.28,2.01-.06.43-.13.86-.19,1.29-.02.13-.03.27-.05.4-.1.74-.21,1.48-.31,2.22-.06.4-.12.8-.18,1.2,0,.05-.02.1-.02.16-.06.44-.12.89-.18,1.33-.07.48-.14.95-.21,1.43-.03.21-.04.21-.18.28-.09.04-.17.09-.26.14-.13.07-.25.13-.38.2-.19.11-.38.22-.57.34-.22.13-.43.27-.65.41-.01,0-.02,0-.03.02-.16.11-.32.23-.48.34-.05.03-.09.06-.13.1-.11.08-.22.16-.33.25-.29.21-.57.45-.85.68-.14.12-.28.25-.42.37-.15.13-.3.27-.45.4-.13.12-.26.25-.39.38-.17.16-.33.33-.5.5-.19.2-.38.4-.56.6-.29.32-.58.64-.86.98-.11.13-.22.26-.33.4-.14.17-.27.35-.41.53-.12.16-.25.32-.37.48-.05.07-.1.14-.15.21-.15.21-.3.41-.45.62-.16.22-.31.44-.46.67-.19.28-.37.56-.56.84-.08.12-.16.25-.24.37-.12.19-.24.37-.35.56-.14.24-.29.48-.43.72-.15.26-.3.51-.45.77-.07.11-.13.23-.19.35-.09.17-.19.34-.28.51-.05.09-.1.18-.16.28-.01.02-.03.04-.05.06-.04.03-.09,0-.1-.06,0-.02,0-.05,0-.07,0-.13,0-.25,0-.37,0-.06,0-.11,0-.17,0-.65,0-1.3.01-1.95,0-.38.01-.77.02-1.15,0-.14,0-.29,0-.43,0-.37,0-.74,0-1.11,0-.52.01-1.05.02-1.57,0-.07,0-.14,0-.2,0-.18,0-.35,0-.53,0-.07,0-.14,0-.22,0-.2,0-.39,0-.59,0-.34.02-.68.03-1.02,0-.12.03-.22.08-.32.08-.14.14-.29.2-.44.07-.16.16-.31.23-.47.08-.16.15-.33.24-.48.06-.11.11-.24.17-.35.13-.25.27-.5.4-.75.04-.08.08-.16.13-.23.16-.26.3-.54.46-.8.12-.18.22-.38.33-.57,0,0,0-.02.01-.02.14-.23.29-.46.43-.7.04-.06.07-.12.11-.18.16-.24.32-.48.47-.73.08-.12.15-.24.23-.35.21-.3.42-.6.63-.91.14-.19.27-.39.41-.57.29-.39.58-.77.87-1.16.12-.15.24-.29.35-.44.19-.24.38-.48.58-.71.15-.18.3-.37.46-.55.25-.29.5-.58.75-.86.2-.23.4-.45.61-.67.23-.25.47-.49.71-.73.16-.17.33-.34.49-.51.08-.08.17-.16.25-.24.17-.16.34-.32.51-.48.39-.36.78-.72,1.18-1.06.16-.13.31-.27.47-.41.16-.13.32-.26.48-.39.17-.14.34-.27.51-.41.18-.14.36-.27.54-.41.12-.09.24-.18.37-.27.03-.03.07-.05.11-.06.04-.02.06.02.06.07,0,.04,0,.09,0,.13"/>
    <path class="cls-4" d="M22.44,6.86s-.02.05-.03.08c-.07.15-.15.29-.22.44-.14.29-.27.58-.41.86-.1.21-.2.42-.3.63-.13.28-.27.55-.41.83-.05.1-.1.21-.15.32-.11.24-.22.48-.35.71-.1.19-.19.4-.28.59-.1.2-.2.41-.3.62-.1.2-.2.4-.29.6-.1.21-.2.43-.31.64-.1.21-.2.41-.3.61-.07.13-.13.26-.18.39-.03.07-.07.14-.11.22-.05.11-.11.23-.16.34-.06.13-.13.26-.2.39-.05.1-.09.2-.13.3-.14.3-.29.6-.43.89-.16.34-.32.68-.49,1.02-.12.25-.25.5-.37.74-.05.1-.09.2-.14.29-.07.15-.15.3-.22.46-.06.12-.1.24-.17.35-.11.2-.19.43-.3.63-.07.13-.13.27-.19.41-.03.07-.07.14-.1.2-.05.09-.09.19-.13.28-.09.19-.18.37-.27.55-.04.07-.08.1-.15.1-.22,0-.45-.01-.68-.02-.08,0-.15,0-.22,0-.39.03-.79.05-1.18.08-.09,0-.19.01-.28.02-.03,0-.06.01-.1.02-.03,0-.06.02-.09.02-.31.05-.62.09-.93.14-.09.02-.18.04-.26.06-.22.05-.43.09-.65.14-.07.02-.14.04-.21.06-.2.05-.39.11-.59.16-.05.01-.09.04-.13.05-.18.06-.35.11-.53.17-.07.02-.14.06-.21.08-.17.06-.33.12-.5.18-.12.05-.24.11-.36.15-.16.06-.31.13-.46.2-.11.05-.22.09-.33.14-.18.08-.36.17-.54.26-.25.13-.5.24-.74.38-.22.13-.44.23-.66.36-.19.11-.37.22-.55.33-.09.05-.18.1-.27.16-.2.13-.41.26-.61.39-.24.16-.48.31-.71.48-.23.16-.47.33-.7.49-.13.1-.26.2-.39.3-.02.02-.04.03-.07.04-.02,0-.04,0-.05-.01-.02-.02,0-.04,0-.06.01-.02.03-.05.04-.07.09-.15.18-.3.27-.44.12-.2.24-.39.37-.59.13-.2.25-.41.38-.61,0-.01.02-.03.03-.04.23-.34.47-.69.7-1.03.13-.19.26-.38.39-.56.25-.34.51-.68.77-1.03.1-.14.2-.27.31-.4.13-.16.27-.32.4-.48.11-.13.22-.26.33-.39.02-.02.03-.04.05-.06.34-.39.69-.78,1.05-1.15.15-.15.31-.3.46-.45.21-.22.44-.42.66-.63.14-.13.28-.25.42-.37.29-.25.58-.49.88-.72.21-.17.43-.32.65-.48.19-.14.38-.27.57-.4.06-.04.12-.08.19-.11.02-.01.05-.03.07-.04.16-.1.33-.2.49-.3.09-.05.17-.11.26-.16.11-.06.21-.12.32-.18.13-.07.26-.13.39-.2.12-.06.23-.12.35-.18.06-.03.08-.08.1-.16.04-.3.08-.6.13-.89.06-.41.12-.83.19-1.24,0-.04.01-.08.02-.13.1-.73.2-1.45.3-2.18.03-.24.07-.47.11-.71.07-.49.13-.97.2-1.46.04-.28.08-.57.11-.85.02-.11.06-.18.14-.2.14-.04.29-.08.43-.12.12-.04.25-.08.38-.12.11-.03.23-.06.35-.09.11-.03.23-.06.35-.09.1-.03.2-.05.3-.07.11-.02.22-.03.33-.05.1-.02.2-.05.3-.06.16-.03.32-.06.48-.08.17-.03.35-.05.52-.07.32-.04.64-.07.97-.07.26,0,.52-.01.78-.02.17,0,.35,0,.53.01.72.03,1.44.13,2.15.27.03,0,.06.01.09.03.03.01.05.05.05.11"/>
    <path class="cls-3" d="M2.47,27.25s.01-.04.03-.05c.03-.03.06-.06.1-.09.12-.09.24-.18.37-.27.19-.14.39-.28.58-.41.18-.13.35-.25.53-.38.09-.06.19-.12.28-.18.23-.15.46-.3.69-.45.19-.12.39-.22.58-.35.24-.15.48-.29.72-.42.24-.13.47-.27.72-.38.25-.11.49-.25.73-.37.11-.05.21-.09.32-.14.2-.1.42-.16.62-.27.2-.1.41-.15.61-.24.18-.08.37-.13.55-.19.13-.04.26-.09.38-.14.09-.03.19-.05.28-.08.1-.03.2-.05.29-.08.2-.07.39-.1.59-.14.1-.02.2-.05.3-.07.14-.03.28-.06.41-.08.11-.02.21-.03.32-.05.09-.01.18-.04.27-.05.23-.04.46-.07.7-.08.12,0,.24-.01.35-.02.07,0,.14-.03.21-.03.21,0,.42-.02.63-.02.28,0,.57,0,.85.03.08,0,.15,0,.23,0,.06,0,.1-.03.13-.09.1-.21.2-.41.3-.62.04-.08.09-.16.13-.25.04-.09.08-.18.12-.27.09-.18.17-.36.26-.54.17-.35.34-.7.51-1.05.05-.11.1-.23.16-.34.14-.29.29-.58.43-.88.06-.13.12-.27.19-.4.08-.17.16-.34.24-.51.05-.1.1-.19.15-.28.07-.14.13-.29.2-.43.08-.17.16-.35.25-.52.05-.1.1-.19.15-.28.07-.14.13-.29.2-.43.09-.17.16-.36.25-.53.12-.23.23-.48.35-.71.11-.21.21-.43.31-.64.07-.15.15-.31.22-.46.03-.05.05-.1.08-.15.07-.15.14-.31.22-.46.12-.25.25-.5.37-.76.04-.09.09-.11.16-.1.29.06.59.1.88.19.24.08.49.14.73.22.17.06.35.12.51.21.1.06.21.1.32.14.16.06.32.16.47.25.03.02.06.05.09.08.04.04.04.09.02.14,0,0,0,.02-.01.02-.09.13-.16.28-.23.44-.03.06-.06.12-.09.18-.05.1-.1.2-.15.3-.08.16-.15.31-.23.47-.05.11-.1.23-.15.35-.11.24-.22.49-.34.72-.1.2-.19.42-.29.63-.1.22-.2.44-.3.66-.07.15-.13.3-.2.44-.05.12-.11.23-.16.34-.05.11-.09.22-.14.33-.08.17-.15.34-.23.5-.06.14-.12.28-.18.42-.1.24-.21.48-.31.72-.12.27-.24.54-.36.82-.06.13-.11.26-.16.39-.15.35-.3.69-.44,1.04-.06.14-.12.29-.17.43-.13.32-.27.65-.41.97-.08.17-.13.36-.21.53-.12.27-.21.56-.33.82-.11.24-.18.5-.29.74-.12.27-.2.56-.32.83-.12.27-.2.56-.31.83-.09.22-.16.46-.24.69-.01.03-.02.06-.03.09-.04.08-.07.09-.14.06-.07-.04-.14-.09-.21-.14-.16-.11-.34-.2-.51-.29-.12-.06-.25-.13-.37-.2-.09-.05-.18-.09-.27-.13-.23-.1-.47-.19-.7-.29-.11-.05-.23-.1-.34-.14-.27-.1-.54-.18-.82-.26-.29-.09-.58-.17-.87-.25-.14-.04-.28-.07-.42-.1-.39-.07-.77-.14-1.16-.19-.44-.06-.89-.11-1.33-.13-.47-.02-.94,0-1.41,0-.22,0-.43.02-.65.03-.03,0-.05,0-.08,0-.11.01-.21.03-.32.04-.17.02-.34.04-.5.06-.14.02-.27.03-.41.05-.09.01-.18.04-.28.05-.18.03-.36.06-.53.09-.1.02-.2.05-.29.08-.08.02-.17.04-.25.06-.16.04-.32.08-.49.12-.19.05-.38.11-.58.18-.06.02-.12.04-.18.07-.15.06-.3.11-.46.17-.11.05-.22.1-.34.15-.05.02-.1.04-.16.06-.22.1-.44.2-.66.32-.16.09-.33.17-.49.26-.03.01-.05.04-.08.05-.02.01-.04.02-.06-.01"/>
  </g>
</svg>