<?xml version="1.0" encoding="UTF-8"?>
<svg id="Layer_1" data-name="Layer 1" xmlns="http://www.w3.org/2000/svg" viewBox="0 0 129.98 49.14">
  <defs>
    <style>
      .cls-1 {
        fill: #232156;
      }

      .cls-1, .cls-2 {
        stroke-width: 0px;
      }

      .cls-2 {
        fill: #4178bd;
      }
    </style>
  </defs>
  <path class="cls-2" d="M1.18,31.11h29.7V1.41H1.18v29.7ZM20.99,21.21h-9.9v-9.9h9.9v9.9Z"/>
  <g>
    <path class="cls-1" d="M34.97,31.11h2.57v-4.67h1.27l2.44,4.67h3.09l-2.97-4.93c.83-.15,1.45-.52,1.88-1.1.43-.58.64-1.28.64-2.1,0-.68-.12-1.25-.36-1.71-.24-.46-.55-.82-.96-1.09-.4-.27-.87-.46-1.4-.58-.53-.12-1.1-.17-1.69-.17h-4.52v11.68ZM37.54,21.61h1.68c.23,0,.47.02.71.05.24.03.46.1.64.19.19.09.34.23.46.4.12.18.18.41.18.71,0,.32-.07.57-.21.74-.14.18-.31.31-.52.39-.21.08-.44.13-.7.15-.26.02-.5.02-.74.02h-1.52v-2.66ZM45.76,31.11h8.23v-2.38h-5.66v-2.38h5.07v-2.38h-5.07v-2.18h5.36v-2.38h-7.94v11.68ZM54.85,31.11h2.84l.97-2.47h4.54l1.01,2.47h2.9l-5.08-11.68h-2.13l-5.05,11.68ZM62.33,26.46h-2.85l1.42-3.63,1.44,3.63ZM68.38,31.11h7.34v-2.38h-4.77v-9.31h-2.57v11.68ZM77.89,31.11h2.58v-9.41h3.33v-2.28h-9.24v2.28h3.33v9.41ZM88.5,31.11h2.57v-4.98l4.39-6.7h-3.05l-2.62,4.37-2.48-4.37h-3.2l4.39,6.7v4.98Z"/>
    <path class="cls-1" d="M41.33,4.69c-.21-.27-.5-.47-.86-.59s-.71-.19-1.03-.19c-.19,0-.38.02-.58.07-.2.04-.39.11-.57.21-.18.1-.32.22-.44.38s-.17.35-.17.57c0,.36.13.63.4.82.27.19.61.35,1.01.49.41.13.85.27,1.31.4.47.13.91.32,1.31.57.41.24.74.57,1.01.99.27.41.4.96.4,1.66s-.12,1.23-.37,1.72c-.25.49-.58.9-1,1.22-.42.32-.9.56-1.46.72-.55.16-1.14.23-1.75.23-.77,0-1.48-.12-2.14-.35-.66-.23-1.27-.61-1.84-1.14l1.86-2.04c.27.36.61.63,1.01.83.41.19.83.29,1.26.29.21,0,.43-.03.64-.08.22-.05.41-.12.59-.22.17-.1.31-.23.42-.39.1-.16.16-.34.16-.55,0-.36-.14-.64-.41-.84-.27-.21-.62-.38-1.03-.53-.41-.15-.86-.29-1.34-.44-.48-.14-.93-.34-1.34-.59-.41-.25-.76-.57-1.03-.97-.27-.4-.41-.93-.41-1.59s.13-1.19.38-1.68c.25-.48.58-.88,1-1.2.42-.32.9-.57,1.45-.73.55-.16,1.11-.24,1.69-.24.67,0,1.32.1,1.94.29.62.19,1.19.51,1.69.95l-1.79,1.96Z"/>
    <path class="cls-1" d="M43.92,2.95c0-.4.14-.74.43-1.03.29-.28.63-.43,1.03-.43s.75.14,1.03.43.43.63.43,1.03-.14.74-.43,1.03c-.28.29-.63.43-1.03.43s-.74-.14-1.03-.43c-.28-.28-.43-.63-.43-1.03M44.12,5.51h2.51v8.13h-2.51V5.51Z"/>
    <path class="cls-1" d="M47.77,5.51h2.41v1.11h.03c.08-.16.19-.31.33-.47.14-.16.32-.3.52-.42.2-.12.43-.22.69-.3.26-.08.54-.12.84-.12.57,0,1.07.12,1.52.35.44.23.77.6,1,1.11.29-.52.64-.9,1.05-1.12s.92-.33,1.52-.33c.55,0,1.01.09,1.38.28.37.18.67.44.89.75.22.32.37.69.47,1.12s.14.89.14,1.38v4.8h-2.51v-4.74c0-.38-.08-.71-.24-.98-.16-.27-.45-.41-.86-.41-.29,0-.53.05-.73.14-.2.1-.35.23-.47.39-.12.17-.2.36-.25.59-.05.22-.08.46-.08.7v4.3h-2.51v-4.3c0-.14,0-.32-.02-.53-.01-.21-.05-.41-.12-.6-.07-.19-.18-.35-.33-.48-.15-.13-.37-.2-.66-.2-.32,0-.59.06-.79.18-.2.12-.35.27-.46.47-.11.19-.18.42-.21.66-.03.25-.05.5-.05.77v4.05h-2.51V5.51Z"/>
    <path class="cls-1" d="M61.56,5.51h2.31v1.07h.03c.1-.14.23-.29.39-.44.16-.15.35-.29.57-.41.22-.12.45-.22.71-.3.26-.08.53-.12.82-.12.6,0,1.15.1,1.64.31.49.21.91.5,1.26.87.35.37.62.82.81,1.33.19.51.29,1.08.29,1.69,0,.57-.09,1.11-.26,1.63-.17.52-.42.98-.74,1.38-.32.4-.7.72-1.16.96-.46.24-.98.36-1.56.36-.52,0-1.01-.08-1.46-.24-.45-.16-.82-.44-1.11-.83h-.03v4.69h-2.51V5.51ZM63.87,9.58c0,.61.18,1.11.53,1.49.35.38.85.57,1.48.57s1.13-.19,1.48-.57c.35-.38.53-.88.53-1.49s-.18-1.11-.53-1.49c-.35-.38-.85-.57-1.48-.57s-1.13.19-1.48.57c-.35.38-.53.88-.53,1.49"/>
  </g>
  <rect class="cls-1" x="71.24" y=".99" width="2.51" height="12.65"/>
  <g>
    <path class="cls-1" d="M82.59,12.24c-.4.51-.91.91-1.52,1.19-.61.28-1.25.42-1.91.42-.62,0-1.21-.1-1.76-.3-.55-.2-1.03-.49-1.44-.86s-.73-.82-.96-1.35c-.23-.52-.35-1.11-.35-1.76s.12-1.23.35-1.76c.23-.52.55-.97.96-1.35.41-.38.89-.66,1.44-.86.55-.2,1.14-.3,1.76-.3.58,0,1.11.1,1.58.3.47.2.88.49,1.2.86.33.37.58.82.76,1.35.18.52.27,1.11.27,1.76v.79h-5.83c.1.48.32.86.65,1.14.33.28.75.43,1.24.43.41,0,.76-.09,1.05-.28s.53-.42.74-.71l1.76,1.29ZM80.46,8.66c.01-.42-.13-.79-.42-1.09-.29-.3-.66-.45-1.12-.45-.28,0-.52.04-.74.13-.21.09-.39.2-.54.34-.15.14-.27.3-.35.48-.08.18-.13.38-.14.58h3.31Z"/>
    <path class="cls-1" d="M41.33,4.69c-.21-.27-.5-.47-.86-.59s-.71-.19-1.03-.19c-.19,0-.38.02-.58.07-.2.04-.39.11-.57.21-.18.1-.32.22-.44.38s-.17.35-.17.57c0,.36.13.63.4.82.27.19.61.35,1.01.49.41.13.85.27,1.31.4.47.13.91.32,1.31.57.41.24.74.57,1.01.99.27.41.4.96.4,1.66s-.12,1.23-.37,1.72c-.25.49-.58.9-1,1.22-.42.32-.9.56-1.46.72-.55.16-1.14.23-1.75.23-.77,0-1.48-.12-2.14-.35-.66-.23-1.27-.61-1.84-1.14l1.86-2.04c.27.36.61.63,1.01.83.41.19.83.29,1.26.29.21,0,.43-.03.64-.08.22-.05.41-.12.59-.22.17-.1.31-.23.42-.39.1-.16.16-.34.16-.55,0-.36-.14-.64-.41-.84-.27-.21-.62-.38-1.03-.53-.41-.15-.86-.29-1.34-.44-.48-.14-.93-.34-1.34-.59-.41-.25-.76-.57-1.03-.97-.27-.4-.41-.93-.41-1.59s.13-1.19.38-1.68c.25-.48.58-.88,1-1.2.42-.32.9-.57,1.45-.73.55-.16,1.11-.24,1.69-.24.67,0,1.32.1,1.94.29.62.19,1.19.51,1.69.95l-1.79,1.96Z"/>
    <path class="cls-1" d="M43.92,2.95c0-.4.14-.74.43-1.03.29-.28.63-.43,1.03-.43s.75.14,1.03.43.43.63.43,1.03-.14.74-.43,1.03c-.28.29-.63.43-1.03.43s-.74-.14-1.03-.43c-.28-.28-.43-.63-.43-1.03M44.12,5.51h2.51v8.13h-2.51V5.51Z"/>
    <path class="cls-1" d="M47.77,5.51h2.41v1.11h.03c.08-.16.19-.31.33-.47.14-.16.32-.3.52-.42.2-.12.43-.22.69-.3.26-.08.54-.12.84-.12.57,0,1.07.12,1.52.35.44.23.77.6,1,1.11.29-.52.64-.9,1.05-1.12s.92-.33,1.52-.33c.55,0,1.01.09,1.38.28.37.18.67.44.89.75.22.32.37.69.47,1.12s.14.89.14,1.38v4.8h-2.51v-4.74c0-.38-.08-.71-.24-.98-.16-.27-.45-.41-.86-.41-.29,0-.53.05-.73.14-.2.1-.35.23-.47.39-.12.17-.2.36-.25.59-.05.22-.08.46-.08.7v4.3h-2.51v-4.3c0-.14,0-.32-.02-.53-.01-.21-.05-.41-.12-.6-.07-.19-.18-.35-.33-.48-.15-.13-.37-.2-.66-.2-.32,0-.59.06-.79.18-.2.12-.35.27-.46.47-.11.19-.18.42-.21.66-.03.25-.05.5-.05.77v4.05h-2.51V5.51Z"/>
    <path class="cls-1" d="M61.56,5.51h2.31v1.07h.03c.1-.14.23-.29.39-.44.16-.15.35-.29.57-.41.22-.12.45-.22.71-.3.26-.08.53-.12.82-.12.6,0,1.15.1,1.64.31.49.21.91.5,1.26.87.35.37.62.82.81,1.33.19.51.29,1.08.29,1.69,0,.57-.09,1.11-.26,1.63-.17.52-.42.98-.74,1.38-.32.4-.7.72-1.16.96-.46.24-.98.36-1.56.36-.52,0-1.01-.08-1.46-.24-.45-.16-.82-.44-1.11-.83h-.03v4.69h-2.51V5.51ZM63.87,9.58c0,.61.18,1.11.53,1.49.35.38.85.57,1.48.57s1.13-.19,1.48-.57c.35-.38.53-.88.53-1.49s-.18-1.11-.53-1.49c-.35-.38-.85-.57-1.48-.57s-1.13.19-1.48.57c-.35.38-.53.88-.53,1.49"/>
  </g>
  <rect class="cls-1" x="71.24" y=".99" width="2.51" height="12.65"/>
  <g>
    <path class="cls-1" d="M1.14,35.32h1.58c.18,0,.37.01.55.04.19.03.35.08.5.16.15.08.27.19.36.33s.14.33.14.56-.07.44-.2.59c-.13.16-.31.27-.53.34h0c.14.03.27.07.38.13.11.06.21.13.29.22s.14.19.19.31c.04.12.07.25.07.38,0,.22-.05.41-.14.56-.1.15-.22.27-.37.36s-.32.16-.51.2-.38.06-.56.06h-1.73v-4.23ZM2.07,37.01h.68c.07,0,.14,0,.21-.02.07-.02.13-.04.19-.08.06-.04.1-.08.13-.14.03-.06.05-.13.05-.22s-.02-.16-.06-.22c-.04-.06-.09-.1-.15-.13-.06-.03-.13-.05-.2-.07-.08-.01-.15-.02-.22-.02h-.63v.9ZM2.07,38.76h.84c.07,0,.14,0,.22-.02.07-.02.14-.04.2-.08.06-.04.11-.09.15-.16.04-.06.06-.14.06-.23,0-.1-.02-.18-.07-.24s-.11-.11-.19-.14c-.08-.03-.16-.05-.25-.07-.09-.01-.17-.02-.25-.02h-.71v.96Z"/>
    <path class="cls-1" d="M4.9,36.65h.9v.47h.01c.1-.18.21-.31.34-.4.13-.09.3-.13.5-.13.05,0,.1,0,.16,0,.05,0,.1.01.14.02v.82c-.06-.02-.13-.04-.19-.04-.06,0-.13-.01-.19-.01-.17,0-.31.02-.41.07s-.18.12-.23.2c-.05.09-.09.19-.1.31-.02.12-.02.25-.02.39v1.21h-.9v-2.91Z"/>
    <path class="cls-1" d="M7.12,38.1c0-.23.04-.44.13-.63.08-.19.2-.35.34-.48.15-.13.32-.24.51-.31.2-.07.41-.11.63-.11s.43.04.63.11c.2.07.37.17.51.31.15.13.26.29.34.48.08.19.13.4.13.63s-.04.44-.13.63c-.08.19-.2.35-.34.48s-.32.24-.51.31c-.2.07-.41.11-.63.11s-.43-.04-.63-.11c-.2-.07-.37-.17-.51-.31s-.26-.29-.34-.48c-.08-.19-.13-.4-.13-.63ZM8.02,38.1c0,.22.06.4.19.53.13.14.3.2.53.2s.4-.07.53-.2c.13-.13.19-.31.19-.53s-.06-.4-.19-.53-.3-.2-.53-.2-.4.07-.53.2-.19.31-.19.53Z"/>
    <path class="cls-1" d="M10.88,35.03h.9v2.76l.99-1.15h1.1l-1.15,1.31,1.18,1.6h-1.13l-.98-1.47h-.01v1.47h-.9v-4.52Z"/>
    <path class="cls-1" d="M16.95,39.05c-.14.18-.32.32-.54.42s-.45.15-.68.15c-.22,0-.43-.04-.63-.11-.2-.07-.37-.17-.51-.31s-.26-.29-.34-.48c-.08-.19-.13-.4-.13-.63s.04-.44.13-.63c.08-.19.2-.35.34-.48.15-.13.32-.24.51-.31.2-.07.41-.11.63-.11.21,0,.4.04.56.11.17.07.31.17.43.31.12.13.21.29.27.48.06.19.1.4.1.63v.28h-2.08c.04.17.11.31.23.41s.27.15.44.15c.15,0,.27-.03.37-.1.1-.07.19-.15.27-.25l.63.46ZM16.19,37.77c0-.15-.05-.28-.15-.39s-.24-.16-.4-.16c-.1,0-.19.02-.26.05s-.14.07-.19.12c-.05.05-.1.11-.13.17-.03.07-.05.13-.05.21h1.18Z"/>
    <path class="cls-1" d="M17.63,36.65h.9v.47h.01c.1-.18.21-.31.34-.4.13-.09.3-.13.5-.13.05,0,.1,0,.16,0,.05,0,.1.01.14.02v.82c-.06-.02-.13-.04-.19-.04-.06,0-.13-.01-.19-.01-.17,0-.31.02-.41.07s-.18.12-.23.2c-.05.09-.09.19-.1.31-.02.12-.02.25-.02.39v1.21h-.9v-2.91Z"/>
    <path class="cls-1" d="M21.89,39.19h-.01c-.1.16-.23.27-.4.33-.17.07-.34.1-.52.1-.14,0-.27-.02-.39-.06-.13-.04-.24-.09-.33-.17-.1-.08-.17-.17-.23-.28-.06-.11-.08-.24-.08-.39,0-.17.03-.31.09-.42.06-.12.15-.21.25-.29.11-.08.23-.13.36-.18.14-.04.28-.07.42-.09.15-.02.29-.03.44-.04s.28,0,.4,0c0-.16-.06-.29-.17-.38-.11-.09-.25-.14-.4-.14s-.28.03-.4.09-.23.15-.33.25l-.48-.49c.17-.16.36-.27.59-.35.22-.08.45-.12.69-.12.26,0,.48.03.65.1s.31.16.41.29c.1.13.17.28.21.47.04.19.06.4.06.64v1.48h-.83v-.36ZM21.67,38.28c-.07,0-.15,0-.25,0-.1,0-.2.02-.29.05-.09.03-.17.07-.24.12-.07.06-.1.13-.1.23,0,.11.05.19.14.24s.19.08.29.08c.09,0,.17-.01.25-.04.08-.02.15-.06.22-.1.06-.04.11-.1.15-.17s.06-.15.06-.24v-.19h-.22Z"/>
    <path class="cls-1" d="M26.32,39.31c0,.55-.14.97-.42,1.25-.28.29-.7.43-1.26.43-.26,0-.51-.03-.77-.09s-.48-.17-.69-.34l.5-.74c.14.12.29.21.44.28s.32.1.5.1c.27,0,.48-.07.61-.2s.19-.3.19-.51v-.28h-.01c-.1.14-.23.24-.39.3-.15.06-.3.09-.43.09-.22,0-.41-.04-.59-.11-.18-.07-.33-.18-.45-.31-.13-.13-.22-.29-.29-.47-.07-.18-.1-.38-.1-.6,0-.19.03-.38.09-.56.06-.18.15-.34.26-.48.11-.14.25-.25.42-.34.16-.09.35-.13.56-.13.13,0,.24.01.35.04.11.03.2.06.28.11.08.04.16.09.21.15.06.05.11.11.14.16h.01v-.38h.82v2.66ZM24.06,38.08c0,.1.02.19.05.27.04.09.09.16.15.23.07.07.14.12.23.16.09.04.18.06.28.06s.19-.02.28-.06c.09-.04.16-.09.23-.16.07-.07.12-.14.15-.23.04-.09.05-.18.05-.27s-.02-.19-.05-.27c-.04-.09-.09-.16-.15-.23-.07-.07-.14-.12-.23-.16-.09-.04-.18-.06-.28-.06-.1,0-.2.02-.28.06-.09.04-.16.09-.23.16-.07.07-.12.14-.15.23-.04.09-.05.18-.05.27Z"/>
    <path class="cls-1" d="M29.79,39.05c-.14.18-.32.32-.54.42s-.45.15-.68.15c-.22,0-.43-.04-.63-.11-.2-.07-.37-.17-.51-.31s-.26-.29-.34-.48c-.08-.19-.13-.4-.13-.63s.04-.44.13-.63c.08-.19.2-.35.34-.48.15-.13.32-.24.51-.31.2-.07.41-.11.63-.11.21,0,.4.04.56.11.17.07.31.17.43.31.12.13.21.29.27.48.06.19.1.4.1.63v.28h-2.08c.04.17.11.31.23.41s.27.15.44.15c.15,0,.27-.03.37-.1.1-.07.19-.15.27-.25l.63.46ZM29.03,37.77c0-.15-.05-.28-.15-.39s-.24-.16-.4-.16c-.1,0-.19.02-.26.05s-.14.07-.19.12c-.05.05-.1.11-.13.17-.03.07-.05.13-.05.21h1.18Z"/>
    <path class="cls-1" d="M34.44,36.35c-.08-.09-.18-.17-.31-.21-.13-.05-.25-.07-.37-.07-.07,0-.14,0-.21.02-.07.02-.14.04-.2.08-.06.03-.12.08-.16.13-.04.06-.06.12-.06.2,0,.13.05.22.14.29.1.07.22.13.36.17.15.05.3.1.47.14.17.05.32.12.47.2.15.09.27.21.36.35s.14.34.14.59-.04.44-.13.62-.21.32-.36.44c-.15.12-.32.2-.52.26-.2.06-.41.08-.62.08-.27,0-.53-.04-.77-.12-.23-.08-.45-.22-.66-.41l.66-.73c.1.13.22.23.36.3.15.07.3.1.45.1.08,0,.15,0,.23-.03.08-.02.15-.04.21-.08.06-.04.11-.08.15-.14.04-.06.06-.12.06-.2,0-.13-.05-.23-.15-.3-.1-.07-.22-.14-.37-.19s-.31-.1-.48-.16-.33-.12-.48-.21c-.15-.09-.27-.2-.37-.35s-.15-.33-.15-.57.04-.43.13-.6c.09-.17.21-.31.36-.43.15-.12.32-.2.52-.26s.4-.09.6-.09c.24,0,.47.03.69.1.22.07.42.18.6.34l-.64.7Z"/>
    <path class="cls-1" d="M38.42,39.05c-.14.18-.32.32-.54.42s-.45.15-.68.15c-.22,0-.43-.04-.63-.11-.2-.07-.37-.17-.51-.31s-.26-.29-.34-.48c-.08-.19-.13-.4-.13-.63s.04-.44.13-.63c.08-.19.2-.35.34-.48.15-.13.32-.24.51-.31.2-.07.41-.11.63-.11.21,0,.4.04.56.11.17.07.31.17.43.31.12.13.21.29.27.48.06.19.1.4.1.63v.28h-2.08c.04.17.11.31.23.41s.27.15.44.15c.15,0,.27-.03.37-.1.1-.07.19-.15.27-.25l.63.46ZM37.66,37.77c0-.15-.05-.28-.15-.39s-.24-.16-.4-.16c-.1,0-.19.02-.26.05s-.14.07-.19.12c-.05.05-.1.11-.13.17-.03.07-.05.13-.05.21h1.18Z"/>
    <path class="cls-1" d="M39.1,36.65h.9v.47h.01c.1-.18.21-.31.34-.4.13-.09.3-.13.5-.13.05,0,.1,0,.16,0,.05,0,.1.01.14.02v.82c-.06-.02-.13-.04-.19-.04-.06,0-.13-.01-.19-.01-.17,0-.31.02-.41.07s-.18.12-.23.2c-.05.09-.09.19-.1.31-.02.12-.02.25-.02.39v1.21h-.9v-2.91Z"/>
    <path class="cls-1" d="M41.23,36.65h.97l.73,1.97h.01l.68-1.97h.9l-1.15,2.91h-.95l-1.2-2.91Z"/>
    <path class="cls-1" d="M44.8,35.73c0-.14.05-.27.15-.37.1-.1.22-.15.37-.15s.27.05.37.15c.1.1.15.22.15.37s-.05.27-.15.37-.22.15-.37.15-.27-.05-.37-.15c-.1-.1-.15-.22-.15-.37ZM44.87,36.65h.9v2.91h-.9v-2.91Z"/>
    <path class="cls-1" d="M48.38,37.58c-.04-.06-.11-.12-.19-.16-.08-.04-.17-.06-.26-.06-.23,0-.4.07-.53.2s-.19.31-.19.53.06.4.19.53c.13.14.3.2.53.2.1,0,.19-.02.26-.07s.13-.1.19-.16l.59.62c-.14.14-.3.24-.49.3s-.37.09-.54.09c-.22,0-.43-.04-.63-.11-.2-.07-.37-.17-.51-.31s-.26-.29-.34-.48c-.08-.19-.13-.4-.13-.63s.04-.44.13-.63c.08-.19.2-.35.34-.48.15-.13.32-.24.51-.31.2-.07.41-.11.63-.11.17,0,.35.03.54.09s.35.16.49.3l-.59.62Z"/>
    <path class="cls-1" d="M52.04,39.05c-.14.18-.32.32-.54.42s-.45.15-.68.15c-.22,0-.43-.04-.63-.11-.2-.07-.37-.17-.51-.31s-.26-.29-.34-.48c-.08-.19-.13-.4-.13-.63s.04-.44.13-.63c.08-.19.2-.35.34-.48.15-.13.32-.24.51-.31.2-.07.41-.11.63-.11.21,0,.4.04.56.11.17.07.31.17.43.31.12.13.21.29.27.48.06.19.1.4.1.63v.28h-2.08c.04.17.11.31.23.41s.27.15.44.15c.15,0,.27-.03.37-.1.1-.07.19-.15.27-.25l.63.46ZM51.28,37.77c0-.15-.05-.28-.15-.39s-.24-.16-.4-.16c-.1,0-.19.02-.26.05s-.14.07-.19.12c-.05.05-.1.11-.13.17-.03.07-.05.13-.05.21h1.18Z"/>
    <path class="cls-1" d="M54.37,37.5c-.13-.16-.3-.25-.52-.25-.08,0-.15.02-.22.05-.07.04-.11.1-.11.18,0,.07.04.12.11.16.07.03.17.06.28.09.11.03.23.05.36.08.13.03.25.08.36.14.11.06.21.15.28.26.07.11.11.26.11.44s-.04.34-.12.46c-.08.12-.19.22-.31.29-.13.07-.27.13-.43.16-.16.03-.32.04-.47.04-.2,0-.41-.03-.62-.09s-.38-.16-.53-.31l.54-.6c.08.1.18.18.28.24s.22.08.36.08c.1,0,.2-.02.28-.04.08-.03.13-.08.13-.17,0-.08-.04-.13-.11-.17s-.17-.07-.28-.1c-.11-.03-.24-.05-.36-.08-.13-.03-.25-.07-.36-.13-.11-.06-.21-.14-.28-.25-.07-.11-.11-.26-.11-.44,0-.17.03-.32.1-.44.07-.12.16-.23.27-.3.11-.08.24-.14.39-.18s.3-.06.45-.06c.19,0,.38.03.58.08s.36.16.5.3l-.55.54Z"/>
    <path class="cls-1" d="M57.98,35.07v5.98h-.75v-5.98h.75Z"/>
    <path class="cls-1" d="M60.51,35.32h.93v3.37h1.73v.86h-2.66v-4.23Z"/>
    <path class="cls-1" d="M66.31,39.05c-.14.18-.32.32-.54.42s-.45.15-.68.15c-.22,0-.43-.04-.63-.11-.2-.07-.37-.17-.51-.31s-.26-.29-.34-.48c-.08-.19-.13-.4-.13-.63s.04-.44.13-.63c.08-.19.2-.35.34-.48.15-.13.32-.24.51-.31.2-.07.41-.11.63-.11.21,0,.4.04.56.11.17.07.31.17.43.31.12.13.21.29.27.48.06.19.1.4.1.63v.28h-2.08c.04.17.11.31.23.41s.27.15.44.15c.15,0,.27-.03.37-.1.1-.07.19-.15.27-.25l.63.46ZM65.56,37.77c0-.15-.05-.28-.15-.39s-.24-.16-.4-.16c-.1,0-.19.02-.26.05s-.14.07-.19.12c-.05.05-.1.11-.13.17-.03.07-.05.13-.05.21h1.18Z"/>
    <path class="cls-1" d="M68.82,39.19h-.01c-.1.16-.23.27-.4.33-.17.07-.34.1-.52.1-.14,0-.27-.02-.39-.06-.13-.04-.24-.09-.33-.17-.1-.08-.17-.17-.23-.28-.06-.11-.08-.24-.08-.39,0-.17.03-.31.09-.42.06-.12.15-.21.25-.29.11-.08.23-.13.36-.18.14-.04.28-.07.42-.09.15-.02.29-.03.44-.04s.28,0,.4,0c0-.16-.06-.29-.17-.38-.11-.09-.25-.14-.4-.14s-.28.03-.4.09-.23.15-.33.25l-.48-.49c.17-.16.36-.27.59-.35.22-.08.45-.12.69-.12.26,0,.48.03.65.1s.31.16.41.29c.1.13.17.28.21.47.04.19.06.4.06.64v1.48h-.83v-.36ZM68.6,38.28c-.07,0-.15,0-.25,0-.1,0-.2.02-.29.05-.09.03-.17.07-.24.12-.07.06-.1.13-.1.23,0,.11.05.19.14.24s.19.08.29.08c.09,0,.17-.01.25-.04.08-.02.15-.06.22-.1.06-.04.11-.1.15-.17s.06-.15.06-.24v-.19h-.22Z"/>
    <path class="cls-1" d="M71.85,37.5c-.13-.16-.3-.25-.52-.25-.08,0-.15.02-.22.05-.07.04-.11.1-.11.18,0,.07.04.12.11.16.07.03.17.06.28.09.11.03.23.05.36.08.13.03.25.08.36.14.11.06.21.15.28.26.07.11.11.26.11.44s-.04.34-.12.46c-.08.12-.19.22-.31.29-.13.07-.27.13-.43.16-.16.03-.32.04-.47.04-.2,0-.41-.03-.62-.09s-.38-.16-.53-.31l.54-.6c.08.1.18.18.28.24s.22.08.36.08c.1,0,.2-.02.28-.04.08-.03.13-.08.13-.17,0-.08-.04-.13-.11-.17s-.17-.07-.28-.1c-.11-.03-.24-.05-.36-.08-.13-.03-.25-.07-.36-.13-.11-.06-.21-.14-.28-.25-.07-.11-.11-.26-.11-.44,0-.17.03-.32.1-.44.07-.12.16-.23.27-.3.11-.08.24-.14.39-.18s.3-.06.45-.06c.19,0,.38.03.58.08s.36.16.5.3l-.55.54Z"/>
    <path class="cls-1" d="M72.91,35.73c0-.14.05-.27.15-.37.1-.1.22-.15.37-.15s.27.05.37.15c.1.1.15.22.15.37s-.05.27-.15.37-.22.15-.37.15-.27-.05-.37-.15c-.1-.1-.15-.22-.15-.37ZM72.98,36.65h.9v2.91h-.9v-2.91Z"/>
    <path class="cls-1" d="M74.53,36.65h.86v.39h.01c.03-.06.07-.11.12-.17s.11-.11.19-.15.15-.08.25-.11c.09-.03.19-.04.3-.04.23,0,.41.04.55.1.14.07.25.17.33.29.08.12.13.27.16.44.03.17.04.35.04.54v1.6h-.9v-1.42c0-.08,0-.17,0-.26s-.02-.17-.05-.25c-.03-.08-.08-.14-.14-.19-.06-.05-.15-.07-.27-.07s-.21.02-.28.06-.13.1-.16.17c-.04.07-.06.15-.07.24-.01.09-.02.18-.02.28v1.45h-.9v-2.91Z"/>
    <path class="cls-1" d="M81.01,39.31c0,.55-.14.97-.42,1.25-.28.29-.7.43-1.26.43-.26,0-.51-.03-.77-.09s-.48-.17-.69-.34l.5-.74c.14.12.29.21.44.28s.32.1.5.1c.27,0,.48-.07.61-.2s.19-.3.19-.51v-.28h-.01c-.1.14-.23.24-.39.3-.15.06-.3.09-.43.09-.22,0-.41-.04-.59-.11-.18-.07-.33-.18-.45-.31-.13-.13-.22-.29-.29-.47-.07-.18-.1-.38-.1-.6,0-.19.03-.38.09-.56.06-.18.15-.34.26-.48.11-.14.25-.25.42-.34.16-.09.35-.13.56-.13.13,0,.24.01.35.04.11.03.2.06.28.11.08.04.16.09.21.15.06.05.11.11.14.16h.01v-.38h.82v2.66ZM78.75,38.08c0,.1.02.19.05.27.04.09.09.16.15.23.07.07.14.12.23.16.09.04.18.06.28.06s.19-.02.28-.06c.09-.04.16-.09.23-.16.07-.07.12-.14.15-.23.04-.09.05-.18.05-.27s-.02-.19-.05-.27c-.04-.09-.09-.16-.15-.23-.07-.07-.14-.12-.23-.16-.09-.04-.18-.06-.28-.06-.1,0-.2.02-.28.06-.09.04-.16.09-.23.16-.07.07-.12.14-.15.23-.04.09-.05.18-.05.27Z"/>
    <path class="cls-1" d="M83.61,35.32h1.64c.22,0,.42.02.61.06s.36.11.51.21.26.23.35.39c.09.17.13.37.13.62,0,.3-.08.55-.23.76-.16.21-.38.34-.68.4l1.08,1.79h-1.12l-.88-1.69h-.46v1.69h-.93v-4.23ZM84.54,37.07h.55c.08,0,.17,0,.27,0s.18-.02.25-.05c.08-.03.14-.08.19-.14s.07-.15.07-.27c0-.11-.02-.19-.07-.26-.04-.06-.1-.11-.17-.15-.07-.03-.15-.06-.23-.07-.09-.01-.17-.02-.26-.02h-.61v.96Z"/>
    <path class="cls-1" d="M90.12,39.05c-.14.18-.32.32-.54.42s-.45.15-.68.15c-.22,0-.43-.04-.63-.11-.2-.07-.37-.17-.51-.31s-.26-.29-.34-.48c-.08-.19-.13-.4-.13-.63s.04-.44.13-.63c.08-.19.2-.35.34-.48.15-.13.32-.24.51-.31.2-.07.41-.11.63-.11.21,0,.4.04.56.11.17.07.31.17.43.31.12.13.21.29.27.48.06.19.1.4.1.63v.28h-2.08c.04.17.11.31.23.41s.27.15.44.15c.15,0,.27-.03.37-.1.1-.07.19-.15.27-.25l.63.46ZM89.36,37.77c0-.15-.05-.28-.15-.39s-.24-.16-.4-.16c-.1,0-.19.02-.26.05s-.14.07-.19.12c-.05.05-.1.11-.13.17-.03.07-.05.13-.05.21h1.18Z"/>
    <path class="cls-1" d="M90.88,36.65h.82v.38h.01c.04-.05.08-.1.14-.16.06-.05.13-.1.2-.15s.16-.08.25-.11c.09-.03.19-.04.29-.04.22,0,.41.04.59.11.18.07.33.18.45.31.13.13.22.29.29.48.07.18.1.38.1.6,0,.2-.03.4-.09.58-.06.19-.15.35-.26.49-.11.14-.25.26-.42.34-.16.09-.35.13-.56.13-.19,0-.36-.03-.52-.09-.16-.06-.29-.16-.4-.3h-.01v1.67h-.9v-4.27ZM91.71,38.1c0,.22.06.4.19.53.13.14.3.2.53.2s.4-.07.53-.2c.13-.13.19-.31.19-.53s-.06-.4-.19-.53-.3-.2-.53-.2-.4.07-.53.2-.19.31-.19.53Z"/>
    <path class="cls-1" d="M94.56,36.65h.9v.47h.01c.1-.18.21-.31.34-.4.13-.09.3-.13.5-.13.05,0,.1,0,.16,0,.05,0,.1.01.14.02v.82c-.06-.02-.13-.04-.19-.04-.06,0-.13-.01-.19-.01-.17,0-.31.02-.41.07s-.18.12-.23.2c-.05.09-.09.19-.1.31-.02.12-.02.25-.02.39v1.21h-.9v-2.91Z"/>
    <path class="cls-1" d="M99.64,39.05c-.14.18-.32.32-.54.42s-.45.15-.68.15c-.22,0-.43-.04-.63-.11-.2-.07-.37-.17-.51-.31s-.26-.29-.34-.48c-.08-.19-.13-.4-.13-.63s.04-.44.13-.63c.08-.19.2-.35.34-.48.15-.13.32-.24.51-.31.2-.07.41-.11.63-.11.21,0,.4.04.56.11.17.07.31.17.43.31.12.13.21.29.27.48.06.19.1.4.1.63v.28h-2.08c.04.17.11.31.23.41s.27.15.44.15c.15,0,.27-.03.37-.1.1-.07.19-.15.27-.25l.63.46ZM98.88,37.77c0-.15-.05-.28-.15-.39s-.24-.16-.4-.16c-.1,0-.19.02-.26.05s-.14.07-.19.12c-.05.05-.1.11-.13.17-.03.07-.05.13-.05.21h1.18Z"/>
    <path class="cls-1" d="M101.97,37.5c-.13-.16-.3-.25-.52-.25-.08,0-.15.02-.22.05-.07.04-.11.1-.11.18,0,.07.04.12.11.16.07.03.17.06.28.09.11.03.23.05.36.08.13.03.25.08.36.14.11.06.21.15.28.26.07.11.11.26.11.44s-.04.34-.12.46c-.08.12-.19.22-.31.29-.13.07-.27.13-.43.16-.16.03-.32.04-.47.04-.2,0-.41-.03-.62-.09s-.38-.16-.53-.31l.54-.6c.08.1.18.18.28.24s.22.08.36.08c.1,0,.2-.02.28-.04.08-.03.13-.08.13-.17,0-.08-.04-.13-.11-.17s-.17-.07-.28-.1c-.11-.03-.24-.05-.36-.08-.13-.03-.25-.07-.36-.13-.11-.06-.21-.14-.28-.25-.07-.11-.11-.26-.11-.44,0-.17.03-.32.1-.44.07-.12.16-.23.27-.3.11-.08.24-.14.39-.18s.3-.06.45-.06c.19,0,.38.03.58.08s.36.16.5.3l-.55.54Z"/>
    <path class="cls-1" d="M105.84,39.05c-.14.18-.32.32-.54.42s-.45.15-.68.15c-.22,0-.43-.04-.63-.11-.2-.07-.37-.17-.51-.31s-.26-.29-.34-.48c-.08-.19-.13-.4-.13-.63s.04-.44.13-.63c.08-.19.2-.35.34-.48.15-.13.32-.24.51-.31.2-.07.41-.11.63-.11.21,0,.4.04.56.11.17.07.31.17.43.31.12.13.21.29.27.48.06.19.1.4.1.63v.28h-2.08c.04.17.11.31.23.41s.27.15.44.15c.15,0,.27-.03.37-.1.1-.07.19-.15.27-.25l.63.46ZM105.08,37.77c0-.15-.05-.28-.15-.39s-.24-.16-.4-.16c-.1,0-.19.02-.26.05s-.14.07-.19.12c-.05.05-.1.11-.13.17-.03.07-.05.13-.05.21h1.18Z"/>
    <path class="cls-1" d="M106.52,36.65h.86v.39h.01c.03-.06.07-.11.12-.17s.11-.11.19-.15.15-.08.25-.11c.09-.03.19-.04.3-.04.23,0,.41.04.55.1.14.07.25.17.33.29.08.12.13.27.16.44.03.17.04.35.04.54v1.6h-.9v-1.42c0-.08,0-.17,0-.26s-.02-.17-.05-.25c-.03-.08-.08-.14-.14-.19-.06-.05-.15-.07-.27-.07s-.21.02-.28.06-.13.1-.16.17c-.04.07-.06.15-.07.24-.01.09-.02.18-.02.28v1.45h-.9v-2.91Z"/>
    <path class="cls-1" d="M111.93,37.36h-.79v.97c0,.08,0,.15.01.22,0,.07.03.12.05.17s.07.08.13.11c.06.03.13.04.23.04.05,0,.11,0,.19-.01.08,0,.14-.03.18-.07v.75c-.1.04-.2.06-.31.07s-.21.02-.32.02c-.15,0-.29-.02-.42-.05-.13-.03-.24-.08-.33-.15-.1-.07-.17-.16-.22-.27s-.08-.25-.08-.41v-1.38h-.57v-.72h.57v-.86h.9v.86h.79v.72Z"/>
    <path class="cls-1" d="M114.21,39.19h-.01c-.1.16-.23.27-.4.33-.17.07-.34.1-.52.1-.14,0-.27-.02-.39-.06-.13-.04-.24-.09-.33-.17-.1-.08-.17-.17-.23-.28-.06-.11-.08-.24-.08-.39,0-.17.03-.31.09-.42.06-.12.15-.21.25-.29.11-.08.23-.13.36-.18.14-.04.28-.07.42-.09.15-.02.29-.03.44-.04s.28,0,.4,0c0-.16-.06-.29-.17-.38-.11-.09-.25-.14-.4-.14s-.28.03-.4.09-.23.15-.33.25l-.48-.49c.17-.16.36-.27.59-.35.22-.08.45-.12.69-.12.26,0,.48.03.65.1s.31.16.41.29c.1.13.17.28.21.47.04.19.06.4.06.64v1.48h-.83v-.36ZM113.99,38.28c-.07,0-.15,0-.25,0-.1,0-.2.02-.29.05-.09.03-.17.07-.24.12-.07.06-.1.13-.1.23,0,.11.05.19.14.24s.19.08.29.08c.09,0,.17-.01.25-.04.08-.02.15-.06.22-.1.06-.04.11-.1.15-.17s.06-.15.06-.24v-.19h-.22Z"/>
    <path class="cls-1" d="M117.57,37.36h-.79v.97c0,.08,0,.15.01.22,0,.07.03.12.05.17s.07.08.13.11c.06.03.13.04.23.04.05,0,.11,0,.19-.01.08,0,.14-.03.18-.07v.75c-.1.04-.2.06-.31.07s-.21.02-.32.02c-.15,0-.29-.02-.42-.05-.13-.03-.24-.08-.33-.15-.1-.07-.17-.16-.22-.27s-.08-.25-.08-.41v-1.38h-.57v-.72h.57v-.86h.9v.86h.79v.72Z"/>
    <path class="cls-1" d="M117.97,35.73c0-.14.05-.27.15-.37.1-.1.22-.15.37-.15s.27.05.37.15c.1.1.15.22.15.37s-.05.27-.15.37-.22.15-.37.15-.27-.05-.37-.15c-.1-.1-.15-.22-.15-.37ZM118.04,36.65h.9v2.91h-.9v-2.91Z"/>
    <path class="cls-1" d="M119.47,38.1c0-.23.04-.44.13-.63.08-.19.2-.35.34-.48.15-.13.32-.24.51-.31.2-.07.41-.11.63-.11s.43.04.63.11c.2.07.37.17.51.31.15.13.26.29.34.48.08.19.13.4.13.63s-.04.44-.13.63c-.08.19-.2.35-.34.48s-.32.24-.51.31c-.2.07-.41.11-.63.11s-.43-.04-.63-.11c-.2-.07-.37-.17-.51-.31s-.26-.29-.34-.48c-.08-.19-.13-.4-.13-.63ZM120.37,38.1c0,.22.06.4.19.53.13.14.3.2.53.2s.4-.07.53-.2c.13-.13.19-.31.19-.53s-.06-.4-.19-.53-.3-.2-.53-.2-.4.07-.53.2-.19.31-.19.53Z"/>
    <path class="cls-1" d="M123.23,36.65h.86v.39h.01c.03-.06.07-.11.12-.17s.11-.11.19-.15.15-.08.25-.11c.09-.03.19-.04.3-.04.23,0,.41.04.55.1.14.07.25.17.33.29.08.12.13.27.16.44.03.17.04.35.04.54v1.6h-.9v-1.42c0-.08,0-.17,0-.26s-.02-.17-.05-.25c-.03-.08-.08-.14-.14-.19-.06-.05-.15-.07-.27-.07s-.21.02-.28.06-.13.1-.16.17c-.04.07-.06.15-.07.24-.01.09-.02.18-.02.28v1.45h-.9v-2.91Z"/>
    <path class="cls-1" d="M129.15,35.07v5.98h-.75v-5.98h.75Z"/>
  </g>
  <g>
    <path class="cls-1" d="M3.23,43.53c-.08-.09-.18-.17-.31-.21-.13-.05-.25-.07-.37-.07-.07,0-.14,0-.21.02-.07.02-.14.04-.2.08-.06.03-.12.08-.16.13-.04.06-.06.12-.06.2,0,.13.05.22.14.29.1.07.22.13.36.17.15.05.3.1.47.14.17.05.32.12.47.2.15.09.27.21.36.35s.14.34.14.59-.04.44-.13.62-.21.32-.36.44c-.15.12-.32.2-.52.26-.2.06-.41.08-.62.08-.27,0-.53-.04-.77-.12-.23-.08-.45-.22-.66-.41l.66-.73c.1.13.22.23.36.3.15.07.3.1.45.1.08,0,.15,0,.23-.03.08-.02.15-.04.21-.08.06-.04.11-.08.15-.14.04-.06.06-.12.06-.2,0-.13-.05-.23-.15-.3-.1-.07-.22-.14-.37-.19s-.31-.1-.48-.16-.33-.12-.48-.21c-.15-.09-.27-.2-.37-.35s-.15-.33-.15-.57.04-.43.13-.6c.09-.17.21-.31.36-.43.15-.12.32-.2.52-.26s.4-.09.6-.09c.24,0,.47.03.69.1.22.07.42.18.6.34l-.64.7Z"/>
    <path class="cls-1" d="M6.28,46.36h-.01c-.1.16-.23.27-.4.33-.17.07-.34.1-.52.1-.14,0-.27-.02-.39-.06-.13-.04-.24-.09-.33-.17-.1-.08-.17-.17-.23-.28-.06-.11-.08-.24-.08-.39,0-.17.03-.31.09-.42.06-.12.15-.21.25-.29.11-.08.23-.13.36-.18.14-.04.28-.07.42-.09.15-.02.29-.03.44-.04s.28,0,.4,0c0-.16-.06-.29-.17-.38-.11-.09-.25-.14-.4-.14s-.28.03-.4.09-.23.15-.33.25l-.48-.49c.17-.16.36-.27.59-.35.22-.08.45-.12.69-.12.26,0,.48.03.65.1s.31.16.41.29c.1.13.17.28.21.47.04.19.06.4.06.64v1.48h-.83v-.36ZM6.06,45.45c-.07,0-.15,0-.25,0-.1,0-.2.02-.29.05-.09.03-.17.07-.24.12-.07.06-.1.13-.1.23,0,.11.05.19.14.24s.19.08.29.08c.09,0,.17-.01.25-.04.08-.02.15-.06.22-.1.06-.04.11-.1.15-.17s.06-.15.06-.24v-.19h-.22Z"/>
    <path class="cls-1" d="M7.68,42.2h.9v4.52h-.9v-4.52Z"/>
    <path class="cls-1" d="M11.97,46.22c-.14.18-.32.32-.54.42s-.45.15-.68.15c-.22,0-.43-.04-.63-.11-.2-.07-.37-.17-.51-.31s-.26-.29-.34-.48c-.08-.19-.13-.4-.13-.63s.04-.44.13-.63c.08-.19.2-.35.34-.48.15-.13.32-.24.51-.31.2-.07.41-.11.63-.11.21,0,.4.04.56.11.17.07.31.17.43.31.12.13.21.29.27.48.06.19.1.4.1.63v.28h-2.08c.04.17.11.31.23.41s.27.15.44.15c.15,0,.27-.03.37-.1.1-.07.19-.15.27-.25l.63.46ZM11.21,44.94c0-.15-.05-.28-.15-.39s-.24-.16-.4-.16c-.1,0-.19.02-.26.05s-.14.07-.19.12c-.05.05-.1.11-.13.17-.03.07-.05.13-.05.21h1.18Z"/>
    <path class="cls-1" d="M14.3,44.67c-.13-.16-.3-.25-.52-.25-.08,0-.15.02-.22.05-.07.04-.11.1-.11.18,0,.07.04.12.11.16.07.03.17.06.28.09.11.03.23.05.36.08.13.03.25.08.36.14.11.06.21.15.28.26.07.11.11.26.11.44s-.04.34-.12.46c-.08.12-.19.22-.31.29-.13.07-.27.13-.43.16-.16.03-.32.04-.47.04-.2,0-.41-.03-.62-.09s-.38-.16-.53-.31l.54-.6c.08.1.18.18.28.24s.22.08.36.08c.1,0,.2-.02.28-.04.08-.03.13-.08.13-.17,0-.08-.04-.13-.11-.17s-.17-.07-.28-.1c-.11-.03-.24-.05-.36-.08-.13-.03-.25-.07-.36-.13-.11-.06-.21-.14-.28-.25-.07-.11-.11-.26-.11-.44,0-.17.03-.32.1-.44.07-.12.16-.23.27-.3.11-.08.24-.14.39-.18s.3-.06.45-.06c.19,0,.38.03.58.08s.36.16.5.3l-.55.54Z"/>
    <path class="cls-1" d="M18.12,43.32h-1.21v-.82h3.35v.82h-1.21v3.41h-.93v-3.41Z"/>
    <path class="cls-1" d="M20.08,43.82h.9v.47h.01c.1-.18.21-.31.34-.4.13-.09.3-.13.5-.13.05,0,.1,0,.16,0,.05,0,.1.01.14.02v.82c-.06-.02-.13-.04-.19-.04-.06,0-.13-.01-.19-.01-.17,0-.31.02-.41.07s-.18.12-.23.2c-.05.09-.09.19-.1.31-.02.12-.02.25-.02.39v1.21h-.9v-2.91Z"/>
    <path class="cls-1" d="M24.33,46.36h-.01c-.1.16-.23.27-.4.33-.17.07-.34.1-.52.1-.14,0-.27-.02-.39-.06-.13-.04-.24-.09-.33-.17-.1-.08-.17-.17-.23-.28-.06-.11-.08-.24-.08-.39,0-.17.03-.31.09-.42.06-.12.15-.21.25-.29.11-.08.23-.13.36-.18.14-.04.28-.07.42-.09.15-.02.29-.03.44-.04s.28,0,.4,0c0-.16-.06-.29-.17-.38-.11-.09-.25-.14-.4-.14s-.28.03-.4.09-.23.15-.33.25l-.48-.49c.17-.16.36-.27.59-.35.22-.08.45-.12.69-.12.26,0,.48.03.65.1s.31.16.41.29c.1.13.17.28.21.47.04.19.06.4.06.64v1.48h-.83v-.36ZM24.11,45.45c-.07,0-.15,0-.25,0-.1,0-.2.02-.29.05-.09.03-.17.07-.24.12-.07.06-.1.13-.1.23,0,.11.05.19.14.24s.19.08.29.08c.09,0,.17-.01.25-.04.08-.02.15-.06.22-.1.06-.04.11-.1.15-.17s.06-.15.06-.24v-.19h-.22Z"/>
    <path class="cls-1" d="M25.72,43.82h.86v.39h.01c.03-.06.07-.11.12-.17s.11-.11.19-.15.15-.08.25-.11c.09-.03.19-.04.3-.04.23,0,.41.04.55.1.14.07.25.17.33.29.08.12.13.27.16.44.03.17.04.35.04.54v1.6h-.9v-1.42c0-.08,0-.17,0-.26s-.02-.17-.05-.25c-.03-.08-.08-.14-.14-.19-.06-.05-.15-.07-.27-.07s-.21.02-.28.06-.13.1-.16.17c-.04.07-.06.15-.07.24-.01.09-.02.18-.02.28v1.45h-.9v-2.91Z"/>
    <path class="cls-1" d="M30.79,44.67c-.13-.16-.3-.25-.52-.25-.08,0-.15.02-.22.05-.07.04-.11.1-.11.18,0,.07.04.12.11.16.07.03.17.06.28.09.11.03.23.05.36.08.13.03.25.08.36.14.11.06.21.15.28.26.07.11.11.26.11.44s-.04.34-.12.46c-.08.12-.19.22-.31.29-.13.07-.27.13-.43.16-.16.03-.32.04-.47.04-.2,0-.41-.03-.62-.09s-.38-.16-.53-.31l.54-.6c.08.1.18.18.28.24s.22.08.36.08c.1,0,.2-.02.28-.04.08-.03.13-.08.13-.17,0-.08-.04-.13-.11-.17s-.17-.07-.28-.1c-.11-.03-.24-.05-.36-.08-.13-.03-.25-.07-.36-.13-.11-.06-.21-.14-.28-.25-.07-.11-.11-.26-.11-.44,0-.17.03-.32.1-.44.07-.12.16-.23.27-.3.11-.08.24-.14.39-.18s.3-.06.45-.06c.19,0,.38.03.58.08s.36.16.5.3l-.55.54Z"/>
    <path class="cls-1" d="M33.74,46.36h-.01c-.1.16-.23.27-.4.33-.17.07-.34.1-.52.1-.14,0-.27-.02-.39-.06-.13-.04-.24-.09-.33-.17-.1-.08-.17-.17-.23-.28-.06-.11-.08-.24-.08-.39,0-.17.03-.31.09-.42.06-.12.15-.21.25-.29.11-.08.23-.13.36-.18.14-.04.28-.07.42-.09.15-.02.29-.03.44-.04s.28,0,.4,0c0-.16-.06-.29-.17-.38-.11-.09-.25-.14-.4-.14s-.28.03-.4.09-.23.15-.33.25l-.48-.49c.17-.16.36-.27.59-.35.22-.08.45-.12.69-.12.26,0,.48.03.65.1s.31.16.41.29c.1.13.17.28.21.47.04.19.06.4.06.64v1.48h-.83v-.36ZM33.52,45.45c-.07,0-.15,0-.25,0-.1,0-.2.02-.29.05-.09.03-.17.07-.24.12-.07.06-.1.13-.1.23,0,.11.05.19.14.24s.19.08.29.08c.09,0,.17-.01.25-.04.08-.02.15-.06.22-.1.06-.04.11-.1.15-.17s.06-.15.06-.24v-.19h-.22Z"/>
    <path class="cls-1" d="M37.09,44.76c-.04-.06-.11-.12-.19-.16-.08-.04-.17-.06-.26-.06-.23,0-.4.07-.53.2s-.19.31-.19.53.06.4.19.53c.13.14.3.2.53.2.1,0,.19-.02.26-.07s.13-.1.19-.16l.59.62c-.14.14-.3.24-.49.3s-.37.09-.54.09c-.22,0-.43-.04-.63-.11-.2-.07-.37-.17-.51-.31s-.26-.29-.34-.48c-.08-.19-.13-.4-.13-.63s.04-.44.13-.63c.08-.19.2-.35.34-.48.15-.13.32-.24.51-.31.2-.07.41-.11.63-.11.17,0,.35.03.54.09s.35.16.49.3l-.59.62Z"/>
    <path class="cls-1" d="M39.99,44.54h-.79v.97c0,.08,0,.15.01.22,0,.07.03.12.05.17s.07.08.13.11c.06.03.13.04.23.04.05,0,.11,0,.19-.01.08,0,.14-.03.18-.07v.75c-.1.04-.2.06-.31.07s-.21.02-.32.02c-.15,0-.29-.02-.42-.05-.13-.03-.24-.08-.33-.15-.1-.07-.17-.16-.22-.27s-.08-.25-.08-.41v-1.38h-.57v-.72h.57v-.86h.9v.86h.79v.72Z"/>
    <path class="cls-1" d="M40.38,42.9c0-.14.05-.27.15-.37.1-.1.22-.15.37-.15s.27.05.37.15c.1.1.15.22.15.37s-.05.27-.15.37-.22.15-.37.15-.27-.05-.37-.15c-.1-.1-.15-.22-.15-.37ZM40.45,43.82h.9v2.91h-.9v-2.91Z"/>
    <path class="cls-1" d="M41.89,45.27c0-.23.04-.44.13-.63.08-.19.2-.35.34-.48.15-.13.32-.24.51-.31.2-.07.41-.11.63-.11s.43.04.63.11c.2.07.37.17.51.31.15.13.26.29.34.48.08.19.13.4.13.63s-.04.44-.13.63c-.08.19-.2.35-.34.48s-.32.24-.51.31c-.2.07-.41.11-.63.11s-.43-.04-.63-.11c-.2-.07-.37-.17-.51-.31s-.26-.29-.34-.48c-.08-.19-.13-.4-.13-.63ZM42.78,45.27c0,.22.06.4.19.53.13.14.3.2.53.2s.4-.07.53-.2c.13-.13.19-.31.19-.53s-.06-.4-.19-.53-.3-.2-.53-.2-.4.07-.53.2-.19.31-.19.53Z"/>
    <path class="cls-1" d="M45.64,43.82h.86v.39h.01c.03-.06.07-.11.12-.17s.11-.11.19-.15.15-.08.25-.11c.09-.03.19-.04.3-.04.23,0,.41.04.55.1.14.07.25.17.33.29.08.12.13.27.16.44.03.17.04.35.04.54v1.6h-.9v-1.42c0-.08,0-.17,0-.26s-.02-.17-.05-.25c-.03-.08-.08-.14-.14-.19-.06-.05-.15-.07-.27-.07s-.21.02-.28.06-.13.1-.16.17c-.04.07-.06.15-.07.24-.01.09-.02.18-.02.28v1.45h-.9v-2.91Z"/>
    <path class="cls-1" d="M50.71,44.67c-.13-.16-.3-.25-.52-.25-.08,0-.15.02-.22.05-.07.04-.11.1-.11.18,0,.07.04.12.11.16.07.03.17.06.28.09.11.03.23.05.36.08.13.03.25.08.36.14.11.06.21.15.28.26.07.11.11.26.11.44s-.04.34-.12.46c-.08.12-.19.22-.31.29-.13.07-.27.13-.43.16-.16.03-.32.04-.47.04-.2,0-.41-.03-.62-.09s-.38-.16-.53-.31l.54-.6c.08.1.18.18.28.24s.22.08.36.08c.1,0,.2-.02.28-.04.08-.03.13-.08.13-.17,0-.08-.04-.13-.11-.17s-.17-.07-.28-.1c-.11-.03-.24-.05-.36-.08-.13-.03-.25-.07-.36-.13-.11-.06-.21-.14-.28-.25-.07-.11-.11-.26-.11-.44,0-.17.03-.32.1-.44.07-.12.16-.23.27-.3.11-.08.24-.14.39-.18s.3-.06.45-.06c.19,0,.38.03.58.08s.36.16.5.3l-.55.54Z"/>
    <path class="cls-1" d="M54.33,42.24v5.98h-.75v-5.98h.75Z"/>
    <path class="cls-1" d="M56.4,42.49h1.06l1.05,2.77h.01l1.06-2.77h1l-1.75,4.23h-.75l-1.69-4.23Z"/>
    <path class="cls-1" d="M62.41,46.36h-.01c-.1.16-.23.27-.4.33-.17.07-.34.1-.52.1-.14,0-.27-.02-.39-.06-.13-.04-.24-.09-.33-.17-.1-.08-.17-.17-.23-.28-.06-.11-.08-.24-.08-.39,0-.17.03-.31.09-.42.06-.12.15-.21.25-.29.11-.08.23-.13.36-.18.14-.04.28-.07.42-.09.15-.02.29-.03.44-.04s.28,0,.4,0c0-.16-.06-.29-.17-.38-.11-.09-.25-.14-.4-.14s-.28.03-.4.09-.23.15-.33.25l-.48-.49c.17-.16.36-.27.59-.35.22-.08.45-.12.69-.12.26,0,.48.03.65.1s.31.16.41.29c.1.13.17.28.21.47.04.19.06.4.06.64v1.48h-.83v-.36ZM62.18,45.45c-.07,0-.15,0-.25,0-.1,0-.2.02-.29.05-.09.03-.17.07-.24.12-.07.06-.1.13-.1.23,0,.11.05.19.14.24s.19.08.29.08c.09,0,.17-.01.25-.04.08-.02.15-.06.22-.1.06-.04.11-.1.15-.17s.06-.15.06-.24v-.19h-.22Z"/>
    <path class="cls-1" d="M63.8,42.2h.9v4.52h-.9v-4.52Z"/>
    <path class="cls-1" d="M68.14,46.72h-.86v-.39h-.01c-.03.06-.07.11-.12.17-.05.06-.11.11-.18.15-.07.04-.15.08-.25.11-.09.03-.19.04-.3.04-.23,0-.41-.03-.55-.1-.14-.07-.25-.17-.33-.29-.08-.12-.13-.27-.16-.44-.03-.17-.04-.35-.04-.54v-1.6h.9v1.42c0,.08,0,.17,0,.26,0,.09.02.17.05.25.03.08.08.14.14.19.06.05.15.07.27.07s.21-.02.28-.06.13-.1.16-.17c.04-.07.06-.15.07-.24.01-.09.02-.18.02-.27v-1.45h.9v2.91Z"/>
    <path class="cls-1" d="M70.6,46.36h-.01c-.1.16-.23.27-.4.33-.17.07-.34.1-.52.1-.14,0-.27-.02-.39-.06-.13-.04-.24-.09-.33-.17-.1-.08-.17-.17-.23-.28-.06-.11-.08-.24-.08-.39,0-.17.03-.31.09-.42.06-.12.15-.21.25-.29.11-.08.23-.13.36-.18.14-.04.28-.07.42-.09.15-.02.29-.03.44-.04s.28,0,.4,0c0-.16-.06-.29-.17-.38-.11-.09-.25-.14-.4-.14s-.28.03-.4.09-.23.15-.33.25l-.48-.49c.17-.16.36-.27.59-.35.22-.08.45-.12.69-.12.26,0,.48.03.65.1s.31.16.41.29c.1.13.17.28.21.47.04.19.06.4.06.64v1.48h-.83v-.36ZM70.38,45.45c-.07,0-.15,0-.25,0-.1,0-.2.02-.29.05-.09.03-.17.07-.24.12-.07.06-.1.13-.1.23,0,.11.05.19.14.24s.19.08.29.08c.09,0,.17-.01.25-.04.08-.02.15-.06.22-.1.06-.04.11-.1.15-.17s.06-.15.06-.24v-.19h-.22Z"/>
    <path class="cls-1" d="M73.97,44.54h-.79v.97c0,.08,0,.15.01.22,0,.07.03.12.05.17s.07.08.13.11c.06.03.13.04.23.04.05,0,.11,0,.19-.01.08,0,.14-.03.18-.07v.75c-.1.04-.2.06-.31.07s-.21.02-.32.02c-.15,0-.29-.02-.42-.05-.13-.03-.24-.08-.33-.15-.1-.07-.17-.16-.22-.27s-.08-.25-.08-.41v-1.38h-.57v-.72h.57v-.86h.9v.86h.79v.72Z"/>
    <path class="cls-1" d="M74.36,42.9c0-.14.05-.27.15-.37.1-.1.22-.15.37-.15s.27.05.37.15c.1.1.15.22.15.37s-.05.27-.15.37-.22.15-.37.15-.27-.05-.37-.15c-.1-.1-.15-.22-.15-.37ZM74.43,43.82h.9v2.91h-.9v-2.91Z"/>
    <path class="cls-1" d="M75.87,45.27c0-.23.04-.44.13-.63.08-.19.2-.35.34-.48.15-.13.32-.24.51-.31.2-.07.41-.11.63-.11s.43.04.63.11c.2.07.37.17.51.31.15.13.26.29.34.48.08.19.13.4.13.63s-.04.44-.13.63c-.08.19-.2.35-.34.48s-.32.24-.51.31c-.2.07-.41.11-.63.11s-.43-.04-.63-.11c-.2-.07-.37-.17-.51-.31s-.26-.29-.34-.48c-.08-.19-.13-.4-.13-.63ZM76.76,45.27c0,.22.06.4.19.53.13.14.3.2.53.2s.4-.07.53-.2c.13-.13.19-.31.19-.53s-.06-.4-.19-.53-.3-.2-.53-.2-.4.07-.53.2-.19.31-.19.53Z"/>
    <path class="cls-1" d="M79.62,43.82h.86v.39h.01c.03-.06.07-.11.12-.17s.11-.11.19-.15.15-.08.25-.11c.09-.03.19-.04.3-.04.23,0,.41.04.55.1.14.07.25.17.33.29.08.12.13.27.16.44.03.17.04.35.04.54v1.6h-.9v-1.42c0-.08,0-.17,0-.26s-.02-.17-.05-.25c-.03-.08-.08-.14-.14-.19-.06-.05-.15-.07-.27-.07s-.21.02-.28.06-.13.1-.16.17c-.04.07-.06.15-.07.24-.01.09-.02.18-.02.28v1.45h-.9v-2.91Z"/>
    <path class="cls-1" d="M86.33,42.49h.77l1.84,4.23h-1.05l-.36-.9h-1.64l-.35.9h-1.03l1.83-4.23ZM86.68,43.72l-.51,1.32h1.03l-.52-1.32Z"/>
    <path class="cls-1" d="M92.3,46.72h-.82v-.38h-.01c-.04.05-.08.1-.14.16-.06.05-.13.1-.2.15-.08.04-.16.08-.26.11-.09.03-.19.04-.29.04-.22,0-.41-.04-.59-.11-.18-.07-.33-.18-.45-.31s-.22-.29-.29-.48c-.07-.18-.1-.38-.1-.6,0-.2.03-.4.09-.58.06-.18.15-.35.26-.49.11-.14.25-.26.42-.34.16-.09.35-.13.56-.13.19,0,.36.03.52.09.16.06.29.16.4.3h.01v-1.92h.9v4.52ZM91.47,45.27c0-.22-.06-.4-.19-.53s-.3-.2-.53-.2-.4.07-.53.2-.19.31-.19.53.06.4.19.53c.13.14.3.2.53.2s.4-.07.53-.2c.13-.13.19-.31.19-.53Z"/>
    <path class="cls-1" d="M92.71,43.82h.97l.73,1.97h.01l.68-1.97h.9l-1.15,2.91h-.95l-1.2-2.91Z"/>
    <path class="cls-1" d="M96.28,42.9c0-.14.05-.27.15-.37.1-.1.22-.15.37-.15s.27.05.37.15c.1.1.15.22.15.37s-.05.27-.15.37-.22.15-.37.15-.27-.05-.37-.15c-.1-.1-.15-.22-.15-.37ZM96.35,43.82h.9v2.91h-.9v-2.91Z"/>
    <path class="cls-1" d="M99.54,44.67c-.13-.16-.3-.25-.52-.25-.08,0-.15.02-.22.05-.07.04-.11.1-.11.18,0,.07.04.12.11.16.07.03.17.06.28.09.11.03.23.05.36.08.13.03.25.08.36.14.11.06.21.15.28.26.07.11.11.26.11.44s-.04.34-.12.46c-.08.12-.19.22-.31.29-.13.07-.27.13-.43.16-.16.03-.32.04-.47.04-.2,0-.41-.03-.62-.09s-.38-.16-.53-.31l.54-.6c.08.1.18.18.28.24s.22.08.36.08c.1,0,.2-.02.28-.04.08-.03.13-.08.13-.17,0-.08-.04-.13-.11-.17s-.17-.07-.28-.1c-.11-.03-.24-.05-.36-.08-.13-.03-.25-.07-.36-.13-.11-.06-.21-.14-.28-.25-.07-.11-.11-.26-.11-.44,0-.17.03-.32.1-.44.07-.12.16-.23.27-.3.11-.08.24-.14.39-.18s.3-.06.45-.06c.19,0,.38.03.58.08s.36.16.5.3l-.55.54Z"/>
    <path class="cls-1" d="M100.55,45.27c0-.23.04-.44.13-.63.08-.19.2-.35.34-.48.15-.13.32-.24.51-.31.2-.07.41-.11.63-.11s.43.04.63.11c.2.07.37.17.51.31.15.13.26.29.34.48.08.19.13.4.13.63s-.04.44-.13.63c-.08.19-.2.35-.34.48s-.32.24-.51.31c-.2.07-.41.11-.63.11s-.43-.04-.63-.11c-.2-.07-.37-.17-.51-.31s-.26-.29-.34-.48c-.08-.19-.13-.4-.13-.63ZM101.45,45.27c0,.22.06.4.19.53.13.14.3.2.53.2s.4-.07.53-.2c.13-.13.19-.31.19-.53s-.06-.4-.19-.53-.3-.2-.53-.2-.4.07-.53.2-.19.31-.19.53Z"/>
    <path class="cls-1" d="M104.3,43.82h.9v.47h.01c.1-.18.21-.31.34-.4.13-.09.3-.13.5-.13.05,0,.1,0,.16,0,.05,0,.1.01.14.02v.82c-.06-.02-.13-.04-.19-.04-.06,0-.13-.01-.19-.01-.17,0-.31.02-.41.07s-.18.12-.23.2c-.05.09-.09.19-.1.31-.02.12-.02.25-.02.39v1.21h-.9v-2.91Z"/>
    <path class="cls-1" d="M108.41,47.2c-.06.16-.12.29-.17.41-.06.12-.13.22-.21.3-.09.08-.19.14-.33.19-.13.04-.31.06-.52.06-.23,0-.45-.04-.67-.11l.12-.74c.14.06.28.09.42.09.1,0,.18-.01.25-.03.06-.02.12-.05.16-.1.04-.04.08-.09.1-.15s.06-.13.09-.21l.07-.17-1.27-2.93h.97l.75,1.92h.01l.64-1.92h.92l-1.31,3.38Z"/>
    <path class="cls-1" d="M112.55,42.24v5.98h-.75v-5.98h.75Z"/>
  </g>
  <polygon class="cls-1" points="84.23 2.98 84.23 1.36 83.61 1.36 83.61 .92 85.36 .92 85.36 1.36 84.73 1.36 84.73 2.98 84.23 2.98"/>
  <path class="cls-1" d="M85.71,2.98V.92h.45l.75,1.22h-.32s.76-1.22.76-1.22h.43v2.06h-.48v-.64c0-.18,0-.34.01-.48,0-.14.02-.28.05-.42l.06.15-.57.89h-.19l-.56-.88.06-.16c.02.13.04.27.05.41,0,.14.01.3.01.49v.64h-.49Z"/>
</svg>