<?xml version="1.0" encoding="UTF-8"?>
<svg id="Layer_1" data-name="Layer 1" xmlns="http://www.w3.org/2000/svg" viewBox="0 0 124.1 49.14">
  <defs>
    <style>
      .cls-1 {
        fill: #222053;
      }

      .cls-1, .cls-2, .cls-3 {
        stroke-width: 0px;
      }

      .cls-2 {
        fill: #efc932;
      }

      .cls-3 {
        fill: #232256;
      }
    </style>
  </defs>
  <polygon class="cls-2" points="24.97 21.29 15.31 31 8.65 24.27 11.04 21.88 15.34 26.19 22.58 18.9 24.97 21.29"/>
  <g>
    <path class="cls-2" d="M38.18,6.7v9.52c0,2.8-2.29,5.08-5.09,5.08h-6.15s-3.37-3.39-3.37-3.39h4.75s4.78,0,4.78,0c.94,0,1.7-.76,1.7-1.7V6.7c0-.94-.75-1.7-1.69-1.7l-27.14-.02c-.94,0-1.7.76-1.7,1.7v9.51c0,.94.75,1.7,1.69,1.71v3.38c-2.8,0-5.08-2.28-5.08-5.09V6.67c.01-2.8,2.29-5.08,5.09-5.07l27.14.02c2.8,0,5.08,2.28,5.07,5.08"/>
    <path class="cls-3" d="M45.66,26.39l1.41-3.62,1.43,3.62h-2.84ZM48.21,19.38h-2.12s-5.04,11.64-5.04,11.64h2.83s.97-2.46.97-2.46h4.52s1,2.47,1,2.47h2.89s-5.05-11.65-5.05-11.65ZM61.85,26.79c-.21.45-.51.82-.88,1.1-.37.28-.81.48-1.32.6-.51.12-1.06.18-1.65.18h-1.33v-6.91s1.52,0,1.52,0c.54,0,1.05.07,1.54.21.49.14.91.34,1.27.62.36.28.65.62.86,1.05.21.42.32.92.32,1.49,0,.66-.11,1.22-.32,1.67M64.29,22.54c-.37-.75-.86-1.35-1.49-1.82-.62-.47-1.35-.8-2.19-1.01-.84-.21-1.72-.32-2.65-.32h-3.85s-.01,11.65-.01,11.65h4.19c.87,0,1.69-.12,2.48-.37.79-.25,1.49-.62,2.09-1.11.6-.49,1.08-1.09,1.44-1.81.36-.72.54-1.55.54-2.49,0-1.06-.18-1.97-.55-2.72M76.69,19.41v11.64s2.55,0,2.55,0v-11.65s-2.55,0-2.55,0ZM88.43,25.9c-.26-.41-.6-.73-.99-.97-.4-.24-.83-.43-1.29-.56-.46-.13-.89-.26-1.29-.4-.4-.13-.73-.29-.99-.48-.27-.19-.4-.45-.4-.81,0-.22.05-.4.16-.56.11-.15.25-.28.43-.37.17-.09.36-.16.56-.21.2-.04.39-.06.58-.06.32,0,.65.06,1.01.19.35.13.64.32.84.58l1.76-1.92c-.49-.44-1.05-.75-1.66-.94-.61-.19-1.25-.28-1.91-.28-.57,0-1.12.08-1.66.24-.54.16-1.01.4-1.42.71-.41.32-.74.71-.98,1.18-.25.47-.37,1.02-.37,1.64s.13,1.17.4,1.56c.27.4.6.71,1.01.95.41.24.84.43,1.31.58.47.14.91.29,1.32.43.4.14.74.32,1.01.52.27.2.4.48.4.83,0,.21-.05.39-.16.54-.1.15-.24.28-.41.38-.17.1-.36.17-.57.22-.21.05-.43.07-.63.07-.43,0-.84-.1-1.24-.29-.4-.19-.73-.46-.99-.81l-1.83,2c.56.52,1.16.89,1.81,1.12.64.23,1.35.35,2.1.35.6,0,1.17-.07,1.72-.23.54-.15,1.02-.39,1.43-.71.41-.32.74-.72.98-1.2.24-.48.36-1.05.36-1.69,0-.68-.13-1.22-.39-1.63M99.34,26.76c-.17.46-.41.85-.73,1.19-.32.33-.7.59-1.14.78-.44.18-.94.28-1.49.28-.55,0-1.04-.09-1.49-.28-.44-.18-.82-.44-1.14-.78-.32-.34-.56-.73-.73-1.18-.17-.46-.25-.96-.25-1.51s.09-1.04.26-1.5c.17-.46.41-.86.73-1.19.32-.33.7-.59,1.14-.78.44-.19.94-.28,1.49-.28s1.04.09,1.49.28c.44.19.82.45,1.14.78.32.34.56.73.73,1.19.17.46.26.96.25,1.5,0,.55-.08,1.05-.26,1.5M101.79,22.72c-.31-.76-.75-1.4-1.3-1.93-.56-.53-1.22-.94-1.99-1.23-.77-.29-1.6-.43-2.51-.43-.91,0-1.75.14-2.51.43-.77.28-1.43.69-1.99,1.22-.56.53-.99,1.17-1.31,1.93-.31.76-.47,1.6-.47,2.53s.15,1.78.46,2.53c.31.76.75,1.4,1.3,1.93.56.53,1.22.94,1.99,1.23.77.29,1.61.43,2.51.43.91,0,1.75-.14,2.51-.43.77-.28,1.43-.69,1.99-1.22.56-.53,1-1.17,1.31-1.93.31-.76.47-1.6.47-2.53,0-.93-.15-1.78-.47-2.54M109.39,23.7c-.14.18-.31.3-.52.39-.21.08-.44.13-.7.15-.26.02-.5.03-.73.03h-1.51s0-2.65,0-2.65h1.67c.23,0,.47.02.71.05.24.03.45.1.64.19.19.09.34.23.46.4.12.18.18.41.18.71,0,.32-.07.56-.21.74M109.74,26.17c.82-.15,1.45-.52,1.88-1.09.43-.57.64-1.27.64-2.09,0-.68-.12-1.25-.35-1.7-.24-.46-.55-.82-.95-1.09-.4-.27-.87-.46-1.4-.58-.53-.12-1.09-.17-1.69-.17h-4.5s0,11.64,0,11.64h2.56s0-4.65,0-4.65h1.27s2.43,4.66,2.43,4.66h3.07s-2.95-4.92-2.95-4.92ZM120.18,19.45l-2.62,4.36-2.46-4.36h-3.19s4.36,6.68,4.36,6.68v4.97s2.56,0,2.56,0v-4.97s4.38-6.67,4.38-6.67h-3.04Z"/>
  </g>
  <polygon class="cls-3" points="69.06 31.06 71.12 31.06 75.93 19.4 73.18 19.4 70.25 27.04 70.21 27.04 67.34 19.39 64.41 19.39 69.06 31.06"/>
  <g>
    <path class="cls-3" d="M48.29,4.83c-.21-.26-.49-.46-.85-.59-.36-.13-.7-.19-1.02-.19-.19,0-.38.02-.58.07-.2.04-.39.11-.56.21-.18.09-.32.22-.43.37-.11.15-.17.34-.17.56,0,.35.13.62.4.81.27.19.6.35,1,.48.4.13.83.26,1.3.4.46.13.89.32,1.3.56.4.24.73.57,1,.98.27.41.4.95.39,1.64,0,.65-.12,1.22-.36,1.7-.24.49-.57.89-.98,1.21-.41.32-.89.56-1.44.71-.55.15-1.12.23-1.73.23-.76,0-1.46-.12-2.11-.35-.65-.23-1.26-.61-1.82-1.12l1.83-2.02c.27.35.6.63,1,.82.4.19.82.29,1.25.29.21,0,.42-.02.64-.07.22-.05.41-.12.58-.22.17-.1.31-.23.41-.38.1-.16.16-.34.16-.55,0-.35-.13-.63-.4-.83-.27-.21-.61-.38-1.01-.52-.41-.14-.85-.29-1.32-.43-.48-.14-.91-.34-1.32-.58-.41-.24-.74-.56-1.01-.96-.27-.4-.4-.92-.4-1.57,0-.63.12-1.18.37-1.65.25-.47.58-.87.99-1.19.41-.32.89-.56,1.43-.72.54-.16,1.09-.24,1.67-.24.66,0,1.3.1,1.92.28.62.19,1.17.5,1.67.94l-1.77,1.93Z"/>
    <path class="cls-3" d="M51.04,5.64h2.48s0,8.04,0,8.04h-2.48s0-8.04,0-8.04ZM50.85,3.11c0-.4.14-.74.42-1.02.28-.28.62-.42,1.02-.42.4,0,.74.14,1.02.42.28.28.42.62.42,1.02,0,.4-.14.74-.42,1.02s-.62.42-1.02.42c-.4,0-.74-.14-1.02-.42-.28-.28-.42-.62-.42-1.02"/>
    <path class="cls-3" d="M54.65,5.64h2.38s0,1.09,0,1.09h.03c.08-.15.19-.31.33-.46.14-.15.31-.29.51-.41.2-.12.42-.22.68-.3.25-.08.53-.12.83-.12.56,0,1.06.12,1.5.35.43.23.76.59.98,1.09.29-.52.63-.89,1.04-1.11.41-.22.91-.33,1.5-.33.54,0,.99.09,1.36.27.37.18.66.43.88.74.21.31.37.68.46,1.11.09.42.14.88.14,1.36v4.74s-2.48,0-2.48,0v-4.68c0-.37-.08-.7-.23-.97-.16-.27-.44-.4-.85-.4-.29,0-.52.05-.72.14-.19.09-.35.22-.46.39-.12.17-.2.36-.25.58-.05.22-.07.45-.07.69v4.25s-2.48,0-2.48,0v-4.25c0-.14,0-.32-.01-.53-.01-.21-.05-.41-.11-.6-.07-.19-.17-.35-.32-.48s-.37-.2-.65-.2c-.32,0-.58.06-.78.17-.2.11-.35.27-.45.46-.1.19-.17.41-.21.65-.03.24-.05.5-.05.76v4s-2.48,0-2.48,0V5.64Z"/>
    <path class="cls-3" d="M70.53,9.67c0,.61.17,1.1.52,1.47.35.38.83.56,1.46.56.63,0,1.12-.19,1.46-.56.35-.38.52-.86.52-1.47,0-.61-.17-1.1-.52-1.47-.34-.37-.83-.56-1.46-.56-.63,0-1.11.19-1.46.56-.35.38-.52.87-.52,1.47M68.25,5.65h2.28s0,1.06,0,1.06h.03c.1-.14.23-.29.39-.44.16-.15.35-.28.56-.4.21-.12.45-.22.7-.3.25-.08.52-.12.81-.12.59,0,1.13.1,1.62.31.48.21.9.49,1.24.86.35.37.61.81.8,1.31.18.51.28,1.06.28,1.67,0,.56-.09,1.1-.26,1.61-.17.51-.41.97-.73,1.36-.31.4-.7.71-1.15.95-.45.24-.96.35-1.54.35-.52,0-1-.08-1.45-.24-.45-.16-.81-.43-1.1-.82h-.03v4.63s-2.48,0-2.48,0V5.65Z"/>
  </g>
  <rect class="cls-3" x="77.79" y="1.2" width="2.48" height="12.5"/>
  <path class="cls-3" d="M86.89,8.78c.01-.42-.13-.78-.41-1.08-.29-.3-.66-.44-1.11-.44-.28,0-.52.04-.73.13-.21.09-.39.2-.54.34-.15.14-.26.3-.35.48-.08.18-.13.37-.14.57h3.27ZM88.98,12.32c-.4.51-.9.9-1.5,1.17-.61.28-1.23.41-1.88.41-.62,0-1.2-.1-1.74-.3-.54-.2-1.02-.48-1.42-.85-.4-.37-.72-.81-.95-1.33-.23-.52-.35-1.1-.35-1.74,0-.64.12-1.22.35-1.74.23-.52.55-.96.95-1.33.4-.37.88-.65,1.42-.85.55-.2,1.13-.3,1.74-.3.57,0,1.09.1,1.56.3.47.2.86.48,1.19.85.33.37.58.81.75,1.33.17.52.26,1.1.26,1.74v.78s-5.75,0-5.75,0c.1.47.31.85.64,1.13.33.28.74.42,1.22.42.41,0,.75-.09,1.03-.27.28-.18.53-.41.73-.7l1.73,1.27Z"/>
  <polygon class="cls-3" points="89.99 3.24 89.99 1.64 89.39 1.64 89.39 1.2 91.11 1.2 91.11 1.64 90.49 1.64 90.49 3.24 89.99 3.24"/>
  <path class="cls-3" d="M91.45,3.24V1.2s.44,0,.44,0l.74,1.21h-.32s.75-1.21.75-1.21h.43v2.04s-.48,0-.48,0v-.63c0-.17,0-.33.01-.47,0-.14.02-.28.04-.42l.06.15-.57.87h-.19l-.55-.87.06-.16c.02.13.04.26.04.4,0,.14.01.3.01.49v.63h-.48Z"/>
  <g>
    <path class="cls-1" d="M1.04,35.16h1.56c.22,0,.42.02.62.06.19.04.36.11.51.2.14.1.26.23.34.39s.13.37.13.62-.04.45-.12.62-.19.3-.33.4c-.14.1-.3.17-.49.21-.19.04-.39.06-.62.06h-.67v1.63h-.92v-4.19ZM1.96,36.94h.62c.08,0,.16,0,.24-.02.08-.02.15-.04.21-.08.06-.04.11-.09.15-.15.04-.07.06-.15.06-.25,0-.11-.02-.19-.07-.26-.05-.07-.11-.12-.19-.15-.08-.04-.16-.06-.26-.07-.09,0-.19-.01-.27-.01h-.47v1Z"/>
    <path class="cls-1" d="M4.65,36.48h.89v.46h.01c.09-.18.21-.31.34-.4.13-.09.29-.13.49-.13.05,0,.1,0,.15,0s.1.01.14.02v.81c-.06-.02-.13-.03-.19-.04-.06,0-.13-.01-.19-.01-.17,0-.3.02-.4.07-.1.05-.17.11-.23.2-.05.08-.09.19-.1.3-.02.12-.02.25-.02.39v1.2h-.89v-2.88Z"/>
    <path class="cls-1" d="M7,35.57c0-.14.05-.26.15-.36.1-.1.22-.15.36-.15s.26.05.36.15c.1.1.15.22.15.36s-.05.26-.15.36-.22.15-.36.15-.26-.05-.36-.15-.15-.22-.15-.36ZM7.07,36.48h.89v2.88h-.89v-2.88Z"/>
    <path class="cls-1" d="M8.3,36.48h.96l.73,1.95h.01l.67-1.95h.89l-1.14,2.88h-.94l-1.19-2.88Z"/>
    <path class="cls-1" d="M13.7,38.99h-.01c-.1.15-.23.26-.39.33-.16.07-.34.1-.52.1-.13,0-.26-.02-.39-.06-.12-.04-.23-.09-.33-.17-.09-.07-.17-.17-.22-.28-.06-.11-.08-.24-.08-.38,0-.17.03-.31.09-.42.06-.11.14-.21.25-.28s.22-.13.36-.17c.13-.04.27-.07.42-.09.14-.02.29-.03.43-.04s.28,0,.4,0c0-.16-.06-.28-.17-.38-.11-.09-.25-.14-.4-.14-.15,0-.28.03-.4.09-.12.06-.23.15-.32.25l-.47-.49c.17-.15.36-.27.58-.35.22-.08.45-.12.69-.12.26,0,.47.03.64.1.17.07.3.16.4.29.1.13.17.28.21.46.04.18.06.4.06.64v1.46h-.82v-.36ZM13.48,38.09c-.07,0-.15,0-.25,0s-.2.02-.29.05c-.09.03-.17.07-.24.12-.07.05-.1.13-.1.23,0,.11.04.19.14.24.09.05.19.08.28.08.09,0,.17-.01.25-.04s.15-.06.22-.1c.06-.04.11-.1.15-.17.04-.07.06-.15.06-.24v-.19h-.22Z"/>
    <path class="cls-1" d="M17.03,37.19h-.78v.96c0,.08,0,.15.01.22,0,.06.03.12.05.17.03.05.07.08.13.11.06.03.13.04.23.04.05,0,.11,0,.19-.01s.13-.03.17-.07v.74c-.1.04-.2.06-.31.07-.11.01-.21.02-.31.02-.15,0-.29-.02-.41-.05-.13-.03-.24-.08-.33-.15-.09-.07-.17-.16-.22-.27-.05-.11-.08-.25-.08-.4v-1.37h-.57v-.71h.57v-.85h.89v.85h.78v.71Z"/>
    <path class="cls-1" d="M20.21,38.86c-.14.18-.32.32-.54.42s-.44.15-.67.15c-.22,0-.43-.04-.62-.11-.2-.07-.37-.17-.51-.31-.14-.13-.26-.29-.34-.48-.08-.18-.12-.39-.12-.62s.04-.44.12-.62.2-.34.34-.48c.14-.13.31-.23.51-.3s.4-.11.62-.11c.21,0,.39.04.56.11s.31.17.43.3c.12.13.21.29.27.48.06.19.09.39.09.62v.28h-2.06c.04.17.11.3.23.41s.26.15.44.15c.15,0,.27-.03.37-.1.1-.07.19-.15.26-.25l.62.46ZM19.45,37.59c0-.15-.05-.28-.15-.39-.1-.11-.23-.16-.4-.16-.1,0-.19.02-.26.05-.08.03-.14.07-.19.12-.05.05-.09.11-.12.17-.03.07-.05.13-.05.21h1.17Z"/>
    <path class="cls-1" d="M22.78,35.16h2.81v.85h-1.89v.85h1.75v.85h-1.75v1.63h-.92v-4.19Z"/>
    <path class="cls-1" d="M28.91,39.35h-.85v-.39h-.01c-.03.06-.07.11-.12.17-.05.05-.11.1-.18.15-.07.04-.15.08-.24.11-.09.03-.19.04-.3.04-.22,0-.41-.04-.55-.1-.14-.07-.25-.17-.33-.29-.08-.12-.13-.27-.15-.43-.03-.17-.04-.34-.04-.54v-1.59h.89v1.41c0,.08,0,.17,0,.26s.02.17.05.25c.03.08.08.14.14.18.06.05.15.07.26.07s.21-.02.28-.06c.07-.04.13-.1.16-.17s.06-.15.07-.23.02-.18.02-.27v-1.43h.89v2.88Z"/>
    <path class="cls-1" d="M29.54,36.48h.85v.39h.01c.03-.06.07-.11.12-.17.05-.05.11-.1.18-.15.07-.04.15-.08.24-.11.09-.03.19-.04.3-.04.23,0,.41.04.54.1.14.07.25.17.32.29s.13.27.16.43c.03.17.04.34.04.54v1.59h-.89v-1.41c0-.08,0-.17,0-.26,0-.09-.02-.17-.05-.25-.03-.08-.07-.14-.14-.18-.06-.05-.15-.07-.26-.07s-.21.02-.28.06c-.07.04-.12.1-.16.17-.04.07-.06.15-.07.23s-.02.18-.02.27v1.43h-.89v-2.88Z"/>
    <path class="cls-1" d="M35.96,39.35h-.82v-.38h-.01c-.04.05-.08.1-.14.16-.06.05-.12.1-.2.14-.08.04-.16.08-.25.11-.09.03-.19.04-.29.04-.21,0-.41-.04-.58-.11-.17-.07-.32-.18-.45-.31-.12-.13-.22-.29-.29-.47-.07-.18-.1-.38-.1-.6,0-.2.03-.39.09-.58s.15-.35.26-.49c.11-.14.25-.26.41-.34.16-.08.35-.13.55-.13.19,0,.36.03.52.09.16.06.29.16.39.29h.01v-1.91h.89v4.48ZM35.14,37.92c0-.22-.06-.39-.19-.53-.12-.13-.3-.2-.52-.2s-.4.07-.52.2c-.12.13-.19.31-.19.53s.06.39.19.53c.12.13.3.2.52.2s.4-.07.52-.2c.12-.13.19-.31.19-.53Z"/>
    <path class="cls-1" d="M39.91,35.16h.76l1.82,4.19h-1.04l-.36-.89h-1.63l-.35.89h-1.02l1.81-4.19ZM40.27,36.38l-.51,1.3h1.02l-.51-1.3Z"/>
    <path class="cls-1" d="M45.83,39.35h-.82v-.38h-.01c-.04.05-.08.1-.14.16-.06.05-.12.1-.2.14-.08.04-.16.08-.25.11-.09.03-.19.04-.29.04-.21,0-.41-.04-.58-.11-.17-.07-.32-.18-.45-.31-.12-.13-.22-.29-.29-.47-.07-.18-.1-.38-.1-.6,0-.2.03-.39.09-.58s.15-.35.26-.49c.11-.14.25-.26.41-.34.16-.08.35-.13.55-.13.19,0,.36.03.52.09.16.06.29.16.39.29h.01v-1.91h.89v4.48ZM45.01,37.92c0-.22-.06-.39-.19-.53-.12-.13-.3-.2-.52-.2s-.4.07-.52.2c-.12.13-.19.31-.19.53s.06.39.19.53c.12.13.3.2.52.2s.4-.07.52-.2c.12-.13.19-.31.19-.53Z"/>
    <path class="cls-1" d="M46.23,36.48h.96l.73,1.95h.01l.67-1.95h.89l-1.14,2.88h-.94l-1.19-2.88Z"/>
    <path class="cls-1" d="M49.77,35.57c0-.14.05-.26.15-.36.1-.1.22-.15.36-.15s.26.05.36.15c.1.1.15.22.15.36s-.05.26-.15.36-.22.15-.36.15-.26-.05-.36-.15-.15-.22-.15-.36ZM49.84,36.48h.89v2.88h-.89v-2.88Z"/>
    <path class="cls-1" d="M53,37.32c-.13-.16-.3-.24-.51-.24-.08,0-.15.02-.22.05-.07.04-.11.1-.11.18,0,.07.04.12.11.16.07.03.17.06.28.09.11.03.23.05.36.08.13.03.25.08.36.14.11.06.21.15.28.26s.11.25.11.44-.04.34-.12.46c-.08.12-.18.22-.31.29-.13.07-.27.12-.43.15-.16.03-.31.04-.47.04-.2,0-.4-.03-.61-.09-.21-.06-.38-.16-.52-.3l.54-.6c.08.1.17.18.28.23.1.05.22.08.35.08.1,0,.2-.01.28-.04.08-.03.12-.08.12-.16,0-.07-.04-.13-.11-.17-.07-.04-.17-.07-.28-.09-.11-.03-.23-.05-.36-.08s-.25-.07-.36-.13c-.11-.06-.21-.14-.28-.25-.07-.11-.11-.25-.11-.44,0-.17.04-.32.1-.44.07-.12.16-.22.27-.3.11-.08.24-.14.39-.17.15-.04.29-.06.44-.06.19,0,.38.03.57.08s.36.15.49.3l-.54.54Z"/>
    <path class="cls-1" d="M54,37.92c0-.23.04-.44.12-.62.08-.19.2-.34.34-.48.14-.13.31-.23.51-.3s.4-.11.62-.11.43.04.62.11c.2.07.37.17.51.3.14.13.26.29.34.48.08.19.12.39.12.62s-.04.44-.12.62c-.08.19-.2.34-.34.48-.14.13-.31.23-.51.31-.2.07-.4.11-.62.11s-.43-.04-.62-.11c-.2-.07-.36-.17-.51-.31-.14-.13-.26-.29-.34-.48-.08-.18-.12-.39-.12-.62ZM54.89,37.92c0,.22.06.39.19.53.12.13.3.2.52.2s.4-.07.52-.2c.12-.13.19-.31.19-.53s-.06-.39-.19-.53c-.12-.13-.3-.2-.52-.2s-.4.07-.52.2c-.12.13-.19.31-.19.53Z"/>
    <path class="cls-1" d="M57.72,36.48h.89v.46h.01c.09-.18.21-.31.34-.4.13-.09.29-.13.49-.13.05,0,.1,0,.15,0s.1.01.14.02v.81c-.06-.02-.13-.03-.19-.04-.06,0-.13-.01-.19-.01-.17,0-.3.02-.4.07-.1.05-.17.11-.23.2-.05.08-.09.19-.1.3-.02.12-.02.25-.02.39v1.2h-.89v-2.88Z"/>
    <path class="cls-1" d="M61.79,39.82c-.06.15-.12.29-.17.41-.06.12-.12.22-.21.3s-.19.14-.32.18c-.13.04-.3.06-.51.06-.23,0-.45-.04-.66-.11l.12-.73c.13.06.27.09.42.09.1,0,.18-.01.24-.03.06-.02.12-.05.16-.09.04-.04.08-.09.1-.15.03-.06.06-.13.09-.21l.06-.17-1.26-2.9h.96l.74,1.9h.01l.63-1.9h.91l-1.3,3.34Z"/>
    <path class="cls-1" d="M65.89,34.91v5.92h-.75v-5.92h.75Z"/>
    <path class="cls-1" d="M71.09,36.25c-.09-.11-.2-.2-.33-.25-.13-.06-.29-.09-.46-.09s-.33.03-.48.1c-.15.07-.28.16-.38.28s-.19.26-.25.43c-.06.17-.09.35-.09.54s.03.38.09.54c.06.16.15.31.25.43s.23.21.38.28c.14.07.3.1.46.1.19,0,.36-.04.5-.12.15-.08.27-.19.36-.33l.77.57c-.18.25-.4.43-.67.55-.27.12-.55.18-.84.18-.33,0-.63-.05-.91-.15-.28-.1-.51-.25-.72-.44s-.36-.42-.47-.7c-.11-.27-.17-.58-.17-.91s.06-.64.17-.91c.11-.27.27-.5.47-.7s.44-.34.72-.44c.28-.1.58-.15.91-.15.12,0,.24.01.37.03.13.02.25.06.38.1.12.05.24.11.36.19.12.08.22.18.31.29l-.71.58Z"/>
    <path class="cls-1" d="M72.19,37.92c0-.23.04-.44.12-.62.08-.19.2-.34.34-.48.14-.13.31-.23.51-.3s.4-.11.62-.11.43.04.62.11c.2.07.37.17.51.3.14.13.26.29.34.48.08.19.12.39.12.62s-.04.44-.12.62c-.08.19-.2.34-.34.48-.14.13-.31.23-.51.31-.2.07-.4.11-.62.11s-.43-.04-.62-.11c-.2-.07-.36-.17-.51-.31-.14-.13-.26-.29-.34-.48-.08-.18-.12-.39-.12-.62ZM73.08,37.92c0,.22.06.39.19.53.12.13.3.2.52.2s.4-.07.52-.2c.12-.13.19-.31.19-.53s-.06-.39-.19-.53c-.12-.13-.3-.2-.52-.2s-.4.07-.52.2c-.12.13-.19.31-.19.53Z"/>
    <path class="cls-1" d="M75.91,36.48h.85v.39h.01c.03-.06.07-.11.12-.17.05-.05.11-.1.18-.15.07-.04.15-.08.24-.11.09-.03.19-.04.3-.04.2,0,.38.04.54.12.16.08.27.21.35.39.1-.18.23-.32.37-.4.15-.08.33-.12.54-.12.19,0,.36.03.49.1.13.07.24.15.31.27.08.11.13.25.17.4.03.15.05.31.05.49v1.7h-.89v-1.68c0-.13-.03-.25-.08-.35-.06-.1-.16-.15-.31-.15-.1,0-.19.02-.26.05-.07.03-.12.08-.17.14-.04.06-.07.13-.09.21-.02.08-.03.16-.03.25v1.52h-.89v-1.52c0-.05,0-.11,0-.19s-.02-.15-.04-.21-.06-.12-.12-.17c-.05-.05-.13-.07-.23-.07-.11,0-.21.02-.28.06-.07.04-.12.1-.16.17-.04.07-.06.15-.07.23s-.02.18-.02.27v1.43h-.89v-2.88Z"/>
    <path class="cls-1" d="M81.14,36.48h.82v.38h.01c.04-.05.08-.1.14-.16.06-.05.12-.1.2-.14.08-.04.16-.08.25-.11.09-.03.19-.04.29-.04.21,0,.41.04.58.11s.32.18.45.31c.12.13.22.29.29.47.07.18.1.38.1.6,0,.2-.03.39-.09.58s-.15.35-.26.49c-.11.14-.25.26-.41.34-.16.08-.35.13-.55.13-.19,0-.36-.03-.52-.09-.16-.06-.29-.16-.39-.29h-.01v1.66h-.89v-4.23ZM81.96,37.92c0,.22.06.39.19.53.12.13.3.2.52.2s.4-.07.52-.2c.12-.13.19-.31.19-.53s-.06-.39-.19-.53c-.12-.13-.3-.2-.52-.2s-.4.07-.52.2c-.12.13-.19.31-.19.53Z"/>
    <path class="cls-1" d="M84.8,34.88h.89v4.48h-.89v-4.48Z"/>
    <path class="cls-1" d="M86.27,35.57c0-.14.05-.26.15-.36.1-.1.22-.15.36-.15s.26.05.36.15c.1.1.15.22.15.36s-.05.26-.15.36-.22.15-.36.15-.26-.05-.36-.15-.15-.22-.15-.36ZM86.34,36.48h.89v2.88h-.89v-2.88Z"/>
    <path class="cls-1" d="M89.67,38.99h-.01c-.1.15-.23.26-.39.33-.16.07-.34.1-.52.1-.13,0-.26-.02-.39-.06-.12-.04-.23-.09-.33-.17-.09-.07-.17-.17-.22-.28-.06-.11-.08-.24-.08-.38,0-.17.03-.31.09-.42.06-.11.14-.21.25-.28s.22-.13.36-.17c.13-.04.27-.07.42-.09.14-.02.29-.03.43-.04s.28,0,.4,0c0-.16-.06-.28-.17-.38-.11-.09-.25-.14-.4-.14-.15,0-.28.03-.4.09-.12.06-.23.15-.32.25l-.47-.49c.17-.15.36-.27.58-.35.22-.08.45-.12.69-.12.26,0,.47.03.64.1.17.07.3.16.4.29.1.13.17.28.21.46.04.18.06.4.06.64v1.46h-.82v-.36ZM89.45,38.09c-.07,0-.15,0-.25,0s-.2.02-.29.05c-.09.03-.17.07-.24.12-.07.05-.1.13-.1.23,0,.11.04.19.14.24.09.05.19.08.28.08.09,0,.17-.01.25-.04s.15-.06.22-.1c.06-.04.11-.1.15-.17.04-.07.06-.15.06-.24v-.19h-.22Z"/>
    <path class="cls-1" d="M91.04,36.48h.85v.39h.01c.03-.06.07-.11.12-.17.05-.05.11-.1.18-.15.07-.04.15-.08.24-.11.09-.03.19-.04.3-.04.23,0,.41.04.54.1.14.07.25.17.32.29s.13.27.16.43c.03.17.04.34.04.54v1.59h-.89v-1.41c0-.08,0-.17,0-.26,0-.09-.02-.17-.05-.25-.03-.08-.07-.14-.14-.18-.06-.05-.15-.07-.26-.07s-.21.02-.28.06c-.07.04-.12.1-.16.17-.04.07-.06.15-.07.23s-.02.18-.02.27v1.43h-.89v-2.88Z"/>
    <path class="cls-1" d="M96.39,37.41c-.04-.06-.1-.12-.18-.16-.08-.04-.16-.06-.25-.06-.22,0-.4.07-.52.2-.12.13-.19.31-.19.53s.06.39.19.53c.12.13.3.2.52.2.1,0,.18-.02.25-.07.07-.04.13-.09.18-.15l.59.62c-.14.14-.3.24-.49.3-.19.06-.37.09-.54.09-.22,0-.43-.04-.62-.11-.2-.07-.37-.17-.51-.31-.14-.13-.26-.29-.34-.48-.08-.18-.12-.39-.12-.62s.04-.44.12-.62.2-.34.34-.48c.14-.13.31-.23.51-.3s.4-.11.62-.11c.17,0,.35.03.54.09s.35.16.49.3l-.59.62Z"/>
    <path class="cls-1" d="M100.02,38.86c-.14.18-.32.32-.54.42s-.44.15-.67.15c-.22,0-.43-.04-.62-.11-.2-.07-.37-.17-.51-.31-.14-.13-.26-.29-.34-.48-.08-.18-.12-.39-.12-.62s.04-.44.12-.62.2-.34.34-.48c.14-.13.31-.23.51-.3s.4-.11.62-.11c.21,0,.39.04.56.11s.31.17.43.3c.12.13.21.29.27.48.06.19.09.39.09.62v.28h-2.06c.04.17.11.3.23.41s.26.15.44.15c.15,0,.27-.03.37-.1.1-.07.19-.15.26-.25l.62.46ZM99.27,37.59c0-.15-.05-.28-.15-.39-.1-.11-.23-.16-.4-.16-.1,0-.19.02-.26.05-.08.03-.14.07-.19.12-.05.05-.09.11-.12.17-.03.07-.05.13-.05.21h1.17Z"/>
    <path class="cls-1" d="M103.16,34.91v5.92h-.75v-5.92h.75Z"/>
  </g>
  <g>
    <path class="cls-1" d="M1.07,42.27h2.81v.85h-1.89v.85h1.75v.85h-1.75v1.63h-.92v-4.19Z"/>
    <path class="cls-1" d="M4.38,42.68c0-.14.05-.26.15-.36.1-.1.22-.15.36-.15s.26.05.36.15c.1.1.15.22.15.36s-.05.26-.15.36-.22.15-.36.15-.26-.05-.36-.15-.15-.22-.15-.36ZM4.45,43.58h.89v2.88h-.89v-2.88Z"/>
    <path class="cls-1" d="M8.99,46.46h-.82v-.38h-.01c-.04.05-.08.1-.14.16-.06.05-.12.1-.2.14-.08.04-.16.08-.25.11-.09.03-.19.04-.29.04-.21,0-.41-.04-.58-.11-.17-.07-.32-.18-.45-.31-.12-.13-.22-.29-.29-.47-.07-.18-.1-.38-.1-.6,0-.2.03-.39.09-.58s.15-.35.26-.49c.11-.14.25-.26.41-.34.16-.08.35-.13.55-.13.19,0,.36.03.52.09.16.06.29.16.39.29h.01v-1.91h.89v4.48ZM8.18,45.02c0-.22-.06-.39-.19-.53-.12-.13-.3-.2-.52-.2s-.4.07-.52.2c-.12.13-.19.31-.19.53s.06.39.19.53c.12.13.3.2.52.2s.4-.07.52-.2c.12-.13.19-.31.19-.53Z"/>
    <path class="cls-1" d="M12.47,46.46h-.85v-.39h-.01c-.03.06-.07.11-.12.17-.05.05-.11.1-.18.15-.07.04-.15.08-.24.11-.09.03-.19.04-.3.04-.22,0-.41-.04-.55-.1-.14-.07-.25-.17-.33-.29-.08-.12-.13-.27-.15-.43-.03-.17-.04-.34-.04-.54v-1.59h.89v1.41c0,.08,0,.17,0,.26s.02.17.05.25c.03.08.08.14.14.18.06.05.15.07.26.07s.21-.02.28-.06c.07-.04.13-.1.16-.17s.06-.15.07-.23.02-.18.02-.27v-1.43h.89v2.88Z"/>
    <path class="cls-1" d="M15.05,44.51c-.04-.06-.1-.12-.18-.16-.08-.04-.16-.06-.25-.06-.22,0-.4.07-.52.2-.12.13-.19.31-.19.53s.06.39.19.53c.12.13.3.2.52.2.1,0,.18-.02.25-.07.07-.04.13-.09.18-.15l.59.62c-.14.14-.3.24-.49.3-.19.06-.37.09-.54.09-.22,0-.43-.04-.62-.11-.2-.07-.37-.17-.51-.31-.14-.13-.26-.29-.34-.48-.08-.18-.12-.39-.12-.62s.04-.44.12-.62.2-.34.34-.48c.14-.13.31-.23.51-.3s.4-.11.62-.11c.17,0,.35.03.54.09s.35.16.49.3l-.59.62Z"/>
    <path class="cls-1" d="M15.9,42.68c0-.14.05-.26.15-.36.1-.1.22-.15.36-.15s.26.05.36.15c.1.1.15.22.15.36s-.05.26-.15.36-.22.15-.36.15-.26-.05-.36-.15-.15-.22-.15-.36ZM15.97,43.58h.89v2.88h-.89v-2.88Z"/>
    <path class="cls-1" d="M19.3,46.1h-.01c-.1.15-.23.26-.39.33-.16.07-.34.1-.52.1-.13,0-.26-.02-.39-.06-.12-.04-.23-.09-.33-.17-.09-.07-.17-.17-.22-.28-.06-.11-.08-.24-.08-.38,0-.17.03-.31.09-.42.06-.11.14-.21.25-.28s.22-.13.36-.17c.13-.04.27-.07.42-.09.14-.02.29-.03.43-.04s.28,0,.4,0c0-.16-.06-.28-.17-.38-.11-.09-.25-.14-.4-.14-.15,0-.28.03-.4.09-.12.06-.23.15-.32.25l-.47-.49c.17-.15.36-.27.58-.35.22-.08.45-.12.69-.12.26,0,.47.03.64.1.17.07.3.16.4.29.1.13.17.28.21.46.04.18.06.4.06.64v1.46h-.82v-.36ZM19.08,45.2c-.07,0-.15,0-.25,0s-.2.02-.29.05c-.09.03-.17.07-.24.12-.07.05-.1.13-.1.23,0,.11.04.19.14.24.09.05.19.08.28.08.09,0,.17-.01.25-.04s.15-.06.22-.1c.06-.04.11-.1.15-.17.04-.07.06-.15.06-.24v-.19h-.22Z"/>
    <path class="cls-1" d="M20.67,43.58h.89v.46h.01c.09-.18.21-.31.34-.4.13-.09.29-.13.49-.13.05,0,.1,0,.15,0s.1.01.14.02v.81c-.06-.02-.13-.03-.19-.04-.06,0-.13-.01-.19-.01-.17,0-.3.02-.4.07-.1.05-.17.11-.23.2-.05.08-.09.19-.1.3-.02.12-.02.25-.02.39v1.2h-.89v-2.88Z"/>
    <path class="cls-1" d="M24.74,46.93c-.06.15-.12.29-.17.41-.06.12-.12.22-.21.3s-.19.14-.32.18c-.13.04-.3.06-.51.06-.23,0-.45-.04-.66-.11l.12-.73c.13.06.27.09.42.09.1,0,.18-.01.24-.03.06-.02.12-.05.16-.09.04-.04.08-.09.1-.15.03-.06.06-.13.09-.21l.06-.17-1.26-2.9h.96l.74,1.9h.01l.63-1.9h.91l-1.3,3.34Z"/>
    <path class="cls-1" d="M28.24,42.27h1.4l.96,2.74h.01l.97-2.74h1.39v4.19h-.92v-3.21h-.01l-1.1,3.21h-.71l-1.06-3.21h-.01v3.21h-.92v-4.19Z"/>
    <path class="cls-1" d="M35.52,46.1h-.01c-.1.15-.23.26-.39.33-.16.07-.34.1-.52.1-.13,0-.26-.02-.39-.06-.12-.04-.23-.09-.33-.17-.09-.07-.17-.17-.22-.28-.06-.11-.08-.24-.08-.38,0-.17.03-.31.09-.42.06-.11.14-.21.25-.28s.22-.13.36-.17c.13-.04.27-.07.42-.09.14-.02.29-.03.43-.04s.28,0,.4,0c0-.16-.06-.28-.17-.38-.11-.09-.25-.14-.4-.14-.15,0-.28.03-.4.09-.12.06-.23.15-.32.25l-.47-.49c.17-.15.36-.27.58-.35.22-.08.45-.12.69-.12.26,0,.47.03.64.1.17.07.3.16.4.29.1.13.17.28.21.46.04.18.06.4.06.64v1.46h-.82v-.36ZM35.3,45.2c-.07,0-.15,0-.25,0s-.2.02-.29.05c-.09.03-.17.07-.24.12-.07.05-.1.13-.1.23,0,.11.04.19.14.24.09.05.19.08.28.08.09,0,.17-.01.25-.04s.15-.06.22-.1c.06-.04.11-.1.15-.17.04-.07.06-.15.06-.24v-.19h-.22Z"/>
    <path class="cls-1" d="M36.89,43.58h.85v.39h.01c.03-.06.07-.11.12-.17.05-.05.11-.1.18-.15.07-.04.15-.08.24-.11.09-.03.19-.04.3-.04.23,0,.41.04.54.1.14.07.25.17.32.29s.13.27.16.43c.03.17.04.34.04.54v1.59h-.89v-1.41c0-.08,0-.17,0-.26,0-.09-.02-.17-.05-.25-.03-.08-.07-.14-.14-.18-.06-.05-.15-.07-.26-.07s-.21.02-.28.06c-.07.04-.12.1-.16.17-.04.07-.06.15-.07.23s-.02.18-.02.27v1.43h-.89v-2.88Z"/>
    <path class="cls-1" d="M42.1,46.1h-.01c-.1.15-.23.26-.39.33-.16.07-.34.1-.52.1-.13,0-.26-.02-.39-.06-.12-.04-.23-.09-.33-.17-.09-.07-.17-.17-.22-.28-.06-.11-.08-.24-.08-.38,0-.17.03-.31.09-.42.06-.11.14-.21.25-.28s.22-.13.36-.17c.13-.04.27-.07.42-.09.14-.02.29-.03.43-.04s.28,0,.4,0c0-.16-.06-.28-.17-.38-.11-.09-.25-.14-.4-.14-.15,0-.28.03-.4.09-.12.06-.23.15-.32.25l-.47-.49c.17-.15.36-.27.58-.35.22-.08.45-.12.69-.12.26,0,.47.03.64.1.17.07.3.16.4.29.1.13.17.28.21.46.04.18.06.4.06.64v1.46h-.82v-.36ZM41.88,45.2c-.07,0-.15,0-.25,0s-.2.02-.29.05c-.09.03-.17.07-.24.12-.07.05-.1.13-.1.23,0,.11.04.19.14.24.09.05.19.08.28.08.09,0,.17-.01.25-.04s.15-.06.22-.1c.06-.04.11-.1.15-.17.04-.07.06-.15.06-.24v-.19h-.22Z"/>
    <path class="cls-1" d="M46.49,46.22c0,.54-.14.96-.41,1.24-.27.28-.69.42-1.25.42-.26,0-.51-.03-.76-.09-.25-.06-.48-.17-.69-.33l.49-.73c.14.11.28.21.43.27.15.07.32.1.5.1.27,0,.47-.07.6-.2.13-.13.19-.3.19-.51v-.28h-.01c-.1.14-.23.24-.38.29-.15.06-.3.09-.43.09-.21,0-.41-.04-.58-.11s-.32-.18-.45-.31c-.12-.13-.22-.29-.29-.47s-.1-.38-.1-.6c0-.19.03-.38.09-.56s.15-.34.26-.48.25-.25.41-.33c.16-.08.35-.13.55-.13.13,0,.24.01.35.04.1.03.2.06.28.11.08.04.15.09.21.14.06.05.11.11.14.16h.01v-.38h.82v2.63ZM44.25,45c0,.09.02.18.05.27s.09.16.15.22c.06.07.14.12.22.16.08.04.18.06.28.06s.19-.02.28-.06c.09-.04.16-.09.23-.16.07-.07.12-.14.15-.22.04-.08.05-.17.05-.27s-.02-.18-.05-.27c-.04-.08-.09-.16-.15-.22-.06-.07-.14-.12-.23-.16s-.18-.06-.28-.06-.2.02-.28.06-.16.09-.22.16c-.07.06-.12.14-.15.22s-.05.17-.05.27Z"/>
    <path class="cls-1" d="M49.92,45.96c-.14.18-.32.32-.54.42s-.44.15-.67.15c-.22,0-.43-.04-.62-.11-.2-.07-.37-.17-.51-.31-.14-.13-.26-.29-.34-.48-.08-.18-.12-.39-.12-.62s.04-.44.12-.62.2-.34.34-.48c.14-.13.31-.23.51-.3s.4-.11.62-.11c.21,0,.39.04.56.11s.31.17.43.3c.12.13.21.29.27.48.06.19.09.39.09.62v.28h-2.06c.04.17.11.3.23.41s.26.15.44.15c.15,0,.27-.03.37-.1.1-.07.19-.15.26-.25l.62.46ZM49.17,44.69c0-.15-.05-.28-.15-.39-.1-.11-.23-.16-.4-.16-.1,0-.19.02-.26.05-.08.03-.14.07-.19.12-.05.05-.09.11-.12.17-.03.07-.05.13-.05.21h1.17Z"/>
    <path class="cls-1" d="M50.6,43.58h.85v.39h.01c.03-.06.07-.11.12-.17.05-.05.11-.1.18-.15.07-.04.15-.08.24-.11.09-.03.19-.04.3-.04.2,0,.38.04.54.12.16.08.27.21.35.39.1-.18.23-.32.37-.4.15-.08.33-.12.54-.12.19,0,.36.03.49.1.13.07.24.15.31.27.08.11.13.25.17.4.03.15.05.31.05.49v1.7h-.89v-1.68c0-.13-.03-.25-.08-.35-.06-.1-.16-.15-.31-.15-.1,0-.19.02-.26.05-.07.03-.12.08-.17.14-.04.06-.07.13-.09.21-.02.08-.03.16-.03.25v1.52h-.89v-1.52c0-.05,0-.11,0-.19s-.02-.15-.04-.21-.06-.12-.12-.17c-.05-.05-.13-.07-.23-.07-.11,0-.21.02-.28.06-.07.04-.12.1-.16.17-.04.07-.06.15-.07.23s-.02.18-.02.27v1.43h-.89v-2.88Z"/>
    <path class="cls-1" d="M58.47,45.96c-.14.18-.32.32-.54.42s-.44.15-.67.15c-.22,0-.43-.04-.62-.11-.2-.07-.37-.17-.51-.31-.14-.13-.26-.29-.34-.48-.08-.18-.12-.39-.12-.62s.04-.44.12-.62.2-.34.34-.48c.14-.13.31-.23.51-.3s.4-.11.62-.11c.21,0,.39.04.56.11s.31.17.43.3c.12.13.21.29.27.48.06.19.09.39.09.62v.28h-2.06c.04.17.11.3.23.41s.26.15.44.15c.15,0,.27-.03.37-.1.1-.07.19-.15.26-.25l.62.46ZM57.72,44.69c0-.15-.05-.28-.15-.39-.1-.11-.23-.16-.4-.16-.1,0-.19.02-.26.05-.08.03-.14.07-.19.12-.05.05-.09.11-.12.17-.03.07-.05.13-.05.21h1.17Z"/>
    <path class="cls-1" d="M59.15,43.58h.85v.39h.01c.03-.06.07-.11.12-.17.05-.05.11-.1.18-.15.07-.04.15-.08.24-.11.09-.03.19-.04.3-.04.23,0,.41.04.54.1.14.07.25.17.32.29s.13.27.16.43c.03.17.04.34.04.54v1.59h-.89v-1.41c0-.08,0-.17,0-.26,0-.09-.02-.17-.05-.25-.03-.08-.07-.14-.14-.18-.06-.05-.15-.07-.26-.07s-.21.02-.28.06c-.07.04-.12.1-.16.17-.04.07-.06.15-.07.23s-.02.18-.02.27v1.43h-.89v-2.88Z"/>
    <path class="cls-1" d="M64.5,44.29h-.78v.96c0,.08,0,.15.01.22,0,.06.03.12.05.17.03.05.07.08.13.11.06.03.13.04.23.04.05,0,.11,0,.19-.01s.13-.03.17-.07v.74c-.1.04-.2.06-.31.07-.11.01-.21.02-.31.02-.15,0-.29-.02-.41-.05-.13-.03-.24-.08-.33-.15-.09-.07-.17-.16-.22-.27-.05-.11-.08-.25-.08-.4v-1.37h-.57v-.71h.57v-.85h.89v.85h.78v.71Z"/>
    <path class="cls-1" d="M67.42,42.02v5.92h-.75v-5.92h.75Z"/>
    <path class="cls-1" d="M70.7,43.08h-1.2v-.82h3.32v.82h-1.2v3.37h-.92v-3.37Z"/>
    <path class="cls-1" d="M74.39,46.1h-.01c-.1.15-.23.26-.39.33-.16.07-.34.1-.52.1-.13,0-.26-.02-.39-.06-.12-.04-.23-.09-.33-.17-.09-.07-.17-.17-.22-.28-.06-.11-.08-.24-.08-.38,0-.17.03-.31.09-.42.06-.11.14-.21.25-.28s.22-.13.36-.17c.13-.04.27-.07.42-.09.14-.02.29-.03.43-.04s.28,0,.4,0c0-.16-.06-.28-.17-.38-.11-.09-.25-.14-.4-.14-.15,0-.28.03-.4.09-.12.06-.23.15-.32.25l-.47-.49c.17-.15.36-.27.58-.35.22-.08.45-.12.69-.12.26,0,.47.03.64.1.17.07.3.16.4.29.1.13.17.28.21.46.04.18.06.4.06.64v1.46h-.82v-.36ZM74.17,45.2c-.07,0-.15,0-.25,0s-.2.02-.29.05c-.09.03-.17.07-.24.12-.07.05-.1.13-.1.23,0,.11.04.19.14.24.09.05.19.08.28.08.09,0,.17-.01.25-.04s.15-.06.22-.1c.06-.04.11-.1.15-.17.04-.07.06-.15.06-.24v-.19h-.22Z"/>
    <path class="cls-1" d="M76.54,44.92l-.96-1.34h1.05l.51.78.49-.78h.99l-.94,1.34,1.11,1.54h-1.05l-.63-.96-.67.96h-1.04l1.14-1.54Z"/>
    <path class="cls-1" d="M82.99,43.29c-.08-.09-.18-.17-.3-.21-.13-.05-.25-.07-.36-.07-.07,0-.14,0-.21.02s-.14.04-.2.07c-.06.03-.11.08-.15.13-.04.06-.06.12-.06.2,0,.13.05.22.14.29.09.07.21.12.36.17.14.05.3.09.46.14.17.05.32.11.46.2.14.09.26.2.36.35.09.15.14.34.14.59,0,.23-.04.44-.13.61-.09.17-.21.32-.35.43-.15.11-.32.2-.52.25-.2.06-.4.08-.62.08-.27,0-.53-.04-.76-.12s-.45-.22-.65-.4l.66-.72c.09.13.21.22.36.29.14.07.29.1.45.1.07,0,.15,0,.23-.03s.15-.04.21-.08.11-.08.15-.14c.04-.06.06-.12.06-.2,0-.13-.05-.23-.14-.3-.1-.07-.22-.13-.36-.19-.15-.05-.3-.1-.47-.15-.17-.05-.33-.12-.47-.21-.15-.09-.27-.2-.36-.34-.1-.14-.14-.33-.14-.56s.04-.42.13-.59.21-.31.36-.43c.15-.12.32-.2.51-.26.19-.06.39-.09.6-.09.24,0,.47.03.69.1.22.07.42.18.6.34l-.63.69Z"/>
    <path class="cls-1" d="M86.17,44.29h-.78v.96c0,.08,0,.15.01.22,0,.06.03.12.05.17.03.05.07.08.13.11.06.03.13.04.23.04.05,0,.11,0,.19-.01s.13-.03.17-.07v.74c-.1.04-.2.06-.31.07-.11.01-.21.02-.31.02-.15,0-.29-.02-.41-.05-.13-.03-.24-.08-.33-.15-.09-.07-.17-.16-.22-.27-.05-.11-.08-.25-.08-.4v-1.37h-.57v-.71h.57v-.85h.89v.85h.78v.71Z"/>
    <path class="cls-1" d="M86.61,43.58h.89v.46h.01c.09-.18.21-.31.34-.4.13-.09.29-.13.49-.13.05,0,.1,0,.15,0s.1.01.14.02v.81c-.06-.02-.13-.03-.19-.04-.06,0-.13-.01-.19-.01-.17,0-.3.02-.4.07-.1.05-.17.11-.23.2-.05.08-.09.19-.1.3-.02.12-.02.25-.02.39v1.2h-.89v-2.88Z"/>
    <path class="cls-1" d="M90.83,46.1h-.01c-.1.15-.23.26-.39.33-.16.07-.34.1-.52.1-.13,0-.26-.02-.39-.06-.12-.04-.23-.09-.33-.17-.09-.07-.17-.17-.22-.28-.06-.11-.08-.24-.08-.38,0-.17.03-.31.09-.42.06-.11.14-.21.25-.28s.22-.13.36-.17c.13-.04.27-.07.42-.09.14-.02.29-.03.43-.04s.28,0,.4,0c0-.16-.06-.28-.17-.38-.11-.09-.25-.14-.4-.14-.15,0-.28.03-.4.09-.12.06-.23.15-.32.25l-.47-.49c.17-.15.36-.27.58-.35.22-.08.45-.12.69-.12.26,0,.47.03.64.1.17.07.3.16.4.29.1.13.17.28.21.46.04.18.06.4.06.64v1.46h-.82v-.36ZM90.61,45.2c-.07,0-.15,0-.25,0s-.2.02-.29.05c-.09.03-.17.07-.24.12-.07.05-.1.13-.1.23,0,.11.04.19.14.24.09.05.19.08.28.08.09,0,.17-.01.25-.04s.15-.06.22-.1c.06-.04.11-.1.15-.17.04-.07.06-.15.06-.24v-.19h-.22Z"/>
    <path class="cls-1" d="M94.16,44.29h-.78v.96c0,.08,0,.15.01.22,0,.06.03.12.05.17.03.05.07.08.13.11.06.03.13.04.23.04.05,0,.11,0,.19-.01s.13-.03.17-.07v.74c-.1.04-.2.06-.31.07-.11.01-.21.02-.31.02-.15,0-.29-.02-.41-.05-.13-.03-.24-.08-.33-.15-.09-.07-.17-.16-.22-.27-.05-.11-.08-.25-.08-.4v-1.37h-.57v-.71h.57v-.85h.89v.85h.78v.71Z"/>
    <path class="cls-1" d="M97.34,45.96c-.14.18-.32.32-.54.42s-.44.15-.67.15c-.22,0-.43-.04-.62-.11-.2-.07-.37-.17-.51-.31-.14-.13-.26-.29-.34-.48-.08-.18-.12-.39-.12-.62s.04-.44.12-.62.2-.34.34-.48c.14-.13.31-.23.51-.3s.4-.11.62-.11c.21,0,.39.04.56.11s.31.17.43.3c.12.13.21.29.27.48.06.19.09.39.09.62v.28h-2.06c.04.17.11.3.23.41s.26.15.44.15c.15,0,.27-.03.37-.1.1-.07.19-.15.26-.25l.62.46ZM96.58,44.69c0-.15-.05-.28-.15-.39-.1-.11-.23-.16-.4-.16-.1,0-.19.02-.26.05-.08.03-.14.07-.19.12-.05.05-.09.11-.12.17-.03.07-.05.13-.05.21h1.17Z"/>
    <path class="cls-1" d="M101.03,46.22c0,.54-.14.96-.41,1.24-.27.28-.69.42-1.25.42-.26,0-.51-.03-.76-.09-.25-.06-.48-.17-.69-.33l.49-.73c.14.11.28.21.43.27.15.07.32.1.5.1.27,0,.47-.07.6-.2.13-.13.19-.3.19-.51v-.28h-.01c-.1.14-.23.24-.38.29-.15.06-.3.09-.43.09-.21,0-.41-.04-.58-.11s-.32-.18-.45-.31c-.12-.13-.22-.29-.29-.47s-.1-.38-.1-.6c0-.19.03-.38.09-.56s.15-.34.26-.48.25-.25.41-.33c.16-.08.35-.13.55-.13.13,0,.24.01.35.04.1.03.2.06.28.11.08.04.15.09.21.14.06.05.11.11.14.16h.01v-.38h.82v2.63ZM98.79,45c0,.09.02.18.05.27s.09.16.15.22c.06.07.14.12.22.16.08.04.18.06.28.06s.19-.02.28-.06c.09-.04.16-.09.23-.16.07-.07.12-.14.15-.22.04-.08.05-.17.05-.27s-.02-.18-.05-.27c-.04-.08-.09-.16-.15-.22-.06-.07-.14-.12-.23-.16s-.18-.06-.28-.06-.2.02-.28.06-.16.09-.22.16c-.07.06-.12.14-.15.22s-.05.17-.05.27Z"/>
    <path class="cls-1" d="M103.4,46.93c-.06.15-.12.29-.17.41-.06.12-.12.22-.21.3s-.19.14-.32.18c-.13.04-.3.06-.51.06-.23,0-.45-.04-.66-.11l.12-.73c.13.06.27.09.42.09.1,0,.18-.01.24-.03.06-.02.12-.05.16-.09.04-.04.08-.09.1-.15.03-.06.06-.13.09-.21l.06-.17-1.26-2.9h.96l.74,1.9h.01l.63-1.9h.91l-1.3,3.34Z"/>
    <path class="cls-1" d="M107.5,42.02v5.92h-.75v-5.92h.75Z"/>
  </g>
</svg>