<?xml version="1.0" encoding="UTF-8"?>
<svg id="Layer_1" data-name="Layer 1" xmlns="http://www.w3.org/2000/svg" viewBox="0 0 132.49 113.73">
  <defs>
    <style>
      .cls-1 {
        fill: #ed2024;
      }

      .cls-2 {
        fill: #fff;
      }

      .cls-3 {
        fill: #f47621;
      }

      .cls-4 {
        fill: #efc932;
      }

      .cls-5 {
        fill: #409544;
      }

      .cls-6 {
        fill: #232156;
      }

      .cls-7 {
        fill: #4178bd;
      }

      .cls-8 {
        fill: #5253a3;
      }

      .cls-9 {
        fill: #b72026;
      }
    </style>
  </defs>
  <path class="cls-5" d="M80.89,22.26c0,1.68.47,3.03,1.43,4.08.96,1.05,2.32,1.57,4.05,1.57s3.09-.52,4.05-1.54c.96-1.05,1.43-2.4,1.43-4.08s-.47-3.03-1.43-4.08c-.96-1.05-2.32-1.57-4.05-1.57s-3.09.52-4.05,1.54c-.96,1.02-1.43,2.4-1.43,4.08M74.58,11.13h6.31v2.92h.08c.28-.39.63-.8,1.07-1.21.44-.41.96-.8,1.57-1.13s1.24-.61,1.96-.83c.72-.22,1.46-.33,2.23-.33,1.65,0,3.14.28,4.49.85,1.35.58,2.48,1.35,3.45,2.4.96,1.02,1.71,2.23,2.23,3.64.52,1.41.77,2.95.77,4.63,0,1.57-.25,3.03-.72,4.47-.47,1.41-1.16,2.67-2.01,3.78-.88,1.1-1.93,1.98-3.2,2.62-1.24.66-2.67.99-4.27.96-1.43,0-2.76-.22-4-.66s-2.26-1.21-3.03-2.26h-.08v13.65h-6.86V11.13Z"/>
  <path class="cls-5" d="M39.78,44.62v40.39h89.58v-40.39"/>
  <g>
    <g>
      <path class="cls-6" d="M18.55,9.51c-.58-.74-1.35-1.27-2.34-1.63s-1.93-.52-2.81-.52c-.52,0-1.05.06-1.6.19-.55.11-1.07.3-1.57.58-.5.25-.88.61-1.19,1.02-.3.41-.47.94-.47,1.57,0,.96.36,1.71,1.1,2.23.74.52,1.65.96,2.76,1.32s2.32.74,3.58,1.1c1.3.36,2.48.88,3.58,1.57,1.1.66,2.04,1.57,2.76,2.7.74,1.13,1.1,2.65,1.1,4.52s-.33,3.36-1.02,4.71c-.69,1.35-1.57,2.45-2.73,3.34-1.16.88-2.48,1.54-4,1.96-1.52.44-3.11.63-4.8.63-2.09,0-4.05-.33-5.87-.96-1.79-.63-3.47-1.68-5.04-3.11l5.07-5.6c.74.99,1.65,1.74,2.76,2.29,1.1.52,2.26.8,3.45.8.58,0,1.16-.08,1.76-.22s1.13-.33,1.6-.61c.47-.28.85-.63,1.16-1.05.3-.44.44-.94.44-1.52,0-.96-.36-1.74-1.13-2.32-.74-.58-1.68-1.05-2.81-1.43-1.13-.41-2.34-.8-3.67-1.19-1.32-.39-2.54-.94-3.67-1.6-1.13-.66-2.07-1.57-2.81-2.65-.74-1.1-1.13-2.56-1.13-4.35s.36-3.25,1.02-4.58c.69-1.3,1.6-2.4,2.76-3.28,1.16-.88,2.48-1.54,3.97-1.98,1.49-.44,3.03-.66,4.63-.66,1.85,0,3.61.28,5.32.77,1.71.52,3.25,1.41,4.63,2.62l-4.91,5.35.11-.03Z"/>
      <path class="cls-6" d="M26.18,11.77h6.86v22.24h-6.86V11.77ZM25.63,4.77c0-1.1.39-2.04,1.16-2.81.77-.77,1.71-1.16,2.81-1.16s2.04.39,2.81,1.16c.77.77,1.16,1.71,1.16,2.81s-.39,2.04-1.16,2.81c-.77.77-1.71,1.16-2.81,1.16s-2.04-.39-2.81-1.16c-.77-.77-1.16-1.71-1.16-2.81"/>
      <path class="cls-6" d="M36.16,11.77h6.59v3.03h.08c.22-.44.52-.85.91-1.27.39-.44.88-.8,1.43-1.16.55-.33,1.19-.61,1.87-.83.69-.22,1.46-.33,2.29-.33,1.57,0,2.95.33,4.13.96,1.21.63,2.12,1.65,2.73,3.03.8-1.43,1.76-2.45,2.89-3.06,1.13-.61,2.51-.91,4.16-.91,1.49,0,2.76.25,3.78.77,1.02.5,1.82,1.19,2.43,2.07.58.88,1.02,1.9,1.27,3.06.25,1.19.39,2.43.39,3.78v13.15h-6.89v-12.95c0-1.05-.22-1.93-.63-2.67-.44-.74-1.24-1.13-2.37-1.13-.8,0-1.46.14-1.98.39-.52.25-.96.61-1.27,1.07-.33.47-.55.99-.69,1.6s-.19,1.24-.19,1.93v11.77h-6.89v-11.77c0-.39,0-.88-.03-1.46s-.14-1.13-.33-1.65c-.19-.52-.47-.96-.88-1.32-.41-.36-1.02-.55-1.82-.55-.88,0-1.6.17-2.15.47-.55.33-.96.74-1.27,1.27s-.5,1.13-.58,1.82c-.08.66-.14,1.38-.14,2.09v11.08h-6.86V11.77h.03Z"/>
    </g>
    <rect class="cls-6" x="100.87" width="6.86" height="34.62"/>
    <path class="cls-6" d="M125.57,20.46c.03-1.16-.36-2.15-1.13-2.98-.8-.83-1.82-1.24-3.06-1.24-.77,0-1.43.11-2.01.36-.58.25-1.07.55-1.49.94-.41.39-.74.83-.96,1.32-.22.5-.36,1.02-.39,1.57h9.07l-.03.03ZM131.39,30.27c-1.1,1.41-2.48,2.48-4.16,3.25-1.68.77-3.42,1.13-5.21,1.13s-3.31-.28-4.82-.83c-1.52-.55-2.81-1.35-3.94-2.37-1.1-1.02-1.98-2.26-2.62-3.69-.63-1.43-.96-3.03-.96-4.8s.33-3.36.96-4.8c.63-1.43,1.52-2.67,2.65-3.69s2.43-1.82,3.94-2.34c1.52-.55,3.11-.83,4.82-.83,1.6,0,3.03.28,4.33.83,1.3.55,2.4,1.32,3.28,2.37.91,1.02,1.6,2.26,2.09,3.69.5,1.43.74,3.03.74,4.8v2.15h-15.93c.28,1.32.88,2.34,1.79,3.14.91.77,2.04,1.19,3.39,1.19,1.13,0,2.09-.25,2.87-.74.77-.5,1.46-1.16,2.04-1.96l4.8,3.53-.06-.03Z"/>
  </g>
  <g>
    <path class="cls-2" d="M50.9,79.32v-20.21l-5.13,3.96-3.38-4.63,9.05-6.64h5.99v27.51h-6.53Z"/>
    <path class="cls-2" d="M71.91,80.06c-7.82,0-10.8-6.77-10.8-14.58s2.98-14.42,10.8-14.42,10.72,6.65,10.72,14.42-2.95,14.58-10.72,14.58ZM71.91,56.59c-3.46,0-4.12,5.44-4.12,8.9s.66,8.98,4.12,8.98,4.05-5.44,4.05-8.98-.63-8.9-4.05-8.9Z"/>
    <path class="cls-2" d="M95.68,80.06c-5.02,0-9.56-2.18-11.05-7.31l6.07-1.6c.51,1.83,2.18,3.42,4.67,3.42,1.87,0,4-.93,4-3.5,0-2.8-2.87-3.61-5.59-3.61h-1.76v-4.77h1.92c2.44,0,4.82-.63,4.82-3.27,0-1.99-1.67-3.03-3.46-3.03s-3.35,1.2-3.77,3.07l-6.07-1.4c1.33-4.63,5.68-7,10.26-7,4.87,0,9.69,2.49,9.69,7.78,0,3.03-1.95,5.28-4.63,5.98v.12c3.12.74,5.3,3.31,5.3,6.38,0,6.02-5.33,8.74-10.38,8.74Z"/>
    <path class="cls-2" d="M115.38,79.32v-20.21l-5.13,3.96-3.38-4.63,9.05-6.64h5.99v27.51h-6.53Z"/>
  </g>
  <g>
    <rect class="cls-9" x="27.18" y="44.65" width="5.9" height="5.84" transform="translate(77.7 17.44) rotate(90)"/>
    <rect class="cls-1" x="27.18" y="55.15" width="5.9" height="5.84" transform="translate(88.2 27.94) rotate(90)"/>
    <rect class="cls-4" x="27.18" y="65.65" width="5.9" height="5.84" transform="translate(98.7 38.44) rotate(90)"/>
    <rect class="cls-3" x="27.18" y="76.15" width="5.9" height="5.84" transform="translate(109.2 48.94) rotate(90)"/>
    <rect class="cls-7" x="27.18" y="86.65" width="5.9" height="5.84" transform="translate(119.7 59.44) rotate(90)"/>
    <rect class="cls-8" x="27.18" y="97.15" width="5.9" height="5.84" transform="translate(130.2 69.94) rotate(90)"/>
    <rect class="cls-5" x="27.18" y="107.66" width="5.9" height="5.84" transform="translate(140.7 80.45) rotate(90)"/>
  </g>
  <g>
    <polyline class="cls-1" points="19.93 61.02 14.09 61.02 14.09 55.12 19.93 55.12"/>
    <polyline class="cls-4" points="19.93 71.52 14.09 71.52 14.09 65.62 19.93 65.62"/>
    <polyline class="cls-3" points="19.93 82.02 14.09 82.02 14.09 76.12 19.93 76.12"/>
    <polyline class="cls-7" points="19.93 92.52 14.09 92.52 14.09 86.62 19.93 86.62"/>
    <polyline class="cls-8" points="19.93 103.02 14.09 103.02 14.09 97.12 19.93 97.12"/>
    <polyline class="cls-5" points="19.93 113.52 14.09 113.52 14.09 107.62 19.93 107.62"/>
    <rect class="cls-9" x="14.06" y="44.65" width="5.9" height="5.84" transform="translate(64.58 30.56) rotate(90)"/>
  </g>
  <g>
    <polyline class="cls-1" points="6.81 61.02 .97 61.02 .97 55.12 6.81 55.12"/>
    <polyline class="cls-4" points="6.81 71.52 .97 71.52 .97 65.62 6.81 65.62"/>
    <polyline class="cls-3" points="6.81 82.02 .97 82.02 .97 76.12 6.81 76.12"/>
    <polyline class="cls-7" points="6.81 92.52 .97 92.52 .97 86.62 6.81 86.62"/>
    <polyline class="cls-8" points="6.81 103.02 .97 103.02 .97 97.12 6.81 97.12"/>
    <polyline class="cls-5" points="6.81 113.52 .97 113.52 .97 107.62 6.81 107.62"/>
    <rect class="cls-9" x=".94" y="44.65" width="5.9" height="5.84" transform="translate(51.46 43.68) rotate(90)"/>
  </g>
  <g>
    <path class="cls-6" d="M71.16,89.96v1.71h-3.87v1.57h3.65v1.71h-3.65v1.71h4.08v1.71h-5.94v-8.43h5.72Z"/>
    <path class="cls-6" d="M74.5,89.96l1.8,2.95,1.73-2.95h2.25l-2.73,3.99,3.05,4.44h-2.33l-2.06-3.39-2,3.39h-2.2l2.95-4.4-2.78-4.02h2.33Z"/>
    <path class="cls-6" d="M87.67,90.98l-1.43,1.17c-.4-.49-.96-.69-1.59-.69-1.32,0-2.44,1.06-2.44,2.71,0,1.4.9,2.71,2.38,2.71.73,0,1.33-.3,1.74-.9l1.55,1.15c-.67.98-1.89,1.46-3.05,1.46-2.64,0-4.55-1.74-4.55-4.43s1.89-4.43,4.55-4.43c1.11,0,2.21.43,2.84,1.24Z"/>
    <path class="cls-6" d="M90.26,89.96v3.14h3.61v-3.14h1.86v8.43h-1.86v-3.64h-3.61v3.64h-1.86v-8.43h1.86Z"/>
    <path class="cls-6" d="M101.5,89.96l3.67,8.43h-2.09l-.73-1.79h-3.27l-.7,1.79h-2.05l3.64-8.43h1.54ZM99.66,95.03h2.06l-1.04-2.62-1.02,2.62Z"/>
    <path class="cls-6" d="M108.3,89.96l3.58,5.85h.02v-5.85h1.86v8.43h-2.43l-3.68-6h-.02v6h-1.86v-8.43h2.52Z"/>
    <path class="cls-6" d="M122.44,90.83l-1.31,1.43c-.56-.6-1.24-.8-2.03-.8-1.58,0-2.63,1.13-2.63,2.71s1.05,2.71,2.63,2.71c.61,0,1.2-.13,1.74-.42v-1.37h-1.51v-1.71h3.3v4.4c-1.09.58-2.3.81-3.52.81-2.65,0-4.56-1.71-4.56-4.43s1.9-4.43,4.56-4.43c1.24,0,2.43.25,3.34,1.08Z"/>
    <path class="cls-6" d="M129.33,89.96v1.71h-3.87v1.57h3.65v1.71h-3.65v1.71h4.08v1.71h-5.94v-8.43h5.72Z"/>
  </g>
  <g>
    <path class="cls-6" d="M46.62,89.74v1.64h-2.4v6.78h-1.86v-6.78h-2.4v-1.64h6.66Z"/>
    <path class="cls-6" d="M49.63,89.74v3.14h3.61v-3.14h1.86v8.43h-1.86v-3.64h-3.61v3.64h-1.86v-8.43h1.86Z"/>
    <path class="cls-6" d="M61.97,89.74v1.71h-3.87v1.57h3.65v1.71h-3.65v1.71h4.08v1.71h-5.94v-8.43h5.72Z"/>
  </g>
  <g>
    <polygon class="cls-6" points="128.47 101.64 128.47 101.93 128.87 101.93 128.87 103.01 129.21 103.01 129.21 101.93 129.62 101.93 129.62 101.64 128.47 101.64"/>
    <path class="cls-6" d="M129.86,103.01v-1.36h.3l.5.82h-.21l.51-.81h.29v1.37h-.32v-.43c0-.11,0-.22,0-.31,0-.09.01-.19.03-.28l.04.1-.38.59h-.13l-.37-.58.04-.11c.01.09.03.18.03.27,0,.09,0,.2,0,.33v.43h-.33Z"/>
  </g>
  <g>
    <path class="cls-6" d="M45.78,102.38c-3.48,0-5.83,2.28-5.83,5.67s2.34,5.67,5.83,5.67,5.83-2.33,5.83-5.67-2.34-5.67-5.83-5.67ZM45.78,111.61c-2.05,0-3.43-1.43-3.43-3.56s1.41-3.56,3.42-3.56,3.45,1.46,3.45,3.56-1.41,3.56-3.43,3.56Z"/>
    <path class="cls-6" d="M58.63,108.85c1.45-.27,2.31-1.37,2.31-2.94,0-2.69-2.16-3.26-3.98-3.26h-4.24v10.79h2.3v-4.35h1.26v.03s2.28,4.33,2.28,4.33h2.76l-2.76-4.59h.07ZM56.56,107.17h-1.54v-2.58h1.68c1.23,0,1.85.44,1.85,1.31,0,1.11-.96,1.27-1.99,1.27Z"/>
    <path class="cls-6" d="M67.32,111.61c-2.03,0-3.13-1.83-3.13-3.56,0-2.06,1.35-3.56,3.2-3.56.87,0,1.57.29,2.07.87l1.77-1.45c-.78-.97-2.12-1.54-3.61-1.54-3.43,0-5.83,2.33-5.83,5.67s2.34,5.67,5.83,5.67c1.6,0,3.08-.7,3.87-1.83l-1.92-1.43c-.52.75-1.3,1.15-2.26,1.15Z"/>
    <polygon class="cls-6" points="74.6 102.66 72.3 102.66 72.3 113.45 74.6 113.45 74.6 108.74 79.36 108.74 79.36 113.45 81.66 113.45 81.66 102.66 79.36 102.66 79.36 106.72 74.6 106.72 74.6 102.66"/>
    <polygon class="cls-6" points="85.45 109.02 90.17 109.02 90.17 106.9 85.45 106.9 85.45 104.77 90.45 104.77 90.45 102.66 83.15 102.66 83.15 113.45 90.72 113.45 90.72 111.33 85.45 111.33 85.45 109.02"/>
    <path class="cls-6" d="M99.35,103.47c-.86-.72-1.95-1.09-3.27-1.09-1.98,0-4.1,1.09-4.1,3.49,0,1.88,1.4,2.48,2.7,2.91.13.04.27.09.4.13,1.07.34,2,.63,2,1.52s-1.02,1.19-1.71,1.19c-.81,0-1.57-.36-2.09-1l-1.64,1.8c.96.89,2.14,1.32,3.59,1.32,2.01,0,4.15-.93,4.15-3.53,0-1.89-1.26-2.54-2.63-2.95-.15-.05-.3-.09-.44-.13-1.04-.3-1.95-.57-1.95-1.44s1-1.17,1.66-1.17c.58,0,1.33.22,1.74.7l1.57-1.72Z"/>
    <polygon class="cls-6" points="103.33 113.45 105.63 113.45 105.63 104.68 108.74 104.68 108.74 102.66 100.22 102.66 100.22 104.68 103.33 104.68 103.33 113.45"/>
    <path class="cls-6" d="M115.66,108.85c1.45-.27,2.31-1.37,2.31-2.94,0-2.69-2.17-3.26-3.98-3.26h-4.24v10.79h2.3v-4.35h1.26v.03s2.28,4.33,2.28,4.33h2.76l-2.76-4.59h.07ZM113.59,107.17h-1.54v-2.58h1.68c1.23,0,1.85.44,1.85,1.31,0,1.11-.96,1.27-1.99,1.27Z"/>
    <path class="cls-6" d="M125.51,102.66h-1.92l-4.66,10.79h2.54l.91-2.31h4.3l.94,2.31h2.6l-4.7-10.79ZM123.08,109.21l.03-.07,1.37-3.5,1.41,3.57h-2.81Z"/>
  </g>
</svg>