<?xml version="1.0" encoding="UTF-8"?>
<svg id="Layer_1" data-name="Layer 1" xmlns="http://www.w3.org/2000/svg" viewBox="0 0 107.28 49.14">
  <defs>
    <style>
      .cls-1 {
        fill: #222053;
      }

      .cls-1, .cls-2, .cls-3 {
        stroke-width: 0px;
      }

      .cls-2 {
        fill: #19ad73;
      }

      .cls-3 {
        fill: #232256;
      }
    </style>
  </defs>
  <g>
    <path class="cls-1" d="M4.19,36.35c-.09-.11-.2-.2-.33-.25-.13-.06-.29-.09-.46-.09s-.33.03-.48.1-.28.16-.39.28c-.11.12-.19.26-.25.43s-.09.35-.09.54.03.38.09.54.15.31.25.43c.11.12.23.21.38.28s.3.1.47.1c.19,0,.36-.04.5-.12.15-.08.27-.19.36-.33l.77.58c-.18.25-.4.43-.68.55-.27.12-.55.18-.84.18-.33,0-.63-.05-.91-.15-.28-.1-.52-.25-.72-.44-.2-.19-.36-.42-.47-.7-.11-.27-.17-.58-.17-.91s.06-.64.17-.91c.11-.27.27-.5.47-.7.2-.19.44-.34.72-.44.28-.1.58-.15.91-.15.12,0,.24.01.37.03.13.02.25.06.38.1.12.05.24.11.36.19.12.08.22.18.31.29l-.71.58Z"/>
    <path class="cls-1" d="M7.21,39.09h-.01c-.1.15-.23.26-.39.33-.16.07-.34.1-.52.1-.13,0-.26-.02-.39-.06-.12-.04-.23-.09-.33-.17s-.17-.17-.23-.28c-.06-.11-.08-.24-.08-.39,0-.17.03-.31.09-.42s.14-.21.25-.29c.1-.07.22-.13.36-.17.13-.04.27-.07.42-.09.14-.02.29-.03.43-.04s.28,0,.4,0c0-.16-.06-.28-.17-.38-.11-.09-.25-.14-.4-.14s-.28.03-.4.09c-.12.06-.23.14-.32.25l-.47-.49c.17-.15.36-.27.58-.35.22-.08.45-.12.69-.12.26,0,.47.03.64.1.17.07.3.16.4.29.1.13.17.28.21.46.04.18.06.4.06.64v1.46h-.82v-.36ZM6.99,38.19c-.07,0-.15,0-.25,0s-.2.02-.29.05c-.09.03-.17.07-.24.12-.07.06-.1.13-.1.23,0,.11.05.19.14.24.09.05.19.08.29.08.09,0,.17-.01.25-.04s.15-.06.22-.1c.06-.04.11-.1.15-.17.04-.07.06-.15.06-.24v-.19h-.22Z"/>
    <path class="cls-1" d="M8.66,36.57h.82v.38h.01c.04-.05.08-.1.14-.16.06-.05.12-.1.2-.15.08-.04.16-.08.25-.11.09-.03.19-.04.29-.04.21,0,.41.04.58.11.17.07.32.18.45.31.12.13.22.29.29.47.07.18.1.38.1.6,0,.2-.03.39-.09.58s-.15.35-.26.49c-.11.14-.25.26-.41.34s-.35.13-.55.13c-.19,0-.36-.03-.52-.09-.16-.06-.29-.16-.39-.29h-.01v1.66h-.89v-4.23ZM9.48,38.01c0,.22.06.39.19.53.12.13.3.2.52.2s.4-.07.53-.2c.12-.13.19-.31.19-.53s-.06-.39-.19-.53c-.12-.13-.3-.2-.53-.2s-.4.07-.52.2c-.12.13-.19.31-.19.53Z"/>
    <path class="cls-1" d="M12.26,35.67c0-.14.05-.26.15-.37.1-.1.22-.15.36-.15s.26.05.37.15c.1.1.15.22.15.37s-.05.26-.15.36c-.1.1-.22.15-.37.15s-.26-.05-.36-.15c-.1-.1-.15-.22-.15-.36ZM12.33,36.57h.89v2.88h-.89v-2.88Z"/>
    <path class="cls-1" d="M15.82,37.28h-.78v.96c0,.08,0,.15.01.22s.03.12.05.17.07.08.13.11c.06.03.13.04.23.04.05,0,.11,0,.19-.01s.13-.03.17-.07v.74c-.1.04-.2.06-.31.07s-.21.02-.31.02c-.15,0-.29-.02-.42-.05-.13-.03-.24-.08-.33-.15-.09-.07-.17-.16-.22-.27-.05-.11-.08-.25-.08-.4v-1.37h-.57v-.71h.57v-.85h.89v.85h.78v.71Z"/>
    <path class="cls-1" d="M18.08,39.09h-.01c-.1.15-.23.26-.39.33-.16.07-.34.1-.52.1-.13,0-.26-.02-.39-.06-.12-.04-.23-.09-.33-.17s-.17-.17-.23-.28c-.06-.11-.08-.24-.08-.39,0-.17.03-.31.09-.42s.14-.21.25-.29c.1-.07.22-.13.36-.17.13-.04.27-.07.42-.09.14-.02.29-.03.43-.04s.28,0,.4,0c0-.16-.06-.28-.17-.38-.11-.09-.25-.14-.4-.14s-.28.03-.4.09c-.12.06-.23.14-.32.25l-.47-.49c.17-.15.36-.27.58-.35.22-.08.45-.12.69-.12.26,0,.47.03.64.1.17.07.3.16.4.29.1.13.17.28.21.46.04.18.06.4.06.64v1.46h-.82v-.36ZM17.86,38.19c-.07,0-.15,0-.25,0s-.2.02-.29.05c-.09.03-.17.07-.24.12-.07.06-.1.13-.1.23,0,.11.05.19.14.24.09.05.19.08.29.08.09,0,.17-.01.25-.04s.15-.06.22-.1c.06-.04.11-.1.15-.17.04-.07.06-.15.06-.24v-.19h-.22Z"/>
    <path class="cls-1" d="M19.47,34.97h.89v4.48h-.89v-4.48Z"/>
    <path class="cls-1" d="M22.9,35.26h2.82v.85h-1.89v.85h1.75v.85h-1.75v1.64h-.92v-4.2Z"/>
    <path class="cls-1" d="M26.16,38.01c0-.23.04-.44.12-.62s.2-.34.34-.48c.14-.13.31-.23.51-.31.2-.07.4-.11.63-.11s.43.04.63.11c.2.07.37.17.51.31.14.13.26.29.34.48s.12.39.12.62-.04.44-.12.62-.2.34-.34.48-.31.23-.51.31c-.2.07-.4.11-.63.11s-.43-.04-.63-.11c-.2-.07-.37-.17-.51-.31s-.26-.29-.34-.48-.12-.39-.12-.62ZM27.05,38.01c0,.22.06.39.19.53.12.13.3.2.52.2s.4-.07.52-.2c.12-.13.19-.31.19-.53s-.06-.39-.19-.53c-.12-.13-.3-.2-.52-.2s-.4.07-.52.2c-.12.13-.19.31-.19.53Z"/>
    <path class="cls-1" d="M29.89,36.57h.89v.46h.01c.09-.18.21-.31.34-.4.13-.09.29-.13.49-.13.05,0,.1,0,.15,0,.05,0,.1.01.14.02v.81c-.06-.02-.12-.03-.19-.04s-.12-.01-.19-.01c-.17,0-.3.02-.4.07-.1.05-.17.11-.23.2-.05.08-.09.19-.1.31-.02.12-.02.25-.02.39v1.2h-.89v-2.88Z"/>
    <path class="cls-1" d="M32.4,36.57h.85v.39h.01c.03-.06.07-.11.12-.17.05-.06.11-.11.18-.15.07-.04.15-.08.24-.11.09-.03.19-.04.3-.04.2,0,.38.04.54.12s.27.21.35.39c.1-.19.23-.32.37-.4s.33-.12.54-.12c.19,0,.36.03.49.1.13.07.24.15.31.27.08.11.13.25.17.4.03.15.05.32.05.49v1.7h-.89v-1.68c0-.13-.03-.25-.09-.35-.06-.1-.16-.14-.31-.14-.1,0-.19.02-.26.05-.07.03-.12.08-.17.14-.04.06-.07.13-.09.21-.02.08-.03.16-.03.25v1.52h-.89v-1.52c0-.05,0-.11,0-.19s-.02-.15-.04-.21c-.02-.07-.06-.12-.12-.17-.05-.05-.13-.07-.23-.07-.11,0-.21.02-.28.06-.07.04-.13.1-.16.17-.04.07-.06.15-.07.23s-.02.18-.02.27v1.43h-.89v-2.88Z"/>
    <path class="cls-1" d="M39.37,39.09h-.01c-.1.15-.23.26-.39.33-.16.07-.34.1-.52.1-.13,0-.26-.02-.39-.06-.12-.04-.23-.09-.33-.17s-.17-.17-.23-.28c-.06-.11-.08-.24-.08-.39,0-.17.03-.31.09-.42s.14-.21.25-.29c.1-.07.22-.13.36-.17.13-.04.27-.07.42-.09.14-.02.29-.03.43-.04s.28,0,.4,0c0-.16-.06-.28-.17-.38-.11-.09-.25-.14-.4-.14s-.28.03-.4.09c-.12.06-.23.14-.32.25l-.47-.49c.17-.15.36-.27.58-.35.22-.08.45-.12.69-.12.26,0,.47.03.64.1.17.07.3.16.4.29.1.13.17.28.21.46.04.18.06.4.06.64v1.46h-.82v-.36ZM39.15,38.19c-.07,0-.15,0-.25,0s-.2.02-.29.05c-.09.03-.17.07-.24.12-.07.06-.1.13-.1.23,0,.11.05.19.14.24.09.05.19.08.29.08.09,0,.17-.01.25-.04s.15-.06.22-.1c.06-.04.11-.1.15-.17.04-.07.06-.15.06-.24v-.19h-.22Z"/>
    <path class="cls-1" d="M42.71,37.28h-.78v.96c0,.08,0,.15.01.22s.03.12.05.17.07.08.13.11c.06.03.13.04.23.04.05,0,.11,0,.19-.01s.13-.03.17-.07v.74c-.1.04-.2.06-.31.07s-.21.02-.31.02c-.15,0-.29-.02-.42-.05-.13-.03-.24-.08-.33-.15-.09-.07-.17-.16-.22-.27-.05-.11-.08-.25-.08-.4v-1.37h-.57v-.71h.57v-.85h.89v.85h.78v.71Z"/>
    <path class="cls-1" d="M43.1,35.67c0-.14.05-.26.15-.37.1-.1.22-.15.36-.15s.26.05.37.15c.1.1.15.22.15.37s-.05.26-.15.36c-.1.1-.22.15-.37.15s-.26-.05-.36-.15c-.1-.1-.15-.22-.15-.36ZM43.17,36.57h.89v2.88h-.89v-2.88Z"/>
    <path class="cls-1" d="M44.59,38.01c0-.23.04-.44.12-.62s.2-.34.34-.48c.14-.13.31-.23.51-.31.2-.07.4-.11.63-.11s.43.04.63.11c.2.07.37.17.51.31.14.13.26.29.34.48s.12.39.12.62-.04.44-.12.62-.2.34-.34.48-.31.23-.51.31c-.2.07-.4.11-.63.11s-.43-.04-.63-.11c-.2-.07-.37-.17-.51-.31s-.26-.29-.34-.48-.12-.39-.12-.62ZM45.48,38.01c0,.22.06.39.19.53.12.13.3.2.52.2s.4-.07.52-.2c.12-.13.19-.31.19-.53s-.06-.39-.19-.53c-.12-.13-.3-.2-.52-.2s-.4.07-.52.2c-.12.13-.19.31-.19.53Z"/>
    <path class="cls-1" d="M48.32,36.57h.85v.39h.01c.03-.06.07-.11.12-.17.05-.06.11-.11.18-.15.07-.04.15-.08.24-.11.09-.03.19-.04.3-.04.22,0,.41.04.54.1.14.07.25.17.32.29.08.12.13.27.16.43s.04.35.04.54v1.59h-.89v-1.41c0-.08,0-.17,0-.26s-.02-.17-.05-.25-.08-.14-.14-.18c-.06-.05-.15-.07-.26-.07s-.21.02-.28.06c-.07.04-.13.1-.16.17-.04.07-.06.15-.07.23s-.02.18-.02.27v1.43h-.89v-2.88Z"/>
    <path class="cls-1" d="M54.19,35.01v5.93h-.75v-5.93h.75Z"/>
    <path class="cls-1" d="M56.7,35.26h2.82v.85h-1.89v.85h1.75v.85h-1.75v1.64h-.92v-4.2Z"/>
    <path class="cls-1" d="M62.84,39.45h-.85v-.39h-.01c-.03.06-.07.11-.12.17-.05.06-.11.11-.18.15-.07.04-.15.08-.24.11-.09.03-.19.04-.3.04-.23,0-.41-.04-.55-.1-.14-.07-.25-.17-.33-.29-.08-.12-.13-.27-.15-.43-.03-.17-.04-.35-.04-.54v-1.59h.89v1.41c0,.08,0,.17,0,.26s.02.17.05.25c.03.08.08.14.14.18.06.05.15.07.26.07s.21-.02.28-.06c.07-.04.12-.1.16-.17.04-.07.06-.15.07-.23.01-.09.02-.18.02-.27v-1.43h.89v2.88Z"/>
    <path class="cls-1" d="M63.47,36.57h.85v.39h.01c.03-.06.07-.11.12-.17.05-.06.11-.11.18-.15.07-.04.15-.08.24-.11.09-.03.19-.04.3-.04.22,0,.41.04.54.1.14.07.25.17.32.29.08.12.13.27.16.43s.04.35.04.54v1.59h-.89v-1.41c0-.08,0-.17,0-.26s-.02-.17-.05-.25-.08-.14-.14-.18c-.06-.05-.15-.07-.26-.07s-.21.02-.28.06c-.07.04-.13.1-.16.17-.04.07-.06.15-.07.23s-.02.18-.02.27v1.43h-.89v-2.88Z"/>
    <path class="cls-1" d="M69.9,39.45h-.82v-.38h-.01c-.04.05-.08.1-.14.16-.06.05-.12.1-.2.15-.08.04-.16.08-.25.11-.09.03-.19.04-.29.04-.21,0-.41-.04-.58-.11-.17-.07-.32-.18-.45-.31-.12-.13-.22-.29-.29-.47s-.1-.38-.1-.6c0-.2.03-.39.09-.58.06-.18.15-.35.26-.49.11-.14.25-.26.41-.34s.35-.13.55-.13c.19,0,.36.03.52.09s.29.16.39.29h.01v-1.91h.89v4.48ZM69.08,38.01c0-.22-.06-.39-.19-.53-.12-.13-.3-.2-.52-.2s-.4.07-.52.2c-.12.13-.19.31-.19.53s.06.39.19.53c.12.13.3.2.52.2s.4-.07.52-.2c.12-.13.19-.31.19-.53Z"/>
    <path class="cls-1" d="M74.55,36.28c-.08-.09-.18-.17-.3-.21-.13-.05-.25-.07-.37-.07-.07,0-.14,0-.21.02-.07.02-.14.04-.2.07-.06.03-.11.08-.15.13-.04.06-.06.12-.06.2,0,.13.05.22.14.29.1.07.21.12.36.17.14.05.3.09.46.14.17.05.32.11.47.2s.26.2.36.35c.1.15.14.34.14.59s-.04.44-.13.61-.21.32-.35.43c-.15.12-.32.2-.52.25-.2.06-.4.08-.62.08-.27,0-.53-.04-.76-.12s-.45-.22-.65-.4l.66-.72c.1.13.21.22.36.29.14.07.29.1.45.1.08,0,.15,0,.23-.03.08-.02.15-.04.21-.08.06-.04.11-.08.15-.14.04-.06.06-.12.06-.2,0-.13-.05-.23-.15-.3s-.22-.14-.36-.19c-.15-.05-.3-.1-.47-.15-.17-.05-.33-.12-.47-.21s-.27-.2-.36-.34-.15-.33-.15-.56.04-.42.13-.59.21-.31.36-.43c.15-.12.32-.2.51-.26.19-.06.39-.09.6-.09.24,0,.47.03.69.1s.42.18.6.34l-.63.69Z"/>
    <path class="cls-1" d="M77.73,37.28h-.78v.96c0,.08,0,.15.01.22s.03.12.05.17.07.08.13.11c.06.03.13.04.23.04.05,0,.11,0,.19-.01s.13-.03.17-.07v.74c-.1.04-.2.06-.31.07s-.21.02-.31.02c-.15,0-.29-.02-.42-.05-.13-.03-.24-.08-.33-.15-.09-.07-.17-.16-.22-.27-.05-.11-.08-.25-.08-.4v-1.37h-.57v-.71h.57v-.85h.89v.85h.78v.71Z"/>
    <path class="cls-1" d="M78.18,36.57h.89v.46h.01c.09-.18.21-.31.34-.4.13-.09.29-.13.49-.13.05,0,.1,0,.15,0,.05,0,.1.01.14.02v.81c-.06-.02-.12-.03-.19-.04s-.12-.01-.19-.01c-.17,0-.3.02-.4.07-.1.05-.17.11-.23.2-.05.08-.09.19-.1.31-.02.12-.02.25-.02.39v1.2h-.89v-2.88Z"/>
    <path class="cls-1" d="M83.37,39.45h-.85v-.39h-.01c-.03.06-.07.11-.12.17-.05.06-.11.11-.18.15-.07.04-.15.08-.24.11-.09.03-.19.04-.3.04-.23,0-.41-.04-.55-.1-.14-.07-.25-.17-.33-.29-.08-.12-.13-.27-.15-.43-.03-.17-.04-.35-.04-.54v-1.59h.89v1.41c0,.08,0,.17,0,.26s.02.17.05.25c.03.08.08.14.14.18.06.05.15.07.26.07s.21-.02.28-.06c.07-.04.12-.1.16-.17.04-.07.06-.15.07-.23.01-.09.02-.18.02-.27v-1.43h.89v2.88Z"/>
    <path class="cls-1" d="M85.95,37.5c-.04-.06-.11-.12-.18-.16-.08-.04-.16-.06-.25-.06-.23,0-.4.07-.52.2-.12.13-.19.31-.19.53s.06.39.19.53c.12.13.3.2.52.2.1,0,.18-.02.25-.06.07-.04.13-.1.18-.15l.59.62c-.14.14-.3.24-.49.3-.19.06-.37.09-.54.09-.22,0-.43-.04-.62-.11-.2-.07-.37-.17-.51-.31-.14-.13-.26-.29-.34-.48s-.12-.39-.12-.62.04-.44.12-.62.2-.34.34-.48c.14-.13.31-.23.51-.31.2-.07.4-.11.62-.11.17,0,.35.03.54.09.19.06.35.16.49.3l-.59.62Z"/>
    <path class="cls-1" d="M88.82,37.28h-.78v.96c0,.08,0,.15.01.22s.03.12.05.17.07.08.13.11c.06.03.13.04.23.04.05,0,.11,0,.19-.01s.13-.03.17-.07v.74c-.1.04-.2.06-.31.07s-.21.02-.31.02c-.15,0-.29-.02-.42-.05-.13-.03-.24-.08-.33-.15-.09-.07-.17-.16-.22-.27-.05-.11-.08-.25-.08-.4v-1.37h-.57v-.71h.57v-.85h.89v.85h.78v.71Z"/>
    <path class="cls-1" d="M92.04,39.45h-.85v-.39h-.01c-.03.06-.07.11-.12.17-.05.06-.11.11-.18.15-.07.04-.15.08-.24.11-.09.03-.19.04-.3.04-.23,0-.41-.04-.55-.1-.14-.07-.25-.17-.33-.29-.08-.12-.13-.27-.15-.43-.03-.17-.04-.35-.04-.54v-1.59h.89v1.41c0,.08,0,.17,0,.26s.02.17.05.25c.03.08.08.14.14.18.06.05.15.07.26.07s.21-.02.28-.06c.07-.04.12-.1.16-.17.04-.07.06-.15.07-.23.01-.09.02-.18.02-.27v-1.43h.89v2.88Z"/>
    <path class="cls-1" d="M92.67,36.57h.89v.46h.01c.09-.18.21-.31.34-.4.13-.09.29-.13.49-.13.05,0,.1,0,.15,0,.05,0,.1.01.14.02v.81c-.06-.02-.12-.03-.19-.04s-.12-.01-.19-.01c-.17,0-.3.02-.4.07-.1.05-.17.11-.23.2-.05.08-.09.19-.1.31-.02.12-.02.25-.02.39v1.2h-.89v-2.88Z"/>
    <path class="cls-1" d="M95.02,35.67c0-.14.05-.26.15-.37.1-.1.22-.15.36-.15s.26.05.37.15c.1.1.15.22.15.37s-.05.26-.15.36c-.1.1-.22.15-.37.15s-.26-.05-.36-.15c-.1-.1-.15-.22-.15-.36ZM95.1,36.57h.89v2.88h-.89v-2.88Z"/>
    <path class="cls-1" d="M96.63,36.57h.85v.39h.01c.03-.06.07-.11.12-.17.05-.06.11-.11.18-.15.07-.04.15-.08.24-.11.09-.03.19-.04.3-.04.22,0,.41.04.54.1.14.07.25.17.32.29.08.12.13.27.16.43s.04.35.04.54v1.59h-.89v-1.41c0-.08,0-.17,0-.26s-.02-.17-.05-.25-.08-.14-.14-.18c-.06-.05-.15-.07-.26-.07s-.21.02-.28.06c-.07.04-.13.1-.16.17-.04.07-.06.15-.07.23s-.02.18-.02.27v1.43h-.89v-2.88Z"/>
    <path class="cls-1" d="M103.05,39.21c0,.55-.14.96-.41,1.24-.28.28-.69.42-1.25.42-.26,0-.51-.03-.76-.09-.25-.06-.48-.17-.69-.33l.49-.74c.14.12.28.21.44.27.15.07.32.1.5.1.27,0,.47-.07.6-.2.13-.13.19-.3.19-.51v-.28h-.01c-.1.14-.23.24-.38.29-.15.06-.3.09-.43.09-.21,0-.41-.04-.58-.11s-.32-.18-.45-.31c-.12-.13-.22-.29-.29-.47-.07-.18-.1-.38-.1-.6,0-.19.03-.38.09-.56.06-.18.15-.34.26-.48.11-.14.25-.25.41-.33s.35-.13.55-.13c.13,0,.24.01.35.04.1.03.2.06.28.11.08.04.15.09.21.15.06.05.11.11.14.16h.01v-.38h.82v2.64ZM100.81,38c0,.09.02.19.05.27s.09.16.15.22.14.12.23.16c.08.04.18.06.28.06s.19-.02.28-.06c.09-.04.16-.09.23-.16s.12-.14.15-.22.05-.18.05-.27-.02-.18-.05-.27-.09-.16-.15-.23-.14-.12-.23-.16c-.09-.04-.18-.06-.28-.06s-.2.02-.28.06c-.09.04-.16.09-.23.16s-.12.14-.15.23-.05.17-.05.27Z"/>
    <path class="cls-1" d="M106.24,35.01v5.93h-.75v-5.93h.75Z"/>
  </g>
  <g>
    <path class="cls-1" d="M1.45,42.37h1.39c.34,0,.66.04.96.11.3.08.57.2.79.37.23.17.4.39.54.66.13.27.2.59.2.98,0,.34-.06.64-.19.9-.13.26-.3.48-.52.65-.22.18-.47.31-.75.4-.28.09-.58.14-.89.14h-1.51v-4.2ZM2.37,45.72h.48c.21,0,.41-.02.6-.07.18-.04.34-.12.48-.22.13-.1.24-.23.32-.4s.12-.36.12-.6c0-.21-.04-.38-.12-.54-.08-.15-.18-.28-.31-.38-.13-.1-.28-.17-.46-.22-.18-.05-.36-.07-.55-.07h-.55v2.49Z"/>
    <path class="cls-1" d="M8.56,46.07c-.14.18-.32.32-.54.42-.22.1-.44.15-.68.15s-.43-.04-.62-.11c-.2-.07-.37-.17-.51-.31-.14-.13-.26-.29-.34-.48s-.12-.39-.12-.62.04-.44.12-.62.2-.34.34-.48c.14-.13.31-.23.51-.31.2-.07.4-.11.62-.11.21,0,.39.04.56.11.17.07.31.17.43.31.12.13.21.29.27.48.06.19.09.39.09.62v.28h-2.06c.04.17.11.31.23.41.12.1.27.15.44.15.15,0,.27-.03.37-.1.1-.06.19-.15.26-.25l.62.46ZM7.81,44.8c0-.15-.05-.28-.15-.39s-.24-.16-.4-.16c-.1,0-.19.02-.26.05-.08.03-.14.07-.19.12-.05.05-.09.11-.12.17-.03.07-.05.13-.05.21h1.17Z"/>
    <path class="cls-1" d="M11.05,46.21h-.01c-.1.15-.23.26-.39.33-.16.07-.34.1-.52.1-.13,0-.26-.02-.39-.06-.12-.04-.23-.09-.33-.17s-.17-.17-.23-.28c-.06-.11-.08-.24-.08-.39,0-.17.03-.31.09-.42s.14-.21.25-.29c.1-.07.22-.13.36-.17.13-.04.27-.07.42-.09.14-.02.29-.03.43-.04s.28,0,.4,0c0-.16-.06-.28-.17-.38-.11-.09-.25-.14-.4-.14s-.28.03-.4.09c-.12.06-.23.14-.32.25l-.47-.49c.17-.15.36-.27.58-.35.22-.08.45-.12.69-.12.26,0,.47.03.64.1.17.07.3.16.4.29.1.13.17.28.21.46.04.18.06.4.06.64v1.46h-.82v-.36ZM10.83,45.31c-.07,0-.15,0-.25,0s-.2.02-.29.05c-.09.03-.17.07-.24.12-.07.06-.1.13-.1.23,0,.11.05.19.14.24.09.05.19.08.29.08.09,0,.17-.01.25-.04s.15-.06.22-.1c.06-.04.11-.1.15-.17.04-.07.06-.15.06-.24v-.19h-.22Z"/>
    <path class="cls-1" d="M12.44,42.09h.89v4.48h-.89v-4.48Z"/>
    <path class="cls-1" d="M15.61,44.47c0-.34.06-.64.17-.91.11-.27.27-.5.47-.7.2-.19.44-.34.72-.44.28-.1.58-.15.91-.15s.63.05.91.15c.28.1.52.25.72.44.2.19.36.42.47.7.11.27.17.58.17.91s-.06.64-.17.91c-.11.27-.27.5-.47.7-.2.19-.44.34-.72.44-.28.1-.58.15-.91.15s-.63-.05-.91-.15c-.28-.1-.52-.25-.72-.44-.2-.19-.36-.42-.47-.7-.11-.27-.17-.58-.17-.91ZM16.57,44.47c0,.2.03.38.09.54s.15.31.26.43c.12.12.25.21.41.28.16.07.34.1.54.1s.38-.03.54-.1c.16-.07.3-.16.41-.28.11-.12.2-.26.26-.43.06-.16.09-.34.09-.54s-.03-.37-.09-.54c-.06-.17-.15-.31-.26-.43-.12-.12-.25-.21-.41-.28-.16-.07-.34-.1-.54-.1s-.38.03-.54.1c-.16.07-.3.16-.41.28-.11.12-.2.26-.26.43s-.09.35-.09.54Z"/>
    <path class="cls-1" d="M20.65,43.69h.89v.46h.01c.09-.18.21-.31.34-.4.13-.09.29-.13.49-.13.05,0,.1,0,.15,0,.05,0,.1.01.14.02v.81c-.06-.02-.12-.03-.19-.04s-.12-.01-.19-.01c-.17,0-.3.02-.4.07-.1.05-.17.11-.23.2-.05.08-.09.19-.1.31-.02.12-.02.25-.02.39v1.2h-.89v-2.88Z"/>
    <path class="cls-1" d="M23.01,42.78c0-.14.05-.26.15-.37.1-.1.22-.15.36-.15s.26.05.37.15c.1.1.15.22.15.37s-.05.26-.15.36c-.1.1-.22.15-.37.15s-.26-.05-.36-.15c-.1-.1-.15-.22-.15-.36ZM23.08,43.69h.89v2.88h-.89v-2.88Z"/>
    <path class="cls-1" d="M27.63,46.33c0,.55-.14.96-.41,1.24-.28.28-.69.42-1.25.42-.26,0-.51-.03-.76-.09-.25-.06-.48-.17-.69-.33l.49-.74c.14.12.28.21.44.27.15.07.32.1.5.1.27,0,.47-.07.6-.2.13-.13.19-.3.19-.51v-.28h-.01c-.1.14-.23.24-.38.29-.15.06-.3.09-.43.09-.21,0-.41-.04-.58-.11s-.32-.18-.45-.31c-.12-.13-.22-.29-.29-.47-.07-.18-.1-.38-.1-.6,0-.19.03-.38.09-.56.06-.18.15-.34.26-.48.11-.14.25-.25.41-.33s.35-.13.55-.13c.13,0,.24.01.35.04.1.03.2.06.28.11.08.04.15.09.21.15.06.05.11.11.14.16h.01v-.38h.82v2.64ZM25.39,45.11c0,.09.02.19.05.27s.09.16.15.22.14.12.23.16c.08.04.18.06.28.06s.19-.02.28-.06c.09-.04.16-.09.23-.16s.12-.14.15-.22.05-.18.05-.27-.02-.18-.05-.27-.09-.16-.15-.23-.14-.12-.23-.16c-.09-.04-.18-.06-.28-.06s-.2.02-.28.06c-.09.04-.16.09-.23.16s-.12.14-.15.23-.05.17-.05.27Z"/>
    <path class="cls-1" d="M28.29,42.78c0-.14.05-.26.15-.37.1-.1.22-.15.36-.15s.26.05.37.15c.1.1.15.22.15.37s-.05.26-.15.36c-.1.1-.22.15-.37.15s-.26-.05-.36-.15c-.1-.1-.15-.22-.15-.36ZM28.36,43.69h.89v2.88h-.89v-2.88Z"/>
    <path class="cls-1" d="M29.89,43.69h.85v.39h.01c.03-.06.07-.11.12-.17.05-.06.11-.11.18-.15.07-.04.15-.08.24-.11.09-.03.19-.04.3-.04.22,0,.41.04.54.1.14.07.25.17.32.29.08.12.13.27.16.43s.04.35.04.54v1.59h-.89v-1.41c0-.08,0-.17,0-.26s-.02-.17-.05-.25-.08-.14-.14-.18c-.06-.05-.15-.07-.26-.07s-.21.02-.28.06c-.07.04-.13.1-.16.17-.04.07-.06.15-.07.23s-.02.18-.02.27v1.43h-.89v-2.88Z"/>
    <path class="cls-1" d="M35.1,46.21h-.01c-.1.15-.23.26-.39.33-.16.07-.34.1-.52.1-.13,0-.26-.02-.39-.06-.12-.04-.23-.09-.33-.17s-.17-.17-.23-.28c-.06-.11-.08-.24-.08-.39,0-.17.03-.31.09-.42s.14-.21.25-.29c.1-.07.22-.13.36-.17.13-.04.27-.07.42-.09.14-.02.29-.03.43-.04s.28,0,.4,0c0-.16-.06-.28-.17-.38-.11-.09-.25-.14-.4-.14s-.28.03-.4.09c-.12.06-.23.14-.32.25l-.47-.49c.17-.15.36-.27.58-.35.22-.08.45-.12.69-.12.26,0,.47.03.64.1.17.07.3.16.4.29.1.13.17.28.21.46.04.18.06.4.06.64v1.46h-.82v-.36ZM34.88,45.31c-.07,0-.15,0-.25,0s-.2.02-.29.05c-.09.03-.17.07-.24.12-.07.06-.1.13-.1.23,0,.11.05.19.14.24.09.05.19.08.29.08.09,0,.17-.01.25-.04s.15-.06.22-.1c.06-.04.11-.1.15-.17.04-.07.06-.15.06-.24v-.19h-.22Z"/>
    <path class="cls-1" d="M38.44,44.4h-.78v.96c0,.08,0,.15.01.22s.03.12.05.17.07.08.13.11c.06.03.13.04.23.04.05,0,.11,0,.19-.01s.13-.03.17-.07v.74c-.1.04-.2.06-.31.07s-.21.02-.31.02c-.15,0-.29-.02-.42-.05-.13-.03-.24-.08-.33-.15-.09-.07-.17-.16-.22-.27-.05-.11-.08-.25-.08-.4v-1.37h-.57v-.71h.57v-.85h.89v.85h.78v.71Z"/>
    <path class="cls-1" d="M38.83,42.78c0-.14.05-.26.15-.37.1-.1.22-.15.36-.15s.26.05.37.15c.1.1.15.22.15.37s-.05.26-.15.36c-.1.1-.22.15-.37.15s-.26-.05-.36-.15c-.1-.1-.15-.22-.15-.36ZM38.9,43.69h.89v2.88h-.89v-2.88Z"/>
    <path class="cls-1" d="M40.32,45.13c0-.23.04-.44.12-.62s.2-.34.34-.48c.14-.13.31-.23.51-.31.2-.07.4-.11.63-.11s.43.04.63.11c.2.07.37.17.51.31.14.13.26.29.34.48s.12.39.12.62-.04.44-.12.62-.2.34-.34.48-.31.23-.51.31c-.2.07-.4.11-.63.11s-.43-.04-.63-.11c-.2-.07-.37-.17-.51-.31s-.26-.29-.34-.48-.12-.39-.12-.62ZM41.21,45.13c0,.22.06.39.19.53.12.13.3.2.52.2s.4-.07.52-.2c.12-.13.19-.31.19-.53s-.06-.39-.19-.53c-.12-.13-.3-.2-.52-.2s-.4.07-.52.2c-.12.13-.19.31-.19.53Z"/>
    <path class="cls-1" d="M44.05,43.69h.85v.39h.01c.03-.06.07-.11.12-.17.05-.06.11-.11.18-.15.07-.04.15-.08.24-.11.09-.03.19-.04.3-.04.22,0,.41.04.54.1.14.07.25.17.32.29.08.12.13.27.16.43s.04.35.04.54v1.59h-.89v-1.41c0-.08,0-.17,0-.26s-.02-.17-.05-.25-.08-.14-.14-.18c-.06-.05-.15-.07-.26-.07s-.21.02-.28.06c-.07.04-.13.1-.16.17-.04.07-.06.15-.07.23s-.02.18-.02.27v1.43h-.89v-2.88Z"/>
    <path class="cls-1" d="M49.92,42.12v5.93h-.75v-5.93h.75Z"/>
    <path class="cls-1" d="M55.93,44.95c0,.25-.04.48-.11.69-.08.21-.19.39-.33.54s-.33.28-.55.36-.48.13-.76.13-.55-.04-.77-.13c-.22-.09-.41-.21-.55-.36-.15-.15-.26-.34-.33-.54-.08-.21-.11-.44-.11-.69v-2.58h.92v2.54c0,.13.02.25.06.36.04.11.1.21.17.29s.17.14.27.19c.1.05.22.07.34.07s.24-.02.34-.07c.1-.04.19-.11.27-.19s.13-.18.17-.29c.04-.11.06-.23.06-.36v-2.54h.92v2.58Z"/>
    <path class="cls-1" d="M56.67,43.69h.85v.39h.01c.03-.06.07-.11.12-.17.05-.06.11-.11.18-.15.07-.04.15-.08.24-.11.09-.03.19-.04.3-.04.22,0,.41.04.54.1.14.07.25.17.32.29.08.12.13.27.16.43s.04.35.04.54v1.59h-.89v-1.41c0-.08,0-.17,0-.26s-.02-.17-.05-.25-.08-.14-.14-.18c-.06-.05-.15-.07-.26-.07s-.21.02-.28.06c-.07.04-.13.1-.16.17-.04.07-.06.15-.07.23s-.02.18-.02.27v1.43h-.89v-2.88Z"/>
    <path class="cls-1" d="M63.1,46.57h-.82v-.38h-.01c-.04.05-.08.1-.14.16-.06.05-.12.1-.2.15-.08.04-.16.08-.25.11-.09.03-.19.04-.29.04-.21,0-.41-.04-.58-.11-.17-.07-.32-.18-.45-.31-.12-.13-.22-.29-.29-.47s-.1-.38-.1-.6c0-.2.03-.39.09-.58.06-.18.15-.35.26-.49.11-.14.25-.26.41-.34s.35-.13.55-.13c.19,0,.36.03.52.09s.29.16.39.29h.01v-1.91h.89v4.48ZM62.28,45.13c0-.22-.06-.39-.19-.53-.12-.13-.3-.2-.52-.2s-.4.07-.52.2c-.12.13-.19.31-.19.53s.06.39.19.53c.12.13.3.2.52.2s.4-.07.52-.2c.12-.13.19-.31.19-.53Z"/>
    <path class="cls-1" d="M66.54,46.07c-.14.18-.32.32-.54.42-.22.1-.44.15-.68.15s-.43-.04-.62-.11c-.2-.07-.37-.17-.51-.31-.14-.13-.26-.29-.34-.48s-.12-.39-.12-.62.04-.44.12-.62.2-.34.34-.48c.14-.13.31-.23.51-.31.2-.07.4-.11.62-.11.21,0,.39.04.56.11.17.07.31.17.43.31.12.13.21.29.27.48.06.19.09.39.09.62v.28h-2.06c.04.17.11.31.23.41.12.1.27.15.44.15.15,0,.27-.03.37-.1.1-.06.19-.15.26-.25l.62.46ZM65.79,44.8c0-.15-.05-.28-.15-.39s-.24-.16-.4-.16c-.1,0-.19.02-.26.05-.08.03-.14.07-.19.12-.05.05-.09.11-.12.17-.03.07-.05.13-.05.21h1.17Z"/>
    <path class="cls-1" d="M67.21,43.69h.89v.46h.01c.09-.18.21-.31.34-.4.13-.09.29-.13.49-.13.05,0,.1,0,.15,0,.05,0,.1.01.14.02v.81c-.06-.02-.12-.03-.19-.04s-.12-.01-.19-.01c-.17,0-.3.02-.4.07-.1.05-.17.11-.23.2-.05.08-.09.19-.1.31-.02.12-.02.25-.02.39v1.2h-.89v-2.88Z"/>
    <path class="cls-1" d="M69.28,43.69h.95l.59,1.81h.01l.49-1.81h.97l.53,1.81h.01l.54-1.81h.9l-1.03,2.88h-.88l-.6-1.92h-.01l-.53,1.92h-.9l-1.05-2.88Z"/>
    <path class="cls-1" d="M74.57,43.69h.89v.46h.01c.09-.18.21-.31.34-.4.13-.09.29-.13.49-.13.05,0,.1,0,.15,0,.05,0,.1.01.14.02v.81c-.06-.02-.12-.03-.19-.04s-.12-.01-.19-.01c-.17,0-.3.02-.4.07-.1.05-.17.11-.23.2-.05.08-.09.19-.1.31-.02.12-.02.25-.02.39v1.2h-.89v-2.88Z"/>
    <path class="cls-1" d="M76.92,42.78c0-.14.05-.26.15-.37.1-.1.22-.15.36-.15s.26.05.37.15c.1.1.15.22.15.37s-.05.26-.15.36c-.1.1-.22.15-.37.15s-.26-.05-.36-.15c-.1-.1-.15-.22-.15-.36ZM76.99,43.69h.89v2.88h-.89v-2.88Z"/>
    <path class="cls-1" d="M80.49,44.4h-.78v.96c0,.08,0,.15.01.22s.03.12.05.17.07.08.13.11c.06.03.13.04.23.04.05,0,.11,0,.19-.01s.13-.03.17-.07v.74c-.1.04-.2.06-.31.07s-.21.02-.31.02c-.15,0-.29-.02-.42-.05-.13-.03-.24-.08-.33-.15-.09-.07-.17-.16-.22-.27-.05-.11-.08-.25-.08-.4v-1.37h-.57v-.71h.57v-.85h.89v.85h.78v.71Z"/>
    <path class="cls-1" d="M80.88,42.78c0-.14.05-.26.15-.37.1-.1.22-.15.36-.15s.26.05.37.15c.1.1.15.22.15.37s-.05.26-.15.36c-.1.1-.22.15-.37.15s-.26-.05-.36-.15c-.1-.1-.15-.22-.15-.36ZM80.95,43.69h.89v2.88h-.89v-2.88Z"/>
    <path class="cls-1" d="M82.48,43.69h.85v.39h.01c.03-.06.07-.11.12-.17.05-.06.11-.11.18-.15.07-.04.15-.08.24-.11.09-.03.19-.04.3-.04.22,0,.41.04.54.1.14.07.25.17.32.29.08.12.13.27.16.43s.04.35.04.54v1.59h-.89v-1.41c0-.08,0-.17,0-.26s-.02-.17-.05-.25-.08-.14-.14-.18c-.06-.05-.15-.07-.26-.07s-.21.02-.28.06c-.07.04-.13.1-.16.17-.04.07-.06.15-.07.23s-.02.18-.02.27v1.43h-.89v-2.88Z"/>
    <path class="cls-1" d="M88.91,46.33c0,.55-.14.96-.41,1.24-.28.28-.69.42-1.25.42-.26,0-.51-.03-.76-.09-.25-.06-.48-.17-.69-.33l.49-.74c.14.12.28.21.44.27.15.07.32.1.5.1.27,0,.47-.07.6-.2.13-.13.19-.3.19-.51v-.28h-.01c-.1.14-.23.24-.38.29-.15.06-.3.09-.43.09-.21,0-.41-.04-.58-.11s-.32-.18-.45-.31c-.12-.13-.22-.29-.29-.47-.07-.18-.1-.38-.1-.6,0-.19.03-.38.09-.56.06-.18.15-.34.26-.48.11-.14.25-.25.41-.33s.35-.13.55-.13c.13,0,.24.01.35.04.1.03.2.06.28.11.08.04.15.09.21.15.06.05.11.11.14.16h.01v-.38h.82v2.64ZM86.66,45.11c0,.09.02.19.05.27s.09.16.15.22.14.12.23.16c.08.04.18.06.28.06s.19-.02.28-.06c.09-.04.16-.09.23-.16s.12-.14.15-.22.05-.18.05-.27-.02-.18-.05-.27-.09-.16-.15-.23-.14-.12-.23-.16c-.09-.04-.18-.06-.28-.06s-.2.02-.28.06c-.09.04-.16.09-.23.16s-.12.14-.15.23-.05.17-.05.27Z"/>
    <path class="cls-1" d="M92.09,42.12v5.93h-.75v-5.93h.75Z"/>
  </g>
  <g>
    <path class="cls-3" d="M36.23,4.74c-.21-.26-.49-.46-.85-.59-.36-.13-.7-.19-1.02-.19-.19,0-.38.02-.58.07-.2.04-.39.11-.56.2-.18.1-.32.22-.43.37-.11.15-.17.34-.17.56,0,.35.13.62.4.81.27.19.6.35,1,.48.4.13.84.26,1.3.4.46.13.9.32,1.3.57.4.24.73.57,1,.98.26.41.4.95.39,1.64,0,.65-.12,1.22-.36,1.71-.24.49-.57.89-.99,1.21-.41.32-.89.56-1.44.71-.55.16-1.12.23-1.73.23-.76,0-1.47-.12-2.12-.35-.65-.23-1.26-.61-1.82-1.13l1.84-2.02c.27.35.6.63,1,.82.4.19.82.29,1.25.29.21,0,.42-.02.64-.07.22-.05.41-.12.58-.22.17-.1.31-.23.41-.38.11-.16.16-.34.16-.55,0-.35-.13-.63-.41-.83-.27-.21-.61-.38-1.02-.52-.41-.15-.85-.29-1.32-.43-.47-.14-.92-.34-1.32-.58-.41-.24-.75-.56-1.02-.96-.27-.4-.4-.92-.4-1.57s.13-1.18.37-1.65c.25-.47.58-.87.99-1.19.41-.32.89-.56,1.43-.72.54-.16,1.1-.24,1.67-.24.66,0,1.3.1,1.92.28.62.19,1.17.51,1.67.95l-1.77,1.93Z"/>
    <path class="cls-3" d="M38.8,3.02c0-.4.14-.74.42-1.02.28-.28.62-.42,1.02-.42s.74.14,1.02.42c.28.28.42.62.42,1.02,0,.4-.14.74-.43,1.02-.28.28-.62.42-1.02.42-.4,0-.74-.14-1.02-.42-.28-.28-.42-.62-.42-1.02M38.99,5.56h2.48s0,8.05,0,8.05h-2.48s0-8.05,0-8.05Z"/>
    <path class="cls-3" d="M42.6,5.56h2.38v1.1h.03c.08-.15.19-.31.33-.46.14-.15.32-.29.51-.41.2-.12.42-.22.68-.3.25-.08.53-.12.83-.12.56,0,1.06.12,1.5.35.43.23.76.59.98,1.09.29-.52.63-.89,1.04-1.11.41-.22.91-.33,1.51-.33.54,0,.99.09,1.36.28.37.18.66.43.88.75.21.32.37.68.46,1.11.09.43.14.88.14,1.36v4.75s-2.49,0-2.49,0v-4.68c0-.38-.08-.7-.23-.97-.16-.27-.44-.41-.85-.41-.29,0-.53.05-.72.14-.19.09-.35.22-.46.39-.12.16-.2.36-.25.58-.05.22-.08.45-.08.69v4.25s-2.49,0-2.49,0v-4.25c0-.14,0-.32-.01-.53-.01-.21-.05-.41-.11-.6-.07-.19-.17-.35-.32-.48-.15-.13-.37-.2-.65-.2-.32,0-.58.06-.78.17-.2.12-.35.27-.46.46-.11.19-.17.41-.21.65-.03.24-.05.5-.05.76v4.01s-2.49,0-2.49,0V5.56Z"/>
    <path class="cls-3" d="M56.24,5.57h2.28s0,1.06,0,1.06h.03c.1-.14.23-.29.39-.44.16-.15.35-.29.56-.41.21-.12.45-.22.7-.3.26-.08.52-.12.81-.12.6,0,1.14.1,1.62.31.48.21.9.49,1.25.86.35.37.61.81.8,1.32.19.51.28,1.06.28,1.67,0,.56-.09,1.1-.26,1.61-.17.51-.42.97-.73,1.36-.32.4-.7.71-1.15.95-.45.24-.97.36-1.54.35-.52,0-1-.08-1.45-.24-.45-.16-.81-.43-1.1-.82h-.03v4.64s-2.49,0-2.49,0V5.57ZM58.52,9.6c0,.61.17,1.1.52,1.47.35.38.84.56,1.46.56.63,0,1.12-.19,1.47-.56.35-.38.52-.86.52-1.47,0-.61-.17-1.1-.52-1.47-.35-.38-.84-.56-1.46-.56-.63,0-1.12.19-1.47.56-.35.38-.52.87-.52,1.47"/>
  </g>
  <rect class="cls-3" x="60.79" y="6.13" width="12.51" height="2.48" transform="translate(59.6 74.41) rotate(-89.93)"/>
  <path class="cls-3" d="M77.03,12.25c-.4.51-.9.9-1.51,1.17-.61.28-1.24.41-1.89.41-.62,0-1.2-.1-1.74-.3-.54-.2-1.02-.48-1.42-.85-.4-.37-.72-.82-.95-1.33-.23-.52-.35-1.1-.35-1.74,0-.64.12-1.22.35-1.74.23-.52.55-.96.95-1.33.4-.37.88-.65,1.42-.85.55-.2,1.13-.3,1.75-.3.57,0,1.09.1,1.56.3.47.2.87.48,1.19.85.33.37.58.82.75,1.33.18.52.26,1.1.26,1.74v.78s-5.76,0-5.76,0c.1.47.31.85.64,1.13.33.28.74.42,1.22.43.41,0,.76-.09,1.04-.27.28-.18.53-.41.74-.7l1.74,1.28ZM74.93,8.7c0-.42-.13-.78-.41-1.08-.29-.3-.66-.44-1.11-.44-.28,0-.52.04-.73.13-.21.09-.39.2-.54.34-.15.14-.27.3-.35.48-.08.18-.13.37-.14.57h3.28Z"/>
  <polygon class="cls-3" points="77.44 1.09 77.43 1.52 78.04 1.52 78.04 3.13 78.54 3.13 78.54 1.52 79.16 1.52 79.16 1.09 77.44 1.09"/>
  <g>
    <path class="cls-3" d="M79.5,3.13V1.09h.44l.74,1.21h-.32s.75-1.21.75-1.21h.43s0,2.04,0,2.04h-.48s0-.64,0-.64c0-.17,0-.33.01-.47,0-.14.02-.28.05-.42l.06.15-.57.87h-.19l-.55-.87.06-.16c.02.13.04.26.04.4.01.14.01.3.01.49v.63h-.48Z"/>
    <path class="cls-3" d="M30.83,30.87h8.13v-2.35h-5.59v-2.34h5v-2.35h-5v-2.15h5.29v-2.35h-7.84v11.53ZM52.97,28.91h-3.23v-.03c.39-.17.73-.4,1.03-.68.29-.28.53-.59.72-.94.18-.35.32-.72.42-1.11.09-.39.14-.79.14-1.21,0-.87-.16-1.66-.48-2.39-.32-.72-.76-1.34-1.31-1.87-.56-.52-1.21-.93-1.96-1.22-.75-.29-1.55-.44-2.41-.44s-1.66.14-2.41.43c-.75.29-1.4.69-1.96,1.21-.55.52-.99,1.15-1.31,1.87-.32.73-.48,1.53-.48,2.39,0,.93.16,1.77.47,2.49.32.73.75,1.35,1.3,1.86.55.51,1.21.9,1.98,1.17.77.27,1.6.4,2.5.4h6.99v-1.96ZM42.64,23.55c.18-.43.44-.81.76-1.13.32-.32.69-.57,1.11-.76.42-.18.88-.28,1.37-.28s.95.09,1.37.28c.42.18.8.44,1.12.76.32.32.57.7.76,1.13.18.43.28.9.28,1.4s-.09.97-.28,1.4c-.18.44-.44.81-.76,1.13-.32.32-.69.57-1.12.76-.42.19-.88.28-1.37.28s-.95-.09-1.37-.28c-.42-.18-.8-.44-1.11-.76-.32-.32-.57-.7-.76-1.13-.18-.43-.28-.9-.28-1.4s.09-.97.28-1.4M63.3,19.33h-2.54v6.99c0,.36-.06.69-.17.99-.11.3-.27.57-.48.79s-.45.4-.73.52c-.28.13-.59.19-.93.19s-.65-.06-.94-.19c-.29-.12-.54-.3-.74-.52-.21-.22-.37-.49-.48-.79-.11-.3-.17-.64-.17-.99v-6.99h-2.54v7.09c0,.68.1,1.31.31,1.89.21.58.51,1.08.92,1.5.41.42.92.75,1.52.99.61.24,1.31.36,2.12.36s1.49-.12,2.1-.36c.61-.24,1.12-.57,1.52-.99.41-.42.71-.92.92-1.5.21-.58.31-1.21.31-1.89v-7.09ZM64.96,30.87h2.54v-11.53h-2.54v11.53ZM71.72,30.87h2.54v-9.29h3.29v-2.25h-9.12v2.25h3.29v9.29ZM78.48,30.87h2.54v-11.53h-2.54v11.53ZM83.11,30.87h8.13v-2.35h-5.59v-2.34h5v-2.35h-5v-2.15h5.29v-2.35h-7.84v11.53ZM100.39,20.24c-.49-.43-1.04-.74-1.65-.93-.61-.18-1.24-.28-1.89-.28-.57,0-1.11.08-1.65.24-.53.16-1,.39-1.41.71-.41.32-.73.71-.98,1.17-.24.47-.37,1.01-.37,1.63s.13,1.16.4,1.55c.27.39.6.71,1,.94.4.24.84.43,1.3.57.47.14.9.28,1.3.42.4.14.73.31,1,.51.27.2.4.48.4.82,0,.21-.05.39-.16.54-.1.15-.24.28-.41.37-.17.1-.36.17-.57.22-.21.05-.42.07-.63.07-.42,0-.83-.1-1.23-.29-.4-.19-.73-.46-.98-.81l-1.81,1.99c.55.51,1.15.88,1.79,1.11s1.34.34,2.09.34c.6,0,1.17-.08,1.7-.23.54-.15,1.01-.39,1.42-.7.41-.32.73-.71.97-1.19.24-.48.36-1.04.36-1.68,0-.67-.13-1.21-.39-1.61-.26-.4-.59-.72-.99-.96-.4-.24-.82-.42-1.28-.55-.46-.13-.88-.26-1.28-.39s-.72-.29-.99-.47c-.26-.18-.39-.45-.39-.8,0-.22.05-.4.16-.55.11-.15.25-.27.42-.37.17-.09.36-.16.55-.2.2-.04.39-.07.57-.07.32,0,.65.06,1,.19s.63.32.84.58l1.74-1.91Z"/>
    <path class="cls-2" d="M20.46,10.98c-.08-.09-.11-.15-.16-.18-.5-.29-1-.58-1.5-.87-.67-.39-1.35-.78-2.02-1.16-.94-.54-1.88-1.08-2.83-1.6-.1-.06-.29-.05-.4,0-.57.29-1.12.61-1.68.93-1.3.74-2.59,1.49-3.88,2.23-.32.19-.64.39-.99.61.11.08.16.12.21.15,1.02.58,2.04,1.15,3.05,1.73,1,.58,2.01,1.17,2.98,1.79.37.24.65.22,1.01,0,1.09-.65,2.2-1.27,3.3-1.91.96-.56,1.91-1.12,2.91-1.71M21.75,17.39c-.3.16-.49.24-.67.35-.44.25-.87.52-1.3.77-1.07.61-2.14,1.22-3.21,1.83-.82.47-1.65.95-2.46,1.43-.24.14-.46.16-.69,0-.23-.15-.46-.28-.7-.42-1.73-1-3.46-2-5.2-3-.57-.33-1.15-.66-1.77-1.02,0,1.15-.01,2.25.01,3.35,0,.13.17.29.3.37,1.02.6,2.05,1.18,3.08,1.78,1.41.82,2.82,1.63,4.22,2.46.3.18.54.16.82-.01.77-.46,1.55-.92,2.33-1.37,1.63-.94,3.25-1.87,4.89-2.8.26-.15.36-.34.36-.63-.01-.65,0-1.31,0-1.97v-1.14ZM25.27,8.29c-.14-.09-.22-.15-.31-.2-1.49-.86-2.97-1.72-4.46-2.58-2.1-1.21-4.2-2.42-6.29-3.64-.35-.2-.62-.21-.95.01-.29.2-.59.36-.89.53-3.67,2.12-7.34,4.24-11.01,6.35-.23.13-.33.29-.33.56.02,1.07.02,2.13,0,3.2,0,.31.09.49.37.65,3.95,2.27,7.91,4.54,11.84,6.84.4.23.67.19,1.03-.02,2.83-1.65,5.67-3.28,8.51-4.91.11-.06.23-.1.4-.17.01.2.02.33.02.46,0,2,0,3.99,0,5.98,0,.32-.11.48-.38.64-2.79,1.6-5.58,3.19-8.34,4.83-.58.35-.99.31-1.54-.01-2.77-1.63-5.55-3.23-8.34-4.83-.26-.15-.36-.31-.36-.61.02-1.52,0-3.05.01-4.57,0-.25-.07-.41-.3-.53-.51-.27-1.01-.58-1.51-.87-.44-.26-.89-.51-1.39-.79-.02.16-.04.27-.04.37,0,2.76,0,5.52,0,8.29,0,.27.1.42.33.56,1.52.87,3.04,1.75,4.56,2.63,2.48,1.43,4.96,2.87,7.44,4.31.24.14.43.18.7.02,1.62-.96,3.24-1.89,4.87-2.83,2.37-1.36,4.73-2.72,7.1-4.07.3-.17.4-.37.4-.71,0-4.48,0-8.97,0-13.45,0-.11-.02-.23-.04-.4-.15.08-.25.12-.34.17-4.01,2.32-8.02,4.63-12.03,6.96-.21.12-.37.12-.58,0-3-1.74-6.01-3.48-9.02-5.22-.11-.06-.2-.16-.33-.27.17-.11.28-.18.39-.25.58-.33,1.16-.66,1.74-1,2.39-1.38,4.77-2.75,7.15-4.14.27-.16.49-.16.75,0,.42.26.85.5,1.28.75,2.1,1.21,4.19,2.42,6.28,3.64.27.16.49.18.77,0,.72-.45,1.47-.85,2.21-1.28.18-.1.35-.21.59-.36"/>
    <path class="cls-2" d="M25.27,8.29c-.23.14-.41.26-.59.36-.74.43-1.49.83-2.21,1.28-.29.18-.5.16-.77,0-2.09-1.22-4.19-2.43-6.28-3.64-.43-.25-.86-.48-1.28-.75-.26-.16-.48-.16-.75,0-2.38,1.39-4.77,2.76-7.15,4.14-.58.33-1.16.66-1.74,1-.11.07-.22.14-.39.25.14.11.23.21.33.27,3.01,1.74,6.01,3.47,9.02,5.22.21.12.37.13.58,0,4.01-2.32,8.02-4.64,12.03-6.96.09-.05.19-.1.34-.17.02.17.04.29.04.4,0,4.48,0,8.97,0,13.45,0,.34-.1.54-.4.71-2.37,1.35-4.74,2.71-7.1,4.07-1.63.94-3.25,1.87-4.87,2.83-.27.16-.46.13-.7-.02-2.48-1.44-4.96-2.87-7.44-4.31-1.52-.88-3.04-1.76-4.56-2.63-.23-.13-.33-.28-.33-.56,0-2.76,0-5.52,0-8.29,0-.1.02-.21.04-.37.49.28.94.54,1.39.79.5.29,1,.6,1.51.87.23.12.3.28.3.53-.01,1.52,0,3.05-.01,4.57,0,.3.1.46.36.61,2.79,1.6,5.57,3.2,8.34,4.83.55.32.96.36,1.54.01,2.76-1.65,5.55-3.24,8.34-4.83.27-.15.38-.32.38-.64-.01-1.99,0-3.99,0-5.98,0-.13-.01-.26-.02-.46-.17.07-.29.11-.4.17-2.84,1.63-5.68,3.26-8.51,4.91-.36.21-.63.25-1.03.02-3.94-2.3-7.89-4.57-11.84-6.84-.27-.16-.37-.34-.37-.65.02-1.07.01-2.13,0-3.2,0-.27.1-.43.33-.56,3.67-2.11,7.34-4.23,11.01-6.35.3-.17.61-.34.89-.53.33-.22.6-.21.95-.01,2.09,1.23,4.19,2.43,6.29,3.64,1.49.86,2.97,1.72,4.46,2.58.08.05.16.11.31.2"/>
    <path class="cls-2" d="M21.75,17.39v1.14c0,.65,0,1.31,0,1.97,0,.29-.1.48-.36.63-1.63.93-3.26,1.86-4.89,2.8-.78.45-1.56.9-2.33,1.37-.28.17-.53.19-.83.01-1.4-.83-2.81-1.64-4.22-2.46-1.03-.59-2.06-1.18-3.08-1.78-.13-.08-.3-.24-.3-.37-.02-1.1-.01-2.2-.01-3.35.62.36,1.2.68,1.77,1.01,1.73,1,3.47,2,5.2,3,.24.14.47.27.7.42.24.15.46.13.69,0,.82-.48,1.64-.96,2.47-1.43,1.07-.61,2.14-1.22,3.21-1.83.44-.25.87-.52,1.3-.77.18-.1.36-.19.67-.35"/>
    <path class="cls-2" d="M20.46,10.98c-1,.59-1.95,1.15-2.91,1.71-1.1.64-2.21,1.26-3.3,1.91-.36.22-.64.24-1.01,0-.98-.62-1.98-1.21-2.98-1.79-1.01-.59-2.04-1.16-3.05-1.73-.05-.03-.1-.07-.21-.15.36-.22.67-.42.99-.61,1.29-.75,2.58-1.49,3.88-2.23.55-.32,1.11-.63,1.68-.93.11-.06.3-.06.4,0,.95.52,1.89,1.07,2.84,1.6.67.39,1.35.77,2.02,1.16.5.29,1,.58,1.5.88.05.03.08.09.16.18"/>
  </g>
</svg>