<?xml version="1.0" encoding="UTF-8"?>
<svg id="Layer_1" data-name="Layer 1" xmlns="http://www.w3.org/2000/svg" viewBox="0 0 119.12 49.14">
  <defs>
    <style>
      .cls-1 {
        fill: #232156;
      }

      .cls-1, .cls-2 {
        stroke-width: 0px;
      }

      .cls-2 {
        fill: #f47621;
      }
    </style>
  </defs>
  <g>
    <path class="cls-2" d="M30.26,5.1v18.05c0-.81-.08-1.57-.23-2.27-.16-.7-.41-1.32-.77-1.84-.36-.52-.85-.94-1.46-1.24-.61-.3-1.37-.46-2.27-.46-1,0-1.83.19-2.51.55-.68.37-1.26.98-1.74,1.84-.36-.83-.91-1.43-1.64-1.82s-1.56-.58-2.5-.58c-.49,0-.95.07-1.37.19-.43.13-.8.29-1.13.5-.33.2-.61.43-.85.69-.24.26-.42.52-.55.77h-.05v-1.82h-3.97v13.39h-4.91c-2,0-3.61-1.62-3.61-3.61V5.1c0-2,1.62-3.61,3.61-3.61h22.34c2,0,3.61,1.61,3.61,3.61"/>
    <path class="cls-1" d="M17.65,23.09c.02.35.03.64.03.88v7.08h-4.32v-6.66c0-.44.03-.87.08-1.27.06-.4.17-.77.34-1.08.18-.32.43-.58.76-.77.33-.19.76-.29,1.3-.29.47,0,.84.11,1.09.33.25.22.42.49.53.8.11.31.17.64.19.99"/>
    <path class="cls-1" d="M26.13,23.26v7.8h-4.32v-7.08c0-.41.04-.79.12-1.15.09-.37.22-.69.41-.97.2-.28.45-.49.78-.65.32-.16.72-.23,1.2-.23.68,0,1.15.23,1.42.68.27.45.4.99.4,1.61"/>
    <path class="cls-1" d="M30.26,27.44v3.61h-3.61c2,0,3.61-1.62,3.61-3.61"/>
    <path class="cls-1" d="M34.95,31.15h2.58v-9h.03l2.97,9h1.97l3.08-9h.03v9h2.59v-11.74h-3.9l-2.72,7.66h-.03l-2.7-7.66h-3.91v11.74ZM48.73,31.15h2.85l.98-2.49h4.56l1.01,2.49h2.92l-5.11-11.74h-2.14l-5.07,11.74ZM56.24,26.48h-2.87l1.43-3.65,1.44,3.65ZM61.56,31.15h2.59v-8.35h.03l5.12,8.35h3.38v-11.74h-2.59v8.16h-.03l-4.99-8.16h-3.51v11.74ZM73.2,31.15h2.85l.98-2.49h4.56l1.01,2.49h2.92l-5.11-11.74h-2.14l-5.07,11.74ZM80.71,26.48h-2.87l1.43-3.65,1.44,3.65ZM96.32,24.19h-4.59v2.39h2.11v1.91c-.24.13-.57.26-.98.39-.41.13-.89.19-1.46.19s-1.05-.09-1.5-.28c-.45-.19-.83-.45-1.15-.79s-.57-.74-.74-1.19c-.17-.46-.26-.96-.26-1.52s.09-1.04.26-1.51c.17-.46.42-.86.74-1.2.32-.34.7-.6,1.15-.79.45-.19.95-.28,1.5-.28.66,0,1.22.09,1.66.28.44.19.84.46,1.19.83l1.82-1.99c-.6-.55-1.29-.94-2.08-1.17-.79-.23-1.65-.34-2.6-.34s-1.76.14-2.54.43c-.77.29-1.44.7-2.01,1.23-.56.54-1,1.19-1.32,1.95-.31.76-.47,1.61-.47,2.55s.16,1.79.47,2.55c.32.76.75,1.41,1.32,1.95s1.23.95,2.01,1.24c.77.29,1.62.43,2.54.43.86,0,1.71-.09,2.54-.27.83-.18,1.62-.46,2.39-.86v-6.13ZM98.36,31.15h8.27v-2.39h-5.69v-2.39h5.09v-2.39h-5.09v-2.19h5.39v-2.39h-7.97v11.74Z"/>
    <path class="cls-1" d="M41.31,4.73c-.21-.27-.5-.47-.86-.59-.36-.13-.71-.19-1.03-.19-.19,0-.39.02-.59.07-.2.04-.39.11-.57.21-.18.1-.32.22-.44.38s-.17.35-.17.57c0,.36.13.63.4.82.27.19.61.35,1.01.49.41.13.85.27,1.31.4.47.13.91.32,1.32.57.41.25.75.57,1.01.99.27.41.4.96.4,1.66s-.12,1.23-.37,1.73c-.24.49-.58.9-1,1.22-.42.32-.9.56-1.46.72-.55.16-1.14.23-1.75.23-.77,0-1.49-.12-2.14-.35-.66-.23-1.27-.61-1.84-1.14l1.86-2.04c.27.36.61.63,1.01.83.41.19.83.29,1.26.29.21,0,.43-.03.65-.08.22-.05.41-.12.59-.22.17-.1.31-.23.42-.39.11-.16.16-.34.16-.55,0-.36-.14-.64-.41-.84-.27-.21-.62-.38-1.03-.53-.41-.15-.86-.29-1.34-.44-.48-.14-.93-.34-1.34-.59-.41-.25-.76-.57-1.03-.97-.27-.4-.41-.93-.41-1.59s.13-1.19.38-1.68c.25-.48.59-.88,1.01-1.21.42-.32.9-.57,1.45-.73.55-.16,1.11-.24,1.69-.24.67,0,1.32.1,1.94.28.62.19,1.19.51,1.69.95l-1.79,1.96Z"/>
    <path class="cls-1" d="M43.9,2.98c0-.4.14-.75.43-1.03.29-.28.63-.43,1.03-.43s.75.14,1.03.43c.29.29.43.63.43,1.03s-.14.75-.43,1.03c-.28.28-.63.43-1.03.43s-.74-.14-1.03-.43c-.28-.29-.43-.63-.43-1.03M44.1,5.55h2.51v8.14h-2.51V5.55Z"/>
    <path class="cls-1" d="M47.76,5.55h2.41v1.11h.03c.08-.16.19-.31.33-.47.14-.16.32-.3.52-.42.2-.12.43-.22.69-.3.26-.08.54-.12.84-.12.57,0,1.07.12,1.52.35.44.24.77.6,1,1.11.29-.53.64-.9,1.06-1.12.41-.22.92-.33,1.52-.33.55,0,1.01.09,1.38.28.37.18.67.44.89.75.22.32.37.69.47,1.12.1.43.14.89.14,1.38v4.81h-2.51v-4.74c0-.38-.08-.71-.24-.98-.16-.27-.45-.41-.86-.41-.29,0-.53.05-.73.14-.2.1-.35.23-.47.39-.12.17-.2.36-.25.59-.05.22-.08.46-.08.7v4.3h-2.51v-4.3c0-.14,0-.32-.01-.54-.01-.21-.05-.41-.12-.6-.07-.19-.17-.35-.33-.49-.15-.13-.37-.2-.66-.2-.32,0-.59.06-.79.18-.2.12-.35.27-.46.47-.11.19-.18.42-.21.66-.03.25-.05.5-.05.77v4.05h-2.51V5.55Z"/>
    <path class="cls-1" d="M61.56,5.55h2.31v1.07h.03c.1-.15.23-.29.39-.44.16-.15.35-.29.57-.41.22-.12.46-.22.71-.3.26-.08.53-.12.82-.12.6,0,1.15.1,1.64.31.49.21.91.5,1.26.87.35.37.62.82.81,1.33.19.51.29,1.08.29,1.69,0,.57-.09,1.11-.26,1.63-.17.52-.42.98-.74,1.38-.32.4-.71.72-1.16.96-.46.24-.98.36-1.56.36-.52,0-1.01-.08-1.47-.24-.45-.16-.82-.44-1.11-.83h-.03v4.69h-2.51V5.55ZM63.87,9.62c0,.62.18,1.11.53,1.49.35.38.85.57,1.48.57s1.13-.19,1.48-.57c.35-.38.53-.88.53-1.49s-.18-1.11-.53-1.49c-.35-.38-.85-.57-1.48-.57s-1.13.19-1.48.57c-.35.38-.53.88-.53,1.49"/>
  </g>
  <rect class="cls-1" x="71.24" y="1.02" width="2.51" height="12.66"/>
  <path class="cls-1" d="M82.6,12.28c-.4.51-.91.91-1.52,1.19-.61.28-1.25.42-1.91.42-.62,0-1.21-.1-1.77-.3-.55-.2-1.03-.49-1.44-.86-.41-.37-.73-.82-.96-1.35-.23-.52-.35-1.11-.35-1.76s.12-1.23.35-1.76c.23-.52.56-.97.96-1.35.41-.38.89-.66,1.44-.86.55-.2,1.14-.3,1.77-.3.58,0,1.11.1,1.58.3.47.2.88.49,1.21.86.33.37.58.82.76,1.35.18.53.27,1.11.27,1.76v.79h-5.83c.1.48.32.86.65,1.15.34.29.75.43,1.24.43.41,0,.76-.09,1.05-.28.28-.18.53-.42.74-.71l1.76,1.29ZM80.47,8.69c.01-.42-.13-.79-.42-1.09-.29-.3-.66-.45-1.12-.45-.28,0-.52.04-.74.13-.21.09-.39.2-.54.34-.15.14-.27.3-.35.49-.08.18-.13.38-.14.58h3.32Z"/>
  <polygon class="cls-1" points="83.59 3.09 83.59 1.47 82.98 1.47 82.98 1.02 84.72 1.02 84.72 1.47 84.1 1.47 84.1 3.09 83.59 3.09"/>
  <path class="cls-1" d="M85.08,3.09V1.02h.45l.75,1.22h-.32s.76-1.22.76-1.22h.43v2.06h-.48v-.64c0-.18,0-.34.01-.48,0-.14.02-.28.05-.42l.06.15-.57.89h-.19l-.56-.88.06-.16c.02.13.04.27.04.41,0,.14.01.3.01.49v.64h-.49Z"/>
  <g>
    <path class="cls-1" d="M.72,35.22h1.57c.22,0,.43.02.62.06s.37.11.51.21c.15.1.26.23.35.39.09.17.13.37.13.62s-.04.45-.12.62-.19.3-.33.4c-.14.1-.31.17-.5.21-.19.04-.4.06-.62.06h-.68v1.65h-.93v-4.23ZM1.65,37.01h.62c.08,0,.16,0,.24-.02.08-.02.15-.04.21-.08.06-.04.11-.09.15-.16.04-.07.06-.15.06-.25,0-.11-.02-.19-.07-.26-.05-.07-.11-.12-.19-.15s-.16-.06-.26-.07c-.1,0-.19-.01-.27-.01h-.48v1Z"/>
    <path class="cls-1" d="M4.37,36.54h.9v.47h.01c.1-.18.21-.31.34-.4.13-.09.3-.13.5-.13.05,0,.1,0,.16,0,.05,0,.1.01.14.02v.82c-.06-.02-.13-.04-.19-.04-.06,0-.13-.01-.19-.01-.17,0-.31.02-.41.07s-.18.12-.23.2c-.05.09-.09.19-.1.31-.02.12-.02.25-.02.39v1.21h-.9v-2.91Z"/>
    <path class="cls-1" d="M6.59,38c0-.23.04-.44.13-.63.08-.19.2-.35.34-.48.15-.13.32-.24.51-.31.2-.07.41-.11.63-.11s.43.04.63.11c.2.07.37.17.51.31.15.13.26.29.34.48.08.19.13.4.13.63s-.04.44-.13.63c-.08.19-.2.35-.34.48s-.32.24-.51.31c-.2.07-.41.11-.63.11s-.43-.04-.63-.11c-.2-.07-.37-.17-.51-.31s-.26-.29-.34-.48c-.08-.19-.13-.4-.13-.63ZM7.49,38c0,.22.06.4.19.53.13.14.3.2.53.2s.4-.07.53-.2c.13-.13.19-.31.19-.53s-.06-.4-.19-.53-.3-.2-.53-.2-.4.07-.53.2-.19.31-.19.53Z"/>
    <path class="cls-1" d="M10.43,36.54h.82v.38h.01c.04-.05.08-.1.14-.16.06-.05.13-.1.2-.15s.16-.08.25-.11c.09-.03.19-.04.29-.04.22,0,.41.04.59.11.18.07.33.18.45.31.13.13.22.29.29.48.07.18.1.38.1.6,0,.2-.03.4-.09.58-.06.19-.15.35-.26.49-.11.14-.25.26-.42.34-.16.09-.35.13-.56.13-.19,0-.36-.03-.52-.09-.16-.06-.29-.16-.4-.3h-.01v1.67h-.9v-4.27ZM11.25,38c0,.22.06.4.19.53.13.14.3.2.53.2s.4-.07.53-.2c.13-.13.19-.31.19-.53s-.06-.4-.19-.53-.3-.2-.53-.2-.4.07-.53.2-.19.31-.19.53Z"/>
    <path class="cls-1" d="M16.86,38.95c-.14.18-.32.32-.54.42s-.45.15-.68.15c-.22,0-.43-.04-.63-.11-.2-.07-.37-.17-.51-.31s-.26-.29-.34-.48c-.08-.19-.13-.4-.13-.63s.04-.44.13-.63c.08-.19.2-.35.34-.48.15-.13.32-.24.51-.31.2-.07.41-.11.63-.11.21,0,.4.04.56.11.17.07.31.17.43.31.12.13.21.29.27.48.06.19.1.4.1.63v.28h-2.08c.04.17.11.31.23.41s.27.15.44.15c.15,0,.27-.03.37-.1.1-.07.19-.15.27-.25l.63.46ZM16.1,37.67c0-.15-.05-.28-.15-.39s-.24-.16-.4-.16c-.1,0-.19.02-.26.05s-.14.07-.19.12c-.05.05-.1.11-.13.17-.03.07-.05.13-.05.21h1.18Z"/>
    <path class="cls-1" d="M17.54,36.54h.9v.47h.01c.1-.18.21-.31.34-.4.13-.09.3-.13.5-.13.05,0,.1,0,.16,0,.05,0,.1.01.14.02v.82c-.06-.02-.13-.04-.19-.04-.06,0-.13-.01-.19-.01-.17,0-.31.02-.41.07s-.18.12-.23.2c-.05.09-.09.19-.1.31-.02.12-.02.25-.02.39v1.21h-.9v-2.91Z"/>
    <path class="cls-1" d="M21.95,37.26h-.79v.97c0,.08,0,.15.01.22,0,.07.03.12.05.17s.07.08.13.11c.06.03.13.04.23.04.05,0,.11,0,.19-.01.08,0,.14-.03.18-.07v.75c-.1.04-.2.06-.31.07s-.21.02-.32.02c-.15,0-.29-.02-.42-.05-.13-.03-.24-.08-.33-.15-.1-.07-.17-.16-.22-.27s-.08-.25-.08-.41v-1.38h-.57v-.72h.57v-.86h.9v.86h.79v.72Z"/>
    <path class="cls-1" d="M24.08,39.92c-.06.16-.12.29-.17.41-.06.12-.13.22-.21.3-.09.08-.19.14-.33.19-.13.04-.31.06-.52.06-.23,0-.45-.04-.67-.11l.12-.74c.14.06.28.09.42.09.1,0,.18-.01.25-.03.06-.02.12-.05.16-.1.04-.04.08-.09.1-.15s.06-.13.09-.21l.07-.17-1.27-2.93h.97l.75,1.92h.01l.64-1.92h.92l-1.31,3.38Z"/>
    <path class="cls-1" d="M27.61,35.22h1.41l.97,2.76h.01l.98-2.76h1.4v4.23h-.93v-3.25h-.01l-1.11,3.25h-.71l-1.07-3.25h-.01v3.25h-.93v-4.23Z"/>
    <path class="cls-1" d="M34.97,39.08h-.01c-.1.16-.23.27-.4.33-.17.07-.34.1-.52.1-.14,0-.27-.02-.39-.06-.13-.04-.24-.09-.33-.17-.1-.08-.17-.17-.23-.28-.06-.11-.08-.24-.08-.39,0-.17.03-.31.09-.42.06-.12.15-.21.25-.29.11-.08.23-.13.36-.18.14-.04.28-.07.42-.09.15-.02.29-.03.44-.04s.28,0,.4,0c0-.16-.06-.29-.17-.38-.11-.09-.25-.14-.4-.14s-.28.03-.4.09-.23.15-.33.25l-.48-.49c.17-.16.36-.27.59-.35.22-.08.45-.12.69-.12.26,0,.48.03.65.1s.31.16.41.29c.1.13.17.28.21.47.04.19.06.4.06.64v1.48h-.83v-.36ZM34.74,38.17c-.07,0-.15,0-.25,0-.1,0-.2.02-.29.05-.09.03-.17.07-.24.12-.07.06-.1.13-.1.23,0,.11.05.19.14.24s.19.08.29.08c.09,0,.17-.01.25-.04.08-.02.15-.06.22-.1.06-.04.11-.1.15-.17s.06-.15.06-.24v-.19h-.22Z"/>
    <path class="cls-1" d="M36.35,36.54h.86v.39h.01c.03-.06.07-.11.12-.17s.11-.11.19-.15.15-.08.25-.11c.09-.03.19-.04.3-.04.23,0,.41.04.55.1.14.07.25.17.33.29.08.12.13.27.16.44.03.17.04.35.04.54v1.6h-.9v-1.42c0-.08,0-.17,0-.26s-.02-.17-.05-.25c-.03-.08-.08-.14-.14-.19-.06-.05-.15-.07-.27-.07s-.21.02-.28.06-.13.1-.16.17c-.04.07-.06.15-.07.24-.01.09-.02.18-.02.28v1.45h-.9v-2.91Z"/>
    <path class="cls-1" d="M41.61,39.08h-.01c-.1.16-.23.27-.4.33-.17.07-.34.1-.52.1-.14,0-.27-.02-.39-.06-.13-.04-.24-.09-.33-.17-.1-.08-.17-.17-.23-.28-.06-.11-.08-.24-.08-.39,0-.17.03-.31.09-.42.06-.12.15-.21.25-.29.11-.08.23-.13.36-.18.14-.04.28-.07.42-.09.15-.02.29-.03.44-.04s.28,0,.4,0c0-.16-.06-.29-.17-.38-.11-.09-.25-.14-.4-.14s-.28.03-.4.09-.23.15-.33.25l-.48-.49c.17-.16.36-.27.59-.35.22-.08.45-.12.69-.12.26,0,.48.03.65.1s.31.16.41.29c.1.13.17.28.21.47.04.19.06.4.06.64v1.48h-.83v-.36ZM41.38,38.17c-.07,0-.15,0-.25,0-.1,0-.2.02-.29.05-.09.03-.17.07-.24.12-.07.06-.1.13-.1.23,0,.11.05.19.14.24s.19.08.29.08c.09,0,.17-.01.25-.04.08-.02.15-.06.22-.1.06-.04.11-.1.15-.17s.06-.15.06-.24v-.19h-.22Z"/>
    <path class="cls-1" d="M46.04,39.2c0,.55-.14.97-.42,1.25-.28.29-.7.43-1.26.43-.26,0-.51-.03-.77-.09s-.48-.17-.69-.34l.5-.74c.14.12.29.21.44.28s.32.1.5.1c.27,0,.48-.07.61-.2s.19-.3.19-.51v-.28h-.01c-.1.14-.23.24-.39.3-.15.06-.3.09-.43.09-.22,0-.41-.04-.59-.11-.18-.07-.33-.18-.45-.31-.13-.13-.22-.29-.29-.47-.07-.18-.1-.38-.1-.6,0-.19.03-.38.09-.56.06-.18.15-.34.26-.48.11-.14.25-.25.42-.34.16-.09.35-.13.56-.13.13,0,.24.01.35.04.11.03.2.06.28.11.08.04.16.09.21.15.06.05.11.11.14.16h.01v-.38h.82v2.66ZM43.78,37.98c0,.1.02.19.05.27.04.09.09.16.15.23.07.07.14.12.23.16.09.04.18.06.28.06s.19-.02.28-.06c.09-.04.16-.09.23-.16.07-.07.12-.14.15-.23.04-.09.05-.18.05-.27s-.02-.19-.05-.27c-.04-.09-.09-.16-.15-.23-.07-.07-.14-.12-.23-.16-.09-.04-.18-.06-.28-.06-.1,0-.2.02-.28.06-.09.04-.16.09-.23.16-.07.07-.12.14-.15.23-.04.09-.05.18-.05.27Z"/>
    <path class="cls-1" d="M49.51,38.95c-.14.18-.32.32-.54.42s-.45.15-.68.15c-.22,0-.43-.04-.63-.11-.2-.07-.37-.17-.51-.31s-.26-.29-.34-.48c-.08-.19-.13-.4-.13-.63s.04-.44.13-.63c.08-.19.2-.35.34-.48.15-.13.32-.24.51-.31.2-.07.41-.11.63-.11.21,0,.4.04.56.11.17.07.31.17.43.31.12.13.21.29.27.48.06.19.1.4.1.63v.28h-2.08c.04.17.11.31.23.41s.27.15.44.15c.15,0,.27-.03.37-.1.1-.07.19-.15.27-.25l.63.46ZM48.75,37.67c0-.15-.05-.28-.15-.39s-.24-.16-.4-.16c-.1,0-.19.02-.26.05s-.14.07-.19.12c-.05.05-.1.11-.13.17-.03.07-.05.13-.05.21h1.18Z"/>
    <path class="cls-1" d="M50.19,36.54h.86v.39h.01c.03-.06.07-.11.12-.17s.11-.11.19-.15.15-.08.25-.11c.09-.03.19-.04.3-.04.2,0,.38.04.54.12.16.08.28.22.36.39.1-.19.23-.32.38-.4.15-.08.33-.12.54-.12.19,0,.36.03.49.1.13.07.24.16.32.27.08.11.13.25.17.4.03.15.05.32.05.49v1.72h-.9v-1.69c0-.14-.03-.25-.09-.35-.06-.1-.16-.15-.31-.15-.1,0-.19.02-.26.05-.07.03-.13.08-.17.14-.04.06-.07.13-.09.21s-.03.16-.03.25v1.54h-.9v-1.54c0-.05,0-.12,0-.19,0-.08-.02-.15-.04-.21-.02-.07-.06-.13-.12-.17s-.13-.07-.24-.07c-.12,0-.21.02-.28.06s-.13.1-.16.17c-.04.07-.06.15-.07.24-.01.09-.02.18-.02.28v1.45h-.9v-2.91Z"/>
    <path class="cls-1" d="M58.14,38.95c-.14.18-.32.32-.54.42s-.45.15-.68.15c-.22,0-.43-.04-.63-.11-.2-.07-.37-.17-.51-.31s-.26-.29-.34-.48c-.08-.19-.13-.4-.13-.63s.04-.44.13-.63c.08-.19.2-.35.34-.48.15-.13.32-.24.51-.31.2-.07.41-.11.63-.11.21,0,.4.04.56.11.17.07.31.17.43.31.12.13.21.29.27.48.06.19.1.4.1.63v.28h-2.08c.04.17.11.31.23.41s.27.15.44.15c.15,0,.27-.03.37-.1.1-.07.19-.15.27-.25l.63.46ZM57.38,37.67c0-.15-.05-.28-.15-.39s-.24-.16-.4-.16c-.1,0-.19.02-.26.05s-.14.07-.19.12c-.05.05-.1.11-.13.17-.03.07-.05.13-.05.21h1.18Z"/>
    <path class="cls-1" d="M58.82,36.54h.86v.39h.01c.03-.06.07-.11.12-.17s.11-.11.19-.15.15-.08.25-.11c.09-.03.19-.04.3-.04.23,0,.41.04.55.1.14.07.25.17.33.29.08.12.13.27.16.44.03.17.04.35.04.54v1.6h-.9v-1.42c0-.08,0-.17,0-.26s-.02-.17-.05-.25c-.03-.08-.08-.14-.14-.19-.06-.05-.15-.07-.27-.07s-.21.02-.28.06-.13.1-.16.17c-.04.07-.06.15-.07.24-.01.09-.02.18-.02.28v1.45h-.9v-2.91Z"/>
    <path class="cls-1" d="M64.23,37.26h-.79v.97c0,.08,0,.15.01.22,0,.07.03.12.05.17s.07.08.13.11c.06.03.13.04.23.04.05,0,.11,0,.19-.01.08,0,.14-.03.18-.07v.75c-.1.04-.2.06-.31.07s-.21.02-.32.02c-.15,0-.29-.02-.42-.05-.13-.03-.24-.08-.33-.15-.1-.07-.17-.16-.22-.27s-.08-.25-.08-.41v-1.38h-.57v-.72h.57v-.86h.9v.86h.79v.72Z"/>
    <path class="cls-1" d="M67.18,34.97v5.98h-.75v-5.98h.75Z"/>
    <path class="cls-1" d="M70.48,36.04h-1.21v-.82h3.35v.82h-1.21v3.41h-.93v-3.41Z"/>
    <path class="cls-1" d="M75.07,38.95c-.14.18-.32.32-.54.42s-.45.15-.68.15c-.22,0-.43-.04-.63-.11-.2-.07-.37-.17-.51-.31s-.26-.29-.34-.48c-.08-.19-.13-.4-.13-.63s.04-.44.13-.63c.08-.19.2-.35.34-.48.15-.13.32-.24.51-.31.2-.07.41-.11.63-.11.21,0,.4.04.56.11.17.07.31.17.43.31.12.13.21.29.27.48.06.19.1.4.1.63v.28h-2.08c.04.17.11.31.23.41s.27.15.44.15c.15,0,.27-.03.37-.1.1-.07.19-.15.27-.25l.63.46ZM74.31,37.67c0-.15-.05-.28-.15-.39s-.24-.16-.4-.16c-.1,0-.19.02-.26.05s-.14.07-.19.12c-.05.05-.1.11-.13.17-.03.07-.05.13-.05.21h1.18Z"/>
    <path class="cls-1" d="M75.75,36.54h.86v.39h.01c.03-.06.07-.11.12-.17s.11-.11.19-.15.15-.08.25-.11c.09-.03.19-.04.3-.04.23,0,.41.04.55.1.14.07.25.17.33.29.08.12.13.27.16.44.03.17.04.35.04.54v1.6h-.9v-1.42c0-.08,0-.17,0-.26s-.02-.17-.05-.25c-.03-.08-.08-.14-.14-.19-.06-.05-.15-.07-.27-.07s-.21.02-.28.06-.13.1-.16.17c-.04.07-.06.15-.07.24-.01.09-.02.18-.02.28v1.45h-.9v-2.91Z"/>
    <path class="cls-1" d="M81.01,39.08h-.01c-.1.16-.23.27-.4.33-.17.07-.34.1-.52.1-.14,0-.27-.02-.39-.06-.13-.04-.24-.09-.33-.17-.1-.08-.17-.17-.23-.28-.06-.11-.08-.24-.08-.39,0-.17.03-.31.09-.42.06-.12.15-.21.25-.29.11-.08.23-.13.36-.18.14-.04.28-.07.42-.09.15-.02.29-.03.44-.04s.28,0,.4,0c0-.16-.06-.29-.17-.38-.11-.09-.25-.14-.4-.14s-.28.03-.4.09-.23.15-.33.25l-.48-.49c.17-.16.36-.27.59-.35.22-.08.45-.12.69-.12.26,0,.48.03.65.1s.31.16.41.29c.1.13.17.28.21.47.04.19.06.4.06.64v1.48h-.83v-.36ZM80.79,38.17c-.07,0-.15,0-.25,0-.1,0-.2.02-.29.05-.09.03-.17.07-.24.12-.07.06-.1.13-.1.23,0,.11.05.19.14.24s.19.08.29.08c.09,0,.17-.01.25-.04.08-.02.15-.06.22-.1.06-.04.11-.1.15-.17s.06-.15.06-.24v-.19h-.22Z"/>
    <path class="cls-1" d="M82.39,36.54h.86v.39h.01c.03-.06.07-.11.12-.17s.11-.11.19-.15.15-.08.25-.11c.09-.03.19-.04.3-.04.23,0,.41.04.55.1.14.07.25.17.33.29.08.12.13.27.16.44.03.17.04.35.04.54v1.6h-.9v-1.42c0-.08,0-.17,0-.26s-.02-.17-.05-.25c-.03-.08-.08-.14-.14-.19-.06-.05-.15-.07-.27-.07s-.21.02-.28.06-.13.1-.16.17c-.04.07-.06.15-.07.24-.01.09-.02.18-.02.28v1.45h-.9v-2.91Z"/>
    <path class="cls-1" d="M87.8,37.26h-.79v.97c0,.08,0,.15.01.22,0,.07.03.12.05.17s.07.08.13.11c.06.03.13.04.23.04.05,0,.11,0,.19-.01.08,0,.14-.03.18-.07v.75c-.1.04-.2.06-.31.07s-.21.02-.32.02c-.15,0-.29-.02-.42-.05-.13-.03-.24-.08-.33-.15-.1-.07-.17-.16-.22-.27s-.08-.25-.08-.41v-1.38h-.57v-.72h.57v-.86h.9v.86h.79v.72Z"/>
    <path class="cls-1" d="M90.14,35.22h1.64c.22,0,.42.02.61.06s.36.11.51.21.26.23.35.39c.09.17.13.37.13.62,0,.3-.08.55-.23.76-.16.21-.38.34-.68.4l1.08,1.79h-1.12l-.88-1.69h-.46v1.69h-.93v-4.23ZM91.07,36.97h.55c.08,0,.17,0,.27,0s.18-.02.25-.05c.08-.03.14-.08.19-.14s.07-.15.07-.27c0-.11-.02-.19-.07-.26-.04-.06-.1-.11-.17-.15-.07-.03-.15-.06-.23-.07-.09-.01-.17-.02-.26-.02h-.61v.96Z"/>
    <path class="cls-1" d="M96.65,38.95c-.14.18-.32.32-.54.42s-.45.15-.68.15c-.22,0-.43-.04-.63-.11-.2-.07-.37-.17-.51-.31s-.26-.29-.34-.48c-.08-.19-.13-.4-.13-.63s.04-.44.13-.63c.08-.19.2-.35.34-.48.15-.13.32-.24.51-.31.2-.07.41-.11.63-.11.21,0,.4.04.56.11.17.07.31.17.43.31.12.13.21.29.27.48.06.19.1.4.1.63v.28h-2.08c.04.17.11.31.23.41s.27.15.44.15c.15,0,.27-.03.37-.1.1-.07.19-.15.27-.25l.63.46ZM95.89,37.67c0-.15-.05-.28-.15-.39s-.24-.16-.4-.16c-.1,0-.19.02-.26.05s-.14.07-.19.12c-.05.05-.1.11-.13.17-.03.07-.05.13-.05.21h1.18Z"/>
    <path class="cls-1" d="M97.34,34.93h.9v4.52h-.9v-4.52Z"/>
    <path class="cls-1" d="M100.71,39.08h-.01c-.1.16-.23.27-.4.33-.17.07-.34.1-.52.1-.14,0-.27-.02-.39-.06-.13-.04-.24-.09-.33-.17-.1-.08-.17-.17-.23-.28-.06-.11-.08-.24-.08-.39,0-.17.03-.31.09-.42.06-.12.15-.21.25-.29.11-.08.23-.13.36-.18.14-.04.28-.07.42-.09.15-.02.29-.03.44-.04s.28,0,.4,0c0-.16-.06-.29-.17-.38-.11-.09-.25-.14-.4-.14s-.28.03-.4.09-.23.15-.33.25l-.48-.49c.17-.16.36-.27.59-.35.22-.08.45-.12.69-.12.26,0,.48.03.65.1s.31.16.41.29c.1.13.17.28.21.47.04.19.06.4.06.64v1.48h-.83v-.36ZM100.49,38.17c-.07,0-.15,0-.25,0-.1,0-.2.02-.29.05-.09.03-.17.07-.24.12-.07.06-.1.13-.1.23,0,.11.05.19.14.24s.19.08.29.08c.09,0,.17-.01.25-.04.08-.02.15-.06.22-.1.06-.04.11-.1.15-.17s.06-.15.06-.24v-.19h-.22Z"/>
    <path class="cls-1" d="M104.07,37.26h-.79v.97c0,.08,0,.15.01.22,0,.07.03.12.05.17s.07.08.13.11c.06.03.13.04.23.04.05,0,.11,0,.19-.01.08,0,.14-.03.18-.07v.75c-.1.04-.2.06-.31.07s-.21.02-.32.02c-.15,0-.29-.02-.42-.05-.13-.03-.24-.08-.33-.15-.1-.07-.17-.16-.22-.27s-.08-.25-.08-.41v-1.38h-.57v-.72h.57v-.86h.9v.86h.79v.72Z"/>
    <path class="cls-1" d="M104.47,35.63c0-.14.05-.27.15-.37.1-.1.22-.15.37-.15s.27.05.37.15c.1.1.15.22.15.37s-.05.27-.15.37-.22.15-.37.15-.27-.05-.37-.15c-.1-.1-.15-.22-.15-.37ZM104.54,36.54h.9v2.91h-.9v-2.91Z"/>
    <path class="cls-1" d="M105.97,38c0-.23.04-.44.13-.63.08-.19.2-.35.34-.48.15-.13.32-.24.51-.31.2-.07.41-.11.63-.11s.43.04.63.11c.2.07.37.17.51.31.15.13.26.29.34.48.08.19.13.4.13.63s-.04.44-.13.63c-.08.19-.2.35-.34.48s-.32.24-.51.31c-.2.07-.41.11-.63.11s-.43-.04-.63-.11c-.2-.07-.37-.17-.51-.31s-.26-.29-.34-.48c-.08-.19-.13-.4-.13-.63ZM106.87,38c0,.22.06.4.19.53.13.14.3.2.53.2s.4-.07.53-.2c.13-.13.19-.31.19-.53s-.06-.4-.19-.53-.3-.2-.53-.2-.4.07-.53.2-.19.31-.19.53Z"/>
    <path class="cls-1" d="M109.73,36.54h.86v.39h.01c.03-.06.07-.11.12-.17s.11-.11.19-.15.15-.08.25-.11c.09-.03.19-.04.3-.04.23,0,.41.04.55.1.14.07.25.17.33.29.08.12.13.27.16.44.03.17.04.35.04.54v1.6h-.9v-1.42c0-.08,0-.17,0-.26s-.02-.17-.05-.25c-.03-.08-.08-.14-.14-.19-.06-.05-.15-.07-.27-.07s-.21.02-.28.06-.13.1-.16.17c-.04.07-.06.15-.07.24-.01.09-.02.18-.02.28v1.45h-.9v-2.91Z"/>
    <path class="cls-1" d="M114.8,37.4c-.13-.16-.3-.25-.52-.25-.08,0-.15.02-.22.05-.07.04-.11.1-.11.18,0,.07.04.12.11.16.07.03.17.06.28.09.11.03.23.05.36.08.13.03.25.08.36.14.11.06.21.15.28.26.07.11.11.26.11.44s-.04.34-.12.46c-.08.12-.19.22-.31.29-.13.07-.27.13-.43.16-.16.03-.32.04-.47.04-.2,0-.41-.03-.62-.09s-.38-.16-.53-.31l.54-.6c.08.1.18.18.28.24s.22.08.36.08c.1,0,.2-.02.28-.04.08-.03.13-.08.13-.17,0-.08-.04-.13-.11-.17s-.17-.07-.28-.1c-.11-.03-.24-.05-.36-.08-.13-.03-.25-.07-.36-.13-.11-.06-.21-.14-.28-.25-.07-.11-.11-.26-.11-.44,0-.17.03-.32.1-.44.07-.12.16-.23.27-.3.11-.08.24-.14.39-.18s.3-.06.45-.06c.19,0,.38.03.58.08s.36.16.5.3l-.55.54Z"/>
    <path class="cls-1" d="M118.42,34.97v5.98h-.75v-5.98h.75Z"/>
  </g>
  <g>
    <path class="cls-1" d="M.75,42.39h2.84v.86h-1.91v.86h1.76v.86h-1.76v1.65h-.93v-4.23Z"/>
    <path class="cls-1" d="M4.09,42.8c0-.14.05-.27.15-.37.1-.1.22-.15.37-.15s.27.05.37.15c.1.1.15.22.15.37s-.05.27-.15.37-.22.15-.37.15-.27-.05-.37-.15c-.1-.1-.15-.22-.15-.37ZM4.16,43.72h.9v2.91h-.9v-2.91Z"/>
    <path class="cls-1" d="M5.7,43.72h.86v.39h.01c.03-.06.07-.11.12-.17s.11-.11.19-.15.15-.08.25-.11c.09-.03.19-.04.3-.04.23,0,.41.04.55.1.14.07.25.17.33.29.08.12.13.27.16.44.03.17.04.35.04.54v1.6h-.9v-1.42c0-.08,0-.17,0-.26s-.02-.17-.05-.25c-.03-.08-.08-.14-.14-.19-.06-.05-.15-.07-.27-.07s-.21.02-.28.06-.13.1-.16.17c-.04.07-.06.15-.07.24-.01.09-.02.18-.02.28v1.45h-.9v-2.91Z"/>
    <path class="cls-1" d="M10.96,46.26h-.01c-.1.16-.23.27-.4.33-.17.07-.34.1-.52.1-.14,0-.27-.02-.39-.06-.13-.04-.24-.09-.33-.17-.1-.08-.17-.17-.23-.28-.06-.11-.08-.24-.08-.39,0-.17.03-.31.09-.42.06-.12.15-.21.25-.29.11-.08.23-.13.36-.18.14-.04.28-.07.42-.09.15-.02.29-.03.44-.04s.28,0,.4,0c0-.16-.06-.29-.17-.38-.11-.09-.25-.14-.4-.14s-.28.03-.4.09-.23.15-.33.25l-.48-.49c.17-.16.36-.27.59-.35.22-.08.45-.12.69-.12.26,0,.48.03.65.1s.31.16.41.29c.1.13.17.28.21.47.04.19.06.4.06.64v1.48h-.83v-.36ZM10.73,45.35c-.07,0-.15,0-.25,0-.1,0-.2.02-.29.05-.09.03-.17.07-.24.12-.07.06-.1.13-.1.23,0,.11.05.19.14.24s.19.08.29.08c.09,0,.17-.01.25-.04.08-.02.15-.06.22-.1.06-.04.11-.1.15-.17s.06-.15.06-.24v-.19h-.22Z"/>
    <path class="cls-1" d="M12.34,43.72h.86v.39h.01c.03-.06.07-.11.12-.17s.11-.11.19-.15.15-.08.25-.11c.09-.03.19-.04.3-.04.23,0,.41.04.55.1.14.07.25.17.33.29.08.12.13.27.16.44.03.17.04.35.04.54v1.6h-.9v-1.42c0-.08,0-.17,0-.26s-.02-.17-.05-.25c-.03-.08-.08-.14-.14-.19-.06-.05-.15-.07-.27-.07s-.21.02-.28.06-.13.1-.16.17c-.04.07-.06.15-.07.24-.01.09-.02.18-.02.28v1.45h-.9v-2.91Z"/>
    <path class="cls-1" d="M17.74,44.65c-.04-.06-.11-.12-.19-.16-.08-.04-.17-.06-.26-.06-.23,0-.4.07-.53.2s-.19.31-.19.53.06.4.19.53c.13.14.3.2.53.2.1,0,.19-.02.26-.07s.13-.1.19-.16l.59.62c-.14.14-.3.24-.49.3s-.37.09-.54.09c-.22,0-.43-.04-.63-.11-.2-.07-.37-.17-.51-.31s-.26-.29-.34-.48c-.08-.19-.13-.4-.13-.63s.04-.44.13-.63c.08-.19.2-.35.34-.48.15-.13.32-.24.51-.31.2-.07.41-.11.63-.11.17,0,.35.03.54.09s.35.16.49.3l-.59.62Z"/>
    <path class="cls-1" d="M18.59,42.8c0-.14.05-.27.15-.37.1-.1.22-.15.37-.15s.27.05.37.15c.1.1.15.22.15.37s-.05.27-.15.37-.22.15-.37.15-.27-.05-.37-.15c-.1-.1-.15-.22-.15-.37ZM18.67,43.72h.9v2.91h-.9v-2.91Z"/>
    <path class="cls-1" d="M22.03,46.26h-.01c-.1.16-.23.27-.4.33-.17.07-.34.1-.52.1-.14,0-.27-.02-.39-.06-.13-.04-.24-.09-.33-.17-.1-.08-.17-.17-.23-.28-.06-.11-.08-.24-.08-.39,0-.17.03-.31.09-.42.06-.12.15-.21.25-.29.11-.08.23-.13.36-.18.14-.04.28-.07.42-.09.15-.02.29-.03.44-.04s.28,0,.4,0c0-.16-.06-.29-.17-.38-.11-.09-.25-.14-.4-.14s-.28.03-.4.09-.23.15-.33.25l-.48-.49c.17-.16.36-.27.59-.35.22-.08.45-.12.69-.12.26,0,.48.03.65.1s.31.16.41.29c.1.13.17.28.21.47.04.19.06.4.06.64v1.48h-.83v-.36ZM21.81,45.35c-.07,0-.15,0-.25,0-.1,0-.2.02-.29.05-.09.03-.17.07-.24.12-.07.06-.1.13-.1.23,0,.11.05.19.14.24s.19.08.29.08c.09,0,.17-.01.25-.04.08-.02.15-.06.22-.1.06-.04.11-.1.15-.17s.06-.15.06-.24v-.19h-.22Z"/>
    <path class="cls-1" d="M23.43,42.1h.9v4.52h-.9v-4.52Z"/>
    <path class="cls-1" d="M26.85,42.39h1.64c.22,0,.42.02.61.06s.36.11.51.21.26.23.35.39c.09.17.13.37.13.62,0,.3-.08.55-.23.76-.16.21-.38.34-.68.4l1.08,1.79h-1.12l-.88-1.69h-.46v1.69h-.93v-4.23ZM27.79,44.14h.55c.08,0,.17,0,.27,0s.18-.02.25-.05c.08-.03.14-.08.19-.14s.07-.15.07-.27c0-.11-.02-.19-.07-.26-.04-.06-.1-.11-.17-.15-.07-.03-.15-.06-.23-.07-.09-.01-.17-.02-.26-.02h-.61v.96Z"/>
    <path class="cls-1" d="M33.36,46.12c-.14.18-.32.32-.54.42s-.45.15-.68.15c-.22,0-.43-.04-.63-.11-.2-.07-.37-.17-.51-.31s-.26-.29-.34-.48c-.08-.19-.13-.4-.13-.63s.04-.44.13-.63c.08-.19.2-.35.34-.48.15-.13.32-.24.51-.31.2-.07.41-.11.63-.11.21,0,.4.04.56.11.17.07.31.17.43.31.12.13.21.29.27.48.06.19.1.4.1.63v.28h-2.08c.04.17.11.31.23.41s.27.15.44.15c.15,0,.27-.03.37-.1.1-.07.19-.15.27-.25l.63.46ZM32.6,44.84c0-.15-.05-.28-.15-.39s-.24-.16-.4-.16c-.1,0-.19.02-.26.05s-.14.07-.19.12c-.05.05-.1.11-.13.17-.03.07-.05.13-.05.21h1.18Z"/>
    <path class="cls-1" d="M34.13,43.72h.82v.38h.01c.04-.05.08-.1.14-.16.06-.05.13-.1.2-.15s.16-.08.25-.11c.09-.03.19-.04.29-.04.22,0,.41.04.59.11.18.07.33.18.45.31.13.13.22.29.29.48.07.18.1.38.1.6,0,.2-.03.4-.09.58-.06.19-.15.35-.26.49-.11.14-.25.26-.42.34-.16.09-.35.13-.56.13-.19,0-.36-.03-.52-.09-.16-.06-.29-.16-.4-.3h-.01v1.67h-.9v-4.27ZM34.95,45.17c0,.22.06.4.19.53.13.14.3.2.53.2s.4-.07.53-.2c.13-.13.19-.31.19-.53s-.06-.4-.19-.53-.3-.2-.53-.2-.4.07-.53.2-.19.31-.19.53Z"/>
    <path class="cls-1" d="M37.7,45.17c0-.23.04-.44.13-.63.08-.19.2-.35.34-.48.15-.13.32-.24.51-.31.2-.07.41-.11.63-.11s.43.04.63.11c.2.07.37.17.51.31.15.13.26.29.34.48.08.19.13.4.13.63s-.04.44-.13.63c-.08.19-.2.35-.34.48s-.32.24-.51.31c-.2.07-.41.11-.63.11s-.43-.04-.63-.11c-.2-.07-.37-.17-.51-.31s-.26-.29-.34-.48c-.08-.19-.13-.4-.13-.63ZM38.6,45.17c0,.22.06.4.19.53.13.14.3.2.53.2s.4-.07.53-.2c.13-.13.19-.31.19-.53s-.06-.4-.19-.53-.3-.2-.53-.2-.4.07-.53.2-.19.31-.19.53Z"/>
    <path class="cls-1" d="M41.46,43.72h.9v.47h.01c.1-.18.21-.31.34-.4.13-.09.3-.13.5-.13.05,0,.1,0,.16,0,.05,0,.1.01.14.02v.82c-.06-.02-.13-.04-.19-.04-.06,0-.13-.01-.19-.01-.17,0-.31.02-.41.07s-.18.12-.23.2c-.05.09-.09.19-.1.31-.02.12-.02.25-.02.39v1.21h-.9v-2.91Z"/>
    <path class="cls-1" d="M45.87,44.43h-.79v.97c0,.08,0,.15.01.22,0,.07.03.12.05.17s.07.08.13.11c.06.03.13.04.23.04.05,0,.11,0,.19-.01.08,0,.14-.03.18-.07v.75c-.1.04-.2.06-.31.07s-.21.02-.32.02c-.15,0-.29-.02-.42-.05-.13-.03-.24-.08-.33-.15-.1-.07-.17-.16-.22-.27s-.08-.25-.08-.41v-1.38h-.57v-.72h.57v-.86h.9v.86h.79v.72Z"/>
    <path class="cls-1" d="M46.26,42.8c0-.14.05-.27.15-.37.1-.1.22-.15.37-.15s.27.05.37.15c.1.1.15.22.15.37s-.05.27-.15.37-.22.15-.37.15-.27-.05-.37-.15c-.1-.1-.15-.22-.15-.37ZM46.33,43.72h.9v2.91h-.9v-2.91Z"/>
    <path class="cls-1" d="M47.88,43.72h.86v.39h.01c.03-.06.07-.11.12-.17s.11-.11.19-.15.15-.08.25-.11c.09-.03.19-.04.3-.04.23,0,.41.04.55.1.14.07.25.17.33.29.08.12.13.27.16.44.03.17.04.35.04.54v1.6h-.9v-1.42c0-.08,0-.17,0-.26s-.02-.17-.05-.25c-.03-.08-.08-.14-.14-.19-.06-.05-.15-.07-.27-.07s-.21.02-.28.06-.13.1-.16.17c-.04.07-.06.15-.07.24-.01.09-.02.18-.02.28v1.45h-.9v-2.91Z"/>
    <path class="cls-1" d="M54.36,46.38c0,.55-.14.97-.42,1.25-.28.29-.7.43-1.26.43-.26,0-.51-.03-.77-.09s-.48-.17-.69-.34l.5-.74c.14.12.29.21.44.28s.32.1.5.1c.27,0,.48-.07.61-.2s.19-.3.19-.51v-.28h-.01c-.1.14-.23.24-.39.3-.15.06-.3.09-.43.09-.22,0-.41-.04-.59-.11-.18-.07-.33-.18-.45-.31-.13-.13-.22-.29-.29-.47-.07-.18-.1-.38-.1-.6,0-.19.03-.38.09-.56.06-.18.15-.34.26-.48.11-.14.25-.25.42-.34.16-.09.35-.13.56-.13.13,0,.24.01.35.04.11.03.2.06.28.11.08.04.16.09.21.15.06.05.11.11.14.16h.01v-.38h.82v2.66ZM52.1,45.15c0,.1.02.19.05.27.04.09.09.16.15.23.07.07.14.12.23.16.09.04.18.06.28.06s.19-.02.28-.06c.09-.04.16-.09.23-.16.07-.07.12-.14.15-.23.04-.09.05-.18.05-.27s-.02-.19-.05-.27c-.04-.09-.09-.16-.15-.23-.07-.07-.14-.12-.23-.16-.09-.04-.18-.06-.28-.06-.1,0-.2.02-.28.06-.09.04-.16.09-.23.16-.07.07-.12.14-.15.23-.04.09-.05.18-.05.27Z"/>
    <path class="cls-1" d="M57.57,42.14v5.98h-.75v-5.98h.75Z"/>
    <path class="cls-1" d="M62.82,43.49c-.09-.11-.2-.2-.34-.26-.13-.06-.29-.09-.46-.09s-.34.03-.49.1c-.15.07-.28.16-.39.28-.11.12-.2.27-.26.43-.06.17-.09.35-.09.54s.03.38.09.55c.06.17.15.31.25.43.11.12.23.22.38.28.15.07.3.1.47.1.19,0,.36-.04.51-.12.15-.08.27-.19.36-.33l.78.58c-.18.25-.41.44-.68.56-.27.12-.56.18-.85.18-.33,0-.64-.05-.91-.16-.28-.1-.52-.25-.72-.45s-.36-.43-.48-.7c-.11-.28-.17-.58-.17-.92s.06-.65.17-.92c.11-.28.27-.51.48-.7.2-.19.44-.34.72-.45.28-.1.58-.16.91-.16.12,0,.24.01.37.03.13.02.26.06.38.1s.25.11.36.19c.12.08.22.18.31.29l-.72.59Z"/>
    <path class="cls-1" d="M63.92,45.17c0-.23.04-.44.13-.63.08-.19.2-.35.34-.48.15-.13.32-.24.51-.31.2-.07.41-.11.63-.11s.43.04.63.11c.2.07.37.17.51.31.15.13.26.29.34.48.08.19.13.4.13.63s-.04.44-.13.63c-.08.19-.2.35-.34.48s-.32.24-.51.31c-.2.07-.41.11-.63.11s-.43-.04-.63-.11c-.2-.07-.37-.17-.51-.31s-.26-.29-.34-.48c-.08-.19-.13-.4-.13-.63ZM64.82,45.17c0,.22.06.4.19.53.13.14.3.2.53.2s.4-.07.53-.2c.13-.13.19-.31.19-.53s-.06-.4-.19-.53-.3-.2-.53-.2-.4.07-.53.2-.19.31-.19.53Z"/>
    <path class="cls-1" d="M67.68,43.72h.86v.39h.01c.03-.06.07-.11.12-.17s.11-.11.19-.15.15-.08.25-.11c.09-.03.19-.04.3-.04.2,0,.38.04.54.12.16.08.28.22.36.39.1-.19.23-.32.38-.4.15-.08.33-.12.54-.12.19,0,.36.03.49.1.13.07.24.16.32.27.08.11.13.25.17.4.03.15.05.32.05.49v1.72h-.9v-1.69c0-.14-.03-.25-.09-.35-.06-.1-.16-.15-.31-.15-.1,0-.19.02-.26.05-.07.03-.13.08-.17.14-.04.06-.07.13-.09.21s-.03.16-.03.25v1.54h-.9v-1.54c0-.05,0-.12,0-.19,0-.08-.02-.15-.04-.21-.02-.07-.06-.13-.12-.17s-.13-.07-.24-.07c-.12,0-.21.02-.28.06s-.13.1-.16.17c-.04.07-.06.15-.07.24-.01.09-.02.18-.02.28v1.45h-.9v-2.91Z"/>
    <path class="cls-1" d="M72.96,43.72h.82v.38h.01c.04-.05.08-.1.14-.16.06-.05.13-.1.2-.15s.16-.08.25-.11c.09-.03.19-.04.29-.04.22,0,.41.04.59.11.18.07.33.18.45.31.13.13.22.29.29.48.07.18.1.38.1.6,0,.2-.03.4-.09.58-.06.19-.15.35-.26.49-.11.14-.25.26-.42.34-.16.09-.35.13-.56.13-.19,0-.36-.03-.52-.09-.16-.06-.29-.16-.4-.3h-.01v1.67h-.9v-4.27ZM73.79,45.17c0,.22.06.4.19.53.13.14.3.2.53.2s.4-.07.53-.2c.13-.13.19-.31.19-.53s-.06-.4-.19-.53-.3-.2-.53-.2-.4.07-.53.2-.19.31-.19.53Z"/>
    <path class="cls-1" d="M76.66,42.1h.9v4.52h-.9v-4.52Z"/>
    <path class="cls-1" d="M78.14,42.8c0-.14.05-.27.15-.37.1-.1.22-.15.37-.15s.27.05.37.15c.1.1.15.22.15.37s-.05.27-.15.37-.22.15-.37.15-.27-.05-.37-.15c-.1-.1-.15-.22-.15-.37ZM78.21,43.72h.9v2.91h-.9v-2.91Z"/>
    <path class="cls-1" d="M81.57,46.26h-.01c-.1.16-.23.27-.4.33-.17.07-.34.1-.52.1-.14,0-.27-.02-.39-.06-.13-.04-.24-.09-.33-.17-.1-.08-.17-.17-.23-.28-.06-.11-.08-.24-.08-.39,0-.17.03-.31.09-.42.06-.12.15-.21.25-.29.11-.08.23-.13.36-.18.14-.04.28-.07.42-.09.15-.02.29-.03.44-.04s.28,0,.4,0c0-.16-.06-.29-.17-.38-.11-.09-.25-.14-.4-.14s-.28.03-.4.09-.23.15-.33.25l-.48-.49c.17-.16.36-.27.59-.35.22-.08.45-.12.69-.12.26,0,.48.03.65.1s.31.16.41.29c.1.13.17.28.21.47.04.19.06.4.06.64v1.48h-.83v-.36ZM81.35,45.35c-.07,0-.15,0-.25,0-.1,0-.2.02-.29.05-.09.03-.17.07-.24.12-.07.06-.1.13-.1.23,0,.11.05.19.14.24s.19.08.29.08c.09,0,.17-.01.25-.04.08-.02.15-.06.22-.1.06-.04.11-.1.15-.17s.06-.15.06-.24v-.19h-.22Z"/>
    <path class="cls-1" d="M82.96,43.72h.86v.39h.01c.03-.06.07-.11.12-.17s.11-.11.19-.15.15-.08.25-.11c.09-.03.19-.04.3-.04.23,0,.41.04.55.1.14.07.25.17.33.29.08.12.13.27.16.44.03.17.04.35.04.54v1.6h-.9v-1.42c0-.08,0-.17,0-.26s-.02-.17-.05-.25c-.03-.08-.08-.14-.14-.19-.06-.05-.15-.07-.27-.07s-.21.02-.28.06-.13.1-.16.17c-.04.07-.06.15-.07.24-.01.09-.02.18-.02.28v1.45h-.9v-2.91Z"/>
    <path class="cls-1" d="M88.36,44.65c-.04-.06-.11-.12-.19-.16-.08-.04-.17-.06-.26-.06-.23,0-.4.07-.53.2s-.19.31-.19.53.06.4.19.53c.13.14.3.2.53.2.1,0,.19-.02.26-.07s.13-.1.19-.16l.59.62c-.14.14-.3.24-.49.3s-.37.09-.54.09c-.22,0-.43-.04-.63-.11-.2-.07-.37-.17-.51-.31s-.26-.29-.34-.48c-.08-.19-.13-.4-.13-.63s.04-.44.13-.63c.08-.19.2-.35.34-.48.15-.13.32-.24.51-.31.2-.07.41-.11.63-.11.17,0,.35.03.54.09s.35.16.49.3l-.59.62Z"/>
    <path class="cls-1" d="M92.02,46.12c-.14.18-.32.32-.54.42s-.45.15-.68.15c-.22,0-.43-.04-.63-.11-.2-.07-.37-.17-.51-.31s-.26-.29-.34-.48c-.08-.19-.13-.4-.13-.63s.04-.44.13-.63c.08-.19.2-.35.34-.48.15-.13.32-.24.51-.31.2-.07.41-.11.63-.11.21,0,.4.04.56.11.17.07.31.17.43.31.12.13.21.29.27.48.06.19.1.4.1.63v.28h-2.08c.04.17.11.31.23.41s.27.15.44.15c.15,0,.27-.03.37-.1.1-.07.19-.15.27-.25l.63.46ZM91.26,44.84c0-.15-.05-.28-.15-.39s-.24-.16-.4-.16c-.1,0-.19.02-.26.05s-.14.07-.19.12c-.05.05-.1.11-.13.17-.03.07-.05.13-.05.21h1.18Z"/>
    <path class="cls-1" d="M95.2,42.14v5.98h-.75v-5.98h.75Z"/>
  </g>
</svg>