<svg width="300" height="119" viewBox="0 0 300 119" fill="none" xmlns="http://www.w3.org/2000/svg">
<path d="M255.713 61.6491V54.1827L253.745 55.9111L252.568 54.5561L255.768 51.8599H257.708V61.6491H255.713Z" fill="white"/>
<path d="M246.515 57.5149V55.7175H247.194C247.956 55.7175 248.774 55.5515 248.774 54.6252C248.774 54.0306 248.233 53.602 247.555 53.602C246.903 53.602 246.46 54.003 246.335 54.5145L244.049 54.0444C244.478 52.3438 245.878 51.6939 247.541 51.6939C249.287 51.6939 250.852 52.5373 250.852 54.4178C250.852 55.4962 250.256 56.3397 249.176 56.5609V56.6024C250.353 56.7545 251.018 57.75 251.018 58.8838C251.018 60.8471 249.411 61.815 247.485 61.815C245.739 61.815 244.368 61.0407 243.966 59.2847L246.155 58.7731C246.294 59.4645 246.723 59.9069 247.61 59.9069C248.511 59.9069 248.94 59.3815 248.94 58.6487C248.94 57.5426 247.929 57.5149 247 57.5149H246.515Z" fill="white"/>
<path d="M235.78 56.7545C235.78 54.4316 236.514 51.6939 239.424 51.6939C242.334 51.6939 243.068 54.4316 243.068 56.7545C243.068 59.0773 242.334 61.815 239.424 61.815C236.514 61.815 235.78 59.0773 235.78 56.7545ZM237.858 56.7545C237.858 57.7776 237.927 59.9069 239.424 59.9069C240.92 59.9069 240.99 57.7776 240.99 56.7545C240.99 55.7313 240.92 53.602 239.424 53.602C237.927 53.602 237.858 55.7313 237.858 56.7545Z" fill="white"/>
<path d="M231.113 61.6491V54.1827L229.146 55.9111L227.968 54.5561L231.168 51.8599H233.108V61.6491H231.113Z" fill="white"/>
<path d="M222.986 54.9293L219.937 62.7414C219.383 64.1655 219.065 64.9675 217.083 64.9675C216.557 64.9675 216.03 64.8845 215.531 64.7186L215.808 63.0179C216.127 63.1562 216.432 63.2253 216.778 63.2253C217.721 63.2253 217.873 62.8243 218.164 62.0915L218.316 61.7044L215.365 54.9293H217.61L219.342 59.3677H219.369L220.852 54.9293H222.986Z" fill="white"/>
<path d="M212.842 61.6491V60.8057H212.814C212.357 61.5247 211.525 61.815 210.68 61.815C209.419 61.815 208.283 61.096 208.283 59.741C208.283 57.4181 211.11 57.3767 212.842 57.3767C212.842 56.6439 212.232 56.1737 211.512 56.1737C210.833 56.1737 210.265 56.4779 209.821 56.9757L208.713 55.8419C209.475 55.1229 210.583 54.7634 211.678 54.7634C214.103 54.7634 214.754 55.994 214.754 58.2339V61.6491H212.842ZM212.842 58.704H212.329C211.692 58.704 210.278 58.7593 210.278 59.6719C210.278 60.1696 210.805 60.4047 211.262 60.4047C212.08 60.4047 212.842 59.9761 212.842 59.1465V58.704Z" fill="white"/>
<path d="M205.044 61.6491V51.1962H207.123V61.6491H205.044Z" fill="white"/>
<path d="M196.552 61.6491V51.8599H200.196C202.233 51.8599 203.923 52.5097 203.923 54.8326C203.923 57.1278 202.358 57.833 200.293 57.833H198.714V61.6491H196.552ZM198.714 53.685V56.0079H200.155C200.917 56.0079 201.679 55.7451 201.679 54.8326C201.679 53.8232 200.653 53.685 199.822 53.685H198.714Z" fill="white"/>
<path d="M195.209 57.3766V59.0358H191.801V57.3766H195.209Z" fill="white"/>
<path d="M189.151 59.423L190.606 60.4877C189.941 61.3311 188.847 61.815 187.766 61.815C185.687 61.815 184.025 60.4324 184.025 58.2892C184.025 56.1461 185.687 54.7634 187.766 54.7634C189.706 54.7634 190.925 56.1461 190.925 58.2892V58.9391H186.103C186.269 59.7272 186.865 60.2388 187.669 60.2388C188.348 60.2388 188.805 59.8931 189.151 59.423ZM186.103 57.5288H188.847C188.86 56.8374 188.32 56.2567 187.572 56.2567C186.657 56.2567 186.158 56.8789 186.103 57.5288Z" fill="white"/>
<path d="M178.833 61.6491V54.9293H180.912V56.0078H180.94C181.383 55.1921 181.965 54.7634 182.879 54.7634C183.115 54.7634 183.378 54.7773 183.572 54.8326V56.7268C183.281 56.6439 182.99 56.5885 182.685 56.5885C181.106 56.5885 180.912 57.5011 180.912 58.8423V61.6491H178.833Z" fill="white"/>
<path d="M177.362 54.9293V61.6491H175.367V60.7365H175.339C175.062 61.2619 174.383 61.815 173.371 61.815C171.265 61.815 170.877 60.4323 170.877 58.6349V54.9293H172.956V58.2201C172.956 58.9944 172.969 59.9899 174.036 59.9899C175.117 59.9899 175.283 59.1464 175.283 58.2754V54.9293H177.362Z" fill="white"/>
<path d="M162.413 61.6491V51.8599H166.057C168.094 51.8599 169.784 52.5097 169.784 54.8326C169.784 57.1278 168.218 57.833 166.154 57.833H164.574V61.6491H162.413ZM164.574 53.685V56.0079H166.015C166.777 56.0079 167.54 55.7451 167.54 54.8326C167.54 53.8232 166.514 53.685 165.683 53.685H164.574Z" fill="white"/>
<path d="M291.765 114.926V114.083H291.737C291.28 114.802 290.448 115.092 289.603 115.092C288.342 115.092 287.206 114.373 287.206 113.018C287.206 110.695 290.033 110.654 291.765 110.654C291.765 109.921 291.155 109.451 290.434 109.451C289.756 109.451 289.187 109.755 288.744 110.253L287.636 109.119C288.398 108.4 289.506 108.04 290.601 108.04C293.026 108.04 293.677 109.271 293.677 111.511V114.926H291.765ZM291.765 111.981H291.252C290.615 111.981 289.201 112.036 289.201 112.949C289.201 113.447 289.728 113.682 290.185 113.682C291.003 113.682 291.765 113.253 291.765 112.423V111.981Z" fill="white"/>
<path d="M281.896 114.926V108.206H283.974V109.285H284.002C284.445 108.469 285.027 108.04 285.942 108.04C286.177 108.04 286.441 108.054 286.635 108.11V110.004C286.344 109.921 286.053 109.866 285.748 109.866C284.168 109.866 283.974 110.778 283.974 112.119V114.926H281.896Z" fill="white"/>
<path d="M280.84 108.206V109.866H279.011V112.105C279.011 112.824 279.094 113.35 279.995 113.35C280.216 113.35 280.66 113.322 280.84 113.156V114.885C280.383 115.05 279.87 115.092 279.385 115.092C277.999 115.092 276.932 114.525 276.932 113.059V109.866H275.602V108.206H276.932V106.215H279.011V108.206H280.84Z" fill="white"/>
<path d="M274.925 108.925L273.65 110.184C273.345 109.81 272.944 109.617 272.445 109.617C272.098 109.617 271.683 109.769 271.683 110.17C271.683 111.165 275.188 110.322 275.188 112.88C275.188 114.594 273.525 115.092 272.084 115.092C271.142 115.092 270.103 114.857 269.438 114.179L270.699 112.783C271.087 113.253 271.544 113.516 272.168 113.516C272.639 113.516 273.11 113.391 273.11 113.032C273.11 111.953 269.604 112.866 269.604 110.308C269.604 108.732 271.018 108.04 272.431 108.04C273.318 108.04 274.301 108.262 274.925 108.925Z" fill="white"/>
<path d="M266.802 112.7L268.257 113.765C267.592 114.608 266.497 115.092 265.417 115.092C263.338 115.092 261.676 113.709 261.676 111.566C261.676 109.423 263.338 108.04 265.417 108.04C267.356 108.04 268.576 109.423 268.576 111.566V112.216H263.754C263.92 113.004 264.516 113.516 265.32 113.516C265.999 113.516 266.456 113.17 266.802 112.7ZM263.754 110.806H266.497C266.511 110.114 265.971 109.534 265.223 109.534C264.308 109.534 263.809 110.156 263.754 110.806Z" fill="white"/>
<path d="M253.927 104.473H256.005V109.119H256.033C256.227 108.593 256.906 108.04 257.918 108.04C260.024 108.04 260.412 109.423 260.412 111.221V114.926H258.333V111.635C258.333 110.861 258.319 109.866 257.252 109.866C256.172 109.866 256.005 110.709 256.005 111.58V114.926H253.927V104.473Z" fill="white"/>
<path d="M253.173 108.939L251.801 110.377C251.593 110.087 251.205 109.866 250.776 109.866C249.737 109.866 249.113 110.557 249.113 111.566C249.113 112.576 249.737 113.267 250.776 113.267C251.233 113.267 251.566 113.032 251.801 112.755L253.173 114.193C252.522 114.857 251.566 115.092 250.776 115.092C248.697 115.092 247.035 113.709 247.035 111.566C247.035 109.423 248.697 108.04 250.776 108.04C251.566 108.04 252.522 108.275 253.173 108.939Z" fill="white"/>
<path d="M241.844 114.926V108.206H243.922V109.285H243.95C244.393 108.469 244.975 108.04 245.89 108.04C246.125 108.04 246.388 108.054 246.582 108.11V110.004C246.291 109.921 246.001 109.866 245.696 109.866C244.116 109.866 243.922 110.778 243.922 112.119V114.926H241.844Z" fill="white"/>
<path d="M230.052 110.031C230.052 106.893 232.283 104.888 235.345 104.888C238.407 104.888 240.638 106.893 240.638 110.031C240.638 113.17 238.407 115.175 235.345 115.175C232.283 115.175 230.052 113.17 230.052 110.031ZM232.296 110.031C232.296 111.857 233.502 113.184 235.345 113.184C237.188 113.184 238.393 111.857 238.393 110.031C238.393 108.206 237.188 106.879 235.345 106.879C233.502 106.879 232.296 108.206 232.296 110.031Z" fill="white"/>
<path d="M223.178 112.7L224.633 113.765C223.968 114.608 222.873 115.092 221.792 115.092C219.714 115.092 218.051 113.709 218.051 111.566C218.051 109.423 219.714 108.04 221.792 108.04C223.732 108.04 224.951 109.423 224.951 111.566V112.216H220.129C220.296 113.004 220.891 113.516 221.695 113.516C222.374 113.516 222.831 113.17 223.178 112.7ZM220.129 110.806H222.873C222.887 110.114 222.346 109.534 221.598 109.534C220.684 109.534 220.185 110.156 220.129 110.806Z" fill="white"/>
<path d="M216.598 108.206V114.359C216.598 116.889 215.309 118.244 212.704 118.244C211.513 118.244 210.293 118.037 209.323 117.263L210.473 115.548C211.111 116.088 211.817 116.419 212.663 116.419C213.923 116.419 214.519 115.728 214.519 114.774V114.124H214.492C214.02 114.774 213.217 115.009 212.593 115.009C210.598 115.009 209.282 113.571 209.282 111.539C209.282 109.755 210.446 108.04 212.358 108.04C213.536 108.04 214.339 108.607 214.658 109.091H214.686V108.206H216.598ZM211.36 111.525C211.36 112.396 212.081 113.184 213.023 113.184C213.965 113.184 214.686 112.396 214.686 111.525C214.686 110.654 213.965 109.866 213.023 109.866C212.081 109.866 211.36 110.654 211.36 111.525Z" fill="white"/>
<path d="M201.575 114.926V108.206H203.57V109.119H203.598C203.875 108.593 204.554 108.04 205.565 108.04C207.672 108.04 208.06 109.423 208.06 111.221V114.926H205.981V111.635C205.981 110.861 205.967 109.866 204.9 109.866C203.82 109.866 203.653 110.709 203.653 111.58V114.926H201.575Z" fill="white"/>
<path d="M198.359 114.926V114.083H198.331C197.874 114.802 197.043 115.092 196.197 115.092C194.936 115.092 193.8 114.373 193.8 113.018C193.8 110.695 196.627 110.654 198.359 110.654C198.359 109.921 197.749 109.451 197.029 109.451C196.35 109.451 195.782 109.755 195.338 110.253L194.23 109.119C194.992 108.4 196.1 108.04 197.195 108.04C199.62 108.04 200.271 109.271 200.271 111.511V114.926H198.359ZM198.359 111.981H197.846C197.209 111.981 195.796 112.036 195.796 112.949C195.796 113.447 196.322 113.682 196.779 113.682C197.597 113.682 198.359 113.253 198.359 112.423V111.981Z" fill="white"/>
<path d="M186.176 104.473H188.255V109.119H188.282C188.476 108.593 189.155 108.04 190.167 108.04C192.273 108.04 192.661 109.423 192.661 111.221V114.926H190.582V111.635C190.582 110.861 190.569 109.866 189.502 109.866C188.421 109.866 188.255 110.709 188.255 111.58V114.926H186.176V104.473Z" fill="white"/>
<path d="M185.422 108.939L184.051 110.377C183.843 110.087 183.455 109.866 183.025 109.866C181.986 109.866 181.363 110.557 181.363 111.566C181.363 112.576 181.986 113.267 183.025 113.267C183.483 113.267 183.815 113.032 184.051 112.755L185.422 114.193C184.771 114.857 183.815 115.092 183.025 115.092C180.947 115.092 179.284 113.709 179.284 111.566C179.284 109.423 180.947 108.04 183.025 108.04C183.815 108.04 184.771 108.275 185.422 108.939Z" fill="white"/>
<path d="M170.948 114.926L173.608 111.331L171.363 108.206H173.816L175.007 110.031L176.157 108.206H178.471L176.282 111.331L178.873 114.926H176.421L174.952 112.686L173.372 114.926H170.948Z" fill="white"/>
<path d="M163.412 114.926V105.137H170.076V107.128H165.573V108.953H169.827V110.944H165.573V112.935H170.326V114.926H163.412Z" fill="white"/>
<path d="M280.91 73.4073L279.636 74.6655C279.331 74.2922 278.929 74.0986 278.43 74.0986C278.084 74.0986 277.668 74.2507 277.668 74.6517C277.668 75.6472 281.174 74.8038 281.174 77.3617C281.174 79.0762 279.511 79.574 278.07 79.574C277.128 79.574 276.088 79.3389 275.423 78.6614L276.684 77.2649C277.072 77.735 277.529 77.9978 278.153 77.9978C278.624 77.9978 279.095 77.8733 279.095 77.5138C279.095 76.4353 275.59 77.3479 275.59 74.79C275.59 73.2137 277.003 72.5224 278.416 72.5224C279.303 72.5224 280.287 72.7436 280.91 73.4073Z" fill="white"/>
<path d="M271.417 79.4081V74.3476H270.045V72.6884H271.417V71.4993C271.417 70.0336 271.791 68.7892 274.05 68.7892C274.465 68.7892 274.881 68.8169 275.269 68.9137L275.172 70.6697C274.937 70.5867 274.743 70.5314 274.493 70.5314C273.828 70.5314 273.496 70.7388 273.496 71.6237V72.6884H275.034V74.3476H273.496V79.4081H271.417Z" fill="white"/>
<path d="M266.532 79.4081V74.3476H265.161V72.6884H266.532V71.4993C266.532 70.0336 266.906 68.7892 269.165 68.7892C269.581 68.7892 269.996 68.8169 270.384 68.9137L270.287 70.6697C270.052 70.5867 269.858 70.5314 269.608 70.5314C268.943 70.5314 268.611 70.7388 268.611 71.6237V72.6884H270.149V74.3476H268.611V79.4081H266.532Z" fill="white"/>
<path d="M264.34 72.6884V79.4081H262.345V78.4955H262.317C262.04 79.021 261.361 79.574 260.35 79.574C258.244 79.574 257.856 78.1914 257.856 76.3939V72.6884H259.934V75.9791C259.934 76.7534 259.948 77.7489 261.015 77.7489C262.096 77.7489 262.262 76.9055 262.262 76.0344V72.6884H264.34Z" fill="white"/>
<path d="M257.102 73.4211L255.73 74.8591C255.522 74.5687 255.134 74.3475 254.704 74.3475C253.665 74.3475 253.042 75.0388 253.042 76.0482C253.042 77.0575 253.665 77.7489 254.704 77.7489C255.162 77.7489 255.494 77.5138 255.73 77.2373L257.102 78.6753C256.45 79.3389 255.494 79.574 254.704 79.574C252.626 79.574 250.963 78.1913 250.963 76.0482C250.963 73.9051 252.626 72.5224 254.704 72.5224C255.494 72.5224 256.45 72.7575 257.102 73.4211Z" fill="white"/>
<path d="M249.51 68.9551V79.4081H247.598V78.5232H247.57C247.252 79.0071 246.448 79.574 245.506 79.574C243.511 79.574 242.194 78.136 242.194 76.1035C242.194 74.2369 243.358 72.5224 245.27 72.5224C246.129 72.5224 246.933 72.7575 247.404 73.4073H247.432V68.9551H249.51ZM247.598 76.0482C247.598 75.0389 246.975 74.3475 245.935 74.3475C244.896 74.3475 244.273 75.0389 244.273 76.0482C244.273 77.0576 244.896 77.7489 245.935 77.7489C246.975 77.7489 247.598 77.0576 247.598 76.0482Z" fill="white"/>
<path d="M234.487 79.4081V72.6883H236.483V73.6009H236.51C236.787 73.0755 237.466 72.5224 238.478 72.5224C240.584 72.5224 240.972 73.9051 240.972 75.7025V79.4081H238.893V76.1173C238.893 75.343 238.88 74.3475 237.813 74.3475C236.732 74.3475 236.566 75.1909 236.566 76.062V79.4081H234.487Z" fill="white"/>
<path d="M231.271 79.4081V78.5646H231.244C230.786 79.2836 229.955 79.574 229.11 79.574C227.849 79.574 226.713 78.855 226.713 77.5C226.713 75.1771 229.539 75.1356 231.271 75.1356C231.271 74.4028 230.662 73.9327 229.941 73.9327C229.262 73.9327 228.694 74.2369 228.251 74.7347L227.142 73.6009C227.904 72.8819 229.013 72.5224 230.107 72.5224C232.532 72.5224 233.183 73.753 233.183 75.9929V79.4081H231.271ZM231.271 76.463H230.759C230.121 76.463 228.708 76.5183 228.708 77.4309C228.708 77.9286 229.234 78.1637 229.692 78.1637C230.509 78.1637 231.271 77.735 231.271 76.9054V76.463Z" fill="white"/>
<path d="M216.795 79.4081V69.6188H218.956V73.2691H223.155V69.6188H225.316V79.4081H223.155V75.1771H218.956V79.4081H216.795Z" fill="white"/>
<path d="M206.637 79.4081V71.5269H203.838V69.6188H211.597V71.5269H208.798V79.4081H206.637Z" fill="white"/>
<path d="M203.114 70.3931L201.632 72.0108C201.285 71.5684 200.592 71.361 200.066 71.361C199.456 71.361 198.611 71.6375 198.611 72.3703C198.611 74.154 203.128 73.0063 203.128 76.4353C203.128 78.62 201.368 79.657 199.345 79.657C198.084 79.657 196.976 79.2836 196.048 78.4264L197.586 76.7395C198.029 77.3203 198.75 77.6659 199.47 77.6659C200.177 77.6659 200.966 77.3341 200.966 76.6427C200.966 74.8453 196.366 75.8131 196.366 72.5501C196.366 70.4622 198.181 69.3699 200.107 69.3699C201.216 69.3699 202.283 69.6603 203.114 70.3931Z" fill="white"/>
<path d="M186.268 79.4081V69.6188H189.511C192.67 69.6188 195.316 70.96 195.316 74.5411C195.316 77.7074 192.725 79.4081 189.802 79.4081H186.268ZM188.43 71.6099V77.4171H189.552C191.561 77.4171 193.072 76.6566 193.072 74.4305C193.072 72.5086 191.534 71.6099 189.705 71.6099H188.43Z" fill="white"/>
<path d="M173.199 76.0482C173.199 73.9051 174.861 72.5224 176.94 72.5224C179.018 72.5224 180.681 73.9051 180.681 76.0482C180.681 78.1913 179.018 79.574 176.94 79.574C174.861 79.574 173.199 78.1913 173.199 76.0482ZM175.277 76.0482C175.277 77.0575 175.901 77.7489 176.94 77.7489C177.979 77.7489 178.603 77.0575 178.603 76.0482C178.603 75.0388 177.979 74.3475 176.94 74.3475C175.901 74.3475 175.277 75.0388 175.277 76.0482Z" fill="white"/>
<path d="M162.413 79.4081V69.6188H165.35L169.521 76.4215H169.549V69.6188H171.71V79.4081H168.884L164.602 72.4395H164.574V79.4081H162.413Z" fill="white"/>
<path d="M257.467 86.7141V97.1671H255.555V96.2821H255.527C255.209 96.7661 254.405 97.333 253.463 97.333C251.467 97.333 250.151 95.895 250.151 93.8625C250.151 91.9959 251.315 90.2814 253.227 90.2814C254.086 90.2814 254.89 90.5164 255.361 91.1663H255.389V86.7141H257.467ZM255.555 93.8072C255.555 92.7978 254.931 92.1065 253.892 92.1065C252.853 92.1065 252.23 92.7978 252.23 93.8072C252.23 94.8165 252.853 95.5079 253.892 95.5079C254.931 95.5079 255.555 94.8165 255.555 93.8072Z" fill="white"/>
<path d="M247.363 94.941L248.818 96.0057C248.153 96.8491 247.058 97.333 245.977 97.333C243.899 97.333 242.236 95.9504 242.236 93.8072C242.236 91.6641 243.899 90.2814 245.977 90.2814C247.917 90.2814 249.137 91.6641 249.137 93.8072V94.4571H244.315C244.481 95.2452 245.077 95.7568 245.88 95.7568C246.559 95.7568 247.017 95.4111 247.363 94.941ZM244.315 93.0468H247.058C247.072 92.3554 246.532 91.7747 245.783 91.7747C244.869 91.7747 244.37 92.3969 244.315 93.0468Z" fill="white"/>
<path d="M239.407 94.941L240.862 96.0057C240.197 96.8491 239.102 97.333 238.021 97.333C235.943 97.333 234.28 95.9504 234.28 93.8072C234.28 91.6641 235.943 90.2814 238.021 90.2814C239.961 90.2814 241.18 91.6641 241.18 93.8072V94.4571H236.358C236.525 95.2452 237.12 95.7568 237.924 95.7568C238.603 95.7568 239.06 95.4111 239.407 94.941ZM236.358 93.0468H239.102C239.116 92.3554 238.575 91.7747 237.827 91.7747C236.913 91.7747 236.414 92.3969 236.358 93.0468Z" fill="white"/>
<path d="M224.237 97.1671V87.3778H227.48C230.639 87.3778 233.285 88.719 233.285 92.3001C233.285 95.4664 230.694 97.1671 227.771 97.1671H224.237ZM226.399 89.3688V95.176H227.521C229.53 95.176 231.041 94.4156 231.041 92.1895C231.041 90.2676 229.503 89.3688 227.674 89.3688H226.399Z" fill="white"/>
<path d="M216.837 94.941L218.292 96.0057C217.626 96.8491 216.532 97.333 215.451 97.333C213.373 97.333 211.71 95.9504 211.71 93.8072C211.71 91.6641 213.373 90.2814 215.451 90.2814C217.391 90.2814 218.61 91.6641 218.61 93.8072V94.4571H213.788C213.955 95.2452 214.55 95.7568 215.354 95.7568C216.033 95.7568 216.49 95.4111 216.837 94.941ZM213.788 93.0468H216.532C216.546 92.3554 216.005 91.7747 215.257 91.7747C214.343 91.7747 213.844 92.3969 213.788 93.0468Z" fill="white"/>
<path d="M203.961 86.7141H206.04V91.3599H206.068C206.262 90.8345 206.94 90.2814 207.952 90.2814C210.058 90.2814 210.446 91.664 210.446 93.4615V97.1671H208.368V93.8763C208.368 93.102 208.354 92.1065 207.287 92.1065C206.206 92.1065 206.04 92.9499 206.04 93.821V97.1671H203.961V86.7141Z" fill="white"/>
<path d="M202.905 90.4473V92.1065H201.076V94.3464C201.076 95.0654 201.159 95.5908 202.06 95.5908C202.282 95.5908 202.725 95.5632 202.905 95.3973V97.1256C202.448 97.2915 201.935 97.333 201.45 97.333C200.065 97.333 198.998 96.7661 198.998 95.3005V92.1065H197.668V90.4473H198.998V88.4563H201.076V90.4473H202.905Z" fill="white"/>
<path d="M186.263 97.1671V90.4474H188.258V91.3599H188.286C188.563 90.8345 189.242 90.2814 190.253 90.2814C192.359 90.2814 192.747 91.6641 192.747 93.4616V97.1671H190.669V93.8764C190.669 93.1021 190.655 92.1065 189.588 92.1065C188.507 92.1065 188.341 92.95 188.341 93.8211V97.1671H186.263Z" fill="white"/>
<path d="M176.383 97.1671L173.917 90.4473H176.134L177.506 94.6645H177.533L178.683 90.4473H180.956L182.203 94.6645H182.231L183.491 90.4473H185.598L183.2 97.1671H181.15L179.75 92.7011H179.723L178.476 97.1671H176.383Z" fill="white"/>
<path d="M162.929 92.2724C162.929 89.1338 165.16 87.1289 168.222 87.1289C171.284 87.1289 173.515 89.1338 173.515 92.2724C173.515 95.4111 171.284 97.4159 168.222 97.4159C165.16 97.4159 162.929 95.4111 162.929 92.2724ZM165.173 92.2724C165.173 94.0975 166.379 95.4249 168.222 95.4249C170.065 95.4249 171.27 94.0975 171.27 92.2724C171.27 90.4473 170.065 89.1199 168.222 89.1199C166.379 89.1199 165.173 90.4473 165.173 92.2724Z" fill="white"/>
<path d="M260.13 53.9823V52.3789H259.525V51.8918H261.285V52.3789H260.68V53.9823H260.13ZM261.732 53.9823V51.8918H262.469L262.968 53.2517L263.466 51.8918H264.203V53.9823H263.654V52.6225H263.644L263.146 53.9823H262.79L262.291 52.6225H262.281V53.9823H261.732Z" fill="white"/>
<path d="M283.012 70.9295V69.3261H282.407V68.839H284.166V69.3261H283.561V70.9295H283.012ZM284.614 70.9295V68.839H285.351L285.849 70.1988L286.347 68.839H287.085V70.9295H286.536V69.5696H286.525L286.027 70.9295H285.671L285.173 69.5696H285.163V70.9295H284.614Z" fill="white"/>
<path d="M259.876 88.8153V87.2119H259.271V86.7248H261.03V87.2119H260.425V88.8153H259.876ZM261.478 88.8153V86.7248H262.215L262.713 88.0846L263.212 86.7248H263.949V88.8153H263.4V87.4554H263.39L262.891 88.8153H262.535L262.037 87.4554H262.027V88.8153H261.478Z" fill="white"/>
<path d="M295.724 106.524V104.92H295.119V104.433H296.878V104.92H296.273V106.524H295.724ZM297.325 106.524V104.433H298.063L298.561 105.793L299.059 104.433H299.797V106.524H299.247V105.164H299.237L298.739 106.524H298.383L297.885 105.164H297.875V106.524H297.325Z" fill="white"/>
<path d="M155.263 48.9641H154.525V118.402H155.263V48.9641Z" fill="white"/>
<path d="M19.4492 10.5032C18.839 9.71672 18.0254 9.18395 16.9831 8.8034C15.9407 8.42285 14.9492 8.24526 14.0339 8.24526C13.4746 8.24526 12.9407 8.296 12.3559 8.44822C11.7712 8.57507 11.2373 8.75266 10.7034 9.0571C10.1949 9.3108 9.78814 9.69135 9.45763 10.1226C9.12712 10.5539 8.97458 11.1121 8.97458 11.7717C8.97458 12.7865 9.35593 13.5476 10.1186 14.1057C10.8814 14.6639 11.8475 15.1205 13.0169 15.5011C14.1864 15.8816 15.4322 16.2875 16.7797 16.6427C18.1271 17.0233 19.3729 17.556 20.5424 18.2918C21.6864 18.9768 22.678 19.9408 23.4407 21.1078C24.2288 22.3002 24.5847 23.8732 24.5847 25.8267C24.5847 27.7802 24.2288 29.3531 23.5169 30.7484C22.8051 32.1692 21.8644 33.3108 20.6695 34.2241C19.4746 35.1374 18.0763 35.8478 16.4746 36.2791C14.8983 36.7358 13.2203 36.9387 11.4407 36.9387C9.25424 36.9387 7.19492 36.5835 5.28814 35.9239C3.40678 35.2643 1.65254 34.1734 0 32.6766L5.31356 26.8161C6.10169 27.8563 7.04237 28.6427 8.21186 29.2009C9.35593 29.759 10.5763 30.0381 11.822 30.0381C12.4322 30.0381 13.0424 29.962 13.678 29.8097C14.3136 29.6575 14.8729 29.4546 15.3559 29.1755C15.839 28.8964 16.2458 28.5159 16.5763 28.0846C16.8814 27.6279 17.0339 27.0952 17.0339 26.5116C17.0339 25.4969 16.6525 24.685 15.839 24.1015C15.0508 23.4926 14.0847 23.0106 12.8898 22.6047C11.6949 22.1734 10.4237 21.7675 9.05085 21.3615C7.67797 20.9556 6.38136 20.3721 5.21186 19.6871C4.04237 19.0021 3.05085 18.0381 2.26271 16.9218C1.47458 15.7801 1.0678 14.2326 1.0678 12.3552C1.0678 10.4778 1.44915 8.95562 2.13559 7.56027C2.84746 6.21566 3.81356 5.04864 5.0339 4.13532C6.25424 3.222 7.62712 2.51164 9.20339 2.05498C10.7542 1.59832 12.3814 1.37 14.0593 1.37C15.9915 1.37 17.8475 1.64906 19.6271 2.18183C21.4068 2.73997 23.0339 3.65329 24.4831 4.92179L19.3475 10.5032H19.4746H19.4492Z" fill="white"/>
<path d="M27.4321 12.8626H34.627V36.1269H27.4321V12.8626ZM26.8728 5.53067C26.8728 4.38902 27.2796 3.39959 28.0931 2.58775C28.9067 1.77591 29.8728 1.37 31.0423 1.37C32.2118 1.37 33.1779 1.77591 33.9914 2.58775C34.805 3.39959 35.2118 4.36365 35.2118 5.53067C35.2118 6.69769 34.805 7.66175 33.9914 8.47359C33.1779 9.28543 32.2118 9.69135 31.0423 9.69135C29.8728 9.69135 28.9067 9.28543 28.0931 8.47359C27.2796 7.66175 26.8728 6.69769 26.8728 5.53067Z" fill="white"/>
<path d="M37.9068 12.8626H44.8221V16.0339H44.8984C45.1272 15.5772 45.4577 15.1459 45.839 14.7146C46.2458 14.258 46.7543 13.8774 47.339 13.4969C47.9238 13.1417 48.5848 12.8626 49.2967 12.6343C50.0085 12.406 50.8221 12.2791 51.6865 12.2791C53.339 12.2791 54.7882 12.6343 56.0085 13.2939C57.2797 13.9535 58.2204 15.0191 58.856 16.4652C59.695 14.9683 60.7119 13.9028 61.8814 13.2685C63.0763 12.6343 64.5001 12.3299 66.2543 12.3299C67.8051 12.3299 69.1526 12.5836 70.2204 13.1417C71.2882 13.6491 72.1272 14.3848 72.7628 15.2981C73.3729 16.2115 73.8306 17.277 74.0848 18.4948C74.339 19.7379 74.4916 21.0318 74.4916 22.4525V36.203H67.2712V22.6554C67.2712 21.5645 67.0424 20.6258 66.6102 19.8647C66.1526 19.0783 65.3136 18.6723 64.1187 18.6723C63.2797 18.6723 62.5933 18.8246 62.034 19.0783C61.4746 19.332 61.017 19.7125 60.7119 20.1945C60.356 20.6766 60.1272 21.2347 60.0001 21.869C59.8729 22.5032 59.7967 23.1628 59.7967 23.8986V36.203H52.5763V23.8986C52.5763 23.4926 52.5763 22.9852 52.5509 22.3764C52.5255 21.7675 52.3984 21.184 52.195 20.6512C51.9916 20.0931 51.7119 19.6364 51.2797 19.2559C50.8475 18.8753 50.2119 18.6723 49.3729 18.6723C48.4577 18.6723 47.695 18.8499 47.1102 19.1544C46.5255 19.5096 46.0933 19.9408 45.7882 20.4736C45.4831 21.0064 45.2797 21.666 45.178 22.3764C45.1018 23.0614 45.0255 23.8225 45.0255 24.5582V36.1523H37.8306V12.8626H37.856H37.9068Z" fill="white"/>
<path d="M84.0509 24.5328C84.0509 26.2833 84.5339 27.704 85.5509 28.795C86.5678 29.8859 87.9661 30.444 89.7966 30.444C91.6271 30.444 93.0255 29.8859 94.0424 28.8203C95.0594 27.7294 95.5424 26.3087 95.5424 24.5582C95.5424 22.8076 95.0594 21.3869 94.0424 20.296C93.0255 19.2051 91.6271 18.647 89.7966 18.647C87.9661 18.647 86.5678 19.2051 85.5509 20.2706C84.5339 21.3362 84.0509 22.7823 84.0509 24.5328ZM77.4407 12.888H84.0509V15.9324H84.1271C84.4068 15.5265 84.7882 15.0952 85.2458 14.6639C85.7034 14.2326 86.2627 13.8267 86.8983 13.4715C87.5339 13.1163 88.1949 12.8372 88.9577 12.6089C89.7204 12.3806 90.4831 12.2537 91.2966 12.2537C93.0254 12.2537 94.6017 12.5328 96 13.1417C97.3983 13.7506 98.5932 14.5624 99.6102 15.6533C100.627 16.7188 101.39 17.9873 101.949 19.4588C102.508 20.9303 102.763 22.5539 102.763 24.3045C102.763 25.9535 102.508 27.4757 102 28.9725C101.517 30.444 100.78 31.7632 99.8899 32.9303C98.9746 34.0719 97.856 35.0106 96.5339 35.6702C95.2373 36.3552 93.7373 36.7104 92.0593 36.685C90.5593 36.685 89.161 36.4567 87.8644 36C86.5678 35.5434 85.5 34.7315 84.6865 33.6406H84.6102V61.5476H77.4153V12.888H77.4407Z" fill="#409544"/>
<path d="M112.373 0H105.178V36.203H112.373V0Z" fill="white"/>
<path d="M131.593 21.945C131.619 20.7273 131.212 19.6871 130.398 18.8245C129.559 17.9619 128.492 17.5306 127.195 17.5306C126.381 17.5306 125.695 17.6575 125.085 17.9112C124.475 18.1649 123.966 18.4947 123.534 18.9006C123.102 19.3065 122.746 19.7632 122.517 20.296C122.288 20.8034 122.136 21.3615 122.11 21.945H131.619H131.593ZM137.695 32.1945C136.551 33.666 135.102 34.7822 133.322 35.5941C131.568 36.4059 129.737 36.7865 127.856 36.7865C125.975 36.7865 124.398 36.5074 122.797 35.9239C121.22 35.3404 119.847 34.5032 118.678 33.4376C117.534 32.3721 116.593 31.0782 115.932 29.5814C115.271 28.0846 114.915 26.4101 114.915 24.5581C114.915 22.7061 115.271 21.0317 115.932 19.5349C116.593 18.038 117.508 16.7442 118.703 15.6786C119.898 14.6131 121.246 13.7759 122.822 13.2177C124.398 12.6342 126.076 12.3552 127.881 12.3552C129.559 12.3552 131.059 12.6342 132.407 13.2177C133.754 13.8013 134.924 14.6131 135.839 15.704C136.78 16.7695 137.517 18.0634 138.025 19.5602C138.534 21.0571 138.814 22.7315 138.814 24.5835V26.8414H122.11C122.39 28.2368 123.025 29.3023 123.992 30.1395C124.932 30.9514 126.127 31.3827 127.551 31.3827C128.746 31.3827 129.737 31.129 130.551 30.5962C131.364 30.0634 132.076 29.3784 132.686 28.5412L137.72 32.2199H137.67L137.695 32.1945Z" fill="white"/>
<path d="M140.517 48.685H40.627V96.6089H140.517V48.685Z" fill="#409544"/>
<path d="M53.1864 88.4398V65.962L47.4661 70.3763L43.7034 65.2262L53.7966 57.8436H60.483V88.4651H53.1864V88.4398Z" fill="white"/>
<path d="M76.627 89.277C67.9067 89.277 64.5762 81.7421 64.5762 73.0655C64.5762 64.389 67.9067 57.0063 76.627 57.0063C85.3474 57.0063 88.5762 64.4144 88.5762 73.0655C88.5762 81.7167 85.2965 89.277 76.627 89.277ZM76.627 63.1459C72.7626 63.1459 72.0253 69.2093 72.0253 73.0402C72.0253 76.8711 72.7626 83.036 76.627 83.036C80.4914 83.036 81.1524 76.9725 81.1524 73.0402C81.1524 69.1078 80.4406 63.1459 76.627 63.1459Z" fill="white"/>
<path d="M103.144 89.277C97.5507 89.277 92.4914 86.8415 90.8389 81.1586L97.6016 79.3827C98.1609 81.4123 100.042 83.1882 102.813 83.1882C104.898 83.1882 107.263 82.148 107.263 79.3066C107.263 76.1861 104.059 75.2728 101.034 75.2728H99.0762V69.9704H101.212C103.932 69.9704 106.576 69.2854 106.576 66.3425C106.576 64.1353 104.72 62.9683 102.712 62.9683C100.703 62.9683 98.9745 64.3129 98.5168 66.3679L91.7541 64.8203C93.2287 59.6702 98.0846 57.0317 103.195 57.0317C108.61 57.0317 114 59.7971 114 65.6829C114 69.0571 111.839 71.5687 108.839 72.3298V72.4567C112.322 73.2939 114.737 76.1353 114.737 79.5603C114.737 86.258 108.788 89.277 103.169 89.277H103.144Z" fill="white"/>
<path d="M125.11 88.4398V65.962L119.39 70.3763L115.627 65.2262L125.72 57.8436H132.407V88.4651H125.11V88.4398Z" fill="white"/>
<path d="M33.8643 54.6216V48.685H27.4575V54.6216H33.8643Z" fill="#B72026"/>
<path d="M33.8643 65.2009V59.2643H27.4575V65.2009H33.8643Z" fill="#ED2024"/>
<path d="M33.8643 75.7801V69.8436H27.4575V75.7801H33.8643Z" fill="#EFC932"/>
<path d="M33.8389 86.3594V80.4229H27.4321V86.3594H33.8389Z" fill="#F47621"/>
<path d="M33.8389 96.9641V91.0275H27.4321V96.9641H33.8389Z" fill="#4178BD"/>
<path d="M33.8389 107.543V101.607H27.4321V107.543H33.8389Z" fill="#5253A3"/>
<path d="M33.8389 118.123V112.186H27.4321V118.123H33.8389Z" fill="#409544"/>
<path d="M20.6187 65.2262H14.1865V59.2643H20.6187" fill="#ED2024"/>
<path d="M20.6187 75.8055H14.1865V69.8436H20.6187" fill="#EFC932"/>
<path d="M20.6187 86.3848H14.1865V80.4229H20.6187" fill="#F47621"/>
<path d="M20.6187 96.9641H14.1865V91.0275H20.6187" fill="#4178BD"/>
<path d="M20.6187 107.543H14.1865V101.607H20.6187" fill="#5253A3"/>
<path d="M20.6187 118.123H14.1865V112.186H20.6187" fill="#409544"/>
<path d="M20.6187 54.6216V48.685H14.2119V54.6216H20.6187Z" fill="#B72026"/>
<path d="M7.37284 65.2262H0.966064V59.2643H7.37284" fill="#ED2024"/>
<path d="M7.37284 75.8055H0.966064V69.8436H7.37284" fill="#EFC932"/>
<path d="M7.37284 86.3848H0.966064V80.4229H7.37284" fill="#F47621"/>
<path d="M7.37284 96.9641H0.966064V91.0275H7.37284" fill="#4178BD"/>
<path d="M7.37284 107.543H0.966064V101.607H7.37284" fill="#5253A3"/>
<path d="M7.37284 118.123H0.966064V112.186H7.37284" fill="#409544"/>
<path d="M7.3728 54.647V48.7104H0.966022V54.647H7.3728Z" fill="#B72026"/>
<path d="M40.6272 104.55H49.5001V107.315H43.5001V109.852H49.1696V112.617H43.5001V115.383H49.8306V118.148H40.6272V104.55Z" fill="white"/>
<path d="M55.0169 111.044L50.6949 104.55H54.3051L57.1017 109.319L59.7712 104.55H63.2542L59.0339 110.994L63.7627 118.148H60.1525L56.9491 112.668L53.8475 118.148H50.4407L55.0169 111.044Z" fill="white"/>
<path d="M72.5594 108.101C72.2797 107.746 71.9238 107.467 71.517 107.29C71.1102 107.112 70.6272 106.985 70.0933 106.985C69.5594 106.985 69.0509 107.087 68.5933 107.315C68.1357 107.543 67.7289 107.822 67.3984 108.228C67.0679 108.634 66.7882 109.091 66.6102 109.624C66.4068 110.156 66.3306 110.74 66.3306 111.374C66.3306 112.008 66.4323 112.592 66.6102 113.125C66.8136 113.658 67.0679 114.114 67.3984 114.52C67.7289 114.901 68.1102 115.205 68.5679 115.433C69.0255 115.662 69.5085 115.763 70.017 115.763C70.6018 115.763 71.1357 115.636 71.5933 115.383C72.0509 115.129 72.4323 114.774 72.7119 114.292L75.1272 116.169C74.5679 116.981 73.8814 117.564 73.017 117.945C72.1526 118.326 71.2882 118.529 70.3984 118.529C69.3814 118.529 68.4407 118.376 67.5763 118.021C66.7119 117.691 65.9746 117.209 65.339 116.6C64.7035 115.966 64.2204 115.23 63.8645 114.342C63.5085 113.455 63.3306 112.465 63.3306 111.374C63.3306 110.283 63.5085 109.294 63.8645 108.406C64.2204 107.518 64.7035 106.782 65.339 106.148C65.9746 105.514 66.7119 105.057 67.5763 104.727C68.4407 104.397 69.3814 104.245 70.3984 104.245C70.7797 104.245 71.1611 104.271 71.5424 104.347C71.9238 104.423 72.3306 104.524 72.7373 104.677C73.1441 104.829 73.5001 105.032 73.856 105.285C74.2119 105.539 74.5424 105.869 74.8221 106.224L72.6102 108.101H72.5594Z" fill="white"/>
<path d="M75.9407 104.55H78.8136V109.624H84.4068V104.55H87.2797V118.148H84.4068V112.262H78.8136V118.148H75.9407V104.55Z" fill="white"/>
<path d="M93.5086 104.55H95.8984L101.593 118.148H98.3391L97.2204 115.281H92.1357L91.0425 118.148H87.8645L93.5086 104.55ZM94.6272 108.507L93.0255 112.744H96.2289L94.6272 108.507Z" fill="white"/>
<path d="M102.509 104.55H106.424L111.966 113.987H111.992V104.55H114.864V118.148H111.102L105.407 108.457H105.381V118.148H102.509V104.55Z" fill="white"/>
<path d="M129.026 117.184C128.187 117.641 127.297 117.97 126.382 118.173C125.466 118.376 124.526 118.478 123.559 118.478C122.543 118.478 121.602 118.326 120.737 117.97C119.873 117.641 119.136 117.159 118.5 116.55C117.865 115.915 117.382 115.18 117.026 114.292C116.67 113.404 116.492 112.414 116.492 111.323C116.492 110.233 116.67 109.243 117.026 108.355C117.382 107.467 117.865 106.732 118.5 106.097C119.136 105.463 119.873 105.006 120.737 104.677C121.602 104.347 122.543 104.195 123.559 104.195C124.576 104.195 125.568 104.321 126.458 104.575C127.348 104.829 128.11 105.285 128.771 105.92L126.737 108.228C126.331 107.797 125.898 107.493 125.415 107.264C124.907 107.036 124.322 106.934 123.585 106.934C122.975 106.934 122.415 107.036 121.907 107.264C121.398 107.493 120.992 107.772 120.61 108.178C120.254 108.558 119.975 109.04 119.797 109.573C119.593 110.106 119.517 110.689 119.517 111.323C119.517 111.958 119.619 112.541 119.797 113.074C120 113.607 120.254 114.063 120.61 114.469C120.966 114.85 121.398 115.154 121.907 115.383C122.415 115.611 122.949 115.712 123.585 115.712C124.221 115.712 124.754 115.636 125.212 115.484C125.67 115.332 126.026 115.18 126.305 115.028V112.82H123.966V110.055H129.076V117.159L129.026 117.184Z" fill="white"/>
<path d="M131.314 104.55H140.187V107.315H134.187V109.852H139.856V112.617H134.187V115.383H140.517V118.148H131.314V104.55Z" fill="white"/>
<path d="M142.271 104.55V105.108H143.009V107.087H143.619V105.108H144.407V104.55H142.271Z" fill="white"/>
<path d="M144.839 107.087V104.55H145.398L146.339 106.072H145.932L146.873 104.575H147.407V107.112H146.822V106.326C146.822 106.123 146.822 105.92 146.822 105.742C146.822 105.564 146.822 105.387 146.873 105.209L146.949 105.387L146.237 106.478H146.009L145.322 105.387L145.398 105.184C145.398 105.336 145.449 105.514 145.449 105.691C145.449 105.869 145.449 106.072 145.449 106.3V107.087H144.839Z" fill="white"/>
</svg>
