<?xml version="1.0" encoding="UTF-8"?>
<svg id="Layer_1" data-name="Layer 1" xmlns="http://www.w3.org/2000/svg" viewBox="0 0 103.12 49.14">
  <defs>
    <style>
      .cls-1 {
        fill: #232156;
      }

      .cls-1, .cls-2, .cls-3, .cls-4, .cls-5, .cls-6, .cls-7 {
        stroke-width: 0px;
      }

      .cls-2 {
        fill: #f47621;
      }

      .cls-3 {
        fill: #1dad73;
      }

      .cls-4 {
        fill: #4278bc;
      }

      .cls-5 {
        fill: #fff;
      }

      .cls-6 {
        fill: #222256;
      }

      .cls-7 {
        fill: #e44128;
      }
    </style>
  </defs>
  <g>
    <path class="cls-1" d="M41.75,4.73c-.21-.27-.5-.47-.87-.6-.36-.13-.71-.2-1.03-.2-.19,0-.39.02-.59.07-.2.04-.39.11-.57.21-.18.1-.33.22-.44.38-.11.16-.17.35-.17.57,0,.36.13.63.4.82.27.19.61.35,1.02.49.41.13.85.27,1.32.41.47.13.91.32,1.32.57.41.25.75.58,1.02.99.27.41.4.97.4,1.67,0,.66-.12,1.24-.37,1.73-.25.49-.58.9-1,1.23-.42.32-.91.57-1.46.72-.56.16-1.14.24-1.76.23-.77,0-1.49-.12-2.15-.35-.66-.24-1.28-.62-1.85-1.15l1.87-2.05c.27.36.61.64,1.02.84.41.19.83.29,1.27.29.21,0,.43-.02.65-.07.22-.05.42-.12.59-.23.17-.1.31-.23.42-.39.11-.16.16-.34.16-.56,0-.36-.14-.64-.41-.85-.27-.21-.62-.39-1.03-.53-.42-.15-.86-.29-1.35-.44-.48-.15-.93-.34-1.35-.59-.42-.25-.76-.57-1.04-.98-.27-.4-.41-.94-.41-1.6,0-.64.13-1.2.38-1.68.25-.48.59-.88,1.01-1.21.42-.33.91-.57,1.46-.73.55-.16,1.12-.24,1.7-.24.68,0,1.33.1,1.95.29.63.19,1.19.51,1.7.96l-1.8,1.97Z"/>
    <path class="cls-1" d="M44.36,2.98c0-.4.14-.75.43-1.04.29-.28.63-.43,1.04-.43s.75.14,1.03.43c.29.29.43.63.43,1.04,0,.4-.14.75-.43,1.04-.29.29-.63.43-1.03.43-.41,0-.75-.14-1.04-.43-.28-.29-.43-.63-.43-1.04M44.56,5.56h2.52s0,8.18,0,8.18h-2.52s0-8.18,0-8.18Z"/>
    <path class="cls-1" d="M48.23,5.56h2.42s0,1.11,0,1.11h.03c.08-.16.19-.31.34-.47.15-.16.32-.3.52-.42.2-.12.43-.22.69-.3.26-.08.54-.12.84-.12.57,0,1.08.12,1.52.36.44.24.78.61,1,1.11.29-.53.65-.9,1.06-1.13.42-.22.93-.34,1.53-.34.55,0,1.01.09,1.39.28.38.18.67.44.89.76.22.32.37.7.47,1.13.09.43.14.9.14,1.39v4.83s-2.53,0-2.53,0v-4.76c0-.38-.08-.71-.24-.98-.16-.28-.45-.41-.87-.41-.29,0-.54.05-.73.14-.2.1-.35.23-.47.39-.12.17-.2.36-.25.59-.05.22-.08.46-.08.71v4.32s-2.53,0-2.53,0v-4.32c0-.14,0-.32-.01-.54-.01-.21-.05-.41-.12-.61-.07-.19-.18-.35-.33-.49-.15-.13-.37-.2-.67-.2-.33,0-.59.06-.79.18-.2.12-.36.27-.46.47-.11.19-.18.42-.21.66-.03.25-.05.51-.05.77v4.07s-2.53,0-2.53,0V5.56Z"/>
    <path class="cls-1" d="M62.09,5.57h2.32s0,1.08,0,1.08h.03c.1-.14.23-.29.4-.44.16-.15.35-.29.57-.41.22-.12.46-.22.71-.3.26-.08.53-.12.82-.12.61,0,1.16.1,1.65.31.49.21.92.5,1.27.88.35.38.62.82.82,1.34.19.52.28,1.08.28,1.7,0,.57-.09,1.12-.26,1.64-.17.52-.42.99-.74,1.39-.32.4-.71.73-1.17.97-.46.24-.98.36-1.57.36-.53,0-1.02-.08-1.47-.24-.45-.16-.83-.44-1.12-.83h-.03v4.71s-2.53,0-2.53,0V5.57ZM64.41,9.66c0,.62.18,1.12.53,1.5.35.38.85.57,1.49.57.64,0,1.14-.19,1.49-.57.35-.38.53-.88.53-1.5,0-.62-.17-1.12-.53-1.5-.35-.38-.85-.57-1.49-.57-.64,0-1.14.19-1.49.57-.35.38-.53.88-.53,1.5"/>
  </g>
  <rect class="cls-1" x="66.72" y="6.14" width="12.72" height="2.52" transform="translate(65.59 80.47) rotate(-89.93)"/>
  <path class="cls-1" d="M83.22,12.36c-.4.51-.91.91-1.53,1.19-.62.28-1.26.42-1.92.42-.63,0-1.22-.1-1.78-.3-.55-.2-1.04-.49-1.45-.87-.41-.38-.73-.83-.97-1.35-.24-.53-.35-1.12-.35-1.77,0-.65.12-1.24.36-1.77.24-.53.56-.98.97-1.35.41-.38.89-.67,1.45-.87.56-.2,1.15-.3,1.77-.3.58,0,1.11.1,1.59.3.48.2.88.49,1.21.87.33.38.59.83.77,1.36.18.53.27,1.12.27,1.77v.79s-5.86,0-5.86,0c.1.48.32.87.65,1.15.34.29.75.43,1.24.43.41,0,.77-.09,1.05-.28.28-.18.54-.42.75-.71l1.77,1.3ZM81.09,8.75c.01-.43-.13-.79-.42-1.09-.29-.3-.67-.45-1.13-.45-.28,0-.53.04-.74.13-.21.09-.4.21-.55.34-.15.14-.27.3-.35.49-.08.19-.13.38-.14.58h3.33Z"/>
  <polygon class="cls-1" points="83.64 1.01 83.64 1.46 84.25 1.46 84.25 3.09 84.76 3.09 84.76 1.46 85.39 1.46 85.39 1.02 83.64 1.01"/>
  <path class="cls-1" d="M85.74,3.09V1.02h.45l.76,1.23h-.32s.76-1.23.76-1.23h.43s0,2.08,0,2.08h-.49s0-.65,0-.65c0-.18,0-.34.02-.48,0-.14.02-.28.04-.42l.06.15-.58.89h-.2l-.56-.89.06-.16c.02.13.04.27.04.41.01.14.01.31.01.5v.64h-.49Z"/>
  <polygon class="cls-1" points="36.01 19.56 43.88 19.56 43.88 21.95 38.6 21.95 38.6 24.33 43.48 24.33 43.48 26.72 38.6 26.72 38.6 31.29 36.01 31.29 36.01 19.56"/>
  <path class="cls-1" d="M49.03,22.97l-1.42,3.64h2.87l-1.44-3.64ZM48.04,19.56h2.14l5.1,11.73h-2.91l-1.01-2.49h-4.55l-.98,2.49h-2.85l5.07-11.73Z"/>
  <polygon class="cls-1" points="56.12 19.56 60.03 19.56 62.73 27.21 62.76 27.21 65.48 19.56 69.37 19.56 69.37 31.29 66.79 31.29 66.79 22.29 66.75 22.29 63.67 31.29 61.7 31.29 58.74 22.29 58.7 22.29 58.7 31.29 56.12 31.29 56.12 19.56"/>
  <rect class="cls-1" x="71.72" y="19.56" width="2.58" height="11.73"/>
  <polygon class="cls-1" points="76.44 19.56 79.03 19.56 79.03 28.9 83.81 28.9 83.81 31.29 76.44 31.29 76.44 19.56"/>
  <polygon class="cls-1" points="86.3 26.29 81.89 19.56 85.1 19.56 87.59 23.95 90.22 19.56 93.29 19.56 88.88 26.29 88.88 31.29 86.3 31.29 86.3 26.29"/>
  <g>
    <path class="cls-1" d="M.63,35.23h1.02l.68,2.71h.01l.88-2.71h.87l.88,2.79h.01l.71-2.79h.94l-1.24,4.23h-.83l-.93-2.93h-.01l-.93,2.93h-.8l-1.25-4.23Z"/>
    <path class="cls-1" d="M9.58,38.96c-.14.18-.33.32-.54.42-.22.1-.45.15-.68.15-.22,0-.43-.04-.63-.11-.2-.07-.37-.17-.51-.31s-.26-.29-.34-.48c-.08-.19-.12-.4-.12-.63s.04-.44.12-.63.2-.35.34-.48c.15-.13.32-.24.51-.31.2-.07.41-.11.63-.11.21,0,.4.04.57.11.17.07.31.17.43.31.12.13.21.29.27.48.06.19.1.4.1.63v.28h-2.08c.04.17.11.31.23.41.12.1.27.15.44.15.15,0,.27-.03.37-.1.1-.07.19-.15.27-.25l.63.46ZM8.82,37.68c0-.15-.05-.28-.15-.39-.1-.11-.24-.16-.4-.16-.1,0-.19.02-.26.05-.08.03-.14.07-.19.12s-.1.11-.12.17c-.03.07-.05.13-.05.21h1.18Z"/>
    <path class="cls-1" d="M12.08,39.1h-.01c-.1.16-.23.27-.4.33-.17.07-.34.1-.52.1-.13,0-.27-.02-.39-.06-.12-.04-.24-.09-.33-.17-.1-.08-.17-.17-.23-.28s-.08-.24-.08-.39c0-.17.03-.31.09-.42.06-.12.15-.21.25-.29.11-.08.23-.13.36-.18.13-.04.28-.07.42-.09.15-.02.29-.03.44-.04s.28,0,.4,0c0-.16-.06-.29-.17-.38-.11-.09-.25-.14-.4-.14s-.28.03-.4.09c-.12.06-.23.15-.33.25l-.48-.49c.17-.16.36-.27.59-.35.22-.08.45-.12.69-.12.26,0,.48.03.65.1.17.07.3.16.41.29.1.13.17.28.21.47.04.19.06.4.06.64v1.48h-.83v-.36ZM11.86,38.19c-.07,0-.15,0-.25,0-.1,0-.2.02-.29.05-.09.03-.17.07-.24.12s-.1.13-.1.23c0,.11.05.19.14.24.09.05.19.08.29.08.09,0,.17-.01.25-.04.08-.02.15-.06.22-.1.06-.04.11-.1.15-.17s.06-.15.06-.24v-.19h-.22Z"/>
    <path class="cls-1" d="M13.48,34.94h.9v4.52h-.9v-4.52Z"/>
    <path class="cls-1" d="M17,37.27h-.79v.97c0,.08,0,.15.01.22,0,.07.03.12.05.17.03.05.07.08.13.11.06.03.13.04.23.04.05,0,.11,0,.19-.01.08,0,.14-.03.18-.07v.75c-.1.04-.2.06-.31.07s-.21.02-.32.02c-.15,0-.29-.02-.42-.05-.13-.03-.24-.08-.33-.15-.09-.07-.17-.16-.22-.27s-.08-.25-.08-.41v-1.38h-.57v-.72h.57v-.86h.9v.86h.79v.72Z"/>
    <path class="cls-1" d="M18.35,34.94v2.01h.01c.02-.06.05-.11.1-.17s.11-.11.17-.15c.07-.04.15-.08.24-.11.09-.03.19-.04.3-.04.23,0,.41.04.55.1s.25.17.33.29c.08.12.13.27.16.44.03.17.04.35.04.54v1.6h-.9v-1.42c0-.08,0-.17,0-.26,0-.09-.02-.17-.05-.25-.03-.08-.08-.14-.14-.19-.06-.05-.15-.07-.27-.07s-.21.02-.28.06c-.07.04-.13.1-.17.17-.04.07-.06.15-.07.24-.01.09-.02.18-.02.28v1.45h-.9v-4.52h.9Z"/>
    <path class="cls-1" d="M22.77,35.23h1.57c.22,0,.43.02.62.06s.37.11.51.21.26.23.35.39.13.37.13.62-.04.45-.12.62c-.08.17-.19.3-.33.4s-.3.17-.5.21c-.19.04-.4.06-.62.06h-.68v1.65h-.93v-4.23ZM23.71,37.02h.62c.08,0,.16,0,.24-.02.08-.02.15-.04.21-.08.06-.04.11-.09.15-.16.04-.07.06-.15.06-.25,0-.11-.02-.19-.07-.26-.05-.07-.11-.12-.19-.15s-.16-.06-.26-.07-.19-.01-.28-.01h-.48v1Z"/>
    <path class="cls-1" d="M26.42,36.55h.9v.47h.01c.1-.18.21-.31.34-.4.13-.09.3-.13.5-.13.05,0,.1,0,.16,0s.1.01.14.02v.82c-.06-.02-.13-.04-.19-.04s-.13-.01-.19-.01c-.17,0-.31.02-.41.07s-.18.12-.23.2c-.05.09-.09.19-.1.31-.02.12-.02.25-.02.39v1.21h-.9v-2.91Z"/>
    <path class="cls-1" d="M31.5,38.96c-.14.18-.33.32-.54.42-.22.1-.45.15-.68.15-.22,0-.43-.04-.63-.11-.2-.07-.37-.17-.51-.31s-.26-.29-.34-.48c-.08-.19-.12-.4-.12-.63s.04-.44.12-.63.2-.35.34-.48c.15-.13.32-.24.51-.31.2-.07.41-.11.63-.11.21,0,.4.04.57.11.17.07.31.17.43.31.12.13.21.29.27.48.06.19.1.4.1.63v.28h-2.08c.04.17.11.31.23.41.12.1.27.15.44.15.15,0,.27-.03.37-.1.1-.07.19-.15.27-.25l.63.46ZM30.75,37.68c0-.15-.05-.28-.15-.39-.1-.11-.24-.16-.4-.16-.1,0-.19.02-.26.05-.08.03-.14.07-.19.12s-.1.11-.12.17c-.03.07-.05.13-.05.21h1.18Z"/>
    <path class="cls-1" d="M33.83,37.41c-.13-.16-.31-.25-.52-.25-.08,0-.15.02-.22.05-.07.04-.11.1-.11.18,0,.07.04.12.11.16.07.03.17.06.28.09.11.03.24.05.37.08.13.03.25.08.36.14s.21.15.28.26c.07.11.11.26.11.44s-.04.34-.12.46c-.08.12-.19.22-.31.29-.13.07-.27.13-.43.16-.16.03-.32.04-.47.04-.2,0-.41-.03-.62-.09-.21-.06-.38-.16-.53-.31l.54-.6c.08.1.18.18.28.24.1.05.22.08.36.08.1,0,.2-.02.28-.04.08-.03.13-.08.13-.17,0-.08-.04-.13-.11-.17-.07-.04-.17-.07-.28-.1-.11-.03-.24-.05-.36-.08-.13-.03-.25-.07-.37-.13-.11-.06-.21-.14-.28-.25-.07-.11-.11-.26-.11-.44,0-.17.04-.32.1-.44.07-.12.16-.23.28-.3.11-.08.24-.14.39-.18s.3-.06.45-.06c.19,0,.38.03.58.08s.36.16.5.3l-.55.54Z"/>
    <path class="cls-1" d="M37.7,38.96c-.14.18-.33.32-.54.42-.22.1-.45.15-.68.15-.22,0-.43-.04-.63-.11-.2-.07-.37-.17-.51-.31s-.26-.29-.34-.48c-.08-.19-.12-.4-.12-.63s.04-.44.12-.63.2-.35.34-.48c.15-.13.32-.24.51-.31.2-.07.41-.11.63-.11.21,0,.4.04.57.11.17.07.31.17.43.31.12.13.21.29.27.48.06.19.1.4.1.63v.28h-2.08c.04.17.11.31.23.41.12.1.27.15.44.15.15,0,.27-.03.37-.1.1-.07.19-.15.27-.25l.63.46ZM36.94,37.68c0-.15-.05-.28-.15-.39-.1-.11-.24-.16-.4-.16-.1,0-.19.02-.26.05-.08.03-.14.07-.19.12s-.1.11-.12.17c-.03.07-.05.13-.05.21h1.18Z"/>
    <path class="cls-1" d="M38.38,36.55h.9v.47h.01c.1-.18.21-.31.34-.4.13-.09.3-.13.5-.13.05,0,.1,0,.16,0s.1.01.14.02v.82c-.06-.02-.13-.04-.19-.04s-.13-.01-.19-.01c-.17,0-.31.02-.41.07s-.18.12-.23.2c-.05.09-.09.19-.1.31-.02.12-.02.25-.02.39v1.21h-.9v-2.91Z"/>
    <path class="cls-1" d="M40.51,36.55h.97l.74,1.97h.01l.68-1.97h.9l-1.15,2.91h-.95l-1.2-2.91Z"/>
    <path class="cls-1" d="M45.96,39.1h-.01c-.1.16-.23.27-.4.33-.17.07-.34.1-.52.1-.13,0-.27-.02-.39-.06-.12-.04-.24-.09-.33-.17-.1-.08-.17-.17-.23-.28s-.08-.24-.08-.39c0-.17.03-.31.09-.42.06-.12.15-.21.25-.29.11-.08.23-.13.36-.18.13-.04.28-.07.42-.09.15-.02.29-.03.44-.04s.28,0,.4,0c0-.16-.06-.29-.17-.38-.11-.09-.25-.14-.4-.14s-.28.03-.4.09c-.12.06-.23.15-.33.25l-.48-.49c.17-.16.36-.27.59-.35.22-.08.45-.12.69-.12.26,0,.48.03.65.1.17.07.3.16.41.29.1.13.17.28.21.47.04.19.06.4.06.64v1.48h-.83v-.36ZM45.74,38.19c-.07,0-.15,0-.25,0-.1,0-.2.02-.29.05-.09.03-.17.07-.24.12s-.1.13-.1.23c0,.11.05.19.14.24.09.05.19.08.29.08.09,0,.17-.01.25-.04.08-.02.15-.06.22-.1.06-.04.11-.1.15-.17s.06-.15.06-.24v-.19h-.22Z"/>
    <path class="cls-1" d="M49.33,37.27h-.79v.97c0,.08,0,.15.01.22,0,.07.03.12.05.17.03.05.07.08.13.11.06.03.13.04.23.04.05,0,.11,0,.19-.01.08,0,.14-.03.18-.07v.75c-.1.04-.2.06-.31.07s-.21.02-.32.02c-.15,0-.29-.02-.42-.05-.13-.03-.24-.08-.33-.15-.09-.07-.17-.16-.22-.27s-.08-.25-.08-.41v-1.38h-.57v-.72h.57v-.86h.9v.86h.79v.72Z"/>
    <path class="cls-1" d="M49.72,35.64c0-.14.05-.27.15-.37.1-.1.22-.15.37-.15s.27.05.37.15c.1.1.15.22.15.37s-.05.27-.15.37-.22.15-.37.15-.27-.05-.37-.15-.15-.22-.15-.37ZM49.79,36.55h.9v2.91h-.9v-2.91Z"/>
    <path class="cls-1" d="M51.23,38.01c0-.23.04-.44.13-.63.08-.19.2-.35.34-.48.15-.13.32-.24.51-.31.2-.07.41-.11.63-.11s.43.04.63.11c.2.07.37.17.51.31.15.13.26.29.34.48s.12.4.12.63-.04.44-.12.63c-.08.19-.2.35-.34.48s-.32.24-.51.31c-.2.07-.41.11-.63.11s-.43-.04-.63-.11c-.2-.07-.37-.17-.51-.31s-.26-.29-.34-.48c-.08-.19-.13-.4-.13-.63ZM52.13,38.01c0,.22.06.4.19.53.13.14.3.2.53.2s.4-.07.53-.2c.13-.13.19-.31.19-.53s-.06-.4-.19-.53c-.12-.14-.3-.2-.53-.2s-.4.07-.53.2c-.12.14-.19.31-.19.53Z"/>
    <path class="cls-1" d="M54.98,36.55h.86v.39h.01c.03-.06.07-.11.12-.17s.11-.11.19-.15c.07-.04.15-.08.25-.11.09-.03.19-.04.3-.04.23,0,.41.04.55.1s.25.17.33.29c.08.12.13.27.16.44.03.17.04.35.04.54v1.6h-.9v-1.42c0-.08,0-.17,0-.26,0-.09-.02-.17-.05-.25-.03-.08-.08-.14-.14-.19-.06-.05-.15-.07-.27-.07s-.21.02-.28.06c-.07.04-.13.1-.17.17-.04.07-.06.15-.07.24-.01.09-.02.18-.02.28v1.45h-.9v-2.91Z"/>
    <path class="cls-1" d="M60.91,34.98v5.98h-.75v-5.98h.75Z"/>
    <path class="cls-1" d="M64.21,36.05h-1.21v-.82h3.35v.82h-1.21v3.41h-.93v-3.41Z"/>
    <path class="cls-1" d="M67.94,39.1h-.01c-.1.16-.23.27-.4.33-.17.07-.34.1-.52.1-.13,0-.27-.02-.39-.06-.12-.04-.24-.09-.33-.17-.1-.08-.17-.17-.23-.28s-.08-.24-.08-.39c0-.17.03-.31.09-.42.06-.12.15-.21.25-.29.11-.08.23-.13.36-.18.13-.04.28-.07.42-.09.15-.02.29-.03.44-.04s.28,0,.4,0c0-.16-.06-.29-.17-.38-.11-.09-.25-.14-.4-.14s-.28.03-.4.09c-.12.06-.23.15-.33.25l-.48-.49c.17-.16.36-.27.59-.35.22-.08.45-.12.69-.12.26,0,.48.03.65.1.17.07.3.16.41.29.1.13.17.28.21.47.04.19.06.4.06.64v1.48h-.83v-.36ZM67.72,38.19c-.07,0-.15,0-.25,0-.1,0-.2.02-.29.05-.09.03-.17.07-.24.12s-.1.13-.1.23c0,.11.05.19.14.24.09.05.19.08.29.08.09,0,.17-.01.25-.04.08-.02.15-.06.22-.1.06-.04.11-.1.15-.17s.06-.15.06-.24v-.19h-.22Z"/>
    <path class="cls-1" d="M70.11,37.91l-.97-1.35h1.06l.51.79.5-.79h1l-.95,1.35,1.12,1.55h-1.06l-.63-.97-.68.97h-1.05l1.15-1.55Z"/>
    <path class="cls-1" d="M74.53,35.23h1.57c.22,0,.43.02.62.06s.37.11.51.21.26.23.35.39.13.37.13.62-.04.45-.12.62c-.08.17-.19.3-.33.4s-.3.17-.5.21c-.19.04-.4.06-.62.06h-.68v1.65h-.93v-4.23ZM75.47,37.02h.62c.08,0,.16,0,.24-.02.08-.02.15-.04.21-.08.06-.04.11-.09.15-.16.04-.07.06-.15.06-.25,0-.11-.02-.19-.07-.26-.05-.07-.11-.12-.19-.15s-.16-.06-.26-.07-.19-.01-.28-.01h-.48v1Z"/>
    <path class="cls-1" d="M78.2,34.94h.9v4.52h-.9v-4.52Z"/>
    <path class="cls-1" d="M81.56,39.1h-.01c-.1.16-.23.27-.4.33-.17.07-.34.1-.52.1-.13,0-.27-.02-.39-.06-.12-.04-.24-.09-.33-.17-.1-.08-.17-.17-.23-.28s-.08-.24-.08-.39c0-.17.03-.31.09-.42.06-.12.15-.21.25-.29.11-.08.23-.13.36-.18.13-.04.28-.07.42-.09.15-.02.29-.03.44-.04s.28,0,.4,0c0-.16-.06-.29-.17-.38-.11-.09-.25-.14-.4-.14s-.28.03-.4.09c-.12.06-.23.15-.33.25l-.48-.49c.17-.16.36-.27.59-.35.22-.08.45-.12.69-.12.26,0,.48.03.65.1.17.07.3.16.41.29.1.13.17.28.21.47.04.19.06.4.06.64v1.48h-.83v-.36ZM81.34,38.19c-.07,0-.15,0-.25,0-.1,0-.2.02-.29.05-.09.03-.17.07-.24.12s-.1.13-.1.23c0,.11.05.19.14.24.09.05.19.08.29.08.09,0,.17-.01.25-.04.08-.02.15-.06.22-.1.06-.04.11-.1.15-.17s.06-.15.06-.24v-.19h-.22Z"/>
    <path class="cls-1" d="M82.95,36.55h.86v.39h.01c.03-.06.07-.11.12-.17s.11-.11.19-.15c.07-.04.15-.08.25-.11.09-.03.19-.04.3-.04.23,0,.41.04.55.1s.25.17.33.29c.08.12.13.27.16.44.03.17.04.35.04.54v1.6h-.9v-1.42c0-.08,0-.17,0-.26,0-.09-.02-.17-.05-.25-.03-.08-.08-.14-.14-.19-.06-.05-.15-.07-.27-.07s-.21.02-.28.06c-.07.04-.13.1-.17.17-.04.07-.06.15-.07.24-.01.09-.02.18-.02.28v1.45h-.9v-2.91Z"/>
    <path class="cls-1" d="M86.38,36.55h.86v.39h.01c.03-.06.07-.11.12-.17s.11-.11.19-.15c.07-.04.15-.08.25-.11.09-.03.19-.04.3-.04.23,0,.41.04.55.1s.25.17.33.29c.08.12.13.27.16.44.03.17.04.35.04.54v1.6h-.9v-1.42c0-.08,0-.17,0-.26,0-.09-.02-.17-.05-.25-.03-.08-.08-.14-.14-.19-.06-.05-.15-.07-.27-.07s-.21.02-.28.06c-.07.04-.13.1-.17.17-.04.07-.06.15-.07.24-.01.09-.02.18-.02.28v1.45h-.9v-2.91Z"/>
    <path class="cls-1" d="M89.75,35.64c0-.14.05-.27.15-.37.1-.1.22-.15.37-.15s.27.05.37.15c.1.1.15.22.15.37s-.05.27-.15.37-.22.15-.37.15-.27-.05-.37-.15-.15-.22-.15-.37ZM89.82,36.55h.9v2.91h-.9v-2.91Z"/>
    <path class="cls-1" d="M91.36,36.55h.86v.39h.01c.03-.06.07-.11.12-.17s.11-.11.19-.15c.07-.04.15-.08.25-.11.09-.03.19-.04.3-.04.23,0,.41.04.55.1s.25.17.33.29c.08.12.13.27.16.44.03.17.04.35.04.54v1.6h-.9v-1.42c0-.08,0-.17,0-.26,0-.09-.02-.17-.05-.25-.03-.08-.08-.14-.14-.19-.06-.05-.15-.07-.27-.07s-.21.02-.28.06c-.07.04-.13.1-.17.17-.04.07-.06.15-.07.24-.01.09-.02.18-.02.28v1.45h-.9v-2.91Z"/>
    <path class="cls-1" d="M97.84,39.21c0,.55-.14.97-.42,1.25-.28.29-.7.43-1.26.43-.26,0-.51-.03-.76-.09s-.48-.17-.69-.34l.5-.74c.14.12.29.21.44.28.15.07.32.1.51.1.27,0,.48-.07.61-.2.13-.13.19-.3.19-.51v-.28h-.01c-.1.14-.23.24-.39.3s-.3.09-.43.09c-.21,0-.41-.04-.59-.11-.17-.07-.33-.18-.45-.31-.12-.13-.22-.29-.29-.47-.07-.18-.1-.38-.1-.6,0-.19.03-.38.09-.56s.15-.34.26-.48c.11-.14.25-.25.42-.34.16-.09.35-.13.56-.13.13,0,.24.01.35.04.11.03.2.06.28.11.08.04.16.09.21.15s.11.11.14.16h.01v-.38h.83v2.66ZM95.58,37.99c0,.1.02.19.05.27.04.09.09.16.15.23s.14.12.23.16c.09.04.18.06.28.06s.19-.02.28-.06c.09-.04.17-.09.23-.16.07-.07.12-.14.15-.23s.05-.18.05-.27-.02-.19-.05-.27-.09-.16-.15-.23c-.07-.07-.14-.12-.23-.16-.09-.04-.18-.06-.28-.06s-.2.02-.28.06-.16.09-.23.16c-.07.07-.12.14-.15.23-.04.09-.05.18-.05.27Z"/>
    <path class="cls-1" d="M101.05,34.98v5.98h-.75v-5.98h.75Z"/>
  </g>
  <g>
    <path class="cls-1" d="M1.89,43.22H.68v-.82h3.35v.82h-1.21v3.41h-.93v-3.41Z"/>
    <path class="cls-1" d="M3.84,43.73h.9v.47h.01c.1-.18.21-.31.34-.4.13-.09.3-.13.5-.13.05,0,.1,0,.16,0s.1.01.14.02v.82c-.06-.02-.13-.04-.19-.04s-.13-.01-.19-.01c-.17,0-.31.02-.41.07s-.18.12-.23.2c-.05.09-.09.19-.1.31-.02.12-.02.25-.02.39v1.21h-.9v-2.91Z"/>
    <path class="cls-1" d="M9.07,46.63h-.86v-.39h-.01c-.03.06-.07.11-.12.17-.05.06-.11.11-.18.15-.07.04-.15.08-.25.11-.09.03-.19.04-.3.04-.23,0-.41-.03-.55-.1-.14-.07-.25-.17-.33-.29-.08-.12-.13-.27-.16-.44-.03-.17-.04-.35-.04-.54v-1.6h.9v1.42c0,.08,0,.17,0,.26,0,.09.02.17.05.25.03.08.08.14.14.19.06.05.15.07.27.07s.21-.02.28-.06c.07-.04.13-.1.16-.17s.06-.15.07-.24c.01-.09.02-.18.02-.27v-1.45h.9v2.91Z"/>
    <path class="cls-1" d="M11.35,44.58c-.13-.16-.31-.25-.52-.25-.08,0-.15.02-.22.05-.07.04-.11.1-.11.18,0,.07.04.12.11.16.07.03.17.06.28.09.11.03.24.05.37.08.13.03.25.08.36.14s.21.15.28.26c.07.11.11.26.11.44s-.04.34-.12.46c-.08.12-.19.22-.31.29-.13.07-.27.13-.43.16-.16.03-.32.04-.47.04-.2,0-.41-.03-.62-.09-.21-.06-.38-.16-.53-.31l.54-.6c.08.1.18.18.28.24.1.05.22.08.36.08.1,0,.2-.02.28-.04.08-.03.13-.08.13-.17,0-.08-.04-.13-.11-.17-.07-.04-.17-.07-.28-.1-.11-.03-.24-.05-.36-.08-.13-.03-.25-.07-.37-.13-.11-.06-.21-.14-.28-.25-.07-.11-.11-.26-.11-.44,0-.17.04-.32.1-.44.07-.12.16-.23.28-.3.11-.08.24-.14.39-.18s.3-.06.45-.06c.19,0,.38.03.58.08s.36.16.5.3l-.55.54Z"/>
    <path class="cls-1" d="M14.45,44.44h-.79v.97c0,.08,0,.15.01.22,0,.07.03.12.05.17.03.05.07.08.13.11.06.03.13.04.23.04.05,0,.11,0,.19-.01.08,0,.14-.03.18-.07v.75c-.1.04-.2.06-.31.07s-.21.02-.32.02c-.15,0-.29-.02-.42-.05-.13-.03-.24-.08-.33-.15-.09-.07-.17-.16-.22-.27s-.08-.25-.08-.41v-1.38h-.57v-.72h.57v-.86h.9v.86h.79v.72Z"/>
    <path class="cls-1" d="M19.92,45.63l.94,1h-1.15l-.35-.4c-.17.18-.36.31-.56.39-.2.08-.43.12-.68.12-.19,0-.38-.03-.56-.08-.18-.05-.34-.13-.48-.24-.14-.11-.25-.24-.34-.4-.08-.16-.13-.34-.13-.56,0-.14.02-.26.07-.39.05-.12.11-.23.19-.33.08-.1.18-.19.28-.26.11-.07.23-.13.35-.18-.07-.08-.13-.15-.19-.21s-.11-.14-.15-.21c-.04-.08-.07-.16-.1-.24-.02-.08-.03-.18-.03-.28,0-.19.04-.35.11-.49.07-.13.17-.25.3-.33.12-.09.26-.15.42-.19.16-.04.32-.06.49-.06s.32.02.47.06.28.11.39.19c.11.08.2.19.27.32.07.13.1.28.1.46,0,.13-.02.25-.06.35-.04.11-.1.21-.17.3-.07.09-.16.18-.25.25-.09.07-.19.14-.3.19l.54.58.41-.56h1.04l-.89,1.18ZM18.06,44.83c-.06.04-.12.07-.18.11s-.11.08-.16.12-.08.1-.11.16c-.03.06-.04.13-.04.21s.02.15.05.21c.03.06.07.12.12.16s.11.08.18.1c.07.03.14.04.21.04.14,0,.26-.03.36-.09.1-.06.2-.13.3-.22l-.75-.81ZM18.35,43.01c-.12,0-.21.04-.29.11-.08.07-.12.17-.12.29,0,.05.01.1.04.15.02.05.05.1.09.14.03.05.07.09.11.13.04.04.08.08.12.11.05-.03.1-.06.16-.1.06-.04.11-.08.16-.13s.09-.1.12-.15c.03-.05.05-.11.05-.17,0-.12-.04-.22-.12-.28s-.18-.1-.3-.1Z"/>
    <path class="cls-1" d="M23.13,42.4h2.88v.86h-1.94v.79h1.83v.86h-1.83v.86h2.05v.86h-2.98v-4.23Z"/>
    <path class="cls-1" d="M28.39,44.58c-.13-.16-.31-.25-.52-.25-.08,0-.15.02-.22.05-.07.04-.11.1-.11.18,0,.07.04.12.11.16.07.03.17.06.28.09.11.03.24.05.37.08.13.03.25.08.36.14s.21.15.28.26c.07.11.11.26.11.44s-.04.34-.12.46c-.08.12-.19.22-.31.29-.13.07-.27.13-.43.16-.16.03-.32.04-.47.04-.2,0-.41-.03-.62-.09-.21-.06-.38-.16-.53-.31l.54-.6c.08.1.18.18.28.24.1.05.22.08.36.08.1,0,.2-.02.28-.04.08-.03.13-.08.13-.17,0-.08-.04-.13-.11-.17-.07-.04-.17-.07-.28-.1-.11-.03-.24-.05-.36-.08-.13-.03-.25-.07-.37-.13-.11-.06-.21-.14-.28-.25-.07-.11-.11-.26-.11-.44,0-.17.04-.32.1-.44.07-.12.16-.23.28-.3.11-.08.24-.14.39-.18s.3-.06.45-.06c.19,0,.38.03.58.08s.36.16.5.3l-.55.54Z"/>
    <path class="cls-1" d="M31.49,44.44h-.79v.97c0,.08,0,.15.01.22,0,.07.03.12.05.17.03.05.07.08.13.11.06.03.13.04.23.04.05,0,.11,0,.19-.01.08,0,.14-.03.18-.07v.75c-.1.04-.2.06-.31.07s-.21.02-.32.02c-.15,0-.29-.02-.42-.05-.13-.03-.24-.08-.33-.15-.09-.07-.17-.16-.22-.27s-.08-.25-.08-.41v-1.38h-.57v-.72h.57v-.86h.9v.86h.79v.72Z"/>
    <path class="cls-1" d="M33.77,46.27h-.01c-.1.16-.23.27-.4.33-.17.07-.34.1-.52.1-.13,0-.27-.02-.39-.06-.12-.04-.24-.09-.33-.17-.1-.08-.17-.17-.23-.28s-.08-.24-.08-.39c0-.17.03-.31.09-.42.06-.12.15-.21.25-.29.11-.08.23-.13.36-.18.13-.04.28-.07.42-.09.15-.02.29-.03.44-.04s.28,0,.4,0c0-.16-.06-.29-.17-.38-.11-.09-.25-.14-.4-.14s-.28.03-.4.09c-.12.06-.23.15-.33.25l-.48-.49c.17-.16.36-.27.59-.35.22-.08.45-.12.69-.12.26,0,.48.03.65.1.17.07.3.16.41.29.1.13.17.28.21.47.04.19.06.4.06.64v1.48h-.83v-.36ZM33.55,45.36c-.07,0-.15,0-.25,0-.1,0-.2.02-.29.05-.09.03-.17.07-.24.12s-.1.13-.1.23c0,.11.05.19.14.24.09.05.19.08.29.08.09,0,.17-.01.25-.04.08-.02.15-.06.22-.1.06-.04.11-.1.15-.17s.06-.15.06-.24v-.19h-.22Z"/>
    <path class="cls-1" d="M37.13,44.44h-.79v.97c0,.08,0,.15.01.22,0,.07.03.12.05.17.03.05.07.08.13.11.06.03.13.04.23.04.05,0,.11,0,.19-.01.08,0,.14-.03.18-.07v.75c-.1.04-.2.06-.31.07s-.21.02-.32.02c-.15,0-.29-.02-.42-.05-.13-.03-.24-.08-.33-.15-.09-.07-.17-.16-.22-.27s-.08-.25-.08-.41v-1.38h-.57v-.72h.57v-.86h.9v.86h.79v.72Z"/>
    <path class="cls-1" d="M40.34,46.13c-.14.18-.33.32-.54.42-.22.1-.45.15-.68.15-.22,0-.43-.04-.63-.11-.2-.07-.37-.17-.51-.31s-.26-.29-.34-.48c-.08-.19-.12-.4-.12-.63s.04-.44.12-.63.2-.35.34-.48c.15-.13.32-.24.51-.31.2-.07.41-.11.63-.11.21,0,.4.04.57.11.17.07.31.17.43.31.12.13.21.29.27.48.06.19.1.4.1.63v.28h-2.08c.04.17.11.31.23.41.12.1.27.15.44.15.15,0,.27-.03.37-.1.1-.07.19-.15.27-.25l.63.46ZM39.58,44.85c0-.15-.05-.28-.15-.39-.1-.11-.24-.16-.4-.16-.1,0-.19.02-.26.05-.08.03-.14.07-.19.12s-.1.11-.12.17c-.03.07-.05.13-.05.21h1.18Z"/>
    <path class="cls-1" d="M43.51,42.15v5.98h-.75v-5.98h.75Z"/>
    <path class="cls-1" d="M46.03,42.4h2.84v.86h-1.91v.86h1.76v.86h-1.76v1.65h-.93v-4.23Z"/>
    <path class="cls-1" d="M51.25,46.27h-.01c-.1.16-.23.27-.4.33-.17.07-.34.1-.52.1-.13,0-.27-.02-.39-.06-.12-.04-.24-.09-.33-.17-.1-.08-.17-.17-.23-.28s-.08-.24-.08-.39c0-.17.03-.31.09-.42.06-.12.15-.21.25-.29.11-.08.23-.13.36-.18.13-.04.28-.07.42-.09.15-.02.29-.03.44-.04s.28,0,.4,0c0-.16-.06-.29-.17-.38-.11-.09-.25-.14-.4-.14s-.28.03-.4.09c-.12.06-.23.15-.33.25l-.48-.49c.17-.16.36-.27.59-.35.22-.08.45-.12.69-.12.26,0,.48.03.65.1.17.07.3.16.41.29.1.13.17.28.21.47.04.19.06.4.06.64v1.48h-.83v-.36ZM51.03,45.36c-.07,0-.15,0-.25,0-.1,0-.2.02-.29.05-.09.03-.17.07-.24.12s-.1.13-.1.23c0,.11.05.19.14.24.09.05.19.08.29.08.09,0,.17-.01.25-.04.08-.02.15-.06.22-.1.06-.04.11-.1.15-.17s.06-.15.06-.24v-.19h-.22Z"/>
    <path class="cls-1" d="M52.64,43.73h.86v.39h.01c.03-.06.07-.11.12-.17s.11-.11.19-.15c.07-.04.15-.08.25-.11.09-.03.19-.04.3-.04.2,0,.38.04.54.12.16.08.28.22.36.39.1-.19.23-.32.38-.4.15-.08.33-.12.54-.12.2,0,.36.03.49.1.13.07.24.16.32.27.08.11.13.25.17.4.03.15.05.32.05.49v1.72h-.9v-1.69c0-.14-.03-.25-.09-.35s-.16-.15-.31-.15c-.1,0-.19.02-.26.05-.07.03-.12.08-.17.14-.04.06-.07.13-.09.21s-.03.16-.03.25v1.54h-.9v-1.54c0-.05,0-.12,0-.19,0-.08-.02-.15-.04-.21-.02-.07-.06-.13-.12-.17s-.13-.07-.24-.07c-.12,0-.21.02-.28.06-.07.04-.13.1-.17.17-.04.07-.06.15-.07.24-.01.09-.02.18-.02.28v1.45h-.9v-2.91Z"/>
    <path class="cls-1" d="M57.78,42.81c0-.14.05-.27.15-.37.1-.1.22-.15.37-.15s.27.05.37.15c.1.1.15.22.15.37s-.05.27-.15.37-.22.15-.37.15-.27-.05-.37-.15-.15-.22-.15-.37ZM57.85,43.73h.9v2.91h-.9v-2.91Z"/>
    <path class="cls-1" d="M59.41,42.11h.9v4.52h-.9v-4.52Z"/>
    <path class="cls-1" d="M62.62,47.1c-.06.16-.12.29-.17.41-.06.12-.13.22-.21.3-.08.08-.19.14-.33.19-.13.04-.3.06-.52.06-.23,0-.45-.04-.67-.11l.12-.74c.14.06.28.09.42.09.1,0,.18-.01.25-.03.06-.02.12-.05.16-.1s.08-.09.1-.15c.03-.06.06-.13.09-.21l.07-.17-1.27-2.93h.97l.75,1.92h.01l.64-1.92h.92l-1.32,3.38Z"/>
    <path class="cls-1" d="M69.98,46.33c-.28.14-.56.25-.86.31s-.6.1-.92.1c-.33,0-.64-.05-.91-.16-.28-.1-.52-.25-.72-.45s-.36-.43-.47-.7c-.11-.28-.17-.58-.17-.92s.06-.65.17-.92c.11-.28.27-.51.47-.7.2-.19.44-.34.72-.45.28-.1.58-.16.91-.16s.65.04.94.12.54.22.75.42l-.66.72c-.13-.13-.27-.23-.43-.3-.16-.07-.36-.1-.6-.1-.2,0-.38.03-.54.1-.16.07-.3.16-.42.28-.12.12-.2.27-.27.43-.06.17-.09.35-.09.54s.03.38.09.55c.06.17.15.31.27.43.12.12.25.22.42.28.16.07.34.1.54.1s.38-.02.53-.07c.15-.04.26-.09.35-.14v-.69h-.76v-.86h1.66v2.21Z"/>
    <path class="cls-1" d="M70.58,45.18c0-.23.04-.44.13-.63.08-.19.2-.35.34-.48.15-.13.32-.24.51-.31.2-.07.41-.11.63-.11s.43.04.63.11c.2.07.37.17.51.31.15.13.26.29.34.48s.12.4.12.63-.04.44-.12.63c-.08.19-.2.35-.34.48s-.32.24-.51.31c-.2.07-.41.11-.63.11s-.43-.04-.63-.11c-.2-.07-.37-.17-.51-.31s-.26-.29-.34-.48c-.08-.19-.13-.4-.13-.63ZM71.48,45.18c0,.22.06.4.19.53.13.14.3.2.53.2s.4-.07.53-.2c.13-.13.19-.31.19-.53s-.06-.4-.19-.53c-.12-.14-.3-.2-.53-.2s-.4.07-.53.2c-.12.14-.19.31-.19.53Z"/>
    <path class="cls-1" d="M74.03,43.73h.97l.74,1.97h.01l.68-1.97h.9l-1.15,2.91h-.95l-1.2-2.91Z"/>
    <path class="cls-1" d="M80.41,46.13c-.14.18-.33.32-.54.42-.22.1-.45.15-.68.15-.22,0-.43-.04-.63-.11-.2-.07-.37-.17-.51-.31s-.26-.29-.34-.48c-.08-.19-.12-.4-.12-.63s.04-.44.12-.63.2-.35.34-.48c.15-.13.32-.24.51-.31.2-.07.41-.11.63-.11.21,0,.4.04.57.11.17.07.31.17.43.31.12.13.21.29.27.48.06.19.1.4.1.63v.28h-2.08c.04.17.11.31.23.41.12.1.27.15.44.15.15,0,.27-.03.37-.1.1-.07.19-.15.27-.25l.63.46ZM79.65,44.85c0-.15-.05-.28-.15-.39-.1-.11-.24-.16-.4-.16-.1,0-.19.02-.26.05-.08.03-.14.07-.19.12s-.1.11-.12.17c-.03.07-.05.13-.05.21h1.18Z"/>
    <path class="cls-1" d="M81.09,43.73h.9v.47h.01c.1-.18.21-.31.34-.4.13-.09.3-.13.5-.13.05,0,.1,0,.16,0s.1.01.14.02v.82c-.06-.02-.13-.04-.19-.04s-.13-.01-.19-.01c-.17,0-.31.02-.41.07s-.18.12-.23.2c-.05.09-.09.19-.1.31-.02.12-.02.25-.02.39v1.21h-.9v-2.91Z"/>
    <path class="cls-1" d="M83.62,43.73h.86v.39h.01c.03-.06.07-.11.12-.17s.11-.11.19-.15c.07-.04.15-.08.25-.11.09-.03.19-.04.3-.04.23,0,.41.04.55.1s.25.17.33.29c.08.12.13.27.16.44.03.17.04.35.04.54v1.6h-.9v-1.42c0-.08,0-.17,0-.26,0-.09-.02-.17-.05-.25-.03-.08-.08-.14-.14-.19-.06-.05-.15-.07-.27-.07s-.21.02-.28.06c-.07.04-.13.1-.17.17-.04.07-.06.15-.07.24-.01.09-.02.18-.02.28v1.45h-.9v-2.91Z"/>
    <path class="cls-1" d="M88.88,46.27h-.01c-.1.16-.23.27-.4.33-.17.07-.34.1-.52.1-.13,0-.27-.02-.39-.06-.12-.04-.24-.09-.33-.17-.1-.08-.17-.17-.23-.28s-.08-.24-.08-.39c0-.17.03-.31.09-.42.06-.12.15-.21.25-.29.11-.08.23-.13.36-.18.13-.04.28-.07.42-.09.15-.02.29-.03.44-.04s.28,0,.4,0c0-.16-.06-.29-.17-.38-.11-.09-.25-.14-.4-.14s-.28.03-.4.09c-.12.06-.23.15-.33.25l-.48-.49c.17-.16.36-.27.59-.35.22-.08.45-.12.69-.12.26,0,.48.03.65.1.17.07.3.16.41.29.1.13.17.28.21.47.04.19.06.4.06.64v1.48h-.83v-.36ZM88.66,45.36c-.07,0-.15,0-.25,0-.1,0-.2.02-.29.05-.09.03-.17.07-.24.12s-.1.13-.1.23c0,.11.05.19.14.24.09.05.19.08.29.08.09,0,.17-.01.25-.04.08-.02.15-.06.22-.1.06-.04.11-.1.15-.17s.06-.15.06-.24v-.19h-.22Z"/>
    <path class="cls-1" d="M90.26,43.73h.86v.39h.01c.03-.06.07-.11.12-.17s.11-.11.19-.15c.07-.04.15-.08.25-.11.09-.03.19-.04.3-.04.23,0,.41.04.55.1s.25.17.33.29c.08.12.13.27.16.44.03.17.04.35.04.54v1.6h-.9v-1.42c0-.08,0-.17,0-.26,0-.09-.02-.17-.05-.25-.03-.08-.08-.14-.14-.19-.06-.05-.15-.07-.27-.07s-.21.02-.28.06c-.07.04-.13.1-.17.17-.04.07-.06.15-.07.24-.01.09-.02.18-.02.28v1.45h-.9v-2.91Z"/>
    <path class="cls-1" d="M95.66,44.67c-.04-.06-.11-.12-.19-.16-.08-.04-.17-.06-.26-.06-.23,0-.4.07-.53.2-.12.14-.19.31-.19.53s.06.4.19.53c.13.14.3.2.53.2.1,0,.19-.02.26-.07.07-.04.13-.1.19-.16l.59.62c-.14.14-.3.24-.49.3s-.37.09-.54.09c-.22,0-.43-.04-.63-.11-.2-.07-.37-.17-.51-.31s-.26-.29-.34-.48c-.08-.19-.12-.4-.12-.63s.04-.44.12-.63.2-.35.34-.48c.15-.13.32-.24.51-.31.2-.07.41-.11.63-.11.17,0,.35.03.54.09s.35.16.49.3l-.59.62Z"/>
    <path class="cls-1" d="M99.33,46.13c-.14.18-.33.32-.54.42-.22.1-.45.15-.68.15-.22,0-.43-.04-.63-.11-.2-.07-.37-.17-.51-.31s-.26-.29-.34-.48c-.08-.19-.12-.4-.12-.63s.04-.44.12-.63.2-.35.34-.48c.15-.13.32-.24.51-.31.2-.07.41-.11.63-.11.21,0,.4.04.57.11.17.07.31.17.43.31.12.13.21.29.27.48.06.19.1.4.1.63v.28h-2.08c.04.17.11.31.23.41.12.1.27.15.44.15.15,0,.27-.03.37-.1.1-.07.19-.15.27-.25l.63.46ZM98.57,44.85c0-.15-.05-.28-.15-.39-.1-.11-.24-.16-.4-.16-.1,0-.19.02-.26.05-.08.03-.14.07-.19.12s-.1.11-.12.17c-.03.07-.05.13-.05.21h1.18Z"/>
    <path class="cls-1" d="M102.5,42.15v5.98h-.75v-5.98h.75Z"/>
  </g>
  <g>
    <path class="cls-5" d="M26.37,15.27h3.57c.73,0,.78-.05.68-.78,0-.01,0-.02,0-.03-.22-1.48-.59-2.92-1.2-4.29-.49-1.1-1.13-2.12-1.89-3.06-.14-.17-.27-.32-.51-.08-.81.81-1.64,1.6-2.46,2.4-.3.3-.57.62-.87.92-.78.77-1.57,1.54-2.37,2.31-.14.13-.11.23-.03.4.28.59.56,1.18.76,1.8.1.3.21.42.52.41,1.27-.01,2.54,0,3.81,0M8.36,15.27c.08,0,.16,0,.23,0,.53-.01.56-.07.75-.57.2-.54.44-1.07.72-1.58.14-.27.1-.42-.11-.6-.21-.17-.4-.35-.59-.54-1.65-1.65-3.31-3.31-4.96-4.96-.28-.28-.33-.28-.56.04-.46.66-.93,1.3-1.34,1.99-1.07,1.8-1.61,3.78-1.84,5.85-.02.2.06.29.26.3.24.01.49.06.73.06,2.24,0,4.49,0,6.73,0M14.4,5.83c0-1.31,0-2.63,0-3.94,0-.29-.1-.42-.39-.39-.09.01-.18,0-.27.02-1.26.15-2.47.45-3.65.92-1.46.58-2.8,1.35-4.01,2.36-.16.13-.19.24-.03.38.04.04.08.08.12.12,1.85,1.87,3.69,3.73,5.54,5.6.16.16.29.17.5.07.57-.26,1.15-.54,1.75-.73.34-.1.44-.24.44-.57-.01-1.28,0-2.56,0-3.84M16.87,5.86v.9c0,1,0,2.01,0,3.01,0,.18-.01.34.22.43.68.24,1.35.5,2.02.76.18.07.3.07.45-.07,1.87-1.88,3.75-3.75,5.62-5.62.18-.18.2-.34-.02-.49-.77-.52-1.53-1.08-2.34-1.55-1.71-.97-3.56-1.5-5.51-1.7-.35-.04-.44.03-.44.39,0,1.31,0,2.63,0,3.94M15.68,23.55c-.06-.14-.09-.19-.11-.24-.48-1.43-1.27-2.66-2.43-3.65-1.37-1.16-2.94-1.87-4.74-1.9-2.45-.05-4.9-.01-7.35-.01-.41,0-.46.03-.43.43.13,2.17.97,4,2.58,5.47,1.58,1.45,3.46,2.08,5.59,2.07,1.69-.01,3.39,0,5.08,0,.29,0,.39.1.39.39-.01.9,0,1.8,0,2.71,0,.72-.02,1.45-.05,2.17-.01.27.12.35.36.35.68,0,1.36,0,2.04,0,.51,0,.53-.02.53-.52,0-1.5,0-3.01,0-4.51q0-.57.56-.58c1.43,0,2.85,0,4.28,0,.5,0,1.01.03,1.5-.02,2.34-.26,4.22-1.33,5.62-3.23.92-1.26,1.46-2.67,1.55-4.24.02-.45-.01-.48-.46-.48-2.32,0-4.63-.01-6.95,0-2.54.01-4.53,1.16-6.13,3.05-.66.78-1.1,1.69-1.43,2.75"/>
    <path class="cls-6" d="M15.68,23.55c.33-1.06.77-1.97,1.43-2.75,1.6-1.9,3.59-3.04,6.13-3.05,2.32-.01,4.63,0,6.95,0,.45,0,.48.02.46.48-.09,1.57-.62,2.98-1.55,4.24-1.39,1.9-3.28,2.97-5.62,3.23-.5.05-1,.02-1.5.02-1.42,0-2.85,0-4.28,0q-.56,0-.56.58c0,1.5,0,3.01,0,4.51,0,.5-.02.52-.53.52-.68,0-1.36,0-2.04,0-.24,0-.37-.08-.36-.35.03-.72.04-1.45.05-2.17,0-.9,0-1.8,0-2.71,0-.29-.1-.39-.39-.39-1.69,0-3.39,0-5.08,0-2.13.02-4.01-.62-5.59-2.07-1.61-1.47-2.45-3.3-2.58-5.47-.02-.41.02-.43.43-.43,2.45,0,4.9-.04,7.35.01,1.8.04,3.37.74,4.74,1.9,1.16.99,1.95,2.21,2.43,3.65.02.05.04.1.11.24"/>
    <path class="cls-3" d="M16.87,5.86c0-1.31,0-2.63,0-3.94,0-.36.09-.43.44-.39,1.95.2,3.81.73,5.51,1.7.81.46,1.56,1.02,2.34,1.54.22.15.2.31.02.49-1.88,1.87-3.75,3.75-5.62,5.62-.14.14-.26.14-.44.07-.67-.27-1.34-.53-2.02-.76-.23-.08-.22-.25-.22-.43,0-1,0-2,0-3.01v-.9"/>
    <path class="cls-7" d="M14.4,5.83c0,1.28,0,2.56,0,3.84,0,.33-.1.47-.44.57-.6.19-1.17.46-1.75.73-.21.1-.34.09-.5-.07-1.84-1.87-3.69-3.74-5.54-5.6-.04-.04-.08-.08-.12-.12-.16-.14-.13-.24.03-.37,1.2-1.02,2.55-1.78,4.01-2.36,1.17-.47,2.39-.77,3.65-.92.09-.01.18,0,.27-.02.29-.03.39.1.39.39,0,1.31,0,2.63,0,3.94"/>
    <path class="cls-4" d="M8.35,15.27c-2.24,0-4.49,0-6.73,0-.24,0-.49-.04-.73-.06-.2-.01-.28-.11-.26-.3.23-2.07.77-4.05,1.84-5.85.41-.69.88-1.33,1.34-1.99.23-.32.28-.32.56-.04,1.65,1.65,3.31,3.31,4.96,4.96.19.19.39.37.59.54.21.17.26.33.11.6-.27.51-.52,1.04-.71,1.58-.18.5-.22.56-.75.57-.08,0-.16,0-.23,0"/>
    <path class="cls-2" d="M26.37,15.27c-1.27,0-2.54,0-3.81,0-.31,0-.42-.12-.52-.41-.21-.62-.48-1.21-.76-1.8-.08-.17-.1-.27.03-.4.79-.76,1.58-1.53,2.37-2.31.3-.3.57-.63.87-.92.82-.8,1.65-1.59,2.46-2.4.24-.24.37-.09.51.08.77.94,1.4,1.95,1.89,3.06.61,1.37.99,2.81,1.2,4.29,0,.01,0,.02,0,.03.1.73.06.78-.67.78h-3.57"/>
  </g>
</svg>