<?xml version="1.0" encoding="UTF-8"?>
<svg id="Layer_1" data-name="Layer 1" xmlns="http://www.w3.org/2000/svg" viewBox="0 0 102.49 49.14">
  <defs>
    <style>
      .cls-1 {
        fill: #232156;
      }

      .cls-1, .cls-2 {
        stroke-width: 0px;
      }

      .cls-2 {
        fill: #ed2024;
      }
    </style>
  </defs>
  <g>
    <path class="cls-1" d="M2.82,36.2c-.08-.1-.18-.17-.31-.21-.13-.05-.25-.07-.37-.07-.07,0-.14,0-.21.02-.07.02-.14.04-.2.08s-.12.08-.16.13c-.04.06-.06.12-.06.2,0,.13.05.22.14.29.1.07.22.12.36.17s.3.1.47.14c.17.05.32.12.47.2s.27.21.36.35.14.34.14.59-.04.44-.13.62c-.09.18-.21.32-.36.44-.15.12-.32.2-.52.26-.2.06-.41.08-.62.08-.28,0-.53-.04-.76-.12-.24-.08-.46-.22-.66-.41l.66-.73c.1.13.22.23.36.3.15.07.3.1.45.1.08,0,.15,0,.23-.03.08-.02.15-.04.21-.08.06-.04.11-.08.15-.14s.06-.12.06-.2c0-.13-.05-.23-.15-.3-.1-.07-.22-.14-.37-.19s-.31-.1-.48-.16-.33-.12-.48-.21c-.15-.09-.27-.2-.37-.35s-.15-.33-.15-.57.04-.43.13-.6c.09-.17.21-.31.36-.43.15-.12.32-.2.52-.26s.4-.09.6-.09c.24,0,.47.03.69.1.22.07.42.18.6.34l-.64.7Z"/>
    <path class="cls-1" d="M6.79,38.89c-.14.18-.33.32-.54.42-.22.1-.45.15-.68.15-.22,0-.43-.04-.63-.11-.2-.07-.37-.17-.51-.31s-.26-.29-.34-.48c-.08-.19-.12-.4-.12-.63s.04-.44.12-.63.2-.35.34-.48c.15-.13.32-.24.51-.31.2-.07.41-.11.63-.11.21,0,.4.04.57.11.17.07.31.17.43.31.12.13.21.29.27.48.06.19.1.4.1.63v.28h-2.08c.04.17.11.31.23.41.12.1.27.15.44.15.15,0,.27-.03.37-.1.1-.07.19-.15.27-.25l.63.46ZM6.03,37.61c0-.15-.05-.28-.15-.39-.1-.11-.24-.16-.4-.16-.1,0-.19.02-.26.05-.08.03-.14.07-.19.12s-.1.11-.12.17c-.03.07-.05.13-.05.21h1.18Z"/>
    <path class="cls-1" d="M9.44,37.43c-.04-.06-.11-.12-.19-.16-.08-.04-.17-.06-.26-.06-.23,0-.4.07-.53.2-.12.14-.19.31-.19.53s.06.4.19.53c.13.14.3.2.53.2.1,0,.19-.02.26-.07.07-.04.13-.1.19-.16l.59.62c-.14.14-.3.24-.49.3s-.37.09-.54.09c-.22,0-.43-.04-.63-.11-.2-.07-.37-.17-.51-.31s-.26-.29-.34-.48c-.08-.19-.12-.4-.12-.63s.04-.44.12-.63.2-.35.34-.48c.15-.13.32-.24.51-.31.2-.07.41-.11.63-.11.17,0,.35.03.54.09s.35.16.49.3l-.59.62Z"/>
    <path class="cls-1" d="M13.15,39.4h-.86v-.39h-.01c-.03.06-.07.11-.12.17-.05.06-.11.11-.18.15-.07.04-.15.08-.25.11-.09.03-.19.04-.3.04-.23,0-.41-.03-.55-.1-.14-.07-.25-.17-.33-.29-.08-.12-.13-.27-.16-.44-.03-.17-.04-.35-.04-.54v-1.6h.9v1.42c0,.08,0,.17,0,.26,0,.09.02.17.05.25.03.08.08.14.14.19.06.05.15.07.27.07s.21-.02.28-.06c.07-.04.13-.1.16-.17s.06-.15.07-.24c.01-.09.02-.18.02-.27v-1.45h.9v2.91Z"/>
    <path class="cls-1" d="M13.78,36.49h.9v.47h.01c.1-.18.21-.31.34-.4.13-.09.3-.13.5-.13.05,0,.1,0,.16,0s.1.01.14.02v.82c-.06-.02-.13-.04-.19-.04s-.13-.01-.19-.01c-.17,0-.31.02-.41.07s-.18.12-.23.2c-.05.09-.09.19-.1.31-.02.12-.02.25-.02.39v1.21h-.9v-2.91Z"/>
    <path class="cls-1" d="M18.86,38.89c-.14.18-.33.32-.54.42-.22.1-.45.15-.68.15-.22,0-.43-.04-.63-.11-.2-.07-.37-.17-.51-.31s-.26-.29-.34-.48c-.08-.19-.12-.4-.12-.63s.04-.44.12-.63.2-.35.34-.48c.15-.13.32-.24.51-.31.2-.07.41-.11.63-.11.21,0,.4.04.57.11.17.07.31.17.43.31.12.13.21.29.27.48.06.19.1.4.1.63v.28h-2.08c.04.17.11.31.23.41.12.1.27.15.44.15.15,0,.27-.03.37-.1.1-.07.19-.15.27-.25l.63.46ZM18.1,37.61c0-.15-.05-.28-.15-.39-.1-.11-.24-.16-.4-.16-.1,0-.19.02-.26.05-.08.03-.14.07-.19.12s-.1.11-.12.17c-.03.07-.05.13-.05.21h1.18Z"/>
    <path class="cls-1" d="M22.59,39.4h-.83v-.38h-.01c-.04.05-.08.1-.14.16-.06.05-.12.1-.2.15-.08.04-.16.08-.26.11-.09.03-.19.04-.29.04-.21,0-.41-.04-.59-.11-.17-.07-.33-.18-.45-.31-.12-.13-.22-.29-.29-.48-.07-.18-.1-.38-.1-.6,0-.2.03-.4.09-.58.06-.18.15-.35.26-.49.11-.14.25-.26.42-.34.16-.09.35-.13.56-.13.19,0,.36.03.52.09.16.06.29.16.4.3h.01v-1.92h.9v4.52ZM21.76,37.94c0-.22-.06-.4-.19-.53-.12-.14-.3-.2-.53-.2s-.4.07-.53.2c-.12.14-.19.31-.19.53s.06.4.19.53c.13.14.3.2.53.2s.4-.07.53-.2c.13-.13.19-.31.19-.53Z"/>
    <path class="cls-1" d="M25.22,35.16h.93v3.37h1.73v.86h-2.66v-4.23Z"/>
    <path class="cls-1" d="M31.03,38.89c-.14.18-.33.32-.54.42-.22.1-.45.15-.68.15-.22,0-.43-.04-.63-.11-.2-.07-.37-.17-.51-.31s-.26-.29-.34-.48c-.08-.19-.12-.4-.12-.63s.04-.44.12-.63.2-.35.34-.48c.15-.13.32-.24.51-.31.2-.07.41-.11.63-.11.21,0,.4.04.57.11.17.07.31.17.43.31.12.13.21.29.27.48.06.19.1.4.1.63v.28h-2.08c.04.17.11.31.23.41.12.1.27.15.44.15.15,0,.27-.03.37-.1.1-.07.19-.15.27-.25l.63.46ZM30.27,37.61c0-.15-.05-.28-.15-.39-.1-.11-.24-.16-.4-.16-.1,0-.19.02-.26.05-.08.03-.14.07-.19.12s-.1.11-.12.17c-.03.07-.05.13-.05.21h1.18Z"/>
    <path class="cls-1" d="M31.71,36.49h.86v.39h.01c.03-.06.07-.11.12-.17s.11-.11.19-.15c.07-.04.15-.08.25-.11.09-.03.19-.04.3-.04.23,0,.41.04.55.1.14.07.25.17.33.29.08.12.13.27.16.44.03.17.04.35.04.54v1.6h-.9v-1.42c0-.08,0-.17,0-.26,0-.09-.02-.17-.05-.25-.03-.08-.08-.14-.14-.19-.06-.05-.15-.07-.27-.07s-.21.02-.28.06c-.07.04-.13.1-.17.17-.04.07-.06.15-.07.24-.01.09-.02.18-.02.28v1.45h-.9v-2.91Z"/>
    <path class="cls-1" d="M38.19,39.4h-.83v-.38h-.01c-.04.05-.08.1-.14.16-.06.05-.12.1-.2.15-.08.04-.16.08-.26.11-.09.03-.19.04-.29.04-.21,0-.41-.04-.59-.11-.17-.07-.33-.18-.45-.31-.12-.13-.22-.29-.29-.48-.07-.18-.1-.38-.1-.6,0-.2.03-.4.09-.58.06-.18.15-.35.26-.49.11-.14.25-.26.42-.34.16-.09.35-.13.56-.13.19,0,.36.03.52.09.16.06.29.16.4.3h.01v-1.92h.9v4.52ZM37.37,37.94c0-.22-.06-.4-.19-.53-.12-.14-.3-.2-.53-.2s-.4.07-.53.2c-.12.14-.19.31-.19.53s.06.4.19.53c.13.14.3.2.53.2s.4-.07.53-.2c.13-.13.19-.31.19-.53Z"/>
    <path class="cls-1" d="M38.85,35.58c0-.14.05-.27.15-.37s.22-.15.37-.15.27.05.37.15.15.22.15.37-.05.27-.15.37-.22.15-.37.15-.27-.05-.37-.15-.15-.22-.15-.37ZM38.92,36.49h.9v2.91h-.9v-2.91Z"/>
    <path class="cls-1" d="M40.46,36.49h.86v.39h.01c.03-.06.07-.11.12-.17s.11-.11.19-.15c.07-.04.15-.08.25-.11.09-.03.19-.04.3-.04.23,0,.41.04.55.1.14.07.25.17.33.29.08.12.13.27.16.44.03.17.04.35.04.54v1.6h-.9v-1.42c0-.08,0-.17,0-.26,0-.09-.02-.17-.05-.25-.03-.08-.08-.14-.14-.19-.06-.05-.15-.07-.27-.07s-.21.02-.28.06c-.07.04-.13.1-.17.17-.04.07-.06.15-.07.24-.01.09-.02.18-.02.28v1.45h-.9v-2.91Z"/>
    <path class="cls-1" d="M46.94,39.15c0,.55-.14.97-.42,1.25-.28.29-.7.43-1.26.43-.26,0-.51-.03-.76-.09s-.48-.17-.69-.34l.5-.74c.14.12.29.21.44.28s.32.1.51.1c.27,0,.48-.07.61-.2.13-.13.19-.3.19-.51v-.28h-.01c-.1.14-.23.24-.39.3s-.3.09-.43.09c-.21,0-.41-.04-.59-.11-.17-.07-.33-.18-.45-.31-.12-.13-.22-.29-.29-.47-.07-.18-.1-.38-.1-.6,0-.19.03-.38.09-.56.06-.18.15-.34.26-.48.11-.14.25-.25.42-.34.16-.09.35-.13.56-.13.13,0,.24.01.35.04.11.03.2.06.28.11.08.04.16.09.21.15s.11.11.14.16h.01v-.38h.83v2.66ZM44.68,37.92c0,.1.02.19.05.27.04.09.09.16.15.23s.14.12.23.16c.09.04.18.06.28.06s.19-.02.28-.06c.09-.04.17-.09.23-.16.07-.07.12-.14.15-.23s.05-.18.05-.27-.02-.19-.05-.27-.09-.16-.15-.23c-.07-.07-.14-.12-.23-.16-.09-.04-.18-.06-.28-.06s-.2.02-.28.06-.16.09-.23.16c-.07.07-.12.14-.15.23-.04.09-.05.18-.05.27Z"/>
    <path class="cls-1" d="M50.15,34.91v5.98h-.75v-5.98h.75Z"/>
    <path class="cls-1" d="M54.73,36.2c-.08-.1-.18-.17-.31-.21-.13-.05-.25-.07-.37-.07-.07,0-.14,0-.21.02-.07.02-.14.04-.2.08s-.12.08-.16.13c-.04.06-.06.12-.06.2,0,.13.05.22.14.29.1.07.22.12.36.17s.3.1.47.14c.17.05.32.12.47.2s.27.21.36.35.14.34.14.59-.04.44-.13.62c-.09.18-.21.32-.36.44-.15.12-.32.2-.52.26-.2.06-.41.08-.62.08-.28,0-.53-.04-.76-.12-.24-.08-.46-.22-.66-.41l.66-.73c.1.13.22.23.36.3.15.07.3.1.45.1.08,0,.15,0,.23-.03.08-.02.15-.04.21-.08.06-.04.11-.08.15-.14s.06-.12.06-.2c0-.13-.05-.23-.15-.3-.1-.07-.22-.14-.37-.19s-.31-.1-.48-.16-.33-.12-.48-.21c-.15-.09-.27-.2-.37-.35s-.15-.33-.15-.57.04-.43.13-.6c.09-.17.21-.31.36-.43.15-.12.32-.2.52-.26s.4-.09.6-.09c.24,0,.47.03.69.1.22.07.42.18.6.34l-.64.7Z"/>
    <path class="cls-1" d="M57.93,37.21h-.79v.97c0,.08,0,.15.01.22,0,.07.03.12.05.17.03.05.07.08.13.11.06.03.13.04.23.04.05,0,.11,0,.19-.01.08,0,.14-.03.18-.07v.75c-.1.04-.2.06-.31.07s-.21.02-.32.02c-.15,0-.29-.02-.42-.05-.13-.03-.24-.08-.33-.15-.09-.07-.17-.16-.22-.27s-.08-.25-.08-.41v-1.38h-.57v-.72h.57v-.86h.9v.86h.79v.72Z"/>
    <path class="cls-1" d="M58.39,36.49h.9v.47h.01c.1-.18.21-.31.34-.4.13-.09.3-.13.5-.13.05,0,.1,0,.16,0s.1.01.14.02v.82c-.06-.02-.13-.04-.19-.04s-.13-.01-.19-.01c-.17,0-.31.02-.41.07s-.18.12-.23.2c-.05.09-.09.19-.1.31-.02.12-.02.25-.02.39v1.21h-.9v-2.91Z"/>
    <path class="cls-1" d="M63.62,39.4h-.86v-.39h-.01c-.03.06-.07.11-.12.17-.05.06-.11.11-.18.15-.07.04-.15.08-.25.11-.09.03-.19.04-.3.04-.23,0-.41-.03-.55-.1-.14-.07-.25-.17-.33-.29-.08-.12-.13-.27-.16-.44-.03-.17-.04-.35-.04-.54v-1.6h.9v1.42c0,.08,0,.17,0,.26,0,.09.02.17.05.25.03.08.08.14.14.19.06.05.15.07.27.07s.21-.02.28-.06c.07-.04.13-.1.16-.17s.06-.15.07-.24c.01-.09.02-.18.02-.27v-1.45h.9v2.91Z"/>
    <path class="cls-1" d="M66.22,37.43c-.04-.06-.11-.12-.19-.16-.08-.04-.17-.06-.26-.06-.23,0-.4.07-.53.2-.12.14-.19.31-.19.53s.06.4.19.53c.13.14.3.2.53.2.1,0,.19-.02.26-.07.07-.04.13-.1.19-.16l.59.62c-.14.14-.3.24-.49.3s-.37.09-.54.09c-.22,0-.43-.04-.63-.11-.2-.07-.37-.17-.51-.31s-.26-.29-.34-.48c-.08-.19-.12-.4-.12-.63s.04-.44.12-.63.2-.35.34-.48c.15-.13.32-.24.51-.31.2-.07.41-.11.63-.11.17,0,.35.03.54.09s.35.16.49.3l-.59.62Z"/>
    <path class="cls-1" d="M69.11,37.21h-.79v.97c0,.08,0,.15.01.22,0,.07.03.12.05.17.03.05.07.08.13.11.06.03.13.04.23.04.05,0,.11,0,.19-.01.08,0,.14-.03.18-.07v.75c-.1.04-.2.06-.31.07s-.21.02-.32.02c-.15,0-.29-.02-.42-.05-.13-.03-.24-.08-.33-.15-.09-.07-.17-.16-.22-.27s-.08-.25-.08-.41v-1.38h-.57v-.72h.57v-.86h.9v.86h.79v.72Z"/>
    <path class="cls-1" d="M72.36,39.4h-.86v-.39h-.01c-.03.06-.07.11-.12.17-.05.06-.11.11-.18.15-.07.04-.15.08-.25.11-.09.03-.19.04-.3.04-.23,0-.41-.03-.55-.1-.14-.07-.25-.17-.33-.29-.08-.12-.13-.27-.16-.44-.03-.17-.04-.35-.04-.54v-1.6h.9v1.42c0,.08,0,.17,0,.26,0,.09.02.17.05.25.03.08.08.14.14.19.06.05.15.07.27.07s.21-.02.28-.06c.07-.04.13-.1.16-.17s.06-.15.07-.24c.01-.09.02-.18.02-.27v-1.45h.9v2.91Z"/>
    <path class="cls-1" d="M73,36.49h.9v.47h.01c.1-.18.21-.31.34-.4.13-.09.3-.13.5-.13.05,0,.1,0,.16,0s.1.01.14.02v.82c-.06-.02-.13-.04-.19-.04s-.13-.01-.19-.01c-.17,0-.31.02-.41.07s-.18.12-.23.2c-.05.09-.09.19-.1.31-.02.12-.02.25-.02.39v1.21h-.9v-2.91Z"/>
    <path class="cls-1" d="M78.07,38.89c-.14.18-.33.32-.54.42-.22.1-.45.15-.68.15-.22,0-.43-.04-.63-.11-.2-.07-.37-.17-.51-.31s-.26-.29-.34-.48c-.08-.19-.12-.4-.12-.63s.04-.44.12-.63.2-.35.34-.48c.15-.13.32-.24.51-.31.2-.07.41-.11.63-.11.21,0,.4.04.57.11.17.07.31.17.43.31.12.13.21.29.27.48.06.19.1.4.1.63v.28h-2.08c.04.17.11.31.23.41.12.1.27.15.44.15.15,0,.27-.03.37-.1.1-.07.19-.15.27-.25l.63.46ZM77.31,37.61c0-.15-.05-.28-.15-.39-.1-.11-.24-.16-.4-.16-.1,0-.19.02-.26.05-.08.03-.14.07-.19.12s-.1.11-.12.17c-.03.07-.05.13-.05.21h1.18Z"/>
    <path class="cls-1" d="M81.8,39.4h-.83v-.38h-.01c-.04.05-.08.1-.14.16-.06.05-.12.1-.2.15-.08.04-.16.08-.26.11-.09.03-.19.04-.29.04-.21,0-.41-.04-.59-.11-.17-.07-.33-.18-.45-.31-.12-.13-.22-.29-.29-.48-.07-.18-.1-.38-.1-.6,0-.2.03-.4.09-.58.06-.18.15-.35.26-.49.11-.14.25-.26.42-.34.16-.09.35-.13.56-.13.19,0,.36.03.52.09.16.06.29.16.4.3h.01v-1.92h.9v4.52ZM80.98,37.94c0-.22-.06-.4-.19-.53-.12-.14-.3-.2-.53-.2s-.4.07-.53.2c-.12.14-.19.31-.19.53s.06.4.19.53c.13.14.3.2.53.2s.4-.07.53-.2c.13-.13.19-.31.19-.53Z"/>
    <path class="cls-1" d="M84.4,35.16h1.4c.34,0,.66.04.96.11.31.08.57.2.8.37.23.17.41.39.54.66.13.27.2.6.2.99,0,.34-.06.64-.19.91-.13.26-.3.48-.52.66-.22.18-.47.31-.76.4-.29.09-.59.14-.9.14h-1.52v-4.23ZM85.33,38.53h.48c.22,0,.42-.02.6-.07.19-.04.35-.12.48-.22s.24-.24.32-.4c.08-.17.12-.37.12-.61,0-.21-.04-.39-.12-.54-.08-.15-.18-.28-.31-.38-.13-.1-.29-.17-.46-.22-.18-.05-.36-.08-.56-.08h-.55v2.51Z"/>
    <path class="cls-1" d="M91.57,38.89c-.14.18-.33.32-.54.42-.22.1-.45.15-.68.15-.22,0-.43-.04-.63-.11-.2-.07-.37-.17-.51-.31s-.26-.29-.34-.48c-.08-.19-.12-.4-.12-.63s.04-.44.12-.63.2-.35.34-.48c.15-.13.32-.24.51-.31.2-.07.41-.11.63-.11.21,0,.4.04.57.11.17.07.31.17.43.31.12.13.21.29.27.48.06.19.1.4.1.63v.28h-2.08c.04.17.11.31.23.41.12.1.27.15.44.15.15,0,.27-.03.37-.1.1-.07.19-.15.27-.25l.63.46ZM90.81,37.61c0-.15-.05-.28-.15-.39-.1-.11-.24-.16-.4-.16-.1,0-.19.02-.26.05-.08.03-.14.07-.19.12s-.1.11-.12.17c-.03.07-.05.13-.05.21h1.18Z"/>
    <path class="cls-1" d="M92.34,34.88h.9v1.92h.01c.1-.14.24-.24.4-.3.16-.06.34-.09.52-.09.21,0,.39.04.56.13.16.08.3.2.42.34.11.14.2.31.26.49.06.19.09.38.09.58,0,.22-.03.42-.1.6-.07.18-.17.34-.29.48-.13.13-.28.24-.45.31-.18.07-.37.11-.59.11-.1,0-.2-.01-.29-.04-.09-.03-.18-.06-.25-.11-.08-.04-.15-.09-.2-.15-.06-.05-.1-.11-.14-.16h-.01v.38h-.83v-4.52ZM93.16,37.94c0,.22.06.4.19.53.12.14.3.2.53.2s.4-.07.53-.2c.12-.13.19-.31.19-.53s-.06-.4-.19-.53c-.13-.14-.3-.2-.53-.2s-.4.07-.53.2c-.13.14-.19.31-.19.53Z"/>
    <path class="cls-1" d="M98,37.21h-.79v.97c0,.08,0,.15.01.22,0,.07.03.12.05.17.03.05.07.08.13.11.06.03.13.04.23.04.05,0,.11,0,.19-.01.08,0,.14-.03.18-.07v.75c-.1.04-.2.06-.31.07s-.21.02-.32.02c-.15,0-.29-.02-.42-.05-.13-.03-.24-.08-.33-.15-.09-.07-.17-.16-.22-.27s-.08-.25-.08-.41v-1.38h-.57v-.72h.57v-.86h.9v.86h.79v.72Z"/>
    <path class="cls-1" d="M100.95,34.91v5.98h-.75v-5.98h.75Z"/>
  </g>
  <g>
    <path class="cls-1" d="M2.82,43.37c-.08-.1-.18-.17-.31-.21-.13-.05-.25-.07-.37-.07-.07,0-.14,0-.21.02-.07.02-.14.04-.2.08s-.12.08-.16.13c-.04.06-.06.12-.06.2,0,.13.05.22.14.29.1.07.22.12.36.17s.3.1.47.14c.17.05.32.12.47.2s.27.21.36.35.14.34.14.59-.04.44-.13.62c-.09.18-.21.32-.36.44-.15.12-.32.2-.52.26-.2.06-.41.08-.62.08-.28,0-.53-.04-.76-.12-.24-.08-.46-.22-.66-.41l.66-.73c.1.13.22.23.36.3.15.07.3.1.45.1.08,0,.15,0,.23-.03.08-.02.15-.04.21-.08.06-.04.11-.08.15-.14s.06-.12.06-.2c0-.13-.05-.23-.15-.3-.1-.07-.22-.14-.37-.19s-.31-.1-.48-.16-.33-.12-.48-.21c-.15-.09-.27-.2-.37-.35s-.15-.33-.15-.57.04-.43.13-.6c.09-.17.21-.31.36-.43.15-.12.32-.2.52-.26s.4-.09.6-.09c.24,0,.47.03.69.1.22.07.42.18.6.34l-.64.7Z"/>
    <path class="cls-1" d="M4.12,43.66h.83v.38h.01c.04-.05.08-.1.14-.16s.12-.1.2-.15c.08-.04.16-.08.25-.11.09-.03.19-.04.29-.04.21,0,.41.04.59.11.17.07.33.18.45.31.12.13.22.29.29.48.07.18.1.38.1.6,0,.2-.03.4-.09.58s-.15.35-.26.49c-.11.14-.25.26-.42.34s-.35.13-.56.13c-.19,0-.36-.03-.52-.09-.16-.06-.29-.16-.4-.3h-.01v1.67h-.9v-4.27ZM4.95,45.12c0,.22.06.4.19.53.12.14.3.2.53.2s.4-.07.53-.2c.12-.13.19-.31.19-.53s-.06-.4-.19-.53c-.13-.14-.3-.2-.53-.2s-.4.07-.53.2c-.13.14-.19.31-.19.53Z"/>
    <path class="cls-1" d="M10.56,46.07c-.14.18-.33.32-.54.42-.22.1-.45.15-.68.15-.22,0-.43-.04-.63-.11-.2-.07-.37-.17-.51-.31s-.26-.29-.34-.48c-.08-.19-.12-.4-.12-.63s.04-.44.12-.63.2-.35.34-.48c.15-.13.32-.24.51-.31.2-.07.41-.11.63-.11.21,0,.4.04.57.11.17.07.31.17.43.31.12.13.21.29.27.48.06.19.1.4.1.63v.28h-2.08c.04.17.11.31.23.41.12.1.27.15.44.15.15,0,.27-.03.37-.1.1-.07.19-.15.27-.25l.63.46ZM9.8,44.79c0-.15-.05-.28-.15-.39-.1-.11-.24-.16-.4-.16-.1,0-.19.02-.26.05-.08.03-.14.07-.19.12s-.1.11-.12.17c-.03.07-.05.13-.05.21h1.18Z"/>
    <path class="cls-1" d="M13.2,44.6c-.04-.06-.11-.12-.19-.16-.08-.04-.17-.06-.26-.06-.23,0-.4.07-.53.2-.12.14-.19.31-.19.53s.06.4.19.53c.13.14.3.2.53.2.1,0,.19-.02.26-.07.07-.04.13-.1.19-.16l.59.62c-.14.14-.3.24-.49.3s-.37.09-.54.09c-.22,0-.43-.04-.63-.11-.2-.07-.37-.17-.51-.31s-.26-.29-.34-.48c-.08-.19-.12-.4-.12-.63s.04-.44.12-.63.2-.35.34-.48c.15-.13.32-.24.51-.31.2-.07.41-.11.63-.11.17,0,.35.03.54.09s.35.16.49.3l-.59.62Z"/>
    <path class="cls-1" d="M14.06,42.75c0-.14.05-.27.15-.37s.22-.15.37-.15.27.05.37.15.15.22.15.37-.05.27-.15.37-.22.15-.37.15-.27-.05-.37-.15-.15-.22-.15-.37ZM14.13,43.66h.9v2.91h-.9v-2.91Z"/>
    <path class="cls-1" d="M17.49,46.2h-.01c-.1.16-.23.27-.4.33-.17.07-.34.1-.52.1-.13,0-.27-.02-.39-.06-.12-.04-.24-.09-.33-.17-.1-.08-.17-.17-.23-.28s-.08-.24-.08-.39c0-.17.03-.31.09-.42.06-.12.15-.21.25-.29.11-.08.23-.13.36-.18.13-.04.28-.07.42-.09.15-.02.29-.03.44-.04s.28,0,.4,0c0-.16-.06-.29-.17-.38-.11-.09-.25-.14-.4-.14s-.28.03-.4.09c-.12.06-.23.15-.33.25l-.48-.49c.17-.16.36-.27.59-.35.22-.08.45-.12.69-.12.26,0,.48.03.65.1s.3.16.41.29c.1.13.17.28.21.47.04.19.06.4.06.64v1.48h-.83v-.36ZM17.27,45.29c-.07,0-.15,0-.25,0-.1,0-.2.02-.29.05-.09.03-.17.07-.24.12s-.1.13-.1.23c0,.11.05.19.14.24.09.05.19.08.29.08.09,0,.17-.01.25-.04.08-.02.15-.06.22-.1.06-.04.11-.1.15-.17s.06-.15.06-.24v-.19h-.22Z"/>
    <path class="cls-1" d="M18.89,42.05h.9v4.52h-.9v-4.52Z"/>
    <path class="cls-1" d="M24.41,43.37c-.08-.1-.18-.17-.31-.21-.13-.05-.25-.07-.37-.07-.07,0-.14,0-.21.02-.07.02-.14.04-.2.08s-.12.08-.16.13c-.04.06-.06.12-.06.2,0,.13.05.22.14.29.1.07.22.12.36.17s.3.1.47.14c.17.05.32.12.47.2s.27.21.36.35.14.34.14.59-.04.44-.13.62c-.09.18-.21.32-.36.44-.15.12-.32.2-.52.26-.2.06-.41.08-.62.08-.28,0-.53-.04-.76-.12-.24-.08-.46-.22-.66-.41l.66-.73c.1.13.22.23.36.3.15.07.3.1.45.1.08,0,.15,0,.23-.03.08-.02.15-.04.21-.08.06-.04.11-.08.15-.14s.06-.12.06-.2c0-.13-.05-.23-.15-.3-.1-.07-.22-.14-.37-.19s-.31-.1-.48-.16-.33-.12-.48-.21c-.15-.09-.27-.2-.37-.35s-.15-.33-.15-.57.04-.43.13-.6c.09-.17.21-.31.36-.43.15-.12.32-.2.52-.26s.4-.09.6-.09c.24,0,.47.03.69.1.22.07.42.18.6.34l-.64.7Z"/>
    <path class="cls-1" d="M25.58,42.75c0-.14.05-.27.15-.37s.22-.15.37-.15.27.05.37.15.15.22.15.37-.05.27-.15.37-.22.15-.37.15-.27-.05-.37-.15-.15-.22-.15-.37ZM25.65,43.66h.9v2.91h-.9v-2.91Z"/>
    <path class="cls-1" d="M29.17,44.38h-.79v.97c0,.08,0,.15.01.22,0,.07.03.12.05.17.03.05.07.08.13.11.06.03.13.04.23.04.05,0,.11,0,.19-.01.08,0,.14-.03.18-.07v.75c-.1.04-.2.06-.31.07s-.21.02-.32.02c-.15,0-.29-.02-.42-.05-.13-.03-.24-.08-.33-.15-.09-.07-.17-.16-.22-.27s-.08-.25-.08-.41v-1.38h-.57v-.72h.57v-.86h.9v.86h.79v.72Z"/>
    <path class="cls-1" d="M32.42,46.57h-.86v-.39h-.01c-.03.06-.07.11-.12.17-.05.06-.11.11-.18.15-.07.04-.15.08-.25.11-.09.03-.19.04-.3.04-.23,0-.41-.03-.55-.1-.14-.07-.25-.17-.33-.29-.08-.12-.13-.27-.16-.44-.03-.17-.04-.35-.04-.54v-1.6h.9v1.42c0,.08,0,.17,0,.26,0,.09.02.17.05.25.03.08.08.14.14.19.06.05.15.07.27.07s.21-.02.28-.06c.07-.04.13-.1.16-.17s.06-.15.07-.24c.01-.09.02-.18.02-.27v-1.45h.9v2.91Z"/>
    <path class="cls-1" d="M34.88,46.2h-.01c-.1.16-.23.27-.4.33-.17.07-.34.1-.52.1-.13,0-.27-.02-.39-.06-.12-.04-.24-.09-.33-.17-.1-.08-.17-.17-.23-.28s-.08-.24-.08-.39c0-.17.03-.31.09-.42.06-.12.15-.21.25-.29.11-.08.23-.13.36-.18.13-.04.28-.07.42-.09.15-.02.29-.03.44-.04s.28,0,.4,0c0-.16-.06-.29-.17-.38-.11-.09-.25-.14-.4-.14s-.28.03-.4.09c-.12.06-.23.15-.33.25l-.48-.49c.17-.16.36-.27.59-.35.22-.08.45-.12.69-.12.26,0,.48.03.65.1s.3.16.41.29c.1.13.17.28.21.47.04.19.06.4.06.64v1.48h-.83v-.36ZM34.66,45.29c-.07,0-.15,0-.25,0-.1,0-.2.02-.29.05-.09.03-.17.07-.24.12s-.1.13-.1.23c0,.11.05.19.14.24.09.05.19.08.29.08.09,0,.17-.01.25-.04.08-.02.15-.06.22-.1.06-.04.11-.1.15-.17s.06-.15.06-.24v-.19h-.22Z"/>
    <path class="cls-1" d="M38.24,44.38h-.79v.97c0,.08,0,.15.01.22,0,.07.03.12.05.17.03.05.07.08.13.11.06.03.13.04.23.04.05,0,.11,0,.19-.01.08,0,.14-.03.18-.07v.75c-.1.04-.2.06-.31.07s-.21.02-.32.02c-.15,0-.29-.02-.42-.05-.13-.03-.24-.08-.33-.15-.09-.07-.17-.16-.22-.27s-.08-.25-.08-.41v-1.38h-.57v-.72h.57v-.86h.9v.86h.79v.72Z"/>
    <path class="cls-1" d="M38.64,42.75c0-.14.05-.27.15-.37s.22-.15.37-.15.27.05.37.15.15.22.15.37-.05.27-.15.37-.22.15-.37.15-.27-.05-.37-.15-.15-.22-.15-.37ZM38.71,43.66h.9v2.91h-.9v-2.91Z"/>
    <path class="cls-1" d="M40.14,45.12c0-.23.04-.44.13-.63.08-.19.2-.35.34-.48.15-.13.32-.24.51-.31.2-.07.41-.11.63-.11s.43.04.63.11c.2.07.37.17.51.31.15.13.26.29.34.48.08.19.12.4.12.63s-.04.44-.12.63c-.08.19-.2.35-.34.48s-.32.24-.51.31c-.2.07-.41.11-.63.11s-.43-.04-.63-.11c-.2-.07-.37-.17-.51-.31s-.26-.29-.34-.48c-.08-.19-.13-.4-.13-.63ZM41.04,45.12c0,.22.06.4.19.53.13.14.3.2.53.2s.4-.07.53-.2c.13-.13.19-.31.19-.53s-.06-.4-.19-.53c-.12-.14-.3-.2-.53-.2s-.4.07-.53.2c-.12.14-.19.31-.19.53Z"/>
    <path class="cls-1" d="M43.89,43.66h.86v.39h.01c.03-.06.07-.11.12-.17s.11-.11.19-.15c.07-.04.15-.08.25-.11.09-.03.19-.04.3-.04.23,0,.41.04.55.1.14.07.25.17.33.29.08.12.13.27.16.44.03.17.04.35.04.54v1.6h-.9v-1.42c0-.08,0-.17,0-.26,0-.09-.02-.17-.05-.25-.03-.08-.08-.14-.14-.19-.06-.05-.15-.07-.27-.07s-.21.02-.28.06c-.07.04-.13.1-.17.17-.04.07-.06.15-.07.24-.01.09-.02.18-.02.28v1.45h-.9v-2.91Z"/>
    <path class="cls-1" d="M48.97,44.52c-.13-.16-.31-.25-.52-.25-.08,0-.15.02-.22.05-.07.04-.11.1-.11.19,0,.07.04.12.11.16.07.03.17.06.28.09.11.03.24.05.37.08.13.03.25.08.36.14s.21.15.28.26c.07.11.11.26.11.44s-.04.34-.12.46c-.08.12-.19.22-.31.29-.13.07-.27.13-.43.16-.16.03-.32.04-.47.04-.2,0-.41-.03-.62-.09-.21-.06-.38-.16-.53-.31l.54-.6c.08.1.18.18.28.24.1.05.22.08.36.08.1,0,.2-.02.28-.04.08-.03.13-.08.13-.17,0-.08-.04-.13-.11-.17-.07-.04-.17-.07-.28-.1-.11-.03-.24-.05-.36-.08-.13-.03-.25-.07-.37-.13-.11-.06-.21-.14-.28-.25-.07-.11-.11-.26-.11-.44,0-.17.04-.32.1-.44.07-.12.16-.23.28-.3.11-.08.24-.14.39-.18s.3-.06.45-.06c.19,0,.38.03.58.08.19.06.36.16.5.3l-.55.54Z"/>
    <path class="cls-1" d="M52.59,42.09v5.98h-.75v-5.98h.75Z"/>
    <path class="cls-1" d="M55.11,42.34h.93v3.37h1.73v.86h-2.66v-4.23Z"/>
    <path class="cls-1" d="M60.92,46.07c-.14.18-.33.32-.54.42-.22.1-.45.15-.68.15-.22,0-.43-.04-.63-.11-.2-.07-.37-.17-.51-.31s-.26-.29-.34-.48c-.08-.19-.12-.4-.12-.63s.04-.44.12-.63.2-.35.34-.48c.15-.13.32-.24.51-.31.2-.07.41-.11.63-.11.21,0,.4.04.57.11.17.07.31.17.43.31.12.13.21.29.27.48.06.19.1.4.1.63v.28h-2.08c.04.17.11.31.23.41.12.1.27.15.44.15.15,0,.27-.03.37-.1.1-.07.19-.15.27-.25l.63.46ZM60.16,44.79c0-.15-.05-.28-.15-.39-.1-.11-.24-.16-.4-.16-.1,0-.19.02-.26.05-.08.03-.14.07-.19.12s-.1.11-.12.17c-.03.07-.05.13-.05.21h1.18Z"/>
    <path class="cls-1" d="M63.42,46.2h-.01c-.1.16-.23.27-.4.33-.17.07-.34.1-.52.1-.13,0-.27-.02-.39-.06-.12-.04-.24-.09-.33-.17-.1-.08-.17-.17-.23-.28s-.08-.24-.08-.39c0-.17.03-.31.09-.42.06-.12.15-.21.25-.29.11-.08.23-.13.36-.18.13-.04.28-.07.42-.09.15-.02.29-.03.44-.04s.28,0,.4,0c0-.16-.06-.29-.17-.38-.11-.09-.25-.14-.4-.14s-.28.03-.4.09c-.12.06-.23.15-.33.25l-.48-.49c.17-.16.36-.27.59-.35.22-.08.45-.12.69-.12.26,0,.48.03.65.1s.3.16.41.29c.1.13.17.28.21.47.04.19.06.4.06.64v1.48h-.83v-.36ZM63.2,45.29c-.07,0-.15,0-.25,0-.1,0-.2.02-.29.05-.09.03-.17.07-.24.12s-.1.13-.1.23c0,.11.05.19.14.24.09.05.19.08.29.08.09,0,.17-.01.25-.04.08-.02.15-.06.22-.1.06-.04.11-.1.15-.17s.06-.15.06-.24v-.19h-.22Z"/>
    <path class="cls-1" d="M66.45,44.52c-.13-.16-.31-.25-.52-.25-.08,0-.15.02-.22.05-.07.04-.11.1-.11.19,0,.07.04.12.11.16.07.03.17.06.28.09.11.03.24.05.37.08.13.03.25.08.36.14s.21.15.28.26c.07.11.11.26.11.44s-.04.34-.12.46c-.08.12-.19.22-.31.29-.13.07-.27.13-.43.16-.16.03-.32.04-.47.04-.2,0-.41-.03-.62-.09-.21-.06-.38-.16-.53-.31l.54-.6c.08.1.18.18.28.24.1.05.22.08.36.08.1,0,.2-.02.28-.04.08-.03.13-.08.13-.17,0-.08-.04-.13-.11-.17-.07-.04-.17-.07-.28-.1-.11-.03-.24-.05-.36-.08-.13-.03-.25-.07-.37-.13-.11-.06-.21-.14-.28-.25-.07-.11-.11-.26-.11-.44,0-.17.04-.32.1-.44.07-.12.16-.23.28-.3.11-.08.24-.14.39-.18s.3-.06.45-.06c.19,0,.38.03.58.08.19.06.36.16.5.3l-.55.54Z"/>
    <path class="cls-1" d="M70.33,46.07c-.14.18-.33.32-.54.42-.22.1-.45.15-.68.15-.22,0-.43-.04-.63-.11-.2-.07-.37-.17-.51-.31s-.26-.29-.34-.48c-.08-.19-.12-.4-.12-.63s.04-.44.12-.63.2-.35.34-.48c.15-.13.32-.24.51-.31.2-.07.41-.11.63-.11.21,0,.4.04.57.11.17.07.31.17.43.31.12.13.21.29.27.48.06.19.1.4.1.63v.28h-2.08c.04.17.11.31.23.41.12.1.27.15.44.15.15,0,.27-.03.37-.1.1-.07.19-.15.27-.25l.63.46ZM69.57,44.79c0-.15-.05-.28-.15-.39-.1-.11-.24-.16-.4-.16-.1,0-.19.02-.26.05-.08.03-.14.07-.19.12s-.1.11-.12.17c-.03.07-.05.13-.05.21h1.18Z"/>
    <path class="cls-1" d="M72.93,42.34h2.84v.86h-1.91v.86h1.76v.86h-1.76v1.65h-.93v-4.23Z"/>
    <path class="cls-1" d="M76.26,42.75c0-.14.05-.27.15-.37s.22-.15.37-.15.27.05.37.15.15.22.15.37-.05.27-.15.37-.22.15-.37.15-.27-.05-.37-.15-.15-.22-.15-.37ZM76.33,43.66h.9v2.91h-.9v-2.91Z"/>
    <path class="cls-1" d="M77.87,43.66h.86v.39h.01c.03-.06.07-.11.12-.17s.11-.11.19-.15c.07-.04.15-.08.25-.11.09-.03.19-.04.3-.04.23,0,.41.04.55.1.14.07.25.17.33.29.08.12.13.27.16.44.03.17.04.35.04.54v1.6h-.9v-1.42c0-.08,0-.17,0-.26,0-.09-.02-.17-.05-.25-.03-.08-.08-.14-.14-.19-.06-.05-.15-.07-.27-.07s-.21.02-.28.06c-.07.04-.13.1-.17.17-.04.07-.06.15-.07.24-.01.09-.02.18-.02.28v1.45h-.9v-2.91Z"/>
    <path class="cls-1" d="M83.13,46.2h-.01c-.1.16-.23.27-.4.33-.17.07-.34.1-.52.1-.13,0-.27-.02-.39-.06-.12-.04-.24-.09-.33-.17-.1-.08-.17-.17-.23-.28s-.08-.24-.08-.39c0-.17.03-.31.09-.42.06-.12.15-.21.25-.29.11-.08.23-.13.36-.18.13-.04.28-.07.42-.09.15-.02.29-.03.44-.04s.28,0,.4,0c0-.16-.06-.29-.17-.38-.11-.09-.25-.14-.4-.14s-.28.03-.4.09c-.12.06-.23.15-.33.25l-.48-.49c.17-.16.36-.27.59-.35.22-.08.45-.12.69-.12.26,0,.48.03.65.1s.3.16.41.29c.1.13.17.28.21.47.04.19.06.4.06.64v1.48h-.83v-.36ZM82.91,45.29c-.07,0-.15,0-.25,0-.1,0-.2.02-.29.05-.09.03-.17.07-.24.12s-.1.13-.1.23c0,.11.05.19.14.24.09.05.19.08.29.08.09,0,.17-.01.25-.04.08-.02.15-.06.22-.1.06-.04.11-.1.15-.17s.06-.15.06-.24v-.19h-.22Z"/>
    <path class="cls-1" d="M84.51,43.66h.86v.39h.01c.03-.06.07-.11.12-.17s.11-.11.19-.15c.07-.04.15-.08.25-.11.09-.03.19-.04.3-.04.23,0,.41.04.55.1.14.07.25.17.33.29.08.12.13.27.16.44.03.17.04.35.04.54v1.6h-.9v-1.42c0-.08,0-.17,0-.26,0-.09-.02-.17-.05-.25-.03-.08-.08-.14-.14-.19-.06-.05-.15-.07-.27-.07s-.21.02-.28.06c-.07.04-.13.1-.17.17-.04.07-.06.15-.07.24-.01.09-.02.18-.02.28v1.45h-.9v-2.91Z"/>
    <path class="cls-1" d="M89.91,44.6c-.04-.06-.11-.12-.19-.16-.08-.04-.17-.06-.26-.06-.23,0-.4.07-.53.2-.12.14-.19.31-.19.53s.06.4.19.53c.13.14.3.2.53.2.1,0,.19-.02.26-.07.07-.04.13-.1.19-.16l.59.62c-.14.14-.3.24-.49.3s-.37.09-.54.09c-.22,0-.43-.04-.63-.11-.2-.07-.37-.17-.51-.31s-.26-.29-.34-.48c-.08-.19-.12-.4-.12-.63s.04-.44.12-.63.2-.35.34-.48c.15-.13.32-.24.51-.31.2-.07.41-.11.63-.11.17,0,.35.03.54.09s.35.16.49.3l-.59.62Z"/>
    <path class="cls-1" d="M90.77,42.75c0-.14.05-.27.15-.37s.22-.15.37-.15.27.05.37.15.15.22.15.37-.05.27-.15.37-.22.15-.37.15-.27-.05-.37-.15-.15-.22-.15-.37ZM90.84,43.66h.9v2.91h-.9v-2.91Z"/>
    <path class="cls-1" d="M92.38,43.66h.86v.39h.01c.03-.06.07-.11.12-.17s.11-.11.19-.15c.07-.04.15-.08.25-.11.09-.03.19-.04.3-.04.23,0,.41.04.55.1.14.07.25.17.33.29.08.12.13.27.16.44.03.17.04.35.04.54v1.6h-.9v-1.42c0-.08,0-.17,0-.26,0-.09-.02-.17-.05-.25-.03-.08-.08-.14-.14-.19-.06-.05-.15-.07-.27-.07s-.21.02-.28.06c-.07.04-.13.1-.17.17-.04.07-.06.15-.07.24-.01.09-.02.18-.02.28v1.45h-.9v-2.91Z"/>
    <path class="cls-1" d="M98.86,46.32c0,.55-.14.97-.42,1.25-.28.29-.7.43-1.26.43-.26,0-.51-.03-.76-.09s-.48-.17-.69-.34l.5-.74c.14.12.29.21.44.28s.32.1.51.1c.27,0,.48-.07.61-.2.13-.13.19-.3.19-.51v-.28h-.01c-.1.14-.23.24-.39.3s-.3.09-.43.09c-.21,0-.41-.04-.59-.11-.17-.07-.33-.18-.45-.31-.12-.13-.22-.29-.29-.47-.07-.18-.1-.38-.1-.6,0-.19.03-.38.09-.56.06-.18.15-.34.26-.48.11-.14.25-.25.42-.34.16-.09.35-.13.56-.13.13,0,.24.01.35.04.11.03.2.06.28.11.08.04.16.09.21.15s.11.11.14.16h.01v-.38h.83v2.66ZM96.6,45.1c0,.1.02.19.05.27.04.09.09.16.15.23s.14.12.23.16c.09.04.18.06.28.06s.19-.02.28-.06c.09-.04.17-.09.23-.16.07-.07.12-.14.15-.23s.05-.18.05-.27-.02-.19-.05-.27-.09-.16-.15-.23c-.07-.07-.14-.12-.23-.16-.09-.04-.18-.06-.28-.06s-.2.02-.28.06-.16.09-.23.16c-.07.07-.12.14-.15.23-.04.09-.05.18-.05.27Z"/>
    <path class="cls-1" d="M102.07,42.09v5.98h-.75v-5.98h.75Z"/>
  </g>
  <g>
    <path class="cls-1" d="M36.96,4.76c-.21-.27-.5-.46-.86-.59-.36-.13-.7-.19-1.03-.19-.19,0-.38.02-.58.07-.2.04-.39.11-.57.21-.18.1-.32.22-.43.38-.11.15-.17.34-.17.57,0,.36.13.63.4.82.27.19.6.35,1.01.48.41.13.84.27,1.31.4.47.13.9.32,1.31.57.41.25.74.57,1.01.99.27.41.4.96.4,1.65,0,.66-.12,1.23-.37,1.72-.25.49-.58.89-.99,1.22-.42.32-.9.56-1.45.72-.55.16-1.13.23-1.74.23-.77,0-1.48-.12-2.14-.35-.66-.23-1.27-.61-1.83-1.14l1.85-2.03c.27.36.6.63,1.01.83.41.19.83.29,1.26.29.21,0,.42-.03.64-.08.22-.05.41-.12.59-.22.17-.1.31-.23.42-.38.11-.16.16-.34.16-.55,0-.36-.14-.64-.41-.84-.27-.21-.61-.38-1.02-.53-.41-.15-.86-.29-1.34-.44-.48-.14-.92-.34-1.33-.58-.41-.25-.75-.57-1.03-.97-.27-.4-.41-.93-.41-1.59,0-.63.13-1.19.38-1.67.25-.48.58-.88,1-1.2.42-.32.9-.56,1.45-.72.54-.16,1.11-.24,1.68-.24.67,0,1.31.1,1.94.28.62.19,1.18.51,1.68.95l-1.79,1.95Z"/>
    <path class="cls-1" d="M39.74,5.58h2.5s0,8.11,0,8.11h-2.5s0-8.11,0-8.11ZM39.55,3.03c0-.4.14-.74.42-1.03.28-.28.63-.42,1.03-.42s.74.14,1.03.43c.28.28.42.63.42,1.03,0,.4-.14.74-.43,1.03-.28.28-.62.42-1.03.42-.4,0-.74-.14-1.03-.43-.28-.28-.42-.63-.42-1.03"/>
    <path class="cls-1" d="M43.38,5.59h2.4s0,1.1,0,1.1h.03c.08-.16.19-.31.34-.47.14-.16.32-.29.52-.42.2-.12.43-.22.68-.3.26-.08.53-.12.84-.12.57,0,1.07.12,1.51.35.44.23.77.6.99,1.1.29-.52.64-.89,1.05-1.12.41-.22.92-.33,1.52-.33.54,0,1,.09,1.38.28.37.18.67.43.88.75.22.32.37.69.47,1.12.09.43.14.89.14,1.38v4.79s-2.51,0-2.51,0v-4.72c0-.38-.08-.7-.24-.98-.16-.27-.45-.41-.86-.41-.29,0-.53.05-.73.14-.2.09-.35.23-.47.39-.12.17-.2.36-.25.58-.05.22-.08.45-.08.7v4.29s-2.51,0-2.51,0v-4.29c0-.14,0-.32-.01-.53-.01-.21-.05-.41-.12-.6-.07-.19-.18-.35-.33-.48-.15-.13-.37-.2-.66-.2-.32,0-.58.06-.78.17-.2.12-.35.27-.46.47s-.18.41-.21.66c-.03.24-.05.5-.05.77v4.04s-2.51,0-2.51,0V5.59Z"/>
    <path class="cls-1" d="M59.43,9.66c0,.61.18,1.11.52,1.49.35.38.84.57,1.48.57.63,0,1.13-.19,1.48-.56.35-.38.53-.87.53-1.49,0-.61-.17-1.11-.52-1.49-.35-.38-.84-.57-1.48-.57-.64,0-1.13.19-1.48.57-.35.38-.53.87-.53,1.49M57.13,5.6h2.3s0,1.07,0,1.07h.03c.1-.14.23-.29.39-.44.16-.15.35-.29.57-.41.22-.12.45-.22.71-.3.26-.08.53-.12.82-.12.6,0,1.15.1,1.64.31.49.21.91.5,1.26.87.35.37.62.82.81,1.33.19.51.28,1.07.28,1.68,0,.57-.09,1.11-.26,1.63-.17.52-.42.98-.74,1.38-.32.4-.7.72-1.16.96-.46.24-.97.36-1.55.36-.52,0-1.01-.08-1.46-.24-.45-.16-.82-.44-1.11-.83h-.03v4.67s-2.51,0-2.51,0V5.6Z"/>
  </g>
  <rect class="cls-1" x="66.77" y="1.1" width="2.5" height="12.62"/>
  <path class="cls-1" d="M75.97,8.75c.01-.42-.13-.78-.41-1.08-.29-.3-.66-.45-1.12-.45-.28,0-.52.04-.73.13-.21.09-.39.2-.54.34-.15.14-.27.3-.35.48-.08.18-.13.38-.14.58h3.3ZM78.08,12.32c-.4.51-.91.91-1.52,1.18-.61.28-1.25.42-1.9.41-.62,0-1.21-.1-1.76-.3-.55-.2-1.03-.49-1.43-.86-.41-.37-.72-.82-.96-1.34-.23-.52-.35-1.11-.35-1.75,0-.64.12-1.23.35-1.75.23-.52.55-.97.96-1.34.41-.37.89-.66,1.44-.86.55-.2,1.14-.3,1.76-.3.58,0,1.1.1,1.58.3.47.2.87.49,1.2.86.33.37.58.82.76,1.34.18.52.27,1.11.27,1.75v.79s-5.81,0-5.81,0c.1.48.32.86.65,1.14.33.28.75.43,1.23.43.41,0,.76-.09,1.04-.28.28-.18.53-.42.74-.71l1.75,1.29Z"/>
  <polygon class="cls-1" points="79.1 3.13 79.1 1.52 78.49 1.52 78.49 1.08 80.23 1.08 80.23 1.52 79.6 1.52 79.6 3.13 79.1 3.13"/>
  <path class="cls-1" d="M80.58,3.13V1.08h.45l.75,1.22h-.32s.76-1.22.76-1.22h.43s0,2.06,0,2.06h-.48s0-.64,0-.64c0-.17,0-.33.01-.47,0-.14.02-.28.04-.42l.06.15-.57.88h-.19l-.56-.88.06-.16c.02.13.04.27.05.4.01.14.01.3.01.49v.64h-.48Z"/>
  <g>
    <path class="cls-1" d="M38.78,22.49c-.25-.31-.56-.54-.93-.71-.37-.16-.79-.25-1.27-.25s-.93.09-1.34.28c-.41.19-.77.45-1.07.78-.3.33-.54.73-.71,1.19-.17.46-.25.96-.25,1.49s.08,1.05.25,1.5c.17.45.4.85.7,1.18.3.33.64.59,1.04.78.4.19.83.28,1.29.28.53,0,.99-.11,1.4-.33.4-.22.74-.53,1-.92l2.13,1.59c-.49.69-1.12,1.2-1.87,1.53-.76.33-1.53.49-2.33.49-.91,0-1.75-.14-2.51-.43-.77-.28-1.43-.69-1.99-1.22s-.99-1.17-1.31-1.93c-.31-.76-.47-1.6-.47-2.53s.16-1.77.47-2.53c.31-.75.75-1.4,1.31-1.93s1.22-.94,1.99-1.22c.77-.28,1.6-.43,2.51-.43.33,0,.67.03,1.03.09.36.06.71.16,1.05.29.34.13.68.31.99.53.32.22.6.49.85.8l-1.97,1.61Z"/>
    <path class="cls-1" d="M42.09,19.47h4.5c.59,0,1.15.06,1.68.17.53.12,1,.31,1.4.58.4.27.72.63.95,1.08s.35,1.02.35,1.7c0,.82-.21,1.52-.64,2.09-.43.58-1.05.94-1.87,1.09l2.96,4.91h-3.07l-2.43-4.65h-1.26v4.65h-2.56v-11.63ZM44.65,24.28h1.51c.23,0,.47,0,.73-.02.26-.02.49-.07.7-.15.21-.08.38-.21.52-.39.14-.17.21-.42.21-.74,0-.3-.06-.53-.18-.71-.12-.17-.27-.31-.46-.4-.19-.09-.4-.16-.64-.19-.24-.03-.48-.05-.71-.05h-1.68v2.64Z"/>
    <path class="cls-1" d="M52.52,19.47h7.9v2.36h-5.34v2.17h5.04v2.37h-5.04v2.36h5.63v2.37h-8.19v-11.63Z"/>
    <path class="cls-1" d="M62.46,19.47h3.84c.93,0,1.81.1,2.65.31.84.21,1.57.54,2.19,1.01.62.47,1.12,1.07,1.49,1.82.37.74.55,1.65.55,2.71,0,.94-.18,1.77-.53,2.49-.36.72-.83,1.32-1.44,1.81s-1.3.86-2.09,1.11c-.79.25-1.61.38-2.48.38h-4.19v-11.63ZM65.02,28.73h1.33c.59,0,1.14-.06,1.65-.18.51-.12.95-.32,1.32-.6.37-.28.67-.65.88-1.1s.32-1.01.32-1.67c0-.57-.11-1.06-.32-1.49-.21-.42-.5-.77-.86-1.04-.36-.27-.79-.48-1.27-.62-.49-.14-1-.21-1.54-.21h-1.51v6.9Z"/>
    <path class="cls-1" d="M74.58,19.47h2.56v11.63h-2.56v-11.63Z"/>
    <path class="cls-1" d="M81.41,21.73h-3.32v-2.27h9.2v2.27h-3.32v9.36h-2.56v-9.36Z"/>
  </g>
  <g>
    <path class="cls-2" d="M26.15,9.98l-5.81,3.29-.02.02c.07.04.1.11.1.19h0v9.51l-.86.48-4.36,2.46-1.39.78v3.91c0,.36.37.57.68.4l12.08-6.86c.15-.09.24-.24.24-.4v-13.39c0-.36-.38-.58-.69-.4M12.4,22.53c0,.13-.14.21-.25.15l-4.32-2.46c-.06-.02-.08-.08-.08-.14v-4.79c0-.13.14-.21.25-.14l4.32,2.46s.08.09.08.15v4.79ZM13.32,16.83l-6.26-3.57-5.8-3.31c-.32-.17-.7.05-.7.4v7.32s0,6.07,0,6.07c0,.17.08.32.23.41l12.06,6.87c.31.18.7-.04.7-.4v-7.25s0-6.14,0-6.14c0-.16-.09-.32-.23-.41"/>
    <path class="cls-2" d="M26.15,8.82L13.95,1.69c-.15-.09-.32-.09-.47,0L1.26,8.79c-.31.19-.31.63,0,.81l6.05,3.44s.03-.04.05-.05l6.22-3.51c.08-.05.19-.05.25,0l6.19,3.61h0s6.12-3.48,6.12-3.48c.31-.17.31-.62,0-.8"/>
  </g>
</svg>