<?xml version="1.0" encoding="UTF-8"?>
<svg id="Layer_1" data-name="Layer 1" xmlns="http://www.w3.org/2000/svg" viewBox="0 0 480.96 164.26">
  <defs>
    <style>
      .cls-1 {
        fill: none;
        stroke: #fff;
        stroke-miterlimit: 10;
        stroke-width: .49px;
      }

      .cls-2 {
        fill: #232256;
      }

      .cls-2, .cls-3 {
        stroke-width: 0px;
      }

      .cls-3 {
        fill: #fff;
      }
    </style>
  </defs>
  <polygon class="cls-3" points="439.58 31.41 439.58 22.59 436.39 22.59 436.39 20.48 445.2 20.48 445.2 22.59 441.92 22.59 441.92 31.41 439.58 31.41"/>
  <g>
    <path class="cls-3" d="M447.13,31.41v-10.93h2.14l3.98,6.48-1.41-.02,4.03-6.46h2.04v10.93h-2.29v-3.75c0-.94.02-1.78.07-2.53.05-.75.13-1.49.24-2.23l.28.74-3.2,4.96h-1.03l-3.14-4.93.26-.77c.11.7.2,1.41.24,2.15.05.73.07,1.61.07,2.61v3.75h-2.3Z"/>
    <path class="cls-2" d="M14.43,156.72h452.09c4.45,0,8.08-3.62,8.08-8.08V15.62c0-4.45-3.62-8.08-8.08-8.08H14.43c-4.45,0-8.08,3.62-8.08,8.08v133.03c0,4.46,3.62,8.08,8.08,8.08"/>
    <path class="cls-1" d="M14.43,7.54h452.09c4.46,0,8.08,3.62,8.08,8.08v133.03c0,4.46-3.62,8.08-8.08,8.08H14.43c-4.46,0-8.08-3.62-8.08-8.08V15.62c0-4.46,3.62-8.08,8.08-8.08Z"/>
  </g>
  <polygon class="cls-3" points="439.47 31.01 439.47 22.16 436.27 22.16 436.27 20.05 445.1 20.05 445.1 22.16 441.81 22.16 441.81 31.01 439.47 31.01"/>
  <path class="cls-3" d="M447.04,31.01v-10.96h2.15l3.99,6.5-1.41-.02,4.04-6.48h2.05v10.96h-2.3v-3.76c0-.94.02-1.79.07-2.54.05-.75.13-1.5.24-2.24l.28.74-3.21,4.98h-1.03l-3.15-4.95.27-.77c.11.7.2,1.42.24,2.15.05.74.07,1.61.07,2.62v3.76h-2.3Z"/>
  <rect class="cls-3" x="6.89" y="49.5" width="467.17" height="1.81"/>
  <path class="cls-3" d="M456.84,105.45c2.4-1.97,3.61-4.54,3.61-7.73,0-2.67-.76-4.87-2.28-6.59-1.52-1.72-4.03-3.33-7.54-4.85l-2.44-1.03c-1.84-.83-3.25-1.79-4.23-2.87s-1.46-2.49-1.46-4.23.64-3.23,1.92-4.26c1.28-1.03,2.81-1.54,4.58-1.54.51,0,.91.02,1.22.05.31.03.68.09,1.11.16.76.14,1.4.48,1.92,1,.52.52,1.08,1.38,1.65,2.57l2.01,4.07h1.57l.38-6.72c-1.26-.87-2.74-1.56-4.42-2.06-1.68-.51-3.48-.76-5.39-.76-2.6,0-4.88.41-6.83,1.25-1.95.83-3.48,2.02-4.58,3.55-1.1,1.54-1.66,3.39-1.66,5.56,0,2.93.88,5.28,2.63,7.05,1.75,1.77,4.15,3.33,7.18,4.66l2.22.98c1.95.9,3.37,1.84,4.26,2.82.89.98,1.33,2.31,1.33,4.01,0,1.88-.64,3.39-1.92,4.53-1.28,1.14-3.03,1.71-5.23,1.71-.69,0-1.31-.04-1.87-.13-.56-.09-1.15-.26-1.76-.52-.9-.36-1.63-.89-2.17-1.57-.54-.69-1.07-1.56-1.57-2.6l-1.68-3.74h-1.57l-.32,7.54c1.37.8,3.08,1.44,5.12,1.93,2.04.49,4.06.73,6.05.73,4.37,0,7.76-.98,10.17-2.95M431.98,107.49l.38-8.67h-1.52l-2.01,4.88c-.25.69-.58,1.22-.98,1.6-.4.38-.96.57-1.68.57h-10.41c0-1.41,0-2.85-.03-4.31-.02-1.46-.03-3.13-.03-5.02v-6.72h5.42c.72,0,1.26.2,1.63.6.36.4.69.92.98,1.57l.98,2.06h1.19v-10.03h-1.19l-.92,2.06c-.33.65-.68,1.16-1.06,1.54s-.93.57-1.65.57h-5.37v-8c0-2.37.02-4.67.05-6.91h9.22c.72,0,1.26.19,1.62.57.36.38.69.91.98,1.6l2.17,4.88h1.52l-.38-8.67h-25.81v1.14l1.14.38c.69.22,1.14.53,1.36.95.22.42.34,1,.38,1.76v27.28c-.04.79-.18,1.42-.43,1.87-.25.45-.7.77-1.36.95l-1.08.38v1.14h26.89ZM402.59,107.49v-1.14l-1.08-.33c-.69-.25-1.16-.59-1.41-1-.25-.41-.38-1-.38-1.76v-27.38c0-.76.13-1.34.38-1.76.25-.41.72-.75,1.41-1l1.08-.33v-1.14h-13.56v1.14l1.08.33c.72.25,1.2.59,1.44,1,.24.42.35,1,.35,1.76v27.38c0,.76-.12,1.35-.35,1.76-.23.42-.71.75-1.44,1l-1.08.33v1.14h13.56ZM379.27,107.49v-1.14l-2.22-.43c-1.52-.29-2.28-1.17-2.28-2.66v-29.99h4.34c1.16,0,2.01.31,2.55.92.54.61,1.08,1.48,1.63,2.6l1.9,4.01h1.52l-.27-9.16h-31.12l-.27,9.16h1.52l1.9-4.01c.54-1.12,1.08-1.99,1.63-2.6.54-.62,1.39-.92,2.55-.92h4.28c.03,2.53.05,5.06.05,7.59v22.4c0,1.44-.76,2.33-2.28,2.66l-2.17.43v1.14h16.76ZM352.71,107.49v-1.14l-1.08-.33c-.69-.25-1.16-.59-1.41-1-.25-.41-.38-1-.38-1.76v-27.38c0-.76.13-1.34.38-1.76.25-.41.72-.75,1.41-1l1.08-.33v-1.14h-13.56v1.14l1.08.33c.72.25,1.2.59,1.44,1,.23.42.35,1,.35,1.76v27.38c0,.76-.12,1.35-.35,1.76-.24.42-.71.75-1.44,1l-1.08.33v1.14h13.56ZM315.78,82.46c0-1.82,0-3.47.03-4.93.02-1.46.03-2.9.03-4.31h3.09c2.53,0,4.36.64,5.5,1.92,1.14,1.28,1.71,3.26,1.71,5.94s-.6,4.66-1.79,5.97c-1.19,1.3-3.07,1.95-5.64,1.95h-2.93v-6.54ZM318.87,107.49v-1.14l-1.3-.38c-.69-.18-1.15-.49-1.38-.92-.24-.43-.35-1.01-.35-1.74-.04-1.81-.05-3.74-.05-5.8v-6.94h3.9l8.08,16.92h9.6v-1.08l-1.03-.22c-1.3-.43-2.26-1.25-2.87-2.44l-7.37-14.37c2.57-.87,4.47-2.12,5.72-3.74s1.87-3.23,1.87-4.83c0-2.89-1.15-5.14-3.44-6.75-2.3-1.61-5.56-2.41-9.79-2.41h-15.18v1.14l1.19.38c.72.22,1.17.53,1.36.95.18.42.27,1,.27,1.76.03,2.1.05,4.2.05,6.29v14.86c0,2.1-.02,4.19-.05,6.29,0,.76-.1,1.35-.3,1.76-.2.42-.66.73-1.38.95l-1.14.33v1.14h13.61ZM296.91,104.83c2.35-2.39,3.53-5.82,3.53-10.3v-18.6c0-.72.13-1.34.38-1.84.25-.51.72-.83,1.41-.98l1.52-.33v-1.14h-8.35v1.14l1.3.27c.72.14,1.23.49,1.52,1.03.29.54.43,1.17.43,1.9v18.87c0,3.33-.79,5.83-2.36,7.51-1.57,1.68-3.75,2.52-6.53,2.52-2.64,0-4.67-.78-6.1-2.33-1.43-1.56-2.14-4.08-2.14-7.59v-13.04c0-2.04.02-4.08.05-6.1,0-1.48.69-2.38,2.06-2.71l1.52-.33v-1.14h-14.64v1.14l1.19.27c1.34.36,2.01,1.25,2.01,2.66.03,2.1.05,4.18.05,6.24v11.98c0,3.47.59,6.26,1.76,8.38,1.18,2.12,2.8,3.66,4.88,4.64,2.08.98,4.47,1.46,7.18,1.46,3.87,0,6.98-1.19,9.33-3.58M263.35,107.7c1.88-.47,3.6-1.14,5.15-2.01l.22-7.81h-1.46l-2.06,4.94c-.29.72-.63,1.36-1.03,1.92-.4.56-.96.98-1.68,1.27-.62.25-1.23.45-1.84.6-.62.15-1.41.22-2.39.22-2.13,0-4.05-.53-5.75-1.6-1.7-1.07-3.05-2.87-4.04-5.39-.99-2.53-1.49-5.95-1.49-10.25s.52-7.76,1.57-10.28c1.05-2.51,2.45-4.31,4.2-5.39,1.75-1.08,3.7-1.63,5.83-1.63,1.23,0,2.3.22,3.2.65.65.25,1.18.67,1.6,1.25.42.58.8,1.23,1.17,1.95l2.28,4.28h1.46l-.22-7.1c-1.59-.87-3.25-1.53-4.99-1.98-1.74-.45-3.6-.68-5.59-.68-2.57,0-4.99.41-7.27,1.22-2.28.81-4.29,2.03-6.05,3.63-1.75,1.61-3.13,3.59-4.12,5.94-1,2.35-1.49,5.04-1.49,8.08,0,4.05.82,7.48,2.47,10.3,1.64,2.82,3.88,4.95,6.7,6.4,2.82,1.45,5.98,2.17,9.49,2.17,2.2,0,4.25-.23,6.13-.71M236.07,107.49l.38-8.67h-1.52l-2.01,4.88c-.25.69-.58,1.22-.98,1.6-.4.38-.96.57-1.68.57h-10.41c0-1.41-.01-2.85-.03-4.31-.02-1.46-.03-3.13-.03-5.02v-6.72h5.42c.72,0,1.26.2,1.63.6.36.4.69.92.98,1.57l.98,2.06h1.19v-10.03h-1.19l-.92,2.06c-.33.65-.68,1.16-1.06,1.54-.38.38-.93.57-1.66.57h-5.37v-8c0-2.37.02-4.67.05-6.91h9.22c.72,0,1.26.19,1.63.57.36.38.69.91.98,1.6l2.17,4.88h1.52l-.38-8.67h-25.81v1.14l1.14.38c.69.22,1.14.53,1.36.95.22.42.34,1,.38,1.76v27.28c-.04.79-.18,1.42-.43,1.87-.25.45-.7.77-1.36.95l-1.08.38v1.14h26.9ZM203.02,105.45c2.4-1.97,3.61-4.54,3.61-7.73,0-2.67-.76-4.87-2.28-6.59-1.52-1.72-4.03-3.33-7.54-4.85l-2.44-1.03c-1.84-.83-3.25-1.79-4.23-2.87-.98-1.08-1.46-2.49-1.46-4.23s.64-3.23,1.93-4.26c1.28-1.03,2.81-1.54,4.58-1.54.51,0,.91.02,1.22.05.31.03.68.09,1.11.16.76.14,1.4.48,1.92,1,.52.52,1.08,1.38,1.66,2.57l2.01,4.07h1.57l.38-6.72c-1.26-.87-2.74-1.56-4.42-2.06-1.68-.51-3.48-.76-5.39-.76-2.6,0-4.88.41-6.83,1.25-1.95.83-3.48,2.02-4.58,3.55-1.1,1.54-1.65,3.39-1.65,5.56,0,2.93.88,5.28,2.63,7.05,1.75,1.77,4.15,3.33,7.18,4.66l2.22.98c1.95.9,3.37,1.84,4.26,2.82.89.98,1.33,2.31,1.33,4.01,0,1.88-.64,3.39-1.93,4.53-1.28,1.14-3.03,1.71-5.23,1.71-.69,0-1.31-.04-1.87-.13-.56-.09-1.15-.26-1.76-.52-.9-.36-1.62-.89-2.17-1.57-.54-.69-1.07-1.56-1.57-2.6l-1.68-3.74h-1.57l-.33,7.54c1.37.8,3.08,1.44,5.12,1.93,2.04.49,4.06.73,6.05.73,4.37,0,7.76-.98,10.17-2.95M171.38,84.66c.69,1.63.83,4.26.43,7.92h-9.71c.07-2.71.33-4.82.79-6.32.45-1.5,1.07-2.55,1.84-3.15.78-.6,1.69-.89,2.74-.89,1.92,0,3.22.81,3.9,2.44M161.32,82.3c-2.04,1.1-3.71,2.69-4.99,4.75-1.28,2.06-1.92,4.57-1.92,7.54s.55,5.31,1.65,7.35c1.1,2.04,2.63,3.61,4.58,4.69,1.95,1.08,4.21,1.63,6.78,1.63s4.78-.55,6.64-1.65c1.86-1.1,3.33-2.65,4.42-4.64l-.87-.81c-.94,1.08-1.97,1.92-3.09,2.52-1.12.6-2.58.9-4.39.9-2.6,0-4.58-.81-5.94-2.44-1.35-1.63-2.05-4.3-2.09-8.03h16.32c.11-.36.18-.75.22-1.16.03-.42.05-.86.05-1.33,0-2.13-.44-4.02-1.33-5.67-.89-1.64-2.14-2.93-3.77-3.88-1.63-.94-3.58-1.41-5.85-1.41s-4.38.55-6.43,1.65M151.75,107.49v-1.03l-.76-.22c-.69-.18-1.17-.49-1.44-.95-.27-.45-.43-1.04-.46-1.76v-25.97l.22-7.64-.71-.49-9.49,2.28v1.03l.81.22c.72.18,1.21.46,1.46.84.25.38.38.95.38,1.71v20.61c0,1.23,0,2.47-.03,3.71-.02,1.25-.03,2.49-.03,3.72,0,1.41-.6,2.31-1.79,2.71l-.81.22v1.03h12.63ZM118.24,105.16v-20.5c.9-.51,1.75-.87,2.55-1.08.79-.22,1.54-.33,2.22-.33,1.92,0,3.4.84,4.44,2.52,1.05,1.68,1.57,4.62,1.57,8.81s-.55,7.2-1.65,8.92c-1.1,1.72-2.61,2.57-4.53,2.57-1.63,0-3.16-.31-4.61-.92M121.06,120.01v-1.03l-1.03-.27c-1.27-.36-1.9-1.27-1.9-2.71s0-2.86-.03-4.12c-.02-1.26-.03-2.44-.03-3.53v-1.63c.98.51,2.09.89,3.33,1.14,1.25.25,2.58.38,3.98.38,3.51,0,6.28-1.22,8.32-3.66,2.04-2.44,3.07-5.85,3.07-10.22s-.93-7.93-2.79-10.25c-1.86-2.31-4.33-3.47-7.4-3.47s-5.96.85-8.46,2.55l-.49-2.01-.65-.54-8.73,3.15v.98l.81.16c.72.15,1.21.43,1.46.84.25.42.38,1,.38,1.76.04,1.01.05,1.92.05,2.74v17.81c0,1.23,0,2.5-.03,3.82-.02,1.32-.03,2.72-.03,4.2,0,.76-.14,1.34-.43,1.76-.29.42-.79.71-1.52.9l-.7.22v1.03h12.8ZM74.49,107.49v-1.08l-.92-.27c-1.01-.25-1.52-.97-1.52-2.17v-17.57c1.92-1.59,3.71-2.39,5.37-2.39,1.3,0,2.22.31,2.77.92s.81,1.66.81,3.15v15.83c0,.58-.1,1.04-.3,1.38-.2.34-.59.61-1.16.79l-1.14.33v1.08h12.25v-1.08l-.92-.27c-.58-.14-.97-.39-1.16-.73-.2-.34-.32-.82-.35-1.44v-13.77c0-1.41-.11-2.66-.33-3.74,1.05-.83,2.01-1.45,2.87-1.84.87-.4,1.79-.6,2.77-.6,1.26,0,2.18.28,2.74.84.56.56.84,1.62.84,3.17v15.89c0,1.16-.49,1.9-1.46,2.22l-.98.27v1.08h12.2v-1.08l-1.03-.27c-1.01-.29-1.52-1.01-1.52-2.17v-15.67c0-2.64-.62-4.57-1.84-5.8-1.23-1.23-3.07-1.84-5.53-1.84-1.63,0-3.27.39-4.94,1.17-1.66.78-3.18,1.85-4.56,3.23-.54-1.48-1.32-2.58-2.33-3.31-1.01-.72-2.42-1.08-4.23-1.08-1.63,0-3.22.42-4.77,1.25-1.56.83-2.97,1.83-4.23,2.98l-.38-3.63-.65-.6-8.78,3.15v.98l1.14.27c.61.15,1.01.39,1.19.73.18.34.27.82.27,1.44.03,1.12.05,2.1.05,2.93v13.77c-.04.58-.15,1.04-.33,1.38-.18.34-.56.61-1.14.79l-1.19.33v1.08h12.42ZM59.68,107.49v-1.03l-.6-.16c-.69-.22-1.16-.54-1.44-.97-.27-.43-.41-1.01-.41-1.74v-14.64l.16-7.7-.65-.6-9.49,3.15v.98l.76.16c.72.15,1.22.43,1.49.84.27.42.41.98.41,1.71.03,1.01.05,2,.05,2.95v13.1c-.04.72-.18,1.3-.43,1.74-.25.43-.74.76-1.46.97l-.81.22v1.03h12.42ZM56.54,76.52c.83-.76,1.25-1.72,1.25-2.87s-.41-2.16-1.25-2.9c-.83-.74-1.84-1.11-3.03-1.11s-2.21.37-3.04,1.11c-.83.74-1.25,1.71-1.25,2.9s.41,2.11,1.25,2.87c.83.76,1.84,1.14,3.04,1.14s2.2-.38,3.03-1.14M40.9,105.45c2.4-1.97,3.61-4.54,3.61-7.73,0-2.67-.76-4.87-2.28-6.59-1.52-1.72-4.03-3.33-7.54-4.85l-2.44-1.03c-1.84-.83-3.25-1.79-4.23-2.87s-1.46-2.49-1.46-4.23.64-3.23,1.93-4.26c1.28-1.03,2.81-1.54,4.58-1.54.51,0,.91.02,1.22.05.31.03.68.09,1.11.16.76.14,1.4.48,1.92,1,.52.52,1.08,1.38,1.66,2.57l2.01,4.07h1.57l.38-6.72c-1.26-.87-2.74-1.56-4.42-2.06-1.68-.51-3.48-.76-5.39-.76-2.6,0-4.88.41-6.83,1.25-1.95.83-3.48,2.02-4.58,3.55s-1.65,3.39-1.65,5.56c0,2.93.88,5.28,2.63,7.05,1.75,1.77,4.15,3.33,7.18,4.66l2.22.98c1.95.9,3.37,1.84,4.26,2.82.89.98,1.33,2.31,1.33,4.01,0,1.88-.64,3.39-1.93,4.53-1.28,1.14-3.03,1.71-5.23,1.71-.69,0-1.31-.04-1.87-.13-.56-.09-1.15-.26-1.76-.52-.9-.36-1.63-.89-2.17-1.57-.54-.69-1.07-1.56-1.57-2.6l-1.68-3.74h-1.57l-.33,7.54c1.37.8,3.08,1.44,5.12,1.93,2.04.49,4.06.73,6.05.73,4.37,0,7.76-.98,10.17-2.95"/>
</svg>