<?xml version="1.0" encoding="UTF-8"?>
<svg id="Layer_1" data-name="Layer 1" xmlns="http://www.w3.org/2000/svg" viewBox="0 0 131.59 57.64">
  <defs>
    <style>
      .cls-1 {
        fill: #5253a3;
      }

      .cls-1, .cls-2 {
        stroke-width: 0px;
      }

      .cls-3 {
        letter-spacing: -.02em;
      }

      .cls-4 {
        letter-spacing: 0em;
      }

      .cls-5 {
        fill: #222053;
        font-family: Avenir-Black, Avenir;
        font-size: 7.38px;
        font-weight: 800;
      }

      .cls-6 {
        letter-spacing: -.04em;
      }

      .cls-2 {
        fill: #232256;
      }
    </style>
  </defs>
  <polygon class="cls-1" points="33.64 22.24 33.63 31.37 33.62 40.5 24.49 40.49 15.36 40.48 6.22 40.48 6.23 31.34 15.36 31.35 24.5 31.36 24.5 22.23 33.64 22.24"/>
  <polygon class="cls-1" points="33.65 3.97 33.64 13.1 24.51 13.1 15.38 13.09 15.37 22.22 6.24 22.21 6.25 13.08 6.25 3.95 24.52 3.97 33.65 3.97"/>
  <g>
    <path class="cls-2" d="M111.37,27.21c-.61-.55-1.3-.93-2.06-1.17-.77-.23-1.55-.35-2.37-.35-.71,0-1.4.1-2.07.29-.67.2-1.26.49-1.77.89-.51.4-.92.89-1.23,1.47-.31.59-.46,1.27-.46,2.05,0,.8.17,1.45.5,1.94.33.49.75.89,1.26,1.19.5.3,1.05.54,1.63.72.59.18,1.13.36,1.64.53.5.18.92.39,1.26.65.33.25.5.6.5,1.03,0,.26-.06.48-.19.67-.13.19-.3.35-.51.47-.21.12-.45.22-.71.28-.27.06-.53.09-.79.09-.53,0-1.05-.12-1.54-.36-.5-.24-.91-.58-1.24-1.01l-2.27,2.49c.69.64,1.44,1.11,2.25,1.39.8.29,1.68.43,2.62.43.75,0,1.46-.09,2.14-.28.68-.19,1.27-.48,1.78-.88.51-.39.92-.89,1.22-1.49.3-.6.45-1.3.45-2.11,0-.85-.16-1.52-.49-2.03-.33-.5-.74-.91-1.24-1.21-.5-.3-1.03-.53-1.61-.7-.57-.17-1.11-.33-1.61-.49-.5-.16-.91-.36-1.24-.59-.33-.23-.49-.57-.49-1,0-.27.07-.5.2-.69.14-.19.32-.34.53-.46.22-.11.45-.2.7-.26.24-.05.48-.08.72-.08.39,0,.81.08,1.26.24.44.16.79.4,1.05.73l2.19-2.39ZM89.24,40.53h10.21s0-2.93,0-2.93h-7.02s0-2.95,0-2.95h6.28s0-2.94,0-2.94h-6.28s0-2.71,0-2.71h6.65s0-2.94,0-2.94h-9.84s-.01,14.47-.01,14.47ZM87.04,27.8c-.31-.4-.67-.73-1.06-1-.39-.27-.81-.49-1.24-.66-.43-.16-.86-.28-1.31-.36-.44-.08-.87-.11-1.28-.11-1.13,0-2.18.17-3.13.53-.95.35-1.78.86-2.48,1.52-.7.66-1.24,1.46-1.63,2.4-.39.94-.58,1.99-.58,3.15,0,1.16.19,2.21.58,3.15.39.94.93,1.74,1.62,2.4.69.66,1.52,1.17,2.47,1.53.95.35,2,.53,3.13.53.99,0,1.96-.2,2.91-.61.94-.41,1.72-1.04,2.33-1.9l-2.66-1.98c-.33.49-.74.87-1.25,1.14-.51.27-1.08.41-1.74.41-.57,0-1.11-.12-1.61-.35-.5-.23-.93-.56-1.3-.97-.37-.42-.66-.91-.87-1.48-.21-.56-.32-1.19-.32-1.87,0-.67.11-1.29.32-1.86.21-.57.51-1.07.88-1.48.38-.42.82-.74,1.33-.97.51-.23,1.07-.35,1.67-.34.6,0,1.13.1,1.58.31.46.2.84.5,1.15.88l2.46-2ZM68.71,34.74h-3.54s1.76-4.5,1.76-4.5l1.77,4.5ZM59.44,40.5h3.52s1.21-3.06,1.21-3.06h5.62s1.25,3.07,1.25,3.07h3.6s-6.29-14.48-6.29-14.48h-2.64s-6.27,14.47-6.27,14.47ZM53.25,28.71h1.64c.3,0,.61.02.94.05.33.03.62.11.89.24.27.12.48.3.65.52.17.23.26.52.26.89,0,.34-.06.62-.19.85-.13.23-.3.4-.51.53-.21.13-.45.22-.72.28-.27.05-.54.08-.83.08h-2.13s0-3.44,0-3.44ZM50.05,40.5h3.19s0-5.64,0-5.64h2.33c.76,0,1.47-.07,2.13-.21.65-.14,1.22-.38,1.7-.73.48-.34.85-.8,1.13-1.37.27-.57.41-1.28.41-2.13,0-.86-.15-1.57-.44-2.14-.29-.56-.69-1.02-1.18-1.35-.5-.33-1.08-.57-1.75-.71-.67-.14-1.38-.2-2.13-.2h-5.38s-.01,14.48-.01,14.48ZM48.35,27.16c-.61-.55-1.3-.93-2.07-1.17-.76-.23-1.55-.35-2.37-.35-.71,0-1.4.1-2.07.29-.67.2-1.26.49-1.77.89-.51.4-.92.89-1.23,1.47-.31.59-.46,1.27-.46,2.05,0,.8.17,1.45.5,1.94.33.49.75.89,1.26,1.19.51.3,1.05.54,1.64.72.59.18,1.13.36,1.64.53.5.18.92.39,1.26.65.34.25.5.6.5,1.03,0,.26-.07.48-.2.67-.13.19-.3.35-.51.47-.21.12-.45.22-.72.28-.27.06-.53.09-.79.09-.53,0-1.05-.12-1.55-.36-.5-.24-.91-.58-1.24-1.01l-2.27,2.49c.69.64,1.44,1.11,2.25,1.39.8.29,1.68.43,2.62.43.75,0,1.46-.1,2.14-.29.67-.19,1.27-.48,1.78-.88.51-.39.92-.89,1.22-1.49.3-.6.45-1.3.45-2.11,0-.85-.16-1.52-.49-2.03-.33-.5-.74-.91-1.24-1.21-.5-.3-1.03-.53-1.6-.7-.57-.17-1.11-.33-1.61-.49-.5-.16-.91-.36-1.24-.59-.33-.23-.49-.57-.49-1,0-.27.07-.5.2-.69.14-.19.32-.34.53-.46.22-.12.45-.2.7-.26.24-.05.48-.08.71-.08.4,0,.82.08,1.26.24.44.16.8.4,1.05.73l2.19-2.39Z"/>
    <path class="cls-2" d="M46.26,7.92c-.26-.33-.62-.57-1.06-.73-.45-.16-.87-.24-1.27-.24-.23,0-.47.03-.72.09-.25.05-.48.14-.7.26-.22.12-.4.27-.54.46-.14.19-.21.43-.21.7,0,.44.16.78.49,1.01.33.24.75.43,1.25.6.5.16,1.04.33,1.62.49.58.17,1.12.4,1.62.7.5.3.92.71,1.25,1.22.33.51.49,1.19.49,2.04,0,.81-.15,1.52-.45,2.12-.3.6-.71,1.1-1.23,1.5-.52.4-1.12.69-1.8.89-.68.19-1.4.29-2.16.29-.95,0-1.83-.15-2.64-.44-.81-.29-1.57-.76-2.27-1.4l2.29-2.52c.33.44.74.78,1.25,1.02.5.24,1.02.36,1.56.36.26,0,.53-.03.79-.09.27-.06.51-.15.72-.28.21-.12.38-.28.52-.47.13-.19.2-.42.2-.68,0-.44-.17-.79-.51-1.04-.34-.26-.76-.47-1.27-.65-.51-.18-1.06-.36-1.65-.54-.59-.18-1.14-.42-1.65-.72-.51-.3-.93-.7-1.27-1.19-.34-.5-.51-1.15-.5-1.96,0-.78.16-1.47.47-2.06.31-.59.72-1.08,1.24-1.48.52-.4,1.11-.7,1.79-.9.67-.2,1.37-.3,2.08-.3.82,0,1.62.12,2.39.35.77.24,1.46.63,2.08,1.18l-2.21,2.41Z"/>
    <path class="cls-2" d="M49.71,8.94h3.09s0,10.02,0,10.02h-3.09s.01-10.02.01-10.02ZM49.46,5.78c0-.5.17-.92.52-1.27.35-.35.77-.52,1.27-.52s.92.18,1.27.53c.35.35.52.77.52,1.27s-.18.92-.53,1.27c-.35.35-.77.53-1.27.52-.5,0-.92-.17-1.27-.53-.35-.35-.52-.77-.52-1.27"/>
    <path class="cls-2" d="M54.2,8.94h2.97v1.36h.04c.1-.19.24-.39.41-.58.18-.19.39-.36.64-.51.25-.15.53-.28.85-.37.32-.1.66-.14,1.03-.14.7,0,1.32.15,1.87.43.54.29.95.74,1.22,1.36.36-.64.79-1.11,1.3-1.38.51-.27,1.14-.41,1.88-.41.67,0,1.24.12,1.7.34.46.23.82.54,1.09.93.27.39.46.85.58,1.38.12.53.18,1.1.17,1.7v5.92s-3.1,0-3.1,0v-5.84c0-.47-.09-.87-.29-1.21-.2-.34-.56-.5-1.06-.5-.36,0-.66.06-.9.17-.24.12-.43.28-.58.49-.14.21-.25.44-.31.72s-.09.56-.09.87v5.3s-3.1,0-3.1,0v-5.3c0-.18,0-.4-.01-.66-.01-.26-.06-.51-.14-.74-.08-.23-.22-.43-.4-.6-.18-.16-.46-.25-.82-.25-.4,0-.72.07-.97.22-.25.14-.44.34-.57.58-.13.24-.22.51-.26.81-.04.3-.06.62-.06.95v4.99s-3.1,0-3.1,0v-10.02Z"/>
    <path class="cls-2" d="M74.04,13.97c0,.76.21,1.37.65,1.83.43.47,1.04.7,1.82.7.78,0,1.39-.23,1.83-.7.43-.47.65-1.08.65-1.83,0-.76-.21-1.37-.65-1.84-.43-.47-1.04-.7-1.82-.7-.78,0-1.39.23-1.83.7-.43.47-.65,1.08-.65,1.84M71.2,8.95h2.85s0,1.32,0,1.32h.04c.12-.18.29-.36.49-.55.2-.19.43-.35.7-.5.27-.15.56-.28.88-.37.32-.1.65-.14,1.01-.14.74,0,1.42.13,2.02.38.6.26,1.12.61,1.55,1.07.43.46.77,1.01,1,1.64.23.63.35,1.33.35,2.08,0,.7-.11,1.37-.32,2.01-.21.64-.52,1.21-.91,1.7-.39.49-.87.89-1.43,1.18-.57.29-1.2.44-1.92.44-.65,0-1.25-.1-1.81-.3-.56-.2-1.01-.54-1.37-1.02h-.04v5.78s-3.1,0-3.1,0v-14.73Z"/>
  </g>
  <rect class="cls-2" x="83.11" y="3.4" width="3.09" height="15.59"/>
  <g>
    <path class="cls-2" d="M94.48,12.85c.01-.52-.16-.97-.51-1.34-.36-.37-.82-.56-1.38-.56-.34,0-.65.06-.91.17-.26.11-.49.25-.67.42-.18.17-.33.37-.43.6-.1.23-.16.47-.18.71h4.08ZM97.09,17.27c-.49.63-1.12,1.12-1.88,1.46-.76.34-1.54.51-2.35.51-.77,0-1.49-.12-2.18-.37-.68-.25-1.27-.6-1.77-1.06-.5-.46-.9-1.02-1.18-1.66-.29-.65-.43-1.37-.43-2.17,0-.8.15-1.52.44-2.17.29-.65.69-1.2,1.19-1.66.5-.46,1.09-.81,1.77-1.06.68-.25,1.41-.37,2.18-.37.71,0,1.36.12,1.95.37.58.25,1.08.6,1.48,1.06.41.46.72,1.02.94,1.66.22.65.33,1.37.33,2.17v.97s-7.18,0-7.18,0c.12.59.39,1.06.8,1.41.41.35.92.53,1.52.53.51,0,.94-.11,1.29-.34.35-.23.66-.52.92-.88l2.16,1.59Z"/>
    <path class="cls-2" d="M46.26,7.92c-.26-.33-.62-.57-1.06-.73-.45-.16-.87-.24-1.27-.24-.23,0-.47.03-.72.09-.25.05-.48.14-.7.26-.22.12-.4.27-.54.46-.14.19-.21.43-.21.7,0,.44.16.78.49,1.01.33.24.75.43,1.25.6.5.16,1.04.33,1.62.49.58.17,1.12.4,1.62.7.5.3.92.71,1.25,1.22.33.51.49,1.19.49,2.04,0,.81-.15,1.52-.45,2.12-.3.6-.71,1.1-1.23,1.5-.52.4-1.12.69-1.8.89-.68.19-1.4.29-2.16.29-.95,0-1.83-.15-2.64-.44-.81-.29-1.57-.76-2.27-1.4l2.29-2.52c.33.44.74.78,1.25,1.02.5.24,1.02.36,1.56.36.26,0,.53-.03.79-.09.27-.06.51-.15.72-.28.21-.12.38-.28.52-.47.13-.19.2-.42.2-.68,0-.44-.17-.79-.51-1.04-.34-.26-.76-.47-1.27-.65-.51-.18-1.06-.36-1.65-.54-.59-.18-1.14-.42-1.65-.72-.51-.3-.93-.7-1.27-1.19-.34-.5-.51-1.15-.5-1.96,0-.78.16-1.47.47-2.06.31-.59.72-1.08,1.24-1.48.52-.4,1.11-.7,1.79-.9.67-.2,1.37-.3,2.08-.3.82,0,1.62.12,2.39.35.77.24,1.46.63,2.08,1.18l-2.21,2.41Z"/>
    <path class="cls-2" d="M49.71,8.94h3.09s0,10.02,0,10.02h-3.09s.01-10.02.01-10.02ZM49.46,5.78c0-.5.17-.92.52-1.27.35-.35.77-.52,1.27-.52s.92.18,1.27.53c.35.35.52.77.52,1.27s-.18.92-.53,1.27c-.35.35-.77.53-1.27.52-.5,0-.92-.17-1.27-.53-.35-.35-.52-.77-.52-1.27"/>
    <path class="cls-2" d="M54.2,8.94h2.97v1.36h.04c.1-.19.24-.39.41-.58.18-.19.39-.36.64-.51.25-.15.53-.28.85-.37.32-.1.66-.14,1.03-.14.7,0,1.32.15,1.87.43.54.29.95.74,1.22,1.36.36-.64.79-1.11,1.3-1.38.51-.27,1.14-.41,1.88-.41.67,0,1.24.12,1.7.34.46.23.82.54,1.09.93.27.39.46.85.58,1.38.12.53.18,1.1.17,1.7v5.92s-3.1,0-3.1,0v-5.84c0-.47-.09-.87-.29-1.21-.2-.34-.56-.5-1.06-.5-.36,0-.66.06-.9.17-.24.12-.43.28-.58.49-.14.21-.25.44-.31.72s-.09.56-.09.87v5.3s-3.1,0-3.1,0v-5.3c0-.18,0-.4-.01-.66-.01-.26-.06-.51-.14-.74-.08-.23-.22-.43-.4-.6-.18-.16-.46-.25-.82-.25-.4,0-.72.07-.97.22-.25.14-.44.34-.57.58-.13.24-.22.51-.26.81-.04.3-.06.62-.06.95v4.99s-3.1,0-3.1,0v-10.02Z"/>
    <path class="cls-2" d="M74.04,13.97c0,.76.21,1.37.65,1.83.43.47,1.04.7,1.82.7.78,0,1.39-.23,1.83-.7.43-.47.65-1.08.65-1.83,0-.76-.21-1.37-.65-1.84-.43-.47-1.04-.7-1.82-.7-.78,0-1.39.23-1.83.7-.43.47-.65,1.08-.65,1.84M71.2,8.95h2.85s0,1.32,0,1.32h.04c.12-.18.29-.36.49-.55.2-.19.43-.35.7-.5.27-.15.56-.28.88-.37.32-.1.65-.14,1.01-.14.74,0,1.42.13,2.02.38.6.26,1.12.61,1.55,1.07.43.46.77,1.01,1,1.64.23.63.35,1.33.35,2.08,0,.7-.11,1.37-.32,2.01-.21.64-.52,1.21-.91,1.7-.39.49-.87.89-1.43,1.18-.57.29-1.2.44-1.92.44-.65,0-1.25-.1-1.81-.3-.56-.2-1.01-.54-1.37-1.02h-.04v5.78s-3.1,0-3.1,0v-14.73Z"/>
  </g>
  <rect class="cls-2" x="83.11" y="3.4" width="3.09" height="15.59"/>
  <path class="cls-2" d="M94.48,12.85c.01-.52-.16-.97-.51-1.34-.36-.37-.82-.56-1.38-.56-.34,0-.65.06-.91.17-.26.11-.49.25-.67.42-.18.17-.33.37-.43.6-.1.23-.16.47-.18.71h4.08ZM97.09,17.27c-.49.63-1.12,1.12-1.88,1.46-.76.34-1.54.51-2.35.51-.77,0-1.49-.12-2.18-.37-.68-.25-1.27-.6-1.77-1.06-.5-.46-.9-1.02-1.18-1.66-.29-.65-.43-1.37-.43-2.17,0-.8.15-1.52.44-2.17.29-.65.69-1.2,1.19-1.66.5-.46,1.09-.81,1.77-1.06.68-.25,1.41-.37,2.18-.37.71,0,1.36.12,1.95.37.58.25,1.08.6,1.48,1.06.41.46.72,1.02.94,1.66.22.65.33,1.37.33,2.17v.97s-7.18,0-7.18,0c.12.59.39,1.06.8,1.41.41.35.92.53,1.52.53.51,0,.94-.11,1.29-.34.35-.23.66-.52.92-.88l2.16,1.59Z"/>
  <polygon class="cls-2" points="98.33 5.95 98.33 3.96 97.58 3.95 97.58 3.41 99.72 3.41 99.72 3.96 98.95 3.96 98.95 5.95 98.33 5.95"/>
  <g>
    <path class="cls-2" d="M100.16,5.95v-2.54h.55l.93,1.51h-.4s.94-1.51.94-1.51h.53s0,2.54,0,2.54h-.6v-.79c0-.22,0-.41.02-.59.01-.17.03-.35.06-.52l.07.19-.71,1.09h-.24l-.69-1.08.07-.2c.03.16.05.33.05.5.01.17.02.37.02.61v.79h-.6Z"/>
    <text class="cls-5" transform="translate(5.63 50.87)"><tspan class="cls-6" x="0" y="0">W</tspan><tspan class="cls-4" x="7.11" y="0">a</tspan><tspan class="cls-3" x="11.07" y="0">r</tspan><tspan x="13.94" y="0">ehouse Suites | Last Mile | Flex</tspan></text>
  </g>
</svg>