<?xml version="1.0" encoding="UTF-8"?>
<svg id="Layer_1" data-name="Layer 1" xmlns="http://www.w3.org/2000/svg" viewBox="0 0 480.96 164.26">
  <defs>
    <style>
      .cls-1 {
        fill: none;
        stroke: #fff;
        stroke-miterlimit: 10;
        stroke-width: .49px;
      }

      .cls-2 {
        fill: #232256;
      }

      .cls-2, .cls-3 {
        stroke-width: 0px;
      }

      .cls-3 {
        fill: #fff;
      }
    </style>
  </defs>
  <polygon class="cls-3" points="439.58 31.41 439.58 22.59 436.39 22.59 436.39 20.48 445.2 20.48 445.2 22.59 441.92 22.59 441.92 31.41 439.58 31.41"/>
  <path class="cls-3" d="M447.13,31.41v-10.93h2.14l3.98,6.48-1.41-.02,4.03-6.46h2.04v10.93h-2.29v-3.75c0-.94.02-1.78.07-2.53.05-.75.13-1.49.24-2.23l.28.74-3.2,4.96h-1.03l-3.14-4.93.26-.77c.11.7.2,1.41.24,2.15.05.73.07,1.61.07,2.61v3.75h-2.3Z"/>
  <path class="cls-2" d="M14.43,156.72h452.09c4.45,0,8.08-3.62,8.08-8.08V15.62c0-4.45-3.62-8.08-8.08-8.08H14.43c-4.45,0-8.08,3.62-8.08,8.08v133.03c0,4.46,3.62,8.08,8.08,8.08"/>
  <path class="cls-1" d="M14.43,7.54h452.09c4.46,0,8.08,3.62,8.08,8.08v133.03c0,4.46-3.62,8.08-8.08,8.08H14.43c-4.46,0-8.08-3.62-8.08-8.08V15.62c0-4.46,3.62-8.08,8.08-8.08Z"/>
  <polygon class="cls-3" points="439.47 31.01 439.47 22.16 436.27 22.16 436.27 20.05 445.1 20.05 445.1 22.16 441.81 22.16 441.81 31.01 439.47 31.01"/>
  <path class="cls-3" d="M447.04,31.01v-10.96h2.15l3.99,6.5-1.41-.02,4.04-6.48h2.05v10.96h-2.3v-3.76c0-.94.02-1.79.07-2.54.05-.75.13-1.5.24-2.24l.28.74-3.21,4.98h-1.03l-3.15-4.95.27-.77c.11.7.2,1.42.24,2.15.05.74.07,1.61.07,2.62v3.76h-2.3Z"/>
  <rect class="cls-3" x="6.89" y="49.5" width="467.17" height="1.81"/>
  <path class="cls-3" d="M451.78,107.49v-1.46l-2.85-.56c-1.95-.37-2.92-1.51-2.92-3.41v-38.5h5.57c1.48,0,2.58.39,3.27,1.18.7.79,1.39,1.9,2.09,3.34l2.44,5.15h1.95l-.35-11.77h-39.96l-.35,11.77h1.95l2.44-5.15c.7-1.44,1.39-2.55,2.09-3.34.7-.79,1.79-1.18,3.27-1.18h5.5c.05,3.25.07,6.5.07,9.75v28.76c0,1.86-.97,2.99-2.92,3.41l-2.79.56v1.46h21.51ZM417.67,107.49v-1.46l-1.39-.42c-.88-.32-1.49-.75-1.81-1.29-.33-.53-.49-1.29-.49-2.26v-35.16c0-.97.16-1.73.49-2.26.32-.53.93-.96,1.81-1.29l1.39-.42v-1.46h-17.41v1.46l1.39.42c.93.33,1.54.75,1.85,1.29.3.53.45,1.29.45,2.26v35.16c0,.97-.15,1.73-.45,2.26-.3.53-.92.97-1.85,1.29l-1.39.42v1.46h17.41ZM370.67,95.62v-22.42c0-3.27.02-6.51.07-9.71h3.83c3.2,0,5.81.65,7.83,1.95,2.02,1.3,3.52,3.48,4.49,6.54.98,3.07,1.46,7.22,1.46,12.46s-.49,9.41-1.46,12.5c-.97,3.09-2.49,5.28-4.56,6.58-2.07,1.3-4.75,1.95-8.04,1.95h-3.55c-.05-3.25-.07-6.53-.07-9.85M374.08,107.49c4.97,0,9.32-.91,13.05-2.72,3.74-1.81,6.64-4.43,8.7-7.87,2.07-3.43,3.1-7.61,3.1-12.53s-.95-8.95-2.85-12.36c-1.9-3.41-4.62-6.02-8.15-7.83-3.53-1.81-7.73-2.72-12.6-2.72h-18.31v1.46l1.46.42c1.44.47,2.16,1.65,2.16,3.55.05,2.69.07,5.39.07,8.08v18.97c0,2.76-.02,5.46-.07,8.11,0,1.86-.74,3.02-2.23,3.48l-1.39.49v1.46h17.06ZM352.99,107.49l.49-11.14h-1.95l-2.58,6.27c-.33.88-.74,1.57-1.25,2.05-.51.49-1.23.73-2.16.73h-13.37c0-1.81-.01-3.66-.03-5.54-.02-1.88-.03-4.03-.03-6.44v-8.63h6.96c.93,0,1.62.26,2.09.77.46.51.88,1.18,1.25,2.02l1.25,2.65h1.53v-12.88h-1.53l-1.18,2.64c-.42.84-.87,1.5-1.36,1.98-.49.49-1.2.73-2.12.73h-6.89v-10.27c0-3.04.02-6,.07-8.88h11.84c.93,0,1.62.24,2.09.73.46.49.88,1.17,1.25,2.05l2.79,6.26h1.95l-.49-11.14h-33.14v1.46l1.46.49c.88.28,1.46.69,1.74,1.22.28.53.44,1.29.49,2.26v35.02c-.05,1.02-.23,1.82-.56,2.4-.33.58-.9.99-1.74,1.22l-1.39.49v1.46h34.53ZM288.44,75.35c0-2.34.01-4.46.03-6.34.02-1.88.03-3.72.03-5.53h3.97c3.25,0,5.61.82,7.07,2.47,1.46,1.65,2.19,4.19,2.19,7.62s-.77,5.99-2.3,7.66c-1.53,1.67-3.95,2.51-7.24,2.51h-3.76v-8.39ZM292.41,107.49v-1.46l-1.67-.49c-.88-.23-1.48-.63-1.78-1.18-.3-.56-.45-1.3-.45-2.23-.05-2.32-.07-4.8-.07-7.45v-8.91h5.01l10.38,21.72h12.32v-1.39l-1.32-.28c-1.67-.56-2.9-1.6-3.69-3.13l-9.47-18.45c3.3-1.11,5.74-2.71,7.35-4.8s2.4-4.15,2.4-6.2c0-3.71-1.47-6.6-4.42-8.67s-7.14-3.1-12.57-3.1h-19.49v1.46l1.53.49c.93.28,1.51.69,1.74,1.22.23.53.35,1.29.35,2.26.05,2.69.07,5.39.07,8.08v19.08c0,2.69-.02,5.38-.07,8.08,0,.98-.13,1.73-.38,2.26-.26.54-.85.94-1.77,1.22l-1.46.42v1.46h17.48ZM264.63,107.77c2.41-.6,4.62-1.46,6.62-2.58l.28-10.02h-1.88l-2.64,6.33c-.37.93-.81,1.75-1.32,2.47-.51.72-1.23,1.26-2.16,1.64-.79.33-1.58.58-2.37.77-.79.19-1.81.28-3.07.28-2.74,0-5.2-.68-7.38-2.05-2.18-1.37-3.91-3.68-5.19-6.93-1.28-3.25-1.92-7.64-1.92-13.16s.67-9.97,2.02-13.2c1.34-3.23,3.14-5.53,5.4-6.93,2.25-1.39,4.74-2.09,7.48-2.09,1.58,0,2.95.28,4.11.84.84.33,1.52.86,2.05,1.6.53.74,1.03,1.58,1.5,2.51l2.92,5.5h1.88l-.28-9.12c-2.04-1.12-4.18-1.96-6.41-2.54-2.23-.58-4.62-.87-7.17-.87-3.3,0-6.41.52-9.33,1.57-2.92,1.05-5.51,2.6-7.76,4.67-2.25,2.07-4.02,4.61-5.29,7.62-1.28,3.02-1.92,6.48-1.92,10.38,0,5.2,1.06,9.61,3.17,13.23,2.11,3.62,4.98,6.36,8.6,8.21,3.62,1.86,7.68,2.79,12.18,2.79,2.83,0,5.45-.3,7.87-.9M219.86,78.17c.88,2.09,1.07,5.48.56,10.17h-12.46c.09-3.48.43-6.18,1.01-8.11.58-1.93,1.37-3.27,2.37-4.04,1-.77,2.17-1.15,3.52-1.15,2.46,0,4.13,1.04,5.01,3.13M206.95,75.15c-2.62,1.42-4.76,3.45-6.41,6.09-1.65,2.65-2.47,5.87-2.47,9.68s.71,6.81,2.12,9.43,3.38,4.63,5.88,6.02c2.51,1.39,5.41,2.09,8.71,2.09s6.14-.71,8.53-2.12c2.39-1.41,4.28-3.4,5.67-5.95l-1.11-1.05c-1.21,1.39-2.53,2.47-3.97,3.24-1.44.77-3.32,1.15-5.64,1.15-3.34,0-5.88-1.04-7.62-3.13-1.74-2.09-2.64-5.52-2.68-10.3h20.96c.14-.46.23-.96.28-1.5.05-.53.07-1.1.07-1.71,0-2.74-.57-5.16-1.71-7.28-1.14-2.11-2.75-3.77-4.84-4.98-2.09-1.21-4.6-1.81-7.52-1.81s-5.63.71-8.25,2.12M194.66,107.49v-1.32l-.98-.28c-.88-.23-1.5-.64-1.84-1.22-.35-.58-.55-1.33-.59-2.26v-33.35l.28-9.82-.9-.63-12.18,2.92v1.32l1.05.28c.93.23,1.55.59,1.88,1.08.33.49.49,1.22.49,2.19v26.46c0,1.58-.01,3.17-.03,4.77-.02,1.6-.03,3.19-.03,4.77,0,1.81-.77,2.97-2.3,3.48l-1.05.28v1.32h16.22ZM151.63,104.49v-26.32c1.16-.65,2.25-1.11,3.27-1.39,1.02-.28,1.97-.42,2.85-.42,2.46,0,4.36,1.08,5.71,3.24,1.35,2.16,2.02,5.93,2.02,11.31s-.71,9.25-2.12,11.45c-1.42,2.2-3.35,3.31-5.81,3.31-2.09,0-4.06-.39-5.92-1.18M155.25,123.57v-1.32l-1.32-.35c-1.62-.47-2.44-1.63-2.44-3.48s-.01-3.67-.03-5.29c-.02-1.62-.03-3.13-.03-4.53v-2.09c1.25.65,2.68,1.14,4.28,1.46,1.6.33,3.31.49,5.12.49,4.5,0,8.06-1.57,10.69-4.7,2.62-3.13,3.93-7.51,3.93-13.12s-1.2-10.19-3.59-13.16c-2.39-2.97-5.56-4.46-9.5-4.46s-7.66,1.09-10.86,3.27l-.63-2.57-.84-.7-11.21,4.04v1.25l1.05.21c.93.19,1.55.55,1.88,1.08.33.53.49,1.29.49,2.26.05,1.3.07,2.47.07,3.52v22.87c0,1.58-.01,3.21-.03,4.91-.02,1.69-.03,3.49-.03,5.4,0,.97-.19,1.73-.56,2.26-.37.53-1.02.92-1.95,1.15l-.9.28v1.32h16.43ZM95.44,107.49v-1.39l-1.18-.35c-1.3-.32-1.95-1.25-1.95-2.79v-22.56c2.46-2.04,4.76-3.06,6.89-3.06,1.67,0,2.85.39,3.55,1.18.7.79,1.05,2.14,1.05,4.04v20.33c0,.74-.13,1.34-.38,1.78-.25.44-.75.78-1.5,1.01l-1.46.42v1.39h15.74v-1.39l-1.18-.35c-.74-.18-1.24-.5-1.5-.94-.25-.44-.41-1.06-.45-1.85v-17.68c0-1.81-.14-3.41-.42-4.8,1.35-1.07,2.58-1.85,3.69-2.37,1.11-.51,2.3-.77,3.55-.77,1.62,0,2.8.36,3.52,1.08.72.72,1.08,2.08,1.08,4.07v20.4c0,1.49-.63,2.44-1.88,2.85l-1.25.35v1.39h15.67v-1.39l-1.32-.35c-1.3-.37-1.95-1.3-1.95-2.79v-20.12c0-3.39-.79-5.87-2.37-7.45-1.58-1.58-3.95-2.37-7.1-2.37-2.09,0-4.2.5-6.33,1.5-2.14,1-4.09,2.38-5.85,4.14-.7-1.9-1.69-3.32-2.99-4.25-1.3-.93-3.11-1.39-5.43-1.39-2.09,0-4.13.53-6.13,1.6-2,1.07-3.81,2.34-5.43,3.83l-.49-4.66-.84-.77-11.28,4.04v1.25l1.46.35c.79.18,1.3.5,1.53.94.23.44.35,1.06.35,1.84.05,1.44.07,2.69.07,3.76v17.68c-.05.74-.19,1.34-.42,1.78-.23.44-.72.78-1.46,1.01l-1.53.42v1.39h15.94ZM76.44,107.49v-1.32l-.77-.21c-.88-.28-1.5-.69-1.84-1.25-.35-.56-.52-1.3-.52-2.23v-18.8l.21-9.89-.84-.77-12.18,4.04v1.25l.98.21c.93.19,1.57.55,1.91,1.08.35.53.52,1.26.52,2.19.05,1.3.07,2.57.07,3.79v16.82c-.05.93-.23,1.67-.56,2.23-.33.56-.95.97-1.88,1.25l-1.05.28v1.32h15.94ZM72.4,67.73c1.07-.97,1.6-2.2,1.6-3.69s-.53-2.77-1.6-3.72c-1.07-.95-2.37-1.43-3.9-1.43s-2.83.48-3.9,1.43c-1.07.95-1.6,2.19-1.6,3.72s.53,2.72,1.6,3.69c1.07.98,2.37,1.46,3.9,1.46s2.83-.49,3.9-1.46M52.31,104.88c3.09-2.53,4.63-5.84,4.63-9.92,0-3.43-.97-6.25-2.92-8.46-1.95-2.21-5.18-4.28-9.68-6.23l-3.13-1.32c-2.37-1.07-4.18-2.3-5.43-3.69s-1.88-3.2-1.88-5.43.82-4.14,2.47-5.46c1.65-1.32,3.61-1.98,5.88-1.98.65,0,1.17.02,1.57.07.39.05.87.12,1.43.21.98.19,1.8.62,2.47,1.29.67.67,1.38,1.78,2.12,3.31l2.57,5.22h2.02l.49-8.63c-1.63-1.11-3.52-2-5.67-2.65-2.16-.65-4.47-.97-6.93-.97-3.34,0-6.27.53-8.77,1.6-2.51,1.07-4.47,2.59-5.88,4.56-1.42,1.97-2.12,4.35-2.12,7.13,0,3.76,1.12,6.78,3.38,9.05,2.25,2.28,5.33,4.27,9.22,5.99l2.85,1.25c2.51,1.16,4.33,2.37,5.47,3.62,1.14,1.25,1.71,2.97,1.71,5.15,0,2.41-.82,4.35-2.47,5.81-1.65,1.46-3.89,2.19-6.72,2.19-.88,0-1.68-.06-2.4-.17-.72-.11-1.47-.34-2.26-.66-1.16-.46-2.09-1.14-2.79-2.02-.7-.88-1.37-1.99-2.02-3.34l-2.16-4.8h-2.02l-.42,9.68c1.76,1.02,3.96,1.84,6.58,2.47,2.62.63,5.21.94,7.76.94,5.62,0,9.97-1.26,13.05-3.79"/>
</svg>