<?xml version="1.0" encoding="UTF-8"?>
<svg id="Layer_1" xmlns="http://www.w3.org/2000/svg" version="1.1" viewBox="0 0 107.5 48.3">
  <!-- Generator: Adobe Illustrator 30.0.0, SVG Export Plug-In . SVG Version: 2.1.1 Build 123)  -->
  <defs>
    <style>
      .st0 {
        fill: #232256;
      }

      .st1 {
        fill: #5253a3;
      }
    </style>
  </defs>
  <polygon class="st1" points="23.3 15.9 23.3 23.3 23.3 30.6 15.9 30.6 8.5 30.6 1.1 30.6 1.1 23.2 8.5 23.2 15.9 23.2 15.9 15.9 23.3 15.9"/>
  <polygon class="st1" points="23.3 1.1 23.3 8.5 15.9 8.5 8.5 8.5 8.5 15.9 1.1 15.9 1.1 8.4 1.1 1.1 15.9 1.1 23.3 1.1"/>
  <g>
    <path class="st0" d="M86.2,19.9c-.5-.4-1.1-.8-1.7-.9-.6-.2-1.3-.3-1.9-.3s-1.1,0-1.7.2-1,.4-1.4.7-.8.7-1,1.2c-.2.5-.4,1-.4,1.7s.1,1.2.4,1.6c.3.4.6.7,1,1,.4.2.8.4,1.3.6s.9.3,1.3.4.8.3,1,.5.4.5.4.8c0,.2,0,.4-.2.5,0,.1-.2.3-.4.4-.2.1-.4.2-.6.2s-.4,0-.6,0c-.4,0-.8-.1-1.2-.3s-.7-.5-1-.8l-1.8,2c.6.5,1.2.9,1.8,1.1s1.4.4,2.1.4,1.2,0,1.7-.2,1-.4,1.4-.7.7-.7,1-1.2.4-1,.4-1.7-.1-1.2-.4-1.6c-.3-.4-.6-.7-1-1-.4-.2-.8-.4-1.3-.6-.5-.1-.9-.3-1.3-.4s-.7-.3-1-.5c-.3-.2-.4-.5-.4-.8s0-.4.2-.6.3-.3.4-.4c.2,0,.4-.2.6-.2.2,0,.4,0,.6,0,.3,0,.7,0,1,.2.4.1.6.3.8.6l1.8-1.9h0ZM68.3,30.7h8.3v-2.4h-5.7v-2.4h5.1v-2.4h-5.1v-2.2h5.4v-2.4h-8v11.7s0,0,0,0ZM66.5,20.4c-.2-.3-.5-.6-.9-.8s-.7-.4-1-.5c-.3-.1-.7-.2-1.1-.3-.4,0-.7,0-1,0-.9,0-1.8.1-2.5.4s-1.4.7-2,1.2c-.6.5-1,1.2-1.3,1.9s-.5,1.6-.5,2.5.2,1.8.5,2.5c.3.8.8,1.4,1.3,2,.6.5,1.2,1,2,1.2.8.3,1.6.4,2.5.4s1.6-.2,2.3-.5,1.4-.8,1.9-1.5l-2.2-1.6c-.3.4-.6.7-1,.9-.4.2-.9.3-1.4.3s-.9,0-1.3-.3c-.4-.2-.8-.5-1-.8s-.5-.7-.7-1.2c-.2-.5-.3-1-.2-1.5,0-.5,0-1,.3-1.5.2-.5.4-.9.7-1.2s.7-.6,1.1-.8c.4-.2.9-.3,1.3-.3s.9,0,1.3.2.7.4.9.7l2-1.6h0ZM51.7,26h-2.9l1.4-3.6,1.4,3.6h0ZM44.2,30.7h2.8l1-2.5h4.5l1,2.5h2.9l-5.1-11.7h-2.1s-5.1,11.7-5.1,11.7ZM39.2,21.1h1.3c.2,0,.5,0,.8,0,.3,0,.5,0,.7.2s.4.2.5.4.2.4.2.7,0,.5-.2.7c-.1.2-.2.3-.4.4-.2.1-.4.2-.6.2-.2,0-.4,0-.7,0h-1.7v-2.8h0ZM36.6,30.6h2.6v-4.6h1.9c.6,0,1.2,0,1.7-.2.5-.1,1-.3,1.4-.6s.7-.6.9-1.1c.2-.5.3-1,.3-1.7s-.1-1.3-.3-1.7c-.2-.5-.6-.8-1-1.1-.4-.3-.9-.5-1.4-.6-.5-.1-1.1-.2-1.7-.2h-4.4v11.7s0,0,0,0ZM35.2,19.9c-.5-.4-1-.8-1.7-1s-1.3-.3-1.9-.3-1.1,0-1.7.2-1,.4-1.4.7c-.4.3-.8.7-1,1.2-.2.5-.4,1-.4,1.7s.1,1.2.4,1.6c.3.4.6.7,1,1s.9.4,1.3.6c.5.1.9.3,1.3.4s.8.3,1,.5c.3.2.4.5.4.8s0,.4-.2.5c-.1.1-.2.3-.4.4-.2.1-.4.2-.6.2-.2,0-.4,0-.6,0-.4,0-.9-.1-1.2-.3s-.7-.5-1-.8l-1.8,2c.6.5,1.2.9,1.8,1.1s1.4.4,2.1.4,1.2,0,1.7-.2c.5-.1,1-.4,1.4-.7s.7-.7,1-1.2c.2-.5.4-1,.4-1.7s-.1-1.2-.4-1.6c-.3-.4-.6-.7-1-1-.4-.2-.8-.4-1.3-.6s-.9-.3-1.3-.4-.7-.3-1-.5c-.3-.2-.4-.5-.4-.8s0-.4.2-.6c.1-.1.2-.3.4-.4s.4-.2.6-.2c.2,0,.4,0,.6,0,.3,0,.7,0,1,.2.4.1.6.3.8.6l1.8-1.9h0Z"/>
    <path class="st0" d="M33.5,4.3c-.2-.3-.5-.5-.9-.6s-.7-.2-1-.2-.4,0-.6,0c-.2,0-.4.1-.6.2-.2,0-.3.2-.4.4-.1.2-.2.3-.2.6,0,.4.1.6.4.8s.6.3,1,.5c.4.1.8.3,1.3.4s.9.3,1.3.6c.4.2.7.6,1,1,.3.4.4,1,.4,1.6s-.1,1.2-.4,1.7c-.2.5-.6.9-1,1.2-.4.3-.9.6-1.5.7s-1.1.2-1.8.2-1.5-.1-2.1-.4c-.7-.2-1.3-.6-1.8-1.1l1.9-2c.3.4.6.6,1,.8s.8.3,1.3.3.4,0,.6,0c.2,0,.4-.1.6-.2.2-.1.3-.2.4-.4.1-.2.2-.3.2-.6,0-.4-.1-.6-.4-.8-.3-.2-.6-.4-1-.5-.4-.1-.9-.3-1.3-.4-.5-.1-.9-.3-1.3-.6-.4-.2-.8-.6-1-1-.3-.4-.4-.9-.4-1.6s.1-1.2.4-1.7.6-.9,1-1.2.9-.6,1.5-.7c.5-.2,1.1-.2,1.7-.2s1.3.1,1.9.3c.6.2,1.2.5,1.7,1l-1.8,2h0Z"/>
    <path class="st0" d="M36.3,5.1h2.5v8.1h-2.5V5.1h0ZM36.1,2.5c0-.4.1-.7.4-1,.3-.3.6-.4,1-.4s.7.1,1,.4c.3.3.4.6.4,1s-.1.7-.4,1c-.3.3-.6.4-1,.4-.4,0-.7-.1-1-.4-.3-.3-.4-.6-.4-1"/>
    <path class="st0" d="M40,5.1h2.4v1.1h0c0-.2.2-.3.3-.5.1-.2.3-.3.5-.4.2-.1.4-.2.7-.3.3,0,.5-.1.8-.1.6,0,1.1.1,1.5.3.4.2.8.6,1,1.1.3-.5.6-.9,1-1.1s.9-.3,1.5-.3,1,0,1.4.3c.4.2.7.4.9.8.2.3.4.7.5,1.1,0,.4.1.9.1,1.4v4.8h-2.5v-4.7c0-.4,0-.7-.2-1-.2-.3-.5-.4-.9-.4s-.5,0-.7.1c-.2,0-.3.2-.5.4-.1.2-.2.4-.2.6s0,.5,0,.7v4.3h-2.5v-4.3c0-.1,0-.3,0-.5s0-.4-.1-.6-.2-.3-.3-.5-.4-.2-.7-.2-.6,0-.8.2c-.2.1-.3.3-.5.5-.1.2-.2.4-.2.7,0,.2,0,.5,0,.8v4h-2.5V5.1h0Z"/>
    <path class="st0" d="M56,9.2c0,.6.2,1.1.5,1.5.3.4.8.6,1.5.6s1.1-.2,1.5-.6c.3-.4.5-.9.5-1.5s-.2-1.1-.5-1.5c-.3-.4-.8-.6-1.5-.6s-1.1.2-1.5.6c-.3.4-.5.9-.5,1.5M53.7,5.1h2.3v1.1h0c0-.2.2-.3.4-.4s.3-.3.6-.4.5-.2.7-.3c.3,0,.5-.1.8-.1.6,0,1.2,0,1.6.3.5.2.9.5,1.3.9s.6.8.8,1.3c.2.5.3,1.1.3,1.7s0,1.1-.3,1.6c-.2.5-.4,1-.7,1.4-.3.4-.7.7-1.2,1s-1,.4-1.5.4-1,0-1.5-.2-.8-.4-1.1-.8h0v4.7h-2.5V5.1h0Z"/>
  </g>
  <rect class="st0" x="63.4" y=".6" width="2.5" height="12.6"/>
  <g>
    <path class="st0" d="M72.6,8.3c0-.4-.1-.8-.4-1.1s-.7-.4-1.1-.4-.5,0-.7.1c-.2,0-.4.2-.5.3-.2.1-.3.3-.3.5s-.1.4-.1.6c0,0,3.3,0,3.3,0ZM74.7,11.9c-.4.5-.9.9-1.5,1.2-.6.3-1.2.4-1.9.4s-1.2-.1-1.8-.3-1-.5-1.4-.9c-.4-.4-.7-.8-1-1.3-.2-.5-.3-1.1-.3-1.8s.1-1.2.3-1.8c.2-.5.6-1,1-1.3.4-.4.9-.7,1.4-.9.6-.2,1.1-.3,1.8-.3s1.1,0,1.6.3c.5.2.9.5,1.2.9.3.4.6.8.8,1.3.2.5.3,1.1.3,1.8v.8h-5.8c0,.5.3.9.7,1.1.3.3.7.4,1.2.4s.8,0,1-.3.5-.4.7-.7l1.8,1.3h0Z"/>
    <path class="st0" d="M33.5,4.3c-.2-.3-.5-.5-.9-.6s-.7-.2-1-.2-.4,0-.6,0c-.2,0-.4.1-.6.2-.2,0-.3.2-.4.4-.1.2-.2.3-.2.6,0,.4.1.6.4.8s.6.3,1,.5c.4.1.8.3,1.3.4s.9.3,1.3.6c.4.2.7.6,1,1,.3.4.4,1,.4,1.6s-.1,1.2-.4,1.7c-.2.5-.6.9-1,1.2-.4.3-.9.6-1.5.7s-1.1.2-1.8.2-1.5-.1-2.1-.4c-.7-.2-1.3-.6-1.8-1.1l1.9-2c.3.4.6.6,1,.8s.8.3,1.3.3.4,0,.6,0c.2,0,.4-.1.6-.2.2-.1.3-.2.4-.4.1-.2.2-.3.2-.6,0-.4-.1-.6-.4-.8-.3-.2-.6-.4-1-.5-.4-.1-.9-.3-1.3-.4-.5-.1-.9-.3-1.3-.6-.4-.2-.8-.6-1-1-.3-.4-.4-.9-.4-1.6s.1-1.2.4-1.7.6-.9,1-1.2.9-.6,1.5-.7c.5-.2,1.1-.2,1.7-.2s1.3.1,1.9.3c.6.2,1.2.5,1.7,1l-1.8,2h0Z"/>
    <path class="st0" d="M36.3,5.1h2.5v8.1h-2.5V5.1h0ZM36.1,2.5c0-.4.1-.7.4-1,.3-.3.6-.4,1-.4s.7.1,1,.4c.3.3.4.6.4,1s-.1.7-.4,1c-.3.3-.6.4-1,.4-.4,0-.7-.1-1-.4-.3-.3-.4-.6-.4-1"/>
    <path class="st0" d="M40,5.1h2.4v1.1h0c0-.2.2-.3.3-.5.1-.2.3-.3.5-.4.2-.1.4-.2.7-.3.3,0,.5-.1.8-.1.6,0,1.1.1,1.5.3.4.2.8.6,1,1.1.3-.5.6-.9,1-1.1s.9-.3,1.5-.3,1,0,1.4.3c.4.2.7.4.9.8.2.3.4.7.5,1.1,0,.4.1.9.1,1.4v4.8h-2.5v-4.7c0-.4,0-.7-.2-1-.2-.3-.5-.4-.9-.4s-.5,0-.7.1c-.2,0-.3.2-.5.4-.1.2-.2.4-.2.6s0,.5,0,.7v4.3h-2.5v-4.3c0-.1,0-.3,0-.5s0-.4-.1-.6-.2-.3-.3-.5-.4-.2-.7-.2-.6,0-.8.2c-.2.1-.3.3-.5.5-.1.2-.2.4-.2.7,0,.2,0,.5,0,.8v4h-2.5V5.1h0Z"/>
    <path class="st0" d="M56,9.2c0,.6.2,1.1.5,1.5.3.4.8.6,1.5.6s1.1-.2,1.5-.6c.3-.4.5-.9.5-1.5s-.2-1.1-.5-1.5c-.3-.4-.8-.6-1.5-.6s-1.1.2-1.5.6c-.3.4-.5.9-.5,1.5M53.7,5.1h2.3v1.1h0c0-.2.2-.3.4-.4s.3-.3.6-.4.5-.2.7-.3c.3,0,.5-.1.8-.1.6,0,1.2,0,1.6.3.5.2.9.5,1.3.9s.6.8.8,1.3c.2.5.3,1.1.3,1.7s0,1.1-.3,1.6c-.2.5-.4,1-.7,1.4-.3.4-.7.7-1.2,1s-1,.4-1.5.4-1,0-1.5-.2-.8-.4-1.1-.8h0v4.7h-2.5V5.1h0Z"/>
  </g>
  <rect class="st0" x="63.4" y=".6" width="2.5" height="12.6"/>
  <path class="st0" d="M72.6,8.3c0-.4-.1-.8-.4-1.1s-.7-.4-1.1-.4-.5,0-.7.1c-.2,0-.4.2-.5.3-.2.1-.3.3-.3.5s-.1.4-.1.6c0,0,3.3,0,3.3,0ZM74.7,11.9c-.4.5-.9.9-1.5,1.2-.6.3-1.2.4-1.9.4s-1.2-.1-1.8-.3-1-.5-1.4-.9c-.4-.4-.7-.8-1-1.3-.2-.5-.3-1.1-.3-1.8s.1-1.2.3-1.8c.2-.5.6-1,1-1.3.4-.4.9-.7,1.4-.9.6-.2,1.1-.3,1.8-.3s1.1,0,1.6.3c.5.2.9.5,1.2.9.3.4.6.8.8,1.3.2.5.3,1.1.3,1.8v.8h-5.8c0,.5.3.9.7,1.1.3.3.7.4,1.2.4s.8,0,1-.3.5-.4.7-.7l1.8,1.3h0Z"/>
  <polygon class="st0" points="88.3 21 88.3 19.4 87.7 19.4 87.7 18.9 89.4 18.9 89.4 19.4 88.8 19.4 88.8 21 88.3 21"/>
  <path class="st0" d="M89.8,21v-2.1h.4l.8,1.2h-.3l.8-1.2h.4v2.1h-.5v-.6c0-.2,0-.3,0-.5,0-.1,0-.3,0-.4h0c0,.1-.6,1-.6,1h-.2l-.6-.9v-.2c0,.1,0,.3,0,.4,0,.1,0,.3,0,.5v.6h-.5Z"/>
</svg>