<?xml version="1.0" encoding="UTF-8"?>
<svg id="Layer_1" data-name="Layer 1" xmlns="http://www.w3.org/2000/svg" viewBox="0 0 773.38 329.23">
  <defs>
    <style>
      .cls-1 {
        fill: #202151;
      }

      .cls-1, .cls-2 {
        stroke-width: 0px;
      }

      .cls-2 {
        fill: #fff;
      }
    </style>
  </defs>
  <polygon class="cls-1" points="345.86 217.03 334.3 216.92 323.37 216.89 312.41 215.39 308.51 214.24 303.76 211.58 300.85 208.63 299.55 202.93 302.96 194.47 313.36 183.21 322.07 176.21 328.98 172.65 337.38 169.6 344.79 168.55 354.4 168.65 368.71 169.25 376.77 169.2 386.32 168.6 403.97 165.05 405.48 163.46 407.42 161.57 417.23 163.49 429.01 168.45 433.81 171.1 438.97 174.7 441.92 178.51 442.57 181.11 442.97 184.66 441.87 188.82 438.16 193.52 434.41 197.32 430.01 200.73 422.6 204.23 413.34 207.48 397.08 211.63 382.07 213.84 373.61 215.19 361.8 216.29 344.29 217.59 345.86 217.03"/>
  <path class="cls-2" d="M-14.48,272.84c25.33-3.92,90.62-1.96,115.92.55,27.88,2.77,55.75,6.2,83.83,5.28,21.72-.71,43.42-2.3,65.1-3.76,13.61-.92,27.08-.41,39.81,2.24-.64-1.85-2.44-4.59-1.74-5.59,1.3-1.88,3.93-3.48,6.24-3.89,6.32-1.14,12.04.12,15.44,6.56,2.07-.53,4.11-1.06,6.63-1.7-2.71-.99-5.1-1.75-7.38-2.72-8.17-3.49-11.82-9.65-10.18-18.35.92-4.86,2.43-9.74,4.52-14.22,2.28-4.89,6.67-7.15,12.19-5.96,17.57,3.78,35.33,4.73,53.23,3.87,1.25-.06,2.49-.11,3.78-.89-8.45-.47-16.9-.81-25.34-1.44-7.38-.55-14.77-1.24-22.09-2.26-1.98-.28-3.76-2.01-5.62-3.07,1.65-1.51,3.05-3.67,4.99-4.39,4.92-1.82,10.07-3.01,15.14-4.43,1.17-.33,2.36-.6,3.42-.49-9.62-.6-19.31-.66-28.84-1.94-15.74-2.12-19.72-12.28-9.7-24.5,9.08-11.08,20.03-20.2,34.42-22.92,7.88-1.49,16.27-.62,24.4-.27,13.28.57,26.36-.45,39.27-3.59.33-.08.61-.38,1.84-1.18-4.34.47-7.68.82-11.02,1.2-3.37.38-6.75.74-10.11,1.2-11.8,1.62-23.55,1.87-35.18-1.14-6.8-1.76-12.99-4.8-17.91-9.89-1.88-1.95-3.62-4.25-4.74-6.7-3.71-8.07-.25-16.2,8.45-17.75,6.93-1.24,14.25-.92,21.34-.46,10.9.7,21.75,2.74,32.68.95,5.96-.97,11.85-2.44,17.77-3.68-.08-.5-.16-1-.25-1.5-6.38.59-12.75,1.16-19.12,1.77-13.69,1.31-27.41,1.88-40.88-1.32-4.15-.99-7.87-3.81-11.79-5.8,5.95,3.29,12.24,5.38,19.07,6.13,15.12,1.68,30.12.44,45.11-1.29,4.6-.53,9.21.25,13.28-3.94,4.98-5.14,5.55-9.42-.8-12.76-10.81-5.7-22.08-10.14-34.76-9.26-4.37.3-8.79.07-13.18-.1-1.32-.05-2.61-.7-3.91-1.08.06-.47.13-.95.19-1.42,5.29,0,10.71-.75,15.84.16,9.89,1.75,18.62-1.12,27.15-5.27,3.61-1.76,7.34-4.07,6.83-8.95-.5-4.81-4.64-6.12-8.39-7.6-1.76-.69-3.56-1.27-5.87-2.09,1.13-.86,1.62-1.22,2.1-1.59,1.75-1.34,5.48-1.44,4.48-4.47-.42-1.27-3.85-2.01-5.97-2.19-9.02-.76-17.62-2.84-25.37-7.59-1.74-1.06-2.78-3.26-4.15-4.93.26-.29.53-.59.79-.88-1.12-.11-2.32-.53-3.33-.25-2.3.64-5.7,1.06-6.44,2.61-.97,2.05-.61,5.6.63,7.61,1.62,2.62,4.39,4.88,7.16,6.37,8.69,4.66,17.96,5.11,27.43,2.63,1.4-.37,2.82-.65,4.23-.97.07.41.13.82.2,1.23-6.21,1.31-12.45,2.49-18.62,3.95-10.48,2.48-21,4.84-31.31,7.88-3.57,1.05-6.88,3.63-9.79,6.12-3.57,3.06-2.87,6.05,1.55,7.54,3.43,1.16,7.02,1.98,10.59,2.57,17.09,2.84,34.21,5.53,51.3,8.34,1.81.3,3.53,1.06,5.3,1.61l-.23,1.36c-1.79.18-3.63.72-5.36.48-8.94-1.22-17.9-2.34-26.74-4.09-7.86-1.55-15.5-4.22-23.36-5.76-6.18-1.21-11.98.62-16.83,4.78-3.75,3.21-4.24,6.42-1.75,10.7.92,1.58,2.04,3.05,3.06,4.57-7-4.54-7.58-12.13-.92-16.86,3.09-2.19,6.87-3.41,10.14-4.98-1.34-.38-3.19-.8-4.97-1.44-6.05-2.18-6.91-6.09-1.91-10.21,2.86-2.36,6.12-4.74,9.6-5.77,9.83-2.91,19.86-5.13,29.81-7.62.55-.14,1.11-.22,1.7-.87-2.27-.48-4.57-.86-6.81-1.47-5.56-1.51-10.62-3.96-14.13-8.73-2.11-2.87-3.24-6.15-1.29-9.48,1.9-3.26,5.34-3.77,8.64-3.22,13.24,2.2,25.68,6.82,37.47,13.18,1.98,1.07,1.72,5.31-.43,6.97-1.17.91-2.54,1.57-3.99,2.45,2.77,1.19,5.48,2.07,7.92,3.44,6.51,3.68,7.29,10.05,1.04,14.07-5.79,3.73-12.52,6.01-18.4,8.72,1,.28,3.01.71,4.92,1.42,5.86,2.18,11.84,4.15,17.49,6.8,8.28,3.88,8.69,11.82,1.39,15.48-.73.37-1.26,1.13-2.44,2.23,3.3.67,6.09.99,8.72,1.83,4.38,1.41,9.02,2.56,12.91,4.88,7.11,4.25,7.95,11.66,2.56,17.96-5.19,6.06-12,9.35-19.71,10.95-.55.11-1.1.22-2.62.54,4.11,1.28,7.43,1.95,10.43,3.33,5.44,2.5,11.15,4.8,15.9,8.32,7.91,5.87,8.22,13.77,1.63,21.14-4.97,5.56-11.34,9.2-18.24,11.65-6.95,2.47-14.16,4.23-21.25,6.3-.93.27-1.86.55-2.52.22,11.28,2.48,22.57,4.87,33.81,7.52,2.9.68,5.68,2,8.4,3.28,15.64,7.34,19.08,19.74,17.06,34.5-.76,5.59-4.55,9.29-9.81,10.9-6.82,2.09-13.81,3.6-20.71,5.41-.73.19-1.36.73-2.05,1.09-1.12-.12-2.26-.43-3.34-.31-5.13.57-8.9-1.37-11.96-5.51-1.84-2.49-4.18-4.71-6.61-6.65-6.48-5.16-14.12-5.91-21-1.33-4.74,3.16-9.08,7.12-12.96,11.31-4.56,4.92-3.31,8.52,3.32,8.87,9.09.49,18.34.56,27.35-.55,8.5-1.05,16.78-3.85,25.15-5.88,13.43-.23,26.86-.47,40.29-.67,4.5-.07,319.04-.01,323.54-.01.02.38.04.75.06,1.13-1.2,0-2.39,0-3.59,0-14.58-.03-339.2-.38-353.76.05-7.31.21-14.73.97-21.31,5.22-1.78,1.15-4.69.41-7.02.86-9.95,1.91-19.94,2.52-30,1.26-1.71-.21-3.45-.77-5.03-1.48-2.59-1.18-3.66-3.52-2.17-5.89,5.57-8.85,12.76-15.91,23.48-17.97,5.18-.99,10.05.7,14.06,4.07,2.86,2.41,5.56,5.12,7.89,8.04,2.66,3.34,6.02,4.76,9.93,3.99,8.6-1.71,17.18-3.57,25.64-5.88,5.65-1.55,8.93-5.63,9.86-11.62,2.11-13.71-3.43-25.41-15.62-31.28-2.65-1.28-6.2-.59-9.28-1.11-13.12-2.18-26.15-5.26-39.35-6.53-21.03-2.02-41.92-.12-62.29,5.84-2.83.83-5.41,2.5-8.11,3.78.09.51.17,1.02.26,1.52,2.2.67,4.37,1.75,6.61,1.94,12.77,1.09,25.56,1.83,38.32,2.95,23.99,2.1,47.65-1.05,71.31-4.26,1.72-.23,3.45-.35,5.17-.52.14.36.29.72.43,1.08-1.53.75-2.99,1.69-4.59,2.22-12.83,4.25-26.02,5.02-39.45,4.53-9.77-.36-19.59-.37-29.34.21-17.43,1.03-34.64.08-51.72-3.55-7.35-1.56-11.77.54-14.27,7.58-1.77,4.99-2.72,10.39-3.21,15.69-.45,4.83,2.08,8.82,6.32,11.22,8.57,4.85,17.5,6.75,27,2.54,3.2-1.42,6.47-2.81,9.83-3.74,5.78-1.58,11.22-.49,16.05,3.12,4.01,3,3.75,7.53-1.05,8.81-4.85,1.3-10.18,1.81-15.18,1.32-5.93-.58-11.75-2.46-17.56-4.02-6.44-1.73-12.26-1.83-18.21,2.34-2.6,1.82-7.09,2.01-10.49,1.49-15.56-2.42-31.13-4.09-46.91-3.02-16.42,1.11-32.84,2.72-49.28,3.08-18.7.41-37.46.38-56.13-.71-28.08-1.64-56.07-4.7-84.14-6.45-9.7-.6-59.54.91-69.31,1.46-1.87.1-3.75.2-5.62.31,0-.25,0-.5,0-.75ZM407.23,162.62c.13.69.27,1.38.4,2.06-4.79,1.12-9.54,2.44-14.37,3.32-13.21,2.41-26.54,1.99-39.84,1.04-22.87-1.63-38.37,10.32-50.53,27.68-5.28,7.53-2.2,14.67,6.66,17.18,5.01,1.42,10.36,2.38,15.55,2.35,15.7-.1,31.4-.69,47.09-1.34,2.98-.12,5.88-1.65,8.88-2.14,9.01-1.49,18.17-2.22,27.03-4.3,10.28-2.42,20.21-6.19,28.17-13.62,8.56-7.99,8.06-16.95-1.94-22.97-5.94-3.57-12.73-5.76-19.22-8.34-2.46-.98-5.17-1.35-7.77-1.99,1.42-1.13,2.81-1.44,4.21-1.7,7.44-1.39,14.22-4.16,19.62-9.64,6.68-6.77,5.57-15.14-3.16-18.9-5.66-2.44-12-3.33-18.06-4.83-.59-.14-1.35.27-1.99.52-2.21.86-4.36,1.92-6.62,2.62-13.9,4.26-28.01,3.37-42.22,2.02-7.58-.72-15.32-1.09-22.87-.37-9.46.91-13.55,9.52-8.9,17.81,1.61,2.87,4.03,5.48,6.59,7.6,7.45,6.15,16.46,8.92,25.85,9.01,10.88.1,21.78-1.03,32.66-1.73,4.93-.32,9.84-.89,14.75-1.34ZM324.21,273.88c5.86,1.41,11.48,3.32,17.23,3.98,5.01.58,10.22.05,15.26-.59,1.59-.2,3.92-2.18,4.12-3.6.19-1.35-1.64-3.5-3.12-4.49-5.54-3.69-11.5-3.62-17.59-1.25-5.09,1.99-10.24,3.84-15.91,5.95ZM309.25,274.57c-1.39-1.6-2.2-3.04-3.42-3.87-3.98-2.67-8.44-3.23-12.9-1.61-1.51.55-2.58,2.3-3.85,3.5,1.26,1.26,2.31,3.15,3.82,3.66,5.33,1.81,10.51.56,16.35-1.68ZM398.3,63.82c-4.88-4.25-27.15-11.56-30.73-10.09,3.85,5.29,19.2,10.34,30.73,10.09ZM397.97,234.15c13.49,1.69,26.69.43,39.56-4.11-13.19,1.37-26.37,2.74-39.56,4.11ZM402.33,109.43l.02-.99c-11.61-1.81-23.23-3.62-34.84-5.43,11.26,4.34,22.83,6.72,34.82,6.41ZM431.8,222.67c.07-.51.15-1.03.22-1.54-8.89-1.54-17.77-3.09-26.66-4.63-.07.39-.14.79-.21,1.18,8.88,1.66,17.76,3.33,26.64,4.99ZM410.97,216.07c.07-.12.15-.24.22-.36-3.09-.37-6.18-.8-9.28-1.1-2.99-.29-6-.55-9-.66-2.98-.11-5.96-.02-8.94-.02,0,.24.02.47.02.71,8.99.48,17.99.96,26.98,1.44ZM363.18,97.3c0,.39,0,.78,0,1.17h11.77l.03-.47c-3.93-.24-7.86-.47-11.79-.71Z"/>
</svg>