<?xml version="1.0" encoding="UTF-8"?>
<svg id="Layer_2" data-name="Layer 2" xmlns="http://www.w3.org/2000/svg" viewBox="0 0 32.4 202.16">
  <defs>
    <style>
      .cls-1 {
        fill: #d0d0cf;
      }

      .cls-2 {
        fill: #fff;
      }
    </style>
  </defs>
  <g>
    <path class="cls-1" d="M31.99,19.49v6.67s-20.48-.01-20.48-.01c-2.3,0-4.31-.55-6.03-1.64-1.72-1.09-3.06-2.62-4.02-4.58C.5,17.95.02,15.67.02,13.06c0-2.62.48-4.91,1.44-6.86S3.77,2.71,5.49,1.63,9.23,0,11.53,0h20.47s0,6.68,0,6.68H12.09c-1.2-.01-2.27.25-3.2.78-.93.53-1.67,1.27-2.2,2.24-.53.96-.8,2.09-.8,3.37,0,1.29.27,2.42.8,3.38.53.96,1.27,1.7,2.2,2.23.93.53,2,.79,3.2.79h19.9Z"/>
    <path class="cls-1" d="M22.9,48.73c1.24-.12,2.21-.65,2.89-1.58.69-.93,1.03-2.2,1.03-3.8,0-1.09-.15-2.01-.45-2.76-.3-.75-.72-1.32-1.25-1.72s-1.14-.59-1.82-.59c-.56-.02-1.06.1-1.48.36s-.78.62-1.09,1.08c-.3.46-.56.99-.79,1.6-.22.61-.41,1.25-.56,1.94l-.68,2.83c-.31,1.38-.72,2.64-1.23,3.79-.51,1.15-1.15,2.14-1.89,2.98-.75.84-1.63,1.5-2.65,1.96-1.02.47-2.18.7-3.5.71-1.93-.01-3.6-.5-5.01-1.47-1.41-.97-2.5-2.37-3.28-4.19S0,45.86,0,43.29c0-2.54.39-4.76,1.17-6.64.78-1.88,1.94-3.35,3.47-4.4,1.53-1.05,3.44-1.6,5.7-1.65v6.45c-1.06.07-1.94.38-2.65.91-.7.54-1.23,1.26-1.59,2.17-.35.91-.53,1.94-.53,3.09,0,1.13.16,2.11.49,2.95.33.84.78,1.49,1.37,1.95.58.46,1.26.69,2.02.69.71,0,1.3-.21,1.79-.62.48-.42.89-1.02,1.23-1.82s.65-1.77.93-2.92l.86-3.43c.65-2.66,1.66-4.75,3.04-6.29,1.38-1.54,3.23-2.3,5.56-2.29,1.91,0,3.58.5,5,1.54s2.54,2.45,3.34,4.26c.8,1.81,1.2,3.86,1.2,6.16,0,2.34-.4,4.38-1.21,6.13s-1.92,3.11-3.34,4.08c-1.43.97-3.08,1.48-4.96,1.51v-6.39Z"/>
    <path class="cls-1" d="M26.45,78.92h5.5s-.02,25.9-.02,25.9h-5.5s0-9.66,0-9.66l-26.03-.02v-6.59s26.03.02,26.03.02v-9.65Z"/>
    <path class="cls-1" d="M.4,109.07l31.53.02v6.67s-13.01,0-13.01,0v13.53s13,0,13,0v6.65s-31.53-.02-31.53-.02v-6.65s13.03,0,13.03,0v-13.53s-13.01,0-13.01,0v-6.67Z"/>
    <path class="cls-1" d="M.38,141.41l31.53.02v21.24s-5.51,0-5.51,0v-14.58s-7.5,0-7.5,0v13.48s-5.5,0-5.5,0v-13.48s-7.52,0-7.52,0v14.64s-5.5,0-5.5,0v-21.3Z"/>
    <path class="cls-1" d="M31.89,167.98v8.22s-21.19,8.67-21.19,8.67v.37l21.18,8.7v8.22s-31.53-.02-31.53-.02v-6.46s20.52.01,20.52.01v-.26L.5,187.25v-4.4s20.45-8.14,20.45-8.14v-.26H.36s0-6.48,0-6.48l31.53.02Z"/>
  </g>
  <g>
    <path class="cls-2" d="M15.92,61.98l-4.14,12.59h-3.7l-4.14-12.59h3.47l2.46,9.01h.12l2.45-9.01h3.47Z"/>
    <path class="cls-2" d="M27.44,65.57l-3,.2c-.05-.27-.16-.52-.33-.74-.17-.22-.39-.4-.67-.53-.27-.13-.6-.2-.98-.2-.51,0-.94.11-1.29.34s-.52.53-.52.91c0,.3.11.55.34.76.23.21.61.37,1.16.5l2.14.46c1.15.25,2.01.66,2.57,1.21.56.56.85,1.29.85,2.2,0,.83-.23,1.55-.68,2.17-.46.62-1.08,1.11-1.87,1.46-.79.35-1.7.52-2.72.52-1.57,0-2.81-.35-3.74-1.05-.93-.7-1.47-1.65-1.63-2.85l3.23-.18c.1.51.33.9.71,1.16.37.26.85.4,1.44.4s1.04-.12,1.39-.36c.35-.24.53-.54.54-.92,0-.32-.13-.58-.38-.78-.25-.21-.63-.36-1.14-.47l-2.05-.43c-1.16-.25-2.01-.67-2.58-1.28s-.84-1.38-.84-2.32c0-.81.21-1.51.62-2.09.41-.58,1-1.04,1.75-1.35.75-.32,1.63-.48,2.65-.48,1.5,0,2.67.34,3.53,1.01s1.36,1.59,1.51,2.75Z"/>
  </g>
</svg>