<svg width="53" height="45" viewBox="0 0 53 45" fill="none" xmlns="http://www.w3.org/2000/svg">
<path d="M31.6121 8.69814C31.6121 9.35461 31.7958 9.88212 32.1709 10.2924C32.546 10.7027 33.0775 10.9059 33.7535 10.9059C34.4295 10.9059 34.9609 10.7027 35.336 10.3041C35.7111 9.89385 35.8948 9.36633 35.8948 8.70987C35.8948 8.0534 35.7111 7.52589 35.336 7.1156C34.9609 6.70531 34.4295 6.50212 33.7535 6.50212C33.0775 6.50212 32.546 6.70531 32.1709 7.10388C31.7958 7.50244 31.6121 8.04168 31.6121 8.69814ZM29.1465 4.34907H31.6121V5.49007H31.6434C31.7528 5.33768 31.8896 5.17747 32.0615 5.01726C32.2334 4.85705 32.4366 4.70466 32.675 4.57571C32.9133 4.44676 33.1595 4.33735 33.4409 4.25138C33.7222 4.16542 34.0114 4.12244 34.3122 4.12244C34.957 4.12244 35.5392 4.23185 36.0667 4.45458C36.5942 4.68121 37.0358 4.98209 37.4148 5.39238C37.7899 5.79095 38.083 6.26376 38.2862 6.81472C38.4894 7.36568 38.5871 7.96744 38.5871 8.6239C38.5871 9.23738 38.4894 9.80788 38.3057 10.3706C38.1221 10.9215 37.8524 11.4139 37.5203 11.8476C37.1764 12.2774 36.7662 12.6213 36.2699 12.8714C35.7854 13.1293 35.2266 13.2582 34.6014 13.2465C34.0426 13.2465 33.5229 13.1605 33.0384 12.9886C32.5538 12.8167 32.1553 12.5158 31.8544 12.1055H31.8231V17.4393H29.1426V4.34907H29.1465Z" fill="#409544"/>
<path d="M15.5479 17.4353V33.2178H50.5514V17.4353" fill="#409544"/>
<path d="M7.25236 3.71608C7.02572 3.42692 6.72484 3.21982 6.338 3.07915C5.95116 2.93848 5.58385 2.87596 5.23999 2.87596C5.0368 2.87596 4.8297 2.8994 4.61478 2.9502C4.39987 2.99318 4.19668 3.06743 4.0013 3.17684C3.80593 3.27453 3.65744 3.4152 3.53631 3.57541C3.41908 3.73561 3.35265 3.94271 3.35265 4.18889C3.35265 4.56401 3.49332 4.85707 3.78248 5.06026C4.07164 5.26345 4.42722 5.43539 4.86096 5.57606C5.29469 5.71673 5.7675 5.86521 6.25985 6.00588C6.76783 6.14655 7.22892 6.34975 7.65874 6.61936C8.08857 6.87726 8.45588 7.23284 8.73722 7.67439C9.02638 8.11594 9.16705 8.70989 9.16705 9.44059C9.16705 10.1713 9.0381 10.7535 8.76848 11.281C8.49886 11.8086 8.155 12.2384 7.70173 12.5861C7.24845 12.93 6.73266 13.1879 6.13872 13.352C5.54477 13.524 4.92348 13.5982 4.26311 13.5982C3.44643 13.5982 2.68056 13.4693 1.96939 13.2231C1.26994 12.9769 0.613481 12.5666 0 12.0078L1.98111 9.81962C2.27027 10.2065 2.62585 10.4995 3.05959 10.7144C3.48942 10.9176 3.94269 11.027 4.40768 11.027C4.63432 11.027 4.86096 10.9958 5.09541 10.9411C5.32986 10.8864 5.53696 10.8121 5.72061 10.7027C5.90427 10.5933 6.05275 10.4566 6.17388 10.2924C6.29111 10.1205 6.34582 9.92513 6.34582 9.69849C6.34582 9.32337 6.20514 9.01858 5.90427 8.79195C5.61511 8.56531 5.2478 8.38166 4.80625 8.23317C4.3647 8.07296 3.89189 7.92057 3.37219 7.76818C2.8564 7.61578 2.37968 7.40087 1.93813 7.14297C1.49658 6.88508 1.12927 6.52949 0.840117 6.10748C0.550961 5.67765 0.398567 5.10715 0.398567 4.40771C0.398567 3.70826 0.539238 3.13776 0.797134 2.61806C1.06675 2.11008 1.42234 1.68026 1.87561 1.3364C2.32888 0.992533 2.84468 0.734637 3.4269 0.562706C4.00912 0.390775 4.61088 0.30481 5.23608 0.30481C5.95897 0.30481 6.64669 0.41422 7.31488 0.605689C7.98307 0.80888 8.58483 1.15665 9.12406 1.62946L7.20547 3.71998L7.24845 3.70826L7.25236 3.71608Z" fill="#232156"/>
<path d="M10.2335 4.59917H12.914V13.2895H10.2335V4.59917ZM10.0186 1.86391C10.0186 1.43408 10.1709 1.06677 10.4718 0.765895C10.7727 0.465015 11.14 0.312622 11.5698 0.312622C11.9997 0.312622 12.367 0.465015 12.6679 0.765895C12.9687 1.06677 13.1211 1.43408 13.1211 1.86391C13.1211 2.29374 12.9687 2.66104 12.6679 2.96192C12.367 3.2628 11.9997 3.41519 11.5698 3.41519C11.14 3.41519 10.7727 3.2628 10.4718 2.96192C10.1709 2.66104 10.0186 2.29374 10.0186 1.86391Z" fill="#232156"/>
<path d="M14.1338 4.59919H16.7088V5.78317H16.7401C16.8261 5.61124 16.9433 5.45103 17.0957 5.28692C17.2481 5.11499 17.4396 4.97431 17.6545 4.83364C17.8694 4.7047 18.1195 4.59528 18.3852 4.50932C18.6548 4.42335 18.9557 4.38037 19.28 4.38037C19.8935 4.38037 20.4327 4.50932 20.8938 4.75549C21.3666 5.00167 21.7222 5.40023 21.9606 5.93947C22.2732 5.3807 22.6483 4.98213 23.0898 4.74377C23.5314 4.50541 24.0706 4.38819 24.7154 4.38819C25.2976 4.38819 25.7938 4.48587 26.1924 4.68907C26.591 4.88444 26.9036 5.15406 27.1419 5.49792C27.3686 5.84178 27.5405 6.24035 27.6382 6.69362C27.7359 7.15862 27.7906 7.64315 27.7906 8.17067V13.3091H25.0983V8.24882C25.0983 7.83853 25.0123 7.49467 24.8521 7.20551C24.6802 6.91635 24.3676 6.76396 23.926 6.76396C23.6134 6.76396 23.3555 6.81867 23.1524 6.91635C22.9492 7.01404 22.7772 7.15471 22.6561 7.33446C22.5271 7.51811 22.4412 7.7213 22.3865 7.95966C22.3318 8.19802 22.3122 8.44419 22.3122 8.71381V13.313H19.62V8.71381C19.62 8.56142 19.62 8.36995 19.6082 8.14331C19.5965 7.91668 19.5535 7.70176 19.4793 7.49857C19.405 7.29538 19.2956 7.12345 19.1354 6.98278C18.9752 6.84211 18.7369 6.76787 18.4243 6.76787C18.0804 6.76787 17.799 6.8343 17.5841 6.95152C17.3692 7.08047 17.209 7.24068 17.0879 7.44778C16.9667 7.65487 16.8925 7.88933 16.8612 8.15894C16.83 8.41684 16.8065 8.69818 16.8065 8.97562V13.3052H14.126V4.59919H14.1377H14.1338Z" fill="#232156"/>
<path d="M42.0995 0H39.4189V13.5278H42.0995V0Z" fill="#232156"/>
<path d="M49.0704 7.99476C49.0821 7.54148 48.9297 7.15464 48.6288 6.83031C48.3162 6.50599 47.9177 6.34578 47.4331 6.34578C47.1322 6.34578 46.8744 6.38876 46.6477 6.48645C46.4211 6.58414 46.2296 6.70137 46.0655 6.85376C45.9053 7.00615 45.7763 7.17808 45.6904 7.36955C45.6044 7.56493 45.5497 7.76812 45.538 7.98303H49.0821L49.0704 7.99476ZM51.3446 11.828C50.9147 12.379 50.3755 12.7971 49.719 13.098C49.0626 13.3989 48.3827 13.5395 47.6832 13.5395C46.9838 13.5395 46.3898 13.4301 45.7998 13.2152C45.2058 13.0003 44.7018 12.6877 44.2602 12.2891C43.8304 11.8906 43.4865 11.406 43.2364 10.8472C42.9903 10.2885 42.8613 9.66327 42.8613 8.97164C42.8613 8.28001 42.9903 7.65871 43.2364 7.09603C43.4826 6.53725 43.8304 6.05272 44.2719 5.65415C44.7135 5.25558 45.2215 4.94298 45.8115 4.73979C46.4055 4.52488 47.0267 4.41547 47.6949 4.41547C48.3201 4.41547 48.8789 4.52488 49.3869 4.73979C49.8949 4.9547 50.3247 5.25558 50.6686 5.66587C51.0241 6.06444 51.2938 6.54897 51.4852 7.10775C51.6806 7.66652 51.7744 8.29173 51.7744 8.98336V9.82348H45.5497C45.6591 10.3393 45.8936 10.7378 46.2491 11.0504C46.6047 11.3513 47.0463 11.5154 47.5738 11.5154C48.0153 11.5154 48.3905 11.4177 48.6953 11.2263C48.9961 11.0309 49.2658 10.773 49.4924 10.4604L51.368 11.8398L51.3446 11.828Z" fill="#232156"/>
<path d="M19.8937 30.9944V23.0973L17.8891 24.6447L16.5684 22.8355L20.1047 20.2409H22.4453V30.9905H19.8937V30.9944Z" fill="white"/>
<path d="M28.1039 31.2836C25.0482 31.2836 23.8838 28.6382 23.8838 25.5864C23.8838 22.5347 25.0482 19.9518 28.1039 19.9518C31.1596 19.9518 32.2928 22.5503 32.2928 25.5864C32.2928 28.6226 31.1401 31.2836 28.1039 31.2836ZM28.1039 22.1126C26.7519 22.1126 26.494 24.2383 26.494 25.5903C26.494 26.9423 26.7519 29.0993 28.1039 29.0993C29.4559 29.0993 29.6865 26.9736 29.6865 25.5903C29.6865 24.2071 29.4403 22.1126 28.1039 22.1126Z" fill="white"/>
<path d="M37.392 31.2836C35.4305 31.2836 33.6564 30.4318 33.0742 28.4272L35.4461 27.802C35.6454 28.5171 36.2979 29.1384 37.2709 29.1384C38.0016 29.1384 38.8339 28.775 38.8339 27.7707C38.8339 26.6766 37.7124 26.3601 36.6496 26.3601H35.9619V24.4962H36.7121C37.6656 24.4962 38.5955 24.2501 38.5955 23.2185C38.5955 22.4409 37.943 22.0345 37.2435 22.0345C36.5441 22.0345 35.9345 22.5034 35.7704 23.2341L33.3985 22.687C33.9182 20.8779 35.618 19.9518 37.4077 19.9518C39.3106 19.9518 41.1941 20.9248 41.1941 22.9918C41.1941 24.1758 40.4321 25.055 39.3849 25.3285V25.3754C40.604 25.6646 41.4559 26.6688 41.4559 27.8684C41.4559 30.2207 39.3731 31.2836 37.3998 31.2836H37.392Z" fill="white"/>
<path d="M45.0899 30.9944V23.0973L43.0854 24.6447L41.7646 22.8355L45.301 20.2409H47.6416V30.9905H45.0899V30.9944Z" fill="white"/>
<path d="M12.918 19.7407V17.4353H10.636V19.7407H12.918Z" fill="#B72026"/>
<path d="M12.918 23.8436V21.5382H10.636V23.8436H12.918Z" fill="#ED2024"/>
<path d="M12.918 27.9466V25.6411H10.636V27.9466H12.918Z" fill="#EFC932"/>
<path d="M12.918 32.0495V29.744H10.636V32.0495H12.918Z" fill="#F47621"/>
<path d="M12.918 36.1523V33.8469H10.636V36.1523H12.918Z" fill="#4178BD"/>
<path d="M12.918 40.2552V37.9498H10.636V40.2552H12.918Z" fill="#5253A3"/>
<path d="M12.9141 44.362V42.0566H10.6321V44.362H12.9141Z" fill="#409544"/>
<path d="M7.79176 23.8436H5.50977V21.5382H7.79176" fill="#ED2024"/>
<path d="M7.79176 27.9465H5.50977V25.6411H7.79176" fill="#EFC932"/>
<path d="M7.79176 32.0495H5.50977V29.744H7.79176" fill="#F47621"/>
<path d="M7.79176 36.1523H5.50977V33.8469H7.79176" fill="#4178BD"/>
<path d="M7.79176 40.2552H5.50977V37.9498H7.79176" fill="#5253A3"/>
<path d="M7.79176 44.3581H5.50977V42.0527H7.79176" fill="#409544"/>
<path d="M7.79199 19.7407V17.4353H5.51V19.7407H7.79199Z" fill="#B72026"/>
<path d="M2.66481 23.8436H0.382812V21.5382H2.66481" fill="#ED2024"/>
<path d="M2.66481 27.9465H0.382812V25.6411H2.66481" fill="#EFC932"/>
<path d="M2.66481 32.0495H0.382812V29.744H2.66481" fill="#F47621"/>
<path d="M2.66481 36.1523H0.382812V33.8469H2.66481" fill="#4178BD"/>
<path d="M2.66481 40.2552H0.382812V37.9498H2.66481" fill="#5253A3"/>
<path d="M2.66481 44.3581H0.382812V42.0527H2.66481" fill="#409544"/>
<path d="M2.66504 19.7407V17.4353H0.383046V19.7407H2.66504Z" fill="#B72026"/>
<path d="M27.8103 35.152V35.8202H26.2981V36.4337H27.7243V37.1019H26.2981V37.7701H27.8924V38.4383H25.5713V35.1442H27.8064L27.8103 35.152Z" fill="#232156"/>
<path d="M29.1156 35.152L29.8189 36.3048L30.4949 35.152H31.3741L30.3073 36.7111L31.4991 38.4461H30.5887L29.7837 37.1214L29.0022 38.4461H28.1426L29.2953 36.7268L28.209 35.1559H29.1195L29.1156 35.152Z" fill="#232156"/>
<path d="M34.2617 35.5506L33.7029 36.0078C33.5466 35.8163 33.3278 35.7382 33.0816 35.7382C32.5658 35.7382 32.1282 36.1524 32.1282 36.7971C32.1282 37.3442 32.4799 37.8561 33.0582 37.8561C33.3434 37.8561 33.5779 37.7388 33.7381 37.5044L34.3437 37.9538C34.0819 38.3367 33.6052 38.5243 33.1519 38.5243C32.1204 38.5243 31.374 37.8444 31.374 36.7932C31.374 35.7421 32.1125 35.0622 33.1519 35.0622C33.5857 35.0622 34.0155 35.2302 34.2617 35.5467V35.5506Z" fill="#232156"/>
<path d="M35.2737 35.152V36.379H36.6843V35.152H37.4111V38.4461H36.6843V37.0237H35.2737V38.4461H34.5469V35.152H35.2737Z" fill="#232156"/>
<path d="M39.6657 35.152L41.0998 38.4461H40.2831L39.9978 37.7466H38.7201L38.4465 38.4461H37.6455L39.0678 35.152H39.6696H39.6657ZM38.9467 37.1332H39.7517L39.3453 36.1094L38.9467 37.1332Z" fill="#232156"/>
<path d="M42.3226 35.152L43.7215 37.4379H43.7293V35.152H44.4561V38.4461H43.5066L42.0686 36.1016H42.0608V38.4461H41.334V35.152H42.3187H42.3226Z" fill="#232156"/>
<path d="M47.8487 35.492L47.3368 36.0508C47.118 35.8163 46.8522 35.7382 46.5435 35.7382C45.9262 35.7382 45.5159 36.1797 45.5159 36.7971C45.5159 37.4145 45.9262 37.8561 46.5435 37.8561C46.7819 37.8561 47.0124 37.8053 47.2235 37.692V37.1566H46.6334V36.4884H47.9229V38.2077C47.497 38.4344 47.0242 38.5243 46.5475 38.5243C45.512 38.5243 44.7656 37.8561 44.7656 36.7932C44.7656 35.7304 45.5081 35.0622 46.5475 35.0622C47.032 35.0622 47.497 35.1599 47.8526 35.4842L47.8487 35.492Z" fill="#232156"/>
<path d="M50.5408 35.152V35.8202H49.0286V36.4337H50.4548V37.1019H49.0286V37.7701H50.6228V38.4383H48.3018V35.1442H50.5369L50.5408 35.152Z" fill="#232156"/>
<path d="M18.2206 35.0661V35.7069H17.2828V38.3562H16.556V35.7069H15.6182V35.0661H18.2206Z" fill="#232156"/>
<path d="M19.3967 35.0661V36.2931H20.8073V35.0661H21.5341V38.3601H20.8073V36.9378H19.3967V38.3601H18.6699V35.0661H19.3967Z" fill="#232156"/>
<path d="M24.2185 35.0661V35.7343H22.7063V36.3478H24.1325V37.016H22.7063V37.6841H24.3006V38.3523H21.9795V35.0583H24.2146L24.2185 35.0661Z" fill="#232156"/>
<path d="M50.2041 39.7161V39.8294H50.3604V40.2514H50.4933V39.8294H50.6535V39.7161H50.2041Z" fill="#232156"/>
<path d="M50.7471 40.2514V39.72H50.8643L51.0597 40.0404H50.9776L51.1769 39.7239H51.2902V40.2592H51.1652V40.0912C51.1652 40.0482 51.1652 40.0052 51.1652 39.9701C51.1652 39.9349 51.1691 39.8958 51.1769 39.8606L51.1925 39.8997L51.044 40.1303H50.9932L50.8487 39.9036L50.8643 39.8606C50.8682 39.8958 50.876 39.931 50.876 39.9661C50.876 40.0013 50.876 40.0443 50.876 40.0951V40.2631H50.7471V40.2514Z" fill="#232156"/>
<path d="M17.8923 40.0052C16.5325 40.0052 15.6143 40.8961 15.6143 42.2208C15.6143 43.5454 16.5286 44.4363 17.8923 44.4363C19.2561 44.4363 20.1704 43.5259 20.1704 42.2208C20.1704 40.9156 19.2561 40.0052 17.8923 40.0052ZM17.8923 43.6118C17.0913 43.6118 16.5521 43.0531 16.5521 42.2208C16.5521 41.3885 17.103 40.8297 17.8884 40.8297C18.6738 40.8297 19.2365 41.4002 19.2365 42.2208C19.2365 43.0413 18.6856 43.6118 17.8963 43.6118H17.8923Z" fill="#232156"/>
<path d="M22.9138 42.5334C23.4804 42.4279 23.8165 41.9981 23.8165 41.3846C23.8165 40.3334 22.9724 40.1107 22.2613 40.1107H20.6045V44.3269H21.5032V42.6272H21.9956V42.6389L22.8865 44.3308H23.965L22.8865 42.5373H22.9138V42.5334ZM22.105 41.8769H21.5032V40.8688H22.1597C22.6403 40.8688 22.8826 41.0407 22.8826 41.3807C22.8826 41.8144 22.5075 41.8769 22.105 41.8769Z" fill="#232156"/>
<path d="M26.3093 43.6118C25.5161 43.6118 25.0862 42.8968 25.0862 42.2208C25.0862 41.4158 25.6138 40.8297 26.3366 40.8297C26.6766 40.8297 26.9501 40.943 27.1455 41.1696L27.8371 40.603C27.5324 40.224 27.0087 40.0013 26.4265 40.0013C25.0862 40.0013 24.1484 40.9117 24.1484 42.2168C24.1484 43.522 25.0628 44.4324 26.4265 44.4324C27.0517 44.4324 27.63 44.1589 27.9387 43.7173L27.1885 43.1586C26.9853 43.4516 26.6805 43.6079 26.3054 43.6079L26.3093 43.6118Z" fill="#232156"/>
<path d="M29.1536 40.1146H28.2549V44.3308H29.1536V42.4904H31.0136V44.3308H31.9123V40.1146H31.0136V41.7011H29.1536V40.1146Z" fill="#232156"/>
<path d="M33.3938 42.5998H35.2382V41.7714H33.3938V40.9391H35.3476V40.1146H32.4951V44.3308H35.4531V43.5024H33.3938V42.5998Z" fill="#232156"/>
<path d="M38.8252 40.4311C38.4892 40.1498 38.0632 40.0052 37.5474 40.0052C36.7738 40.0052 35.9454 40.4311 35.9454 41.3689C35.9454 42.1035 36.4924 42.338 37.0004 42.506C37.0512 42.5216 37.1059 42.5412 37.1567 42.5568C37.5748 42.6897 37.9382 42.803 37.9382 43.1507C37.9382 43.4985 37.5396 43.6157 37.27 43.6157C36.9535 43.6157 36.6565 43.4751 36.4533 43.225L35.8125 43.9283C36.1876 44.2761 36.6487 44.4441 37.2153 44.4441C38.0007 44.4441 38.8369 44.0807 38.8369 43.0648C38.8369 42.3263 38.3446 42.0723 37.8092 41.9121C37.7506 41.8925 37.692 41.8769 37.6373 41.8613C37.2309 41.744 36.8753 41.6385 36.8753 41.2986C36.8753 40.9586 37.2661 40.8414 37.524 40.8414C37.7506 40.8414 38.0437 40.9274 38.2039 41.1149L38.8174 40.4428L38.8252 40.4311Z" fill="#232156"/>
<path d="M40.3803 44.3308H41.279V40.9039H42.4942V40.1146H39.165V40.9039H40.3803V44.3308Z" fill="#232156"/>
<path d="M45.198 42.5334C45.7646 42.4279 46.1007 41.9981 46.1007 41.3846C46.1007 40.3334 45.2527 40.1107 44.5455 40.1107H42.8887V44.3269H43.7874V42.6272H44.2797V42.6389L45.1707 44.3308H46.2491L45.1707 42.5373H45.198V42.5334ZM44.3892 41.8769H43.7874V40.8688H44.4439C44.9245 40.8688 45.1668 41.0407 45.1668 41.3807C45.1668 41.8144 44.7916 41.8769 44.3892 41.8769Z" fill="#232156"/>
<path d="M49.0467 40.1146H48.2965L46.4756 44.3308H47.4681L47.8237 43.4282H49.5039L49.8712 44.3308H50.8872L49.0506 40.1146H49.0467ZM48.0972 42.674L48.1089 42.6467L48.6443 41.2791L49.1952 42.674H48.0972Z" fill="#232156"/>
<path d="M50.9854 17.4431V17.5564H51.1417V17.9784H51.2745V17.5564H51.4347V17.4431H50.9854Z" fill="#232156"/>
<path d="M51.5283 17.9784V17.447H51.6455L51.8409 17.7674H51.7589L51.9582 17.4509H52.0715V17.9863H51.9464V17.8182C51.9464 17.7753 51.9464 17.7323 51.9464 17.6971C51.9464 17.6619 51.9503 17.6229 51.9582 17.5877L51.9738 17.6268L51.8253 17.8573H51.7745L51.6299 17.6307L51.6455 17.5877C51.6495 17.6229 51.6573 17.658 51.6573 17.6932C51.6573 17.7284 51.6573 17.7713 51.6573 17.8221V17.9902H51.5283V17.9784Z" fill="#232156"/>
</svg>
