<?xml version="1.0" encoding="UTF-8"?>
<svg id="Layer_1" data-name="Layer 1" xmlns="http://www.w3.org/2000/svg" viewBox="0 0 773.38 329.23">
  <defs>
    <style>
      .cls-1 {
        letter-spacing: -.02em;
      }

      .cls-2 {
        letter-spacing: 0em;
      }

      .cls-3 {
        letter-spacing: -.02em;
      }

      .cls-4 {
        letter-spacing: -.05em;
      }

      .cls-5 {
        font-family: DMSerifText-Regular, 'DM Serif Text';
        font-size: 107.62px;
      }

      .cls-5, .cls-6, .cls-7 {
        fill: #fff;
      }

      .cls-8 {
        letter-spacing: -.07em;
      }

      .cls-9 {
        letter-spacing: -.06em;
      }

      .cls-10 {
        letter-spacing: -.1em;
      }

      .cls-11 {
        letter-spacing: .03em;
      }

      .cls-12 {
        fill: #004fff;
      }

      .cls-12, .cls-6 {
        stroke-width: 0px;
      }

      .cls-13 {
        letter-spacing: -.06em;
      }

      .cls-14 {
        letter-spacing: -.02em;
      }

      .cls-7 {
        font-family: Helvetica-Bold, Helvetica;
        font-size: 41.86px;
        font-weight: 700;
      }
    </style>
  </defs>
  <polygon class="cls-6" points="423.49 96.3 431.1 85.44 423.81 75.21 430.62 75.21 434.36 81.01 438.29 75.21 444.85 75.21 437.7 85.2 445.5 96.3 438.65 96.3 434.36 89.77 430.03 96.3 423.49 96.3"/>
  <polygon class="cls-6" points="693.69 84.07 693.69 70.44 688.77 70.44 688.77 67.18 702.38 67.18 702.38 70.44 697.31 70.44 697.31 84.07 693.69 84.07"/>
  <path class="cls-6" d="M705.37,84.07v-16.89h3.31l6.15,10.01-2.17-.02,6.23-9.99h3.16v16.89h-3.55v-5.79c0-1.45.04-2.75.11-3.91.07-1.16.19-2.31.37-3.45l.43,1.13-4.95,7.67h-1.59l-4.85-7.63.41-1.18c.18,1.08.3,2.18.37,3.31.08,1.13.11,2.48.11,4.04v5.79h-3.55Z"/>
  <path class="cls-12" d="M36.52,276.95h698.83c6.44,0,11.66-5.22,11.66-11.66V59.66c0-6.44-5.22-11.66-11.66-11.66H36.52c-6.44,0-11.66,5.22-11.66,11.66v205.63c0,6.44,5.22,11.66,11.66,11.66"/>
  <polygon class="cls-6" points="693.52 83.45 693.52 69.78 688.58 69.78 688.58 66.51 702.24 66.51 702.24 69.78 697.15 69.78 697.15 83.45 693.52 83.45"/>
  <path class="cls-6" d="M705.24,83.45v-16.94h3.32l6.17,10.04-2.18-.02,6.25-10.02h3.17v16.94h-3.56v-5.81c0-1.45.04-2.76.11-3.92.07-1.16.19-2.32.37-3.46l.43,1.14-4.96,7.69h-1.6l-4.86-7.65.41-1.18c.18,1.08.3,2.19.37,3.33.07,1.14.11,2.49.11,4.05v5.81h-3.56Z"/>
  <rect class="cls-6" x="24.86" y="115.84" width="722.14" height="2.8"/>
  <text class="cls-5" transform="translate(46.15 209.28)"><tspan class="cls-4" x="0" y="0">F</tspan><tspan class="cls-14" x="52.41" y="0">O</tspan><tspan class="cls-9" x="122.58" y="0">R</tspan><tspan class="cls-11" x="183.5" y="0">T</tspan><tspan class="cls-10" x="253.78" y="0"> </tspan><tspan class="cls-1" x="266.8" y="0">M</tspan><tspan class="cls-14" x="350.42" y="0">O</tspan><tspan class="cls-9" x="420.59" y="0">R</tspan><tspan class="cls-13" x="481.51" y="0">G</tspan><tspan class="cls-3" x="545.01" y="0">A</tspan><tspan x="612.27" y="0">N</tspan></text>
  <text class="cls-7" transform="translate(47.99 95.57)"><tspan class="cls-8" x="0" y="0">T</tspan><tspan class="cls-2" x="22.51" y="0">otal Law Firm Solutions</tspan></text>
  <path class="cls-6" d="M201.99,250.57v-.88l.84-.25c.59-.19.96-.45,1.13-.77.17-.32.25-.77.25-1.36v-21.18c0-.56-.08-1-.25-1.32-.17-.32-.53-.58-1.09-.77l-.88-.25v-.88h10.38v.88l-.8.25c-.53.2-.89.46-1.07.8-.18.33-.27.8-.27,1.38v23.11h6.15c.95,0,1.66-.24,2.13-.71.47-.47.92-1.16,1.34-2.05l1.55-3.47h1.17l-.42,7.49h-20.18ZM224.55,250.57v-.8l.63-.17c.56-.17.93-.42,1.13-.75.19-.33.31-.78.33-1.34v-10.11c0-.74-.01-1.5-.04-2.28,0-.56-.1-1-.31-1.32-.21-.32-.59-.54-1.15-.65l-.59-.13v-.75l7.33-2.43.5.46-.13,5.94v11.3c0,.56.1,1,.31,1.34s.58.59,1.11.75l.46.13v.8h-9.59ZM229.37,227.55c-.92,0-1.7-.29-2.34-.88-.64-.59-.96-1.33-.96-2.22s.32-1.67.96-2.24c.64-.57,1.42-.86,2.34-.86s1.7.29,2.34.86c.64.57.96,1.32.96,2.24s-.32,1.63-.96,2.22c-.64.59-1.42.88-2.34.88ZM243.85,251.16c-1.73,0-3.09-.43-4.08-1.28-.99-.85-1.49-2.24-1.49-4.17,0-.67,0-1.3.02-1.9.01-.6.02-1.3.02-2.11v-9.92h-2.97v-.92l1.13-.17c.81-.14,1.5-.39,2.07-.75.57-.36,1.09-.86,1.57-1.51l2.72-3.77h1.26l-.13,5.82h4.77v1.3h-4.81v14.27c0,1,.22,1.76.65,2.26.43.5.97.75,1.61.75.56,0,1.06-.13,1.51-.4.45-.26.89-.62,1.34-1.07l.54.63c-.53.92-1.27,1.64-2.22,2.16-.95.52-2.12.77-3.52.77ZM251.01,250.57v-.8l.63-.17c.56-.17.93-.42,1.13-.75.19-.33.31-.78.33-1.34v-10.11c0-.74-.01-1.5-.04-2.28,0-.56-.1-1-.31-1.32-.21-.32-.59-.54-1.15-.65l-.59-.13v-.75l7.33-2.43.5.46-.13,5.94v11.3c0,.56.1,1,.31,1.34s.58.59,1.11.75l.46.13v.8h-9.59ZM255.82,227.55c-.92,0-1.7-.29-2.34-.88-.64-.59-.96-1.33-.96-2.22s.32-1.67.96-2.24c.64-.57,1.42-.86,2.34-.86s1.7.29,2.34.86c.64.57.96,1.32.96,2.24s-.32,1.63-.96,2.22c-.64.59-1.42.88-2.34.88ZM271.48,243.42c-1.84,0-3.42-.31-4.73-.92v1.51c0,.84.42,1.34,1.26,1.51l7.45,1.38c1.42.28,2.68.62,3.77,1.03,1.09.4,1.94.98,2.55,1.72.61.74.92,1.74.92,2.99,0,1.34-.44,2.59-1.32,3.75-.88,1.16-2.18,2.09-3.89,2.8-1.72.71-3.86,1.07-6.43,1.07-2.2,0-3.96-.23-5.25-.69-1.3-.46-2.23-1.05-2.78-1.78-.56-.73-.84-1.51-.84-2.34,0-1,.34-2.01,1.03-3.01.68-1,1.57-1.84,2.66-2.51-1.7-.64-2.55-1.66-2.55-3.06,0-.53.13-1.02.38-1.47.25-.45.56-.89.92-1.34l1.51-1.88c-2.01-1.17-3.01-3-3.01-5.48,0-2.04.72-3.68,2.16-4.94,1.44-1.26,3.51-1.88,6.22-1.88s4.8.63,6.28,1.88c.89-.14,1.73-.36,2.51-.67.78-.31,1.51-.73,2.18-1.26l.59.42v2.34h-4.52c.89,1.12,1.34,2.48,1.34,4.1,0,1.98-.72,3.6-2.16,4.86-1.44,1.26-3.51,1.88-6.22,1.88ZM265.45,254.22c0,1.53.49,2.69,1.47,3.45.98.77,2.53,1.15,4.65,1.15,2.34,0,4.08-.38,5.21-1.15,1.13-.77,1.7-1.78,1.7-3.03,0-.78-.29-1.4-.86-1.84-.57-.45-1.53-.8-2.87-1.05l-7.49-1.47c-.11-.03-.22-.06-.33-.08-.42.56-.77,1.2-1.05,1.93-.28.73-.42,1.42-.42,2.09ZM271.39,242.29c1.17,0,2.03-.45,2.57-1.36.54-.91.82-2.37.82-4.37s-.27-3.4-.8-4.27c-.53-.86-1.35-1.3-2.47-1.3s-1.95.44-2.49,1.32c-.54.88-.82,2.32-.82,4.33s.25,3.45.75,4.33c.5.88,1.31,1.32,2.43,1.32ZM289.81,251.16c-1.59,0-2.94-.45-4.04-1.36-1.1-.91-1.65-2.21-1.65-3.91,0-1.34.65-2.57,1.95-3.7,1.3-1.13,3.34-1.96,6.13-2.49.47-.11,1.03-.22,1.65-.31.63-.1,1.25-.2,1.86-.31v-2.97c0-1.9-.24-3.21-.71-3.93-.47-.73-1.23-1.09-2.26-1.09h-.13c-.64,0-1.15.2-1.53.61-.38.4-.62,1.07-.73,1.99l-.13.54c-.08,1.12-.38,1.93-.88,2.45-.5.52-1.13.77-1.88.77-.7,0-1.28-.22-1.74-.65-.46-.43-.69-1-.69-1.7,0-1.14.39-2.11,1.17-2.89.78-.78,1.82-1.37,3.12-1.76,1.3-.39,2.7-.59,4.21-.59,2.48,0,4.38.6,5.69,1.8,1.31,1.2,1.97,3.15,1.97,5.86v9.33c0,1.2.57,1.8,1.72,1.8h.96l.42.46c-.5.64-1.06,1.14-1.67,1.49-.61.35-1.45.52-2.51.52-1.2,0-2.16-.29-2.87-.86-.71-.57-1.18-1.33-1.4-2.28-.89.95-1.77,1.72-2.64,2.3-.87.59-2,.88-3.39.88ZM292.24,248.48c.56,0,1.09-.13,1.59-.38.5-.25,1.13-.67,1.88-1.26v-6.7c-.73.11-1.47.25-2.22.42-1.2.28-2.17.8-2.91,1.55-.74.75-1.11,1.77-1.11,3.06,0,1.12.26,1.95.77,2.49.52.54,1.18.82,1.99.82ZM313.13,251.16c-1.73,0-3.09-.43-4.08-1.28-.99-.85-1.49-2.24-1.49-4.17,0-.67,0-1.3.02-1.9.01-.6.02-1.3.02-2.11v-9.92h-2.97v-.92l1.13-.17c.81-.14,1.5-.39,2.07-.75.57-.36,1.09-.86,1.57-1.51l2.72-3.77h1.26l-.13,5.82h4.77v1.3h-4.81v14.27c0,1,.22,1.76.65,2.26.43.5.97.75,1.61.75.56,0,1.06-.13,1.51-.4.45-.26.89-.62,1.34-1.07l.54.63c-.53.92-1.27,1.64-2.22,2.16-.95.52-2.12.77-3.52.77ZM320.29,250.57v-.8l.63-.17c.56-.17.93-.42,1.13-.75.19-.33.31-.78.33-1.34v-10.11c0-.74-.01-1.5-.04-2.28,0-.56-.1-1-.31-1.32-.21-.32-.59-.54-1.15-.65l-.59-.13v-.75l7.33-2.43.5.46-.13,5.94v11.3c0,.56.1,1,.31,1.34s.58.59,1.11.75l.46.13v.8h-9.59ZM325.1,227.55c-.92,0-1.7-.29-2.34-.88-.64-.59-.96-1.33-.96-2.22s.32-1.67.96-2.24c.64-.57,1.42-.86,2.34-.86s1.7.29,2.34.86c.64.57.96,1.32.96,2.24s-.32,1.63-.96,2.22c-.64.59-1.42.88-2.34.88ZM342.18,251.16c-2.07,0-3.87-.43-5.42-1.3-1.55-.86-2.75-2.09-3.6-3.68-.85-1.59-1.28-3.49-1.28-5.69s.45-4.1,1.36-5.69c.91-1.59,2.13-2.81,3.68-3.66,1.55-.85,3.3-1.28,5.25-1.28s3.7.43,5.25,1.28c1.55.85,2.78,2.07,3.68,3.64.91,1.58,1.36,3.48,1.36,5.71s-.43,4.11-1.28,5.71c-.85,1.61-2.04,2.83-3.58,3.68-1.54.85-3.35,1.28-5.44,1.28ZM342.18,249.99c1,0,1.82-.27,2.45-.82.63-.54,1.08-1.5,1.36-2.87.28-1.37.42-3.28.42-5.73s-.14-4.42-.42-5.8c-.28-1.38-.73-2.34-1.36-2.89-.63-.54-1.44-.82-2.45-.82s-1.81.27-2.43.82c-.61.54-1.07,1.51-1.36,2.89-.29,1.38-.44,3.31-.44,5.8s.15,4.37.44,5.73c.29,1.37.75,2.32,1.36,2.87.61.54,1.42.82,2.43.82ZM354.4,250.57v-.8l.67-.17c.92-.28,1.38-.96,1.38-2.05v-12.35c-.03-.59-.13-1.04-.29-1.36-.17-.32-.53-.54-1.09-.65l-.67-.17v-.75l6.78-2.43.5.46.29,2.6c1-.89,2.13-1.63,3.37-2.2,1.24-.57,2.46-.86,3.66-.86,1.84,0,3.26.5,4.25,1.51.99,1,1.49,2.54,1.49,4.6v11.64c0,1.09.5,1.77,1.51,2.05l.46.13v.8h-9.63v-.8l.63-.17c.92-.31,1.38-.99,1.38-2.05v-12.43c0-.98-.21-1.69-.63-2.13-.42-.45-1.12-.67-2.09-.67-1.37,0-2.79.6-4.27,1.8v13.48c0,1.09.49,1.77,1.47,2.05l.42.13v.8h-9.59ZM396.48,251.16c-1.84,0-3.41-.34-4.69-1.03-1.28-.68-2.27-1.58-2.95-2.7-.68-1.12-1.03-2.36-1.03-3.73,0-3.4,2.15-6.04,6.45-7.91-.73-.98-1.4-2.02-2.03-3.12-.63-1.1-.94-2.39-.94-3.87,0-1.95.7-3.52,2.09-4.71,1.4-1.19,3.22-1.78,5.48-1.78s3.91.5,5.13,1.49c1.21.99,1.82,2.3,1.82,3.91,0,1.42-.54,2.66-1.63,3.7-1.09,1.05-2.67,2.02-4.73,2.91.5.56,1.03,1.15,1.59,1.78.56.63,1.14,1.29,1.76,1.99.78.84,1.53,1.63,2.24,2.39.71.75,1.43,1.54,2.16,2.34.64-.95,1.24-2.04,1.8-3.29.56-1.24,1-2.55,1.34-3.91.22-1.03-.18-1.7-1.21-2.01l-.33-.13v-.8h5.11v.8l-.46.17c-.89.31-1.45.91-1.67,1.8-.45,1.54-.98,2.99-1.59,4.37-.61,1.38-1.33,2.64-2.13,3.79l3.93,4.23c.33.36.68.66,1.05.9.36.24.77.45,1.21.65l.84.33v.84l-8.04.04-2.72-2.97c-.81.87-1.81,1.67-3.01,2.41-1.2.74-2.8,1.11-4.81,1.11ZM398.74,248.31c.98,0,1.87-.15,2.68-.44.81-.29,1.51-.68,2.09-1.15-1.4-1.56-2.76-3.13-4.1-4.69-.78-.98-1.54-1.9-2.26-2.76-.73-.86-1.44-1.73-2.13-2.6-.87.7-1.47,1.51-1.82,2.43-.35.92-.52,1.87-.52,2.85,0,1.81.57,3.33,1.7,4.54,1.13,1.21,2.59,1.82,4.37,1.82ZM398.78,233.62c1.12-.98,1.94-1.95,2.47-2.93.53-.98.8-2.06.8-3.27,0-1.09-.29-1.97-.86-2.64-.57-.67-1.35-1-2.32-1-.92,0-1.7.33-2.32,1-.63.67-.94,1.54-.94,2.6,0,.64.12,1.31.36,2.01.24.7.68,1.49,1.32,2.39.17.22.38.48.63.77.25.29.54.65.88,1.07ZM427.08,250.57v-.88l.84-.21c.56-.17.92-.42,1.09-.75.17-.33.25-.8.25-1.38.03-1.59.04-3.2.04-4.83v-11.49c0-1.62-.01-3.24-.04-4.86,0-.59-.09-1.04-.27-1.36-.18-.32-.55-.58-1.11-.77l-.8-.25v-.88h10.09c4.07,0,7.04.76,8.9,2.28,1.86,1.52,2.78,3.52,2.78,6.01,0,1.56-.38,3.01-1.15,4.33-.77,1.33-2.03,2.38-3.79,3.16-1.76.78-4.13,1.17-7.12,1.17h-1.51v3.62c0,1.24.01,2.51.04,3.79,0,1.14.52,1.84,1.55,2.09l1.26.33v.88h-11.05ZM435.28,238.64h1.76c1.4,0,2.53-.22,3.41-.65.88-.43,1.53-1.18,1.97-2.24.43-1.06.65-2.53.65-4.4s-.23-3.33-.69-4.37-1.15-1.79-2.07-2.22c-.92-.43-2.07-.65-3.43-.65h-1.55c-.03,1.93-.04,3.87-.04,5.84v8.69ZM450.14,250.57v-.8l.63-.17c.92-.31,1.38-1,1.38-2.09,0-.95,0-1.9.02-2.87.01-.96.02-1.92.02-2.87v-15.91c0-.59-.1-1.03-.29-1.32-.2-.29-.57-.51-1.13-.65l-.63-.17v-.8l7.33-1.76.54.38-.17,5.9v20.05c.03.56.15,1.01.36,1.36.21.35.58.59,1.11.73l.59.17v.8h-9.75ZM467.43,251.16c-1.59,0-2.94-.45-4.04-1.36-1.1-.91-1.65-2.21-1.65-3.91,0-1.34.65-2.57,1.95-3.7,1.3-1.13,3.34-1.96,6.13-2.49.47-.11,1.03-.22,1.65-.31.63-.1,1.25-.2,1.86-.31v-2.97c0-1.9-.24-3.21-.71-3.93-.47-.73-1.23-1.09-2.26-1.09h-.13c-.64,0-1.15.2-1.53.61-.38.4-.62,1.07-.73,1.99l-.13.54c-.08,1.12-.38,1.93-.88,2.45-.5.52-1.13.77-1.88.77-.7,0-1.28-.22-1.74-.65-.46-.43-.69-1-.69-1.7,0-1.14.39-2.11,1.17-2.89.78-.78,1.82-1.37,3.12-1.76,1.3-.39,2.7-.59,4.21-.59,2.48,0,4.38.6,5.69,1.8,1.31,1.2,1.97,3.15,1.97,5.86v9.33c0,1.2.57,1.8,1.72,1.8h.96l.42.46c-.5.64-1.06,1.14-1.67,1.49-.61.35-1.45.52-2.51.52-1.2,0-2.16-.29-2.87-.86-.71-.57-1.18-1.33-1.4-2.28-.89.95-1.77,1.72-2.64,2.3-.87.59-2,.88-3.39.88ZM469.85,248.48c.56,0,1.09-.13,1.59-.38.5-.25,1.13-.67,1.88-1.26v-6.7c-.73.11-1.47.25-2.22.42-1.2.28-2.17.8-2.91,1.55-.74.75-1.11,1.77-1.11,3.06,0,1.12.26,1.95.77,2.49.52.54,1.18.82,1.99.82ZM482.91,250.57v-.8l.63-.17c.56-.17.93-.42,1.13-.75.19-.33.31-.78.33-1.34v-10.11c0-.74-.01-1.5-.04-2.28,0-.56-.1-1-.31-1.32-.21-.32-.59-.54-1.15-.65l-.59-.13v-.75l7.33-2.43.5.46-.13,5.94v11.3c0,.56.1,1,.31,1.34s.58.59,1.11.75l.46.13v.8h-9.59ZM487.73,227.55c-.92,0-1.7-.29-2.34-.88-.64-.59-.96-1.33-.96-2.22s.32-1.67.96-2.24c.64-.57,1.42-.86,2.34-.86s1.7.29,2.34.86c.64.57.96,1.32.96,2.24s-.32,1.63-.96,2.22c-.64.59-1.42.88-2.34.88ZM494.34,250.57v-.8l.67-.17c.92-.28,1.38-.96,1.38-2.05v-12.35c-.03-.59-.13-1.04-.29-1.36-.17-.32-.53-.54-1.09-.65l-.67-.17v-.75l6.78-2.43.5.46.29,2.6c1-.89,2.13-1.63,3.37-2.2,1.24-.57,2.46-.86,3.66-.86,1.84,0,3.26.5,4.25,1.51.99,1,1.49,2.54,1.49,4.6v11.64c0,1.09.5,1.77,1.51,2.05l.46.13v.8h-9.63v-.8l.63-.17c.92-.31,1.38-.99,1.38-2.05v-12.43c0-.98-.21-1.69-.63-2.13-.42-.45-1.12-.67-2.09-.67-1.37,0-2.79.6-4.27,1.8v13.48c0,1.09.49,1.77,1.47,2.05l.42.13v.8h-9.59ZM526.03,251.16c-1.73,0-3.09-.43-4.08-1.28-.99-.85-1.49-2.24-1.49-4.17,0-.67,0-1.3.02-1.9.01-.6.02-1.3.02-2.11v-9.92h-2.97v-.92l1.13-.17c.81-.14,1.5-.39,2.07-.75.57-.36,1.09-.86,1.57-1.51l2.72-3.77h1.26l-.13,5.82h4.77v1.3h-4.81v14.27c0,1,.22,1.76.65,2.26.43.5.97.75,1.61.75.56,0,1.06-.13,1.51-.4.45-.26.89-.62,1.34-1.07l.54.63c-.53.92-1.27,1.64-2.22,2.16-.95.52-2.12.77-3.52.77ZM533.18,250.57v-.8l.63-.17c.56-.17.93-.42,1.13-.75.19-.33.31-.78.33-1.34v-10.11c0-.74-.01-1.5-.04-2.28,0-.56-.1-1-.31-1.32-.21-.32-.59-.54-1.15-.65l-.59-.13v-.75l7.33-2.43.5.46-.13,5.94v11.3c0,.56.1,1,.31,1.34.21.33.58.59,1.11.75l.46.13v.8h-9.59ZM538,227.55c-.92,0-1.7-.29-2.34-.88-.64-.59-.96-1.33-.96-2.22s.32-1.67.96-2.24c.64-.57,1.42-.86,2.34-.86s1.7.29,2.34.86c.64.57.96,1.32.96,2.24s-.32,1.63-.96,2.22c-.64.59-1.42.88-2.34.88ZM544.65,250.57v-.8l.63-.17c1.12-.31,1.69-.99,1.72-2.05,0-.95,0-1.9.02-2.87.01-.96.02-1.93.02-2.91v-10h-2.39v-.92l.92-.17c.56-.08.96-.29,1.21-.61.25-.32.43-.77.54-1.36.28-1.09.68-2.04,1.21-2.87.53-.82,1.16-1.6,1.88-2.32,1.03-1,2.13-1.7,3.31-2.09,1.17-.39,2.32-.59,3.43-.59s2.09.22,2.99.67c.91.45,1.36,1.17,1.36,2.18,0,.75-.22,1.34-.65,1.76-.43.42-1.05.63-1.86.63-1.31,0-2.44-.75-3.39-2.26l-.5-.59c-.33-.42-.67-.58-1-.48-.33.1-.57.37-.71.82-.25.89-.43,1.93-.54,3.12-.11,1.19-.18,2.45-.21,3.79h7.2c.56,0,.96-.16,1.21-.48.25-.32.45-.75.59-1.28.28-1.09.68-2.04,1.19-2.87.52-.82,1.14-1.6,1.86-2.32,1.03-1,2.14-1.7,3.33-2.09,1.19-.39,2.34-.59,3.45-.59s2.08.22,2.97.67c.89.45,1.34,1.17,1.34,2.18,0,.75-.21,1.34-.63,1.76-.42.42-1.05.63-1.88.63-1.28,0-2.4-.75-3.35-2.26l-.5-.59c-.36-.42-.71-.58-1.03-.48-.32.1-.57.37-.73.82-.22.89-.4,1.93-.52,3.12-.13,1.19-.19,2.45-.19,3.79h4.81v1.3h-4.81v15.66c.03,1.09.59,1.77,1.67,2.05l1.09.29v.8h-10.8v-.8l.63-.17c1.14-.31,1.72-.99,1.72-2.05,0-.95,0-1.9.02-2.87.01-.96.02-1.93.02-2.91v-10h-8.67v10c0,.95,0,1.9.02,2.85.01.95.02,1.88.02,2.8.03,1.09.59,1.77,1.67,2.05l1.09.29v.8h-10.8ZM582.5,250.57v-.88l.8-.21c.56-.17.92-.42,1.09-.75.17-.33.26-.8.29-1.38.03-1.59.04-3.2.04-4.83v-11.49c0-1.62-.01-3.24-.04-4.86-.03-.59-.11-1.04-.25-1.36-.14-.32-.47-.57-1-.73l-.92-.29v-.88h20.13l.29,7.07h-1.13l-2.18-4.14c-.28-.53-.59-.94-.92-1.23-.33-.29-.82-.44-1.47-.44h-6.45c-.03,1.87-.05,3.79-.06,5.76-.01,1.97-.02,3.93-.02,5.88h4.02c.64,0,1.12-.15,1.42-.44.31-.29.6-.7.88-1.23l.84-1.55h.92v7.66h-.92l-.84-1.51c-.31-.56-.61-.98-.9-1.28-.29-.29-.76-.44-1.4-.44h-4.02v5.3c0,1.69.01,3.34.04,4.96,0,1.14.52,1.86,1.55,2.13l1.26.29v.88h-11.05ZM604.05,250.57v-.8l.63-.17c.56-.17.93-.42,1.13-.75.19-.33.31-.78.33-1.34v-10.11c0-.74-.01-1.5-.04-2.28,0-.56-.1-1-.31-1.32-.21-.32-.59-.54-1.15-.65l-.59-.13v-.75l7.33-2.43.5.46-.13,5.94v11.3c0,.56.1,1,.31,1.34.21.33.58.59,1.11.75l.46.13v.8h-9.59ZM608.87,227.55c-.92,0-1.7-.29-2.34-.88-.64-.59-.96-1.33-.96-2.22s.32-1.67.96-2.24c.64-.57,1.42-.86,2.34-.86s1.7.29,2.34.86c.64.57.96,1.32.96,2.24s-.32,1.63-.96,2.22c-.64.59-1.42.88-2.34.88ZM615.48,250.57v-.8l.67-.17c.92-.28,1.38-.96,1.38-2.05v-12.35c-.03-.59-.13-1.04-.29-1.36-.17-.32-.53-.54-1.09-.65l-.67-.17v-.75l6.78-2.43.5.46.29,2.6c1-.89,2.13-1.63,3.37-2.2,1.24-.57,2.46-.86,3.66-.86,1.84,0,3.26.5,4.25,1.51.99,1,1.49,2.54,1.49,4.6v11.64c0,1.09.5,1.77,1.51,2.05l.46.13v.8h-9.63v-.8l.63-.17c.92-.31,1.38-.99,1.38-2.05v-12.43c0-.98-.21-1.69-.63-2.13-.42-.45-1.12-.67-2.09-.67-1.37,0-2.79.6-4.27,1.8v13.48c0,1.09.49,1.77,1.47,2.05l.42.13v.8h-9.59ZM645.37,251.16c-1.59,0-2.94-.45-4.04-1.36-1.1-.91-1.65-2.21-1.65-3.91,0-1.34.65-2.57,1.95-3.7,1.3-1.13,3.34-1.96,6.13-2.49.47-.11,1.03-.22,1.65-.31.63-.1,1.25-.2,1.86-.31v-2.97c0-1.9-.24-3.21-.71-3.93-.47-.73-1.23-1.09-2.26-1.09h-.13c-.64,0-1.15.2-1.53.61-.38.4-.62,1.07-.73,1.99l-.13.54c-.08,1.12-.38,1.93-.88,2.45-.5.52-1.13.77-1.88.77-.7,0-1.28-.22-1.74-.65-.46-.43-.69-1-.69-1.7,0-1.14.39-2.11,1.17-2.89.78-.78,1.82-1.37,3.12-1.76,1.3-.39,2.7-.59,4.21-.59,2.48,0,4.38.6,5.69,1.8,1.31,1.2,1.97,3.15,1.97,5.86v9.33c0,1.2.57,1.8,1.72,1.8h.96l.42.46c-.5.64-1.06,1.14-1.67,1.49-.61.35-1.45.52-2.51.52-1.2,0-2.16-.29-2.87-.86s-1.18-1.33-1.4-2.28c-.89.95-1.77,1.72-2.64,2.3-.87.59-2,.88-3.39.88ZM647.8,248.48c.56,0,1.09-.13,1.59-.38s1.13-.67,1.88-1.26v-6.7c-.73.11-1.47.25-2.22.42-1.2.28-2.17.8-2.91,1.55-.74.75-1.11,1.77-1.11,3.06,0,1.12.26,1.95.77,2.49.52.54,1.18.82,1.99.82ZM660.69,250.57v-.8l.67-.17c.92-.28,1.38-.96,1.38-2.05v-12.35c-.03-.59-.13-1.04-.29-1.36-.17-.32-.53-.54-1.09-.65l-.67-.17v-.75l6.78-2.43.5.46.29,2.6c1-.89,2.13-1.63,3.37-2.2,1.24-.57,2.46-.86,3.66-.86,1.84,0,3.26.5,4.25,1.51.99,1,1.49,2.54,1.49,4.6v11.64c0,1.09.5,1.77,1.51,2.05l.46.13v.8h-9.63v-.8l.63-.17c.92-.31,1.38-.99,1.38-2.05v-12.43c0-.98-.21-1.69-.63-2.13-.42-.45-1.12-.67-2.09-.67-1.37,0-2.79.6-4.27,1.8v13.48c0,1.09.49,1.77,1.47,2.05l.42.13v.8h-9.59ZM694.98,251.16c-1.9,0-3.61-.41-5.15-1.23-1.54-.82-2.74-2.02-3.62-3.6-.88-1.58-1.32-3.5-1.32-5.76s.49-4.19,1.47-5.78c.98-1.59,2.28-2.81,3.91-3.66,1.63-.85,3.43-1.28,5.38-1.28,1.59,0,2.94.27,4.06.8,1.12.53,1.97,1.21,2.55,2.03.59.82.88,1.7.88,2.62,0,.78-.23,1.38-.69,1.8-.46.42-1.05.63-1.78.63-.78,0-1.42-.28-1.9-.84-.49-.56-.77-1.27-.86-2.13-.03-.56-.02-1.03.02-1.42.04-.39.03-.77-.02-1.13-.11-.47-.3-.8-.57-.96-.27-.17-.64-.25-1.11-.25-1.76,0-3.1.71-4.04,2.11-.94,1.41-1.4,3.69-1.4,6.84,0,2.71.52,4.79,1.55,6.24,1.03,1.45,2.64,2.18,4.81,2.18,1.28,0,2.34-.24,3.18-.73.84-.49,1.6-1.19,2.3-2.11l.67.5c-.7,1.67-1.77,2.95-3.2,3.83-1.44.88-3.15,1.32-5.13,1.32ZM715.53,229.85c1.76,0,3.27.36,4.52,1.09,1.26.73,2.23,1.72,2.91,2.99.68,1.27,1.03,2.73,1.03,4.37,0,.36-.01.71-.04,1.03-.03.32-.08.62-.17.9h-12.6c.03,2.87.57,4.94,1.61,6.2,1.05,1.26,2.57,1.88,4.58,1.88,1.4,0,2.53-.23,3.39-.69.86-.46,1.66-1.11,2.39-1.95l.67.63c-.84,1.54-1.97,2.73-3.41,3.58-1.44.85-3.15,1.28-5.13,1.28s-3.73-.42-5.23-1.26c-1.51-.84-2.69-2.04-3.54-3.62-.85-1.58-1.28-3.47-1.28-5.67s.5-4.23,1.49-5.82c.99-1.59,2.27-2.81,3.85-3.66,1.58-.85,3.23-1.28,4.96-1.28ZM715.32,231.07c-.81,0-1.51.23-2.11.69-.6.46-1.07,1.27-1.42,2.43-.35,1.16-.55,2.78-.61,4.88h7.49c.31-2.82.19-4.86-.33-6.11-.53-1.26-1.54-1.88-3.01-1.88Z"/>
</svg>