<?xml version="1.0" encoding="UTF-8"?>
<svg id="Layer_1" data-name="Layer 1" xmlns="http://www.w3.org/2000/svg" viewBox="0 0 773.38 329.23">
  <defs>
    <style>
      .cls-1 {
        fill: #202151;
      }

      .cls-1, .cls-2 {
        stroke-width: 0px;
      }

      .cls-2 {
        fill: #fff;
      }
    </style>
  </defs>
  <polygon class="cls-1" points="360.11 89.49 365.55 95.68 380.66 106.35 390 110.94 392.18 112.89 390.47 117.01 386.93 120.42 383.46 123.24 381.83 126.2 381.67 130.26 379.34 134.52 375.6 139.83 372.1 140.45 365.55 137.72 355.36 131.81 348.2 125.58 341.81 119.27 340.02 119.43 336.98 123.16 335.43 119.74 336.66 117.4 341.19 115.85 343.45 114.29 360.11 89.49"/>
  <path class="cls-2" d="M272.21,190.64c-.4,1.76-1.33,2.33-2.37,2.79-2.12.93-4.24,1.87-6.35,2.82-.71.32-1.39.68-2.16,1.06,1.46,1.1,56,6.83,59.25,6.82-.93-.34-1.86-.72-2.8-1.02-16.38-5.15-32.77-10.27-49.14-15.44-1.74-.55-3.46-1.26-5.08-2.1-1.78-.92-2-2.02-.63-3.41,5.36-5.49,6.06-12.06,4.65-19.16-.43-2.19-.88-4.39-1.25-6.59-.22-1.29-.69-2.18-2.12-2.5-1.11-.25-2.15-.82-3.43-1.34,1.07-1.4,2.31-1.64,3.55-1.83,5.05-.78,10.1-1.63,15.17-2.28,11.49-1.46,22.99-2.85,34.5-4.2,2.54-.3,5.1-.4,7.65-.48.89-.03,1.8.26,2.92.44-.87,1.74-2.29,1.86-3.55,2.08-5.03.89-10.07,1.75-15.12,2.55-10.25,1.64-20.52,3.23-30.77,4.85-.44.07-.86.26-1.31.8,2.04.53,4.07,1.06,6.11,1.58,17.27,4.32,34.57,8.56,51.81,13.01,5.95,1.53,11.84,3.35,17.61,5.46,5.07,1.85,10.05,2.07,15.29,1.14,19.43-3.43,38.88-6.73,58.32-10.09,1.33-.23,2.64-.58,4.32-.95-3.1-2.97-6.21-5.23-10.15-6.09-11.15-2.45-22.32-4.83-33.47-7.32-1.69-.38-3.28-1.19-4.92-1.82-.37-.14-.71-.34-1.1-.53,1.16-1.63,2.39-1.7,3.68-1.5,3.71.56,7.43,1.11,11.12,1.75,5.65.98,11.29,2.03,17.1,2.75-.45-.38-.88-.79-1.36-1.12-2.44-1.67-4.9-3.32-7.34-4.99-.72-.5-1.44-1.01-2.11-1.59-1.64-1.42-1.82-2.32-.7-4.16,1.21-1.98,2.56-3.87,3.77-5.84.97-1.59.89-2.1-.53-3.26-1.3-1.06-2.65-2.07-4.05-2.99-1.38-.91-1.88-.84-2.83.41-1.4,1.85-2.7,3.77-4.03,5.66-.31.45-.58.93-.98,1.58,1.31,1.12,2.59,2.17,3.83,3.27.77.69,1.57,1.39,2.19,2.21,1.22,1.63.81,3.51-.98,4.47-2.03,1.09-4.15,1.14-6.2.03-1.28-.69-2.07-1.79-1.96-3.31.09-1.27.21-2.55.47-3.8.34-1.64.09-2.95-1.39-3.97-1.1-.76-2.08-1.71-3.38-2.8-1.54,2.46-2.98,4.72-4.36,7.03-.22.36-.18.91-.16,1.37.02.47.2.94.27,1.41.56,3.89-.62,5.67-4.41,6.65-.31.08-.63.12-.93.21-2.09.6-2.94,2.41-2.25,4.48.47,1.42,1.09,2.9,1.07,4.36-.03,3.49-2.75,6.15-6.42,6.07-2.93-.06-5.95-.35-8.74-1.17-12.11-3.55-22.12-10.27-29.46-20.64-1.26-1.79-2.22-3.92-2.8-6.03-.99-3.62,1.55-7.41,5.11-7.86,1.36-.17,2.8.3,4.3.49,1.43-1.81,2.18-3.79,1.6-6.33-.68-2.97,1.34-5.64,4.38-5.96,1.84-.2,3.08-.97,4.1-2.49,4.73-7.03,9.49-14.04,14.32-21,.96-1.39,1.32-2.69.56-4.23-.07-.14-.09-.31-.13-.46-1.01-3.69.55-6.33,4.33-6.65,2.13-.18,3.09-1.16,3.84-2.93.42-1.01.36-1.82-.09-2.72-.39-.78-.84-1.56-1.07-2.4-1.26-4.58,2.2-8.6,6.84-7.71,7.31,1.41,14.54,3.22,20.69,7.73,3.99,2.93,7.88,5.99,11.74,9.08,2.08,1.67,3.57,3.85,4.75,6.25.91,1.86,1.94,3.67,2.96,5.48,1.12,1.99.89,3.86-.51,5.57-1.43,1.74-3.31,2.5-5.54,2.08-1.56-.29-2.26-1.41-1.8-3.06.39-1.37,1.03-2.68,1.67-3.96,1.42-2.84,1.4-3.01-1.46-4.21-9.08-3.79-17.3-8.96-24.66-15.48-1.96-1.74-3.73-3.69-5.82-5.77-1.38,2.21-2.73,4.26-3.93,6.39-.23.41-.03,1.26.27,1.71.52.79,1.24,1.46,1.93,2.12,8.12,7.73,17.27,13.94,27.49,18.55,4.04,1.83,4.18,2.24,1.78,5.95-.9,1.39-1.21,2.69-.49,4.26,1.35,2.94-1.2,5.7-4.35,5.84-1.86.08-2.72-1.12-1.96-2.81.61-1.37,1.48-2.63,2.39-4.19-12-5.68-23.15-12.6-32.74-21.85-.32.27-.53.39-.65.57-3.07,4.66-2.93,4.42,1.11,7.62,3.82,3.03,7.63,6.07,11.44,9.11,3.58,2.86,7.48,5.19,11.67,7.03,1.17.51,2.33,1.07,3.43,1.71,1.66.97,2,1.82,1.32,3.58-1.21,3.12-2.95,5.82-5.97,7.55-2.15,1.23-2.68,1.98-3.69,4.76.55-.49.8-.68,1.01-.9.27-.29.51-.62.77-.92,2.45-2.85,3.96-3.21,7.36-1.79.22.09.44.2.65.3,1.73.83,3.3.73,4.95-.39,2.62-1.76,6.12-.95,7.63,1.8.53.97.87,2.41.56,3.41-.88,2.82.26,4.63,2.35,6.19,6.59,4.93,13.18,9.87,19.8,14.76,1.8,1.33,3.71,2.51,5.58,3.73,4.14,2.7,8.2,5.57,13.05,6.97,1.72.5,3,1.66,4.33,2.87,1.81,1.64,3.87,3.09,6,4.3,11.95,6.79,24.08,13.27,35.89,20.28,8.44,5.01,16.57,10.58,24.67,16.13,5.62,3.85,10.59,8.5,15.06,13.66.62.72,1.25,1.48,1.69,2.31,1.37,2.6.1,5.09-2.82,5.48-.92.13-1.92,0-2.84-.2-5.64-1.21-10.67-3.8-15.41-6.98-4.78-3.21-9.49-6.52-14.18-9.84-12.14-8.59-24.24-17.23-36.38-25.81-4.84-3.42-8.55-7.66-10.23-13.47-.52-1.78-1.8-2.98-3.2-4.08-3.65-2.89-7.84-4.65-12.33-5.61-5.62-1.2-11.29-2.18-16.94-3.24-.19-.04-.41.1-.85.23,1.6,1.44,3.33,2.11,5.19,2.52,4.45.97,8.9,1.9,13.34,2.92,1.37.31,2.69.86,4.34,1.4-2.82,2.44-6.24,1.73-9.35,3.16.98.83,1.8,1.54,2.64,2.22,14.71,11.81,29.37,23.69,44.17,35.38,6.77,5.35,13.72,10.48,20.79,15.41,8.18,5.71,17.37,9.47,26.63,13.04,1.37.53,2.33.23,3.13-.86,1.33-1.8,2.64-3.61,3.94-5.43.61-.84,1.14-1.74,1.78-2.56.83-1.05,1.94-1.75,3.29-1.73,5.93.09,11.78,3.2,13.08,9.77.63,3.19-.02,6.2-1.69,8.98-.89,1.49-2.18,2.53-3.8,3.16-.7.27-1.4.54-2.05,1.26.5.06,1,.14,1.51.16.64.03,1.28.03,1.92.03,22.87.02,45.74.04,68.6.06,36.3.03,72.6.05,108.9.09,15.75.02,31.5.07,47.25.11,1.84,0,3.68.05,5.51.12.45.02.89.19,1.78.39-.69.41-1.01.74-1.38.8-.62.1-1.27.05-1.91.05-20.63,0-41.26.01-61.89,0-37.1-.03-74.2-.06-111.3-.11-19.27-.02-38.54-.05-57.81-.13-2.39-.01-4.8-.21-7.16-.61-5.39-.92-8.94-4.11-10.44-9.34-.46-1.6-1.23-2.42-2.71-2.94-12.68-4.51-24.35-10.85-34.92-19.21-17.3-13.69-34.62-27.36-51.93-41.04-2.26-1.78-4.52-3.57-6.75-5.38-1.39-1.13-2.87-1.48-4.68-1.16-14.71,2.59-29.43,5.1-44.15,7.63-6.85,1.18-13.71,2.27-20.54,3.53-3.91.72-7.62.04-11.34-.99-20.1-5.52-40.18-11.1-60.31-16.51-6.47-1.74-13.07-3.04-19.6-4.54-.31-.07-.63-.13-.94-.17-2.07-.25-2.68.36-2.27,2.41.29,1.49.69,2.95,1.08,4.42.82,3.14.89,6.34.57,9.53-.38,3.82-1.82,7.26-4.37,10.19-.47.54-.94,1.08-1.61,1.85,1.4.66,2.63,1.41,3.96,1.82,21.8,6.81,43.59,13.66,65.44,20.28,4.48,1.36,9.22,1.86,13.85,2.74,3.45.66,6.9,1.31,10.36,1.94.53.1,1.08.1,1.84.17.26-1.75.53-3.38.73-5.02.5-4.12,1.13-8.24,1.39-12.38.14-2.19-.3-4.44-.63-6.63-.3-2.04-.92-4.06.27-6.19,1.63.44,2.63,1.56,3.39,3.01,3.48,6.62,4.16,13.51,2.01,20.67-.69,2.29-1.47,4.55-2.25,6.97,1.77.64,3.5.55,5.2.28,9.46-1.53,18.94-2.95,28.37-4.7,13.74-2.54,27.44-5.31,41.15-8.01,3.45-.68,6.88-1.44,10.3-2.22,2.26-.52,2.28-.68,1.72-2.95-.28-1.16-.62-2.35-.59-3.51.02-.78.48-1.71,1.05-2.25.49-.47,1.44-.73,2.14-.65.93.1,1.12,1.04,1.12,1.87,0,1.35.16,2.76-.16,4.04-.47,1.84-.34,3.53.6,5.08,1.85,3.07,2.27,6.45,2.41,9.9.22,5.2.22,10.37-.95,15.5-.83,3.65-2.73,6.02-6.28,7.49-16.83,6.97-33.59,14.1-50.37,21.18-.74.31-1.52.55-2.19.97-3.8,2.37-7.97,3.15-12.38,2.94-.8-.04-1.6,0-2.4,0-128.33,0-256.66,0-385,0-.88,0-1.77.04-2.63-.08-.31-.04-.55-.52-1.27-1.25,1.6-.03,2.6-.07,3.6-.07,38.38,0,76.76,0,115.14,0,76.68,0,153.36,0,230.04,0,14.63,0,29.26-.08,43.89-.14,1.34,0,2.69-.15,4.03-.49-3.07-.4-6.15-.73-9.2-1.21-15.62-2.45-31.25-4.91-46.86-7.43-14.03-2.27-28.07-4.52-42.07-6.98-12.03-2.12-24.02-4.5-36.02-6.83-3.55-.69-3.82-1.41-2.3-4.72,4.22-9.15,3.91-18.26-.39-27.28-1.26-2.65-1.08-3.5,1.47-4.75,4.47-2.2,9.16-3.77,14.1-4.46.89-.12,1.83.08,2.94.15ZM267.69,192.49l-.3-.49c-3.7,1.44-7.42,2.85-11.1,4.35-1.37.56-1.67,1.31-.97,2.68,2.68,5.22,3.12,10.83,3.09,16.56-.03,4.55-.66,8.92-3.3,12.8-.24.35-.23.86-.36,1.41.72.22,1.31.47,1.92.59,11.22,2.11,22.43,4.32,33.68,6.26,16.69,2.88,33.4,5.58,50.11,8.33,16.71,2.75,33.38,5.73,50.25,7.4,2,.2,3.01-.18,3.92-1.99,2.98-5.92,4.47-12.14,3.38-18.78-.36-2.2-1.04-4.34-1.52-6.53-.67-3.11-.11-4.2,2.76-5.48.95-.42,1.92-.79,2.89-1.16,13.16-4.94,26.33-9.86,39.48-14.81,1.35-.51,2.66-1.14,3.99-1.72-.61-.32-1.07-.26-1.5-.1-4.96,1.78-9.93,3.54-14.87,5.38-9.72,3.64-19.43,7.32-29.14,11.01-4.22,1.61-8.51,2.08-12.93,1.01-3.49-.85-6.98-1.71-10.48-2.52-6.37-1.48-12.66-3.44-19.33-3.07-.7.04-1.42-.2-2.11-.37-5.43-1.32-10.82-2.83-16.3-3.96-14.73-3.02-29.69-4.51-44.61-6.23-9.45-1.09-18.9-2.06-28.35-3.15-2.37-.27-4.72-.78-7.06-1.26-.45-.09-.82-.56-1.52-1.09,3.5-2.08,7.09-3.21,10.27-5.09ZM395.99,251.9c2.23-.81,3.95-1.35,5.61-2.05,15.89-6.7,31.77-13.45,47.68-20.11,3.27-1.37,5.01-3.68,5.7-7.1,1.03-5.14,1.18-10.32.83-15.51-.18-2.71-.7-5.39-2.08-7.81-.98-1.72-1.07-1.75-3.05-1.33-4.29.91-8.57,1.9-12.89,2.7-20.8,3.87-41.61,7.69-62.42,11.54-1.56.29-3.12.64-4.67.95.55.56,1.06.76,1.59.89,4.03.99,8.08,1.9,12.09,2.97,5.66,1.51,11.12,1.34,16.66-.79,13.11-5.05,26.3-9.9,39.48-14.77,2.16-.8,4.43-1.3,6.66-1.91,1.15-.31,2.17-.13,2.91.86-.76,2.01-2.52,2.48-4.16,3.09-11.14,4.17-22.3,8.3-33.42,12.52-4.18,1.59-8.29,3.35-12.39,5.13-2.28.99-2.56,1.81-1.92,4.16.08.31.17.62.26.92,2.31,7.82,1.9,15.46-1.43,22.92-.31.69-.54,1.42-1.02,2.71ZM360.18,91.68c-.45.63-.78,1.07-1.1,1.53-4.55,6.57-9.13,13.11-13.62,19.72-1.59,2.34-3.31,4.28-6.38,4.47-.44.03-.91.32-1.29.59-1.21.85-1.45,2.08-.71,3.72.6-.69,1.14-1.38,1.74-2.01,1.88-1.97,3.22-1.94,4.96.15,6.04,7.23,13.74,12.39,21.71,17.13,1.87,1.11,4.16,1.61,6.31,2.13,1.92.46,3.62-.12,4.73-1.96,1.15-1.92,2.42-3.77,3.54-5.7.34-.58.55-1.36.49-2.02-.34-3.81,1.47-6.44,4.52-8.37,2.36-1.5,4.14-3.48,5.43-5.94,1.08-2.06.89-2.4-1.21-3.43-3.37-1.64-6.79-3.21-9.99-5.16-5.95-3.62-11.37-8-16.57-12.62-.82-.73-1.66-1.44-2.57-2.23ZM454.05,167.49c.09.67.1,1.06.2,1.41.84,2.9,2.29,5.48,4.45,7.55,2.01,1.93,4.12,3.79,6.36,5.45,7.31,5.43,14.71,10.73,22.05,16.12,11.54,8.47,23.59,16.13,36.1,23.09,2.37,1.32,4.92,1.87,7.55,2.07,2.28.17,3.05-1.16,1.89-3.17-.47-.82-1.1-1.57-1.74-2.28-5.22-5.77-10.94-10.99-17.46-15.25-5.15-3.36-10.39-6.58-15.69-9.7-13.76-8.1-27.58-16.1-41.38-24.13-.67-.39-1.38-.69-2.34-1.16ZM368.29,153.6c-.22.04-.51,0-.67.13-2.6,2.06-5.43,1.79-8.42,1.03-7.3-1.85-13.57-5.48-19.05-10.56-3.88-3.59-7.18-7.49-7.69-13.09-.12-1.36-.94-1.88-2.31-1.98-2.76-.2-5.02,1.91-4.84,4.69.15,2.45,1,4.71,2.61,6.57,2.41,2.77,4.78,5.59,7.42,8.13,7.2,6.93,15.68,11.43,25.63,13.01,2.11.33,4.16.16,6.07-.79,2.95-1.45,3.46-4.5,1.25-7.14ZM404.16,133.83c-1.67,2.5-3.18,4.75-4.68,7-.6.9-.4,1.65.43,2.29.38.29.75.59,1.15.86,4.12,2.74,8.23,5.5,12.38,8.19.85.55,1.83,1.06,2.81,1.25,6.33,1.24,12.68,2.38,19.03,3.55l.2-.36c-10.36-7.53-20.72-15.07-31.32-22.78ZM530.67,233.72c2.7,2.46,5.12,4.92,7.79,7.04,4.13,3.28,9.38,1.8,11.45-3.05,2.92-6.84-2.34-14.74-9.8-14.72-1.66,0-2.92.66-3.82,2.05-1.82,2.81-3.64,5.62-5.62,8.68ZM368.09,78.13c-.48.74-.96,1.47-1.42,2.21-1.62,2.62-1.57,2.92.7,5.05,5.45,5.1,11.41,9.51,17.87,13.22,3.6,2.06,7.33,3.88,11.01,5.8.88.46,1.84.82,2.62-.11.95-1.14,1.95-2.29,2.26-3.68-5.88-3.39-11.82-6.37-17.26-10.08-5.46-3.71-10.42-8.14-15.8-12.41ZM369.02,148.06c-12.15-5.1-22.83-12.51-32.43-21.48-2.35,2.54-2.48,3.54-.72,5.97.98,1.35,2.05,2.65,3.18,3.89,5.43,5.93,12.16,10.01,19.33,13.43,1.63.78,3.45,1.22,5.23,1.64,3.31.77,4.35.08,5.42-3.45ZM373.75,141.55c-1.26-.4-2.1-.63-2.92-.92-1.8-.64-3.71-1.11-5.38-2.01-8.27-4.48-16.02-9.66-22.21-16.87-.31-.36-.6-.81-1.01-1-.46-.22-1.09-.4-1.56-.27-2.27.63-3.31,3.47-2.02,5.42.39.59.9,1.13,1.46,1.57,4.42,3.42,8.68,7.11,13.36,10.13,4.75,3.07,9.9,5.51,14.92,8.15,1.52.8,2.25.51,3.25-.89.68-.96,1.27-1.98,2.11-3.3ZM406.86,89.49c-.3-2.04-.53-2.8-2.11-4.41-2.12-2.16-4.29-4.31-6.67-6.18-5.16-4.08-10.71-7.56-16.99-9.68-1.39-.47-2.87-.66-4.31-.98-.08.2-.16.39-.25.59,8.41,9.24,18.69,15.75,30.32,20.67ZM361.98,183.75c-.07.37-.15.53-.12.67.11.63.24,1.25.37,1.87.87,4.01,1.3,8.02.37,12.11-.62,2.72-1.09,5.49-1.47,8.25-.17,1.2.05,2.45.09,3.94,5.3-4.32,5.98-21.53.76-26.85ZM393.75,126.04c-.87-.59-1.43-1.04-2.05-1.38-2.21-1.23-3.58-1.05-5.3.81-.91.98-1.69,2.1-2.48,3.19-.64.88-.67,1.76.23,2.53,1.24,1.07,2.48,2.15,3.84,3.32,1.98-2.92,3.81-5.6,5.76-8.48ZM306.43,147.35c-13.44.79-26.75,2.58-40.31,5.02,1.73,1.13,3.23.89,4.73.66,3.7-.57,7.4-1.15,11.1-1.74,8.16-1.31,16.33-2.63,24.49-3.94ZM362.94,153.9c.06-.2.13-.4.19-.6-5.11-1.76-10.02-3.92-14.54-6.87-4.55-2.96-8.58-6.53-12.52-10.31.43,1.1.95,2.14,1.69,3,5.61,6.47,12.5,11.1,20.56,13.93,1.46.51,3.08.58,4.62.85ZM416.45,157.06c.06-.18.11-.35.17-.53-1.26-1.35-2.95-1.92-4.72-2.26-8.61-1.64-17.23-3.25-25.86-4.81-1.06-.19-2.21-.55-3.31-.23-.02.17-.04.34-.06.5,11.26,2.44,22.52,4.88,33.78,7.32ZM388.67,137.13c-.41,1.32-.68,1.98-.81,2.68-.65,3.36,1.74,5.42,4.98,4.33,1.21-.41,1.65-1.42.79-2.35-1.44-1.54-3.07-2.9-4.96-4.65ZM373.01,67.22c-3.48-1.03-5.38-.23-6.39,2.41-.8,2.08-.29,3.43,1.8,4.5,1.48-2.22,2.96-4.46,4.59-6.91ZM397.36,125.76c2,1.49,4,2.98,6.02,4.49,1.5-2.66,1.25-4.5-.65-5.78-1.94-1.31-3.59-.96-5.37,1.28ZM408.63,92.3c-.98,2.05-1.96,3.87-2.74,5.78-.52,1.28.15,1.98,1.53,1.81,1.62-.2,2.99-1.41,3.38-2.98.47-1.87-.05-3.08-2.18-4.61ZM529.91,235.37c.69,4.65,5.09,8.3,9.27,8.32-2.92-2.62-5.94-5.33-9.27-8.32ZM436.85,162.71c-3.71-.77-7.03-1.46-10.69-2.22,2.81,3.72,6.51,4.5,10.69,2.22ZM363.11,82.66c-3.36.08-4.44,1.9-2.94,5.08,1.02-1.76,1.94-3.35,2.94-5.08ZM395.8,111.87c3.36-.1,4.34-1.62,2.95-4.42-.98,1.47-1.87,2.8-2.95,4.42ZM375.54,142.02c-.87,1.36-1.74,2.73-2.79,4.37,3.14-.71,3.68-1.48,2.79-4.37ZM452.54,189.28q-1.13,1.65,0,2.81v-2.81Z"/>
  <path class="cls-2" d="M375.54,142.02c.89,2.89.35,3.67-2.79,4.37,1.05-1.65,1.92-3.01,2.79-4.37Z"/>
  <path class="cls-2" d="M452.54,189.28v2.81q-1.13-1.16,0-2.81Z"/>
</svg>