<svg version="1.1" id="Layer_1" xmlns="http://www.w3.org/2000/svg" xmlns:xlink="http://www.w3.org/1999/xlink" x="0px" y="0px"
	 width="100%" viewBox="0 0 1521 534" enable-background="new 0 0 1521 534" xml:space="preserve">
<path fill="#F9F0F0" opacity="1.000000" stroke="none" 
	d="
M33.000000,535.000000 
	C22.335043,535.000000 11.670085,535.000000 1.003845,535.000000 
	C1.002563,357.030243 1.002563,179.060455 1.002563,1.045341 
	C507.888550,1.045341 1014.777100,1.045341 1521.832764,1.045341 
	C1521.832764,178.999878 1521.832764,356.999908 1521.832764,535.000000 
	C1511.921753,535.000000 1501.923584,535.000000 1491.465454,534.795654 
	C1491.005615,534.591309 1491.014526,534.182617 1491.420166,534.108765 
	C1508.289795,533.033447 1518.402588,521.924133 1518.406372,504.595734 
	C1518.430420,393.614288 1518.418701,282.632874 1518.407715,171.651428 
	C1518.407593,170.218384 1518.262939,168.785339 1518.179810,167.239746 
	C1014.113281,167.239746 510.422607,167.239746 6.307121,167.239746 
	C6.307121,169.104385 6.307137,170.741013 6.307119,172.377655 
	C6.305935,283.192444 6.299849,394.007263 6.308669,504.822052 
	C6.310045,522.120911 15.876206,532.613647 32.990189,534.388367 
	C32.995068,534.592224 33.000000,535.000000 33.000000,535.000000 
M220.499954,160.230408 
	C653.064636,160.230408 1085.629395,160.230408 1518.424561,160.230408 
	C1518.424561,158.057785 1518.424683,156.729813 1518.424561,155.401840 
	C1518.420654,114.569160 1518.462036,73.736397 1518.392334,32.903828 
	C1518.360352,14.218269 1507.560059,3.649733 1488.750977,3.649653 
	C1004.590210,3.647596 520.429443,3.694271 36.268757,3.468592 
	C18.460461,3.460291 5.945075,15.825107 6.155877,33.646084 
	C6.632905,73.973267 6.301284,114.309982 6.314230,154.642822 
	C6.314791,156.391861 6.471498,158.140823 6.571824,160.230499 
	C77.885429,160.230499 148.692688,160.230499 220.499954,160.230408 
z"/>
<path fill="#F4E0E2" opacity="1.000000" stroke="none" 
	d="
M33.447632,535.000000 
	C33.000000,535.000000 32.995068,534.592224 33.454056,534.310059 
	C34.579376,534.018677 35.245712,534.001465 35.912048,534.001465 
	C519.451050,534.000244 1002.990051,534.000000 1486.529053,534.007568 
	C1488.024170,534.007568 1489.519409,534.121765 1491.014526,534.182617 
	C1491.014526,534.182617 1491.005615,534.591309 1491.002808,534.795654 
	C1005.298401,535.000000 519.596863,535.000000 33.447632,535.000000 
z"/>
<path fill="#B72128" opacity="1.000000" stroke="none" 
	d="
M1491.420166,534.108765 
	C1489.519409,534.121765 1488.024170,534.007568 1486.529053,534.007568 
	C1002.990051,534.000000 519.451050,534.000244 35.912048,534.001465 
	C35.245712,534.001465 34.579376,534.018677 33.449177,534.106201 
	C15.876206,532.613647 6.310045,522.120911 6.308669,504.822052 
	C6.299849,394.007263 6.305935,283.192444 6.307119,172.377655 
	C6.307137,170.741013 6.307121,169.104385 6.307121,167.239746 
	C510.422607,167.239746 1014.113281,167.239746 1518.179810,167.239746 
	C1518.262939,168.785339 1518.407593,170.218384 1518.407715,171.651428 
	C1518.418701,282.632874 1518.430420,393.614288 1518.406372,504.595734 
	C1518.402588,521.924133 1508.289795,533.033447 1491.420166,534.108765 
M522.655212,377.211639 
	C523.922180,377.671082 525.175964,378.477966 526.458496,378.526611 
	C530.784363,378.690857 535.120361,378.584106 539.452515,378.583832 
	C552.576172,378.583008 565.699829,378.583527 578.710938,378.583527 
	C580.407593,374.680664 579.060547,372.949219 575.539368,372.296448 
	C570.424927,371.348297 568.409058,367.782806 568.180237,362.989624 
	C568.021545,359.664429 568.164673,356.325958 568.113464,352.994324 
	C567.755066,329.689453 567.363953,306.385010 567.063538,283.079407 
	C567.048523,281.915436 567.409851,280.251831 568.215515,279.648895 
	C575.895691,273.901428 583.948792,268.985870 594.124756,269.540100 
	C605.120422,270.139008 608.963928,273.572083 609.099609,284.500214 
	C609.397522,308.489044 609.311218,332.482819 609.358704,356.474609 
	C609.382019,368.243164 608.951721,368.844177 598.143433,372.878723 
	C598.143433,374.271057 598.143433,375.718872 598.143433,377.218445 
	C617.079041,377.218445 635.802124,377.218445 654.509094,377.218445 
	C655.076355,374.396149 655.218384,372.658325 651.861328,371.735443 
	C644.412048,369.687500 642.953674,367.358246 642.946838,359.512726 
	C642.927185,336.852356 642.987915,314.191833 642.898376,291.531799 
	C642.880676,287.050232 642.619446,282.529480 641.978088,278.098022 
	C639.968689,264.213806 631.723328,256.206360 617.940491,253.891586 
	C605.947937,251.877472 594.625061,253.951111 584.129883,259.636108 
	C577.340942,263.313568 571.145569,268.086761 564.533325,272.468933 
	C563.878845,271.205719 563.084839,269.608002 562.233765,268.041199 
	C557.813965,259.904236 551.185120,255.155579 541.867249,253.722687 
	C530.624023,251.993683 520.305420,254.350082 510.692169,259.922699 
	C504.446045,263.543457 498.571014,267.804413 492.184814,272.005432 
	C491.688965,267.345245 491.319611,262.915619 490.721161,258.517151 
	C490.113434,254.050598 488.079559,252.854416 483.865753,254.359421 
	C472.595581,258.384674 461.313629,262.381165 450.116394,266.601532 
	C448.587738,267.177704 447.515839,268.965637 446.232422,270.192474 
	C447.557892,271.280151 448.719727,272.890411 450.237000,273.365692 
	C457.044678,275.498016 458.307434,276.487579 458.395264,283.898254 
	C458.699280,309.552185 458.828644,335.209259 458.820953,360.865082 
	C458.818756,368.207764 457.007294,370.392883 449.652557,372.468781 
	C446.102448,373.470764 445.609253,375.149200 446.652588,377.869385 
	C466.028412,377.869385 485.094971,377.869385 503.973969,377.869385 
	C505.135742,374.032166 504.039978,372.422974 500.599304,371.752960 
	C495.232819,370.707886 492.927734,367.038910 492.934113,361.651031 
	C492.965088,335.491699 492.907288,309.332153 493.024780,283.173309 
	C493.031769,281.612701 493.856293,279.327606 495.039459,278.625946 
	C500.290741,275.511871 505.527924,271.805573 511.293182,270.242981 
	C523.986267,266.802673 534.709595,270.362854 534.308289,287.085480 
	C534.296326,287.584137 534.361816,288.084198 534.361877,288.583618 
	C534.363953,312.743561 534.399536,336.903625 534.340576,361.063416 
	C534.322083,368.648041 533.109070,369.933899 525.917419,372.638306 
	C524.528870,373.160492 523.684631,375.130310 522.655212,377.211639 
M672.926208,398.500000 
	C672.925293,404.997040 672.966064,411.494385 672.912903,417.990997 
	C672.846130,426.157898 671.440491,428.381226 663.894409,430.880707 
	C660.650024,431.955383 660.116089,433.540619 661.253723,436.122253 
	C680.584656,436.122253 699.689392,436.122253 718.820068,436.122253 
	C718.820068,434.131836 718.820068,432.691895 718.820068,431.326294 
	C707.045227,427.823029 705.788086,426.133789 705.781982,414.006500 
	C705.776428,403.011383 705.781067,392.016266 705.781128,381.021149 
	C705.781128,379.148224 705.781128,377.275330 705.781128,376.198792 
	C714.796082,378.091125 723.127075,380.448730 731.620117,381.511169 
	C759.730957,385.027679 781.931763,370.875580 789.352234,344.390808 
	C794.863892,324.718811 794.626465,304.779449 787.965576,285.382111 
	C782.008240,268.033539 770.305969,256.405548 751.386719,254.213257 
	C738.049805,252.667816 725.195312,255.209793 713.204468,261.492310 
	C710.913452,262.692657 708.648621,263.942841 706.061646,265.337158 
	C705.451904,262.976318 704.979736,261.059204 704.460510,259.154938 
	C703.111267,254.207214 701.725525,253.429520 697.076599,255.099289 
	C685.970276,259.088409 674.897949,263.173615 663.759216,267.069672 
	C660.821228,268.097321 659.081421,269.418518 660.437744,272.971954 
	C661.242310,273.213715 662.165710,273.548126 663.115662,273.767517 
	C670.111389,275.383057 671.748291,277.080109 672.394226,284.069061 
	C672.746216,287.877869 672.886902,291.718597 672.891479,295.545197 
	C672.932495,329.530090 672.921692,363.515045 672.926208,398.500000 
M290.708221,269.866364 
	C287.070740,266.722839 282.914032,264.009521 279.889252,260.358398 
	C269.076965,247.307098 273.320404,227.170685 288.245026,219.293015 
	C294.955566,215.751007 302.114380,215.360901 309.590851,215.639969 
	C318.732361,215.981171 325.055878,220.035904 329.181091,227.938873 
	C332.491791,234.281403 336.060516,240.517822 338.901947,247.067169 
	C340.957489,251.805115 343.858551,252.632965 348.570526,250.999084 
	C349.082367,242.007294 349.469391,233.046814 350.171051,224.111023 
	C350.401245,221.179459 349.408417,219.594315 346.951691,218.171677 
	C335.018097,211.261322 322.109161,207.848907 308.429016,207.324448 
	C293.755341,206.761917 279.634857,208.739029 266.487457,216.059723 
	C235.586609,233.265854 238.623001,276.310272 259.966003,291.625397 
	C269.498749,298.465820 279.953308,304.043976 290.118713,309.973511 
	C298.848145,315.065430 308.682098,318.711151 316.401276,324.994385 
	C332.347107,337.973907 327.717896,364.136353 308.714722,371.938171 
	C298.311981,376.209076 287.608795,376.182465 276.964600,372.541046 
	C270.736023,370.410248 265.748657,366.610840 262.706604,360.713623 
	C259.203308,353.922333 255.534561,347.157867 252.792786,340.051849 
	C250.818527,334.935028 247.934952,334.115540 243.140594,335.567200 
	C242.698334,346.317322 242.157074,356.948700 241.952805,367.586517 
	C241.926819,368.939240 243.362534,371.043427 244.633194,371.574768 
	C250.749252,374.132324 256.902985,376.802765 263.295837,378.457855 
	C283.638580,383.724426 304.174591,384.777679 324.342560,377.950165 
	C341.821716,372.032959 353.805237,360.295685 356.794525,341.514587 
	C359.972595,321.547333 353.894348,304.888916 336.452820,293.525970 
	C329.923981,289.272491 322.997742,285.583374 316.054565,282.023346 
	C307.934021,277.859589 299.597198,274.117737 290.708221,269.866364 
M1369.993286,241.556839 
	C1371.323242,244.422821 1372.930664,247.196762 1373.919189,250.176086 
	C1375.447388,254.782410 1378.348755,255.277679 1381.667725,254.107574 
	C1381.667725,239.878845 1381.667725,226.102036 1381.667725,212.188599 
	C1332.903931,212.188599 1284.979004,212.188599 1236.213867,212.188599 
	C1236.213867,226.281357 1236.213867,240.157684 1236.213867,254.078247 
	C1242.353638,254.899765 1242.276245,254.861618 1244.999268,249.332901 
	C1248.741821,241.734192 1252.262695,233.988388 1256.608521,226.743469 
	C1258.328125,223.876572 1261.789062,220.690063 1264.836426,220.244919 
	C1273.251953,219.015610 1281.867676,219.155411 1290.264282,218.760437 
	C1290.588135,220.319885 1290.773438,220.797440 1290.774292,221.275284 
	C1290.851196,267.258606 1290.947998,313.241943 1290.937500,359.225281 
	C1290.936035,365.422668 1287.876709,369.209473 1281.923950,370.855621 
	C1278.259888,371.868896 1274.475586,372.447693 1270.552979,373.261444 
	C1270.552979,374.838013 1270.552979,376.247040 1270.552979,377.890198 
	C1296.535889,377.890198 1322.275757,377.890198 1348.272461,377.890198 
	C1348.272461,376.218292 1348.272461,374.785034 1348.272461,372.969452 
	C1346.171631,372.567871 1344.078613,372.169647 1341.986206,371.767578 
	C1329.826782,369.430939 1327.616455,366.732330 1327.619263,354.397278 
	C1327.629272,311.412170 1327.623779,268.427063 1327.623901,225.441956 
	C1327.623901,223.489410 1327.623779,221.536865 1327.623779,219.381851 
	C1335.942993,219.381851 1343.797852,218.761475 1351.474243,219.661545 
	C1354.954102,220.069550 1358.937988,222.828613 1361.169556,225.703690 
	C1364.685669,230.233658 1366.915771,235.761841 1369.993286,241.556839 
M1120.502686,234.016144 
	C1123.070068,238.867218 1125.906128,243.599335 1128.123291,248.605530 
	C1130.036255,252.924530 1132.791260,254.190109 1136.838745,252.750397 
	C1136.838745,243.191208 1136.717529,233.735779 1136.907715,224.286606 
	C1136.970093,221.182968 1135.865967,219.569260 1133.133545,218.174545 
	C1115.551636,209.200607 1096.855591,206.079453 1077.417358,208.101868 
	C1044.644775,211.511581 1019.966431,226.923691 1006.499878,257.920197 
	C999.967407,272.956055 998.914673,288.894745 1000.180786,304.970367 
	C1002.019104,328.311401 1010.656921,348.526825 1029.079712,363.748871 
	C1041.343384,373.881927 1055.732788,379.307373 1071.339600,381.409302 
	C1093.262207,384.361816 1114.502686,381.954224 1134.527222,372.016388 
	C1136.192749,371.189911 1138.399780,369.216797 1138.444458,367.719330 
	C1138.776367,356.616058 1138.624268,345.498291 1138.624268,334.228394 
	C1134.497437,332.781067 1131.994873,334.181549 1130.366455,338.688812 
	C1127.884277,345.559570 1124.800415,352.214111 1121.938843,358.946289 
	C1119.378052,364.970581 1115.599731,369.610779 1109.170532,372.137177 
	C1082.660278,382.554596 1054.686279,370.246704 1045.325928,342.077606 
	C1035.088135,311.267761 1035.631104,279.752563 1045.381836,248.797821 
	C1049.786743,234.814178 1058.850220,224.066727 1073.111938,218.546341 
	C1094.441162,210.290237 1110.890747,215.437836 1120.502686,234.016144 
M877.114197,354.307495 
	C889.847900,375.302826 909.471680,382.541443 932.793091,381.424896 
	C953.692383,380.424377 969.777527,370.952881 980.363281,352.282806 
	C978.883179,350.967896 977.689148,349.907104 976.521667,348.869873 
	C958.642395,364.659241 939.294128,368.588074 923.126221,360.402649 
	C910.106323,353.810974 903.703552,336.162750 905.015442,315.935608 
	C930.044373,315.935608 955.111755,315.935608 980.433350,315.935608 
	C980.833740,313.202454 981.239807,310.930969 981.490540,308.642456 
	C984.186279,284.032440 969.489197,261.039032 946.420654,255.525589 
	C922.549377,249.820297 901.346863,255.942108 884.432434,273.832275 
	C865.599060,293.752167 862.773743,327.258972 877.114197,354.307495 
M1170.287354,295.499908 
	C1170.280396,316.650360 1170.335938,337.801086 1170.235474,358.951080 
	C1170.196045,367.272430 1168.639038,369.386047 1160.702026,372.000153 
	C1157.557739,373.035767 1156.274780,374.492798 1157.683472,377.898773 
	C1178.386719,377.898773 1199.138672,377.898773 1219.837158,377.898773 
	C1221.069824,374.333099 1220.019531,372.715332 1216.484131,371.583221 
	C1209.188599,369.247192 1207.000977,365.907776 1206.995605,358.245239 
	C1206.965820,315.944275 1206.968018,273.643280 1207.008911,231.342346 
	C1207.016235,223.778625 1209.345459,220.365768 1216.700073,218.198273 
	C1220.514526,217.074097 1220.879883,215.158203 1219.795898,211.906326 
	C1198.987549,211.906326 1178.242188,211.906326 1157.496704,211.906326 
	C1157.112427,212.299026 1156.728027,212.691727 1156.343628,213.084442 
	C1157.597290,214.673645 1158.526123,217.040054 1160.158813,217.722717 
	C1169.068726,221.448166 1170.238403,222.805161 1170.262939,232.547287 
	C1170.314941,253.198044 1170.284180,273.848999 1170.287354,295.499908 
M1410.287476,265.499908 
	C1410.285034,296.309662 1410.314575,327.119507 1410.260986,357.929169 
	C1410.244629,367.325836 1409.057007,369.046967 1400.242065,372.127258 
	C1397.135498,373.212738 1396.531494,374.889648 1397.652100,377.899658 
	C1418.367065,377.899658 1439.118652,377.899658 1459.831177,377.899658 
	C1461.060059,374.362000 1460.055298,372.726990 1456.505615,371.590851 
	C1449.192505,369.250183 1447.001831,365.918182 1446.996338,358.268127 
	C1446.965820,315.967163 1446.968384,273.666168 1447.008545,231.365265 
	C1447.015747,223.782639 1449.337646,220.363739 1456.678223,218.204971 
	C1460.480957,217.086655 1460.888672,215.186005 1459.800293,211.900391 
	C1439.007080,211.900391 1418.261841,211.900391 1397.606934,211.900391 
	C1396.526611,215.161987 1397.126343,216.945206 1400.536255,218.063110 
	C1408.681763,220.733551 1410.167114,222.943497 1410.248657,231.525360 
	C1410.353027,242.515991 1410.282593,253.508301 1410.287476,265.499908 
M848.119629,299.500000 
	C848.119629,291.171844 848.041138,282.842773 848.134888,274.515686 
	C848.386108,252.201202 848.683167,229.887146 849.034607,207.574066 
	C849.091614,203.951935 848.106750,201.458130 843.963623,202.433701 
	C830.076904,205.703552 816.228210,209.135361 801.116821,212.808563 
	C802.343384,214.831650 802.920105,217.197021 804.236572,217.728012 
	C813.871155,221.613876 814.380554,222.155060 814.379517,232.559540 
	C814.376343,263.540253 814.367676,294.520966 814.361084,325.501678 
	C814.358643,336.994537 814.450745,348.488434 814.320068,359.979858 
	C814.233459,367.598969 812.016296,370.841583 805.128296,372.956604 
	C801.958374,373.929901 801.722595,375.539856 802.637390,378.331238 
	C821.695190,378.331238 840.769958,378.331238 861.213257,378.331238 
	C859.998047,376.114502 859.438416,373.612671 858.364807,373.368286 
	C849.269348,371.297882 848.053345,364.684784 848.090332,356.964783 
	C848.180481,338.143585 848.119629,319.321655 848.119629,299.500000 
M383.881653,326.500000 
	C383.879730,337.497742 383.944580,348.496002 383.853943,359.493011 
	C383.786255,367.709259 381.792877,370.546021 374.094299,373.009125 
	C371.003967,373.997833 370.693207,375.594757 371.885803,378.505066 
	C390.820862,378.505066 409.753937,378.505066 429.946350,378.505066 
	C428.757904,376.507751 428.217041,374.244476 427.039886,373.841980 
	C419.795929,371.365082 417.815521,366.159821 417.870209,359.065002 
	C418.065399,333.738312 417.957245,308.409393 418.033173,283.081543 
	C418.056671,275.251312 418.350098,267.422180 418.420654,259.591644 
	C418.450592,256.267334 417.610962,253.253769 413.303131,254.645996 
	C400.029419,258.935883 386.804596,263.380280 373.618073,267.930664 
	C372.591766,268.284821 371.326172,269.989349 371.411438,270.957062 
	C371.500092,271.963104 372.936798,273.333679 374.055450,273.688080 
	C381.966949,276.194427 383.161591,277.214020 383.401886,285.522308 
	C383.787109,298.841675 383.743835,312.173462 383.881653,326.500000 
M1120.721680,439.230713 
	C1119.450195,439.826233 1118.178833,440.421722 1116.907349,441.017212 
	C1122.664062,442.230103 1121.603882,446.472046 1121.632324,450.064575 
	C1121.683594,456.558136 1121.690308,463.052826 1121.631714,469.546265 
	C1121.592896,473.845032 1122.858398,478.715851 1117.211548,480.963898 
	C1124.369995,480.963898 1131.528442,480.963898 1137.436768,480.963898 
	C1136.478394,477.870789 1135.074341,475.289124 1134.975952,472.658600 
	C1134.671387,464.510834 1134.836792,456.344421 1134.874023,448.185486 
	C1134.893066,443.995331 1138.802002,441.035583 1144.135010,440.819733 
	C1148.920044,440.626038 1150.159790,443.518799 1150.205566,447.470032 
	C1150.280762,453.963074 1150.378662,460.460114 1150.230591,466.950073 
	C1150.118408,471.864777 1152.190552,477.543274 1144.631470,480.755585 
	C1153.008545,480.755585 1159.895996,480.755585 1166.783569,480.755585 
	C1162.096069,479.322266 1162.683105,475.674500 1162.651245,472.361694 
	C1162.576294,464.538300 1162.650024,456.710205 1162.390991,448.893036 
	C1162.232666,444.114014 1164.908813,441.257050 1170.553711,440.886841 
	C1175.717773,440.548157 1177.734253,442.350098 1177.866333,447.910828 
	C1178.016479,454.234772 1177.988892,460.566284 1177.883789,466.891907 
	C1177.803223,471.733795 1179.505981,477.107086 1173.340698,480.437592 
	C1181.175781,480.437592 1188.060303,480.437592 1194.944702,480.437592 
	C1190.290405,478.872498 1190.791748,475.253052 1190.791870,471.883881 
	C1190.792114,463.891296 1190.938110,455.894958 1190.741699,447.907074 
	C1190.502075,438.157837 1186.311768,433.931000 1176.626099,435.094208 
	C1171.292114,435.734772 1166.227051,438.614136 1160.720215,440.599762 
	C1158.724487,436.302582 1154.153320,433.619385 1148.340820,435.076233 
	C1143.408691,436.312469 1138.815552,438.901337 1134.276245,440.806091 
	C1133.863892,439.137665 1133.371826,437.146698 1132.812744,434.885040 
	C1128.612183,436.404816 1125.031494,437.700348 1120.721680,439.230713 
M1240.815674,439.662048 
	C1232.381836,432.182922 1223.590820,434.886597 1214.746948,438.774750 
	C1213.988647,437.559113 1213.237549,436.354950 1212.384155,434.987000 
	C1207.051514,436.970978 1201.928955,438.876740 1198.243652,440.247833 
	C1199.625244,444.018341 1201.440674,446.749664 1201.503418,449.520660 
	C1201.808472,463.010254 1201.670410,476.510498 1201.633057,490.006866 
	C1201.619995,494.719116 1203.080322,499.948151 1196.032837,502.969360 
	C1204.719604,502.969360 1211.868408,502.969360 1219.857544,502.969360 
	C1209.856201,496.788300 1216.014648,488.200562 1213.743774,480.931915 
	C1217.983643,481.682129 1221.216919,482.497528 1224.496460,482.786438 
	C1232.605103,483.500763 1239.716309,481.258270 1243.271973,473.432129 
	C1248.380371,462.188751 1248.458374,450.907684 1240.815674,439.662048 
M1303.532837,476.485565 
	C1302.195557,478.017426 1300.858398,479.549255 1299.424194,481.192383 
	C1306.474243,481.192383 1313.664307,481.192383 1320.854370,481.192383 
	C1315.717896,478.848907 1316.754883,474.470734 1316.734863,470.574402 
	C1316.696533,463.087555 1316.696655,455.600128 1316.742065,448.113312 
	C1316.769897,443.537201 1320.660034,440.434296 1326.224487,440.452942 
	C1330.984253,440.468872 1332.546631,443.302460 1332.536987,447.577545 
	C1332.520508,454.897766 1332.565552,462.218109 1332.542114,469.538269 
	C1332.528320,473.863129 1333.541992,478.609741 1328.233154,481.086426 
	C1335.216064,481.086426 1342.198975,481.086426 1349.181885,481.086426 
	C1344.982422,478.400757 1344.921509,474.696655 1345.004761,470.724274 
	C1345.158081,463.406982 1345.105225,456.083069 1345.011597,448.763519 
	C1344.870239,437.719116 1337.133789,432.196747 1326.524902,435.771515 
	C1323.014282,436.954498 1319.795288,439.002838 1316.420044,440.666748 
	C1316.027466,438.727661 1315.653076,436.879089 1315.165894,434.473267 
	C1309.366211,436.631683 1304.202271,438.553467 1299.038452,440.475250 
	C1303.958984,442.519989 1303.964111,446.258972 1303.896484,450.209595 
	C1303.751221,458.691528 1303.779297,467.176422 1303.532837,476.485565 
M416.188171,232.586380 
	C417.483093,229.766098 419.413055,227.060776 419.948517,224.102997 
	C421.311829,216.572311 418.783051,210.167526 412.271393,205.961227 
	C405.123016,201.343613 397.371796,201.277908 389.947357,205.122726 
	C378.268127,211.170944 376.969574,226.925964 387.216187,235.195938 
	C395.722595,242.061417 406.980743,241.245728 416.188171,232.586380 
M1060.813477,476.739166 
	C1060.813477,472.837067 1060.813477,468.934967 1060.813477,465.032867 
	C1060.244141,464.818451 1059.674683,464.604034 1059.105347,464.389648 
	C1058.096802,466.504272 1056.982056,468.575562 1056.098389,470.741180 
	C1052.708862,479.048004 1049.781128,480.910797 1040.961792,480.110870 
	C1032.968872,479.385895 1028.293945,474.538361 1026.139038,467.287537 
	C1022.839600,456.185089 1022.991882,444.944672 1026.273682,433.846497 
	C1028.560303,426.113800 1033.694336,421.543030 1041.927734,420.523560 
	C1049.862793,419.541138 1053.186768,424.527283 1055.980225,430.610016 
	C1056.752930,432.292755 1058.166748,433.681091 1059.286255,435.204529 
	C1059.690918,434.970581 1060.095459,434.736633 1060.500122,434.502716 
	C1060.500122,431.574280 1060.923218,428.559784 1060.351196,425.747711 
	C1059.970825,423.877502 1058.553101,421.431213 1056.945190,420.717743 
	C1037.786499,412.216614 1006.939331,420.320984 1009.262329,453.459686 
	C1010.087646,465.233185 1014.961853,475.098419 1026.518555,480.005432 
	C1038.207642,484.968750 1049.742920,484.601837 1060.813477,476.739166 
M1270.868042,481.720001 
	C1273.067749,480.040985 1275.267334,478.362000 1277.477905,476.674652 
	C1282.731323,484.670593 1291.434937,485.170654 1296.127808,477.495178 
	C1289.198975,478.112854 1289.874756,473.465485 1289.827759,469.042480 
	C1289.748291,461.569427 1289.632812,454.084167 1289.116333,446.632874 
	C1288.778564,441.761444 1285.859375,438.164185 1281.290039,436.555298 
	C1273.743896,433.898346 1266.037354,434.073425 1259.193359,438.325134 
	C1256.751221,439.842316 1254.953003,443.329620 1254.206543,446.260406 
	C1253.815674,447.794525 1255.909912,450.986267 1257.646484,451.802155 
	C1260.389160,453.090820 1263.262329,451.827637 1264.414795,448.577698 
	C1265.076294,446.712616 1265.000732,444.494781 1265.966553,442.853058 
	C1267.065308,440.985016 1269.001587,438.245911 1270.489380,438.297943 
	C1272.589844,438.371368 1275.937744,440.306183 1276.406860,442.069336 
	C1277.555054,446.384460 1277.358276,451.057495 1277.670532,455.161438 
	C1272.150513,456.528351 1267.563354,457.360840 1263.181396,458.812378 
	C1254.021973,461.846436 1250.076172,467.877289 1252.179565,474.983917 
	C1254.081055,481.408325 1261.323853,484.233704 1270.868042,481.720001 
M1103.520752,479.151001 
	C1110.908813,473.966522 1113.320923,466.585846 1113.117065,457.919586 
	C1112.807617,444.757782 1103.602905,435.365295 1090.504517,435.037537 
	C1076.871094,434.696381 1067.317017,443.306946 1066.321411,456.832794 
	C1065.266479,471.164307 1073.183716,481.825836 1086.566406,482.584991 
	C1091.948608,482.890259 1097.473999,480.671997 1103.520752,479.151001 
M1421.016724,448.664154 
	C1417.396729,437.906219 1408.464355,432.964966 1397.555420,435.685791 
	C1380.148438,440.027344 1373.182251,463.449432 1385.363892,476.677246 
	C1394.284424,486.363983 1413.151611,485.037109 1420.070801,474.192780 
	C1420.546387,473.447479 1420.542847,472.396576 1420.762329,471.487823 
	C1413.711548,476.729828 1406.633789,478.870483 1399.134888,474.244873 
	C1393.391113,470.701843 1392.926758,464.620453 1393.134644,457.904358 
	C1402.826416,457.904358 1412.058472,457.904358 1421.833130,457.904358 
	C1421.571045,454.692993 1421.357910,452.081879 1421.016724,448.664154 
M1462.913452,467.542664 
	C1462.691772,460.887787 1459.045898,456.812225 1453.073975,454.498260 
	C1449.054810,452.941040 1444.761963,451.845551 1441.119995,449.661987 
	C1439.281372,448.559631 1437.298218,445.151764 1437.756226,443.411774 
	C1438.324829,441.252563 1441.069580,438.900909 1443.377319,438.121155 
	C1448.496826,436.391388 1451.815674,439.273407 1454.059326,443.835999 
	C1454.910889,445.567444 1456.369507,447.000366 1458.339111,449.614929 
	C1460.097778,437.027252 1458.747070,435.408875 1447.832764,434.906097 
	C1446.503784,434.844879 1445.167358,434.844666 1443.838135,434.903107 
	C1435.118042,435.286438 1428.842407,440.082306 1427.817383,447.116791 
	C1426.648193,455.141449 1430.093384,459.902985 1439.400391,463.149323 
	C1442.377441,464.187714 1445.804321,464.658691 1448.176270,466.489349 
	C1450.209229,468.058289 1452.153320,471.251831 1452.040527,473.627350 
	C1451.945435,475.626587 1449.184204,478.362335 1446.991821,479.234528 
	C1440.769165,481.709961 1436.834229,479.731812 1433.015137,473.350708 
	C1431.812500,471.341339 1430.459839,469.421783 1429.175781,467.461151 
	C1426.869873,480.506531 1426.076538,480.130585 1438.104004,482.522186 
	C1441.891479,483.275299 1446.096191,482.743591 1449.975708,482.049713 
	C1457.840210,480.643097 1461.544312,476.443726 1462.913452,467.542664 
M1371.140747,439.718475 
	C1371.038696,438.178619 1370.936646,436.638763 1370.794922,434.502136 
	C1364.528198,436.672516 1359.011963,438.582977 1354.936646,439.994415 
	C1356.086670,443.925232 1357.596436,447.028656 1357.800659,450.215820 
	C1358.215454,456.688049 1357.976196,463.206116 1357.906616,469.704224 
	C1357.860596,473.989563 1359.254517,478.917603 1353.451660,481.080902 
	C1360.567627,481.080902 1367.683472,481.080902 1374.799316,481.080902 
	C1370.248657,478.021240 1370.975586,473.733459 1371.000610,469.666565 
	C1371.060059,460.002075 1371.087036,450.337402 1371.140747,439.718475 
M1359.919800,417.099182 
	C1356.244141,419.599152 1355.585815,423.077484 1357.838135,426.560699 
	C1360.086304,430.037598 1363.701050,430.655548 1367.505615,428.963806 
	C1371.076050,427.376251 1372.377441,424.509399 1371.209595,420.848175 
	C1369.865601,416.634613 1366.477295,415.683228 1362.492676,416.140961 
	C1361.860352,416.213593 1361.261719,416.580750 1359.919800,417.099182 
z"/>
<path fill="#B72128" opacity="1.000000" stroke="none" 
	d="
M219.999939,160.230453 
	C148.692688,160.230499 77.885429,160.230499 6.571824,160.230499 
	C6.471498,158.140823 6.314791,156.391861 6.314230,154.642822 
	C6.301284,114.309982 6.632905,73.973267 6.155877,33.646084 
	C5.945075,15.825107 18.460461,3.460291 36.268757,3.468592 
	C520.429443,3.694271 1004.590210,3.647596 1488.750977,3.649653 
	C1507.560059,3.649733 1518.360352,14.218269 1518.392334,32.903828 
	C1518.462036,73.736397 1518.420654,114.569160 1518.424561,155.401840 
	C1518.424683,156.729813 1518.424561,158.057785 1518.424561,160.230408 
	C1085.629395,160.230408 653.064636,160.230408 219.999939,160.230453 
M155.204544,113.594788 
	C157.912170,113.932938 159.022705,112.988884 158.964859,110.024315 
	C158.805695,101.867477 158.886597,93.702606 159.058182,85.544815 
	C159.106262,83.259430 159.403900,80.822533 160.275726,78.743980 
	C162.073105,74.458664 165.794678,73.246635 170.153976,73.799553 
	C174.581726,74.361130 174.988693,77.725998 175.078690,81.214432 
	C175.173157,84.876724 175.259125,88.540131 175.274780,92.203362 
	C175.305145,99.311501 175.283676,106.419853 175.283676,113.571312 
	C179.999466,113.571312 184.059570,113.571312 188.851166,113.571312 
	C188.851166,103.618935 188.706696,93.985710 188.948532,84.362198 
	C189.012268,81.825600 189.542465,78.576767 191.164307,76.988113 
	C193.153336,75.039772 196.484116,73.652130 199.288712,73.553474 
	C202.674179,73.434364 204.254959,76.442970 204.456116,79.787888 
	C204.625809,82.609467 204.792099,85.436012 204.807831,88.261208 
	C204.853973,96.540779 204.824249,104.820778 204.824249,113.281189 
	C209.443939,113.281189 213.519485,113.281189 217.794357,113.281189 
	C217.794357,101.160614 218.157944,89.345879 217.675034,77.565857 
	C217.312973,68.733772 211.461212,63.911095 202.611130,63.517570 
	C196.133270,63.229534 191.332947,66.441673 187.097092,70.769028 
	C178.763184,61.252609 171.024399,61.067833 158.139404,70.019836 
	C158.000473,68.273003 157.878769,66.742905 157.750366,65.128403 
	C153.734344,65.128403 150.012360,65.128403 146.091034,65.128403 
	C146.091034,81.350723 146.091034,97.248283 146.091034,113.600357 
	C149.024643,113.600357 151.658875,113.600357 155.204544,113.594788 
M794.035339,66.304695 
	C785.381470,61.458893 778.192200,62.739719 769.212952,70.850105 
	C765.892761,65.963875 761.191589,62.762619 755.359680,63.763435 
	C750.081543,64.669205 745.079224,67.181755 740.095398,68.936478 
	C740.061951,68.416985 739.958862,66.814217 739.845886,65.058594 
	C735.883118,65.058594 732.133789,65.058594 728.160645,65.058594 
	C728.160645,81.025055 728.160645,96.746185 728.160645,112.688736 
	C732.458923,112.688736 736.518738,112.688736 741.005554,112.688736 
	C741.005554,110.662575 740.994812,108.871292 741.007324,107.080185 
	C741.063171,99.090721 740.862244,91.087959 741.265747,83.115906 
	C741.615234,76.211494 745.291809,72.779846 751.107544,72.970390 
	C755.824890,73.124947 757.193054,74.992325 757.335571,82.806824 
	C757.517212,92.762581 757.379578,102.724152 757.379578,112.874969 
	C762.105896,112.874969 766.186218,112.874969 770.783752,112.874969 
	C770.783752,110.839783 770.769836,109.053772 770.786133,107.268044 
	C770.859009,99.278877 770.764954,91.282959 771.075562,83.302879 
	C771.314941,77.153084 775.075806,73.182617 780.001404,73.183899 
	C784.734802,73.185127 786.805603,76.174835 786.925659,83.273170 
	C786.979126,86.435326 786.956909,89.598869 786.958740,92.761780 
	C786.962646,99.542427 786.959961,106.323074 786.959961,113.311508 
	C791.524719,113.311508 795.601929,113.311508 799.867004,113.311508 
	C799.867004,100.886162 800.239807,88.740799 799.626099,76.645477 
	C799.455383,73.280678 796.363464,70.064102 794.035339,66.304695 
M113.994873,65.758568 
	C114.233376,64.113449 114.980255,62.347187 114.622116,60.844250 
	C113.097443,54.446007 109.193741,49.675594 103.054718,47.385445 
	C93.827789,43.943356 84.441093,43.940895 75.311867,47.940151 
	C68.773720,50.804329 65.344955,56.000023 64.891472,63.127392 
	C64.420601,70.528137 67.604729,76.163521 73.862572,79.743988 
	C77.273560,81.695610 81.203156,82.814743 84.992912,84.011505 
	C89.583344,85.461113 94.368416,86.328712 98.893532,87.941292 
	C103.549248,89.600418 105.070190,94.726112 101.827354,98.419777 
	C99.996658,100.504967 97.121208,102.314278 94.427330,102.886047 
	C84.323837,105.030472 80.007729,102.244118 74.501320,90.730125 
	C70.405655,91.152046 66.175621,91.587807 61.966358,92.021423 
	C62.788910,103.456398 69.212952,111.470070 79.127258,113.931229 
	C93.078888,117.394608 107.549728,113.721619 112.960663,105.334366 
	C113.320297,104.776917 113.630463,104.184135 113.925278,103.588791 
	C119.468872,92.393990 115.542114,80.610565 103.938416,75.770660 
	C96.923210,72.844612 89.267891,71.478630 82.149483,68.759148 
	C80.009010,67.941414 77.332321,64.878662 77.404076,62.936859 
	C77.477013,60.963211 80.294312,58.183945 82.507561,57.356724 
	C91.130127,54.133949 96.972008,56.970425 101.606888,65.848351 
	C105.435440,65.848351 109.264000,65.848351 113.994873,65.758568 
M662.650757,100.057297 
	C663.456848,97.914711 664.262878,95.772133 665.197144,93.288963 
	C660.654663,91.751625 656.487305,90.341217 652.241211,88.904175 
	C651.814087,89.890968 651.509766,90.471313 651.305115,91.084900 
	C648.364319,99.902618 644.188721,103.267967 636.414978,103.064499 
	C629.009827,102.870674 623.056824,98.330170 621.788574,89.921196 
	C620.742676,82.986496 620.931458,75.682678 621.799561,68.694809 
	C622.630249,62.009018 627.356262,57.948505 634.151794,56.672329 
	C642.008240,55.196918 646.958374,58.198338 652.104004,67.768913 
	C656.306152,66.760765 660.580444,65.735298 664.928528,64.692146 
	C663.195007,58.261410 660.213074,53.254276 655.001404,49.676697 
	C638.320618,38.226017 613.985046,46.565342 608.015381,65.861710 
	C605.449707,74.154945 605.327332,82.604469 607.108154,91.054062 
	C609.708191,103.391075 619.606262,112.787788 631.875366,114.763245 
	C645.201843,116.908943 655.932495,111.943138 662.650757,100.057297 
M263.116211,112.887589 
	C274.864075,104.987549 278.666901,85.753784 270.958862,73.221382 
	C266.553558,66.058876 258.523438,62.189449 250.417313,64.299103 
	C246.467422,65.327080 242.953018,68.028397 239.194260,69.996986 
	C239.110229,68.610413 239.005600,66.883621 238.897293,65.096252 
	C234.802795,65.096252 231.062485,65.096252 227.116638,65.096252 
	C227.116638,87.741890 227.116638,110.091377 227.116638,132.299469 
	C231.499710,132.299469 235.443939,132.299469 239.878342,132.299469 
	C239.878342,124.465973 239.878342,116.927513 239.878342,109.083412 
	C250.653793,115.974716 253.747192,116.506310 263.116211,112.887589 
M828.528687,113.251587 
	C840.770874,117.645195 852.140137,112.669388 855.097900,100.225883 
	C856.726196,93.375458 856.684021,85.603195 855.275330,78.677689 
	C853.118652,68.074532 843.196716,62.040874 833.014343,64.249847 
	C828.904602,65.141411 825.207703,67.935684 821.366516,69.842438 
	C821.254333,68.465149 821.122803,66.850533 820.984924,65.157516 
	C816.920227,65.157516 813.031433,65.157516 809.205444,65.157516 
	C809.205444,87.736885 809.205444,109.966614 809.205444,132.232758 
	C813.605408,132.232758 817.664978,132.232758 822.173462,132.232758 
	C822.173462,124.320305 822.173462,116.775421 822.173462,108.726845 
	C824.419495,110.389877 826.124023,111.651917 828.528687,113.251587 
M486.680634,46.006012 
	C486.065918,47.433834 484.925568,48.858181 484.916107,50.290005 
	C484.795105,68.599892 484.835968,86.910851 484.835754,105.221535 
	C484.835724,107.839554 484.835785,110.457573 484.835785,113.275406 
	C489.428802,113.275406 493.502533,113.275406 497.938965,113.275406 
	C497.938965,109.659706 497.900391,106.355621 497.947021,103.052727 
	C498.040955,96.400200 497.774170,89.708763 498.415558,83.107162 
	C499.072693,76.343193 503.338318,72.869560 509.254822,73.151901 
	C514.167236,73.386330 516.210510,76.052582 516.381836,83.644135 
	C516.602478,93.418861 516.435486,103.202339 516.435486,113.162285 
	C521.143860,113.162285 525.145264,113.162285 529.175415,113.162285 
	C529.175415,101.763191 529.176697,90.794800 529.174988,79.826401 
	C529.173950,73.610870 527.477112,68.081741 521.407898,65.363525 
	C514.968933,62.479733 508.458832,62.735844 502.411499,66.827049 
	C501.026093,67.764305 499.698364,68.786797 497.763031,70.191917 
	C497.763031,61.695202 497.763031,54.082741 497.763031,45.984299 
	C494.209961,45.984299 490.925476,45.984299 486.680634,46.006012 
M357.100433,124.530930 
	C357.501617,127.284828 357.902771,130.038727 358.320221,132.904510 
	C360.804016,133.110321 362.945068,133.361038 365.092987,133.453110 
	C374.639191,133.862259 379.154785,131.087708 382.953217,122.276077 
	C384.661102,118.314186 386.133972,114.247131 387.612915,110.191116 
	C393.063599,95.242615 398.472229,80.278770 404.082886,64.807213 
	C401.719604,64.807213 399.853546,65.087753 398.103577,64.756012 
	C392.235901,63.643661 389.657562,66.238289 388.134888,71.798325 
	C385.728790,80.584000 382.499237,89.144157 379.618195,97.799759 
	C375.253571,88.021599 372.034363,78.282448 368.534882,68.645073 
	C367.984894,67.130463 366.296509,65.192780 364.904938,64.984512 
	C361.398468,64.459740 357.760956,64.810768 353.533569,64.810768 
	C359.586212,80.427361 365.349457,95.264824 371.085876,110.112625 
	C373.732117,116.961884 369.293915,123.374046 361.982635,123.372879 
	C360.378632,123.372620 358.774597,123.550507 357.100433,124.530930 
M719.989441,82.695679 
	C716.559937,70.658379 708.453247,64.085289 696.375916,63.549259 
	C682.761169,62.944992 672.664368,71.059280 670.317871,84.490768 
	C667.989075,97.820755 674.922058,109.734489 687.228271,113.549858 
	C706.914917,119.653419 723.604065,104.410088 719.989441,82.695679 
M919.451660,93.127792 
	C922.210510,93.127792 924.969360,93.127792 928.242859,93.127792 
	C927.810181,89.064468 927.628540,85.758873 927.081970,82.514755 
	C925.160889,71.113388 917.209351,64.207237 905.844849,63.905514 
	C894.214966,63.596748 885.273926,70.154068 883.254578,81.491386 
	C882.313416,86.775681 882.325256,92.494095 883.233398,97.787903 
	C885.073730,108.516373 893.305359,114.731560 904.587830,115.004692 
	C916.414429,115.291008 923.946594,110.365189 926.756409,100.303543 
	C922.702209,99.626640 918.677002,98.954575 914.779724,98.303879 
	C911.463867,104.640877 908.079712,106.408783 902.689392,104.883400 
	C898.317932,103.646332 895.691833,99.155807 896.069885,93.128479 
	C903.513245,93.128479 910.987610,93.128479 919.451660,93.127792 
M579.268677,93.119576 
	C583.196838,89.833916 580.688782,85.867592 580.095520,82.350151 
	C578.209534,71.167793 570.539429,64.417625 559.812073,63.939991 
	C547.814270,63.405792 539.279419,69.179787 536.652588,80.676376 
	C535.498047,85.729004 535.491333,91.263031 536.086853,96.449501 
	C537.229248,106.399895 543.992493,112.920372 553.839355,114.710648 
	C566.536987,117.019241 577.406006,111.040512 579.737122,100.281540 
	C575.825928,99.617104 571.924438,98.954300 568.120605,98.308098 
	C563.995972,104.822380 560.237549,106.611908 555.117126,104.650848 
	C550.954895,103.056740 548.617920,98.470268 549.445068,93.146530 
	C559.035522,93.146530 568.672913,93.146530 579.268677,93.119576 
M460.048370,94.499535 
	C460.048370,82.384315 460.048370,70.269104 460.048370,57.611588 
	C466.895081,57.611588 473.298370,57.611588 479.770386,57.611588 
	C479.770386,53.485680 479.770386,49.910240 479.770386,46.391747 
	C461.809418,46.391747 444.124268,46.391747 426.478760,46.391747 
	C426.478760,50.234081 426.478760,53.665924 426.478760,57.719044 
	C433.110657,57.719044 439.486725,57.719044 446.362488,57.719044 
	C446.362488,76.735893 446.362488,95.125893 446.362488,113.632660 
	C451.129303,113.632660 455.371582,113.632660 460.048370,113.632660 
	C460.048370,107.409775 460.048370,101.454521 460.048370,94.499535 
M944.137756,113.187836 
	C947.253479,108.519081 950.369202,103.850334 953.838501,98.651680 
	C957.084167,103.595352 959.141846,109.616051 963.332886,112.277679 
	C967.290649,114.791229 973.491516,113.772743 978.705750,114.307877 
	C978.833801,113.844933 978.961853,113.381989 979.089905,112.919052 
	C973.301453,104.680771 967.513000,96.442490 961.718079,88.195038 
	C967.277100,80.387856 972.598511,72.914368 978.371521,64.806587 
	C974.294983,64.806587 971.277527,65.049713 968.316223,64.745384 
	C964.569763,64.360367 962.060425,65.521957 960.160095,68.890137 
	C958.411072,71.990128 956.058411,74.749504 953.218567,78.708992 
	C949.508240,66.123070 941.912598,62.014336 930.152710,65.674377 
	C935.480103,73.235672 940.817017,80.810577 946.232727,88.497261 
	C940.541992,96.803101 934.936340,104.984764 928.941101,113.735039 
	C934.340271,113.735039 938.931152,113.735039 944.137756,113.187836 
M351.039398,64.524857 
	C348.424713,64.524857 345.810028,64.524857 343.313171,64.524857 
	C341.921295,55.882015 342.041809,55.776825 353.992889,54.605610 
	C354.490540,51.946102 354.998383,49.232090 355.544067,46.315792 
	C348.506348,44.758480 341.950897,43.448463 335.620514,46.806007 
	C328.286194,50.696003 330.393372,58.247253 329.583405,64.547928 
	C327.031494,64.754364 324.943329,64.923286 322.818848,65.095139 
	C322.818848,68.543839 322.818848,71.639244 322.818848,74.835632 
	C325.192993,74.997742 327.292816,75.141121 329.963684,75.323486 
	C329.963684,88.151543 329.963684,100.700089 329.963684,113.221497 
	C334.468689,113.221497 338.365601,113.221497 342.820251,113.221497 
	C342.820251,100.262901 342.820251,87.699478 342.820251,74.734497 
	C346.149200,74.734497 348.914246,74.734497 351.821930,74.734497 
	C351.821930,71.212463 351.821930,68.108803 351.039398,64.524857 
M1430.031616,71.561058 
	C1430.031616,68.488899 1430.031616,65.416740 1430.031616,60.885147 
	C1432.920288,65.384407 1435.012451,68.678474 1437.140503,71.949188 
	C1440.034302,76.396652 1441.889160,76.445244 1444.777466,72.139099 
	C1447.039185,68.767014 1449.255249,65.364288 1452.330566,60.703873 
	C1452.330566,69.837387 1452.330566,77.363495 1452.330566,85.117493 
	C1455.092285,85.117493 1457.501221,85.117493 1460.057861,85.117493 
	C1460.057861,72.101212 1460.057861,59.359272 1460.057861,46.717728 
	C1455.251709,45.160976 1452.343140,46.627365 1450.137085,50.935280 
	C1447.668335,55.756477 1444.492065,60.215424 1441.347046,65.277405 
	C1438.295776,60.337711 1435.115601,56.011433 1432.826172,51.256268 
	C1430.438232,46.296841 1427.047607,44.920696 1421.968994,46.381733 
	C1421.968994,59.251701 1421.968994,72.155525 1421.968994,85.143784 
	C1424.736938,85.143784 1427.180176,85.143784 1430.036987,85.143784 
	C1430.036987,80.793533 1430.036987,76.664520 1430.031616,71.561058 
M863.405823,69.499908 
	C863.405823,84.217339 863.405823,98.934769 863.405823,113.558640 
	C868.260742,113.558640 872.324646,113.558640 876.375000,113.558640 
	C876.375000,90.858978 876.375000,68.533859 876.375000,46.304661 
	C871.914612,46.304661 867.844604,46.304661 863.406006,46.304661 
	C863.406006,53.923653 863.406006,61.211792 863.405823,69.499908 
M285.626190,45.989929 
	C284.210632,46.097229 282.795074,46.204529 281.461731,46.305595 
	C281.461731,68.976997 281.461731,91.183052 281.461731,113.645340 
	C285.788971,113.645340 289.855469,113.645340 294.189392,113.645340 
	C294.189392,91.090027 294.189392,68.723976 294.189392,45.991432 
	C291.502625,45.991432 289.035553,45.991432 285.626190,45.989929 
M124.320679,85.500275 
	C124.320679,94.904037 124.320679,104.307800 124.320679,113.696442 
	C129.166519,113.696442 133.116852,113.696442 137.374542,113.696442 
	C137.374542,97.398926 137.374542,81.332031 137.374542,65.152145 
	C132.985291,65.152145 128.774185,65.152145 124.320839,65.152145 
	C124.320839,71.853233 124.320839,78.176926 124.320679,85.500275 
M316.966583,108.348907 
	C316.966583,93.951736 316.966583,79.554558 316.966583,65.136993 
	C312.324493,65.136993 308.269043,65.136993 304.197571,65.136993 
	C304.197571,81.464622 304.197571,97.481781 304.197571,113.558533 
	C308.565796,113.558533 312.612396,113.558533 316.966553,113.558533 
	C316.966553,111.920128 316.966553,110.614883 316.966583,108.348907 
M1411.145020,45.990395 
	C1401.864868,45.990395 1392.584717,45.990395 1383.260986,45.990395 
	C1383.260986,48.869019 1383.260986,51.244312 1383.260986,54.025902 
	C1387.038330,54.025902 1390.465454,54.025902 1394.502563,54.025902 
	C1394.502563,64.634018 1394.502563,74.839569 1394.502563,84.958099 
	C1397.688965,84.958099 1400.231323,84.958099 1403.129150,84.958099 
	C1403.129150,74.454254 1403.129150,64.357544 1403.129150,53.724716 
	C1407.036377,53.724716 1410.597046,53.724716 1414.836792,53.724716 
	C1413.191772,50.850094 1417.098877,47.142349 1411.145020,45.990395 
M137.685883,52.453533 
	C137.685883,50.372986 137.685883,48.292439 137.685883,46.272228 
	C132.862808,46.272228 128.793945,46.272228 124.602615,46.272228 
	C124.602615,50.299351 124.602615,54.017696 124.602615,57.950783 
	C128.966492,57.950783 133.048584,57.950783 137.448212,57.950783 
	C137.534393,56.289639 137.610031,54.831802 137.685883,52.453533 
M303.885773,55.383839 
	C304.688202,56.291737 305.427460,57.904400 306.304199,57.982952 
	C309.715851,58.288643 313.171173,58.107533 316.707825,58.107533 
	C316.707825,53.828979 316.707825,50.098289 316.707825,46.269024 
	C312.371399,46.269024 308.302795,46.269024 303.883575,46.269024 
	C303.883575,49.161541 303.883575,51.788647 303.885773,55.383839 
z"/>
<path fill="#FDFBFB" opacity="1.000000" stroke="none" 
	d="
M522.622192,376.821960 
	C523.684631,375.130310 524.528870,373.160492 525.917419,372.638306 
	C533.109070,369.933899 534.322083,368.648041 534.340576,361.063416 
	C534.399536,336.903625 534.363953,312.743561 534.361877,288.583618 
	C534.361816,288.084198 534.296326,287.584137 534.308289,287.085480 
	C534.709595,270.362854 523.986267,266.802673 511.293182,270.242981 
	C505.527924,271.805573 500.290741,275.511871 495.039459,278.625946 
	C493.856293,279.327606 493.031769,281.612701 493.024780,283.173309 
	C492.907288,309.332153 492.965088,335.491699 492.934113,361.651031 
	C492.927734,367.038910 495.232819,370.707886 500.599304,371.752960 
	C504.039978,372.422974 505.135742,374.032166 503.973969,377.869385 
	C485.094971,377.869385 466.028412,377.869385 446.652588,377.869385 
	C445.609253,375.149200 446.102448,373.470764 449.652557,372.468781 
	C457.007294,370.392883 458.818756,368.207764 458.820953,360.865082 
	C458.828644,335.209259 458.699280,309.552185 458.395264,283.898254 
	C458.307434,276.487579 457.044678,275.498016 450.237000,273.365692 
	C448.719727,272.890411 447.557892,271.280151 446.232422,270.192474 
	C447.515839,268.965637 448.587738,267.177704 450.116394,266.601532 
	C461.313629,262.381165 472.595581,258.384674 483.865753,254.359421 
	C488.079559,252.854416 490.113434,254.050598 490.721161,258.517151 
	C491.319611,262.915619 491.688965,267.345245 492.184814,272.005432 
	C498.571014,267.804413 504.446045,263.543457 510.692169,259.922699 
	C520.305420,254.350082 530.624023,251.993683 541.867249,253.722687 
	C551.185120,255.155579 557.813965,259.904236 562.233765,268.041199 
	C563.084839,269.608002 563.878845,271.205719 564.533325,272.468933 
	C571.145569,268.086761 577.340942,263.313568 584.129883,259.636108 
	C594.625061,253.951111 605.947937,251.877472 617.940491,253.891586 
	C631.723328,256.206360 639.968689,264.213806 641.978088,278.098022 
	C642.619446,282.529480 642.880676,287.050232 642.898376,291.531799 
	C642.987915,314.191833 642.927185,336.852356 642.946838,359.512726 
	C642.953674,367.358246 644.412048,369.687500 651.861328,371.735443 
	C655.218384,372.658325 655.076355,374.396149 654.509094,377.218445 
	C635.802124,377.218445 617.079041,377.218445 598.143433,377.218445 
	C598.143433,375.718872 598.143433,374.271057 598.143433,372.878723 
	C608.951721,368.844177 609.382019,368.243164 609.358704,356.474609 
	C609.311218,332.482819 609.397522,308.489044 609.099609,284.500214 
	C608.963928,273.572083 605.120422,270.139008 594.124756,269.540100 
	C583.948792,268.985870 575.895691,273.901428 568.215515,279.648895 
	C567.409851,280.251831 567.048523,281.915436 567.063538,283.079407 
	C567.363953,306.385010 567.755066,329.689453 568.113464,352.994324 
	C568.164673,356.325958 568.021545,359.664429 568.180237,362.989624 
	C568.409058,367.782806 570.424927,371.348297 575.539368,372.296448 
	C579.060547,372.949219 580.407593,374.680664 578.710938,378.583527 
	C565.699829,378.583527 552.576172,378.583008 539.452515,378.583832 
	C535.120361,378.584106 530.784363,378.690857 526.458496,378.526611 
	C525.175964,378.477966 523.922180,377.671082 522.622192,376.821960 
z"/>
<path fill="#FEFDFD" opacity="1.000000" stroke="none" 
	d="
M672.926208,398.000000 
	C672.921692,363.515045 672.932495,329.530090 672.891479,295.545197 
	C672.886902,291.718597 672.746216,287.877869 672.394226,284.069061 
	C671.748291,277.080109 670.111389,275.383057 663.115662,273.767517 
	C662.165710,273.548126 661.242310,273.213715 660.437744,272.971954 
	C659.081421,269.418518 660.821228,268.097321 663.759216,267.069672 
	C674.897949,263.173615 685.970276,259.088409 697.076599,255.099289 
	C701.725525,253.429520 703.111267,254.207214 704.460510,259.154938 
	C704.979736,261.059204 705.451904,262.976318 706.061646,265.337158 
	C708.648621,263.942841 710.913452,262.692657 713.204468,261.492310 
	C725.195312,255.209793 738.049805,252.667816 751.386719,254.213257 
	C770.305969,256.405548 782.008240,268.033539 787.965576,285.382111 
	C794.626465,304.779449 794.863892,324.718811 789.352234,344.390808 
	C781.931763,370.875580 759.730957,385.027679 731.620117,381.511169 
	C723.127075,380.448730 714.796082,378.091125 705.781128,376.198792 
	C705.781128,377.275330 705.781128,379.148224 705.781128,381.021149 
	C705.781067,392.016266 705.776428,403.011383 705.781982,414.006500 
	C705.788086,426.133789 707.045227,427.823029 718.820068,431.326294 
	C718.820068,432.691895 718.820068,434.131836 718.820068,436.122253 
	C699.689392,436.122253 680.584656,436.122253 661.253723,436.122253 
	C660.116089,433.540619 660.650024,431.955383 663.894409,430.880707 
	C671.440491,428.381226 672.846130,426.157898 672.912903,417.990997 
	C672.966064,411.494385 672.925293,404.997040 672.926208,398.000000 
M757.077026,324.445923 
	C757.091492,321.617432 757.130554,318.788788 757.116089,315.960449 
	C757.057129,304.448212 756.462402,292.991852 752.176514,282.117828 
	C747.374207,269.933380 737.224426,264.003662 724.470520,266.198517 
	C720.102905,266.950134 715.916809,268.744995 711.639465,270.035797 
	C708.138916,271.092163 707.031616,273.263092 707.056824,277.021545 
	C707.237305,303.976227 707.152588,330.932648 707.153748,357.888519 
	C707.154236,368.413727 707.156189,368.413727 717.324097,370.645508 
	C737.460693,375.065338 749.467468,367.781281 754.146301,347.614868 
	C755.824341,340.382446 756.128052,332.831238 757.077026,324.445923 
z"/>
<path fill="#FDFCFC" opacity="1.000000" stroke="none" 
	d="
M291.031189,270.029602 
	C299.597198,274.117737 307.934021,277.859589 316.054565,282.023346 
	C322.997742,285.583374 329.923981,289.272491 336.452820,293.525970 
	C353.894348,304.888916 359.972595,321.547333 356.794525,341.514587 
	C353.805237,360.295685 341.821716,372.032959 324.342560,377.950165 
	C304.174591,384.777679 283.638580,383.724426 263.295837,378.457855 
	C256.902985,376.802765 250.749252,374.132324 244.633194,371.574768 
	C243.362534,371.043427 241.926819,368.939240 241.952805,367.586517 
	C242.157074,356.948700 242.698334,346.317322 243.140594,335.567200 
	C247.934952,334.115540 250.818527,334.935028 252.792786,340.051849 
	C255.534561,347.157867 259.203308,353.922333 262.706604,360.713623 
	C265.748657,366.610840 270.736023,370.410248 276.964600,372.541046 
	C287.608795,376.182465 298.311981,376.209076 308.714722,371.938171 
	C327.717896,364.136353 332.347107,337.973907 316.401276,324.994385 
	C308.682098,318.711151 298.848145,315.065430 290.118713,309.973511 
	C279.953308,304.043976 269.498749,298.465820 259.966003,291.625397 
	C238.623001,276.310272 235.586609,233.265854 266.487457,216.059723 
	C279.634857,208.739029 293.755341,206.761917 308.429016,207.324448 
	C322.109161,207.848907 335.018097,211.261322 346.951691,218.171677 
	C349.408417,219.594315 350.401245,221.179459 350.171051,224.111023 
	C349.469391,233.046814 349.082367,242.007294 348.570526,250.999084 
	C343.858551,252.632965 340.957489,251.805115 338.901947,247.067169 
	C336.060516,240.517822 332.491791,234.281403 329.181091,227.938873 
	C325.055878,220.035904 318.732361,215.981171 309.590851,215.639969 
	C302.114380,215.360901 294.955566,215.751007 288.245026,219.293015 
	C273.320404,227.170685 269.076965,247.307098 279.889252,260.358398 
	C282.914032,264.009521 287.070740,266.722839 291.031189,270.029602 
z"/>
<path fill="#FEFCFC" opacity="1.000000" stroke="none" 
	d="
M1369.841797,241.212128 
	C1366.915771,235.761841 1364.685669,230.233658 1361.169556,225.703690 
	C1358.937988,222.828613 1354.954102,220.069550 1351.474243,219.661545 
	C1343.797852,218.761475 1335.942993,219.381851 1327.623779,219.381851 
	C1327.623779,221.536865 1327.623901,223.489410 1327.623901,225.441956 
	C1327.623779,268.427063 1327.629272,311.412170 1327.619263,354.397278 
	C1327.616455,366.732330 1329.826782,369.430939 1341.986206,371.767578 
	C1344.078613,372.169647 1346.171631,372.567871 1348.272461,372.969452 
	C1348.272461,374.785034 1348.272461,376.218292 1348.272461,377.890198 
	C1322.275757,377.890198 1296.535889,377.890198 1270.552979,377.890198 
	C1270.552979,376.247040 1270.552979,374.838013 1270.552979,373.261444 
	C1274.475586,372.447693 1278.259888,371.868896 1281.923950,370.855621 
	C1287.876709,369.209473 1290.936035,365.422668 1290.937500,359.225281 
	C1290.947998,313.241943 1290.851196,267.258606 1290.774292,221.275284 
	C1290.773438,220.797440 1290.588135,220.319885 1290.264282,218.760437 
	C1281.867676,219.155411 1273.251953,219.015610 1264.836426,220.244919 
	C1261.789062,220.690063 1258.328125,223.876572 1256.608521,226.743469 
	C1252.262695,233.988388 1248.741821,241.734192 1244.999268,249.332901 
	C1242.276245,254.861618 1242.353638,254.899765 1236.213867,254.078247 
	C1236.213867,240.157684 1236.213867,226.281357 1236.213867,212.188599 
	C1284.979004,212.188599 1332.903931,212.188599 1381.667725,212.188599 
	C1381.667725,226.102036 1381.667725,239.878845 1381.667725,254.107574 
	C1378.348755,255.277679 1375.447388,254.782410 1373.919189,250.176086 
	C1372.930664,247.196762 1371.323242,244.422821 1369.841797,241.212128 
z"/>
<path fill="#FDFCFB" opacity="1.000000" stroke="none" 
	d="
M1120.322388,233.692322 
	C1110.890747,215.437836 1094.441162,210.290237 1073.111938,218.546341 
	C1058.850220,224.066727 1049.786743,234.814178 1045.381836,248.797821 
	C1035.631104,279.752563 1035.088135,311.267761 1045.325928,342.077606 
	C1054.686279,370.246704 1082.660278,382.554596 1109.170532,372.137177 
	C1115.599731,369.610779 1119.378052,364.970581 1121.938843,358.946289 
	C1124.800415,352.214111 1127.884277,345.559570 1130.366455,338.688812 
	C1131.994873,334.181549 1134.497437,332.781067 1138.624268,334.228394 
	C1138.624268,345.498291 1138.776367,356.616058 1138.444458,367.719330 
	C1138.399780,369.216797 1136.192749,371.189911 1134.527222,372.016388 
	C1114.502686,381.954224 1093.262207,384.361816 1071.339600,381.409302 
	C1055.732788,379.307373 1041.343384,373.881927 1029.079712,363.748871 
	C1010.656921,348.526825 1002.019104,328.311401 1000.180786,304.970367 
	C998.914673,288.894745 999.967407,272.956055 1006.499878,257.920197 
	C1019.966431,226.923691 1044.644775,211.511581 1077.417358,208.101868 
	C1096.855591,206.079453 1115.551636,209.200607 1133.133545,218.174545 
	C1135.865967,219.569260 1136.970093,221.182968 1136.907715,224.286606 
	C1136.717529,233.735779 1136.838745,243.191208 1136.838745,252.750397 
	C1132.791260,254.190109 1130.036255,252.924530 1128.123291,248.605530 
	C1125.906128,243.599335 1123.070068,238.867218 1120.322388,233.692322 
z"/>
<path fill="#FDFCFC" opacity="1.000000" stroke="none" 
	d="
M876.963440,353.970245 
	C862.773743,327.258972 865.599060,293.752167 884.432434,273.832275 
	C901.346863,255.942108 922.549377,249.820297 946.420654,255.525589 
	C969.489197,261.039032 984.186279,284.032440 981.490540,308.642456 
	C981.239807,310.930969 980.833740,313.202454 980.433350,315.935608 
	C955.111755,315.935608 930.044373,315.935608 905.015442,315.935608 
	C903.703552,336.162750 910.106323,353.810974 923.126221,360.402649 
	C939.294128,368.588074 958.642395,364.659241 976.521667,348.869873 
	C977.689148,349.907104 978.883179,350.967896 980.363281,352.282806 
	C969.777527,370.952881 953.692383,380.424377 932.793091,381.424896 
	C909.471680,382.541443 889.847900,375.302826 876.963440,353.970245 
M923.630798,261.830444 
	C917.245361,263.261597 913.123474,267.416626 910.609131,273.171143 
	C905.664062,284.488678 904.765320,296.484680 904.705383,308.709930 
	C919.815979,308.709930 934.517151,308.709930 949.215759,308.709930 
	C949.215759,298.259186 950.318726,288.021149 948.948120,278.125763 
	C947.059021,264.486389 938.160950,259.214813 923.630798,261.830444 
z"/>
<path fill="#FEFCFC" opacity="1.000000" stroke="none" 
	d="
M1170.287476,294.999878 
	C1170.284180,273.848999 1170.314941,253.198044 1170.262939,232.547287 
	C1170.238403,222.805161 1169.068726,221.448166 1160.158813,217.722717 
	C1158.526123,217.040054 1157.597290,214.673645 1156.343628,213.084442 
	C1156.728027,212.691727 1157.112427,212.299026 1157.496704,211.906326 
	C1178.242188,211.906326 1198.987549,211.906326 1219.795898,211.906326 
	C1220.879883,215.158203 1220.514526,217.074097 1216.700073,218.198273 
	C1209.345459,220.365768 1207.016235,223.778625 1207.008911,231.342346 
	C1206.968018,273.643280 1206.965820,315.944275 1206.995605,358.245239 
	C1207.000977,365.907776 1209.188599,369.247192 1216.484131,371.583221 
	C1220.019531,372.715332 1221.069824,374.333099 1219.837158,377.898773 
	C1199.138672,377.898773 1178.386719,377.898773 1157.683472,377.898773 
	C1156.274780,374.492798 1157.557739,373.035767 1160.702026,372.000153 
	C1168.639038,369.386047 1170.196045,367.272430 1170.235474,358.951080 
	C1170.335938,337.801086 1170.280396,316.650360 1170.287476,294.999878 
z"/>
<path fill="#FEFCFC" opacity="1.000000" stroke="none" 
	d="
M1410.287598,264.999878 
	C1410.282593,253.508301 1410.353027,242.515991 1410.248657,231.525360 
	C1410.167114,222.943497 1408.681763,220.733551 1400.536255,218.063110 
	C1397.126343,216.945206 1396.526611,215.161987 1397.606934,211.900391 
	C1418.261841,211.900391 1439.007080,211.900391 1459.800293,211.900391 
	C1460.888672,215.186005 1460.480957,217.086655 1456.678223,218.204971 
	C1449.337646,220.363739 1447.015747,223.782639 1447.008545,231.365265 
	C1446.968384,273.666168 1446.965820,315.967163 1446.996338,358.268127 
	C1447.001831,365.918182 1449.192505,369.250183 1456.505615,371.590851 
	C1460.055298,372.726990 1461.060059,374.362000 1459.831177,377.899658 
	C1439.118652,377.899658 1418.367065,377.899658 1397.652100,377.899658 
	C1396.531494,374.889648 1397.135498,373.212738 1400.242065,372.127258 
	C1409.057007,369.046967 1410.244629,367.325836 1410.260986,357.929169 
	C1410.314575,327.119507 1410.285034,296.309662 1410.287598,264.999878 
z"/>
<path fill="#FDFBFB" opacity="1.000000" stroke="none" 
	d="
M848.119629,300.000000 
	C848.119629,319.321655 848.180481,338.143585 848.090332,356.964783 
	C848.053345,364.684784 849.269348,371.297882 858.364807,373.368286 
	C859.438416,373.612671 859.998047,376.114502 861.213257,378.331238 
	C840.769958,378.331238 821.695190,378.331238 802.637390,378.331238 
	C801.722595,375.539856 801.958374,373.929901 805.128296,372.956604 
	C812.016296,370.841583 814.233459,367.598969 814.320068,359.979858 
	C814.450745,348.488434 814.358643,336.994537 814.361084,325.501678 
	C814.367676,294.520966 814.376343,263.540253 814.379517,232.559540 
	C814.380554,222.155060 813.871155,221.613876 804.236572,217.728012 
	C802.920105,217.197021 802.343384,214.831650 801.116821,212.808563 
	C816.228210,209.135361 830.076904,205.703552 843.963623,202.433701 
	C848.106750,201.458130 849.091614,203.951935 849.034607,207.574066 
	C848.683167,229.887146 848.386108,252.201202 848.134888,274.515686 
	C848.041138,282.842773 848.119629,291.171844 848.119629,300.000000 
z"/>
<path fill="#FEFCFC" opacity="1.000000" stroke="none" 
	d="
M383.881653,326.000000 
	C383.743835,312.173462 383.787109,298.841675 383.401886,285.522308 
	C383.161591,277.214020 381.966949,276.194427 374.055450,273.688080 
	C372.936798,273.333679 371.500092,271.963104 371.411438,270.957062 
	C371.326172,269.989349 372.591766,268.284821 373.618073,267.930664 
	C386.804596,263.380280 400.029419,258.935883 413.303131,254.645996 
	C417.610962,253.253769 418.450592,256.267334 418.420654,259.591644 
	C418.350098,267.422180 418.056671,275.251312 418.033173,283.081543 
	C417.957245,308.409393 418.065399,333.738312 417.870209,359.065002 
	C417.815521,366.159821 419.795929,371.365082 427.039886,373.841980 
	C428.217041,374.244476 428.757904,376.507751 429.946350,378.505066 
	C409.753937,378.505066 390.820862,378.505066 371.885803,378.505066 
	C370.693207,375.594757 371.003967,373.997833 374.094299,373.009125 
	C381.792877,370.546021 383.786255,367.709259 383.853943,359.493011 
	C383.944580,348.496002 383.879730,337.497742 383.881653,326.000000 
z"/>
<path fill="#FBF7F7" opacity="1.000000" stroke="none" 
	d="
M1121.086182,439.113281 
	C1125.031494,437.700348 1128.612183,436.404816 1132.812744,434.885040 
	C1133.371826,437.146698 1133.863892,439.137665 1134.276245,440.806091 
	C1138.815552,438.901337 1143.408691,436.312469 1148.340820,435.076233 
	C1154.153320,433.619385 1158.724487,436.302582 1160.720215,440.599762 
	C1166.227051,438.614136 1171.292114,435.734772 1176.626099,435.094208 
	C1186.311768,433.931000 1190.502075,438.157837 1190.741699,447.907074 
	C1190.938110,455.894958 1190.792114,463.891296 1190.791870,471.883881 
	C1190.791748,475.253052 1190.290405,478.872498 1194.944702,480.437592 
	C1188.060303,480.437592 1181.175781,480.437592 1173.340698,480.437592 
	C1179.505981,477.107086 1177.803223,471.733795 1177.883789,466.891907 
	C1177.988892,460.566284 1178.016479,454.234772 1177.866333,447.910828 
	C1177.734253,442.350098 1175.717773,440.548157 1170.553711,440.886841 
	C1164.908813,441.257050 1162.232666,444.114014 1162.390991,448.893036 
	C1162.650024,456.710205 1162.576294,464.538300 1162.651245,472.361694 
	C1162.683105,475.674500 1162.096069,479.322266 1166.783569,480.755585 
	C1159.895996,480.755585 1153.008545,480.755585 1144.631470,480.755585 
	C1152.190552,477.543274 1150.118408,471.864777 1150.230591,466.950073 
	C1150.378662,460.460114 1150.280762,453.963074 1150.205566,447.470032 
	C1150.159790,443.518799 1148.920044,440.626038 1144.135010,440.819733 
	C1138.802002,441.035583 1134.893066,443.995331 1134.874023,448.185486 
	C1134.836792,456.344421 1134.671387,464.510834 1134.975952,472.658600 
	C1135.074341,475.289124 1136.478394,477.870789 1137.436768,480.963898 
	C1131.528442,480.963898 1124.369995,480.963898 1117.211548,480.963898 
	C1122.858398,478.715851 1121.592896,473.845032 1121.631714,469.546265 
	C1121.690308,463.052826 1121.683594,456.558136 1121.632324,450.064575 
	C1121.603882,446.472046 1122.664062,442.230103 1116.907349,441.017212 
	C1118.178833,440.421722 1119.450195,439.826233 1121.086182,439.113281 
z"/>
<path fill="#FBF7F7" opacity="1.000000" stroke="none" 
	d="
M1241.041504,439.950623 
	C1248.458374,450.907684 1248.380371,462.188751 1243.271973,473.432129 
	C1239.716309,481.258270 1232.605103,483.500763 1224.496460,482.786438 
	C1221.216919,482.497528 1217.983643,481.682129 1213.743774,480.931915 
	C1216.014648,488.200562 1209.856201,496.788300 1219.857544,502.969360 
	C1211.868408,502.969360 1204.719604,502.969360 1196.032837,502.969360 
	C1203.080322,499.948151 1201.619995,494.719116 1201.633057,490.006866 
	C1201.670410,476.510498 1201.808472,463.010254 1201.503418,449.520660 
	C1201.440674,446.749664 1199.625244,444.018341 1198.243652,440.247833 
	C1201.928955,438.876740 1207.051514,436.970978 1212.384155,434.987000 
	C1213.237549,436.354950 1213.988647,437.559113 1214.746948,438.774750 
	C1223.590820,434.886597 1232.381836,432.182922 1241.041504,439.950623 
M1214.848267,445.806519 
	C1214.856445,455.276062 1214.814087,464.746246 1214.932617,474.214417 
	C1214.948608,475.499847 1215.454590,477.603668 1216.272461,477.915588 
	C1220.394043,479.487549 1224.701782,480.118835 1228.515991,477.011292 
	C1235.161255,471.597168 1235.525635,446.837189 1228.526245,441.830109 
	C1226.035645,440.048431 1221.735840,440.313477 1218.325806,440.552948 
	C1217.077393,440.640625 1216.013672,443.358856 1214.848267,445.806519 
z"/>
<path fill="#FBF7F7" opacity="1.000000" stroke="none" 
	d="
M1303.634521,476.072845 
	C1303.779297,467.176422 1303.751221,458.691528 1303.896484,450.209595 
	C1303.964111,446.258972 1303.958984,442.519989 1299.038452,440.475250 
	C1304.202271,438.553467 1309.366211,436.631683 1315.165894,434.473267 
	C1315.653076,436.879089 1316.027466,438.727661 1316.420044,440.666748 
	C1319.795288,439.002838 1323.014282,436.954498 1326.524902,435.771515 
	C1337.133789,432.196747 1344.870239,437.719116 1345.011597,448.763519 
	C1345.105225,456.083069 1345.158081,463.406982 1345.004761,470.724274 
	C1344.921509,474.696655 1344.982422,478.400757 1349.181885,481.086426 
	C1342.198975,481.086426 1335.216064,481.086426 1328.233154,481.086426 
	C1333.541992,478.609741 1332.528320,473.863129 1332.542114,469.538269 
	C1332.565552,462.218109 1332.520508,454.897766 1332.536987,447.577545 
	C1332.546631,443.302460 1330.984253,440.468872 1326.224487,440.452942 
	C1320.660034,440.434296 1316.769897,443.537201 1316.742065,448.113312 
	C1316.696655,455.600128 1316.696533,463.087555 1316.734863,470.574402 
	C1316.754883,474.470734 1315.717896,478.848907 1320.854370,481.192383 
	C1313.664307,481.192383 1306.474243,481.192383 1299.424194,481.192383 
	C1300.858398,479.549255 1302.195557,478.017426 1303.634521,476.072845 
z"/>
<path fill="#FDFCFB" opacity="1.000000" stroke="none" 
	d="
M415.943665,232.859314 
	C406.980743,241.245728 395.722595,242.061417 387.216187,235.195938 
	C376.969574,226.925964 378.268127,211.170944 389.947357,205.122726 
	C397.371796,201.277908 405.123016,201.343613 412.271393,205.961227 
	C418.783051,210.167526 421.311829,216.572311 419.948517,224.102997 
	C419.413055,227.060776 417.483093,229.766098 415.943665,232.859314 
z"/>
<path fill="#FBF6F5" opacity="1.000000" stroke="none" 
	d="
M1060.752075,477.156738 
	C1049.742920,484.601837 1038.207642,484.968750 1026.518555,480.005432 
	C1014.961853,475.098419 1010.087646,465.233185 1009.262329,453.459686 
	C1006.939331,420.320984 1037.786499,412.216614 1056.945190,420.717743 
	C1058.553101,421.431213 1059.970825,423.877502 1060.351196,425.747711 
	C1060.923218,428.559784 1060.500122,431.574280 1060.500122,434.502716 
	C1060.095459,434.736633 1059.690918,434.970581 1059.286255,435.204529 
	C1058.166748,433.681091 1056.752930,432.292755 1055.980225,430.610016 
	C1053.186768,424.527283 1049.862793,419.541138 1041.927734,420.523560 
	C1033.694336,421.543030 1028.560303,426.113800 1026.273682,433.846497 
	C1022.991882,444.944672 1022.839600,456.185089 1026.139038,467.287537 
	C1028.293945,474.538361 1032.968872,479.385895 1040.961792,480.110870 
	C1049.781128,480.910797 1052.708862,479.048004 1056.098389,470.741180 
	C1056.982056,468.575562 1058.096802,466.504272 1059.105347,464.389648 
	C1059.674683,464.604034 1060.244141,464.818451 1060.813477,465.032867 
	C1060.813477,468.934967 1060.813477,472.837067 1060.752075,477.156738 
z"/>
<path fill="#FBF6F5" opacity="1.000000" stroke="none" 
	d="
M1270.498291,481.852844 
	C1261.323853,484.233704 1254.081055,481.408325 1252.179565,474.983917 
	C1250.076172,467.877289 1254.021973,461.846436 1263.181396,458.812378 
	C1267.563354,457.360840 1272.150513,456.528351 1277.670532,455.161438 
	C1277.358276,451.057495 1277.555054,446.384460 1276.406860,442.069336 
	C1275.937744,440.306183 1272.589844,438.371368 1270.489380,438.297943 
	C1269.001587,438.245911 1267.065308,440.985016 1265.966553,442.853058 
	C1265.000732,444.494781 1265.076294,446.712616 1264.414795,448.577698 
	C1263.262329,451.827637 1260.389160,453.090820 1257.646484,451.802155 
	C1255.909912,450.986267 1253.815674,447.794525 1254.206543,446.260406 
	C1254.953003,443.329620 1256.751221,439.842316 1259.193359,438.325134 
	C1266.037354,434.073425 1273.743896,433.898346 1281.290039,436.555298 
	C1285.859375,438.164185 1288.778564,441.761444 1289.116333,446.632874 
	C1289.632812,454.084167 1289.748291,461.569427 1289.827759,469.042480 
	C1289.874756,473.465485 1289.198975,478.112854 1296.127808,477.495178 
	C1291.434937,485.170654 1282.731323,484.670593 1277.477905,476.674652 
	C1275.267334,478.362000 1273.067749,480.040985 1270.498291,481.852844 
M1266.195557,475.294189 
	C1270.933472,477.967682 1277.709351,475.851898 1278.027954,471.417542 
	C1278.330078,467.210785 1278.092773,462.965240 1278.092773,458.707947 
	C1266.099731,459.536041 1261.630127,465.594086 1266.195557,475.294189 
z"/>
<path fill="#FBF7F7" opacity="1.000000" stroke="none" 
	d="
M1103.227539,479.376648 
	C1097.473999,480.671997 1091.948608,482.890259 1086.566406,482.584991 
	C1073.183716,481.825836 1065.266479,471.164307 1066.321411,456.832794 
	C1067.317017,443.306946 1076.871094,434.696381 1090.504517,435.037537 
	C1103.602905,435.365295 1112.807617,444.757782 1113.117065,457.919586 
	C1113.320923,466.585846 1110.908813,473.966522 1103.227539,479.376648 
M1082.158203,441.857971 
	C1078.645752,452.592072 1079.212158,463.472992 1081.391724,474.297363 
	C1082.256958,478.594696 1085.602295,480.382843 1090.003052,480.214722 
	C1094.596680,480.039185 1097.519531,477.330750 1097.732056,473.225311 
	C1098.218506,463.832703 1098.301880,454.374237 1097.681763,444.999847 
	C1097.520874,442.568024 1094.605957,439.386627 1092.166870,438.263947 
	C1088.826294,436.726318 1084.921997,437.414276 1082.158203,441.857971 
z"/>
<path fill="#FCF8F8" opacity="1.000000" stroke="none" 
	d="
M1421.080811,449.067444 
	C1421.357910,452.081879 1421.571045,454.692993 1421.833130,457.904358 
	C1412.058472,457.904358 1402.826416,457.904358 1393.134644,457.904358 
	C1392.926758,464.620453 1393.391113,470.701843 1399.134888,474.244873 
	C1406.633789,478.870483 1413.711548,476.729828 1420.762329,471.487823 
	C1420.542847,472.396576 1420.546387,473.447479 1420.070801,474.192780 
	C1413.151611,485.037109 1394.284424,486.363983 1385.363892,476.677246 
	C1373.182251,463.449432 1380.148438,440.027344 1397.555420,435.685791 
	C1408.464355,432.964966 1417.396729,437.906219 1421.080811,449.067444 
M1393.115845,455.370514 
	C1398.600708,455.640381 1404.085449,455.910248 1409.673340,456.185181 
	C1409.673340,451.715088 1410.008301,448.071594 1409.581909,444.519501 
	C1409.128906,440.744934 1406.911865,438.187897 1402.725342,437.977875 
	C1398.746704,437.778320 1395.822266,439.421295 1394.836426,443.290833 
	C1393.908447,446.933136 1393.585449,450.729523 1393.115845,455.370514 
z"/>
<path fill="#FBF6F5" opacity="1.000000" stroke="none" 
	d="
M1462.913330,467.955383 
	C1461.544312,476.443726 1457.840210,480.643097 1449.975708,482.049713 
	C1446.096191,482.743591 1441.891479,483.275299 1438.104004,482.522186 
	C1426.076538,480.130585 1426.869873,480.506531 1429.175781,467.461151 
	C1430.459839,469.421783 1431.812500,471.341339 1433.015137,473.350708 
	C1436.834229,479.731812 1440.769165,481.709961 1446.991821,479.234528 
	C1449.184204,478.362335 1451.945435,475.626587 1452.040527,473.627350 
	C1452.153320,471.251831 1450.209229,468.058289 1448.176270,466.489349 
	C1445.804321,464.658691 1442.377441,464.187714 1439.400391,463.149323 
	C1430.093384,459.902985 1426.648193,455.141449 1427.817383,447.116791 
	C1428.842407,440.082306 1435.118042,435.286438 1443.838135,434.903107 
	C1445.167358,434.844666 1446.503784,434.844879 1447.832764,434.906097 
	C1458.747070,435.408875 1460.097778,437.027252 1458.339111,449.614929 
	C1456.369507,447.000366 1454.910889,445.567444 1454.059326,443.835999 
	C1451.815674,439.273407 1448.496826,436.391388 1443.377319,438.121155 
	C1441.069580,438.900909 1438.324829,441.252563 1437.756226,443.411774 
	C1437.298218,445.151764 1439.281372,448.559631 1441.119995,449.661987 
	C1444.761963,451.845551 1449.054810,452.941040 1453.073975,454.498260 
	C1459.045898,456.812225 1462.691772,460.887787 1462.913330,467.955383 
z"/>
<path fill="#FDFBFB" opacity="1.000000" stroke="none" 
	d="
M1371.134033,440.195618 
	C1371.087036,450.337402 1371.060059,460.002075 1371.000610,469.666565 
	C1370.975586,473.733459 1370.248657,478.021240 1374.799316,481.080902 
	C1367.683472,481.080902 1360.567627,481.080902 1353.451660,481.080902 
	C1359.254517,478.917603 1357.860596,473.989563 1357.906616,469.704224 
	C1357.976196,463.206116 1358.215454,456.688049 1357.800659,450.215820 
	C1357.596436,447.028656 1356.086670,443.925232 1354.936646,439.994415 
	C1359.011963,438.582977 1364.528198,436.672516 1370.794922,434.502136 
	C1370.936646,436.638763 1371.038696,438.178619 1371.134033,440.195618 
z"/>
<path fill="#FBF6F5" opacity="1.000000" stroke="none" 
	d="
M1360.283691,416.955444 
	C1361.261719,416.580750 1361.860352,416.213593 1362.492676,416.140961 
	C1366.477295,415.683228 1369.865601,416.634613 1371.209595,420.848175 
	C1372.377441,424.509399 1371.076050,427.376251 1367.505615,428.963806 
	C1363.701050,430.655548 1360.086304,430.037598 1357.838135,426.560699 
	C1355.585815,423.077484 1356.244141,419.599152 1360.283691,416.955444 
z"/>
<path fill="#FCF8F8" opacity="1.000000" stroke="none" 
	d="
M154.748825,113.597572 
	C151.658875,113.600357 149.024643,113.600357 146.091034,113.600357 
	C146.091034,97.248283 146.091034,81.350723 146.091034,65.128403 
	C150.012360,65.128403 153.734344,65.128403 157.750366,65.128403 
	C157.878769,66.742905 158.000473,68.273003 158.139404,70.019836 
	C171.024399,61.067833 178.763184,61.252609 187.097092,70.769028 
	C191.332947,66.441673 196.133270,63.229534 202.611130,63.517570 
	C211.461212,63.911095 217.312973,68.733772 217.675034,77.565857 
	C218.157944,89.345879 217.794357,101.160614 217.794357,113.281189 
	C213.519485,113.281189 209.443939,113.281189 204.824249,113.281189 
	C204.824249,104.820778 204.853973,96.540779 204.807831,88.261208 
	C204.792099,85.436012 204.625809,82.609467 204.456116,79.787888 
	C204.254959,76.442970 202.674179,73.434364 199.288712,73.553474 
	C196.484116,73.652130 193.153336,75.039772 191.164307,76.988113 
	C189.542465,78.576767 189.012268,81.825600 188.948532,84.362198 
	C188.706696,93.985710 188.851166,103.618935 188.851166,113.571312 
	C184.059570,113.571312 179.999466,113.571312 175.283676,113.571312 
	C175.283676,106.419853 175.305145,99.311501 175.274780,92.203362 
	C175.259125,88.540131 175.173157,84.876724 175.078690,81.214432 
	C174.988693,77.725998 174.581726,74.361130 170.153976,73.799553 
	C165.794678,73.246635 162.073105,74.458664 160.275726,78.743980 
	C159.403900,80.822533 159.106262,83.259430 159.058182,85.544815 
	C158.886597,93.702606 158.805695,101.867477 158.964859,110.024315 
	C159.022705,112.988884 157.912170,113.932938 154.748825,113.597572 
z"/>
<path fill="#FDFBFB" opacity="1.000000" stroke="none" 
	d="
M794.323486,66.542114 
	C796.363464,70.064102 799.455383,73.280678 799.626099,76.645477 
	C800.239807,88.740799 799.867004,100.886162 799.867004,113.311508 
	C795.601929,113.311508 791.524719,113.311508 786.959961,113.311508 
	C786.959961,106.323074 786.962646,99.542427 786.958740,92.761780 
	C786.956909,89.598869 786.979126,86.435326 786.925659,83.273170 
	C786.805603,76.174835 784.734802,73.185127 780.001404,73.183899 
	C775.075806,73.182617 771.314941,77.153084 771.075562,83.302879 
	C770.764954,91.282959 770.859009,99.278877 770.786133,107.268044 
	C770.769836,109.053772 770.783752,110.839783 770.783752,112.874969 
	C766.186218,112.874969 762.105896,112.874969 757.379578,112.874969 
	C757.379578,102.724152 757.517212,92.762581 757.335571,82.806824 
	C757.193054,74.992325 755.824890,73.124947 751.107544,72.970390 
	C745.291809,72.779846 741.615234,76.211494 741.265747,83.115906 
	C740.862244,91.087959 741.063171,99.090721 741.007324,107.080185 
	C740.994812,108.871292 741.005554,110.662575 741.005554,112.688736 
	C736.518738,112.688736 732.458923,112.688736 728.160645,112.688736 
	C728.160645,96.746185 728.160645,81.025055 728.160645,65.058594 
	C732.133789,65.058594 735.883118,65.058594 739.845886,65.058594 
	C739.958862,66.814217 740.061951,68.416985 740.095398,68.936478 
	C745.079224,67.181755 750.081543,64.669205 755.359680,63.763435 
	C761.191589,62.762619 765.892761,65.963875 769.212952,70.850105 
	C778.192200,62.739719 785.381470,61.458893 794.323486,66.542114 
z"/>
<path fill="#FCF9F9" opacity="1.000000" stroke="none" 
	d="
M113.543716,65.803459 
	C109.264000,65.848351 105.435440,65.848351 101.606873,65.851013 
	C96.972008,56.970425 91.130127,54.133949 82.507561,57.356724 
	C80.294312,58.183945 77.477013,60.963211 77.404076,62.936859 
	C77.332321,64.878662 80.009010,67.941414 82.149483,68.759148 
	C89.267891,71.478630 96.923210,72.844612 103.938416,75.770660 
	C115.542114,80.610565 119.468872,92.393990 113.925278,103.588791 
	C113.630463,104.184135 113.320297,104.776917 112.960663,105.334366 
	C107.549728,113.721619 93.078888,117.394608 79.127258,113.931229 
	C69.212952,111.470070 62.788910,103.456398 61.966358,92.021423 
	C66.175621,91.587807 70.405655,91.152046 74.501320,90.730125 
	C80.007729,102.244118 84.323837,105.030472 94.427330,102.886047 
	C97.121208,102.314278 99.996658,100.504967 101.827354,98.419777 
	C105.070190,94.726112 103.549248,89.600418 98.893532,87.941292 
	C94.368416,86.328712 89.583344,85.461113 84.992912,84.011505 
	C81.203156,82.814743 77.273560,81.695610 73.862572,79.743988 
	C67.604729,76.163521 64.420601,70.528137 64.891472,63.127392 
	C65.344955,56.000023 68.773720,50.804329 75.311867,47.940151 
	C84.441093,43.940895 93.827789,43.943356 103.054718,47.385445 
	C109.193741,49.675594 113.097443,54.446007 114.622116,60.844250 
	C114.980255,62.347187 114.233376,64.113449 113.543716,65.803459 
z"/>
<path fill="#FDFAFA" opacity="1.000000" stroke="none" 
	d="
M662.463928,100.375793 
	C655.932495,111.943138 645.201843,116.908943 631.875366,114.763245 
	C619.606262,112.787788 609.708191,103.391075 607.108154,91.054062 
	C605.327332,82.604469 605.449707,74.154945 608.015381,65.861710 
	C613.985046,46.565342 638.320618,38.226017 655.001404,49.676697 
	C660.213074,53.254276 663.195007,58.261410 664.928528,64.692146 
	C660.580444,65.735298 656.306152,66.760765 652.104004,67.768913 
	C646.958374,58.198338 642.008240,55.196918 634.151794,56.672329 
	C627.356262,57.948505 622.630249,62.009018 621.799561,68.694809 
	C620.931458,75.682678 620.742676,82.986496 621.788574,89.921196 
	C623.056824,98.330170 629.009827,102.870674 636.414978,103.064499 
	C644.188721,103.267967 648.364319,99.902618 651.305115,91.084900 
	C651.509766,90.471313 651.814087,89.890968 652.241211,88.904175 
	C656.487305,90.341217 660.654663,91.751625 665.197144,93.288963 
	C664.262878,95.772133 663.456848,97.914711 662.463928,100.375793 
z"/>
<path fill="#FCF9F9" opacity="1.000000" stroke="none" 
	d="
M262.764343,113.039146 
	C253.747192,116.506310 250.653793,115.974716 239.878342,109.083412 
	C239.878342,116.927513 239.878342,124.465973 239.878342,132.299469 
	C235.443939,132.299469 231.499710,132.299469 227.116638,132.299469 
	C227.116638,110.091377 227.116638,87.741890 227.116638,65.096252 
	C231.062485,65.096252 234.802795,65.096252 238.897293,65.096252 
	C239.005600,66.883621 239.110229,68.610413 239.194260,69.996986 
	C242.953018,68.028397 246.467422,65.327080 250.417313,64.299103 
	C258.523438,62.189449 266.553558,66.058876 270.958862,73.221382 
	C278.666901,85.753784 274.864075,104.987549 262.764343,113.039146 
M250.679352,104.733452 
	C254.934250,104.818077 258.153595,102.938339 259.864227,99.126984 
	C262.707886,92.791290 262.934235,86.199951 260.104797,79.832428 
	C257.379883,73.700226 250.091156,71.888275 245.154282,76.063095 
	C239.742188,80.639809 239.218781,86.934128 240.171890,93.390625 
	C241.012756,99.086868 243.958649,103.234077 250.679352,104.733452 
z"/>
<path fill="#FDFAFA" opacity="1.000000" stroke="none" 
	d="
M828.178589,113.082771 
	C826.124023,111.651917 824.419495,110.389877 822.173462,108.726845 
	C822.173462,116.775421 822.173462,124.320305 822.173462,132.232758 
	C817.664978,132.232758 813.605408,132.232758 809.205444,132.232758 
	C809.205444,109.966614 809.205444,87.736885 809.205444,65.157516 
	C813.031433,65.157516 816.920227,65.157516 820.984924,65.157516 
	C821.122803,66.850533 821.254333,68.465149 821.366516,69.842438 
	C825.207703,67.935684 828.904602,65.141411 833.014343,64.249847 
	C843.196716,62.040874 853.118652,68.074532 855.275330,78.677689 
	C856.684021,85.603195 856.726196,93.375458 855.097900,100.225883 
	C852.140137,112.669388 840.770874,117.645195 828.178589,113.082771 
M822.136780,85.045586 
	C822.669067,89.439445 822.689453,93.978020 823.879089,98.186050 
	C825.046936,102.316978 828.647888,104.570503 832.978516,104.724388 
	C837.453003,104.883377 840.501160,102.384384 842.102600,98.320236 
	C844.506897,92.218628 844.693542,85.962166 842.055481,79.936455 
	C838.931458,72.800873 829.343628,71.671814 824.989380,77.872650 
	C823.698181,79.711418 823.165710,82.082954 822.136780,85.045586 
z"/>
<path fill="#FDFBFB" opacity="1.000000" stroke="none" 
	d="
M487.160828,45.995155 
	C490.925476,45.984299 494.209961,45.984299 497.763031,45.984299 
	C497.763031,54.082741 497.763031,61.695202 497.763031,70.191917 
	C499.698364,68.786797 501.026093,67.764305 502.411499,66.827049 
	C508.458832,62.735844 514.968933,62.479733 521.407898,65.363525 
	C527.477112,68.081741 529.173950,73.610870 529.174988,79.826401 
	C529.176697,90.794800 529.175415,101.763191 529.175415,113.162285 
	C525.145264,113.162285 521.143860,113.162285 516.435486,113.162285 
	C516.435486,103.202339 516.602478,93.418861 516.381836,83.644135 
	C516.210510,76.052582 514.167236,73.386330 509.254822,73.151901 
	C503.338318,72.869560 499.072693,76.343193 498.415558,83.107162 
	C497.774170,89.708763 498.040955,96.400200 497.947021,103.052727 
	C497.900391,106.355621 497.938965,109.659706 497.938965,113.275406 
	C493.502533,113.275406 489.428802,113.275406 484.835785,113.275406 
	C484.835785,110.457573 484.835724,107.839554 484.835754,105.221535 
	C484.835968,86.910851 484.795105,68.599892 484.916107,50.290005 
	C484.925568,48.858181 486.065918,47.433834 487.160828,45.995155 
z"/>
<path fill="#FCF9F9" opacity="1.000000" stroke="none" 
	d="
M357.135498,124.088638 
	C358.774597,123.550507 360.378632,123.372620 361.982635,123.372879 
	C369.293915,123.374046 373.732117,116.961884 371.085876,110.112625 
	C365.349457,95.264824 359.586212,80.427361 353.533569,64.810768 
	C357.760956,64.810768 361.398468,64.459740 364.904938,64.984512 
	C366.296509,65.192780 367.984894,67.130463 368.534882,68.645073 
	C372.034363,78.282448 375.253571,88.021599 379.618195,97.799759 
	C382.499237,89.144157 385.728790,80.584000 388.134888,71.798325 
	C389.657562,66.238289 392.235901,63.643661 398.103577,64.756012 
	C399.853546,65.087753 401.719604,64.807213 404.082886,64.807213 
	C398.472229,80.278770 393.063599,95.242615 387.612915,110.191116 
	C386.133972,114.247131 384.661102,118.314186 382.953217,122.276077 
	C379.154785,131.087708 374.639191,133.862259 365.092987,133.453110 
	C362.945068,133.361038 360.804016,133.110321 358.320221,132.904510 
	C357.902771,130.038727 357.501617,127.284828 357.135498,124.088638 
z"/>
<path fill="#FCF9F8" opacity="1.000000" stroke="none" 
	d="
M720.049561,83.106354 
	C723.604065,104.410088 706.914917,119.653419 687.228271,113.549858 
	C674.922058,109.734489 667.989075,97.820755 670.317871,84.490768 
	C672.664368,71.059280 682.761169,62.944992 696.375916,63.549259 
	C708.453247,64.085289 716.559937,70.658379 720.049561,83.106354 
M691.372620,103.727913 
	C698.723450,104.906601 702.966858,103.372948 705.337158,98.133797 
	C708.007568,92.231453 708.081543,86.132774 705.043030,80.315918 
	C701.317261,73.183525 691.728027,72.401093 686.674622,78.668320 
	C681.089111,85.595650 683.159058,98.468880 691.372620,103.727913 
z"/>
<path fill="#FCF9F9" opacity="1.000000" stroke="none" 
	d="
M918.956848,93.128136 
	C910.987610,93.128479 903.513245,93.128479 896.069885,93.128479 
	C895.691833,99.155807 898.317932,103.646332 902.689392,104.883400 
	C908.079712,106.408783 911.463867,104.640877 914.779724,98.303879 
	C918.677002,98.954575 922.702209,99.626640 926.756409,100.303543 
	C923.946594,110.365189 916.414429,115.291008 904.587830,115.004692 
	C893.305359,114.731560 885.073730,108.516373 883.233398,97.787903 
	C882.325256,92.494095 882.313416,86.775681 883.254578,81.491386 
	C885.273926,70.154068 894.214966,63.596748 905.844849,63.905514 
	C917.209351,64.207237 925.160889,71.113388 927.081970,82.514755 
	C927.628540,85.758873 927.810181,89.064468 928.242859,93.127792 
	C924.969360,93.127792 922.210510,93.127792 918.956848,93.128136 
M896.974731,84.980759 
	C902.910828,84.980759 908.846985,84.980759 914.784607,84.980759 
	C914.573730,77.471497 911.287537,73.811554 905.408325,73.565468 
	C900.319580,73.352470 895.390869,78.508026 896.974731,84.980759 
z"/>
<path fill="#FCF9F9" opacity="1.000000" stroke="none" 
	d="
M578.789429,93.133057 
	C568.672913,93.146530 559.035522,93.146530 549.445068,93.146530 
	C548.617920,98.470268 550.954895,103.056740 555.117126,104.650848 
	C560.237549,106.611908 563.995972,104.822380 568.120605,98.308098 
	C571.924438,98.954300 575.825928,99.617104 579.737122,100.281540 
	C577.406006,111.040512 566.536987,117.019241 553.839355,114.710648 
	C543.992493,112.920372 537.229248,106.399895 536.086853,96.449501 
	C535.491333,91.263031 535.498047,85.729004 536.652588,80.676376 
	C539.279419,69.179787 547.814270,63.405792 559.812073,63.939991 
	C570.539429,64.417625 578.209534,71.167793 580.095520,82.350151 
	C580.688782,85.867592 583.196838,89.833916 578.789429,93.133057 
M553.744080,74.785194 
	C551.844727,77.839943 549.945374,80.894699 547.562622,84.726837 
	C555.457642,84.726837 561.671997,84.726837 567.889832,84.726837 
	C567.578552,75.659279 563.326721,72.475830 553.744080,74.785194 
z"/>
<path fill="#FCF8F8" opacity="1.000000" stroke="none" 
	d="
M460.048370,94.999405 
	C460.048370,101.454521 460.048370,107.409775 460.048370,113.632660 
	C455.371582,113.632660 451.129303,113.632660 446.362488,113.632660 
	C446.362488,95.125893 446.362488,76.735893 446.362488,57.719044 
	C439.486725,57.719044 433.110657,57.719044 426.478760,57.719044 
	C426.478760,53.665924 426.478760,50.234081 426.478760,46.391747 
	C444.124268,46.391747 461.809418,46.391747 479.770386,46.391747 
	C479.770386,49.910240 479.770386,53.485680 479.770386,57.611588 
	C473.298370,57.611588 466.895081,57.611588 460.048370,57.611588 
	C460.048370,70.269104 460.048370,82.384315 460.048370,94.999405 
z"/>
<path fill="#FCF9F8" opacity="1.000000" stroke="none" 
	d="
M943.829834,113.461441 
	C938.931152,113.735039 934.340271,113.735039 928.941101,113.735039 
	C934.936340,104.984764 940.541992,96.803101 946.232727,88.497261 
	C940.817017,80.810577 935.480103,73.235672 930.152710,65.674377 
	C941.912598,62.014336 949.508240,66.123070 953.218567,78.708992 
	C956.058411,74.749504 958.411072,71.990128 960.160095,68.890137 
	C962.060425,65.521957 964.569763,64.360367 968.316223,64.745384 
	C971.277527,65.049713 974.294983,64.806587 978.371521,64.806587 
	C972.598511,72.914368 967.277100,80.387856 961.718079,88.195038 
	C967.513000,96.442490 973.301453,104.680771 979.089905,112.919052 
	C978.961853,113.381989 978.833801,113.844933 978.705750,114.307877 
	C973.491516,113.772743 967.290649,114.791229 963.332886,112.277679 
	C959.141846,109.616051 957.084167,103.595352 953.838501,98.651680 
	C950.369202,103.850334 947.253479,108.519081 943.829834,113.461441 
z"/>
<path fill="#FBF7F7" opacity="1.000000" stroke="none" 
	d="
M351.430664,64.764999 
	C351.821930,68.108803 351.821930,71.212463 351.821930,74.734497 
	C348.914246,74.734497 346.149200,74.734497 342.820251,74.734497 
	C342.820251,87.699478 342.820251,100.262901 342.820251,113.221497 
	C338.365601,113.221497 334.468689,113.221497 329.963684,113.221497 
	C329.963684,100.700089 329.963684,88.151543 329.963684,75.323486 
	C327.292816,75.141121 325.192993,74.997742 322.818848,74.835632 
	C322.818848,71.639244 322.818848,68.543839 322.818848,65.095139 
	C324.943329,64.923286 327.031494,64.754364 329.583405,64.547928 
	C330.393372,58.247253 328.286194,50.696003 335.620514,46.806007 
	C341.950897,43.448463 348.506348,44.758480 355.544067,46.315792 
	C354.998383,49.232090 354.490540,51.946102 353.992889,54.605610 
	C342.041809,55.776825 341.921295,55.882015 343.313171,64.524857 
	C345.810028,64.524857 348.424713,64.524857 351.430664,64.764999 
z"/>
<path fill="#FCF9F8" opacity="1.000000" stroke="none" 
	d="
M1430.034302,72.048279 
	C1430.036987,76.664520 1430.036987,80.793533 1430.036987,85.143784 
	C1427.180176,85.143784 1424.736938,85.143784 1421.968994,85.143784 
	C1421.968994,72.155525 1421.968994,59.251701 1421.968994,46.381733 
	C1427.047607,44.920696 1430.438232,46.296841 1432.826172,51.256268 
	C1435.115601,56.011433 1438.295776,60.337711 1441.347046,65.277405 
	C1444.492065,60.215424 1447.668335,55.756477 1450.137085,50.935280 
	C1452.343140,46.627365 1455.251709,45.160976 1460.057861,46.717728 
	C1460.057861,59.359272 1460.057861,72.101212 1460.057861,85.117493 
	C1457.501221,85.117493 1455.092285,85.117493 1452.330566,85.117493 
	C1452.330566,77.363495 1452.330566,69.837387 1452.330566,60.703873 
	C1449.255249,65.364288 1447.039185,68.767014 1444.777466,72.139099 
	C1441.889160,76.445244 1440.034302,76.396652 1437.140503,71.949188 
	C1435.012451,68.678474 1432.920288,65.384407 1430.031616,60.885147 
	C1430.031616,65.416740 1430.031616,68.488899 1430.034302,72.048279 
z"/>
<path fill="#FAF1F1" opacity="1.000000" stroke="none" 
	d="
M863.405884,68.999924 
	C863.406006,61.211792 863.406006,53.923653 863.406006,46.304661 
	C867.844604,46.304661 871.914612,46.304661 876.375000,46.304661 
	C876.375000,68.533859 876.375000,90.858978 876.375000,113.558640 
	C872.324646,113.558640 868.260742,113.558640 863.405823,113.558640 
	C863.405823,98.934769 863.405823,84.217339 863.405884,68.999924 
z"/>
<path fill="#FCF9F8" opacity="1.000000" stroke="none" 
	d="
M286.097351,45.990681 
	C289.035553,45.991432 291.502625,45.991432 294.189392,45.991432 
	C294.189392,68.723976 294.189392,91.090027 294.189392,113.645340 
	C289.855469,113.645340 285.788971,113.645340 281.461731,113.645340 
	C281.461731,91.183052 281.461731,68.976997 281.461731,46.305595 
	C282.795074,46.204529 284.210632,46.097229 286.097351,45.990681 
z"/>
<path fill="#FAF1F1" opacity="1.000000" stroke="none" 
	d="
M124.320755,85.000443 
	C124.320839,78.176926 124.320839,71.853233 124.320839,65.152145 
	C128.774185,65.152145 132.985291,65.152145 137.374542,65.152145 
	C137.374542,81.332031 137.374542,97.398926 137.374542,113.696442 
	C133.116852,113.696442 129.166519,113.696442 124.320679,113.696442 
	C124.320679,104.307800 124.320679,94.904037 124.320755,85.000443 
z"/>
<path fill="#FEFDFD" opacity="1.000000" stroke="none" 
	d="
M316.966553,108.829269 
	C316.966553,110.614883 316.966553,111.920128 316.966553,113.558533 
	C312.612396,113.558533 308.565796,113.558533 304.197571,113.558533 
	C304.197571,97.481781 304.197571,81.464622 304.197571,65.136993 
	C308.269043,65.136993 312.324493,65.136993 316.966583,65.136993 
	C316.966583,79.554558 316.966583,93.951736 316.966553,108.829269 
z"/>
<path fill="#FBF6F5" opacity="1.000000" stroke="none" 
	d="
M1411.601196,45.992329 
	C1417.098877,47.142349 1413.191772,50.850094 1414.836792,53.724716 
	C1410.597046,53.724716 1407.036377,53.724716 1403.129150,53.724716 
	C1403.129150,64.357544 1403.129150,74.454254 1403.129150,84.958099 
	C1400.231323,84.958099 1397.688965,84.958099 1394.502563,84.958099 
	C1394.502563,74.839569 1394.502563,64.634018 1394.502563,54.025902 
	C1390.465454,54.025902 1387.038330,54.025902 1383.260986,54.025902 
	C1383.260986,51.244312 1383.260986,48.869019 1383.260986,45.990395 
	C1392.584717,45.990395 1401.864868,45.990395 1411.601196,45.992329 
z"/>
<path fill="#FAF1F1" opacity="1.000000" stroke="none" 
	d="
M137.685776,52.913750 
	C137.610031,54.831802 137.534393,56.289639 137.448212,57.950783 
	C133.048584,57.950783 128.966492,57.950783 124.602615,57.950783 
	C124.602615,54.017696 124.602615,50.299351 124.602615,46.272228 
	C128.793945,46.272228 132.862808,46.272228 137.685883,46.272228 
	C137.685883,48.292439 137.685883,50.372986 137.685776,52.913750 
z"/>
<path fill="#FEFDFD" opacity="1.000000" stroke="none" 
	d="
M303.884674,54.899796 
	C303.883575,51.788647 303.883575,49.161541 303.883575,46.269024 
	C308.302795,46.269024 312.371399,46.269024 316.707825,46.269024 
	C316.707825,50.098289 316.707825,53.828979 316.707825,58.107533 
	C313.171173,58.107533 309.715851,58.288643 306.304199,57.982952 
	C305.427460,57.904400 304.688202,56.291737 303.884674,54.899796 
z"/>
<path fill="#B82229" opacity="1.000000" stroke="none" 
	d="
M757.067993,324.935730 
	C756.128052,332.831238 755.824341,340.382446 754.146301,347.614868 
	C749.467468,367.781281 737.460693,375.065338 717.324097,370.645508 
	C707.156189,368.413727 707.154236,368.413727 707.153748,357.888519 
	C707.152588,330.932648 707.237305,303.976227 707.056824,277.021545 
	C707.031616,273.263092 708.138916,271.092163 711.639465,270.035797 
	C715.916809,268.744995 720.102905,266.950134 724.470520,266.198517 
	C737.224426,264.003662 747.374207,269.933380 752.176514,282.117828 
	C756.462402,292.991852 757.057129,304.448212 757.116089,315.960449 
	C757.130554,318.788788 757.091492,321.617432 757.067993,324.935730 
z"/>
<path fill="#B82229" opacity="1.000000" stroke="none" 
	d="
M924.032043,261.723450 
	C938.160950,259.214813 947.059021,264.486389 948.948120,278.125763 
	C950.318726,288.021149 949.215759,298.259186 949.215759,308.709930 
	C934.517151,308.709930 919.815979,308.709930 904.705383,308.709930 
	C904.765320,296.484680 905.664062,284.488678 910.609131,273.171143 
	C913.123474,267.416626 917.245361,263.261597 924.032043,261.723450 
z"/>
<path fill="#B82229" opacity="1.000000" stroke="none" 
	d="
M1214.856934,445.341797 
	C1216.013672,443.358856 1217.077393,440.640625 1218.325806,440.552948 
	C1221.735840,440.313477 1226.035645,440.048431 1228.526245,441.830109 
	C1235.525635,446.837189 1235.161255,471.597168 1228.515991,477.011292 
	C1224.701782,480.118835 1220.394043,479.487549 1216.272461,477.915588 
	C1215.454590,477.603668 1214.948608,475.499847 1214.932617,474.214417 
	C1214.814087,464.746246 1214.856445,455.276062 1214.856934,445.341797 
z"/>
<path fill="#B9242B" opacity="1.000000" stroke="none" 
	d="
M1265.959961,474.980957 
	C1261.630127,465.594086 1266.099731,459.536041 1278.092773,458.707947 
	C1278.092773,462.965240 1278.330078,467.210785 1278.027954,471.417542 
	C1277.709351,475.851898 1270.933472,477.967682 1265.959961,474.980957 
z"/>
<path fill="#B82229" opacity="1.000000" stroke="none" 
	d="
M1082.356934,441.511932 
	C1084.921997,437.414276 1088.826294,436.726318 1092.166870,438.263947 
	C1094.605957,439.386627 1097.520874,442.568024 1097.681763,444.999847 
	C1098.301880,454.374237 1098.218506,463.832703 1097.732056,473.225311 
	C1097.519531,477.330750 1094.596680,480.039185 1090.003052,480.214722 
	C1085.602295,480.382843 1082.256958,478.594696 1081.391724,474.297363 
	C1079.212158,463.472992 1078.645752,452.592072 1082.356934,441.511932 
z"/>
<path fill="#B9242B" opacity="1.000000" stroke="none" 
	d="
M1393.056030,454.914307 
	C1393.585449,450.729523 1393.908447,446.933136 1394.836426,443.290833 
	C1395.822266,439.421295 1398.746704,437.778320 1402.725342,437.977875 
	C1406.911865,438.187897 1409.128906,440.744934 1409.581909,444.519501 
	C1410.008301,448.071594 1409.673340,451.715088 1409.673340,456.185181 
	C1404.085449,455.910248 1398.600708,455.640381 1393.056030,454.914307 
z"/>
<path fill="#B9242B" opacity="1.000000" stroke="none" 
	d="
M250.301361,104.675354 
	C243.958649,103.234077 241.012756,99.086868 240.171890,93.390625 
	C239.218781,86.934128 239.742188,80.639809 245.154282,76.063095 
	C250.091156,71.888275 257.379883,73.700226 260.104797,79.832428 
	C262.934235,86.199951 262.707886,92.791290 259.864227,99.126984 
	C258.153595,102.938339 254.934250,104.818077 250.301361,104.675354 
z"/>
<path fill="#B9242B" opacity="1.000000" stroke="none" 
	d="
M822.211182,84.627975 
	C823.165710,82.082954 823.698181,79.711418 824.989380,77.872650 
	C829.343628,71.671814 838.931458,72.800873 842.055481,79.936455 
	C844.693542,85.962166 844.506897,92.218628 842.102600,98.320236 
	C840.501160,102.384384 837.453003,104.883377 832.978516,104.724388 
	C828.647888,104.570503 825.046936,102.316978 823.879089,98.186050 
	C822.689453,93.978020 822.669067,89.439445 822.211182,84.627975 
z"/>
<path fill="#B82229" opacity="1.000000" stroke="none" 
	d="
M691.009277,103.546829 
	C683.159058,98.468880 681.089111,85.595650 686.674622,78.668320 
	C691.728027,72.401093 701.317261,73.183525 705.043030,80.315918 
	C708.081543,86.132774 708.007568,92.231453 705.337158,98.133797 
	C702.966858,103.372948 698.723450,104.906601 691.009277,103.546829 
z"/>
<path fill="#B82229" opacity="1.000000" stroke="none" 
	d="
M896.561646,84.814507 
	C895.390869,78.508026 900.319580,73.352470 905.408325,73.565468 
	C911.287537,73.811554 914.573730,77.471497 914.784607,84.980759 
	C908.846985,84.980759 902.910828,84.980759 896.561646,84.814507 
z"/>
<path fill="#B9242B" opacity="1.000000" stroke="none" 
	d="
M554.091248,74.568977 
	C563.326721,72.475830 567.578552,75.659279 567.889832,84.726837 
	C561.671997,84.726837 555.457642,84.726837 547.562622,84.726837 
	C549.945374,80.894699 551.844727,77.839943 554.091248,74.568977 
z"/>
</svg>